<svg xmlns="http://www.w3.org/2000/svg" viewBox="0 0 18.51538 17.83957"><title>clapper-board-icon-uc-santa-barbara</title><g id="ICONS"><path d="M5.58819,9.26715h0L2.83371,6.65435l-.01463-.01371L.43968,4.38373h0L.4406,4.38185H.43968v0h0l-.00091.00188H.43968V8.93807a.32721.32721,0,0,0,.32481.32908H5.58728l.00091.00091h0V9.26715ZM.85346,4.172,16.3258.02622a.769.769,0,0,1,.94153.54328l.38087,1.4199A.77126.77126,0,0,1,17.104,2.93Q11.75242,4.3656,6.39747,5.79936L4.11893,6.41l-.17337.04571H17.74662a.7714.7714,0,0,1,.76876.76967V8.69462a.76711.76711,0,0,1-.22548.54328l-.01371.0128a.69634.69634,0,0,1-.07435.06307v7.20767A1.32048,1.32048,0,0,1,16.884,17.83957H1.7377A1.32226,1.32226,0,0,1,.41988,16.52144V9.62212a.77537.77537,0,0,1-.19349-.14077L.22548,9.48044A.77086.77086,0,0,1,0,8.93807V4.38373a.43146.43146,0,0,1,.07252-.2401L.0716,4.14271a.44076.44076,0,0,1,.444-.19074V3.95106a.4425.4425,0,0,1,.22639.11487l.11152.106Zm4.73473,5.0961Zm0,0Zm0,0Zm.39215.19593-.007.01127v.00183l-.00427.00609h0l-.0067.0128-.00091.00091-.00092.00183-.00182.00152v.00183l-.00183.00244h0l-.00153.00274v.00092l-.00274.00243h0l-.00152.00275-.00092.00152-.00091.00183-.00183.00274L5.94591,9.521,5.945,9.52188,5.94134,9.528H5.94073l-.00183.00244-.00183.00366L5.93555,9.535l-.00092.00152-.00091.00183-.00091.00092L5.931,9.54077l-.00061.00183-.00274.00183-.00183.00335h0l-.00244.00274h0L5.92153,9.553l-.00091.00091-.00153.00178-.00091.001-.00091.00153L5.91544,9.56l-.00061.00091L5.913,9.56332h0l-.00335.00274-.00183.00244-.00091.00091-.00183.00183-.00061.00091-.00183.00153-.00091.00183-.00183.00091-.00061.00152-.00092.00092-.00274.00183V9.5816l-.00244.00147h0l-.00274.0028-.00091.00091L5.888,9.5883v.00086l-.00274.001L5.88436,9.592l-.00152.00091L5.881,9.5944l-.00092.00086-.00243.00279-.00275.00153h0l-.00243.00365h0l-.00518.00335-.00092.00087L5.86455,9.609,5.863,9.60994l-.00091.00091-.00183.00269H5.85937l-.00243.00158H5.856l-.00274.00274h0l-.00244.00152V9.6203l-.00274.00182H5.84719L5.84566,9.624l-.00183.00061-.00091.00183-.00244.00091H5.83957l-.00183.00244H5.83683l-.00336.00183-.0198.01219-.00092.00091h0l-.00243.00153H5.8094L5.80575,9.648h0l-.00336.00183v.00061l-.00609.00269-.00091.001L5.793,9.656H5.792l-.00182.00152-.00153.00091H5.78685L5.785,9.66021H5.7835l-.00183.00153H5.78076l-.00244.00182H5.77741l-.00335.00178h0l-.00366.001v.00061L5.768,9.66783l-.00426.00183-.00092.00091L5.761,9.67143l-.00183.00067H5.7576L5.75578,9.673,5.754,9.67392l-.00244.00092-.00091.00091-.00244.00092H5.74724l-.00274.00152H5.74359l-.00335.00091h0l-.00336.00183h0l-.00365.00152H5.729l-.00244.00183-.00091.00092H5.72287l-.00153.00091H5.71952L5.71769,9.687l-.00153.0006-.00274.00092H5.71251l-.00335.00091h0l-.00336.00092h0l-.00365.00091h0l-.00335.00147H5.69788l-.00335.001h0l-.00366.00091H5.69026l-.00274.00092H5.68569l-.00152.00091H5.67991l-.00183.00092H5.67625l-.00152.0006H5.67381l-.00366.00087h-.0006l-.00366.001H5.66162l-.00243.00092-.00183.00091h-.007v.00092H5.647l-.00092.0006H5.64l-.00244.00092H5.63329L5.62963,9.705H5.62536l-.00426.001H5.60647l-.00183.00091H.85925v6.81461a.87933.87933,0,0,0,.87845.87845H16.884a.88083.88083,0,0,0,.87906-.87845V9.46307l-.01645.00092ZM.43785,4.38282l.00092-.001.00091.001-.00091.00091L.43785,4.38282Zm3.303,1.674-.70234.188-1.812-1.7185L4.59487,3.6235,3.7408,6.05683ZM5.108,3.48547,9.1745,2.39617,8.31921,4.83011l-2.03478.54506L4.253,5.91942l.855-2.43395ZM9.6864,2.25967,8.83141,4.693l4.06652-1.0893.855-2.43394L9.6864,2.25967Zm4.57872-1.22733-.855,2.43394L16.991,2.50587a.32436.32436,0,0,0,.19958-.15266.32912.32912,0,0,0,.03352-.25052L16.84318.68254a.3297.3297,0,0,0-.404-.23309l-2.174.58289ZM8.088,6.89537l-1.44,2.1076h4.20881l1.44-2.1076ZM6.11684,9.003H5.94591L5.89319,8.9527l-.00365-.00341L3.72526,6.89537H7.55655L6.11684,9.003Zm6.711-2.1076L11.38815,9.003H15.597l1.43971-2.1076Zm4.74021,0L16.12714,9.003h1.73892a.33935.33935,0,0,0,.10512-.06672L17.98,8.92771a.33073.33073,0,0,0,.09659-.23309V7.22536a.32978.32978,0,0,0-.33-.33Z" style="fill:#a1afba;fill-rule:evenodd"/></g></svg>