<svg xmlns="http://www.w3.org/2000/svg" viewBox="0 0 19.30759 13.39795"><title>identification-card-icon-uc-santa-barbara</title><g id="ICONS"><path d="M9.39145,1.47962a1.102,1.102,0,0,1,.78163.3239l.01219.01279a1.10544,1.10544,0,0,1-.01318,1.55032l-.0128.01218a1.10493,1.10493,0,1,1-.76784-1.89919Zm0,9.442a.21984.21984,0,1,1,0-.43968h6.6391a.21984.21984,0,0,1,0,.43968Zm0-1.83795a.21938.21938,0,1,1,0-.43876h8.02213a.21938.21938,0,1,1,0,.43876ZM4.463,4.44557A1.8848,1.8848,0,0,1,5.79569,7.66289a1.936,1.936,0,0,1-.35315.27728A2.93462,2.93462,0,0,1,6.535,8.63031l.013.01371a2.91876,2.91876,0,0,1,.84555,2.05733.22062.22062,0,0,1-.2203.2203H1.75507a.22.22,0,0,1-.22-.2203,2.92114,2.92114,0,0,1,.85834-2.07043l.00091-.00061a2.9478,2.9478,0,0,1,1.08991-.68923,1.94692,1.94692,0,0,1-.35406-.27819A1.88457,1.88457,0,0,1,4.463,4.44557Zm.07244,3.7673c-.02407.00086-.04844.00183-.07244.00183s-.04761-.001-.07077-.00183a2.48957,2.48957,0,0,0-2.408,2.2691H6.94441a2.48041,2.48041,0,0,0-.709-1.53051L6.225,8.9411a2.48446,2.48446,0,0,0-1.68956-.72823Zm.94914-2.90439a1.44484,1.44484,0,1,0-1.089,2.465l.06825-.00092.06734.00092a1.4449,1.4449,0,0,0,.9534-2.465ZM1.31813,0A1.32016,1.32016,0,0,0,0,1.31813V12.07981a1.31415,1.31415,0,0,0,.38453.92842l.00183.00183L.387,13.011l.00091.00091a1.3155,1.3155,0,0,0,.93025.38606H17.98946a1.31807,1.31807,0,0,0,1.31813-1.31814V1.31813A1.31606,1.31606,0,0,0,18.92154.387h-.00091A1.31144,1.31144,0,0,0,17.98946,0ZM17.98946.43968H1.31813a.88.88,0,0,0-.87936.87845V12.07981a.878.878,0,0,0,.25747.621l.00091.00092a.87453.87453,0,0,0,.621.25655H17.98946a.8801.8801,0,0,0,.87937-.87845V1.31813a.87733.87733,0,0,0-.25747-.62134h-.00061a.87818.87818,0,0,0-.62129-.25711ZM9.86191,2.1134a.665.665,0,1,0-.01036.95371l.01036-.01128a.66738.66738,0,0,0,.01036-.933Z" style="fill:#a1afba;fill-rule:evenodd"/></g></svg>