<svg xmlns="http://www.w3.org/2000/svg" viewBox="0 0 17.74327 21.68456"><title>man-icon-uc-santa-barbara</title><g id="ICONS"><path d="M11.84672,10.97954c.01036.13224.02072.2849.03291.45614a14.59555,14.59555,0,0,0,.16667,1.65818l.74438.45857a9.26134,9.26134,0,0,1,3.614,1.465,2.96,2.96,0,0,1,1.33855,2.37605h-.00092v2.973a1.32121,1.32121,0,0,1-.386.93117h-.00061a1.31582,1.31582,0,0,1-.93025.387H1.31813a1.31635,1.31635,0,0,1-.93025-.387h0v-.00092l-.00274-.00279A1.31187,1.31187,0,0,1,0,20.36642v-2.973a2.94616,2.94616,0,0,1,1.34068-2.37A9.32714,9.32714,0,0,1,4.962,13.56462l.74895-.48783a14.73993,14.73993,0,0,0,.14321-1.66274c.00975-.177.01829-.337.0259-.45431q-.17733-.192-.34187-.40159A7.13679,7.13679,0,0,1,4.45928,8.61629a6.11915,6.11915,0,0,1-.38423-2.07713V6.50564a.18309.18309,0,0,1,.00335-.04235c-.00335-.0908-.00518-.17551-.00518-.249,0-.36528-.00609-.659-.01127-.9439C4.00771,2.28367,3.96627,0,8.87285,0c4.906,0,4.86453,2.28367,4.81029,5.27039-.00518.28489-.01036.57862-.01036.9439,0,.02438-.00091.07258-.00274.14266l-.00244.10878a.36933.36933,0,0,1,.00336.03991h.00091v.03352a6.09951,6.09951,0,0,1-.38605,2.07713,7.1291,7.1291,0,0,1-1.07894,1.94186c-.11488.14742-.23584.28758-.36016.42139Zm-5.5891-.25838.00182.00091.00244.00366.00792.00762a4.89205,4.89205,0,0,0,1.07011.85773,3.06849,3.06849,0,0,0,1.53294.451,3.06286,3.06286,0,0,0,1.53234-.451,5.23586,5.23586,0,0,0,1.45707-1.3032A6.67579,6.67579,0,0,0,12.87386,8.467a5.89368,5.89368,0,0,0,.33487-1.45189l-.35559-1.09875-.00365-.01188a3.77482,3.77482,0,0,1-.10543-.6289c-.01645-.18648-.02072-.38179-.02407-.57162a4.3756,4.3756,0,0,0-.04571-.64444l-.00274-.01645a1.1,1.1,0,0,0-.202-.48112c-.3498-.45863-1.25506-.23675-2.1393-.02072a6.69344,6.69344,0,0,1-1.45738.25046A6.77435,6.77435,0,0,1,7.523,3.56712c-.91379-.209-1.91656-.43877-2.24746-.00518a1.10667,1.10667,0,0,0-.20385.49757A4.25592,4.25592,0,0,0,5.026,4.704c-.00427.18983-.00853.38514-.025.57162v.00091h0a3.79,3.79,0,0,1-.10451.628l-.00426.0128h.00061l-.3565,1.09356A5.86521,5.86521,0,0,0,4.87215,8.467a6.67579,6.67579,0,0,0,1.0116,1.82089c.11914.15174.24437.29708.37387.43328Zm.03808.64627-.00426.06916A15.92619,15.92619,0,0,1,6.147,13.12488c.04144.03113.08288.0616.12371.09086a6.93383,6.93383,0,0,0,.89825.55181,3.50594,3.50594,0,0,0,1.82759.42749,4.06491,4.06491,0,0,0,1.51649-.43267,9.81235,9.81235,0,0,0,.94152-.52927c.05089-.032.10208-.064.15388-.09689a16.19365,16.19365,0,0,1-.16668-1.67128l-.00518-.08471a5.12024,5.12024,0,0,1-.81111.58985,3.50143,3.50143,0,0,1-1.75263.51164,3.49868,3.49868,0,0,1-1.75233-.51164,5.042,5.042,0,0,1-.82482-.60264Zm6.9435-5.72135.0067-.38179C13.29618,2.52992,13.334.43968,8.87285.43968c-4.4608,0-4.4221,2.09024-4.37274,4.82461l.0067.38a3.669,3.669,0,0,0,.057-.40586h0c.01645-.195.02072-.37143.02438-.54328a4.72036,4.72036,0,0,1,.05088-.71178,1.55439,1.55439,0,0,1,.28764-.6874c.50184-.65724,1.64964-.39459,2.69385-.1554a6.49274,6.49274,0,0,0,1.25231.21237,6.29245,6.29245,0,0,0,1.35439-.23827c1.02105-.249,2.06769-.50458,2.59025.1813a1.54306,1.54306,0,0,1,.2852.66759l.00335.01981a4.71647,4.71647,0,0,1,.0518.71178c.00335.17276.007.34827.02438.54413a3.31178,3.31178,0,0,0,.057.40683ZM5.89137,13.48082l-.443.29038-.10786.06972A3.05383,3.05383,0,0,0,6.60589,14.886a5.40063,5.40063,0,0,0,2.26635.51134,5.002,5.002,0,0,0,2.14722-.50945,3.81657,3.81657,0,0,0,1.38-1.06249l-.10695-.06551-.43024-.26509q-.21756.13977-.42841.266a5.324,5.324,0,0,1-2.41139.8723,4.38824,4.38824,0,0,1-2.71914-.86377q-.20064-.13345-.41195-.28855Zm-.95615.5381A8.73552,8.73552,0,0,0,1.603,15.37423,2.52751,2.52751,0,0,0,.4406,17.39347v2.973a.87514.87514,0,0,0,.25655.621H.69807a.87283.87283,0,0,0,.62006.25839H16.42544a.88168.88168,0,0,0,.87906-.87937v-2.973h0a2.54572,2.54572,0,0,0-1.16426-2.02625,8.70722,8.70722,0,0,0-3.32945-1.36292,4.16246,4.16246,0,0,1-1.60059,1.27821,5.45826,5.45826,0,0,1-2.338.55273,5.86636,5.86636,0,0,1-2.4574-.55425A3.44469,3.44469,0,0,1,4.93522,14.01892Z" style="fill:#a1afba;fill-rule:evenodd"/></g></svg>