<svg xmlns="http://www.w3.org/2000/svg" viewBox="0 0 17.74235 22.28642"><title>man-hat-icon-uc-santa-barbara</title><g id="ICONS"><path d="M9.12423.60461V.45439A1.8761,1.8761,0,0,0,8.86615.43794a1.82766,1.82766,0,0,0-.22822.01371v.153c.07617-.00092.15479-.00183.234-.00183.08562,0,.16941.00091.25229.00183ZM11.86135,14.0967A5.99479,5.99479,0,0,1,9.02155,15.236a4.73856,4.73856,0,0,1-3.1311-1.15238l-.55089.36016a3.0537,3.0537,0,0,0,1.26511,1.04415,5.3967,5.3967,0,0,0,2.26666.51225,4.99963,4.99963,0,0,0,2.14691-.50945,3.81783,3.81783,0,0,0,1.38029-1.06249l-.53718-.33152Zm-5.71525-.369a15.926,15.926,0,0,0,.14442-1.68834l.00427-.06916a5.10292,5.10292,0,0,0,.82482.60269,3.49647,3.49647,0,0,0,1.75233.51159,3.49925,3.49925,0,0,0,1.75263-.51159,5.14456,5.14456,0,0,0,.81111-.59051l.00518.08532a16.44066,16.44066,0,0,0,.16576,1.67036,5.58,5.58,0,0,1-2.61006,1.06005A4.338,4.338,0,0,1,6.1461,13.72771Zm6.66378.87937A8.70627,8.70627,0,0,1,16.13933,15.97a2.54441,2.54441,0,0,1,1.16334,2.02625h.00092v2.973a.88168.88168,0,0,1-.87906.87845H1.31813a.87547.87547,0,0,1-.62128-.25747l-.00061-.00091a.87369.87369,0,0,1-.25747-.62007v-2.973A2.52725,2.52725,0,0,1,1.60211,15.977a8.75,8.75,0,0,1,3.3322-1.35622,3.43274,3.43274,0,0,0,1.47962,1.263,5.873,5.873,0,0,0,2.4574.55455,5.451,5.451,0,0,0,2.338-.55394,4.168,4.168,0,0,0,1.60059-1.2773ZM5.87918,11.5616c-.11822-.12706-.23218-.26173-.34187-.40068A7.15862,7.15862,0,0,1,4.45836,9.21938a6.57655,6.57655,0,0,1-.386-2.40286c0-.36473-.00609-.65907-.01127-.94335C4.00924,3.02971,3.96963.824,8.20008.61832V.278A.218.218,0,0,1,8.371.05523,2.21971,2.21971,0,0,1,8.86615,0a2.49623,2.49623,0,0,1,.52164.05429h0a.21923.21923,0,0,1,.17429.2142V.61923c4.21156.21085,4.172,2.41414,4.12076,5.25394-.00579.28428-.011.57862-.011.94335a6.61391,6.61391,0,0,1-.387,2.40286A7.1182,7.1182,0,0,1,12.206,11.16092c-.11487.14687-.23492.28764-.36015.42049.01127.13224.02163.28611.0329.45613a14.58352,14.58352,0,0,0,.16667,1.65848l.74439.45858a9.28424,9.28424,0,0,1,3.614,1.46469,2.9629,2.9629,0,0,1,1.33854,2.377h-.00091l-.00061,2.973a1.31447,1.31447,0,0,1-.38545.93025l-.00091.00092a1.31373,1.31373,0,0,1-.92994.38605H1.31813A1.31606,1.31606,0,0,1,.387,21.90037v-.00092H.38605l-.00182-.00274A1.31452,1.31452,0,0,1,0,20.9692v-2.973A2.94475,2.94475,0,0,1,1.33946,15.6263a9.32383,9.32383,0,0,1,3.62166-1.4589l.74895-.48874a14.72377,14.72377,0,0,0,.14321-1.66275c.00944-.17612.01828-.33675.0259-.45431Zm1.45981.63226a3.077,3.077,0,0,0,1.533.45095,3.07211,3.07211,0,0,0,1.53233-.45095,5.27763,5.27763,0,0,0,1.45708-1.3032,6.69149,6.69149,0,0,0,1.01129-1.82089A5.67285,5.67285,0,0,0,13.23036,7.141V7.13249L13.22792,7.109l-.35863.62189a.21786.21786,0,0,1-.298.08044.20253.20253,0,0,1-.07679-.07434c-.65815-.94305-2.49884-1.20662-3.544-1.21271-1.1088-.00579-2.97113.25138-3.69326,1.29924a.21855.21855,0,0,1-.30379.05515.21369.21369,0,0,1-.05881-.05942A5.94793,5.94793,0,0,1,4.51291,7.155a5.64737,5.64737,0,0,0,.35832,1.91473,6.652,6.652,0,0,0,1.01161,1.82089A5.27052,5.27052,0,0,0,7.339,12.19386Zm5.906-6.33623c.04936-2.706.08135-4.778-4.25635-4.81517-.0387,0-.07861,0-.1167-.00091-4.46111,0-4.423,2.09115-4.37275,4.82461l.00061.07008A7.49054,7.49054,0,0,1,8.95847,4.79453,7.66594,7.66594,0,0,1,13.245,5.85763ZM4.89987,6.95119c.06643.12767.13377.25656.2005.37143A5.49718,5.49718,0,0,1,8.95329,6.08737a5.59989,5.59989,0,0,1,3.69418,1.15232l.50763-.88022c-.03961-.03961-.08288-.07861-.12767-.1167A7.08624,7.08624,0,0,0,8.95664,5.23238a7.06732,7.06732,0,0,0-4.182,1.04421,2.17153,2.17153,0,0,0-.16423.15022C4.70822,6.585,4.80389,6.76807,4.89987,6.95119Z" style="fill:#a1afba;fill-rule:evenodd"/></g></svg>