<svg xmlns="http://www.w3.org/2000/svg" viewBox="0 0 11.56091 18.75918"><title>mobile-device-icon-uc-santa-barbara</title><g id="ICONS"><path d="M1.31813,0h8.92465a1.32121,1.32121,0,0,1,1.31813,1.31818V17.441a1.3109,1.3109,0,0,1-.387.93121v.00061a1.315,1.315,0,0,1-.93116.38636H1.31813A1.32016,1.32016,0,0,1,0,17.441V1.31818A1.31631,1.31631,0,0,1,.387.38793h0L.38788.387.38941.38519A1.31878,1.31878,0,0,1,1.31813,0Zm3.27,17.31156H6.97884a.21985.21985,0,0,0,0-.43969H4.58817a.21985.21985,0,1,0,0,.43969ZM1.33794,1.78711a.21906.21906,0,0,0-.2203.21847V15.87672a.21984.21984,0,0,0,.2203.21939h8.886a.21977.21977,0,0,0,.22-.21939V2.00558a.219.219,0,0,0-.22-.21847Zm8.66657.43877H1.55732V15.65643h8.44719V2.22588ZM10.24278.43973H1.31813A.87433.87433,0,0,0,.69776.6969H.69631a.87988.87988,0,0,0-.25663.62128V17.441a.88012.88012,0,0,0,.87845.87942h8.92465a.87549.87549,0,0,0,.621-.25748h.00091a.879.879,0,0,0,.25747-.62194V1.31818a.8801.8801,0,0,0-.87936-.87845Z" style="fill:#a1afba;fill-rule:evenodd"/></g></svg>