<svg xmlns="http://www.w3.org/2000/svg" viewBox="0 0 17.74327 21.68456"><title>old-man-icon-uc-santa-barbara</title><g id="ICONS"><path d="M12.40645,5.41725l-.00091-.01645h0V5.3749h.00091a.05534.05534,0,0,0-.03961-.04936.79411.79411,0,0,0-.2922-.04053.20971.20971,0,0,1-.0259-.00152H9.354v.91623h.00092a.79544.79544,0,0,0,.05454.2919.76435.76435,0,0,0,.15539.24529.72009.72009,0,0,0,.22883.1624.66973.66973,0,0,0,.266.05454v.00153l1.94764.00091V6.95538a.37662.37662,0,0,0,.14869-.03017.39982.39982,0,0,0,.11914-.082l.00944-.01128a.41617.41617,0,0,0,.089-.13985h.00091a.44472.44472,0,0,0,.032-.16667V5.41725ZM12.809,5.178h.19958l-.05363-.09593a3.148,3.148,0,0,1-.44212-1.04237,2.11064,2.11064,0,0,0-.06063-.5183.76247.76247,0,0,0-.28063-.39123v.00091l-.025-.01828L12.117,3.09209l-.0067-.00432a3.17585,3.17585,0,0,1-.926-.89581,1.97573,1.97573,0,0,1-.32206-1.08651l.00061-.4412a.17817.17817,0,0,1,.00182-.03108A8.78636,8.78636,0,0,0,8.87285.43968,8.7797,8.7797,0,0,0,6.88134.63317l.00152.03108v.4412A1.96735,1.96735,0,0,1,6.56171,2.192a3.18,3.18,0,0,1-.9269.89581l-.0067.00432-.02956.02072-.02407.01828V3.13018a.752.752,0,0,0-.28063.39123,2.02641,2.02641,0,0,0-.06063.5183A3.84086,3.84086,0,0,1,4.79871,5.178h.13407a.45438.45438,0,0,1,.284-.27387,1.32022,1.32022,0,0,1,.4665-.06033l.01736.00091h6.374a.1666.1666,0,0,1,.02772.00153,1.145,1.145,0,0,1,.443.07952A.48159.48159,0,0,1,12.809,5.178Zm-7.46849.21938-.00091.01986L5.33864,6.52118h.00183a.44483.44483,0,0,0,.03108.16814.40177.40177,0,0,0,.08014.13047l.00457.00518.00152.00091H5.45686l.00183.00274.00183.00153a.39644.39644,0,0,0,.1295.09171.37758.37758,0,0,0,.14686.03017v.00091l1.94764.00091V6.95294a.65814.65814,0,0,0,.266-.05454A.69747.69747,0,0,0,8.18027,6.736a.76149.76149,0,0,0,.1554-.24528.78382.78382,0,0,0,.05545-.291H8.392V5.28349H5.672c-.01127,0-.02072-.00091-.032-.00188a.81707.81707,0,0,0-.26326.03113.057.057,0,0,0-.03717.05881h.00091v.02584Zm-.43877.22036v.90343H4.89987a.89441.89441,0,0,0,.22883.59569l.01646.01919H5.147a.83377.83377,0,0,0,.26691.18739.81824.81824,0,0,0,.323.06826V7.39079l1.94764.00092v.00091A1.0983,1.0983,0,0,0,8.12573,7.3a1.152,1.152,0,0,0,.37143-.26143,1.18525,1.18525,0,0,0,.24711-.387,1.22391,1.22391,0,0,0,.08562-.45187H8.829l.00091-.91623H8.917l-.00091.91623H8.91521a1.23244,1.23244,0,0,0,.08562.45187,1.21528,1.21528,0,0,0,.24711.38758,1.13528,1.13528,0,0,0,.37143.26174,1.09353,1.09353,0,0,0,.44029.09323V7.39262l1.94764.00152h0a.7875.7875,0,0,0,.32389-.06825.8236.8236,0,0,0,.25839-.17764.19229.19229,0,0,0,.03016-.03291.86507.86507,0,0,0,.16241-.26173V6.85269a.892.892,0,0,0,.06216-.32724v-.9077h.3955c-.00427.21146-.00671.41713-.00671.5966v.13224l-.00091.00426v.00183c-.00091.038-.00183.081-.00427.12767a.24474.24474,0,0,0,.00336.04936v.00945A5.68112,5.68112,0,0,1,12.87386,8.467a6.657,6.657,0,0,1-1.0116,1.82,5.24045,5.24045,0,0,1-1.45707,1.30412,3.06371,3.06371,0,0,1-1.53234.45156,3.06936,3.06936,0,0,1-1.53294-.45156,4.919,4.919,0,0,1-1.07011-.85773l-.00792-.00853-.00244-.00275-.00182-.00091c-.1295-.1362-.25473-.28154-.37387-.4342a6.657,6.657,0,0,1-1.0116-1.82,5.6601,5.6601,0,0,1-.35833-1.92783V6.53154a.20932.20932,0,0,0,.00335-.0616c-.00335-.07582-.00518-.15961-.00518-.25559,0-.17947-.00244-.38514-.00518-.5966Zm8.35212-.901a2.44334,2.44334,0,0,1-.30409-.69258,2.362,2.362,0,0,0-.07952-.6317,1.16475,1.16475,0,0,0-.43694-.61117l-.00183-.00183V2.77856l-.02925-.02164-.007-.00518h0l-.03108-.02163-.01127-.00671a2.75259,2.75259,0,0,1-.79984-.76875,1.54621,1.54621,0,0,1-.2529-.8492V.75657c1.837.62372,1.97354,2.10913,1.95373,3.96018Zm-6.218,5.0181A4.087,4.087,0,0,0,8.93532,9.499a4.111,4.111,0,0,0,1.90163.23767c.0908-.00275.17124-.0061.2663-.0061a.219.219,0,0,0,.22-.21847.21169.21169,0,0,0-.02164-.09506,1.407,1.407,0,0,0-.33242-.476,2.70687,2.70687,0,0,0-.982-.58284,1.57227,1.57227,0,0,0-.99332-.06581c-.01889.00792-.0387.01645-.057.02529C8.918,8.30885,8.89875,8.30032,8.879,8.2924a1.57343,1.57343,0,0,0-.99576.06581,2.68662,2.68662,0,0,0-.982.58284,1.39667,1.39667,0,0,0-.33761.49057.2179.2179,0,0,0,.20446.29713v.00092c.096,0,.17642.00274.26783.00518Zm.12706-.4345c.55089.01548,1.37054.02254,1.61673-.22883A.21973.21973,0,0,1,9.0898,9.069l.00335.00341h0c.24437.25138,1.06492.24437,1.61613.22974-.01463-.01645-.03017-.03108-.04571-.04662a2.24442,2.24442,0,0,0-.81629-.48208,1.16763,1.16763,0,0,0-.69867-.07064.16476.16476,0,0,0-.05546.03291A.21845.21845,0,0,1,8.78327,8.74L8.7787,8.73574a.14853.14853,0,0,0-.05606-.03291,1.16052,1.16052,0,0,0-.69868.07064,2.24819,2.24819,0,0,0-.81781.48208c-.01493.01458-.02956.03017-.04327.0448Zm4.69938,4.19358a5.985,5.985,0,0,1-2.8398,1.13927,4.73338,4.73338,0,0,1-3.13109-1.15238l-.5509.36016A3.05429,3.05429,0,0,0,6.60589,14.8861a5.41541,5.41541,0,0,0,2.26635.51128,5.01536,5.01536,0,0,0,2.14722-.50945,3.81676,3.81676,0,0,0,1.38-1.06254l-.53719-.33146Zm-5.71525-.369a4.34351,4.34351,0,0,0,2.84955,1.071,5.59387,5.59387,0,0,0,2.61189-1.06066,16.14059,16.14059,0,0,1-.16668-1.67133l-.00518-.08465a5.07771,5.07771,0,0,1-.81111.59173,3.50952,3.50952,0,0,1-1.75263.51037A3.50676,3.50676,0,0,1,7.12052,11.971a5.1622,5.1622,0,0,1-.82482-.60361l-.00426.06825A15.926,15.926,0,0,1,6.147,13.12493Zm6.66378.87937a8.708,8.708,0,0,1,3.32945,1.36287,2.54454,2.54454,0,0,1,1.16426,2.02625h0v2.973a.881.881,0,0,1-.87906.8784H1.31813a.87888.87888,0,0,1-.87753-.8784v-2.973A2.52922,2.52922,0,0,1,1.603,15.37326,8.76542,8.76542,0,0,1,4.93522,14.018a3.42807,3.42807,0,0,0,1.47962,1.26206,5.85362,5.85362,0,0,0,2.4574.55517,5.45826,5.45826,0,0,0,2.338-.55273,4.16237,4.16237,0,0,0,1.60059-1.27821Zm.87053-8.62178.00091.01487-.00183.0223c-.00426.2395-.00762.4924-.00762.79466,0,.02437-.00091.07252-.00274.1426l-.00244.10969a.32979.32979,0,0,1,.00336.039h.00091v.03352a6.09951,6.09951,0,0,1-.38605,2.07713A7.16046,7.16046,0,0,1,12.20688,10.559c-.11488.146-.23584.28677-.36016.42048.01036.13138.02072.285.03291.45619a14.57738,14.57738,0,0,0,.16667,1.65726l.74438.45888a9.27961,9.27961,0,0,1,3.614,1.46469,2.96417,2.96417,0,0,1,1.33855,2.37691h-.00092v2.973a1.32069,1.32069,0,0,1-1.31691,1.31814H1.31813A1.32252,1.32252,0,0,1,0,20.36642v-2.973a2.94331,2.94331,0,0,1,1.34068-2.369A9.31346,9.31346,0,0,1,4.962,13.56462l.74895-.4888a14.67787,14.67787,0,0,0,.14321-1.66269c.00975-.17611.01829-.33613.0259-.45339q-.17733-.192-.34187-.40073A7.16822,7.16822,0,0,1,4.45928,8.61629a6.11915,6.11915,0,0,1-.38423-2.07713V6.50564a.17569.17569,0,0,1,.00335-.04235c-.00335-.09172-.00518-.17642-.00518-.24894,0-.30135-.00426-.55456-.00853-.79283l-.00091-.02413.00091-.01548L4.062,5.27039C4.00771,2.28372,3.96627,0,8.87285,0c4.906,0,4.86453,2.28372,4.81029,5.27039l-.00182.11213ZM6.44592.75657v.34888a1.54122,1.54122,0,0,1-.25381.8492,2.72544,2.72544,0,0,1-.79893.76875l-.01127.00671-.03108.02163h0l-.007.00518-.03016.02164.00091.00091-.00274.00183a1.1698,1.1698,0,0,0-.43694.61117,2.40378,2.40378,0,0,0-.07953.6317,2.95805,2.95805,0,0,1-.30317.78247C4.46811,2.91409,4.57872,1.3906,6.44592.75657Z" style="fill:#a1afba;fill-rule:evenodd"/></g></svg>