<svg xmlns="http://www.w3.org/2000/svg" viewBox="0 0 19.73082 16.75707"><title>radio-icon-uc-santa-barbara</title><g id="ICONS"><path d="M18.41269,3.4161H1.31813a.87908.87908,0,0,0-.87845.87937V15.43894a.88062.88062,0,0,0,.87845.87936H18.41269a.87966.87966,0,0,0,.621-.25747l.00091-.00091a.87656.87656,0,0,0,.25663-.621V4.29547a.87691.87691,0,0,0-.25663-.62189h-.00091a.87582.87582,0,0,0-.621-.25748ZM2.39433,4.61571H17.34777a.21983.21983,0,0,1,.21938.21938V8.17521a.21886.21886,0,0,1-.21938.21847H2.39433a.21906.21906,0,0,1-.2203-.21847V4.83509a.22.22,0,0,1,.2203-.21938Zm14.73314.43876V7.95491H14.55459l.0006-1.788a.21889.21889,0,1,0-.43778,0l-.001,1.788H10.98655v-1.788a.21893.21893,0,1,0-.43785,0v1.788H7.35362V5.05447Zm-10.21353,0V7.95491H5.63481v-1.788a.21893.21893,0,1,0-.43785,0L5.196,7.95491H2.6128V5.05447Zm10.59349,9.07426a.21893.21893,0,1,1,0,.43786l-4.59914-.00244a.21847.21847,0,1,1,0-.43694l4.59914.00152ZM5.55376,9.4519a2.76722,2.76722,0,1,1-1.95739.80928A2.7546,2.7546,0,0,1,5.55376,9.4519ZM7.20005,10.572a2.32968,2.32968,0,1,1-1.64629-.68222,2.31992,2.31992,0,0,1,1.64629.68222ZM1.36292,2.97734,18.01871.00347a.21944.21944,0,1,1,.07709.43206L3.86329,2.97734h14.5494a1.31259,1.31259,0,0,1,.93032.38605l.00176.00092a1.316,1.316,0,0,1,.38605.93116V15.43894a1.31231,1.31231,0,0,1-.38605.93025l-.00176.00091a1.30957,1.30957,0,0,1-.93032.387H1.31813A1.31963,1.31963,0,0,1,0,15.43894V4.29547A1.31806,1.31806,0,0,1,1.31813,2.97734Z" style="fill:#a1afba;fill-rule:evenodd"/></g></svg>