<svg xmlns="http://www.w3.org/2000/svg" viewBox="0 0 15.15883 15.15963"><title>rss-icon-uc-santa-barbara</title><g id="ICONS"><path d="M2.41413,14.72086a1.9679,1.9679,0,0,0,1.39644-.57771l.00092-.00091a1.97623,1.97623,0,0,0,0-2.79318H3.81057a1.97509,1.97509,0,0,0-2.79226,0H1.01739a1.977,1.977,0,0,0,0,2.79318l.00092.00091a1.96806,1.96806,0,0,0,1.39582.57771Zm9.68214-.77211c-.032-.3955-.08379-.78429-.153-1.16431q-.1074-.58174-.26844-1.141l-.00091.00091-.00854-.02834-.00091-.00462-.00609-.01792-.00275-.00793-.00944-.03016-.00153-.00518h0q-.10008-.33411-.21268-.64962c-.07587-.21146-.15966-.42475-.25046-.638l-.00244-.0061-.03991-.09238-.00762-.01731h0l-.04845-.10786-.00426-.01067-.04327-.09573-.00091-.00268-.04906-.10269-.00092-.00183h0a11.9457,11.9457,0,0,0-1.15145-1.926,11.9993,11.9993,0,0,0-1.4906-1.6789h0l-.01736-.01554-.07679-.071L8.169,6.06221l-.00945-.00883-.08227-.07313-.00061.00061-.08379-.07349L7.984,5.89981,7.91518,5.841h0L7.832,5.77184l-.011-.01036-.00884-.00671h0A11.92079,11.92079,0,0,0,5.95627,4.49545a11.91163,11.91163,0,0,0-2.05672-.89064L3.891,3.60146,3.8773,3.59628l-.00883-.00183-.09416-.03108v.00086l-.10268-.03194h0l-.07617-.02163L3.5851,3.50731l-.06369-.01889L3.512,3.48567l-.06917-.0198v.00086c-.217-.0615-.43968-.11756-.66607-.166-.22883-.05-.45583-.09324-.67887-.12858H2.09542l-.0192-.00335L2.071,3.16787l-.01889-.00335L2.022,3.15843l-.00518-.00092-.01554-.00274v.00092c-.13559-.02072-.26783-.0387-.394-.05424-.12858-.01493-.26174-.02864-.39824-.039A1.31665,1.31665,0,0,1,0,1.74889V1.3186A1.30939,1.30939,0,0,1,.10786.78908,1.31749,1.31749,0,0,1,.42475.3494,1.29038,1.29038,0,0,1,.88789.0706h0V.06877a1.31491,1.31491,0,0,1,.53536-.064q.71163.05712,1.40528.17977.69608.12423,1.38364.31536c.03717.01036.08562.02407.13559.03864l.00883.0028L4.38432.549l.04662.014.00152.00067V.56294l.0777.0223L4.512.58615V.58524a14.93153,14.93153,0,0,1,2.77094,1.1411A14.99476,14.99476,0,0,1,9.77476,3.40188l.01707.01463.01462.01219c.07191.06124.13742.1167.19105.1624l.0975.08562.00945.00762.10542.09318.00092.00189V3.77849l.0908.081.00518.00457.08623.08014.01219.01219.02163.0198h.00091a14.93432,14.93432,0,0,1,1.97964,2.24747l.00853.01274a14.84162,14.84162,0,0,1,1.47779,2.58177l.0518.11762.00518.01188.01554.03626h0l.01828.04083.00518.01183.0259.06221h.00061a14.86728,14.86728,0,0,1,.75687,2.27519,14.87439,14.87439,0,0,1,.38179,2.36295,1.339,1.339,0,0,1-.06581.53657,1.31883,1.31883,0,0,1-.28063.46193,1.28581,1.28581,0,0,1-.96834.42414h-.42993a1.31693,1.31693,0,0,1-1.31386-1.21088Zm.27728-1.242q-.11016-.6001-.27911-1.185v-.00274h0l-.00853-.02925-.00609-.0192-.0061-.01554-.00061-.00335-.00792-.025h0c-.06642-.22371-.13986-.44919-.22121-.6737-.081-.22882-.1682-.44912-.259-.66333l-.00274-.00609-.04144-.09415-.00853-.01889h0V9.96968l-.04753-.10817L11.47712,9.846l-.04327-.09476-.00335-.007L11.383,9.643l-.00183-.00238-.00091-.00372h.00091a12.51017,12.51017,0,0,0-1.19381-1.99755A12.48837,12.48837,0,0,0,8.63976,5.8989V5.89707h0l-.01737-.01554-.07861-.07166-.00244-.00178-.07861-.0716-.01311-.01036-.0847-.075-.00061-.00091.00061-.00091-.08379-.07252-.0128-.01128-.071-.05972-.00152-.00152h0l-.082-.06922-.014-.01031-.00853-.008-.00092-.00086h0a12.50565,12.50565,0,0,0-1.92265-1.305,12.45927,12.45927,0,0,0-2.13168-.92324l-.01127-.00335-.01371-.00427L4.00071,3.1764l-.09507-.03016L3.9032,3.14533h0l-.10542-.032L3.795,3.11181h0l-.075-.02164-.01036-.00365-.06673-.019-.01036-.00238-.07069-.02072H3.561c-.22974-.0649-.46131-.12279-.69166-.17276-.22457-.04937-.45888-.0936-.6999-.13133V2.73947l-.01371-.00183-.01981-.00427-.03016-.00609-.0192-.00244L2.06952,2.7221l-.00366-.00092h.00092C1.93545,2.70046,1.799,2.6834,1.65665,2.666q-.21024-.02468-.41134-.04144a.87581.87581,0,0,1-.80563-.8757V1.3186a.89283.89283,0,0,1,.5899-.83422h0A.88258.88258,0,0,1,1.38973.442q.68649.05576,1.36384.17612c.45583.08105.90435.18312,1.3422.30409.05089.01371.09141.0259.13041.03626l.01036.00335L4.264.96977l.04692.01366H4.31l.07678.0226h0A14.39208,14.39208,0,0,1,7.07634,2.11331a14.54821,14.54821,0,0,1,2.4184,1.62618L9.513,3.755l.01188.00975c.05454.04479.11487.09659.18587.15722l.0975.08532.00609.00518.1036.09171h0l.0908.082h0l.08806.08044.01219.011.02072.01919-.00092.00092a14.54072,14.54072,0,0,1,1.92174,2.18165l.00854.01219a14.54013,14.54013,0,0,1,1.43483,2.50463l.05088.11487.00427.01127.01645.03535v.00183h0L13.58259,9.2l.00518.01031L13.614,9.271h0a14.44479,14.44479,0,0,1,.7331,2.20663,14.45216,14.45216,0,0,1,.36961,2.294.872.872,0,0,1-.04144.35929.88176.88176,0,0,1-.18892.30745.84221.84221,0,0,1-.64627.28245h-.42993a.87637.87637,0,0,1-.876-.806,12.03883,12.03883,0,0,0-.16057-1.20808ZM7.148,12.62544c-.03108-.09323-.06734-.19592-.1103-.30652-.04083-.10731-.08136-.2072-.12188-.30044H6.91485l-.01219-.02773-.0006-.00182H6.90114A7.29032,7.29032,0,0,0,6.147,10.67262a7.35439,7.35439,0,0,0-1.0113-1.13409l-.03809-.03534-.00853-.00762L5.04765,9.4584h0l-.07343-.06308h0l-.01036-.00944h0l-.01036-.008-.00518-.00421a7.289,7.289,0,0,0-1.26724-.86535,7.34737,7.34737,0,0,0-1.42326-.58319L2.256,7.92423v.00092l-.007-.00244-.01036-.00366-.00945-.00243L2.22674,7.9157v.00092c-.10908-.03017-.20841-.057-.298-.07862-.08989-.02163-.191-.04418-.30257-.0649l-.01706-.00426-.007-.00183H1.59967L1.59449,7.7664h0l-.02864-.00609-.01036-.00183c-.06825-.0128-.13376-.02407-.19531-.03382-.07161-.01189-.1423-.02225-.20963-.03108A1.3103,1.3103,0,0,1,0,6.38763V5.955a1.28489,1.28489,0,0,1,.44578-.98631A1.29653,1.29653,0,0,1,.926,4.69411V4.6932a1.32332,1.32332,0,0,1,.55273-.04662c.24863.03108.49666.07069.74194.11914.241.04753.4863.10542.73311.17368l.06916.01889h.00183l.01554.00426.01371.00427.05881.01645a10.31172,10.31172,0,0,1,2.09694.86718,10.37112,10.37112,0,0,1,1.8605,1.30777l.01036.01036A10.29446,10.29446,0,0,1,8.59405,8.82614a10.22569,10.22569,0,0,1,1.12343,1.95618l.02773.06307.00518.01219.00183.00335.00091.00335.00091-.00061.02925.07069.03291.07861.00061.00244h0l.032.07861.00427.01219.00366.00792a10.15677,10.15677,0,0,1,.41012,1.25933,10.04037,10.04037,0,0,1,.2462,1.31112,1.33509,1.33509,0,0,1-.7651,1.362,1.31828,1.31828,0,0,1-.54328.113H8.77261a1.31211,1.31211,0,0,1-1.30656-1.15055c-.02864-.22608-.06825-.44821-.11761-.66912-.05-.22121-.11061-.43973-.18038-.65571l-.00092-.00609-.00365-.00762-.00671-.01737-.00426-.01554-.00366-.01036L7.148,12.62544Zm.29982-.46284c-.039-.10207-.08288-.209-.13041-.31871l-.00335-.0061h.00061l-.011-.02589h0a7.8045,7.8045,0,0,0-.80167-1.395,7.76172,7.76172,0,0,0-1.0701-1.20229l-.039-.03535L5.37825,9.1671,5.3359,9.12993,5.335,9.12932h0L5.26,9.06351,5.25911,9.062h0L5.246,9.05162l-.00152-.00183h0L5.23413,9.041,5.229,9.03664A7.82345,7.82345,0,0,0,3.88827,8.122a7.77123,7.77123,0,0,0-1.507-.61732h0l-.007-.00274-.01463-.00335L2.3535,7.49765l-.0067-.00279V7.4943c-.09416-.02687-.19958-.05454-.3172-.08227-.11487-.02742-.22182-.05088-.31963-.06977l-.01279-.0028L1.692,7.3386V7.338l-.00853-.00183-.00366-.00091h0l-.02742-.00518L1.635,7.32763c-.0649-.01219-.13407-.02529-.20659-.03565-.0716-.01188-.146-.02224-.22365-.0326a.87446.87446,0,0,1-.7651-.87175V5.955a.89037.89037,0,0,1,.6158-.84285h.00091a.88136.88136,0,0,1,.36869-.0295q.35879.04425.71178.11334c.24163.04815.47594.1036.702.16485l.06825.01889V5.3806l.01462.00366.00975.00244.05942.01736A9.89387,9.89387,0,0,1,4.99921,6.235,9.99012,9.99012,0,0,1,6.78109,7.48729l.01036.01036A9.90034,9.90034,0,0,1,8.2406,9.08422a9.82725,9.82725,0,0,1,1.07529,1.87269l.02864.06368.00518.01067v.0006H9.34879l.03017.071.032.07678H9.41l.032.07953.00609.01127.00183.00427a10.20931,10.20931,0,0,1,.39215,1.2057,10.0018,10.0018,0,0,1,.23553,1.25505.8741.8741,0,0,1-.03016.36869.90618.90618,0,0,1-.48021.54237.87094.87094,0,0,1-.36259.07434H8.77261a.876.876,0,0,1-.87236-.76693c-.03016-.241-.07252-.47782-.12432-.70995q-.08043-.35649-.19074-.69532l-.00426-.01036-.00366-.01036-.00091-.00609-.00671-.0189L7.566,12.49412l-.00244-.00671c-.03992-.11913-.07861-.22822-.11579-.32481ZM2.23863,7.91905h0Zm4.92486,4.7524v0Zm-3.04182,1.781H4.12076l-.00092.00061a2.41132,2.41132,0,0,1-3.4108,0H.70812l-.00091-.00061h0A2.41169,2.41169,0,0,1,.7066,11.0407l.00061-.00091v-.00092H.70812A2.41133,2.41133,0,0,1,4.11984,11.038v.00091h.00092l.00091.00092a2.41243,2.41243,0,0,1,0,3.41172Z" style="fill:#a1afba;fill-rule:evenodd"/></g></svg>