<svg xmlns="http://www.w3.org/2000/svg" viewBox="0 0 17.92204 17.12647"><title>star-icon-uc-santa-barbara</title><g id="ICONS"><path d="M.732,5.9258,5.8704,5.44468h0a.3609.3609,0,0,0,.30378-.2203L8.22481.4863A.80264.80264,0,0,1,8.521.13041L8.53835.12005a.81513.81513,0,0,1,.869.011.81024.81024,0,0,1,.29708.35589l2.04606,4.74021a.37146.37146,0,0,0,.11914.15205.36175.36175,0,0,0,.18312.06734l5.13815.4863.00884.00091a.81278.81278,0,0,1,.4214.17094.80308.80308,0,0,1,.25991.38178H17.882a.79559.79559,0,0,1-.23492.85316l-3.8745,3.4102a.35742.35742,0,0,0-.11676.3565l1.12647,5.03729a.80127.80127,0,0,1-.31292.82818.80015.80015,0,0,1-.88424.04083l-4.43948-2.632a.36806.36806,0,0,0-.18732-.05423v.00182a.37035.37035,0,0,0-.18837.05241L4.32771,17.008a.796.796,0,0,1-.88449-.04205.79677.79677,0,0,1-.31177-.82848l1.13074-5.03638.00068-.00518a.37566.37566,0,0,0-.00768-.18891.37176.37176,0,0,0-.10878-.1618L.27435,7.3329a.80683.80683,0,0,1-.24626-.39306.79283.79283,0,0,1,.0131-.46132.80749.80749,0,0,1,.26174-.38179A.80122.80122,0,0,1,.732,5.9258Zm5.17989-.04571-5.14.482a.35377.35377,0,0,0-.19623.07678.36716.36716,0,0,0-.11822.17429.37105.37105,0,0,0-.007.21177.36161.36161,0,0,0,.114.17794l3.87121,3.41325a.788.788,0,0,1,.23584.355.797.797,0,0,1,.01919.41649l-.00091.01039L3.559,16.23344a.35477.35477,0,0,0,.14254.37756.36084.36084,0,0,0,.19872.07252.37276.37276,0,0,0,.20379-.05271l4.44288-2.62834a.80709.80709,0,0,1,.41135-.11487v.00183a.80041.80041,0,0,1,.41006.11395l4.43947,2.63078a.37247.37247,0,0,0,.20568.05454.38452.38452,0,0,0,.32816-.23949.37254.37254,0,0,0,.01286-.21146l-1.12532-5.0373a.78846.78846,0,0,1,.25388-.77972l3.87449-3.4102a.35367.35367,0,0,0,.10726-.38849h0V6.62112a.36768.36768,0,0,0-.11914-.17463.35942.35942,0,0,0-.191-.07675l-.00525-.00091-5.13723-.48539a.79541.79541,0,0,1-.6651-.48264L9.301.65967a.37489.37489,0,0,0-.13376-.163.38983.38983,0,0,0-.39483-.007L8.76108.49727a.35648.35648,0,0,0-.13467.1624L6.57608,5.39714a.78734.78734,0,0,1-.66424.48295Z" style="fill:#a1afba;fill-rule:evenodd"/></g></svg>