<svg xmlns="http://www.w3.org/2000/svg" viewBox="0 0 18.54402 17.37616"><title>thumbs-up-icon-uc-santa-barbara</title><g id="ICONS"><path d="M4.91877,13.785a1.26774,1.26774,0,0,1,.89642,2.16428l-.01462.01219a1.25587,1.25587,0,0,1-.8818.35924,1.26786,1.26786,0,1,1,0-2.53571ZM8.75036,5.78508V5.74882a.21882.21882,0,0,0-.22029-.21755H1.31783A1.31956,1.31956,0,0,0,0,6.8466v9.21326a1.32122,1.32122,0,0,0,1.31783,1.3163H8.53007a.21945.21945,0,0,0,.22029-.21756v-.2011h4.94375a4.8588,4.8588,0,0,0,4.84991-4.849V7.782a1.314,1.314,0,0,0-.38453-.92837l-.00244-.00182-.00092-.00092V6.85a1.31815,1.31815,0,0,0-.93116-.38667h-3.6113l.6868-4.96477a1.30414,1.30414,0,0,0-.039-.557,1.2902,1.2902,0,0,0-.27362-.489,1.31032,1.31032,0,0,0-.44577-.33761V.11579A1.31945,1.31945,0,0,0,12.99544,0h-.43877a1.30063,1.30063,0,0,0-1.16852.71092L8.75036,5.78508ZM11.77664.91294a.84816.84816,0,0,1,.78-.4732h.43877a.89243.89243,0,0,1,.36533.07434l.00183.00061h-.00091a.89212.89212,0,0,1,.29708.2264.84662.84662,0,0,1,.20719.69776l-.72031,5.21432a.21693.21693,0,0,0,.18648.24711.17378.17378,0,0,0,.03047.00183v.00061H17.225a.87674.87674,0,0,1,.621.25747l.00091.00092a.87522.87522,0,0,1,.25748.62092v4.32648a4.41812,4.41812,0,0,1-4.41023,4.40925H8.75036V6.73605L11.77664.91294Zm-3.466,5.05283H1.31783a.88114.88114,0,0,0-.87906.88083v9.21326a.8801.8801,0,0,0,.87906.88119H8.31068V5.96577ZM5.50531,14.46628A.82837.82837,0,1,0,5.495,15.64973l.01036-.01127a.83162.83162,0,0,0,0-1.17218Z" style="fill:#a1afba;fill-rule:evenodd"/></g></svg>