<svg xmlns="http://www.w3.org/2000/svg" viewBox="0 0 15.40256 21.68517"><title>woman-icon-uc-santa-barbara</title><g id="ICONS"><path d="M5.15643,12.6749a.21857.21857,0,0,1,.23218-.19927l-.23218.19927ZM3.64329,7.4106,3.64238,7.403l.00091.00761ZM2.54973,14.28579l.00335.00524A4.15477,4.15477,0,0,0,4.49645,16.0272a7.63914,7.63914,0,0,0,3.2027.72275,7.07608,7.07608,0,0,0,3.03694-.72128,5.07377,5.07377,0,0,0,2.11766-1.74191c-.08288-.04667-.17-.0908-.259-.13224A4.44514,4.44514,0,0,0,11.876,13.898a.21672.21672,0,0,1-.02133.01737,8.27572,8.27572,0,0,1-3.994,1.65757,6.59426,6.59426,0,0,1-4.30723-1.681,4.44611,4.44611,0,0,0-.74469.26265c-.08989.04144-.1752.08557-.259.13127ZM5.026,11.43812c.057.07618.11579.15022.17429.22213L5.15643,12.6749V12.68a.62938.62938,0,0,1-.13041.35534.43912.43912,0,0,1-.24955.16058l-.0131.00152-.1752.031a7.8643,7.8643,0,0,0-1.96318.52713A4.099,4.099,0,0,0,.37326,16.4547v.00091a12.643,12.643,0,0,0-.37235,3.63111L0,20.10469v.26265a1.315,1.315,0,0,0,.38423.92842l.00274.00183v.00092H.38788a1.31248,1.31248,0,0,0,.93025.38666H14.08474a1.32066,1.32066,0,0,0,1.31782-1.31783v-.26265h-.00091a12.66268,12.66268,0,0,0-.372-3.65,4.10067,4.10067,0,0,0-2.25173-2.69909,7.86085,7.86085,0,0,0-1.96318-.52713l-.1755-.031v.00091a.43834.43834,0,0,1-.26266-.163.64765.64765,0,0,1-.13041-.35534h0l-.04387-1.01825c.05423-.06551.10786-.13376.16057-.20293.16241-.02407.31537-.0518.45522-.07861.17368-.03352.33243-.07069.475-.10969l-.00091-.00092a.21886.21886,0,0,0,.12614-.09049,8.62475,8.62475,0,0,0,1.40345-7.17842A6.58389,6.58389,0,0,0,11.5082,1.5168,4.517,4.517,0,0,0,9.61845.15723,2.22188,2.22188,0,0,0,7.56264.361C7.44351.13834,7.15069.03962,6.75519.07344A4.20187,4.20187,0,0,0,5.05893.69716,6.07315,6.07315,0,0,0,3.26211,2.34833H3.263c-1.29558,1.8062-1.82058,4.70486.685,8.77382a.21386.21386,0,0,0,.12706.10268c.146.04479.305.08654.47686.12341.14839.032.30652.06246.47411.08988Zm5.672-.48173.03626-.00706c.12859-.02493.25046-.05266.36442-.0813a8.16972,8.16972,0,0,0,1.30077-6.74635,6.14188,6.14188,0,0,0-1.22459-2.32A4.082,4.082,0,0,0,9.47585.571,1.79771,1.79771,0,0,0,7.81158.72214a.89252.89252,0,0,0-.09506.08014A.38313.38313,0,0,1,7.5471.91045C7.35118.96316,7.2613.88272,7.17933.57619,7.162.514,7.016.4924,6.79145.51129a3.76051,3.76051,0,0,0-1.508.56156A5.61633,5.61633,0,0,0,3.61983,2.604H3.618c-1.20143,1.67585-1.67889,4.38249.66516,8.22628.10726.03108.22883.06119.36107.08958l.04327.00884a7.04993,7.04993,0,0,1-.60544-1.3355A8.94277,8.94277,0,0,1,3.64329,7.4106l-.00183-.01554q-.00411-.13345-.00426-.26844c.00091-.09171.00335-.178.0067-.25929.00457-.09848.01036-.18379.01646-.25717.00609-.07191.01554-.15479.02772-.24528a5.08172,5.08172,0,0,1,1.97019-3.309l.00518-.00432.00092-.00086h0l.00152-.00092.00091-.00091a.2246.2246,0,0,1,.05546-.03778.21882.21882,0,0,1,.291.1036A2.27039,2.27039,0,0,0,7.307,4.22192a9.81391,9.81391,0,0,0,1.94764.45766,8.33918,8.33918,0,0,1,1.61186.3696,1.23815,1.23815,0,0,1,.905.99h0l.00183.01463.00792.146h0l.00518.13742c.00244.09232.00335.1944.00335.30561,0,.06211-.00091.14687-.00335.25138-.00091.08714-.00457.16418-.007.2334-.00426.089-.00944.16819-.01462.23736-.00427.06033-.01036.13315-.01829.21512a.37248.37248,0,0,1-.00518.04479c-.02163.177-.049.35772-.08013.53652-.03108.18379-.06917.373-.11335.56466q-.06582.28932-.14169.55968c-.05088.18227-.106.36112-.16392.533h-.00092l-.00853.02157a6.98832,6.98832,0,0,1-.53475,1.11617Zm.13133-1.28705q.08272-.245.15448-.50184c.05028-.17977.0969-.36021.13651-.5381.03961-.17459.07617-.35589.10877-.54145.03108-.17977.057-.35954.07862-.53657l.00365-.018c.00427-.057.01036-.1228.01554-.19958l.00061-.00183H11.3269c.00579-.08288.011-.15875.01463-.22517.00335-.07526.00609-.14869.00762-.2203.00091-.05271.00182-.135.00182-.24376,0-.14168-.00091-.2401-.00274-.29342-.00061-.03291-.00335-.078-.00518-.128l-.0067-.13224c-.03718-.30043-.27911-.493-.63134-.63134A7.93913,7.93913,0,0,0,9.184,5.11226,10.08952,10.08952,0,0,1,7.14551,4.6287,2.78913,2.78913,0,0,1,5.75578,3.55158,4.52823,4.52823,0,0,0,4.12167,6.42c-.00792.06124-.01462.1365-.02346.22694-.00762.08751-.01371.16759-.01615.23955-.00457.08288-.007.16393-.007.24163,0,.07252.00092.14869.00335.2273l.00183.02408A8.61827,8.61827,0,0,0,4.49645,9.4524a6.33606,6.33606,0,0,0,.8233,1.64623l.01188.01651.01219.01646a.29245.29245,0,0,1,.0259.0329,3.801,3.801,0,0,0,1.10393,1.03385,2.40256,2.40256,0,0,0,1.22824.35223A2.30417,2.30417,0,0,0,8.587,12.3702a3.04694,3.04694,0,0,0,.84829-.54333l.01554-.013a3.87946,3.87946,0,0,0,.35071-.35833.19115.19115,0,0,1,.0259-.02864,5.14562,5.14562,0,0,0,.3894-.52591,6.39836,6.39836,0,0,0,.61153-1.22916l.00092-.00244Zm-1.046,2.43577-.05606.05083h0l-.01463.01133a3.48318,3.48318,0,0,1-.95706.60788,2.74106,2.74106,0,0,1-1.05365.2142,2.83713,2.83713,0,0,1-1.45128-.41292,3.82889,3.82889,0,0,1-.63043-.47229l-.0259.589v.01463a1.07094,1.07094,0,0,1-.22456.60025.87516.87516,0,0,1-.50885.3172l-.02133.00518-.1755.03108c-.1813.032-.36442.06459-.54572.09994A5.87205,5.87205,0,0,0,7.83809,15.135a7.30048,7.30048,0,0,0,3.44372-1.37358c-.18039-.03535-.3626-.06795-.54237-.09994l-.1752-.03108v-.00092h-.00091a.87443.87443,0,0,1-.52957-.32146,1.06652,1.06652,0,0,1-.22457-.60025h0v-.00427l-.0259-.59843Zm3.44006,2.41657a3.80669,3.80669,0,0,1,1.38821,2.06069,12.3633,12.3633,0,0,1,.35315,3.52141v.00091H14.9638v.26265a.88167.88167,0,0,1-.87906.87845H1.31813a.87581.87581,0,0,1-.621-.25747l-.00091-.00091a.87533.87533,0,0,1-.25747-.62007v-.28245a12.26715,12.26715,0,0,1,.35314-3.50252v-.00061l.00092.00061A3.80792,3.80792,0,0,1,2.17921,14.5226a4.58471,4.58471,0,0,0,2.12741,1.89828,8.079,8.079,0,0,0,3.39253.76632,7.53842,7.53842,0,0,0,3.22768-.76267A5.52053,5.52053,0,0,0,13.22335,14.52168Z" style="fill:#a1afba;fill-rule:evenodd"/></g></svg>