<svg xmlns="http://www.w3.org/2000/svg" viewBox="0 0 22.2174 22.21019"><title>90-degree-three-arrow-Icon-UC-Santa-Barbara</title><g id="ICONS"><path d="M2.34405,18.55526V6.79325H.21938A.22.22,0,0,1,.04845,6.4355L4.31516.09686A.21835.21835,0,0,1,4.61833.03714a.20956.20956,0,0,1,.06125.06125L8.957,6.45107a.21871.21871,0,0,1-.06064.30409.21588.21588,0,0,1-.121.03626v.00183H6.65677v5.71768L11.5021,7.6656,10.00024,6.16343a.21944.21944,0,0,1,.12005-.372l7.51085-1.46746a.21973.21973,0,0,1,.25747.17341.23074.23074,0,0,1-.00092.088L16.42026,12.099a.21739.21739,0,0,1-.3699.113h-.00061l-1.497-1.49668L9.70651,15.55976H15.4242V13.436a.21931.21931,0,0,1,.3568-.17185l6.339,4.26762a.218.218,0,0,1,.06033.30318.20261.20261,0,0,1-.06033.0603l-6.35451,4.278a.219.219,0,0,1-.34035-.18126H15.4242V19.87339H3.66218a1.32121,1.32121,0,0,1-1.31813-1.31813Zm.43969-1.6402v1.6402a.88062.88062,0,0,0,.87844.87845h11.9814a.22.22,0,0,1,.2203.2203v1.92506l5.743-3.866-5.743-3.86511v1.9321a.22061.22061,0,0,1-.2203.22029H9.17633a.22411.22411,0,0,1-.1557-.06459.22107.22107,0,0,1,0-.3111l5.37673-5.37581a.21994.21994,0,0,1,.31018,0l1.3611,1.36139L17.3953,4.817,10.60294,6.14454,11.9686,7.51021a.22013.22013,0,0,1,0,.31079L6.59614,13.19255l-.00335.00423a.21977.21977,0,0,1-.37479-.15539V6.573a.21905.21905,0,0,1,.21939-.21938h1.926L4.49645.6115.63134,6.35357h1.9321a.21983.21983,0,0,1,.2203.21938V16.91506Zm2.51864,2.95833h0Z" style="fill:#a1afba;fill-rule:evenodd"/></g></svg>