<svg xmlns="http://www.w3.org/2000/svg" viewBox="0 0 8.99349 19.87364"><title>arrow-icon-uc-santa-barbara</title><g id="ICONS"><path d="M2.34405,18.55551V6.79259H.21938a.21937.21937,0,0,1-.17124-.3565l4.2661-6.339A.21862.21862,0,0,1,4.618.0374.20913.20913,0,0,1,4.67866.098l4.278,6.3536a.21936.21936,0,0,1-.06063.30378.21584.21584,0,0,1-.12158.03718h-2.118V18.55551a1.3134,1.3134,0,0,1-.387.93025l-.00092.00092a1.31068,1.31068,0,0,1-.92994.387H3.66188a1.31963,1.31963,0,0,1-1.31783-1.31813ZM2.78282,6.5732V18.55551a.88115.88115,0,0,0,.87906.87845H5.33864a.87687.87687,0,0,0,.621-.25747v-.00061a.87213.87213,0,0,0,.25717-.62037V6.5732a.21983.21983,0,0,1,.22029-.21938h1.9254L4.49645.61115.63134,6.35382h1.9321A.21964.21964,0,0,1,2.78282,6.5732Z" style="fill:#a1afba;fill-rule:evenodd"/></g></svg>