<svg xmlns="http://www.w3.org/2000/svg" viewBox="0 0 16.36663 19.07626"><title>arrow-in-circle-icon-UC-Santa-Barbara</title><g id="ICONS"><path d="M8.82562,9.22472l2.05977-1.451a.12524.12524,0,0,1,.02072-.0128l3.11647-2.19749.894-.63043L8.82562.64285V2.9412a.21983.21983,0,0,1-.21938.2203l-.02773-.00183c-.06825-.00427-.13041-.00579-.1883-.00762-.04845-.00091-.11731-.00183-.20628-.00183a7.73372,7.73372,0,1,0,7.46575,5.68143,7.66287,7.66287,0,0,0-.69777-1.70239L12.02314,9.1912a4.16586,4.16586,0,0,1,.24864.7392,4.23082,4.23082,0,0,1,.11152.96315A4.199,4.199,0,1,1,8.18393,6.69327q.101,0,.22273.007c.07343.00426.1487.01036.22121.01706a.22.22,0,0,1,.19684.21847h.00091V9.22472Zm2.29744-1.0823L8.74275,9.81888a.21623.21623,0,0,1-.13651.04845.21984.21984,0,0,1-.2203-.21939V7.13813H8.3832c-.0585-.00365-.12523-.00426-.19927-.00426a3.76143,3.76143,0,1,0,3.36571,2.08231h0a.21969.21969,0,0,1,.07008-.27727L14.89585,6.6326h0l.01371-.0085a.21961.21961,0,0,1,.30074.07527A8.18293,8.18293,0,1,1,8.18393,2.71054c.04814,0,.11731.00183.202.00363V.21962h0A.22034.22034,0,0,1,8.73239.04016l6.6912,4.714a.22.22,0,0,1,0,.35924l-1.14872.80925L11.1386,8.13389,11.13768,8.133Z" style="fill:#a1afba;fill-rule:evenodd"/></g></svg>