<svg xmlns="http://www.w3.org/2000/svg" viewBox="0 0 8.99349 19.63762"><title>arrow-circle-Icon-UC-Santa-Barbara</title><g id="ICONS"><path d="M6.90358,2.84684a2.40088,2.40088,0,0,0-.70477-1.70236h0A2.40717,2.40717,0,0,0,2.7941,4.54828l.0006.00088V4.54828A2.40639,2.40639,0,0,0,6.90358,2.84684ZM2.34405,18.31948V13.38241H.22A.22.22,0,0,1,.04814,13.025l4.2661-6.338a.21968.21968,0,0,1,.36534,0l4.27706,6.35359a.21921.21921,0,0,1-.06063.30379.21366.21366,0,0,1-.12066.03717v.00089H6.65647v4.93707a1.31333,1.31333,0,0,1-.38606.93025l-.00091.00153a1.31344,1.31344,0,0,1-.93116.38636H3.66188a1.3186,1.3186,0,0,1-1.31783-1.31814Zm.43969-5.15734v5.15734a.8801.8801,0,0,0,.87814.87937H5.33834a.87834.87834,0,0,0,.62128-.25747l.00061-.00092a.87636.87636,0,0,0,.25747-.621V13.16214a.219.219,0,0,1,.21938-.21938h1.9254l-3.866-5.74271L.63134,12.94276h1.9321a.2204.2204,0,0,1,.2203.21938ZM6.50869.83521A2.84573,2.84573,0,0,1,2.48391,4.85938h.00092A2.84573,2.84573,0,1,1,6.50869.8343H6.50808Z" style="fill:#a1afba;fill-rule:evenodd"/></g></svg>