<svg xmlns="http://www.w3.org/2000/svg" viewBox="0 0 20.18853 16.92789"><title>arrow-rotating-right-Icon-UC-Santa-Barbara</title><g id="ICONS"><path d="M0,6.34567A3.9114,3.9114,0,0,1,1.15664,3.56285a4.21411,4.21411,0,0,1,2.838-1.2188h9.40181V.21938A.21964.21964,0,0,1,13.61581,0a.222.222,0,0,1,.13711.04753l6.339,4.26671a.21909.21909,0,0,1,.05942.30379.212.212,0,0,1-.06033.06063l-6.3536,4.278a.22055.22055,0,0,1-.30409-.06063.21576.21576,0,0,1-.03687-.12158h0v-2.118H4.79536l-.01645-.00092-.01554-.00061v.00061a.42951.42951,0,0,0-.30653.13316.50422.50422,0,0,0-.14412.32572V7.1187l-.00092.02163h.00092v4.99128l-.00092.01311.00092.01188h0a.50725.50725,0,0,0,.14412.32664.43641.43641,0,0,0,.30135.13376l.032-.00091h.00518v-.00153h7.7217a1.32116,1.32116,0,0,1,1.31813,1.31874v1.67646a1.31291,1.31291,0,0,1-.38636.93025l-.00061.00183a1.31713,1.31713,0,0,1-.93116.38605H4.00162l-.02773-.00183a4.21144,4.21144,0,0,1-2.81725-1.21788A3.9098,3.9098,0,0,1,0,12.92536V6.34567Zm1.46743-2.472a3.47476,3.47476,0,0,0-1.02866,2.472v6.57969A3.47905,3.47905,0,0,0,1.46743,15.3983a3.77308,3.77308,0,0,0,2.52474,1.09082l.00945-.00091h8.51544a.87834.87834,0,0,0,.621-.25656l.00091-.00091a.87966.87966,0,0,0,.25747-.621V13.9333a.88062.88062,0,0,0-.87936-.87845H4.79536v-.00152l-.02681.00152v-.00094l-.00518.00094a.86574.86574,0,0,1-.61824-.26508.94145.94145,0,0,1-.27057-.61245h0v-.02163L3.874,12.13161V7.14033h0V7.13515l.00061-.02864V7.09432a.94292.94292,0,0,1,.27057-.61306.86736.86736,0,0,1,.61824-.26508V6.2177h8.85244a.21983.21983,0,0,1,.21938.21938v1.9254l5.74267-3.866L13.83519.63131V2.56344a.21924.21924,0,0,1-.21938.21938H4.00162A3.76979,3.76979,0,0,0,1.46743,3.87365ZM3.97389,16.92606l-.19165-.21755A.21977.21977,0,0,0,3.97389,16.92606Z" style="fill:#a1afba;fill-rule:evenodd"/></g></svg>