<svg xmlns="http://www.w3.org/2000/svg" viewBox="0 0 18.92124 14.58384"><title>clockwise-arrow-icon-UC-Santa-Barbara</title><g id="ICONS"><path d="M0,4.00253A3.90946,3.90946,0,0,1,1.15633,1.21971,4.21392,4.21392,0,0,1,3.99461.00091h.00792V0h8.57212a3.91355,3.91355,0,0,1,2.78312,1.15664,4.21376,4.21376,0,0,1,1.21941,2.83828v.0067h0V7.79086h2.12467a.21959.21959,0,0,1,.17124.35681l-4.26671,6.33866a.21832.21832,0,0,1-.30317.05972.22469.22469,0,0,1-.06155-.06063L9.96459,8.13182a.21733.21733,0,0,1,.06064-.30287.21368.21368,0,0,1,.12157-.03717V7.79086h2.118V4.79628a.133.133,0,0,1,.00152-.025v-.007h-.00152a.43247.43247,0,0,0-.13224-.30747.50809.50809,0,0,0-.32633-.14409h-.00366l-.02163-.00092v.00092H4.79536L4.771,4.3118l-.00671-.00091V4.3118a.43049.43049,0,0,0-.30683.13282.50038.50038,0,0,0-.145.32667v.00335l-.00091.02164h.00091V9.81285h0a.50524.50524,0,0,0,.145.32633.43373.43373,0,0,0,.30074.13407l.032-.00091.00518-.00092H8.90058a1.32016,1.32016,0,0,1,1.31813,1.31813V13.266a1.30858,1.30858,0,0,1-.38636.93025l-.00061.00152a1.31424,1.31424,0,0,1-.93116.38606h-4.898a.17416.17416,0,0,1-.02864-.00153,4.20857,4.20857,0,0,1-2.81756-1.21788A3.91016,3.91016,0,0,1,0,10.58161V4.00253Zm1.46743-2.472a3.47233,3.47233,0,0,0-1.02866,2.472v6.57908a3.47505,3.47505,0,0,0,1.02866,2.47263,3.76962,3.76962,0,0,0,2.52474,1.09083H8.90058a.87631.87631,0,0,0,.621-.25717l.00183-.00091a.87962.87962,0,0,0,.25655-.621V11.58955a.88161.88161,0,0,0-.87936-.87936H4.76428a.86981.86981,0,0,1-.62037-.26356.95228.95228,0,0,1-.26935-.61306h0V9.81285l-.00183-.02438V4.79628h.00183V4.75057a.949.949,0,0,1,.26935-.61336A.87572.87572,0,0,1,4.76428,3.873h.00427l.01371.00091.0131-.00091h6.98555V3.874l.00517.00088h.04083a.94273.94273,0,0,1,.61306.2703.87157.87157,0,0,1,.26509.61915h-.00152V8.01116a.21906.21906,0,0,1-.21939.21847h-1.926l3.86572,5.74267,3.866-5.74267H16.3578a.21867.21867,0,0,1-.21939-.21847V4.00162h0a3.77223,3.77223,0,0,0-1.09082-2.53419A3.47453,3.47453,0,0,0,12.57465.43968H9.73058L9.72449.43877h-5.722a3.76383,3.76383,0,0,0-2.5351,1.09174Zm2.50646,13.0518" style="fill:#a1afba;fill-rule:evenodd"/></g></svg>