<svg xmlns="http://www.w3.org/2000/svg" viewBox="0 0 22.95535 19.66498"><title>crossed-arrows-Icon-UC-Santa-Barbara</title><g id="ICONS"><path d="M6.30515,14.88242,8.772,12.41587a.21849.21849,0,0,1,.31079,0l2.46685,2.46655a6.58423,6.58423,0,0,0,4.82553,1.99974v-.00091h.007a.21944.21944,0,0,1,.2203.21938v1.933l5.74176-3.866-5.74176-3.86695v1.926a.2202.2202,0,0,1-.2203.22027h-.16941a2.908,2.908,0,0,1-2.11949-.87842L11.51155,9.98711a.21939.21939,0,0,1,0-.31109L14.09327,7.0943a2.91208,2.91208,0,0,1,2.11949-.87754h.16941a.22.22,0,0,1,.2203.21938V8.36246l5.74176-3.866L16.60247.63128V2.56341a.22.22,0,0,1-.2203.21939h-.007L16.363,2.78188a6.58146,6.58146,0,0,0-4.81334,1.99941L9.08279,7.24817a.22013.22013,0,0,1-.31079,0L6.30515,4.78129A6.78,6.78,0,0,0,4.1,3.28281a6.79466,6.79466,0,0,0-2.62042-.5H1.31813a.868.868,0,0,0-.62037.25747l-.00061.00061a.87327.87327,0,0,0-.25747.62037V5.33862a.88116.88116,0,0,0,.87845.87814H1.642A2.98237,2.98237,0,0,1,2.79227,6.438l.01127.00427a2.99776,2.99776,0,0,1,.95889.65206L6.34324,9.676a.21939.21939,0,0,1,0,.31109L3.76243,12.56853l-.01219.01127a2.98143,2.98143,0,0,1-.95858.646A2.97929,2.97929,0,0,1,1.642,13.447h-.3239a.87479.87479,0,0,0-.62037.25658l-.00061.00183a.8705.8705,0,0,0-.25747.62007v1.67645a.88168.88168,0,0,0,.87845.87937h.16149A6.78923,6.78923,0,0,0,4.1,16.38093a6.77959,6.77959,0,0,0,2.20511-1.49851Zm2.62224-2.00127L6.61594,15.1926a7.22889,7.22889,0,0,1-2.34923,1.59358A7.2155,7.2155,0,0,1,1.47962,17.32H1.31813A1.32119,1.32119,0,0,1,0,16.00188V14.32543A1.31748,1.31748,0,0,1,.38514,13.397L.387,13.39515v-.00089H.38788a1.31254,1.31254,0,0,1,.93025-.387H1.642a2.54852,2.54852,0,0,0,.98357-.18648,2.55383,2.55383,0,0,0,.81537-.5509l.01036-.01218L5.87766,9.83141l-2.42633-2.426a2.54313,2.54313,0,0,0-.81537-.5579l-.01189-.00457a2.54219,2.54219,0,0,0-.982-.18739h-.3239A1.31965,1.31965,0,0,1,0,5.33862V3.66125a1.31333,1.31333,0,0,1,.38514-.92781L.387,2.731h0l.00091-.00092a1.31249,1.31249,0,0,1,.93025-.387h.16149a7.216,7.216,0,0,1,2.78709.53474A7.20966,7.20966,0,0,1,6.61594,4.47144L8.92739,6.78167l2.31115-2.31023a7.00818,7.00818,0,0,1,4.92425-2.12406V.21936h.00091A.2143.2143,0,0,1,16.2.09748a.22047.22047,0,0,1,.3047-.06064L22.85734,4.3133a.21492.21492,0,0,1,.06064.06125.21881.21881,0,0,1-.05972.30409l-6.339,4.26671a.2191.2191,0,0,1-.3565-.17094v-2.118a2.449,2.449,0,0,0-1.75934.74895l-2.42632,2.426,2.42632,2.42633a2.55731,2.55731,0,0,0,.82544.56308,2.51314,2.51314,0,0,0,.9339.18556V10.88963h.00091A.21439.21439,0,0,1,16.2,10.76775a.22092.22092,0,0,1,.3047-.06033l6.35268,4.278a.20047.20047,0,0,1,.06064.06033.21865.21865,0,0,1-.05972.30409l-6.339,4.2667a.22452.22452,0,0,1-.13712.04845.22042.22042,0,0,1-.21938-.2203V17.31636a7.13419,7.13419,0,0,1-2.5741-.53018,7.22606,7.22606,0,0,1-2.35015-1.59358Z" style="fill:#a1afba;fill-rule:evenodd"/></g></svg>