<svg xmlns="http://www.w3.org/2000/svg" viewBox="0 0 20.60334 20.60366"><title>four-way-Icon-UC-Santa-Barbara</title><g id="ICONS"><path d="M11.70766,8.67074V5.56036A.21928.21928,0,0,1,11.92613,5.34h1.55915L10.30147.61143,7.118,5.34H8.671a.22057.22057,0,0,1,.22.22033V8.67074a.2205.2205,0,0,1-.22.22H5.55973a.21979.21979,0,0,1-.21938-.22V7.11768L.6108,10.3021l4.72955,3.1838V11.92764a.21981.21981,0,0,1,.21938-.22027H8.671a.22052.22052,0,0,1,.22.22027v3.11619a.22111.22111,0,0,1-.22.22027H7.118l3.1835,4.72893,3.18381-4.72893H11.92613a.21981.21981,0,0,1-.21847-.22027V11.92764a.21923.21923,0,0,1,.21847-.22027h3.11738a.21994.21994,0,0,1,.22.22027V13.4859l4.72894-3.1838L15.2635,7.11768V8.67074a.21992.21992,0,0,1-.22.22H11.92613a.21921.21921,0,0,1-.21847-.22Zm.43877-2.891V8.452h2.6777V6.70664h.0006a.21472.21472,0,0,1,.03657-.12188.21914.21914,0,0,1,.3047-.06033L20.50555,10.119a.23094.23094,0,0,1,.06125.06155.22014.22014,0,0,1-.06033.30379l-5.32585,3.58448a.21908.21908,0,0,1-.35649-.17093V12.147h-2.6777v2.67682h1.7508v.00149a.21766.21766,0,0,1,.1813.34038L10.484,20.50618a.20837.20837,0,0,1-.06063.06033.21858.21858,0,0,1-.30318-.05941l-3.586-5.32585a.22282.22282,0,0,1-.04753-.13742.22035.22035,0,0,1,.21938-.22H8.45164V12.147H5.77912v1.75084H5.7782a.21863.21863,0,0,1-.34.18129L.09769,10.48522A.22215.22215,0,0,1,.03736,10.424a.21793.21793,0,0,1,.05942-.30321l5.32584-3.586a.2154.2154,0,0,1,.13711-.04845.21984.21984,0,0,1,.21939.2203V8.452H8.45164V5.77975H6.706V5.7788a.21927.21927,0,0,1-.18221-.34093L10.11926.09832a.21015.21015,0,0,1,.06155-.06125A.21836.21836,0,0,1,10.484.0974l3.58419,5.3249a.2198.2198,0,0,1-.17094.35745Z" style="fill:#a1afba;fill-rule:evenodd"/></g></svg>