<svg xmlns="http://www.w3.org/2000/svg" viewBox="0 0 19.74082 19.74948"><title>four-arrows-towards-center-icon-uc-santa-barbara</title><g id="ICONS"><path d="M3.77505.73l.83609.8361L6.11331.06422a.22011.22011,0,0,1,.31079,0,.21641.21641,0,0,1,.06155.12005L7.95309,7.6942a.21951.21951,0,0,1-.26083.25747L.17685,6.48393a.21882.21882,0,0,1-.17277-.25717.22837.22837,0,0,1,.05973-.11338h0L1.5614,4.61582l-.83609-.8361a1.31895,1.31895,0,0,1,0-1.86293l.00091-.00092H.72531L1.91028.73a1.32044,1.32044,0,0,1,1.86416,0V.7309L3.77505.73ZM15.96577,19.01927l-.83609-.83609-1.50309,1.50277a.21893.21893,0,0,1-.37112-.12008L11.78773,12.055a.2211.2211,0,0,1,.17277-.25835.23193.23193,0,0,1,.08836.00183L19.564,13.265a.2202.2202,0,0,1,.17276.25747.22754.22754,0,0,1-.05972.11393h0l-1.4976,1.49763.8361.83609.01127.01311a1.31841,1.31841,0,0,1-.01127,1.851l-1.18589,1.185h0l-.014.01189a1.31777,1.31777,0,0,1-1.84983-.01189Zm-.6807-1.30167.9915.99149h0a.88014.88014,0,0,0,1.23159.01036l.01036-.01036h0l1.18589-1.18589a.88347.88347,0,0,0,.01128-1.23343l-.01128-.00944-.99149-.99058a.22105.22105,0,0,1,0-.3111l1.362-1.362L12.281,12.2909,13.60862,19.083,14.974,17.7176a.22047.22047,0,0,1,.31109,0Zm-11.82082.99149.9915-.99149a.22047.22047,0,0,1,.31109,0L6.13312,19.083l1.32666-6.792L.66589,13.61664l1.362,1.362a.2205.2205,0,0,1,0,.3111l-.99149.99058-.01036.00944a.8764.8764,0,0,0-.24711.61245H.77985a.87643.87643,0,0,0,.25656.621l1.185,1.18589a.88236.88236,0,0,0,.62189.25652.8733.8733,0,0,0,.621-.25652h0Zm1.14689-.52591-.83609.83609H3.77444a1.32051,1.32051,0,0,1-1.86416,0l-1.185-1.185a1.31623,1.31623,0,0,1-.38514-.93208H.34108a1.31637,1.31637,0,0,1,.37143-.919l.0128-.01311.83609-.83609L.06381,13.63642h0a.23.23,0,0,1-.05973-.11393A.22021.22021,0,0,1,.17685,13.265L7.69226,11.7985a.22991.22991,0,0,1,.08806-.00183.22111.22111,0,0,1,.17277.25835L6.48565,19.56587a.21981.21981,0,0,1-.37234.12008L4.61114,18.18318ZM16.27657,1.04108l-.9915.99058a.21939.21939,0,0,1-.31109,0L13.60862.666,12.281,7.45836l6.79389-1.32575-1.362-1.362a.22.22,0,0,1,0-.31019l.99149-.99149h.00092a.8824.8824,0,0,0,0-1.24226h-.00092L17.51852,1.04108a.88208.88208,0,0,0-1.24287-.001l.00092.001Zm-1.14689.525L15.96577.73V.7309L15.96638.73a1.31932,1.31932,0,0,1,1.86324,0l1.18589,1.18589h0a1.32006,1.32006,0,0,1,0,1.86385h0l-.8361.8361L19.677,6.11338h0a.22593.22593,0,0,1,.05972.11338.21881.21881,0,0,1-.17276.25717L12.04886,7.95167a.21964.21964,0,0,1-.26113-.25747L13.25547.18427a.2141.2141,0,0,1,.06124-.12.219.219,0,0,1,.30988,0l1.50309,1.50186ZM4.45575,2.03166l-.9915-.99058.00092-.001a.88319.88319,0,0,0-1.24379.001l-1.185,1.18559-.00092-.00061a.882.882,0,0,0,.00092,1.24287l.99149.99149a.2194.2194,0,0,1,0,.31019l-1.362,1.362L7.45978,7.45836,6.13312.666,4.76684,2.03166A.21939.21939,0,0,1,4.45575,2.03166Z" style="fill:#a1afba;fill-rule:evenodd"/></g></svg>