<svg xmlns="http://www.w3.org/2000/svg" viewBox="0 0 17.29002 17.2895"><title>four-arrows-going-to-corners-icon-UC-Santa-Barbara</title><g id="ICONS"><path d="M3.51005,6.17826,2.9165,5.586l-1.274,1.274a.21909.21909,0,0,1-.3108,0,.21607.21607,0,0,1-.06154-.11914L.00418.262A.21876.21876,0,0,1,.17786.00447a.21977.21977,0,0,1,.08806,0L6.74809,1.27081a.22034.22034,0,0,1,.17368.25747.23182.23182,0,0,1-.06063.113h0l-1.2706,1.2706.59356.59328A1.31895,1.31895,0,0,1,6.18318,5.369l.00092.00091-.8102.80833-.0131.01314a1.31727,1.31727,0,0,1-1.85075-.01314Zm10.2696,4.9319.59325.59356,1.27486-1.274a.22013.22013,0,0,1,.31079,0,.22249.22249,0,0,1,.06155.12005l1.266,6.47761a.22135.22135,0,0,1-.17368.25839.21353.21353,0,0,1-.08806-.00183l-6.48218-1.26511a.21951.21951,0,0,1-.113-.37055h0l1.2706-1.2706-.59356-.59352a1.31895,1.31895,0,0,1,0-1.86293h0v-.00092l.8102-.8102.0131-.01127a1.31958,1.31958,0,0,1,1.85014.01127Zm.43876,1.05975-.749-.74865A.88349.88349,0,0,0,12.237,11.4109l-.01036.01036-.80928.8102-.00091-.00091a.88311.88311,0,0,0,.00091,1.24378l.748.748a.22071.22071,0,0,1,0,.3108l-1.13409,1.135,5.761,1.12434-1.12556-5.761-1.13836,1.13836a.219.219,0,0,1-.30988,0ZM3.82085,11.42126l-.749.74865a.22013.22013,0,0,1-.31079,0L1.62274,11.03155l-1.12556,5.761,5.76187-1.12434-1.1347-1.135a.22014.22014,0,0,1,0-.3108l.74865-.748.01036-.01036A.88349.88349,0,0,0,5.873,12.23146l-.8102-.8102a.88426.88426,0,0,0-1.24287-.00091l.00092.00091Zm-.90435.28246.59355-.59356v.00092l.00061-.00092a1.32156,1.32156,0,0,1,1.86324,0l.8102.8102a1.31914,1.31914,0,0,1,.01188,1.851l-.01188.01283-.59356.59352,1.2706,1.2706h0a.23391.23391,0,0,1,.06063.114.21943.21943,0,0,1-.17368.25656L.26592,17.284a.2139.2139,0,0,1-.08806.00183.22.22,0,0,1-.17368-.25839l1.266-6.47761a.21649.21649,0,0,1,.06154-.12005.22014.22014,0,0,1,.3108,0l1.274,1.274Zm10.553-5.8353.749-.749a.21957.21957,0,0,1,.30988,0l1.13836,1.13835,1.12556-5.76-5.761,1.12465,1.13409,1.1347a.21992.21992,0,0,1,0,.31015l-.748.749-.01127.00944a.88346.88346,0,0,0,.01127,1.23343l.80928.80928a.882.882,0,0,0,1.24287.00091V5.86842ZM14.3729,5.586l-.59325.5923h0a1.31628,1.31628,0,0,1-1.86324,0l-.8102-.80833a1.32,1.32,0,0,1-.01188-1.85169l.01188-.01307.59356-.59328-1.2706-1.2706h0a.21537.21537,0,0,1-.06033-.113.21991.21991,0,0,1,.17337-.25747L17.02439.00447A.22144.22144,0,0,1,17.28613.262l-1.266,6.47882a.22212.22212,0,0,1-.06155.11914.21908.21908,0,0,1-.31079,0L14.3729,5.586Zm-11.301-.46649.749.749a.88119.88119,0,0,0,1.23251.01036l.00944-.01036.8102-.80928V5.06l.00091-.00088A.88426.88426,0,0,0,5.873,3.81627l-.74865-.749a.21936.21936,0,0,1,0-.31015l1.1347-1.1347L.49718.49778l1.12556,5.76L2.7611,5.11947A.22068.22068,0,0,1,3.07189,5.11947Z" style="fill:#a1afba;fill-rule:evenodd"/></g></svg>