<svg xmlns="http://www.w3.org/2000/svg" viewBox="0 0 23.73579 23.73579"><title>four-rotating-arrows-Icon-UC-Santa-Barbara</title><g id="ICONS"><path d="M21.65835,18.0888a3.4904,3.4904,0,0,1-1.0311,2.4833,3.75677,3.75677,0,0,1-2.53175,1.08564l-.0067.00092v.00091h-1.649v1.85684a.21974.21974,0,0,1-.36533.16423l-4.91877-3.7798a.21838.21838,0,0,1-.04052-.30652.18714.18714,0,0,1,.05423-.05089l4.91724-3.77888a.21938.21938,0,0,1,.35254.17276h.00061v1.85105h.94579l.02438.00092h.00335a.35545.35545,0,0,0,.25473-.11061.42034.42034,0,0,0,.12005-.273l.00091-.00424v-.01645h-.00091V15.7353a1.32,1.32,0,0,1,.387-.93117h.00091v-.00091l.00274-.00152a1.31348,1.31348,0,0,1,.92751-.38453h1.23434a1.31806,1.31806,0,0,1,1.31782,1.31813h0v2.3535ZM5.647,21.65866a3.488,3.488,0,0,1-2.48239-1.03141A3.75758,3.75758,0,0,1,2.07714,18.0958v-.007H2.07622V16.44007H.21938a.21975.21975,0,0,1-.16423-.36534L3.834,11.156a.21936.21936,0,0,1,.30745-.04144.20278.20278,0,0,1,.05088.05515l3.77889,4.91724a.219.219,0,0,1-.17277.35223v.00092h-1.852v.94578l-.00092.02407v.00366h.00092a.35808.35808,0,0,0,.10969.25473.42383.42383,0,0,0,.273.12l.00335.00092h.01737v-.00092H8.0005A1.31965,1.31965,0,0,1,9.31863,19.1071v1.23434a1.3155,1.3155,0,0,1-.38606.93025l-.00182.00091a1.31308,1.31308,0,0,1-.93025.387v-.00183l-2.3535.00092ZM3.47479,20.31645A3.0557,3.0557,0,0,0,5.647,21.2208H8.0005v-.00091a.87581.87581,0,0,0,.621-.25747h.00092a.87668.87668,0,0,0,.25656-.621V19.1071A.88012.88012,0,0,0,8.0005,18.228H6.34994v-.00091H6.3216l-.0131-.00091a.86289.86289,0,0,1-.55973-.2462.79485.79485,0,0,1-.24193-.56644h.00091V16.21977a.21885.21885,0,0,1,.21938-.21847H7.35362L4.00924,11.64806.66485,16.0013H2.29652a.21807.21807,0,0,1,.21847.21847v1.869h0a3.31414,3.31414,0,0,0,.9598,2.22765ZM2.23345,5.647A3.49086,3.49086,0,0,1,3.26577,3.164,3.75172,3.75172,0,0,1,5.79721,2.07744h.007V2.07653H7.453V.21938A.21958.21958,0,0,1,7.81737.05454L12.73705,3.834a.22062.22062,0,0,1,.04144.30745.24131.24131,0,0,1-.05515.05119L7.80518,7.97125a.21841.21841,0,0,1-.35131-.1728H7.453V5.94682H6.50716l-.02407-.00094L6.47852,5.945v.00183a.35764.35764,0,0,0-.25381.10969.41685.41685,0,0,0-.12.2721l-.00092.00423-.00091.0174h.00183V8.0008a1.31419,1.31419,0,0,1-.387.93025l-.00092.00152a1.3126,1.3126,0,0,1-.93024.38606H3.55158a1.311,1.311,0,0,1-.93025-.38606L2.6195,8.93105a1.31338,1.31338,0,0,1-.386-.93025h.00091V5.647ZM3.57656,3.47476A3.0524,3.0524,0,0,0,2.67313,5.647H2.67222V8.0008h.00091a.87614.87614,0,0,0,.25656.621l.00091.00091a.87766.87766,0,0,0,.621.25626h1.235a.87674.87674,0,0,0,.62036-.25626l.00061-.00091a.87694.87694,0,0,0,.25747-.621V6.35024h.00092V6.32066L5.6668,6.3088A.854.854,0,0,1,5.913,5.75a.78869.78869,0,0,1,.56552-.24288v.00094H7.67234a.21905.21905,0,0,1,.21938.21939V7.35359l4.35324-3.345L7.89172.66516V2.29591a.21946.21946,0,0,1-.21938.2203H5.80422V2.5153a3.31636,3.31636,0,0,0-2.22766.95946ZM18.0888,2.07653a3.48793,3.48793,0,0,1,2.48238,1.032,3.75254,3.75254,0,0,1,1.08717,2.53174V5.647h0V7.296H23.5155a.21983.21983,0,0,1,.22029.21939.21746.21746,0,0,1-.05545.145l-3.77858,4.91968a.21964.21964,0,0,1-.30744.04053.19143.19143,0,0,1-.05119-.05515l-3.7795-4.91725a.21933.21933,0,0,1,.17368-.35162V7.296h1.85075V6.35024L17.789,6.325l.00092-.00335H17.789a.35772.35772,0,0,0-.10969-.25384.42374.42374,0,0,0-.273-.12094H17.402l-.01645-.00094v.00094H15.735a1.31961,1.31961,0,0,1-1.31782-1.31813V3.39435a1.311,1.311,0,0,1,.387-.92994V2.4635h.00061l.00183-.00275a1.31894,1.31894,0,0,1,.92842-.38422v.00091H18.0888V2.07653Zm2.1722,1.3422a3.054,3.054,0,0,0-2.1722-.90252V2.51438H15.735v.00183a.86874.86874,0,0,0-.62006.25717l-.00183.00091a.87625.87625,0,0,0-.25717.62006V4.62869a.88325.88325,0,0,0,.87906.87936h1.65513l.02407.00092.0128.00091a.85963.85963,0,0,1,.55882.24529.79408.79408,0,0,1,.24193.56643h0v.00427l-.00092.01036.00092.014V7.51542a.21983.21983,0,0,1-.21938.21938h-1.6271l3.345,4.35294L23.07063,7.7348H21.43988a.22.22,0,0,1-.2203-.21938V5.647h0A3.32121,3.32121,0,0,0,20.261,3.41873ZM20.31615,20.261a3.05345,3.05345,0,0,0,.90343-2.1722h.00092V15.7353h-.00092a.88163.88163,0,0,0-.879-.87937H19.10619a.87371.87371,0,0,0-.62007.25747l-.00091.00089a.87436.87436,0,0,0-.25747.621v1.64964h-.00092v.02773l-.00091.01554a.85993.85993,0,0,1-.24589.5579.79215.79215,0,0,1-.56674.24193h-.00335l-.01036-.00091-.014.00091H16.21977a.21983.21983,0,0,1-.21939-.22029V16.38126l-4.35232,3.3453,4.35232,3.34438V21.43927a.21964.21964,0,0,1,.21939-.21938h1.869v.00091A3.3182,3.3182,0,0,0,20.31615,20.261Z" style="fill:#a1afba;fill-rule:evenodd"/></g></svg>