<svg xmlns="http://www.w3.org/2000/svg" viewBox="0 0 15.68868 19.87261"><title>h-arrow-icon-uc-santa-barbara</title><g id="ICONS"><path d="M2.34436,18.55448V6.79247H.2203a.21931.21931,0,0,1-.17185-.3568L4.31516.097A.22.22,0,0,1,4.61925.03667a.211.211,0,0,1,.06063.06125L8.957,6.45121a.21762.21762,0,0,1-.06064.30317.21509.21509,0,0,1-.12157.03718v.00091h-2.118v4.0784h4.71949V7.49907a1.31292,1.31292,0,0,1,.38667-.9312h0l.00091-.00088.00183-.00152A1.31459,1.31459,0,0,1,12.695,6.1809h1.67555a1.31814,1.31814,0,0,1,1.31813,1.31817V18.55448a1.31449,1.31449,0,0,1-.38606.93117l-.00091.00091a1.3162,1.3162,0,0,1-.93116.38605H12.695a1.31912,1.31912,0,0,1-1.31874-1.31813V15.18359H7.13972l-.02438-.00186h-.0067a.42854.42854,0,0,0-.30683.1338.50117.50117,0,0,0-.145.32663v.00336l-.00091.02163h.00091v2.88733a1.31452,1.31452,0,0,1-.386.93117l-.00092.00091a1.314,1.314,0,0,1-.93024.38605H3.66218a1.31806,1.31806,0,0,1-1.31782-1.31813ZM2.78374,6.57309V18.55448a.88063.88063,0,0,0,.87844.87937H5.33956a.87518.87518,0,0,0,.62006-.25751l.00091-.00088a.87419.87419,0,0,0,.25747-.621V15.66715h.00092v-.03352l.00091-.01313a.93986.93986,0,0,1,.26936-.61245.86917.86917,0,0,1,.61945-.26509v.00095h4.487a.22035.22035,0,0,1,.22.21938v3.59119a.88063.88063,0,0,0,.87936.87937h1.67555a.87568.87568,0,0,0,.621-.25751l.00092-.00088a.87345.87345,0,0,0,.25656-.621V7.49907a.8807.8807,0,0,0-.87845-.8794H12.695a.87586.87586,0,0,0-.62189.25751v.00091a.87441.87441,0,0,0-.25747.621v3.59054a.22049.22049,0,0,1-.22.22H6.43739a.21978.21978,0,0,1-.21939-.22V6.57309a.2204.2204,0,0,1,.21939-.2203h1.926L4.49676.611.63164,6.35279h1.9321A.22092.22092,0,0,1,2.78374,6.57309Z" style="fill:#a1afba;fill-rule:evenodd"/></g></svg>