<svg xmlns="http://www.w3.org/2000/svg" viewBox="0 0 19.87243 8.99565"><title>horizontal-double-arrow-Icon-UC-Santa-Barbara</title><g id="ICONS"><path d="M6.35357,2.56435V.63164L.61059,4.49737l5.743,3.86694V6.4383a.22.22,0,0,1,.22-.22033H13.2995a.21985.21985,0,0,1,.21938.22033v1.926l5.74268-3.86694L13.51888.63164V2.56435a.21963.21963,0,0,1-.21938.21939H6.57356a.21977.21977,0,0,1-.22-.21939ZM6.79294.2203V2.34436h6.28718V.2203h0a.22313.22313,0,0,1,.03717-.12158.22016.22016,0,0,1,.30378-.06063l6.3536,4.27615a.21253.21253,0,0,1,.06064.06155.21829.21829,0,0,1-.05973.30318l-6.339,4.26823a.21725.21725,0,0,1-.13711.04845.22044.22044,0,0,1-.21938-.2203V6.65769H6.79294V8.77535h-.0006a.21946.21946,0,0,1-.34127.18221L.09839,4.67958a.21342.21342,0,0,1-.06124-.06033.21842.21842,0,0,1,.05941-.30318L6.43645.04845A.21772.21772,0,0,1,6.57356,0,.22041.22041,0,0,1,6.79294.2203Z" style="fill:#a1afba;fill-rule:evenodd"/></g></svg>