<svg xmlns="http://www.w3.org/2000/svg" viewBox="0 0 17.29633 20.1848"><title>left-split-arrow-icon-UC-Santa-Barbara</title><g id="ICONS"><path d="M11.39369,13.38147l-.00336-.00366L6.321,8.30883a2.61941,2.61941,0,0,1-.78857-1.90468V5.874a.21964.21964,0,0,1,.21939-.21938H7.42071L4.02544.61117.63078,5.65459H2.30572a.21885.21885,0,0,1,.21846.21938V6.26a5.83742,5.83742,0,0,0,1.77244,4.278l6.68328,6.6842.01219.01218a2.69577,2.69577,0,0,1,.53962.7712,2.5896,2.5896,0,0,1,.22975.91989.8805.8805,0,0,0,.27575.5838l.00091-.00064a.877.877,0,0,0,.60087.23648h1.25872a.87667.87667,0,0,0,.621-.25656l.00061-.00152a.87528.87528,0,0,0,.25747-.621V5.874a.21925.21925,0,0,1,.21939-.21938H16.665L13.26972.61117,9.87537,5.65459h1.67371a.21964.21964,0,0,1,.21939.21938v7.35176a.21986.21986,0,0,1-.21939.22033.21651.21651,0,0,1-.15539-.06459ZM6.63123,7.99864l4.69847,4.69692V6.09336H9.46311a.21968.21968,0,0,1-.18221-.34127L13.0866.09839a.23038.23038,0,0,1,.06124-.06155.21969.21969,0,0,1,.30409.06064l3.79686,5.63907a.22538.22538,0,0,1,.04754.13742.21984.21984,0,0,1-.2203.21939h-1.8605v12.7727a1.31429,1.31429,0,0,1-.386.93086l-.00092.00091a1.31664,1.31664,0,0,1-.93085.387H12.639a1.31764,1.31764,0,0,1-.89978-.355v-.00091h0a1.31873,1.31873,0,0,1-.41561-.87388,2.15324,2.15324,0,0,0-.18982-.76723,2.27358,2.27358,0,0,0-.45187-.64414l-.01219-.01127L3.98644,10.8488A6.28025,6.28025,0,0,1,2.08542,6.26V6.09336H.21883a.21582.21582,0,0,1-.12158-.03721.21862.21862,0,0,1-.05972-.30406L3.84232.09839A.22581.22581,0,0,1,3.90356.03684a.21845.21845,0,0,1,.30318.06064L8.0036,5.73655A.21528.21528,0,0,1,8.052,5.874a.21963.21963,0,0,1-.21938.21939H5.97217v.31079a2.16365,2.16365,0,0,0,.65906,1.59449Z" style="fill:#a1afba;fill-rule:evenodd"/></g></svg>