<svg xmlns="http://www.w3.org/2000/svg" viewBox="0 0 17.34167 20.76555"><title>left-turn-arrow-icon-uc-santa-barbara</title><g id="ICONS"><path d="M6.34628,8.91518A3.47969,3.47969,0,0,0,3.87365,9.94293,3.77894,3.77894,0,0,0,2.78191,12.478h.00183v1.71454a.21925.21925,0,0,1-.2203.21847H.63134l3.86511,5.743,3.866-5.743H6.43708a.219.219,0,0,1-.22029-.21847v-.9208l.00091-.0128-.00091-.014v-.00518h0a.86612.86612,0,0,1,.26539-.61918.93914.93914,0,0,1,.61214-.26963l.0131-.00061h.03291v-.00095h3.061a.91159.91159,0,0,1,.92233.92236v6.17565a.88168.88168,0,0,0,.87936.87937h1.67646a.87821.87821,0,0,0,.621-.25748l.00091-.00091a.8755.8755,0,0,0,.25625-.621V6.573a.22.22,0,0,1,.2203-.21938H16.71L12.84431.61059l-3.86542,5.743h1.92539a.21964.21964,0,0,1,.21939.21938V8.69579a.21964.21964,0,0,1-.21939.21939Zm-2.78373.71787A3.91458,3.91458,0,0,1,6.34628,8.47641H10.6849V6.79294H8.56632V6.79233a.21459.21459,0,0,1-.121-.0372.21964.21964,0,0,1-.06064-.30406L12.66179.09839a.20692.20692,0,0,1,.06155-.06124.21864.21864,0,0,1,.30318.05941l4.26671,6.33989a.21607.21607,0,0,1,.04844.1365.22.22,0,0,1-.21938.22h-2.125V19.44742a1.31207,1.31207,0,0,1-.38605.93025l-.00152.00152a1.31236,1.31236,0,0,1-.93025.38636H12.003a1.31859,1.31859,0,0,1-1.31813-1.31813V13.27177a.47077.47077,0,0,0-.48356-.48264h-3.061v-.00095h-.021l-.00427.00095a.50128.50128,0,0,0-.32633.14412.4319.4319,0,0,0-.13316.30653H6.65464l.00091.007.00092.025v.70051h2.118a.22293.22293,0,0,1,.12249.03808.21737.21737,0,0,1,.05881.30318L4.67866,20.66683a.2091.2091,0,0,1-.06063.06064.21926.21926,0,0,1-.30379-.05976L.04814,14.32908a.21959.21959,0,0,1,.17124-.3568H2.34405V12.478H2.345v-.00762A4.21263,4.21263,0,0,1,3.56255,9.63305Z" style="fill:#a1afba;fill-rule:evenodd"/></g></svg>