<svg xmlns="http://www.w3.org/2000/svg" viewBox="0 0 22.43538 16.23771"><title>left-right-turn-icon-uc-santa-barbara</title><g id="ICONS"><path d="M11.11078,3.27a3.74887,3.74887,0,0,0-.84036-.34828,3.86533,3.86533,0,0,0-.89826-.13894H6.5738a.21983.21983,0,0,1-.2203-.21938V.63134L.61144,4.49645l5.74206,3.866V6.43708a.22022.22022,0,0,1,.2203-.22029H8.57842l.0128.00091.014-.00091H8.6095V6.21614a.87364.87364,0,0,1,.62006.26509.94869.94869,0,0,1,.26966.61309v.01219l.00061.02864v.00518h.00092v7.77929a.88062.88062,0,0,0,.87936.87844h1.67554a.87419.87419,0,0,0,.621-.25747h.00183a.88046.88046,0,0,0,.25656-.621V7.14033a.11881.11881,0,0,1,.00182-.02532V7.09432h0a.9424.9424,0,0,1,.26936-.61309.86986.86986,0,0,1,.61915-.26444h.00518l.02681.00091V6.21679H15.862a.21944.21944,0,0,1,.21938.22029v1.9254l5.743-3.866L16.08134.63134v1.9321a.219.219,0,0,1-.21938.21938H13.05415a3.88457,3.88457,0,0,0-.88972.13894,3.76375,3.76375,0,0,0-.83945.34736.21806.21806,0,0,1-.2142,0V3.27Zm-.72366-.77059a4.27959,4.27959,0,0,1,.83152.33,4.21527,4.21527,0,0,1,.8294-.33,4.32439,4.32439,0,0,1,.98875-.15448l.01736-.00092h2.58843V.21938h.00091a.21867.21867,0,0,1,.34035-.1816l6.35451,4.27646a.21456.21456,0,0,1,.06033.06033.21988.21988,0,0,1-.06033.30409L15.99847,8.94625a.21457.21457,0,0,1-.13651.04757.21866.21866,0,0,1-.21938-.21939v-2.118H13.85734V6.65555h-.00518l-.032-.00064a.43174.43174,0,0,0-.30135.1338.49794.49794,0,0,0-.145.3263h0v7.80461a1.31389,1.31389,0,0,1-.386.93024l-.00092.00088a1.31506,1.31506,0,0,1-.93116.387H10.38011A1.31963,1.31963,0,0,1,9.062,14.91962V7.14033h0V7.115a.50536.50536,0,0,0-.145-.3263.43369.43369,0,0,0-.30744-.13316V6.65491l-.007.00064-.02407.00092H6.79319v2.118H6.79227a.21847.21847,0,0,1-.34035.1813L.09833,4.67866a.20632.20632,0,0,1-.06125-.06033.21762.21762,0,0,1,.06064-.30317L6.43638.04753A.22153.22153,0,0,1,6.5738,0a.21905.21905,0,0,1,.21939.21938V2.34405h2.579V2.345h.007A4.28,4.28,0,0,1,10.38712,2.49945Z" style="fill:#a1afba;fill-rule:evenodd"/></g></svg>