<svg xmlns="http://www.w3.org/2000/svg" viewBox="0 0 14.93837 19.77831"><title>merge-arrow-icon-uc-santa-barbara</title><g id="ICONS"><path d="M9.62525,10.63245l3.20422,3.20422a7.299,7.299,0,0,1,1.47719,2.08262,7.01624,7.01624,0,0,1,.62768,2.44,1.28687,1.28687,0,0,1-.348.99576h0a1.28534,1.28534,0,0,1-.96651.42323H11.94767a1.31846,1.31846,0,0,1-1.31356-1.20844,2.41255,2.41255,0,0,0-.22213-.84371,2.57046,2.57046,0,0,0-.51646-.72549l-.00091.00091-2.426-2.42632L5.04226,17.00158a2.628,2.628,0,0,0-.51738.72458,2.45425,2.45425,0,0,0-.22182.84371A1.31731,1.31731,0,0,1,2.9892,19.77831H1.31792a1.32041,1.32041,0,0,1-.52865-.10786,1.32781,1.32781,0,0,1-.43786-.31537l-.01127-.01219a1.33581,1.33581,0,0,1-.27027-.44821,1.31933,1.31933,0,0,1-.06551-.53536,6.97614,6.97614,0,0,1,.628-2.44,7.27062,7.27062,0,0,1,1.476-2.08262l3.20453-3.20422V6.79232h-2.125a.21864.21864,0,0,1-.17093-.35589L7.28272.09685A.21962.21962,0,0,1,7.58681.03713a.21572.21572,0,0,1,.06064.06155l4.278,6.35238a.21962.21962,0,0,1-.06064.30405.21675.21675,0,0,1-.121.03721H9.62525v3.84013Zm2.89343,3.51532L9.25382,10.88291l-.00335-.00426a.219.219,0,0,1-.064-.1554V6.57294a.21906.21906,0,0,1,.21939-.21939H11.331L7.46493.61149,3.59982,6.35355h1.9324a.21976.21976,0,0,1,.22.21939v4.15031h0a.21953.21953,0,0,1-.06459.1554L2.4185,14.14777a6.86979,6.86979,0,0,0-1.38882,1.95617,6.59332,6.59332,0,0,0-.58838,2.288.88759.88759,0,0,0,.04235.35863.90786.90786,0,0,0,.18039.298l.00883.00853a.877.877,0,0,0,.291.21176.89149.89149,0,0,0,.35406.06886H2.9892a.87422.87422,0,0,0,.87662-.80318,2.88427,2.88427,0,0,1,.26265-.99485,3.01038,3.01038,0,0,1,.60391-.84919L7.3138,14.10968a.21994.21994,0,0,1,.31018,0l2.58172,2.58081v.00087h0a3.02744,3.02744,0,0,1,.60361.84832,2.87762,2.87762,0,0,1,.26265.99485.87545.87545,0,0,0,.87571.80318h1.67219a.83465.83465,0,0,0,.64536-.28062h.00061a.87185.87185,0,0,0,.18769-.30653.89282.89282,0,0,0,.043-.35863,6.554,6.554,0,0,0-.589-2.288A6.84024,6.84024,0,0,0,12.51868,14.14777Z" style="fill:#a1afba;fill-rule:evenodd"/></g></svg>