<svg xmlns="http://www.w3.org/2000/svg" viewBox="0 0 11.98932 19.87261"><title>merge-lanes-icon-uc-santa-barbara</title><g id="ICONS"><path d="M2.34436,18.55448V6.79247H.21938a.21931.21931,0,0,1-.17093-.3568L4.31516.097a.21967.21967,0,0,1,.36472.00092L8.957,6.45121a.21868.21868,0,0,1-.18221.34035v.00091h-2.118V9.21514l3.20514,3.20361a7.039,7.039,0,0,1,2.12741,5.13754v.90343a1.31216,1.31216,0,0,1-.387.92991l-.00091.00095a1.31182,1.31182,0,0,1-.93025.387H8.99412A1.32121,1.32121,0,0,1,7.676,18.45972V17.39385a2.54762,2.54762,0,0,0-.18647-.98293l-.00366-.01039a2.54375,2.54375,0,0,0-.55882-.81809v.00092L6.65677,15.314v3.24048a1.31452,1.31452,0,0,1-.386.93117l-.00092.00091a1.31618,1.31618,0,0,1-.93116.38605H3.66218a1.31963,1.31963,0,0,1-1.31782-1.31813Zm.43938-7.83108v7.83108a.8822.8822,0,0,0,.87844.87937H5.33864a.8741.8741,0,0,0,.621-.25751l.00091-.00088a.87419.87419,0,0,0,.25747-.621v-3.771h0a.21532.21532,0,0,1,.06491-.1554.219.219,0,0,1,.30988,0l.64535.64444-.00092.00092.00092.00061a2.96858,2.96858,0,0,1,.65114.95706l.00518.01127a2.99036,2.99036,0,0,1,.22121,1.15143v1.06587a.88109.88109,0,0,0,.87845.87811h1.67707a.878.878,0,0,0,.62128-.25713v-.00091a.872.872,0,0,0,.25717-.62007v-.90343a6.57945,6.57945,0,0,0-1.99853-4.82644L6.28626,9.465l-.00335-.00366A.2171.2171,0,0,1,6.218,9.30594V6.57309a.2204.2204,0,0,1,.21939-.2203h1.926L4.49737.611.63164,6.35279H2.56435a.2204.2204,0,0,1,.21939.2203Z" style="fill:#a1afba;fill-rule:evenodd"/></g></svg>