<svg xmlns="http://www.w3.org/2000/svg" viewBox="0 0 21.39485 17.38308"><title>opposite-arrows-icon-UC-Santa-Barbara</title><g id="ICONS"><path d="M4.59779,14.60025H14.82168a.22042.22042,0,0,1,.2203.21939v1.9321l5.74207-3.866L15.042,9.01968V10.946a.22114.22114,0,0,1-.2203.22H4.59779a.87361.87361,0,0,0-.62006.25655l-.00091.00092a.87651.87651,0,0,0-.25747.62094v1.67649a.88224.88224,0,0,0,.87844.87936ZM16.79705,6.64973H6.79255V8.7744a.21957.21957,0,0,1-.35681.17121L.09708,4.67863a.21926.21926,0,0,1-.06064-.30318A.21483.21483,0,0,1,.098,4.31512L6.45128.03714a.21867.21867,0,0,1,.34035.18129h.00092V2.33731h10.0045a1.3207,1.3207,0,0,1,1.31783,1.31783V5.3316a1.31448,1.31448,0,0,1-.38667.93025l-.00091.00091a1.31208,1.31208,0,0,1-.93025.387ZM6.57316,6.21005H16.79705a.8777.8777,0,0,0,.62007-.25659l.00091-.00058a.87834.87834,0,0,0,.25747-.62128V3.65514a.88167.88167,0,0,0-.87845-.87906H6.57316a.22.22,0,0,1-.2203-.21938V.6313L.61111,4.49733,6.35286,8.36244V6.43034a.22061.22061,0,0,1,.2203-.22029Zm8.02914,8.829H4.59779A1.3191,1.3191,0,0,1,3.28,13.72089V12.0444a1.31455,1.31455,0,0,1,.38514-.92839l.00152-.00182v-.00061l.00092-.00092a1.31529,1.31529,0,0,1,.93024-.386H14.6023v-2.118h.00092a.21538.21538,0,0,1,.03717-.12188.21782.21782,0,0,1,.30317-.06033l6.3533,4.27707a.23068.23068,0,0,1,.06155.06124.21942.21942,0,0,1-.06064.30318l-6.33867,4.267a.21959.21959,0,0,1-.3568-.17124Z" style="fill:#a1afba;fill-rule:evenodd"/></g></svg>