<svg xmlns="http://www.w3.org/2000/svg" viewBox="0 0 14.86599 19.87364"><title>perpendicular-arrow-icon-uc-santa-barbara</title><g id="ICONS"><path d="M12.08317,18.55551V6.5732a.21983.21983,0,0,1,.22029-.21938h1.93119L10.36954.61115l-3.866,5.74267H8.42982a.22043.22043,0,0,1,.2203.21938v4.51717a.22121.22121,0,0,1-.2203.2203h-7.112a.88212.88212,0,0,0-.6219.25656v.00091a.87473.87473,0,0,0-.25716.621v1.67646a.87853.87853,0,0,0,.87906.87845H7.72657l.0131.00091.01372-.00091h.00518v-.00092a.867.867,0,0,1,.61854.26509.94094.94094,0,0,1,.27026.61336l.00092.01219v.03352h.00183v2.88824a.87957.87957,0,0,0,.87753.87845h1.67646a.87528.87528,0,0,0,.621-.25747l.00091-.00061a.87592.87592,0,0,0,.25717-.62037Zm.43876-11.76292V18.55551a1.3126,1.3126,0,0,1-.386.93025l-.00091.00092a1.31125,1.31125,0,0,1-.93086.387H9.52765a1.32119,1.32119,0,0,1-1.31813-1.31813V15.66727h.00183l-.00091-.02164-.00092-.00338a.501.501,0,0,0-.14443-.3263.43087.43087,0,0,0-.30652-.13316v-.00091l-.007.00091-.01615.00092H1.31783A1.31963,1.31963,0,0,1,0,13.86558V12.18912a1.31227,1.31227,0,0,1,.38423-.92845L.38605,11.258H.38666v-.00061a1.31667,1.31667,0,0,1,.93117-.387H8.20952V6.79259h-2.118A.218.218,0,0,1,5.97,6.75541a.22019.22019,0,0,1-.06064-.30378L10.18733.098a.21947.21947,0,0,1,.36442-.00091l4.267,6.339a.22346.22346,0,0,1,.04723.13711.21828.21828,0,0,1-.21847.21939Z" style="fill:#a1afba;fill-rule:evenodd"/></g></svg>