<svg xmlns="http://www.w3.org/2000/svg" viewBox="0 0 20.51512 17.58269"><title>refresh-arrow-Icon-UC-Santa-Barbara</title><g id="ICONS"><path d="M6.34659,17.58269a3.91074,3.91074,0,0,1-2.78282-1.15728A4.21187,4.21187,0,0,1,2.345,13.58716v-.007H2.34436v-1.4068H.2203a.21932.21932,0,0,1-.17185-.35681L4.31516,5.47789a.2193.2193,0,0,1,.30409-.05972.24259.24259,0,0,1,.06063.06033L8.957,11.83209a.21929.21929,0,0,1-.1816.34035v.00092H6.65677v.613l-.00091.02438v.00762h.00091a.42969.42969,0,0,0,.13224.30683.50277.50277,0,0,0,.32633.14412H7.119l.02133.00092v-.00092h9.7126a1.32119,1.32119,0,0,1,1.31813,1.31871v1.67679a1.31376,1.31376,0,0,1-.38605.93l-.00091.00091a1.31559,1.31559,0,0,1-.93117.387ZM14.16945,0H3.66218a1.31408,1.31408,0,0,0-.92842.38453L2.73194.387H2.73133V.38788a1.31121,1.31121,0,0,0-.387.93025V2.99459A1.32121,1.32121,0,0,0,3.66218,4.31272h9.71261V4.3118l.02255.00092h.00335a.502.502,0,0,1,.32572.14409.43469.43469,0,0,1,.13285.30656h0v.00792l-.00091.025v.61244H11.74068v.00092a.21538.21538,0,0,0-.12188.03717.21908.21908,0,0,0-.06033.30318l4.278,6.3542a.19637.19637,0,0,0,.06033.06033.21856.21856,0,0,0,.30409-.06033l4.26671-6.33806a.22377.22377,0,0,0,.04753-.13711.2204.2204,0,0,0-.21938-.2203H18.17106V4.00162h-.00091v-.0067a4.21319,4.21319,0,0,0-1.2188-2.83828v.00091l-.00091-.00091A3.90711,3.90711,0,0,0,14.16945,0Zm2.472,1.46743a3.47611,3.47611,0,0,0-2.472-1.02775H3.66218a.87993.87993,0,0,0-.621.25656V.69807a.86952.86952,0,0,0-.25747.62006V2.99459a.88062.88062,0,0,0,.87844.87936h9.71261l.00518.00088.02834.00064h.0131a.94452.94452,0,0,1,.61244.26966.86649.86649,0,0,1,.26418.61824h0l-.00092.00609v.0131l.00092.01372V5.629a.21983.21983,0,0,1-.2203.21938h-1.926l3.867,5.74268L19.88378,5.8484h-1.9321a.21983.21983,0,0,1-.2203-.21938V4.00162h.00092a3.77153,3.77153,0,0,0-1.09174-2.53419ZM3.874,16.11434A3.47651,3.47651,0,0,0,6.34659,17.143H16.85293a.87724.87724,0,0,0,.621-.25656l.00092-.00152a.874.874,0,0,0,.25655-.62007V14.58807a.879.879,0,0,0-.87845-.879H7.14033v-.00091H7.13515l-.02742-.00091h-.0131a.9447.9447,0,0,1-.61245-.26936.86817.86817,0,0,1-.26509-.61945H6.218V11.954a.22042.22042,0,0,1,.21939-.22029h1.926L4.49676,5.99161.63164,11.73368H2.56435a.22042.22042,0,0,1,.21939.22029v1.62619H2.78313A3.76973,3.76973,0,0,0,3.874,16.11434Z" style="fill:#a1afba;fill-rule:evenodd"/></g></svg>