<svg xmlns="http://www.w3.org/2000/svg" viewBox="0 0 15.667 16.11269"><title>reload-icon-uc-santa-barbara</title><g id="ICONS"><path d="M5.12017,15.275a5.42048,5.42048,0,0,1-1.77061-2.54972,5.51692,5.51692,0,0,1-.27545-2.28281A4.4643,4.4643,0,0,1,3.8514,8.28519C4.74691,7.00942,6.42947,6.123,9.10107,6.21137a.2183.2183,0,0,1,.21146.21851h.00092V8.362l5.743-3.86512-5.743-3.866V2.36336a.21983.21983,0,0,1-.21939.22029H6.94867A6.44837,6.44837,0,0,0,2.35533,4.51484,6.60647,6.60647,0,0,0,.43968,9.16334a6.11845,6.11845,0,0,0,1.869,4.34471A7.60225,7.60225,0,0,0,5.12017,15.275Zm-1.3553-2.68867A4.52058,4.52058,0,0,0,6.98067,15.676a.21954.21954,0,0,1-.04936.436,7.992,7.992,0,0,1-4.93339-2.29408A6.54854,6.54854,0,0,1,0,9.16334,7.04,7.04,0,0,1,2.04545,4.20645,6.88318,6.88318,0,0,1,6.94867,2.144h1.926V.21888h.00091A.21889.21889,0,0,1,8.91185.097.22015.22015,0,0,1,9.21594.03667l6.3536,4.27707a.24512.24512,0,0,1,.06033.06124.2193.2193,0,0,1-.05972.30409L9.23148,8.94578a.21931.21931,0,0,1-.3568-.17188V6.64405c-2.377-.03047-3.87121.76361-4.66495,1.894a4.03682,4.03682,0,0,0-.7005,1.94517A5.08576,5.08576,0,0,0,3.76487,12.58633Z" style="fill:#a1afba;fill-rule:evenodd"/></g></svg>