<svg xmlns="http://www.w3.org/2000/svg" viewBox="0 0 17.10215 16.23771"><title>right-turn-icon-uc-santa-barbara</title><g id="ICONS"><path d="M0,6.34659A3.91406,3.91406,0,0,1,1.15725,3.56285,4.2102,4.2102,0,0,1,3.99553,2.345h.007V2.34405h6.30668V.21938A.21959.21959,0,0,1,10.666.04814l6.33866,4.267a.21736.21736,0,0,1-.0006.3635l-6.3536,4.27707a.21682.21682,0,0,1-.30318-.05942.21076.21076,0,0,1-.03717-.12188h-.00091v-2.118H4.79628L4.7719,6.65555l-.0067-.00064v.00064a.43549.43549,0,0,0-.30775.13316.5014.5014,0,0,0-.14412.3263V7.1187l-.00092.02163h.00092v7.77929A1.32121,1.32121,0,0,1,2.9952,16.23771H1.31813a1.31366,1.31366,0,0,1-.92964-.387H.387A1.31381,1.31381,0,0,1,0,14.91962v-8.573ZM1.46835,3.87365A3.47376,3.47376,0,0,0,.4406,6.34659v8.573a.87842.87842,0,0,0,.25716.621H.69685a.87867.87867,0,0,0,.62128.25747H2.9952a.87855.87855,0,0,0,.87845-.87844V7.14033h.00091V7.13424l.00091-.02773V7.09432a.94391.94391,0,0,1,.26936-.61214.8713.8713,0,0,1,.62037-.26539h.00518l.01279.00091.01311-.00091H10.5295a.22.22,0,0,1,.21939.22029v1.9254l5.74206-3.866L10.74889.63134v1.9321a.21964.21964,0,0,1-.21939.21938h-6.527A3.76739,3.76739,0,0,0,1.46835,3.87365Z" style="fill:#a1afba;fill-rule:evenodd"/></g></svg>