<svg xmlns="http://www.w3.org/2000/svg" viewBox="0 0 18.80144 18.35882"><title>split-arrow-icon-uc-santa-barbara</title><g id="ICONS"><path d="M11.09437,14.01959l.00457-.00365,3.118-3.118A6.4616,6.4616,0,0,0,15.64628,8.794a6.46562,6.46562,0,0,0,.47685-2.49945v-.0061a.21983.21983,0,0,1,.2203-.21938h1.82668L14.49756.61129,10.82228,6.06907h1.82179a.21905.21905,0,0,1,.21939.21938v.16149a2.84372,2.84372,0,0,1-.21268,1.1021V7.553h0a2.853,2.853,0,0,1-.6286.92933l-2.46593,2.465a.2194.2194,0,0,1-.3111,0l-2.46593-2.465a2.78875,2.78875,0,0,1-.841-2.03235V6.28845a.219.219,0,0,1,.21938-.21938H7.97821L4.30384.61129.63068,6.06907H2.45736a.21925.21925,0,0,1,.2203.21938v.0061A6.46531,6.46531,0,0,0,3.15421,8.794,6.47681,6.47681,0,0,0,4.58386,10.898L7.7052,14.01959a.2138.2138,0,0,1,.0649.1554h0v2.86479a.8801.8801,0,0,0,.87906.87936h1.50308a.87853.87853,0,0,0,.621-.25747h0a.87769.87769,0,0,0,.25747-.62189V14.175a.22292.22292,0,0,1,.06368-.1554Zm3.43336-2.81146-3.05766,3.05766v2.774a1.31318,1.31318,0,0,1-.38606.93116l-.00152.00091a1.31414,1.31414,0,0,1-.93025.387H8.64916a1.31965,1.31965,0,0,1-1.31783-1.319v-2.774L4.27367,11.20813A6.90218,6.90218,0,0,1,2.74926,8.96067a6.86575,6.86575,0,0,1-.50885-2.45283H.21934V6.50692a.21867.21867,0,0,1-.18221-.34035L4.12163.09818A.22077.22077,0,0,1,4.18226.03754a.21827.21827,0,0,1,.30379.05972L8.5611,6.151a.21527.21527,0,0,1,.04845.13742.21925.21925,0,0,1-.21939.21939H6.37762a2.32759,2.32759,0,0,0,.7127,1.66335l2.31053,2.3105,2.31023-2.3105a2.42378,2.42378,0,0,0,.53567-.78673h0a2.39557,2.39557,0,0,0,.17611-.87662H10.41124V6.50692a.22112.22112,0,0,1-.12249-.03717.21822.21822,0,0,1-.05972-.30318L14.31444.09818a.21149.21149,0,0,1,.06033-.06064.21863.21863,0,0,1,.30409.05972L18.75391,6.151a.22017.22017,0,0,1-.17185.35681h-2.022a6.82662,6.82662,0,0,1-.50884,2.45283A6.89475,6.89475,0,0,1,14.52773,11.20813Z" style="fill:#a1afba;fill-rule:evenodd"/></g></svg>