<svg xmlns="http://www.w3.org/2000/svg" viewBox="0 0 12.9479 15.96409"><title>T-icon-uc-santa-barbara</title><g id="ICONS"><path d="M1.31813,0h10.312A1.31963,1.31963,0,0,1,12.9479,1.31813V2.9955a1.31262,1.31262,0,0,1-.38605.93025L12.56,3.92666a1.31287,1.31287,0,0,1-.92994.387H8.63031V14.6463a1.30908,1.30908,0,0,1-.387.92994v.00183a1.31473,1.31473,0,0,1-.93116.386H5.63572A1.31958,1.31958,0,0,1,4.31759,14.6463V4.31363H1.31813A1.31963,1.31963,0,0,1,0,2.9955V1.31813A1.31566,1.31566,0,0,1,.38605.38785L.387.387h0L.38941.38453A1.31914,1.31914,0,0,1,1.31813,0ZM4.537.43965H1.31813a.87426.87426,0,0,0-.621.2575L.69624.69807a.87262.87262,0,0,0-.25747.62006V2.9955a.88062.88062,0,0,0,.87936.87845H4.537a.219.219,0,0,1,.21938.21938v10.553a.8801.8801,0,0,0,.87936.87814H7.31218a.87824.87824,0,0,0,.621-.25625l.00091-.00091a.88.88,0,0,0,.25656-.621V4.09333a.21983.21983,0,0,1,.2203-.21938h3.21915a.87693.87693,0,0,0,.621-.25747H12.252a.87765.87765,0,0,0,.25625-.621V1.31813a.88016.88016,0,0,0-.87814-.87848H4.537Z" style="fill:#a1afba;fill-rule:evenodd"/></g></svg>