<svg version="1.0" xmlns="http://www.w3.org/2000/svg" viewBox="0 0 18.23 18.23">
<title>three-way-Icon-UC-Santa-Barbara</title>
<path fill-rule="evenodd" clip-rule="evenodd" d="M10.365,7.673V4.925c0-0.108,0.088-0.195,0.195-0.195h1.377L9.125,0.553
	L6.313,4.73h1.371c0.107,0,0.194,0.087,0.194,0.195v2.748c0,0.107-0.087,0.193-0.194,0.193H4.935c-0.106,0-0.193-0.086-0.193-0.193
	V6.3L0.565,9.113l4.177,2.813v-1.379c0-0.104,0.087-0.191,0.193-0.191h2.749c0.107,0,0.194,0.088,0.194,0.191v6.497
	c0,0.214,0.089,0.408,0.228,0.55c0.14,0.139,0.336,0.227,0.55,0.227h0.934c0.214,0,0.408-0.088,0.549-0.225v-0.002
	c0.142-0.142,0.227-0.336,0.227-0.55v-6.497c0-0.104,0.088-0.191,0.195-0.191h2.753c0.106,0,0.195,0.088,0.195,0.191v1.379
	l4.177-2.813L13.509,6.3v1.373c0,0.107-0.089,0.193-0.195,0.193h-2.753C10.453,7.866,10.365,7.78,10.365,7.673 M10.755,5.118v2.36
	h2.365V5.936l0,0c0-0.036,0.012-0.075,0.03-0.107c0.062-0.088,0.181-0.113,0.27-0.052l4.719,3.175
	c0.019,0.013,0.036,0.032,0.053,0.054c0.059,0.087,0.035,0.208-0.053,0.268l-4.705,3.165c-0.031,0.027-0.076,0.043-0.12,0.043
	c-0.107,0-0.193-0.086-0.193-0.194v-1.545h-2.365v6.301c0,0.321-0.131,0.609-0.344,0.822l0,0c-0.209,0.211-0.5,0.343-0.822,0.343
	H8.655c-0.322,0-0.613-0.132-0.824-0.343c-0.212-0.21-0.341-0.501-0.341-0.822v-6.301H5.129v1.545c0,0.038-0.01,0.076-0.034,0.108
	c-0.059,0.088-0.178,0.113-0.268,0.053L0.111,9.274C0.091,9.26,0.071,9.243,0.058,9.221c-0.061-0.088-0.036-0.21,0.053-0.268
	l4.705-3.168c0.032-0.028,0.075-0.042,0.12-0.042c0.105,0,0.194,0.087,0.194,0.193v1.542H7.49v-2.36H5.947
	c-0.036,0-0.072-0.011-0.105-0.034C5.752,5.026,5.728,4.906,5.789,4.817L8.963,0.1c0.015-0.021,0.033-0.041,0.054-0.054
	C9.104-0.014,9.225,0.01,9.285,0.1l3.167,4.703c0.027,0.035,0.043,0.076,0.043,0.122c0,0.107-0.088,0.194-0.194,0.194H10.755z" style="fill:#a1afba;fill-rule:evenodd"/>
</svg>
