<svg xmlns="http://www.w3.org/2000/svg" viewBox="0 0 20.25174 18.92398"><title>three-arrows-in-circle-icon-UC-Santa-Barbara</title><g id="ICONS"><path d="M8.9554,5.45772a4.30843,4.30843,0,0,1,1.926-.46649,4.252,4.252,0,0,1,2.111.55547l.3955.22365a.22017.22017,0,0,1,.08227.29891l-.00609.00941L12.28058,8.12842l2.511-.2264.01554-.00182,3.80631-.34374,1.089-.09838L16.57258.69436,15.42965,2.6749a.21857.21857,0,0,1-.2986.081v.00092l-.39063-.22365A7.73385,7.73385,0,0,0,7.2116,2.43815l.259.44913.00091-.00091L8.9554,5.45772Zm-.38,7.36825L7.09155,15.3955l-.26021.45a7.81732,7.81732,0,0,1-2.64358-2.71792A7.71143,7.71143,0,0,1,3.14935,9.278l-.00153-.4491a.21853.21853,0,0,0-.21847-.21877L.642,8.60954,4.934,2.51768l.62951.89487,2.1981,3.11708.01219.01983,1.451,2.06069H6.8487a.21964.21964,0,0,0-.21847.21938l.00336.45431v.00091a4.24359,4.24359,0,0,0,.57618,2.10669A4.28955,4.28955,0,0,0,8.57544,12.826Zm-.98662-1.65391a3.84209,3.84209,0,0,0,1.39339,1.38882.21988.21988,0,0,1,.08014.29891l-1.59084,2.7551-.37143.64261a.22072.22072,0,0,1-.29982.08041,8.23165,8.23165,0,0,1-2.99185-2.99182A8.14041,8.14041,0,0,1,2.71241,9.278L2.71149,9.0483.23276,9.04739a.21656.21656,0,0,1-.13986-.039.21935.21935,0,0,1-.05271-.30561l4.714-6.69121A.22385.22385,0,0,1,4.80783,1.958a.218.218,0,0,1,.305.05362l.80989,1.14781,2.2042,3.12743.00091.00183a.21252.21252,0,0,1,.01981.03017l1.6792,2.384v.00091a.21631.21631,0,0,1,.03961.12523A.21905.21905,0,0,1,9.648,9.0483H7.06992l.00152.2331h0a3.81509,3.81509,0,0,0,.51738,1.89066ZM15.14659,9.4697a4.28918,4.28918,0,0,1-.55882,1.901,4.23247,4.23247,0,0,1-1.5366,1.55123l-.39215.23066a.21958.21958,0,0,1-.29982-.0777V13.074h-.00092l-1.18741-2.05734-1.05914,2.28525-.01036.02163-1.60119,3.4617-.45949.99332,7.42187.67125L14.319,16.46835a.21943.21943,0,0,1,.07953-.29983l.38849-.22517A7.73775,7.73775,0,0,0,18.63418,9.4697H15.14659Zm-.94,1.68256A3.79268,3.79268,0,0,1,12.83,12.5444l-.202.11856-1.28888-2.23284a.219.219,0,0,0-.38849.01828h-.00091L9.72415,13.09715l-.01127.02072-1.611,3.48363L7.512,17.877a.22.22,0,0,0,.10726.29129.22782.22782,0,0,0,.08714.0198l8.137.73494a.21715.21715,0,0,0,.23766-.19775.21405.21405,0,0,0-.02864-.12953h.00091l-1.24561-2.15755.19867-.11578a8.17846,8.17846,0,0,0,4.06834-7.07117.21832.21832,0,0,0-.21877-.21846H14.933a.219.219,0,0,0-.21938.21846,3.828,3.828,0,0,1-.507,1.901ZM10.8814,5.42908a3.84141,3.84141,0,0,0-1.88974.507l-.00945.0061a.21971.21971,0,0,1-.29982-.08014L7.09155,3.10666h.00091l-.00091-.00091L6.721,2.46405a.21974.21974,0,0,1,.08105-.29891,8.17766,8.17766,0,0,1,8.15681-.0128l.20049.11488L16.398.12244a.219.219,0,0,1,.3955.00457L20.232,7.55646h-.00091a.21211.21211,0,0,1,.01981.071.21987.21987,0,0,1-.19867.23828l-1.39918.12706-3.80448.34461-.01919.00244-.02834.00091-2.90135.26174h0a.21943.21943,0,0,1-.209-.32664l1.28858-2.23345-.20293-.11487A3.809,3.809,0,0,0,10.8814,5.42908Z" style="fill:#a1afba;fill-rule:evenodd"/></g></svg>