<svg xmlns="http://www.w3.org/2000/svg" viewBox="0 0 22.49537 19.79903"><title>three-way-junction-Icon-UC-Santa-Barbara</title><g id="ICONS"><path d="M9.63643,14.04234l-.00426-.00426L5.35053,9.75583A2.23872,2.23872,0,0,1,4.6744,8.12325V7.675a.21964.21964,0,0,1,.21938-.21938H6.23934L3.43488,3.2901.63043,7.45565H1.98207a.21885.21885,0,0,1,.21847.21938v.32664a4.896,4.896,0,0,0,1.48755,3.59025l5.647,5.64608a2.32149,2.32149,0,0,1,.44821.6204,2.23081,2.23081,0,0,1,.21146.72457.87256.87256,0,0,0,.87235.77729h.76023a.87434.87434,0,0,0,.87327-.77729,2.19277,2.19277,0,0,1,.21146-.72457,2.32149,2.32149,0,0,1,.44821-.6204l5.64609-5.64608a4.89595,4.89595,0,0,0,1.48754-3.59025V7.675a.21964.21964,0,0,1,.21938-.21938H21.864L19.06049,3.2901,16.256,7.45565h1.34556A.21964.21964,0,0,1,17.821,7.675v.44822a2.23872,2.23872,0,0,1-.67613,1.63258l-4.2859,4.28651a.22113.22113,0,0,1-.31019,0,.2163.2163,0,0,1-.06459-.1554h0V4.99672a.21982.21982,0,0,1,.21938-.22029h1.34555L11.24555.61088,8.4411,4.77643H9.79092a.22.22,0,0,1,.22029.22029v8.89022a.21976.21976,0,0,1-.37478.1554ZM5.66071,9.44564l3.91082,3.91082V5.21611H8.02914V5.21519a.21947.21947,0,0,1-.18221-.34126L11.06243.09776a.2112.2112,0,0,1,.06033-.06063.21946.21946,0,0,1,.30409.05972L14.63229,4.8593a.21653.21653,0,0,1,.04814.13742.21964.21964,0,0,1-.21938.21939H12.92292v8.14035l3.91082-3.91082a1.7908,1.7908,0,0,0,.54755-1.32239V7.89442H15.84316V7.8935a.2144.2144,0,0,1-.121-.0372.21759.21759,0,0,1-.06064-.30315l3.21672-4.77708a.196.196,0,0,1,.06033-.06033.2181.2181,0,0,1,.30317.06033l3.20514,4.76154a.21932.21932,0,0,1-.17094.35681H20.73329v.10725a5.34148,5.34148,0,0,1-1.61582,3.90046l-5.64609,5.64608a1.91665,1.91665,0,0,0-.36625.50276,1.761,1.761,0,0,0-.1685.582A1.31336,1.31336,0,0,1,11.62734,19.799h-.76023a1.31338,1.31338,0,0,1-1.30838-1.16609,1.7827,1.7827,0,0,0-.16849-.582,1.896,1.896,0,0,0-.36625-.50276L3.3779,11.90213A5.35294,5.35294,0,0,1,1.76178,8.00167V7.89442H.21939V7.8935a.21514.21514,0,0,1-.12188-.0372.21752.21752,0,0,1-.06033-.30315L3.25267,2.77607a.20412.20412,0,0,1,.06064-.06033.219.219,0,0,1,.30378.06033L6.82345,7.53761a.2251.2251,0,0,1,.04723.13742.21848.21848,0,0,1-.21939.21939H5.11317v.22883a1.8853,1.8853,0,0,0,.1365.7197A1.86637,1.86637,0,0,0,5.66071,9.44564Z" style="fill:#a1afba;fill-rule:evenodd"/></g></svg>