<svg xmlns="http://www.w3.org/2000/svg" viewBox="0 0 21.07917 17.40104"><title>triple-arrow-icon-uc-santa-barbara</title><g id="ICONS"><path d="M8.67439,10.30556,5.43452,11.64532a.2195.2195,0,0,1-.28581-.11856L4.411,9.74064l-3.82977,5.768,6.78535,1.37754-.73676-1.781a.2199.2199,0,0,1,.11914-.28581l3.70789-1.53385a.22047.22047,0,0,1,.16606,0h0l3.707,1.53385a.21981.21981,0,0,1,.12005.28581l-.73767,1.781,6.78535-1.37754-3.82885-5.768-.7386,1.78612a.21885.21885,0,0,1-.2858.11856L12.39691,10.3022a.219.219,0,0,1-.13559-.20293H12.2604V6.57359a.21983.21983,0,0,1,.21939-.22029h1.926L10.53976.61123,6.67465,6.3533h1.9321a.21982.21982,0,0,1,.21938.22029v3.522a.22.22,0,0,1-.15174.20994Zm-3.20452.85163,2.9175-1.20752V6.793H6.2627V6.79206a.216.216,0,0,1-.12158-.03717A.21866.21866,0,0,1,6.0814,6.4508L10.35755.09812a.22818.22818,0,0,1,.05972-.06125.22083.22083,0,0,1,.305.06034l4.26671,6.339a.21256.21256,0,0,1,.04814.13741.21927.21927,0,0,1-.21938.21939H12.70008V9.95332l2.909,1.20387.80928-1.95556a.22364.22364,0,0,1,.08471-.10786.21982.21982,0,0,1,.30409.06215l4.23563,6.381h0a.21217.21217,0,0,1,.032.07861.218.218,0,0,1-.17124.25748l-7.49774,1.52106a.21677.21677,0,0,1-.13559-.00945.219.219,0,0,1-.11914-.28581l.80989-1.95833-3.42117-1.41561L7.1186,15.1405l.81019,1.95833H7.92788a.21566.21566,0,0,1,.0131.12581.2188.2188,0,0,1-.25838.17188L.18912,15.87577A.2118.2118,0,0,1,.09771,15.841a.22055.22055,0,0,1-.06155-.30409l4.23654-6.381h0a.2185.2185,0,0,1,.38514.03809Z" style="fill:#a1afba;fill-rule:evenodd"/></g></svg>