<svg xmlns="http://www.w3.org/2000/svg" viewBox="0 0 19.44539 19.87364"><title>turn-right-arrow-icon-uc-santa-barbara</title><g id="ICONS"><path d="M2.34405,18.55551V6.79259H.21938A.21847.21847,0,0,1,0,6.5732a.2237.2237,0,0,1,.04753-.13711L4.31516.09712A.21767.21767,0,0,1,4.61833.0374.20079.20079,0,0,1,4.67866.098l4.278,6.3536a.21848.21848,0,0,1-.06033.30378.21534.21534,0,0,1-.12188.03718H6.65677v4.07779h5.99588V8.74632a.2191.2191,0,0,1,.3565-.17094l6.339,4.2658a.21944.21944,0,0,1,.06033.30409.22165.22165,0,0,1-.06124.06033l-6.35269,4.278a.219.219,0,0,1-.341-.18221h-.00091V15.18371H7.13942l-.025-.00092-.00609-.00091v.00091a.43247.43247,0,0,0-.30745.13316.49929.49929,0,0,0-.14412.3263v.00338l-.00091.02164h.00091v2.88824a1.31466,1.31466,0,0,1-.387.93025l-.00091.00092a1.31089,1.31089,0,0,1-.93025.387H3.66218a1.31963,1.31963,0,0,1-1.31813-1.31813ZM2.78282,6.5732V18.55551a.88168.88168,0,0,0,.87936.87845H5.33864a.87634.87634,0,0,0,.621-.25747l.00091-.00061a.87794.87794,0,0,0,.25656-.62037V15.66727H6.218v-.0061l.00061-.02742v-.0131a.94544.94544,0,0,1,.27058-.61245.86623.86623,0,0,1,.61915-.26509V14.744h.00518l.0131.00091.0128-.00091H12.872a.21945.21945,0,0,1,.21939.2203v1.92509l5.74267-3.866L13.09142,9.15824v1.93213a.21925.21925,0,0,1-.21939.21939H6.43647a.21964.21964,0,0,1-.21938-.21939V6.5732a.21964.21964,0,0,1,.21938-.21938H8.36339L4.49645.61115.63134,6.35382h1.9321A.21964.21964,0,0,1,2.78282,6.5732Z" style="fill:#a1afba;fill-rule:evenodd"/></g></svg>