<svg xmlns="http://www.w3.org/2000/svg" viewBox="0 0 19.80793 19.87676"><title>two-lanes-beginning-Icon-UC-Santa-Barbara</title><g id="ICONS"><path d="M9.52664,12.26658,7.09513,9.83416a2.98542,2.98542,0,0,1-.65723-.96985h0a2.98706,2.98706,0,0,1-.22121-1.15055V6.573A.22.22,0,0,1,6.437,6.35358h1.9254L4.49635.61152.63032,6.35358h1.933a.21964.21964,0,0,1,.21938.21939v.97839a6.79969,6.79969,0,0,0,.5,2.62072,6.79451,6.79451,0,0,0,1.49852,2.2048L7.21366,14.8093a2.91033,2.91033,0,0,1,.87815,2.1204v1.62893a.88219.88219,0,0,0,.87845.87936h1.67645a.8771.8771,0,0,0,.621-.25747l.00091-.00091a.87529.87529,0,0,0,.25748-.621V17.09211a6.79505,6.79505,0,0,0-.5-2.62072,6.75922,6.75922,0,0,0-1.49942-2.20481Zm3.632,6.2887V6.793h-2.125a.21979.21979,0,0,1-.21938-.22.21466.21466,0,0,1,.04753-.13651L15.12945.09658a.21839.21839,0,0,1,.30318-.05942.20734.20734,0,0,1,.06063.06124l4.278,6.35269a.21964.21964,0,0,1-.18252.34126V6.793H17.47107V18.55528a1.31575,1.31575,0,0,1-.387.93024l-.00091.00061a1.30962,1.30962,0,0,1-.93025.387H14.47648a1.31963,1.31963,0,0,1-1.31782-1.31782ZM13.59742,6.573a.22.22,0,0,0-.22029-.21939H11.44564L15.31075.61152l3.86694,5.74206H17.25077a.21964.21964,0,0,0-.21938.21939V18.55528a.87778.87778,0,0,1-.25656.62006l-.00152.00183a.879.879,0,0,1-.62037.25625H14.47648a.88115.88115,0,0,1-.87906-.87814V6.573ZM7.40623,9.52337l2.4312,2.43211a7.02546,7.02546,0,0,1,2.12741,5.13663v1.46652a1.31558,1.31558,0,0,1-.38605.93116l-.00092.00091a1.3144,1.3144,0,0,1-.93116.38606H8.97026a1.31965,1.31965,0,0,1-1.31783-1.31813V16.9297a2.456,2.456,0,0,0-.74895-1.80961L4.47137,12.688A7.03105,7.03105,0,0,1,2.343,7.55136V6.793H.21928V6.79235a.21944.21944,0,0,1-.18221-.34126L4.31323.0984A.2095.2095,0,0,1,4.37447.03716a.21839.21839,0,0,1,.30318.05942L8.94527,6.43646a.21029.21029,0,0,1,.04845.13651.21979.21979,0,0,1-.21939.22h-2.118v.9208a2.53868,2.53868,0,0,0,.18678.98205h0v.00091A2.52833,2.52833,0,0,0,7.40623,9.52337Z" style="fill:#a1afba;fill-rule:evenodd"/></g></svg>