<svg xmlns="http://www.w3.org/2000/svg" viewBox="0 0 15.81008 16.79135"><title>two-rotating-arrows-icon-UC-Santa-Barbara</title><g id="ICONS"><path d="M15.721,10.5225a4.21946,4.21946,0,0,1-1.21758,2.83644,3.84039,3.84039,0,0,1-2.76576,1.13928L6.793,14.455v2.117a.21935.21935,0,0,1-.3568.171l-6.339-4.26762a.21883.21883,0,0,1-.06033-.30321.2093.2093,0,0,1,.06124-.06122L6.4517,7.83474a.21905.21905,0,0,1,.34035.18221H6.793v2.12376h3.81332a8.69184,8.69184,0,0,0,2.97783-.6591,3.75966,3.75966,0,0,0,1.80443-1.26782.21913.21913,0,0,1,.29982-.07953.21589.21589,0,0,1,.10787.20811L15.721,10.5225ZM.08957,6.26858.01279,8.4478a.21948.21948,0,0,0,.4083.12949A3.75945,3.75945,0,0,1,2.22643,7.30944a8.68638,8.68638,0,0,1,2.97722-.65907H9.017V8.77443h.00091a.21581.21581,0,0,0,.03717.12158.21846.21846,0,0,0,.30318.06063l6.3542-4.27615a.22309.22309,0,0,0,.06034-.06155.21735.21735,0,0,0-.06034-.30318L9.37377.04723A.22044.22044,0,0,0,9.017.21938V2.33613l-4.94406-.043a3.83414,3.83414,0,0,0-2.76545,1.139A4.21546,4.21546,0,0,0,.08957,6.26858ZM1.61734,3.74232A3.7797,3.7797,0,0,0,.52651,6.2826L.47228,7.84144a5.51362,5.51362,0,0,1,1.58748-.937,9.16563,9.16563,0,0,1,3.14389-.69441h4.0327a.22061.22061,0,0,1,.2203.2203V8.36309l5.74176-3.86572L9.45665.63134V2.55643H9.45573v.00183a.219.219,0,0,1-.22029.21755L4.06956,2.731a3.40454,3.40454,0,0,0-2.45222,1.0113Zm12.575,9.30583a3.77539,3.77539,0,0,0,1.09082-2.53937l.05363-1.55914a5.46223,5.46223,0,0,1-1.58657.93634,9.16563,9.16563,0,0,1-3.14389.69441H6.57358A.21905.21905,0,0,1,6.3542,10.361V8.428l-5.743,3.866L6.3542,16.16V14.234h0v-.00091a.21905.21905,0,0,1,.2209-.21786l5.16527.04509A3.40059,3.40059,0,0,0,14.19229,13.04815Z" style="fill:#a1afba;fill-rule:evenodd"/></g></svg>