<svg xmlns="http://www.w3.org/2000/svg" viewBox="0 0 18.23 18.23">
<title>bar-graph-1-icon-uc-santa-barbara</title>
<path style="fill:#a1afba;fill-rule:evenodd" fill-rule="evenodd" clip-rule="evenodd" d="M11.273,15.556V5.216V5.211c-0.003-0.087-0.039-0.168-0.098-0.227
	c-0.06-0.06-0.14-0.096-0.23-0.096H7.304c-0.088,0-0.171,0.036-0.23,0.096L7.066,4.992C7.011,5.051,6.978,5.129,6.978,5.216v4.212
	v0.01v6.119H11.273z M0.218,15.556h1.595V9.438c0-0.21,0.086-0.401,0.223-0.541V8.9l0.001-0.003
	c0.139-0.136,0.328-0.222,0.539-0.222h3.64c0.116,0,0.227,0.027,0.326,0.075V5.216c0-0.204,0.082-0.388,0.21-0.526
	c0.004-0.004,0.009-0.008,0.014-0.015c0.139-0.137,0.33-0.223,0.538-0.223h3.641c0.116,0,0.228,0.027,0.328,0.074V0.991
	c0-0.209,0.085-0.4,0.222-0.538c0.14-0.137,0.329-0.225,0.54-0.225h3.64c0.21,0,0.399,0.088,0.539,0.225
	c0.14,0.138,0.225,0.329,0.225,0.538v14.565h1.594c0.12,0,0.218,0.096,0.218,0.217v2.012c0,0.121-0.098,0.217-0.218,0.217H0.218
	C0.099,18.002,0,17.906,0,17.785v-2.012C0,15.652,0.099,15.556,0.218,15.556 M17.815,15.992H16.22h-4.725h-0.006H6.761H6.754H2.03
	H0.436v1.574h17.379V15.992z M16.001,15.556V0.991c0-0.088-0.035-0.17-0.095-0.23c-0.06-0.06-0.141-0.096-0.231-0.096h-3.64
	c-0.09,0-0.171,0.037-0.231,0.096c-0.06,0.06-0.097,0.142-0.097,0.23v4.224v10.341H16.001z M6.542,9.429
	C6.541,9.344,6.505,9.264,6.446,9.206L6.439,9.198C6.381,9.144,6.301,9.111,6.216,9.111h-3.64c-0.091,0-0.172,0.039-0.232,0.096
	h0.001C2.285,9.267,2.249,9.349,2.249,9.438v6.119h4.294V9.429z"/>
</svg>
