<svg xmlns="http://www.w3.org/2000/svg" viewBox="0 0 17.77052 16.2843"><title>book-series</title><g id="ICONS"><path d="M4.50255.88082H.76967a.33.33,0,0,0-.2334.0969L.52774.98533a.32755.32755,0,0,0-.08806.22457V15.51554a.32888.32888,0,0,0,.096.2334.333.333,0,0,0,.234.09568H4.50255a.33273.33273,0,0,0,.23309-.09568H4.735a.3325.3325,0,0,0,.09659-.2334V1.2099A.33032.33032,0,0,0,4.50255.88082ZM14.55367,10.97247a1.13285,1.13285,0,1,0,.84036.2203,1.13511,1.13511,0,0,0-.84036-.2203Zm-1.09783.17368a1.57107,1.57107,0,1,1-.305,1.16243,1.56686,1.56686,0,0,1,.305-1.16243Zm-.96316-5.58246a.219.219,0,0,1-.05844-.43414l2.58928-.355a.21911.21911,0,0,1,.0588.43425l-2.58964.35492ZM14.742,2.71877a.21917.21917,0,0,1,.05789.4345l-2.58964.355a.21915.21915,0,0,1-.05759-.43451l2.58934-.355ZM15.01042.44114l.00091-.00091A.33581.33581,0,0,1,15.25661.506V.50513a.33344.33344,0,0,1,.128.21511V.72268L17.328,14.89274l.00091.00182a.33527.33527,0,0,1-.0649.24529h.00092a.32927.32927,0,0,1-.216.12706H17.047l-3.69753.507-.00092.00091a.3357.3357,0,0,1-.24528-.0649v.00091a.331.331,0,0,1-.1267-.216l-.001-.00152-1.94429-14.171V1.3205a.33025.33025,0,0,1,.06582-.24528h-.00092a.33091.33091,0,0,1,.21512-.12706l.00158-.00091L15.01042.44114ZM11.269.51213,14.937.00847a.16106.16106,0,0,1,.02255-.00336.77981.77981,0,0,1,.56156.15017v.001h0a.76566.76566,0,0,1,.29434.48691.29383.29383,0,0,1,.00518.03565l1.94,14.14141c.00244.01036.00336.02158.00518.03376a.77137.77137,0,0,1-.152.55035v-.00092l-.00092.00092a.76723.76723,0,0,1-.48721.29434l-.03535.00518-3.66645.50275-.03443.00427a.76673.76673,0,0,1-.55028-.15113H12.84l-.00091-.00092a.76669.76669,0,0,1-.29373-.4863.1823.1823,0,0,1-.00518-.03626L10.59958,1.3954a.14691.14691,0,0,1-.00426-.03351.76319.76319,0,0,1,.15113-.55115V.81165l.00091-.00091a.76521.76521,0,0,1,.486-.29343A.20561.20561,0,0,1,11.269.51213ZM7.44777,11.25219a1.13391,1.13391,0,1,0,.80167.33181,1.12961,1.12961,0,0,0-.80167-.33181Zm-1.11154.02157a1.57244,1.57244,0,1,1-.4604,1.11191,1.56663,1.56663,0,0,1,.4604-1.11191ZM6.14183,5.614a.21984.21984,0,1,1,0-.43968H8.75554a.21984.21984,0,0,1,0,.43968ZM8.75554,3.10056a.21939.21939,0,1,1,0,.43877H6.14183a.21939.21939,0,1,1,0-.43877ZM9.33417.88082a.33032.33032,0,0,1,.32907.32908V15.51554a.3325.3325,0,0,1-.09659.2334h.00061a.33271.33271,0,0,1-.23309.09568H5.60038a.32823.32823,0,0,1-.32908-.32908V1.2099A.33038.33038,0,0,1,5.35936.98533L5.36789.97772a.32931.32931,0,0,1,.23249-.0969ZM5.60038.44114H9.33417a.76982.76982,0,0,1,.76875.76876V15.51554a.76722.76722,0,0,1-.22547.54328H9.87653a.76539.76539,0,0,1-.54236.22548H5.60038a.76552.76552,0,0,1-.54237-.22548l-.00091-.00091-.00518-.00518-.007.00609h0a.76539.76539,0,0,1-.54236.22548H.76967a.76756.76756,0,0,1-.54328-.22548v-.00091A.7637.7637,0,0,1,0,15.51554V1.2099A.76654.76654,0,0,1,.21238.68124l.014-.01462A.76558.76558,0,0,1,.76967.44114H4.50255a.76343.76343,0,0,1,.54236.22548l.007.00609L5.0571.66662A.76718.76718,0,0,1,5.60038.44114ZM2.61615,11.25219a1.13246,1.13246,0,1,1-.80069.33181,1.13016,1.13016,0,0,1,.80069-.33181Zm-1.11149.02157a1.57232,1.57232,0,1,1-.46045,1.11191,1.5674,1.5674,0,0,1,.46045-1.11191ZM1.31021,5.614a.21984.21984,0,1,1,0-.43968H3.924a.21984.21984,0,0,1,0,.43968ZM3.924,3.10056a.21939.21939,0,0,1,0,.43877H1.31021a.21939.21939,0,1,1,0-.43877Z" style="fill:#a1afba;fill-rule:evenodd"/></g></svg>