<svg xmlns="http://www.w3.org/2000/svg" viewBox="0 0 19.90267 15.05125"><title>briefcase-icon-uc-santa-barbara</title><g id="ICONS"><path d="M6.927,1.97019h6.04707V.76967a.32257.32257,0,0,0-.09684-.23248.32664.32664,0,0,0-.235-.09659H7.25886A.33.33,0,0,0,7.024.53719a.3259.3259,0,0,0-.097.23248V1.97019Zm-5.60891,0H6.49254V.76967A.77142.77142,0,0,1,7.25886,0h5.38343a.77142.77142,0,0,1,.76693.76967V1.97019h5.17471a1.314,1.314,0,0,1,.93086.38605l.00091.00092a1.3151,1.3151,0,0,1,.387.93116V13.73306a1.32121,1.32121,0,0,1-1.31874,1.31819H1.31813a1.31249,1.31249,0,0,1-.93116-.387l-.00061-.00092h0l-.00274-.00243A1.31076,1.31076,0,0,1,0,13.73306V3.28832A1.31859,1.31859,0,0,1,1.31813,1.97019Zm17.2658.43968H1.31813a.87906.87906,0,0,0-.87936.87845v7.33985H8.1431V9.97068a.2191.2191,0,0,1,.21786-.22h3.18015a.21884.21884,0,0,1,.21755.22v.65749H19.463V3.28832a.87887.87887,0,0,0-.25656-.621l-.00152-.001a.87467.87467,0,0,0-.621-.2565ZM.43877,11.0676v2.66546a.87711.87711,0,0,0,.25747.621V14.355a.87506.87506,0,0,0,.62189.25655h17.2658a.8801.8801,0,0,0,.87906-.8785V11.0676H11.75866v1.224a.21866.21866,0,0,1-.21755.21938H8.361a.21891.21891,0,0,1-.21786-.21938v-1.224Zm10.88478-.1883-.00183-.03108c0-.011.00092-.02133.00183-.03114v-.627h-2.745v.627c.00092.00981.00183.02017.00183.03114l-.00183.03108v1.192h2.745Z" style="fill:#a1afba;fill-rule:evenodd"/></g></svg>