<svg xmlns="http://www.w3.org/2000/svg" viewBox="0 0 15.40348 21.68548"><title>business-woman-icon-uc-santa-barbara</title><g id="ICONS"><path d="M5.23565,13.44458l.72123.29647a1.03682,1.03682,0,0,1,.33852.22456,1.13775,1.13775,0,0,1,.21877.32451l1.18315,2.59056,1.18315-2.71823a.90606.90606,0,0,1,.22731-.31536,1.07091,1.07091,0,0,1,.34187-.2039l.66181-.24858a.99155.99155,0,0,1-.0777-.08659,1.06827,1.06827,0,0,1-.22457-.60026h0v-.00421l-.0259-.59843L9.7279,12.156h-.001l-.01462.01128a3.42988,3.42988,0,0,1-.95615.60787,2.7172,2.7172,0,0,1-1.0545.21421,2.833,2.833,0,0,1-1.45013-.41262,3.70792,3.70792,0,0,1-.63134-.47253l-.02529.589-.00061.01457a1.07,1.07,0,0,1-.224.60026.88977.88977,0,0,1-.13468.13656Zm.55456.70136a.56005.56005,0,0,1,.19165.12712.67017.67017,0,0,1,.13407.19957l1.387,3.03664a.21914.21914,0,0,0,.40007-.00335h0l1.37938-3.16827a.46429.46429,0,0,1,.11822-.16484.64058.64058,0,0,1,.20385-.11914l1.07193-.40342.06313.01122c.30312.05429.60965.10883.91008.17952a2.32437,2.32437,0,0,1,.11152.54511,7.01413,7.01413,0,0,0,.24528,1.21362l-1.93819-1.079a.21845.21845,0,0,0-.29708.08476l-.01128.02255H9.75892L7.64985,19.70311,5.54157,14.628a.21977.21977,0,0,0-.28666-.11853.24107.24107,0,0,0-.0348.01829L3.295,15.59972A7.01027,7.01027,0,0,0,3.53945,14.387a2.45822,2.45822,0,0,1,.10171-.51835c.32329-.0819.65754-.14162.98662-.20013l1.16243.47741Zm4.85234-.94761a.218.218,0,0,1,.153.02778l.01889.00268c.323.0579.65053.11579.97351.19355a.21242.21242,0,0,1,.12341.03107,5.10014,5.10014,0,0,1,.86717.30318,4.10057,4.10057,0,0,1,2.25173,2.699,12.68872,12.68872,0,0,1,.37234,3.65006h.00092v.26173a1.32121,1.32121,0,0,1-1.31905,1.31813H1.31783a1.31464,1.31464,0,0,1-.93025-.387h0L.387,21.2976l-.00274-.00183A1.31768,1.31768,0,0,1,0,20.36735v-.26173l.00152-.0189a12.59525,12.59525,0,0,1,.37235-3.63116H.373a4.101,4.101,0,0,1,2.25173-2.699,4.76624,4.76624,0,0,1,.75657-.273.21306.21306,0,0,1,.09507-.0259c.36716-.09689.74194-.16332,1.11154-.22889l.17551-.031.01371-.00183a.43938.43938,0,0,0,.24955-.16057.63241.63241,0,0,0,.1295-.35406l.00091-.0061.04418-1.015c-.05972-.07075-.11822-.145-.17459-.22213-.1682-.02651-.32627-.057-.475-.089-.17093-.03778-.3306-.07831-.47588-.12432a.21171.21171,0,0,1-.12681-.10177c-2.50579-4.06987-1.98055-6.96848-.685-8.77382H3.26217A6.07915,6.07915,0,0,1,5.05954.69717,4.20952,4.20952,0,0,1,6.7558.07345c.3955-.03291.68771.064.80684.28763A2.22143,2.22143,0,0,1,9.61821.15718a4.53317,4.53317,0,0,1,1.8906,1.35963,6.58522,6.58522,0,0,1,1.31295,2.48482,8.62286,8.62286,0,0,1-1.40345,7.17842.22692.22692,0,0,1-.12523.0908h0c-.1426.03961-.30165.07587-.47436.10969-.14083.02743-.29348.05424-.45589.07831-.05271.07008-.10542.13742-.16088.20232l.0451,1.02014h0a.62632.62632,0,0,0,.13041.35406.43887.43887,0,0,0,.26265.16393v-.00153l.00244.00056Zm-.8428-1.73856-.039.04509a4.22265,4.22265,0,0,1-.30927.30927l-.01646.0128a3.01366,3.01366,0,0,1-.84706.54328,2.30343,2.30343,0,0,1-.88631.18038,2.39149,2.39149,0,0,1-1.22739-.35223,3.796,3.796,0,0,1-1.10454-1.03293.28.28,0,0,0-.02438-.03108l-.01462-.02072-.00427-.0061a6.387,6.387,0,0,1-.84036-1.6859,8.589,8.589,0,0,1-.40616-2.0421.12864.12864,0,0,0-.00153-.02407c-.00268-.07861-.00365-.15362-.00268-.22639,0-.07861.00177-.15966.0061-.24254.00329-.071.00877-.15113.01639-.23925.00853-.09074.01645-.166.02407-.22725A4.53155,4.53155,0,0,1,5.75669,3.55154,2.78268,2.78268,0,0,0,7.14612,4.62871a9.99292,9.99292,0,0,0,2.03844.48386,8.04261,8.04261,0,0,1,1.52015.34522c.35253.13925.59416.33182.63133.63225l.007.13133c.0028.05028.00518.09507.00518.128.00183.05333.00335.15205.00335.29373,0,.1097-.00061.19075-.00243.24346-.00092.07155-.0033.146-.00793.2203-.00243.06734-.00755.14229-.01365.226h0v.001c-.00524.0777-.01133.14351-.01651.19958l-.00335.01828c-.02072.17764-.04754.35741-.07862.53627-.0329.18642-.06825.36777-.10786.54237-.04083.177-.08653.35771-.13651.53718-.04844.17027-.10024.33852-.1557.50184l-.00061.00274a6.64339,6.64339,0,0,1-.34735.77638,5.53483,5.53483,0,0,1-.418.6779h0q-.113.15686-.23316.298a.31548.31548,0,0,0-.03016.03535Zm2.7947,2.69476a3.68567,3.68567,0,0,1,2.01681,2.42815,12.305,12.305,0,0,1,.35345,3.522v.00092H14.9638v.26173a.88379.88379,0,0,1-.87937.87937H1.31783a.8786.8786,0,0,1-.62007-.25748l-.00091-.00182a.872.872,0,0,1-.25747-.62007v-.26173L.43877,20.0849a12.25316,12.25316,0,0,1,.35314-3.50222v-.00091l.00183.00091a3.686,3.686,0,0,1,2.015-2.42815c.11152-.0518.22548-.09751.34279-.13894-.018.0975-.03108.2014-.04571.31622a6.93819,6.93819,0,0,1-.39641,1.6497.21874.21874,0,0,0,.30927.27362l2.21187-1.23251,2.21724,5.33712h0A.22445.22445,0,0,0,7.566,20.478a.22033.22033,0,0,0,.28672-.11822L10.07,15.02262l2.21272,1.23251h0a.2186.2186,0,0,0,.31171-.26509,6.95546,6.95546,0,0,1-.39976-1.65823c-.01646-.12975-.03108-.24553-.05272-.35431a4.07448,4.07448,0,0,1,.45248.177ZM5.157,12.67521a.21833.21833,0,0,1,.23249-.19958l-.23249.19958Zm-.51281-1.75507.04394.00853a7.11675,7.11675,0,0,1-.61769-1.36718,9.03845,9.03845,0,0,1-.42743-2.15l-.001-.01646c-.00335-.08866-.00512-.17764-.00426-.26752.00091-.09172.00274-.178.00609-.25991.00524-.09872.01036-.184.01646-.25747.00609-.07161.01645-.15485.02772-.24529A5.08133,5.08133,0,0,1,5.658,3.05676l.00524-.00518.00085-.00091v.00091l.00183-.00183.00183-.00061a.2172.2172,0,0,1,.34522.06643A2.27477,2.27477,0,0,0,7.307,4.22188a9.707,9.707,0,0,0,1.94861.45771,8.40741,8.40741,0,0,1,1.61059.36991,1.23764,1.23764,0,0,1,.90623.98966h0l.00086.01463.00761.146v.00091c.00183.04235.00427.08654.00518.13651.00366.09232.00427.19434.00427.30591,0,.06277-.00061.14656-.00335.252-.00183.08654-.00427.16332-.00762.2334-.00457.08806-.00975.16759-.01493.23645-.00335.06063-.0103.13315-.018.21512a.20254.20254,0,0,1-.00518.04509c-.02163.177-.04844.35741-.07952.53719-.032.18312-.07008.372-.11305.564-.04418.19257-.09263.3799-.1426.55967-.05088.18282-.10634.36174-.16423.533h-.00061l-.00883.02224a7.16121,7.16121,0,0,1-.36351.812c-.05454.10359-.11152.20536-.17033.30317l.03565-.007c.12858-.025.25107-.0518.36442-.081a8.16981,8.16981,0,0,0,1.30168-6.74665,6.16,6.16,0,0,0-1.22489-2.32A4.08034,4.08034,0,0,0,9.47585.571,1.79629,1.79629,0,0,0,7.81134.72307a.94731.94731,0,0,0-.09513.07952A.38148.38148,0,0,1,7.5471.91046C7.35179.96317,7.26191.88273,7.179.5762,7.162.514,7.01662.49235,6.79114.5113a3.7817,3.7817,0,0,0-1.507.56156A5.63,5.63,0,0,0,3.61983,2.6052l-.00091-.00092V2.6052c-1.20143,1.67457-1.68012,4.38249.66424,8.22506.10787.031.22883.06033.36107.08988ZM3.64305,7.41153l-.001-.00859Z" style="fill:#a1afba;fill-rule:evenodd"/></g></svg>