<svg xmlns="http://www.w3.org/2000/svg" viewBox="0 0 20.58154 21.49622"><title>calendar-with-clock-icon-uc-santa-barbara</title><g id="ICONS"><path d="M14.33612,2.36234H12.36928V4.06561a.21939.21939,0,1,1-.43877,0V2.36234H3.72434V4.06561a.21984.21984,0,1,1-.43968,0V2.36234H1.31813a.88326.88326,0,0,0-.87936.87844v14.081a.874.874,0,0,0,.25838.6201l.00092.00091a.87114.87114,0,0,0,.62006.25653H9.73424c-.03284-.071-.0649-.14257-.09507-.216a5.71411,5.71411,0,0,1-.30561-.98205H1.60485a.21964.21964,0,0,1-.21938-.21938V6.33288a.21906.21906,0,0,1,.21938-.21939H14.04946a.21909.21909,0,0,1,.21938.21939v3.82428a5.82711,5.82711,0,0,1,.62609-.03443c.10695,0,.21421.00335.32024.00853V3.24078a.87641.87641,0,0,0-.25808-.62036V2.61889a.87992.87992,0,0,0-.621-.25655ZM14.2575,16.77676a.21987.21987,0,0,1-.3111-.31079l.62616-.62555-2.57532-1.92418a.21935.21935,0,1,1,.26235-.35162l2.345,1.75263-.09477-.68591a.21914.21914,0,1,1,.4342-.05969l.10969.78765,2.72859-2.72737a.21922.21922,0,0,1,.31018.30988L15.242,15.79224l.32389.24258a.21934.21934,0,0,1-.26234.35159l-.12006-.08894.51038,3.67345a.21888.21888,0,0,1-.43359.06034l-.52012-3.73806-.48265.48356Zm-4.03544,1.42261c-.06459-.12429-.12432-.25226-.17794-.38267A5.2731,5.2731,0,0,1,9.73241,16.756v-.00183L9.7315,16.7536h0a.08641.08641,0,0,0-.00336-.02163h0l-.00091-.00183v-.00091a5.27884,5.27884,0,0,1-.07953-.91989,5.22346,5.22346,0,1,1,.64261,2.51956.184.184,0,0,0-.01554-.02864l-.00853-.01558-.00091-.00057-.00244-.0061-.00183-.00182v-.00183l-.00091-.00153-.00092-.00182-.00091-.00092-.00152-.00152v-.00183l-.00085-.00183-.001-.00091-.00091-.00153-.00092-.00182-.00061-.00183-.00091-.00156-.00092-.00088v-.00091l-.00084-.00183V18.253l-.0019-.00186-.00061-.0018-.00091-.00152-.00092-.00092v-.00186l-.00176-.00179v-.00153l-.001-.00182-.00152-.00095v-.0018l-.00183-.00152v-.00183l-.00091-.00094-.00085-.00241-.00068-.00091-.00091-.00183h0l-.00092-.00152-.00091-.00183-.00091-.00183-.00092-.00244-.00152-.00183v-.00183l-.00183-.0006V18.214l-.00183-.00335-.00061-.00183-.00183-.00339h-.00091l-.00091-.00271-.00092-.00183v-.00155Zm-.25991.44032h-8.644a1.3108,1.3108,0,0,1-.92751-.38514L.38788,18.253.387,18.25211h0A1.31846,1.31846,0,0,1,0,17.32183V3.24078A1.32121,1.32121,0,0,1,1.31813,1.92265H3.28466V.21938a.21984.21984,0,0,1,.43968,0V1.92265h8.20617V.21938a.21939.21939,0,0,1,.43877,0V1.92265h1.96684a1.31666,1.31666,0,0,1,.93116.387v.00092a1.31442,1.31442,0,0,1,.38666.93024V10.1727a5.68665,5.68665,0,1,1-5.69179,8.467Zm.91136-6.85178a5.71131,5.71131,0,0,0-1.23434,1.8474c-.02681.06669-.05271.13224-.0777.19866H8.69338V11.77664h2.1914l-.01127.01127Zm.50854-.45H8.69338V9.27963h3.13787v1.738q-.23183.149-.4492.32027Zm.88881-.57436V9.06024a.21977.21977,0,0,0-.21938-.21938H8.474a.2198.2198,0,0,0-.21938.21938v4.994a.21963.21963,0,0,0,.21938.21938h.944a5.7032,5.7032,0,0,0-.16065,2.28891H1.82424V6.55226H13.83008v3.6698a5.66,5.66,0,0,0-1.10911.33151c-.15394.06308-.30416.13407-.45011.20994ZM7.18025,13.834a.21984.21984,0,1,1,0,.43968H3.60338a.21977.21977,0,0,1-.22-.21938v-2.497a.21938.21938,0,0,1,.22-.21939H6.96086V9.27963H3.60338a.21939.21939,0,1,1,0-.43877H7.18025a.22059.22059,0,0,1,.22029.21938v2.497a.21982.21982,0,0,1-.22029.21938H3.82276V13.834Z" style="fill:#a1afba;fill-rule:evenodd"/></g></svg>