<svg xmlns="http://www.w3.org/2000/svg" viewBox="0 0 22.20535 13.56919"><title>cash-icon-uc-santa-barbara</title><g id="ICONS"><path d="M20.51329,1.82693H13.24438V3.10946a4.24,4.24,0,0,1,1.31874,1.48571,4.6695,4.6695,0,0,1,0,4.37884,4.23993,4.23993,0,0,1-1.31874,1.48572v1.28339h7.26891V1.82693ZM11.32172.43877V13.13042h1.40771V.43877ZM10.883,13.13042V.43877H9.475V13.13042ZM.76784,0H21.43592a.76984.76984,0,0,1,.76943.76876V12.80043a.76929.76929,0,0,1-.22548.54414l-.01469.01194a.76177.76177,0,0,1-.52926.21268H.76784a.77173.77173,0,0,1-.54236-.22462v-.00178A.7661.7661,0,0,1,0,12.80043V.76876A.76559.76559,0,0,1,.22548.22639V.22548h0A.76233.76233,0,0,1,.76784,0ZM21.43592.43877a.33019.33019,0,0,1,.32969.33V12.80043a.33069.33069,0,0,1-.09653.23309l-.0086.00854a.32889.32889,0,0,1-.22456.08836h-8.2668v-.94853h7.56355a.21984.21984,0,0,0,.21939-.2203V1.60668a.2196.2196,0,0,0-.21939-.21938H13.16912V.43877Zm-12.39969,0H.76784A.32874.32874,0,0,0,.53566.53566L.53475.53475a.3344.3344,0,0,0-.096.234V12.80043a.32927.32927,0,0,0,.32907.33H9.03623v-.94853H1.472a.21983.21983,0,0,1-.21938-.2203V1.60668A.2196.2196,0,0,1,1.472,1.3873H9.03623V.43877Zm9.34386,5.51658a.83188.83188,0,0,1,.58807,1.42082h0a.83236.83236,0,0,1-1.17645,0l-.01279-.01463a.83183.83183,0,0,1,.60117-1.40619Zm.27727.55547a.39243.39243,0,0,1,.00153.55455L18.658,7.066l-.00061-.00061a.39059.39059,0,0,1-.55455,0l-.01036-.00883A.39107.39107,0,0,1,17.987,6.7881a.39212.39212,0,0,1,.67033-.27728ZM3.8255,5.95535a.82608.82608,0,0,0-.57436.23158l-.01462.01279A.83051.83051,0,0,0,3.2356,7.37434l.00092.00091.00091.00092H3.238A.83155.83155,0,0,0,4.41357,6.19972L4.413,6.20064a.82958.82958,0,0,0-.58746-.24529Zm.27728.55364a.39551.39551,0,0,0-.54663-.00853l-.00884.01036a.391.391,0,0,0-.00091.55455l.00091.00153a.39358.39358,0,0,0,.27819.114.39256.39256,0,0,0,.27728-.67V6.509ZM2.52657,10.70166h2.597a.21939.21939,0,1,0,0-.43877H2.52657a.21939.21939,0,1,0,0,.43877Zm14.55428,0a.21939.21939,0,0,1,0-.43877H19.679a.21939.21939,0,1,1,0,.43877Zm0-7.39445a.2203.2203,0,0,1,0-.4406H19.679a.2203.2203,0,0,1,0,.4406Zm-14.55428,0h2.597a.2203.2203,0,0,0,0-.4406H2.52657a.2203.2203,0,0,0,0,.4406Zm10.71781.35071a3.85025,3.85025,0,0,1,.93268,1.14536,4.24124,4.24124,0,0,1,0,3.96354,3.84658,3.84658,0,0,1-.93268,1.14445V3.65792Zm-4.28317,0a3.838,3.838,0,0,0-.93353,1.14536,4.2407,4.2407,0,0,0,0,3.96354,3.83436,3.83436,0,0,0,.93353,1.14445V3.65792Zm-1.31995.93725A4.23505,4.23505,0,0,1,8.96121,3.10855V1.82693H1.692v9.91619H8.96121V10.45973A4.23264,4.23264,0,0,1,7.64126,8.974a4.6717,4.6717,0,0,1,0-4.37884Z" style="fill:#a1afba;fill-rule:evenodd"/></g></svg>