<svg xmlns="http://www.w3.org/2000/svg" viewBox="0 0 16.07382 21.01934"><title>clipboard-icon-uc-santa-barbara</title><g id="ICONS"><path d="M1.31813.48082H4.78165V.21938A.21964.21964,0,0,1,5.001,0h6.07175a.21964.21964,0,0,1,.21939.21938V.48082h3.46352a1.31468,1.31468,0,0,1,.93024.387l.00092.00092a1.31245,1.31245,0,0,1,.387.93019V19.70218a1.32006,1.32006,0,0,1-1.31813,1.31716H1.31813a1.31227,1.31227,0,0,1-.93025-.3863v-.00067H.387l-.00183-.00268A1.31371,1.31371,0,0,1,0,19.70218V1.79889A1.32119,1.32119,0,0,1,1.31813.48082ZM4.101,13.38052H3.41172a.21939.21939,0,0,0,0,.43877H4.101a.21939.21939,0,0,0,0-.43877Zm0-2.51682H3.41172a.21987.21987,0,0,0,0,.43974H4.101a.21987.21987,0,0,0,0-.43974Zm0-2.36929H3.41172a.21985.21985,0,0,0,0,.43969H4.101a.21985.21985,0,0,0,0-.43969Zm0-2.369H3.41172a.21984.21984,0,0,0,0,.43968H4.101a.21984.21984,0,0,0,0-.43968Zm8.38838,0H5.61927a.21984.21984,0,1,0,0,.43968h6.87012a.21984.21984,0,1,0,0-.43968Zm0,2.369H5.61927a.21985.21985,0,1,0,0,.43969h6.87012a.21985.21985,0,1,0,0-.43969Zm-1.57018,4.88611H5.61927a.21939.21939,0,1,0,0,.43877h5.29994a.21939.21939,0,1,0,0-.43877Zm1.57018-2.51585H5.61927a.21939.21939,0,1,0,0,.43877h6.87012a.21939.21939,0,1,0,0-.43877ZM5.221.70111V2.90622h5.63146V.43938H5.221V.70111ZM1.85775,1.93972h2.9239V.92135H1.31813a.87863.87863,0,0,0-.87753.87754V19.70218a.87794.87794,0,0,0,.25655.621H.69776a.87464.87464,0,0,0,.62037.25741H14.75569a.88053.88053,0,0,0,.87845-.87839V1.79889a.87362.87362,0,0,0-.25748-.62L15.37575,1.178a.8727.8727,0,0,0-.62006-.25662H11.29217V1.93972h2.9245a.21964.21964,0,0,1,.21939.21938v17.182a.22.22,0,0,1-.21939.2203H1.85775a.21964.21964,0,0,1-.21938-.2203V2.1591a.21925.21925,0,0,1,.21938-.21938Zm2.9239.43968H2.07714V19.12264H13.99638V2.3794H11.29217v.74621a.21984.21984,0,0,1-.21939.2203H5.001a.21983.21983,0,0,1-.21938-.2203Z" style="fill:#a1afba;fill-rule:evenodd"/></g></svg>