<svg xmlns="http://www.w3.org/2000/svg" viewBox="0 0 17.42211 17.42211"><title>globe-icon-uc-santa-barbara</title><g id="ICONS"><path d="M7.50231.52774A8.28609,8.28609,0,0,0,1.547,4.57415a30.18092,30.18092,0,0,1,3.16735-.50184l.01463-.00152a9.09087,9.09087,0,0,1,.45522-.98632A6.58345,6.58345,0,0,1,7.50231.52774Zm2.41749,0a6.60348,6.60348,0,0,1,2.31907,2.55673,9.09212,9.09212,0,0,1,.45431.98632l.01462.00152a30.178,30.178,0,0,1,3.16735.50184,8.33968,8.33968,0,0,0-1.31447-1.7118A8.25511,8.25511,0,0,0,9.9198.52774Zm2.94,4.00253a28.87772,28.87772,0,0,1,3.2874.55517A8.22836,8.22836,0,0,1,16.98,8.492H13.4921a12.92536,12.92536,0,0,0-.63225-3.96171Zm.63225,4.40047a12.93037,12.93037,0,0,1-.63225,3.962,28.88235,28.88235,0,0,0,3.2874-.55546A8.2261,8.2261,0,0,0,16.98,8.93074Zm-.79892,4.42059.01462-.00092a30.33141,30.33141,0,0,0,3.16735-.50275A8.281,8.281,0,0,1,9.9198,16.89529a6.61022,6.61022,0,0,0,2.31907-2.55674,9.13494,9.13494,0,0,0,.45431-.98722ZM8.93074,16.8959a5.74953,5.74953,0,0,0,2.92207-2.76454c.12341-.23157.23919-.476.34736-.73067-1.04786.09659-2.143.15109-3.26943.15719v3.338Zm3.44738-3.95226c-1.0954.10725-2.25021.16758-3.44738.17459V8.93074h4.12259a12.35984,12.35984,0,0,1-.67521,4.0129ZM13.05333,8.492H8.93074V4.30388c1.19717.007,2.352.06825,3.44738.17551A12.35931,12.35931,0,0,1,13.05333,8.492Zm-.85316-4.46964c-1.04786-.09659-2.143-.15113-3.26943-.15723V.52588a5.75375,5.75375,0,0,1,2.92207,2.76579q.18511.34736.34736.73067Zm-6.97792,0q.1619-.38346.348-.73067A5.754,5.754,0,0,1,8.49137.52588V3.86511c-1.12648.0061-2.22157.06064-3.26912.15723Zm-.178.45705c1.09418-.10726,2.25082-.1685,3.44707-.17551V8.492H4.3697a12.32766,12.32766,0,0,1,.6746-4.01259ZM4.3697,8.93074a12.32819,12.32819,0,0,0,.6746,4.0129c1.09418.10725,2.25082.16758,3.44707.17459V8.93074Zm.85255,4.47c.10793.25469.22371.4991.348.73067A5.746,5.746,0,0,0,8.49137,16.8959v-3.338c-1.12648-.0061-2.22157-.0606-3.26912-.15719Zm2.28006,3.4946A8.28814,8.28814,0,0,1,1.547,12.84766a30.33439,30.33439,0,0,0,3.16735.50275l.01463.00092a9.13369,9.13369,0,0,0,.45522.98722,6.59667,6.59667,0,0,0,2.31815,2.55674Zm-2.941-4.00254a28.90282,28.90282,0,0,1-3.28649-.55546A8.22553,8.22553,0,0,1,.443,8.93074H3.93a12.9612,12.9612,0,0,0,.63133,3.962ZM3.93,8.492H.443a8.22778,8.22778,0,0,1,.83183-3.40654,28.89817,28.89817,0,0,1,3.28649-.55517A12.98175,12.98175,0,0,0,3.93,8.492ZM2.55155,2.55155A8.71037,8.71037,0,1,1,0,8.71136,8.68763,8.68763,0,0,1,2.55155,2.55155Z" style="fill:#a1afba;fill-rule:evenodd"/></g></svg>