<svg xmlns="http://www.w3.org/2000/svg" viewBox="0 0 20.34845 13.68646"><title>handshake-icon-uc-santa-barbara</title><g id="ICONS"><path d="M6.7491,4.58055l-.00336-.00792.00336.00792Zm-.88363,6.02939L6.966,8.75737c-.07952-.02864-.159-.057-.23766-.08653L6.477,8.57668a.33849.33849,0,0,0-.2142-.00676l.00091.001a.32509.32509,0,0,0-.15205.09934l-.12523.18556L5.22468,9.98135a.31658.31658,0,0,0,.00183.1362.309.309,0,0,0,.15723.2142l.48173.27819ZM16.89955,0h3.22951a.22023.22023,0,0,1,.21939.2203V9.04592a.21983.21983,0,0,1-.21939.21938H16.89955a.21963.21963,0,0,1-.21938-.21938V8.659l-1.00033.66151-.0067.00512a.73218.73218,0,0,1,.08013.23071.76754.76754,0,0,1-.05.42658l-.06825.16332a5.363,5.363,0,0,1-.68588,1.20052,5.28566,5.28566,0,0,1-.9793.976l-1.54605,1.20052a.75692.75692,0,0,1-.42317.16179.76762.76762,0,0,1-.43974-.10725l-1.433-.84889a.80475.80475,0,0,1-.16911.18982l-.007.0061a.77472.77472,0,0,1-.27027.13224.78317.78317,0,0,1-.30165.02224.75451.75451,0,0,1-.284-.09842h0L5.165,10.7111a.77562.77562,0,0,1-.37143-.81629.69443.69443,0,0,1,.032-.113L3.66919,8.75219v.29373a.22041.22041,0,0,1-.2203.21938H.21938A.21963.21963,0,0,1,0,9.04592V.2203A.22.22,0,0,1,.21938,0H3.44889a.22081.22081,0,0,1,.2203.2203v.177L5.27405.90191a.77179.77179,0,0,1,.50336.96377l-.01219.03625L7.66716,2.068l.01645.00061,3.689.43968c.30226-.08806.614-.16759.94914-.24163l2.327-.521a.7713.7713,0,0,1,.525-.87387L16.68017.39824V.2203A.22.22,0,0,1,16.89955,0ZM15.3983,8.98894a.20548.20548,0,0,1,.03991-.03382L16.604,8.183a.2428.2428,0,0,1,.05455-.02585L14.77488,2.1655l-2.359.52774c-.33243.07435-.646.15443-.95432.24528h0l-.00183.00092-.0128.00426-.00518.00092q-.10876.03245-.21786.06642c-.38239.121-.759.25839-1.15725.4214l-2.827,1.16273.11487.24437a1.09116,1.09116,0,0,0,1.27919.59234l2.71725-.727a.217.217,0,0,1,.22274.06886L15.3983,8.98894Zm-8.016-.07343c.05424.02224.10787.0457.16063.06825.13554.06033.26509.12523.3921.19684.12614.06977.24863.14686.37143.23157L7.12479,11.33726l-.87906-.507L7.38226,8.91551Zm.12249,2.64114.92787.53627,1.064-1.7566-.83848-.66L7.50475,11.55665Zm1.30594.75474.50367.29038h.00092a.32942.32942,0,0,0,.12248.04326.33611.33611,0,0,0,.12889-.01041.33143.33143,0,0,0,.11731-.05693l.00427-.00365a.33224.33224,0,0,0,.07861-.09507l.61763-1.08808a.33777.33777,0,0,0,.03808-.22639.33354.33354,0,0,0-.121-.19531L9.843,10.609,8.81069,12.31139ZM3.76852,8.2537,5.06045,9.40333l.67217-.95767h0a.77062.77062,0,0,1,.40068-.29373h0A.76076.76076,0,0,1,6.63,8.16747l.75992.28246a5.33892,5.33892,0,0,1,.76022.347,5.14907,5.14907,0,0,1,.56126.36625l.00274.00183a.24927.24927,0,0,1,.03718.02834c.03016.02249.06033.046.09141.07008L10.57186,10.624a.76986.76986,0,0,1,.1978.23035l2.31384,1.60053.61671-.47923c.0777-.06064.153-.121.22548-.184L10.61939,9.2653a.2195.2195,0,0,1,.26606-.34918l3.36413,2.57136a4.69209,4.69209,0,0,0,.35162-.40683q.1362-.18.25656-.37381L11.90218,8.07326a.21924.21924,0,1,1,.2919-.32719l2.88215,2.56771c.05368-.10787.10548-.22036.15387-.33614l.06795-.16327a.33393.33393,0,0,0,.02255-.18464.33733.33733,0,0,0-.082-.16515l-3.90412-4.302L8.747,5.856a1.52834,1.52834,0,0,1-1.78889-.83091l-.209-.44456-.00757-.01743a.218.218,0,0,1,.12-.28575l3.03938-1.249c.16758-.06917.33151-.13407.494-.1944l-2.764-.32907H7.62937L5.63572,2.33126H5.63146L3.76852,8.2537Zm7.06934,3.18015a.72791.72791,0,0,1-.07252.17277l-.42048.74133,1.43879.85225a.32993.32993,0,0,0,.18922.04753.32415.32415,0,0,0,.18129-.07075l.56674-.44054-1.883-1.30259ZM3.66919,7.11016l1.68926-5.3749a.3298.3298,0,0,0-.21482-.41378L3.66919.85773V7.11016ZM3.2286.43968H.43968V8.82654H3.2286V.43968ZM16.68017,6.76306V.85773l-1.376.43267a.32892.32892,0,0,0-.21421.41378l1.59023,5.05888Zm.43968,1.43031-.00091.00518v.628h2.78983V.43968H17.11894V.553l.00091.00579Z" style="fill:#a1afba;fill-rule:evenodd"/></g></svg>