<svg xmlns="http://www.w3.org/2000/svg" viewBox="0 0 14.22002 19.44568"><title>hourglass-timer-icon-uc-santa-barbara</title><g id="ICONS"><path d="M10.1986,15.65826,7.09432,13.0741,4.01716,15.65826ZM5.39567,9.04384,2.14265,6.356a1.28871,1.28871,0,0,1-.47929-1.01581V2.78988H.22A.22035.22035,0,0,1,0,2.5705V.22035A.22059.22059,0,0,1,.22,0H13.99973A.22065.22065,0,0,1,14.22.22035V2.5705a.22041.22041,0,0,1-.22029.21938h-1.444V5.34022A1.28571,1.28571,0,0,1,12.07707,6.356L8.8244,9.04384a.86928.86928,0,0,0,0,1.35531l3.25267,2.6877a1.29368,1.29368,0,0,1,.35589.45284,1.30924,1.30924,0,0,1,.1228.56308v2.55308h1.444a.22042.22042,0,0,1,.22029.21938v2.35106a.22042.22042,0,0,1-.22029.21939H.22A.22035.22035,0,0,1,0,19.22629V16.87523a.22035.22035,0,0,1,.22-.21938H1.66336V14.10277a1.30791,1.30791,0,0,1,.1234-.56217v-.00091h0a1.30131,1.30131,0,0,1,.35589-.45284l3.253-2.6877a.89334.89334,0,0,0,.23914-.30141.92915.92915,0,0,0,0-.75224.89465.89465,0,0,0-.23914-.30166Zm-2.973-3.02536A.84695.84695,0,0,1,2.103,5.34022V2.78988h10.013V5.34022a.84266.84266,0,0,1-.31866.67826L8.54469,8.70527a1.30908,1.30908,0,0,0,0,2.03148l3.25358,2.68806a.845.845,0,0,1,.3178.678v2.55064H2.103V14.10277a.887.887,0,0,1,.07952-.37569h.00092a.85912.85912,0,0,1,.23919-.30227l3.25266-2.68806a1.32841,1.32841,0,0,0,.35589-1.578,1.3019,1.3019,0,0,0-.35589-.45247L2.42267,6.01848Zm4.68719,2.699,4.05007-3.34525v-.582H3.0601v.582L7.10986,8.71746Zm4.40931-3.07315a.21725.21725,0,0,0,.07952-.16911h.00092V4.56994a.21983.21983,0,0,0-.2203-.21938H2.8398a.21962.21962,0,0,0-.21938.21938V5.4752a.21787.21787,0,0,0,.088.17612L6.97,9.17182a.22048.22048,0,0,0,.28,0l.00061-.00092L7.25155,9.17l4.26762-3.52568Zm2.26117,11.45031H.43938v1.91229h13.341V17.09462Zm0-16.65585H.43938V2.3502h13.341V.43877ZM7.23357,12.62066l3.69479,3.0766a.21739.21739,0,0,1,.096.1813.21979.21979,0,0,1-.22025.21938h-7.389V16.097a.21711.21711,0,0,1-.16856-.07861.21979.21979,0,0,1,.02773-.30836l3.67925-3.0894v.001A.21673.21673,0,0,1,7.23357,12.62066Z" style="fill:#a1afba;fill-rule:evenodd"/></g></svg>