<svg xmlns="http://www.w3.org/2000/svg" viewBox="0 0 17.74266 21.68364"><title>man-suit-icon-uc-santa-barbara</title><g id="ICONS"><path d="M11.84611,10.97954c.011.13133.02133.2852.0326.45523a15.17877,15.17877,0,0,0,.16667,1.65817l.74469.45888a9.26583,9.26583,0,0,1,3.61374,1.46463,2.96048,2.96048,0,0,1,1.33885,2.377h0l-.00092,2.972a1.31745,1.31745,0,0,1-.38514.93116l-.00183.00092a1.31225,1.31225,0,0,1-.93018.38605H1.31813a1.31143,1.31143,0,0,1-.93025-.387H.387l-.00244-.00274A1.31264,1.31264,0,0,1,0,20.36551v-2.972a2.94431,2.94431,0,0,1,1.33976-2.37,9.31389,9.31389,0,0,1,3.62166-1.4589l.74865-.48874a14.42959,14.42959,0,0,0,.14351-1.66275c.00945-.177.0189-.33669.0259-.4543-.11822-.12767-.23248-.26174-.34217-.40068A7.123,7.123,0,0,1,4.45958,8.61569a6.10186,6.10186,0,0,1-.38544-2.07745v-.0326a.2175.2175,0,0,1,.00365-.04235c-.00365-.09172-.00518-.17648-.00518-.24961,0-.36564-.00518-.659-.01127-.94421C4.0068,2.28281,3.96542,0,8.87224,0c4.906,0,4.86453,2.28281,4.81005,5.26947-.00524.2852-.01042.57857-.01042.94421,0,.025-.00091.07258-.00244.14321l-.00274.10884a.196.196,0,0,1,.00341.03991H13.671v.0326c0,.15631-.00762.31263-.02072.46924l-.00092.00518-.00055.00518A6.31016,6.31016,0,0,1,13.2849,8.6166a7.14193,7.14193,0,0,1-1.07863,1.94155q-.17232.2202-.36016.42139Zm-5.5891-.259.00152.00152.00274.00275.00768.00853a4.92458,4.92458,0,0,0,1.07.85773,3.07793,3.07793,0,0,0,1.53325.451,3.076,3.076,0,0,0,1.53295-.451A5.26547,5.26547,0,0,0,11.86165,10.287a6.71908,6.71908,0,0,0,1.01221-1.82A5.8971,5.8971,0,0,0,13.209,7.00565l-.25747-1.10027a3.55686,3.55686,0,0,1-.10786-.62981c-.01646-.18556-.02066-.38179-.02529-.57253a4.18175,4.18175,0,0,0-.04571-.64261,1.09954,1.09954,0,0,0-.20994-.49666l-.00761-.01128a.8.8,0,0,0-.67461-.28946,4.84514,4.84514,0,0,0-1.08985.20836h-.001a7.40809,7.40809,0,0,1-1.91748.31938,7.33708,7.33708,0,0,1-1.9001-.31506.15168.15168,0,0,1-.03474-.00884A4.81332,4.81332,0,0,0,5.863,3.263a.79517.79517,0,0,0-.68222.29977,1.10017,1.10017,0,0,0-.209.49666,4.18537,4.18537,0,0,0-.046.64358c-.00426.19074-.00944.38605-.02492.57253a3.7808,3.7808,0,0,1-.1061.62372l-.2593,1.10453A5.85611,5.85611,0,0,0,4.87154,8.467a6.69219,6.69219,0,0,0,1.01129,1.82c.11914.152.24437.29708.37418.43359Zm.03778.64688-.00335.06825a16.59943,16.59943,0,0,1-.14077,1.66853l2.74656,1.5686,2.70878-1.547a16.19029,16.19029,0,0,1-.16424-1.66183l-.00609-.0844a5.03051,5.03051,0,0,1-.81111.5905,3.5088,3.5088,0,0,1-1.75233.51068,3.50811,3.50811,0,0,1-1.75263-.51068,5.14,5.14,0,0,1-.82482-.60269Zm6.959-6.757C13.27119,2.2042,12.97045.43877,8.87224.43877,4.77129.43877,4.47329,2.206,4.48975,4.615a4.211,4.211,0,0,1,.05088-.63317,1.53086,1.53086,0,0,1,.29556-.68831,1.20262,1.20262,0,0,1,1.02867-.46833,5.00613,5.00613,0,0,1,1.18833.21939l.01407.00274a7.0345,7.0345,0,0,0,1.805.30409,7.04893,7.04893,0,0,0,1.806-.30409h.00091a5.07494,5.07494,0,0,1,1.1996-.22213A1.20166,1.20166,0,0,1,12.897,3.2804l.01036.01218a1.52122,1.52122,0,0,1,.29556.68832,3.83308,3.83308,0,0,1,.05088.62951ZM8.55261,16.00648l.13986.34279a.71189.71189,0,0,1,.06734.16057.56357.56357,0,0,1,.01493.21329l-.00092.00549c-.10116.83335-.20658,1.60729-.312,2.3794-.05941.4412-.11914.88271-.17611,1.313l.46223.8239h.24436l.507-.90252c-.05362-.4025-.1106-.82055-.16758-1.23951C9.2263,18.3289,9.12094,17.555,9.02,16.72252a.55363.55363,0,0,1,.0156-.21268.693.693,0,0,1,.06728-.16057l.13992-.34279-.34559-.62707-.34462.62707Zm.96224.49386-.00944.025-.00092-.00066a.12572.12572,0,0,1-.01371.02742.307.307,0,0,0-.03138.071.123.123,0,0,0-.00329.04753c.10628.873.20805,1.62375.31012,2.37331l.089.65906c.09751-.17367.195-.34553.2891-.51225h0A20.18651,20.18651,0,0,0,12.252,14.51741L9.96063,16.73532a.21777.21777,0,0,1-.30927-.00427.2001.2001,0,0,1-.03474-.04753h0l-.10177-.18318ZM7.9292,19.77988l.09842-.72976c.10268-.74956.20445-1.50034.31079-2.37269v-.00762a.1187.1187,0,0,0-.00244-.04662.28949.28949,0,0,0-.02681-.06155.26321.26321,0,0,1-.0192-.03626l-.01036-.025-.10085.18318h0a.18731.18731,0,0,1-.03383.04571.21837.21837,0,0,1-.30927.00792L5.48033,14.48786a20.09034,20.09034,0,0,0,2.11,4.69176l.0061.01036c.10786.19105.21938.3888.33273.5899ZM5.90782,13.46955l-.50946.33365,2.53425,2.41986.18124-.33054.00274-.00518.00244-.00457.00335-.00427.47868-.87052L5.90782,13.46955Zm6.45293.33273-.507-.31353L9.1934,15.008l.47959.87052.0086.01463.18032.32847,2.49884-2.41932Zm-7.47124.22548a8.71219,8.71219,0,0,0-3.28709,1.34555A2.53049,2.53049,0,0,0,.43877,17.39347v2.972a.87413.87413,0,0,0,.25747.621H.69715a.8723.8723,0,0,0,.621.25838h6.927L7.86765,20.573l-.00335-.007L7.86,20.55808c-.24193-.43877-.44913-.80745-.64444-1.15115l-.00609-.01219a20.35152,20.35152,0,0,1-2.32-5.367ZM9.496,21.24487h6.92863a.88063.88063,0,0,0,.8793-.87936l.00091-2.972h-.00091a2.54677,2.54677,0,0,0-1.16426-2.02717,8.65894,8.65894,0,0,0-3.285-1.35256A20.34973,20.34973,0,0,1,10.52524,19.406v.00092h0c-.18221.32115-.3757.66424-.60361,1.07711l-.00092.00244h0l-.00146.00335-.00189.00183-.00091.00182Z" style="fill:#a1afba;fill-rule:evenodd"/></g></svg>