<svg xmlns="http://www.w3.org/2000/svg" viewBox="0 0 22.05324 17.00759"><title>messages-icon-uc-santa-barbara</title><g id="ICONS"><path d="M13.97505,13.72428H5.45717l-4.26854,3.239a.21947.21947,0,0,1-.34827-.21329h0l.56156-3.02567H1.31813a1.31411,1.31411,0,0,1-.93025-.387V13.3364H.387L.38461,13.334A1.3151,1.3151,0,0,1,0,12.40615V3.49369A1.31963,1.31963,0,0,1,1.31813,2.17556H6.76128V1.31783A1.31963,1.31963,0,0,1,8.07941,0H20.73549a1.31427,1.31427,0,0,1,.93078.38605l.00092.00153a1.31207,1.31207,0,0,1,.386.93025v8.91179a1.31806,1.31806,0,0,1-1.31775,1.31819h-.08326l.56164,3.02628h-.001a.21491.21491,0,0,1-.04052.17118.21967.21967,0,0,1-.30653.04241l-4.26945-3.23987h-1.3032v.85834a1.32121,1.32121,0,0,1-1.31813,1.31813ZM9.06664,9.87745H2.70512a.21938.21938,0,0,0,0,.43876H9.06664a.21938.21938,0,1,0,0-.43876Zm3.51959-2.41079H2.707a.21939.21939,0,1,0,0,.43877h9.87928a.21939.21939,0,1,0,0-.43877ZM11.43568,5.19513H2.70787a.21939.21939,0,1,0,0,.43877h8.72781a.21939.21939,0,1,0,0-.43877Zm7.84693,2.58263a.21969.21969,0,0,1,0,.43938H15.29318V11.109H16.6689a.219.219,0,0,1,.1493.0579L20.68,14.09754l-.50611-2.7295a.21821.21821,0,0,1,.17612-.25479.19361.19361,0,0,1,.039-.00421h.34652a.88166.88166,0,0,0,.879-.87942V1.31783a.88177.88177,0,0,0-.25716-.621L21.35639.69593a.87709.87709,0,0,0-.6209-.25655H8.07941a.87853.87853,0,0,0-.87844.87845v.85773h6.77408a1.31439,1.31439,0,0,1,.93024.38605l.00092.00177a1.31681,1.31681,0,0,1,.3245.53115h4.05342a.21984.21984,0,0,1,0,.43968h-3.991V5.36515H18.5364a.21984.21984,0,1,1,0,.43968H15.29318V7.77776ZM5.38435,13.2846h8.5907a.8822.8822,0,0,0,.87936-.87845V3.49369a.88126.88126,0,0,0-.25747-.621l-.00183-.00092a.87674.87674,0,0,0-.62006-.25661H1.31813a.88074.88074,0,0,0-.87845.87851v8.91246a.87444.87444,0,0,0,.25747.621H.69807a.87017.87017,0,0,0,.62006.25747h.34705v.00091a.378.378,0,0,1,.03992.0033.21949.21949,0,0,1,.1752.25509l-.5061,2.72919L5.236,13.34249A.22077.22077,0,0,1,5.38435,13.2846Z" style="fill:#a1afba;fill-rule:evenodd"/></g></svg>