<svg xmlns="http://www.w3.org/2000/svg" viewBox="0 0 12.86635 20.27813"><title>necktie-icon-uc-santa-barbara</title><g id="ICONS"><path d="M1.52456,5.55863,8.02136,3.8185l.15723-.72214L6.70933.32115A.21881.21881,0,0,1,6.802.0259.21337.21337,0,0,1,6.90378.00061V0h4.461a.21964.21964,0,0,1,.21939.21938A.21352.21352,0,0,1,11.5574.3239L10.178,3.09544l.62981,3.00642.00427.02016.88,4.20181a.11016.11016,0,0,1,.00463.02249l.87991,4.20181.00518.02169.27911,1.33367a.2209.2209,0,0,1-.04662.19166L9.3465,20.20031h0c-.007.008-.01493.01559-.0234.02352a.22.22,0,0,1-.30933-.01981L5.75318,16.49156a.20712.20712,0,0,1-.02316-.0259l-.29184-.33334a.218.218,0,0,1-.06069-.202L7.34255,6.92613l.00086-.00275.20384-.9336L2.06357,7.55564a.214.214,0,0,1-.11913,0l-1.76909-.362a.21886.21886,0,0,1-.0975-.38184L1.4365,5.60708a.23094.23094,0,0,1,.08806-.04759V5.55863Zm10.673,9.31711L6.30438,16.4553l2.87088,3.2676L12.41087,15.894l-.21329-1.0183ZM5.9814,16.08753l6.12629-1.642L11.313,10.652l-4.6037,1.23343-.87906,4.03026.15113.17185Zm5.71068-5.7637ZM6.81475,11.40338l4.4084-1.18132-.79466-3.79351L7.74317,7.148l-.92842,4.25543ZM7.8486,6.6653l2.49031-.667-.56857-2.7136H8.58628L8.422,4.03788l-.00061.00152v.00269L8.05427,5.72378l-.00091.00427L8.0525,5.7314l-.2039.9339ZM7.65268,5.50257l.26271-1.20149L1.687,5.97l-.99514.88271,1.30167.26687,5.65919-1.617ZM8.5421,2.84589H9.81178L11.00986.43877H7.26815Z" style="fill:#a1afba;fill-rule:evenodd"/></g></svg>