<svg xmlns="http://www.w3.org/2000/svg" viewBox="0 0 17.27708 12.8791"><title>newspaper-Icon-UC-Santa-Barbara</title><g id="ICONS"><path d="M3.51532,12.44033H15.959a.88082.88082,0,0,0,.8785-.87936V.76881a.32935.32935,0,0,0-.32908-.32907H2.966a.32707.32707,0,0,0-.233.096L2.72432.54425a.33027.33027,0,0,0-.08806.22456V11.561a1.31353,1.31353,0,0,1-.33791.87936ZM2.19663,11.561V2.47818H.76876a.33054.33054,0,0,0-.23249.09653L.52688,2.5836a.32969.32969,0,0,0-.0872.22457V11.561a.8756.8756,0,0,0,.25747.62092l.01036.01133a.87667.87667,0,0,0,1.23068-.01036l.00183-.001a.87706.87706,0,0,0,.25661-.62092Zm0-9.52156V.76881A.76612.76612,0,0,1,2.409.23955L2.42211.22548A.76759.76759,0,0,1,2.966,0H16.50837a.77132.77132,0,0,1,.76871.76881V11.561A1.31965,1.31965,0,0,1,15.959,12.8791H1.31813a1.31235,1.31235,0,0,1-.91806-.37423L.387,12.493A1.31463,1.31463,0,0,1,0,11.561V2.80817A.76768.76768,0,0,1,.21268,2.2786l.0128-.01371a.76657.76657,0,0,1,.54328-.22548Zm12.66723-.16667a.21893.21893,0,1,1,.00152.43785l-1.33184.007V2.987H14.927a.21975.21975,0,0,1,.21994.21938V4.311a.21994.21994,0,0,1-.21994.22029H13.31415a.21938.21938,0,1,1,0-.43876H14.7076V3.42579H13.31415a.22.22,0,0,1-.22029-.21938V2.10066h.00188a.21732.21732,0,0,1,.21689-.21847l1.55123-.00945Zm-5.10129.26783a.21982.21982,0,0,1,.42658-.10634l.37235,1.47505.444-1.48541a.219.219,0,0,1,.42409.01554l.42658,1.47353.39123-1.48206a.21936.21936,0,0,1,.42414.11213l-.59325,2.24746h-.00091a.21532.21532,0,0,1-.15022.15357.21838.21838,0,0,1-.27118-.1493L11.212,2.8624l-.45705,1.529a.21941.21941,0,0,1-.42475-.00457L9.76257,2.14057Zm-.765,1.95191a.21938.21938,0,1,1,0,.43876H7.47733A.2206.2206,0,0,1,7.257,4.311V2.10066a.2212.2212,0,0,1,.2203-.2203H8.97925a.21984.21984,0,1,1,0,.43968H7.69671V2.9462h1.192a.21938.21938,0,1,1,0,.43876h-1.192v.70752Zm-4.18389.28763a.21863.21863,0,0,1-.43724-.00426l.0259-2.31054A.21876.21876,0,0,1,4.792,1.93063h0L6.2698,3.76584,6.29144,2.0644a.21894.21894,0,0,1,.43785.00518l-.0292,2.29926a.22459.22459,0,0,1-.08226.17977.21974.21974,0,0,1-.30842-.03382l-1.476-1.8346L4.81364,4.38011ZM4.6875,7.22418V6.11355H9.05963v.50519L8.6553,6.4408h0a.21931.21931,0,0,0-.21842.02346L6.91851,7.58093l-1.50461-.748a.21775.21775,0,0,0-.2273.02072l-.4991.37052Zm4.37213-.12432v1.2645H4.6875V7.77111l.653-.48538,1.50369.74773a.22033.22033,0,0,0,.22975-.02224L8.59405,6.89267l.46558.20719ZM4.46811,5.67478H9.279a.21944.21944,0,0,1,.22029.21939V8.58375a.22022.22022,0,0,1-.22029.2203H4.46811a.21983.21983,0,0,1-.21938-.2203V5.89417a.21906.21906,0,0,1,.21938-.21939ZM15.058,10.56247a.21984.21984,0,1,1,0,.43968H4.34014a.21984.21984,0,0,1,0-.43968Zm0-2.409a.21939.21939,0,1,1,0,.43877H10.46216a.21939.21939,0,1,1,0-.43877Zm0-2.26879a.21984.21984,0,1,1,0,.43968H10.46216a.21984.21984,0,1,1,0-.43968Z" style="fill:#a1afba;fill-rule:evenodd"/></g></svg>