<svg xmlns="http://www.w3.org/2000/svg" viewBox="0 0 17.99982 17.99891"><title>person-magnifying-glass-icon-uc-santa-barbara</title><g id="ICONS"><path d="M11.12641,3.834A5.15617,5.15617,0,1,0,3.834,11.1255l.00092.00091.00091-.00091a5.15082,5.15082,0,0,0,7.29055.00091h.00091l-.00091-.00091a5.15177,5.15177,0,0,0,0-7.29147Zm-3.64657-.0716a2.00488,2.00488,0,0,1,1.41891.58807v.00177h.00183a2.0059,2.0059,0,0,1-.00183,2.838h0a1.97224,1.97224,0,0,1-.40769.31536,3.13639,3.13639,0,0,1,2.1198,2.96351.22023.22023,0,0,1-.2203.21939H4.5708a.22056.22056,0,0,1-.22023-.21939A3.13276,3.13276,0,0,1,6.47,7.50658a2.04772,2.04772,0,0,1-.40921-.31628h0l-.00084-.00091H6.059a2.008,2.008,0,0,1,1.42089-3.427ZM8.589,4.66068l.00053.00061a1.5698,1.5698,0,0,1,0,2.21822v.00091L8.589,6.87951A1.56352,1.56352,0,0,1,7.50048,7.339H7.47032a1.56289,1.56289,0,0,1-1.09959-.458l-.001-.00152A1.56908,1.56908,0,0,1,8.589,4.66068Zm.79427,3.90559a2.68123,2.68123,0,0,1,.77821,1.68352H4.79963A2.68975,2.68975,0,0,1,7.47032,7.77868H7.491a2.68157,2.68157,0,0,1,1.89218.78759Zm4.42424,2.90628,3.80722,3.80752.01189.0128a1.31808,1.31808,0,0,1-.01189,1.85014l-.00091.00091h.00091l-.46977.46985a1.31941,1.31941,0,0,1-1.86331,0h-.00145l-3.80669-3.80722a7.47894,7.47894,0,1,1,2.334-2.334Zm-2.4315,1.8736-.00183.00086-.00061.00066-.00091.00091a7.04436,7.04436,0,1,1,1.4915-1.33006l-.00426.00523-.00945.01127c-.0518.06033-.1036.12006-.15631.17886l-.00183.00061c-.07343.0813-.14869.16-.22639.23767l-.0067.007a7.07667,7.07667,0,0,1-1.07529.88174l-.00792.00524Zm5.92762,2.24472.01128.00944a.8823.8823,0,0,1-.01036,1.23343l-.00092-.001-.46984.4699a.87971.87971,0,0,1-1.2428.00091v-.00091l-3.747-3.746A7.497,7.497,0,0,0,13.55669,11.844l3.74689,3.74689ZM9.62,2.31054a5.59385,5.59385,0,0,1,1.81722,9.12514h-.00091a5.59237,5.59237,0,0,1-7.91145,0h.00084A5.59419,5.59419,0,0,1,9.62,2.31054Z" style="fill:#a1afba;fill-rule:evenodd"/></g></svg>