<svg xmlns="http://www.w3.org/2000/svg" viewBox="0 0 18.77711 18.77711"><title>puzzle-piece-icon-uc-santa-barbara</title><g id="ICONS"><path d="M3.19813,0H7.89934a.21964.21964,0,0,1,.21938.21938,2.75049,2.75049,0,0,0,.80867,1.951,2.7579,2.7579,0,0,0,3.90144,0,2.75171,2.75171,0,0,0,.8083-1.951A.21964.21964,0,0,1,13.85652,0h4.70121a.21925.21925,0,0,1,.21938.21938V4.92059a.21886.21886,0,0,1-.21938.21939h-.0192a2.75952,2.75952,0,0,0,.0192,5.519.21889.21889,0,0,1,.21847.21938h.00091v4.70035a.21924.21924,0,0,1-.21938.21938H14.069a3.19857,3.19857,0,0,1-6.382,0H3.19813a.21963.21963,0,0,1-.21939-.21938V11.08924a3.19771,3.19771,0,0,1,0-6.38041V.21938A.21964.21964,0,0,1,3.19813,0ZM15.703,6.45445A23.32465,23.32465,0,0,1,12.7596,5.115a23.5058,23.5058,0,0,1-2.916-1.86842,3.21177,3.21177,0,0,1-1.22733-.7651A3.18825,3.18825,0,0,1,7.687.43968H3.41842V4.92059H3.41666a.21809.21809,0,0,1-.21853.21847A2.7661,2.7661,0,0,0,.65541,6.82771a24.70854,24.70854,0,0,1,7.67081,3.022A24.96694,24.96694,0,0,1,14.703,15.35838h3.63537V11.08924A3.19972,3.19972,0,0,1,15.703,6.45445ZM10.83,3.41751a23.227,23.227,0,0,0,2.1368,1.31112,22.86966,22.86966,0,0,0,2.965,1.34312,3.31564,3.31564,0,0,1,.36381-.43425,3.1896,3.1896,0,0,1,2.0427-.92867V.43968H14.069a3.19726,3.19726,0,0,1-3.19148,2.97783Zm3.302,11.94087a24.526,24.526,0,0,0-6.03208-5.133A24.24427,24.24427,0,0,0,.51738,7.24728,2.76148,2.76148,0,0,0,3.18015,10.659l.018-.00086a.22.22,0,0,1,.22029.22024v4.48005H7.89934a.22.22,0,0,1,.21938.2203,2.75921,2.75921,0,0,0,5.51841,0,.22.22,0,0,1,.21939-.2203Z" style="fill:#a1afba;fill-rule:evenodd"/></g></svg>