<svg xmlns="http://www.w3.org/2000/svg" viewBox="0 0 17.01778 21.57908"><title>resume-icon-uc-santa-barbara</title><g id="ICONS"><path d="M1.31813,3.38674H3.18442V1.31813h0A1.31963,1.31963,0,0,1,4.50255.00091V0h0V.00091l7.62236.00092.01981-.00092a.218.218,0,0,1,.16667.07679L16.941,4.71157a.21761.21761,0,0,1,.07679.16576l-.00183.0198-.00427,11.97805a1.31965,1.31965,0,0,1-1.31721,1.31813H13.82818l-.00091,2.0686a1.31957,1.31957,0,0,1-1.31722,1.31717H1.31722v-.00086A1.31818,1.31818,0,0,1,.00091,20.261H0V4.704A1.3212,1.3212,0,0,1,1.31722,3.38674V3.38582h.00091v.00092Zm.89033,14.41533H11.624a.21984.21984,0,0,0,0-.43968H2.20846a.21984.21984,0,0,0,0,.43968ZM11.624,15.49422H2.20846a.21987.21987,0,0,0,0,.43974H11.624a.21987.21987,0,0,0,0-.43974Zm0-1.86836H2.20846a.21984.21984,0,0,0,0,.43968H11.624a.21984.21984,0,0,0,0-.43968Zm-6.71893-7.832a1.8752,1.8752,0,0,0-1.3266.54938l-.00189.00152a1.87648,1.87648,0,0,0,0,2.65327l.00189.001a1.82921,1.82921,0,0,0,.35309.27727,2.92749,2.92749,0,0,0-1.08808.68832h.00091A2.90954,2.90954,0,0,0,1.98908,12.028a.21925.21925,0,0,0,.21938.21938H7.60408a.21983.21983,0,0,0,.2203-.21938,2.90957,2.90957,0,0,0-.85407-2.0616L6.96939,9.9655V9.96459H6.96848a2.92978,2.92978,0,0,0-1.0893-.68832A1.85406,1.85406,0,0,0,6.23172,8.999l.00182-.001a1.87646,1.87646,0,0,0,0-2.65327l-.00182-.00152a1.87384,1.87384,0,0,0-1.32667-.54938Zm1.0174.86017a1.43892,1.43892,0,1,0-1.0174,2.45649h.00189A1.43881,1.43881,0,0,0,5.92245,6.654Zm.73676,3.61983a2.47245,2.47245,0,0,0-1.75227-.72458H4.90505a2.46732,2.46732,0,0,0-1.7508.72641l-.00091-.001-.00061.001a2.471,2.471,0,0,0-.71544,1.532h4.938a2.46691,2.46691,0,0,0-.716-1.532v-.00183Zm.3111-.30744-.00183.30927a.21941.21941,0,0,0,.00183-.30927Zm9.6087-4.8688H13.24255a1.315,1.315,0,0,1-.93025-.387h-.00091V4.70974L12.309,4.70822a1.31475,1.31475,0,0,1-.38453-.92873V.43968L4.50255.43877V.43968h0V.43877a.88051.88051,0,0,0-.87839.87936h0V3.38674l5.1131.00091h.20232l.01987-.00091a.21951.21951,0,0,1,.16661.07678L11.3656,5.70489l2.39067,2.3925a.21942.21942,0,0,1,.07618.16667v.01981l-.00427,9.47067h1.86629a.88082.88082,0,0,0,.87942-.87936L16.579,5.09762ZM12.3641.74981V3.77949a.8772.8772,0,0,0,.25747.62129v.00061a.87981.87981,0,0,0,.621.25747h3.02627L12.3641.74981Zm1.02623,17.24392-.00092-.01981.00092-.0198.00426-9.47067H10.05813a1.31086,1.31086,0,0,1-.93024-.387H9.127l-.0028-.00341a1.31617,1.31617,0,0,1-.38417-.92775V3.82459H1.31813V3.8255H1.31722V3.82459A.88167.88167,0,0,0,.43877,4.704V20.261H.43785a.88536.88536,0,0,0,.87937.88028v-.001H12.51005a.8821.8821,0,0,0,.87936-.8784l.00092-2.26818ZM9.17968,4.1363v3.029a.87344.87344,0,0,0,.25656.621h.00061a.87168.87168,0,0,0,.62128.25747H13.0835L11.1386,6.097Z" style="fill:#a1afba;fill-rule:evenodd"/></g></svg>