<svg xmlns="http://www.w3.org/2000/svg" viewBox="0 0 10.99502 18.43859"><title>rook-chess-piece-icon-uc-santa-barbara</title><g id="ICONS"><path d="M8.99223.43877h-1.046V2.01224a.2206.2206,0,0,1-.22029.22029H6.24049a.22042.22042,0,0,1-.21939-.22029V.43877H4.97415V2.01224a.21982.21982,0,0,1-.21938.22029H3.26905a.22007.22007,0,0,1-.21938-.22029V.43877H2.003V2.869a.878.878,0,0,0,.25747.62193l.00061.00092a.87957.87957,0,0,0,.62037.25655h5.2323a.8805.8805,0,0,0,.621-.25655V3.49094A.878.878,0,0,0,8.99223,2.869V.43877Zm1.564,15.63992H.43877v1.92022H10.55625V16.07869ZM.21938,15.63992H.7885V13.38667a8.61132,8.61132,0,0,1,.58045-3.17862l.90191-2.39159A8.5181,8.5181,0,0,0,2.6905,6.33105a8.53649,8.53649,0,0,0,.13126-1.53938v-.6054a1.31509,1.31509,0,0,1-.87053-.38514l-.00092-.00092a1.31364,1.31364,0,0,1-.387-.9312V.21938A.21982.21982,0,0,1,1.78364,0H3.26905a.21905.21905,0,0,1,.21939.21938V1.79285H4.53539V.21938A.219.219,0,0,1,4.75477,0H6.24049a.21976.21976,0,0,1,.22.21938V1.79285h1.046V.21938A.21905.21905,0,0,1,7.7259,0H9.21161a.21944.21944,0,0,1,.2203.21938V2.869a1.31361,1.31361,0,0,1-.387.9312L9.044,3.80113a1.31508,1.31508,0,0,1-.87084.38514v.6054a8.53,8.53,0,0,0,.13133,1.53938A8.62852,8.62852,0,0,0,8.7244,7.81733l.90252,2.39072a8.91338,8.91338,0,0,1,.43968,1.56158,8.93073,8.93073,0,0,1,.13985,1.617v2.25325h.56918a.21984.21984,0,0,1,.21939.21939v2.3599a.21983.21983,0,0,1-.21939.21938H.21938A.21978.21978,0,0,1,0,18.21921v-2.3599a.21979.21979,0,0,1,.21938-.21939ZM3.26144,4.1881v.60357a8.95732,8.95732,0,0,1-.13986,1.61708,8.90546,8.90546,0,0,1-.4406,1.5625l-.90252,2.39067a8.14764,8.14764,0,0,0-.55028,3.02475v2.25325H9.76769V13.38667a8.481,8.481,0,0,0-.13194-1.53934,8.44854,8.44854,0,0,0-.419-1.48541L8.31427,7.97125a8.67114,8.67114,0,0,1-.58045-3.17958V4.1881Z" style="fill:#a1afba;fill-rule:evenodd"/></g></svg>