<svg xmlns="http://www.w3.org/2000/svg" viewBox="0 0 21.22263 18.01993"><title>social-hierarchy-icon-uc-santa-barbara</title><g id="ICONS"><path d="M11.70351,4.38011a3.6555,3.6555,0,0,1,2.55582,3.4815.22.22,0,0,1-.21938.2203H7.18207a.21983.21983,0,0,1-.21938-.2203A3.65056,3.65056,0,0,1,9.51674,4.381a2.328,2.328,0,1,1,2.73767-.41043l-.00061.00091h.00061a2.32092,2.32092,0,0,1-.5509.4086Zm-8.6294,6.73508a.21984.21984,0,0,1-.43968,0v-1.298a.21984.21984,0,0,1,.21939-.2203h7.53583V8.51732a.21984.21984,0,0,1,.43968,0V9.59687h7.53613a.22.22,0,0,1,.21939.2203v1.298a.21985.21985,0,0,1-.43969,0V10.03564H10.82933v1.07955a.21984.21984,0,0,1-.43968,0V10.03564H3.07411v1.07955Zm15.45437.95463a1.73764,1.73764,0,0,1,1.23007,2.96686v.00152a1.676,1.676,0,0,1-.29373.23584,2.71583,2.71583,0,0,1,.96931.62189l.01182.01371a2.6853,2.6853,0,0,1,.77668,1.89.22115.22115,0,0,1-.2203.22024h-4.945a.2206.2206,0,0,1-.21938-.22024,2.68784,2.68784,0,0,1,.78856-1.90376l.0131-.01128a2.69138,2.69138,0,0,1,.95524-.6097,1.76721,1.76721,0,0,1-.29465-.23675l-.00061-.00152a1.73693,1.73693,0,0,1,0-2.45832l.01372-.01188a1.72784,1.72784,0,0,1,1.21514-.49666Zm.919.81964a1.29924,1.29924,0,0,0-1.82667-.01128l-.01036.01128a1.299,1.299,0,0,0,.91044,2.21882h.025a1.2907,1.2907,0,0,0,.90161-.38087l.00092.00091a1.30129,1.30129,0,0,0-.00092-1.83886ZM20.123,16.207a2.24882,2.24882,0,0,0-1.585-.65992h-.01706a2.24813,2.24813,0,0,0-1.57377.6487l-.01036.01122a2.24956,2.24956,0,0,0-.64871,1.37334h4.48457a2.25439,2.25439,0,0,0-.63835-1.36292L20.123,16.207Zm-9.513-4.13715A1.73829,1.73829,0,0,1,11.84,15.03668l-.00092.0006.00092.00092a1.75043,1.75043,0,0,1-.29465.23584,2.70708,2.70708,0,0,1,.96925.62189l.01188.01371a2.68139,2.68139,0,0,1,.77668,1.89.22055.22055,0,0,1-.22029.22024H8.13822a.21985.21985,0,0,1-.21877-.22024,2.68606,2.68606,0,0,1,.78795-1.90376l.0128-.01128a2.68742,2.68742,0,0,1,.95614-.6097,1.74709,1.74709,0,0,1-.29525-.23675l-.00091-.00152a1.73676,1.73676,0,0,1,0-2.45832l.01371-.01188a1.73,1.73,0,0,1,1.216-.49666Zm.919.81964a1.30036,1.30036,0,0,0-1.82759-.01128l-.01036.01128a1.29895,1.29895,0,0,0,.91136,2.21882h.02407a1.29468,1.29468,0,0,0,.90252-.38087v.00091a1.30167,1.30167,0,0,0,0-1.83886Zm.6746,3.31751a2.24675,2.24675,0,0,0-1.58413-.65992h-.01792a2.24612,2.24612,0,0,0-1.57292.6487l-.01036.01122a2.23967,2.23967,0,0,0-.6487,1.37334H12.8532a2.24944,2.24944,0,0,0-.6384-1.36292l-.01128-.01042Zm-9.513-4.13715a1.73743,1.73743,0,0,1,1.22916,2.96686v.00152a1.7106,1.7106,0,0,1-.29373.23584,2.707,2.707,0,0,1,.96924.62189l.01189.01371a2.68012,2.68012,0,0,1,.77668,1.89.22056.22056,0,0,1-.2203.22024H.21938A.22056.22056,0,0,1,0,17.79969a2.68606,2.68606,0,0,1,.788-1.90376l.0128-.01128a2.6982,2.6982,0,0,1,.95615-.6097,1.74716,1.74716,0,0,1-.29526-.23675l-.00091-.00152a1.739,1.739,0,0,1,0-2.45832l.0128-.01188a1.73385,1.73385,0,0,1,1.217-.49666Zm.919.81964a1.30036,1.30036,0,0,0-1.82759-.01128l-.01036.01128A1.2991,1.2991,0,0,0,2.682,15.10828h.025a1.29468,1.29468,0,0,0,.90252-.38087v.00091a1.30165,1.30165,0,0,0,0-1.83886ZM4.28408,16.207a2.24824,2.24824,0,0,0-1.58383-.65992H2.682a2.246,2.246,0,0,0-1.57286.6487l-.01036.01122a2.2506,2.2506,0,0,0-.64962,1.37334H4.9337a2.24264,2.24264,0,0,0-.63835-1.36292L4.28408,16.207ZM10.609,4.21344h.00183a1.87914,1.87914,0,0,0,1.33275-.55211h0a1.88869,1.88869,0,1,0-1.33458.55211ZM12.88,5.59282a3.20082,3.20082,0,0,0-2.2691-.9397H10.609a3.20926,3.20926,0,0,0-3.2,2.98911h6.40265A3.19885,3.19885,0,0,0,12.88,5.59282Z" style="fill:#a1afba;fill-rule:evenodd"/></g></svg>