<svg xmlns="http://www.w3.org/2000/svg" viewBox="0 0 19.82461 18.4389"><title>social-network-icon-uc-santa-barbara</title><g id="ICONS"><path d="M11.00356,4.381a3.64982,3.64982,0,0,1,2.55582,3.4815.21964.21964,0,0,1-.21939.21938H6.483a.219.219,0,0,1-.21938-.21938A3.646,3.646,0,0,1,8.81673,4.38188a2.34571,2.34571,0,0,1-.55212-.40951,2.32776,2.32776,0,1,1,3.29015-.00092h0v.00092a2.33525,2.33525,0,0,1-.5512.4086ZM9.69249,8.73482a.21982.21982,0,0,1,.43963,0v1.47962a1.8758,1.8758,0,0,1,1.1091.53805l.00092.001a1.87937,1.87937,0,0,1,.22182,2.394l1.18833,1.19813a.21923.21923,0,1,1-.3108.30927l-1.16608-1.17644a1.87963,1.87963,0,0,1-2.49.0329L7.541,14.65569a.21985.21985,0,1,1-.31079-.311l1.15725-1.15634a1.88132,1.88132,0,0,1,1.30508-2.97387V8.73482Zm-.85687,4.31181.00183.00152.01645.01828c.01188.0131.02407.0259.03626.03809l.001.00091A1.44355,1.44355,0,1,0,9.91188,10.641h-.001a1.44368,1.44368,0,0,0-1.07528,2.40561ZM3.64658,10.357a2.326,2.326,0,0,0-1.64537,3.97115,2.3516,2.3516,0,0,0,.55272.41043A3.64768,3.64768,0,0,0,0,18.21951a.21925.21925,0,0,0,.21938.21939h6.8569a.21926.21926,0,0,0,.21939-.21939A3.6526,3.6526,0,0,0,4.74076,14.7368a2.30516,2.30516,0,0,0,.55029-.40861v-.00061h0A2.32593,2.32593,0,0,0,3.64658,10.357ZM4.98,11.34945a1.88609,1.88609,0,0,1,.00091,2.66886H4.98a1.88091,1.88091,0,0,1-1.33184.55273H3.64658A1.88716,1.88716,0,1,1,4.98,11.34945Zm.93634,4.601a3.19559,3.19559,0,0,1,.933,2.0488H.44633a3.21155,3.21155,0,0,1,3.20025-2.9894h.00153a3.19922,3.19922,0,0,1,2.26818.9406ZM16.17461,10.357a2.32627,2.32627,0,0,0-1.64537,3.97115,2.366,2.366,0,0,0,.55211.41043A3.64935,3.64935,0,0,0,12.528,18.21951a.21984.21984,0,0,0,.21938.21939h6.85788a.2198.2198,0,0,0,.21938-.21939,3.652,3.652,0,0,0-2.55552-3.48271,2.32674,2.32674,0,0,0,.5509-.40861l-.00091-.00061H17.82A2.32593,2.32593,0,0,0,16.17461,10.357Zm1.33459.99241a1.88609,1.88609,0,0,1,.00091,2.66886H17.5092a1.88368,1.88368,0,0,1-1.3327.55273h-.00189a1.88716,1.88716,0,1,1,1.33459-3.22159Zm.936,4.601a3.19345,3.19345,0,0,1,.93208,2.0488H12.97466a3.211,3.211,0,0,1,3.2-2.9894h.00189a3.20062,3.20062,0,0,1,2.26873.9406ZM9.90938,4.2143H9.9109a1.88147,1.88147,0,0,0,1.33367-.55273v.00056a1.889,1.889,0,1,0-1.33519.55217ZM12.18,5.59367A3.199,3.199,0,0,0,9.9109,4.654H9.90938a3.20984,3.20984,0,0,0-3.20026,2.9891h6.40357A3.19564,3.19564,0,0,0,12.18,5.59367Z" style="fill:#a1afba;fill-rule:evenodd"/></g></svg>