<svg xmlns="http://www.w3.org/2000/svg" viewBox="0 0 16.42544 16.4294"><title>broken-link-icon-uc-santa-barbara</title><g id="ICONS"><path d="M15.10487,1.32057a4.50693,4.50693,0,0,1,.97748,1.465,4.5591,4.5591,0,0,1,.34224,1.73253h.00085a4.5124,4.5124,0,0,1-1.29406,3.16552.2375.2375,0,0,1-.02651.03291l-2.90744,2.90622a.21776.21776,0,0,1-.31019,0L10.24705,8.98346a.22105.22105,0,0,1,0-.3111l2.90653-2.90623a.25559.25559,0,0,1,.02864-.02346,1.74493,1.74493,0,0,0,.35223-.54236l.00792-.01646a1.81834,1.81834,0,0,0,.12432-.66576,1.791,1.791,0,0,0-.13224-.678,1.74469,1.74469,0,0,0-.38-.56918h0a1.74553,1.74553,0,0,0-.56826-.38027,1.822,1.822,0,0,0-1.3614,0,1.75373,1.75373,0,0,0-.54054.35071.3515.3515,0,0,1-.025.02956L7.75284,6.178a.22.22,0,0,1-.31079,0L5.80178,4.53789a.21939.21939,0,0,1,0-.31018L8.708,1.32057a.36077.36077,0,0,1,.03382-.02686,4.52554,4.52554,0,0,1,6.363.02686ZM6.17809,7.757a.21886.21886,0,0,0,0-.3111L4.5388,5.80575a.22068.22068,0,0,0-.31079,0L1.32148,8.71228A4.48444,4.48444,0,0,0,.34462,10.177a4.53786,4.53786,0,0,0-.34371,1.73374H0a4.51121,4.51121,0,0,0,4.519,4.51808v.00061a4.50895,4.50895,0,0,0,3.16461-1.29284.24186.24186,0,0,0,.03382-.02777l2.90623-2.90618a.2205.2205,0,0,0,0-.3111l-1.6402-1.6402a.22071.22071,0,0,0-.3108,0L5.7704,13.15419l-.00335.00365a.14219.14219,0,0,0-.02407.02829,1.71653,1.71653,0,0,1-.54176.35259v.00086h0a1.81249,1.81249,0,0,1-.68222.132,1.7824,1.7824,0,0,1-.678-.13285,1.75267,1.75267,0,0,1-.55882-.369l-.01036-.011a1.72181,1.72181,0,0,1-.37935-.56913,1.77743,1.77743,0,0,1-.1337-.67887h0a1.77432,1.77432,0,0,1,.1337-.67826,1.72311,1.72311,0,0,1,.37935-.56923L6.17809,7.757ZM2.96168,10.35339l2.75113-2.752-1.3294-1.3291L1.63258,9.02307a4.04081,4.04081,0,0,0-.88271,1.32057,4.09322,4.09322,0,0,0-.3111,1.56707H.43968a4.08379,4.08379,0,0,0,.31019,1.56737,4.071,4.071,0,0,0,2.20236,2.20267,4.10172,4.10172,0,0,0,1.56677.30988V15.99a4.07132,4.07132,0,0,0,2.87454-1.18253l.01127-.01219a.15713.15713,0,0,1,.02925-.02407l2.724-2.72432-1.33-1.3291L6.10222,13.44365c-.00792.01036-.01554.01976-.02407.02925a2.15433,2.15433,0,0,1-.71178.47259l-.00092-.00091a2.23806,2.23806,0,0,1-1.692-.00183,2.14906,2.14906,0,0,1-.69868-.46193l-.0131-.01218a2.15239,2.15239,0,0,1-.475-.71239,2.21227,2.21227,0,0,1-.16575-.84554H2.32a2.2247,2.2247,0,0,1,.16661-.84585,2.18284,2.18284,0,0,1,.475-.71147ZM15.67649,2.95127A4.07923,4.07923,0,0,0,9.03526,1.61948a.22882.22882,0,0,1-.04053.03626L6.268,4.38336,7.59744,5.71159l2.7267-2.7268a.23878.23878,0,0,1,.02315-.02677,2.17838,2.17838,0,0,1,.7127-.47228,2.22479,2.22479,0,0,1,1.692.00091,2.16508,2.16508,0,0,1,.71093.4732l.00085.00092h0l.00091.00091a2.20422,2.20422,0,0,1,.475.71173,2.23234,2.23234,0,0,1,.00768,1.67376l-.00609.01828a2.16878,2.16878,0,0,1-.46808.70721l-.00336.00427c-.00975.00883-.01913.01645-.02955.02437L10.71354,8.82806l1.32947,1.3291,2.72669-2.7268a.15921.15921,0,0,1,.0217-.02586,4.07329,4.07329,0,0,0,1.19442-2.88641h.00085A4.11059,4.11059,0,0,0,15.67649,2.95127Z" style="fill:#a1afba;fill-rule:evenodd"/></g></svg>