<svg xmlns="http://www.w3.org/2000/svg" viewBox="0 0 17.32095 17.3209"><title>global-network-icon-uc-santa-barbara</title><g id="ICONS"><path d="M9.6995,14.53722a1.01663,1.01663,0,0,0,.7194-.29708v-.00092h0a1.01964,1.01964,0,0,0,0-1.437l-.01036-.0103a1.01625,1.01625,0,1,0-.709,1.74532ZM8.59222.44054a8.19226,8.19226,0,0,0-3.57595.84834,10.78112,10.78112,0,0,0-.55,2.55308c-.014.15021-.02529.29982-.03291.45a16.71122,16.71122,0,0,1,3.68625.96895,11.79274,11.79274,0,0,1,2.77521-.80136,1.45573,1.45573,0,0,1,.41378-.837,1.3514,1.3514,0,0,1,.21756-.17886,9.47273,9.47273,0,0,0-1.18681-1.50613A12.56337,12.56337,0,0,0,8.59222.44054Zm-4.13629,1.154A11.43525,11.43525,0,0,0,4.03,3.803c-.0128.14442-.02407.28946-.032.4345A13.03143,13.03143,0,0,0,1.7636,4.18322,8.27529,8.27529,0,0,1,4.45593,1.59449ZM1.4845,4.64515A8.18782,8.18782,0,0,0,.43877,8.66048a8.33727,8.33727,0,0,0,.16575,1.65233,11.046,11.046,0,0,0,1.83186.40774,9.647,9.647,0,0,1,1.08656-1.8803l-.00762-.00792-.00091-.00061A1.45505,1.45505,0,0,1,4.086,6.42179a11.27968,11.27968,0,0,1-.1036-1.74557A12.35723,12.35723,0,0,0,1.4845,4.64515ZM.72275,10.80861a8.16818,8.16818,0,0,0,1.03049,2.313,9.38543,9.38543,0,0,1,.514-1.98633,12.327,12.327,0,0,1-1.54452-.32664Zm1.40954,2.85016a8.94679,8.94679,0,0,1,.57283-2.44065l.00762-.0198a26.39626,26.39626,0,0,0,3.544.20019l.0387.0457a8.645,8.645,0,0,0,2.00127,1.68707,1.47258,1.47258,0,0,0,.10816,1.05462,9.063,9.063,0,0,1-2.09968.88271,8.697,8.697,0,0,1-2.36935.32116,8.20466,8.20466,0,0,1-1.08808-.91624,8.11381,8.11381,0,0,1-.71543-.81476Zm2.45923,2.14661a9.15588,9.15588,0,0,0,1.83094-.31354,9.53945,9.53945,0,0,0,2.24045-.94944l.00793.00792a1.45468,1.45468,0,0,0,2.05733-.00091l.00091.00091a1.49922,1.49922,0,0,0,.23127-.30135,12.287,12.287,0,0,0,1.7569.32024,14.62588,14.62588,0,0,0,1.5695.08557,8.22475,8.22475,0,0,1-9.69523,1.1506ZM14.72369,14.2118a8.26608,8.26608,0,0,0,1.10637-1.52624,8.38144,8.38144,0,0,0-1.69017-2.84864,11.60447,11.60447,0,0,1-1.76025.70569,8.81611,8.81611,0,0,1-1.46408,2.17829,1.45076,1.45076,0,0,1,.20476,1.11764,11.77855,11.77855,0,0,0,1.64355.29465,14.54159,14.54159,0,0,0,1.95982.07861ZM16.104,12.15447a9.11026,9.11026,0,0,0-1.5695-2.52992,6.02127,6.02127,0,0,0,2.26544-2.11949,8.2426,8.2426,0,0,1-.69594,4.64941Zm.56492-5.3579a8.07083,8.07083,0,0,0-.4537-1.38084,9.44714,9.44714,0,0,0-1.2514-.39123,9.91584,9.91584,0,0,0-1.18071-.20324,1.4511,1.4511,0,0,1-.41714.85956,1.42555,1.42555,0,0,1-.3696.26844,7.24738,7.24738,0,0,1,.07252,2.22151,13.40431,13.40431,0,0,1,1.16852,1.11952A5.34707,5.34707,0,0,0,16.6689,6.79657Zm-.72214-1.94484c-.29129-.09933-.58563-.18312-.8818-.25412a10.38643,10.38643,0,0,0-1.29833-.21938,1.45492,1.45492,0,0,0-1.84069-1.12282,9.90428,9.90428,0,0,0-1.2712-1.62192A12.488,12.488,0,0,0,9.36007.46924a8.22472,8.22472,0,0,1,6.58669,4.38249ZM2.53662,2.53687a8.6603,8.6603,0,1,1,0,12.24746,8.529,8.529,0,0,1-.80318-.92507L1.72978,13.855A8.66184,8.66184,0,0,1,2.53662,2.53687Zm8.08429,9.85831a1.453,1.453,0,0,0-1.95007.09689,1.47236,1.47236,0,0,0-.19257.23676,8.22293,8.22293,0,0,1-1.64294-1.3416,23.14029,23.14029,0,0,0,4.21826-.493c.255-.05607.50549-.11762.75321-.185a8.467,8.467,0,0,1-1.18589,1.6859ZM3.94708,8.627a1.50748,1.50748,0,1,1,.00426.00244L3.94708,8.627Zm-.06917.47076a1.44548,1.44548,0,0,0,1.00124.12158,9.02824,9.02824,0,0,0,1.02776,1.74556,25.20126,25.20126,0,0,1-3.01866-.184,9.2173,9.2173,0,0,1,.98966-1.68316Zm1.408-.04235a1.46619,1.46619,0,0,0,.28672-.223A1.45722,1.45722,0,0,0,5.824,7.112,11.09774,11.09774,0,0,1,8.12756,5.73506,17.66531,17.66531,0,0,1,10.2443,6.74477a16.16192,16.16192,0,0,1,2.35716,1.60577,6.866,6.866,0,0,1-.23157,1.00526,7.40311,7.40311,0,0,1-.30744.82665c-.35833.10634-.727.20141-1.10271.28337a23.00522,23.00522,0,0,1-4.49919.49483A8.51048,8.51048,0,0,1,5.28593,9.05537ZM5.55955,6.7622a1.44811,1.44811,0,0,0-1.01648-.4147l-.025.00092a10.88462,10.88462,0,0,1-.09934-1.61613,16.12833,16.12833,0,0,1,3.1378.78612,11.55716,11.55716,0,0,0-1.997,1.24379Zm7.79239-2.16185c.00091.01646.00091.03352.00091.0518a.994.994,0,1,1-.00152-.06581v.00274l.00061.00518v.00609Zm-.77638,1.48724a6.789,6.789,0,0,1,.08654,1.749,16.661,16.661,0,0,0-2.20268-1.47444,18.03849,18.03849,0,0,0-1.7575-.86444,11.23072,11.23072,0,0,1,2.20145-.59507A1.45779,1.45779,0,0,0,12.33729,6.1074a1.42241,1.42241,0,0,0,.23827-.01981ZM13.8358,9.50023a10.68465,10.68465,0,0,1-1.22733.5061c.06642-.1719.12614-.34558.18038-.521a7.52425,7.52425,0,0,0,.20049-.8041Q13.43909,9.07929,13.8358,9.50023Z" style="fill:#a1afba;fill-rule:evenodd"/></g></svg>