<svg xmlns="http://www.w3.org/2000/svg" viewBox="0 0 16.55311 16.55738"><title>hyperlink-icon-uc-santa-barbara</title><g id="ICONS"><path d="M3.27186,10.79119a1.74889,1.74889,0,0,0-.38.56923,1.778,1.778,0,0,0-.13315.67887H2.75784a1.78233,1.78233,0,0,0,.13406.678,1.73234,1.73234,0,0,0,.38.56918l.01036.01036a1.72685,1.72685,0,0,0,.558.3699,1.8002,1.8002,0,0,0,1.36042.00061h.00092l-.00092-.00061a1.71455,1.71455,0,0,0,.56644-.37569l1.67219-1.6722a4.45132,4.45132,0,0,1-.65541-.32572,4.55469,4.55469,0,0,1-.8534-.66947A4.49472,4.49472,0,0,1,4.95259,9.159L4.938,9.12271l-1.6661,1.66762v.00086Zm5.913-1.60633-.057.00057A1.79392,1.79392,0,0,1,8.449,9.05262a1.74578,1.74578,0,0,1-.56826-.37909l-.00091-.00087a1.73141,1.73141,0,0,1-.37936-.56857,1.79292,1.79292,0,0,1-.13284-.67887l.001-.0524.0579-.00092a1.79383,1.79383,0,0,1,.67789.13285,1.72445,1.72445,0,0,1,.56833.37935l.00176.00061a1.73093,1.73093,0,0,1,.37813.56857,1.77762,1.77762,0,0,1,.13407.67887l-.00183.05271Zm-.07008-4.246a4.33174,4.33174,0,0,1,.65487.32633,4.49984,4.49984,0,0,1,1.83124,2.13351l.01548.03686,1.66518-1.66853.00091-.00092h-.00091a1.752,1.752,0,0,0,.38087-.56922,1.79069,1.79069,0,0,0,.13231-.67882h.00054a1.78425,1.78425,0,0,0-.13285-.678,1.7334,1.7334,0,0,0-.38-.56918l-.01036-.01036a1.71758,1.71758,0,0,0-.55881-.3696,1.78753,1.78753,0,0,0-.67827-.13407,1.81158,1.81158,0,0,0-.68222.13316h0V2.891a1.716,1.716,0,0,0-.56583.37569L9.11478,4.93888Zm2.82975,4.19327a4.63655,4.63655,0,0,0-.05271-.68923,4.47621,4.47621,0,0,0-.11762-.546l1.81814-1.82058h0a2.1601,2.1601,0,0,0,.47412-.71269,2.22429,2.22429,0,0,0,.16758-.84554H14.2335a2.2093,2.2093,0,0,0-.167-.84468,2.18528,2.18528,0,0,0-.4732-.71356L13.57955,2.948A2.19234,2.19234,0,0,0,12.88,2.48574a2.23608,2.23608,0,0,0-1.692-.00091V2.48391a2.14093,2.14093,0,0,0-.71086.47168L7.56539,5.86725a2.16284,2.16284,0,0,0-.47229.71182l-.00609.018a2.2385,2.2385,0,0,0,.00853,1.674,2.17958,2.17958,0,0,0,.47418.71147h.00085v.00092l.00091.00086a2.20537,2.20537,0,0,0,.71178.47416,2.2304,2.2304,0,0,0,.83518.16571,1.77121,1.77121,0,0,1-.11152.28947,1.7532,1.7532,0,0,1-.33419.46563l-.01134.01275-.88363.8855a4.04422,4.04422,0,0,1-.76784-.36015,4.10646,4.10646,0,0,1-.76937-.60458,4.05443,4.05443,0,0,1-.88271-1.32052c-.04418-.10634-.08288-.2142-.11853-.32389l-.00244-.01128a4.13194,4.13194,0,0,1-.1883-1.2319A4.06807,4.06807,0,0,1,6.243,4.53972v.00091L9.14952,1.63319l.01127-.01127A4.0684,4.0684,0,0,1,12.035.43877V.43785A4.1102,4.1102,0,0,1,13.60179.748a4.08192,4.08192,0,0,1,2.20359,2.20323,4.12221,4.12221,0,0,1,.309,1.56682h0a4.07347,4.07347,0,0,1-1.19168,2.88824l-.01219.01219-2.8986,2.89429q-.149.1477-.30738.27728c.03863-.11239.07154-.22548.10079-.3403.03565-.14169.0649-.28611.08654-.43115V9.81773l.00335-.01707.00091-.00888.00092-.00849.0025-.01736.00085-.00158.00183-.01549a4.50524,4.50524,0,0,0,.04235-.61671Zm-.58472,2.22309a4.50325,4.50325,0,0,1-.73859.97164l-.00092.001h.00092L7.71469,15.23407l-.0128.01218A4.51231,4.51231,0,0,1,4.519,16.55738v-.00092a4.55183,4.55183,0,0,1-1.73344-.34187A4.50552,4.50552,0,0,1,.344,13.77273,4.5434,4.5434,0,0,1,0,12.03929H.00183A4.554,4.554,0,0,1,.344,10.30494a4.50354,4.50354,0,0,1,.97747-1.46408l.01219-.01193,2.90044-2.8943a4.42239,4.42239,0,0,1,.95949-.73249,4.53558,4.53558,0,0,1,.7386-.97169h0L8.83842,1.32331l.0131-.01219A4.5165,4.5165,0,0,1,12.035,0h0a4.53978,4.53978,0,0,1,1.73344.3437,4.496,4.496,0,0,1,2.44095,2.441,4.55,4.55,0,0,1,.3437,1.73344H16.5525a4.54858,4.54858,0,0,1-.34309,1.73435,4.48633,4.48633,0,0,1-.97687,1.46408l-.0128.01188-2.89952,2.89521a4.54139,4.54139,0,0,1-.96041.73163Zm-6.75-3.93a4.617,4.617,0,0,0,.17,1.23526L2.96168,10.48106l-.00061-.00066a2.19555,2.19555,0,0,0-.47442.71335,2.23017,2.23017,0,0,0-.16758.84554H2.32a2.2319,2.2319,0,0,0,.16667.84463,2.189,2.189,0,0,0,.47442.71356l.01378.01218a2.1726,2.1726,0,0,0,.69952.462,2.24588,2.24588,0,0,0,1.69108.00091v.00091a2.15383,2.15383,0,0,0,.71178-.47167L8.988,10.69008a2.1358,2.1358,0,0,0,.47228-.71147l.0061-.01829a2.23064,2.23064,0,0,0-.00756-1.6731,2.172,2.172,0,0,0-.47509-.71239V7.57392H8.98285a2.17991,2.17991,0,0,0-.71178-.47411,2.243,2.243,0,0,0-.83518-.16759A1.74457,1.74457,0,0,1,7.88166,6.178l.011-.01183.88363-.88638a4.13281,4.13281,0,0,1,.76784.36107,4.09386,4.09386,0,0,1,1.65147,1.92449q.06618.159.11816.32389l.00372.01128a4.12988,4.12988,0,0,1,.18824,1.23159A4.06624,4.06624,0,0,1,10.311,12.01766v-.00092L7.4039,14.92419l-.01128.01127A4.06073,4.06073,0,0,1,4.519,16.11861v.00091a4.107,4.107,0,0,1-1.56677-.31018A4.08033,4.08033,0,0,1,.749,13.60606a4.11769,4.11769,0,0,1-.30921-1.56677h-.001A4.12061,4.12061,0,0,1,.749,10.47161a4.06369,4.06369,0,0,1,.88272-1.3197l.01127-.01219L4.54246,6.24543a4.02134,4.02134,0,0,1,.30653-.2788c-.03809.113-.07069.22608-.10025.341a4.31631,4.31631,0,0,0-.08623.4311h0l-.00365.01741-.00061.00945-.00183.00853-.00268.01737v.00183l-.00159.01549A4.45038,4.45038,0,0,0,4.6098,7.42522Z" style="fill:#a1afba;fill-rule:evenodd"/></g></svg>