<svg xmlns="http://www.w3.org/2000/svg" viewBox="0 0 21.77505 16.58175"><title>masquerade-icon-UC-Santa-Barbara</title><g id="ICONS"><path d="M10.88722.43968H1.3182A.87831.87831,0,0,0,.69685.69624L.69624.69807a.872.872,0,0,0-.25747.62V7.62232a.87164.87164,0,0,0,.10634.42144.88064.88064,0,0,0,.30744.3172l1.45288.90673a.8382.8382,0,0,0,.46619.13382H7.1059a.83869.83869,0,0,0,.46619-.13382L9.27536,8.20526a1.27816,1.27816,0,0,1,.69807-.20111h1.82911a1.27763,1.27763,0,0,1,.69715.20111L14.203,9.26769a.8386.8386,0,0,0,.46558.13382h4.335a.84091.84091,0,0,0,.46565-.13382L20.92257,8.361a.8923.8923,0,0,0,.30775-.3172.8822.8822,0,0,0,.10505-.4284V1.31808a.88012.88012,0,0,0-.87814-.8784ZM.43877,8.59832v7.764a.21939.21939,0,0,1-.43877,0V1.31808A1.315,1.315,0,0,1,.38423.38971L.38605.38788H.387L.38788.387A1.31311,1.31311,0,0,1,1.3182,0h19.139a1.32121,1.32121,0,0,1,1.31782,1.31808V7.61536A1.29641,1.29641,0,0,1,21.15414,8.733l-1.45379.9071a1.267,1.267,0,0,1-.69685.20018h-4.335a1.26708,1.26708,0,0,1-.69715-.20018L12.26721,8.57668a.86385.86385,0,0,0-.22183-.09994.881.881,0,0,0-.24284-.032H9.97343a.8441.8441,0,0,0-.4665.13193L7.80366,9.64009a1.2671,1.2671,0,0,1-.69776.20018H2.77162a1.26672,1.26672,0,0,1-.69777-.20018L.62006,8.733a1.3977,1.3977,0,0,1-.18129-.13467ZM6.37249,6.16194H3.82185a.77237.77237,0,0,1-.54328-.22548l-.0128-.01462a.7677.7677,0,0,1-.21268-.52957V3.52751a.76934.76934,0,0,1,.22548-.54328l.00091-.00092a.76723.76723,0,0,1,.54237-.22547H7.7284a.76783.76783,0,0,1,.54267.22547v.00092l.00061-.00092a.7638.7638,0,0,1,.22548.5442v1.0183a.756.756,0,0,1-.09568.37326v.00152a.75534.75534,0,0,1-.26631.27728l-1.35591.84646a.72952.72952,0,0,1-.19531.088.76251.76251,0,0,1-.21146.0296ZM3.82185,5.72226a.32724.32724,0,0,1-.23218-.0969l-.00884-.00853a.32661.32661,0,0,1-.089-.22456V3.52751a.32925.32925,0,0,1,.33-.33H7.7284a.33272.33272,0,0,1,.2334.096l-.00091.00091a.32481.32481,0,0,1,.09659.2331v1.0183a.3286.3286,0,0,1-.03779.16149h0a.34768.34768,0,0,1-.11578.11914L6.54769,5.672a.30262.30262,0,0,1-.08379.03809.29636.29636,0,0,1-.09141.01219Zm11.58437,0a.29363.29363,0,0,1-.0908-.01219.30673.30673,0,0,1-.08379-.03809l-1.35531-.84554a.331.331,0,0,1-.11548-.11914h-.00091a.32636.32636,0,0,1-.039-.16149V3.52751a.32925.32925,0,0,1,.33-.33h3.90655a.3328.3328,0,0,1,.22456.08806l.00854.00883a.33141.33141,0,0,1,.09689.2331V5.39227a.33414.33414,0,0,1-.09689.23309.33027.33027,0,0,1-.2331.0969Zm2.55125.43968H15.40622a.77454.77454,0,0,1-.21177-.0296.74761.74761,0,0,1-.19524-.088l-1.35507-.84646a.76445.76445,0,0,1-.26691-.27728V4.91907a.76206.76206,0,0,1-.09507-.37326V3.52751a.76934.76934,0,0,1,.22548-.54328l.00091-.00092a.76668.76668,0,0,1,.54237-.22547h3.90655a.7694.7694,0,0,1,.52957.21268l.01371.01279a.76886.76886,0,0,1,.22548.5442V5.39227a.76984.76984,0,0,1-.76876.76967Z" style="fill:#a1afba;fill-rule:evenodd"/></g></svg>