<svg xmlns="http://www.w3.org/2000/svg" viewBox="0 0 18.14303 16.95501"><title>megaphone-icon-uc-santa-barbara</title><g id="ICONS"><path d="M8.99108,2.66551H3.714a.32848.32848,0,0,0-.2334.09684l-.00853.00859a.32923.32923,0,0,0-.08806.22365v7.4953a.32772.32772,0,0,0,.33.33h5.2771a.33514.33514,0,0,0,.23431-.096l-.00091-.00061a.32928.32928,0,0,0,.09658-.2334V2.99459a.33019.33019,0,0,0-.33-.32908ZM8.16625,13.25474h.1816a.325.325,0,0,0,.23219-.096h0a.33.33,0,0,0,.09689-.233v-1.6661H8.16625v1.99518Zm.95006-2.00554v1.67646a.765.765,0,0,1-.22609.54328h0a.76779.76779,0,0,1-.54237.22548h-.1816v1.94246A1.32015,1.32015,0,0,1,6.84843,16.955H5.857a1.31483,1.31483,0,0,1-.9288-.38453l-.00244-.00183V16.568h0a1.31409,1.31409,0,0,1-.387-.93116V11.25956H3.714a.76507.76507,0,0,1-.54236-.22547l-.00183-.00183a.7651.7651,0,0,1-.22548-.54237v-.40866H2.11949a.762.762,0,0,1-.54236-.22511L1.57621,9.8552a.76471.76471,0,0,1-.22639-.54236V8.48863H.76876a.77082.77082,0,0,1-.54328-.22457V8.26254A.7651.7651,0,0,1,0,7.71981V5.76553a.76114.76114,0,0,1,.21238-.52866l.0131-.01462a.76593.76593,0,0,1,.54328-.22548h.58106V4.17286a.77127.77127,0,0,1,.21359-.52957l.0128-.01371a.7666.7666,0,0,1,.54328-.22548h.82482V2.99459a.76829.76829,0,0,1,.21238-.52866l.0131-.01371A.76951.76951,0,0,1,3.714,2.22674h5.2771a.76827.76827,0,0,1,.76875.76785V3.4041H10.9442a.72009.72009,0,0,0,.29617-.06587,2.30979,2.30979,0,0,0,.31871-.1785L16.43824.046A.21957.21957,0,0,1,16.7923.2203V4.99677h.58137a.76931.76931,0,0,1,.76936.76876V7.71981a.76914.76914,0,0,1-.22517.54425L17.917,8.26315l-.001.00091a.768.768,0,0,1-.54236.22457H16.7923v4.53118h-.00092a.21931.21931,0,0,1-.33669.18459l-4.89561-3.12372a2.38265,2.38265,0,0,0-.31871-.17977.7404.7404,0,0,0-.29617-.0649H9.75983v.65388a.77118.77118,0,0,1-.22456.5442l-.00092-.00092v.00092a.76664.76664,0,0,1-.418.21511ZM16.35262.62031,11.794,3.52842a2.68006,2.68006,0,0,1-.38088.21329,1.141,1.141,0,0,1-.46893.10116H9.75983V9.39663H10.9442a1.14033,1.14033,0,0,1,.46893.10177,2.588,2.588,0,0,1,.38088.21329l4.55861,2.908V.62031ZM1.34982,5.43645H.76876a.33087.33087,0,0,0-.2334.09659L.52683,5.541a.32918.32918,0,0,0-.08806.22457V7.71981a.32978.32978,0,0,0,.33.33005h.58106V5.43645Zm16.02385,0H16.7923V8.04986h.58137a.33287.33287,0,0,0,.234-.09659h-.00091a.33161.33161,0,0,0,.097-.23346V5.76553a.33043.33043,0,0,0-.33006-.32908ZM4.97849,11.25956v4.37732a.875.875,0,0,0,.25716.621v.00091a.8768.8768,0,0,0,.62136.25747h.99142a.88166.88166,0,0,0,.87906-.87936V11.25956ZM2.94431,3.84287H2.11949a.32945.32945,0,0,0-.23249.09659l-.00937.00945a.32939.32939,0,0,0-.08813.22395v5.14a.33022.33022,0,0,0,.33.32963h.82482Z" style="fill:#a1afba;fill-rule:evenodd"/></g></svg>