<svg xmlns="http://www.w3.org/2000/svg" viewBox="0 0 13.43085 16.04696"><title>Artboard 206</title><g id="ICONS"><path d="M12.11272,16.047H1.31813A1.318,1.318,0,0,1,0,14.72888V8.321A1.31551,1.31551,0,0,1,.38605,7.3908L.387,7.38988h0L.38941,7.3874a1.31756,1.31756,0,0,1,.578-.336V5.74725A5.75191,5.75191,0,0,1,8.91612.436a5.75284,5.75284,0,0,1,3.55255,5.3164l-.001,1.29893A1.32141,1.32141,0,0,1,13.43085,8.321v6.40784a1.31587,1.31587,0,0,1-.386.93111l-.00092.001a1.31382,1.31382,0,0,1-.93116.386ZM6.71619,8.74519a1.54525,1.54525,0,0,0-.98967,2.73432L5.72567,13.3367a.77128.77128,0,0,0,.76784.76876v-.00091h.44115a.76984.76984,0,0,0,.76875-.76785h0V11.47951a1.54494,1.54494,0,0,0-.98722-2.73432Zm.78247.76175a1.10812,1.10812,0,1,0-1.42691,1.6859v.00091a.21675.21675,0,0,1,.09269.178l-.001,1.965a.33039.33039,0,0,0,.33.32908v.00091h.44115a.33038.33038,0,0,0,.33-.33h.00091V11.383a.2214.2214,0,0,1,.09233-.18922,1.11571,1.11571,0,0,0,.34309-.3955,1.10977,1.10977,0,0,0-.20232-1.29131Zm-6.09339-2.504H2.5677V5.74812A4.13534,4.13534,0,0,1,3.78833,2.81665,4.12584,4.12584,0,0,1,6.71954,1.60059a4.11684,4.11684,0,0,1,1.58413.31506,4.19117,4.19117,0,0,1,2.2499,2.25173,4.11156,4.11156,0,0,1,.31354,1.58413v1.2514h1.16365V5.75243A5.31275,5.31275,0,0,0,1.40527,5.74725V7.00291Zm1.60029,0h7.4237V5.75151a3.66879,3.66879,0,0,0-.28063-1.41563,3.73969,3.73969,0,0,0-2.01407-2.015A3.69261,3.69261,0,0,0,5.30391,2.32a3.73043,3.73043,0,0,0-2.015,2.01254,3.6775,3.6775,0,0,0-.28337,1.41559V7.00291Zm-.16576.43877a.21532.21532,0,0,1-.05271.007H1.82515l-.03992.00091L1.7438,7.452H1.72734V7.453H1.18071a.8746.8746,0,0,0-.48386.24711H.69624a.87576.87576,0,0,0-.25747.621v6.40784a.88012.88012,0,0,0,.87936.87845H12.11272a.87719.87719,0,0,0,.62189-.25656v-.00092a.87546.87546,0,0,0,.25748-.621V8.321a.87968.87968,0,0,0-.7428-.86808H10.64773a.19422.19422,0,0,1-.06734-.01128Z" style="fill:#a1afba;fill-rule:evenodd"/></g></svg>