<svg xmlns="http://www.w3.org/2000/svg" viewBox="0 0 16.40472 14.16574"><title>picture-text-icon-uc-santa-barbara</title><g id="ICONS"><path d="M.2203,10.83877a.21984.21984,0,1,1,0-.43968H16.18442a.21984.21984,0,1,1,0,.43968ZM.4406,4.2987l1.47078-.99245a.22078.22078,0,0,1,.27027.01985L4.43186,5.21432,6.864,4.14666V.43968H.4406v3.859ZM6.864,4.62534V6.864H.4406V4.82736l1.579-1.06406,2.2343,1.87517a.2177.2177,0,0,0,.23828.02742L6.864,4.62534ZM5.12535.90522a1.144,1.144,0,0,1,.8102.33582l.00091.00092a1.14689,1.14689,0,1,1-1.62222,0L4.31516,1.241A1.143,1.143,0,0,1,5.12535.90522Zm.50093.646a.71145.71145,0,1,1-.50093-.20624.70529.70529,0,0,1,.50093.20624ZM.2203,0H7.08335a.22061.22061,0,0,1,.2203.2203V7.08335a.21925.21925,0,0,1-.2203.21938H.2203A.21983.21983,0,0,1,0,7.08335V.2203A.2212.2212,0,0,1,.2203,0ZM8.73824,7.30273a.21938.21938,0,0,1,0-.43876h7.44618a.21938.21938,0,1,1,0,.43876Zm0-3.53512a.2203.2203,0,0,1,0-.4406h7.44618a.2203.2203,0,1,1,0,.4406Zm0-3.32793a.21984.21984,0,0,1,0-.43968h7.44618a.21984.21984,0,1,1,0,.43968ZM.2203,14.16574a.21939.21939,0,1,1,0-.43877H16.18442a.21939.21939,0,1,1,0,.43877Z" style="fill:#a1afba;fill-rule:evenodd"/></g></svg>