<svg xmlns="http://www.w3.org/2000/svg" viewBox="0 0 18.16314 18.16223"><title>pie-chart-icon-uc-santa-barbara</title><g id="ICONS"><path d="M9.08211.43877A8.64288,8.64288,0,1,0,15.192,2.97021,8.61528,8.61528,0,0,0,9.08211.43877Zm6.69364,6.928A6.91146,6.91146,0,0,1,12.54624,15.058l-.02681.01645a6.88793,6.88793,0,0,1-5.22621.6807c-.13833-.03717-.27453-.07861-.41006-.12432l2.36471-6.37,6.52788-1.894Zm-5.93554,1.266,4.28072-4.28048a6.882,6.882,0,0,1,.93786,1.26365l.0061.01127a6.88261,6.88261,0,0,1,.58837,1.31874l-5.813,1.68682Zm-.71141.09171L5.81787,2.99093a6.91988,6.91988,0,0,1,7.99288,1.0503L9.1288,8.72446Zm5.14333-4.84624.00609.0067.00664.00792a7.38887,7.38887,0,0,1,1.15237,1.50187l.00762.0131A7.3458,7.3458,0,0,1,12.75527,15.444h-.00092A7.345,7.345,0,0,1,2.72577,12.76844a.29634.29634,0,0,1-.01614-.02865A7.34678,7.34678,0,0,1,5.394,2.72584a.16133.16133,0,0,1,.03267-.018,7.35126,7.35126,0,0,1,8.84543,1.17035ZM6.47267,15.47965a6.885,6.885,0,0,1-3.36846-2.93243.11119.11119,0,0,0-.0131-.02254A6.91055,6.91055,0,0,1,5.43889,3.21031L8.84018,9.10168l-2.36751,6.378ZM2.66026,2.65942A9.08091,9.08091,0,1,1,0,9.081,9.053,9.053,0,0,1,2.66026,2.65942Z" style="fill:#a1afba;fill-rule:evenodd"/></g></svg>