<svg xmlns="http://www.w3.org/2000/svg" viewBox="0 0 15.79045 17.00894"><title>roundabout-icon-uc-santa-barbara</title><g id="ICONS"><path d="M7.21468,3.49881H8.57577a3.7234,3.7234,0,0,1,3.71581,3.71556v5.856h2.18074a.87116.87116,0,0,0,.621-.25716h.00092a.87554.87554,0,0,0,.25747-.62134V7.68605A7.26193,7.26193,0,0,0,8.10409.43938H7.687A7.25985,7.25985,0,0,0,.43968,7.68605V9.322A7.25985,7.25985,0,0,0,7.687,16.56926h7.8841a.21984.21984,0,0,1,0,.43968H7.687A7.69936,7.69936,0,0,1,0,9.322V7.68605A7.70094,7.70094,0,0,1,7.687,0h.41713a7.70148,7.70148,0,0,1,7.68636,7.68605v4.50584a1.31157,1.31157,0,0,1-.38453.92786l-.00153.00244h-.00091v.00092a1.31463,1.31463,0,0,1-.93116.387H12.0722a.21983.21983,0,0,1-.2203-.21938V9.05506l-4.39133,4.391a.22132.22132,0,0,1-.1554.064H7.21468v-.00091a3.7212,3.7212,0,0,1-3.71581-3.7149V7.21437A3.72286,3.72286,0,0,1,7.21468,3.49881Zm1.36109.43974H7.21468A3.28166,3.28166,0,0,0,3.93855,7.21437V9.79426a3.28375,3.28375,0,0,0,3.27521,3.27705l.00092-.00092h0L11.8519,8.43317V7.21437A3.28167,3.28167,0,0,0,8.57577,3.93855Z" style="fill:#a1afba;fill-rule:evenodd"/></g></svg>