<svg xmlns="http://www.w3.org/2000/svg" viewBox="0 0 16.40442 14.16574"><title>word-text-icon-uc-santa-barbara</title><g id="ICONS"><path d="M.2203,10.83877a.21984.21984,0,1,1,0-.43968H16.18442a.21984.21984,0,1,1,0,.43968ZM.01889,6.99529,2.64814.14169A.21992.21992,0,0,1,2.8529.00091V0h.9985a.22056.22056,0,0,1,.2072.14778L6.84934,7.00139a.22155.22155,0,0,1-.121.28581.2346.2346,0,0,1-.08288.01553H5.61172a.22149.22149,0,0,1-.20909-.152L4.66678,5.22281H2.08232l-.69167,1.934a.22072.22072,0,0,1-.2072.146H.2203a.21856.21856,0,0,1-.20141-.30744ZM3.00312.43968.53993,6.864h.48874l.69014-1.92784a.22.22,0,0,1,.20909-.153h2.89a.21948.21948,0,0,1,.20537.14169L5.76278,6.864h.55608L3.70454.43968Zm-.493,3.60521H4.21674L3.61289,2.44l-.00433-.0131q-.15038-.40266-.25565-.70721-.08912.30022-.19957.60636l-.00518.01122-.638,1.70759Zm2.02351.44029a.22114.22114,0,0,0,.22029-.22.23648.23648,0,0,0-.02072-.09262l-.71-1.887L4.019,2.2758c-.0969-.26082-.18831-.51646-.27393-.76423-.08288-.24524-.153-.45944-.209-.64531A.22082.22082,0,0,0,3.263.71848.21847.21847,0,0,0,3.10946.8949q-.06754.31713-.16.63987c-.06307.21847-.13285.43268-.208.641l-.00251.00858L1.99,4.189a.21906.21906,0,0,0,.12859.28154.2328.2328,0,0,0,.07617.0131v.00153ZM8.73817,7.30273a.21938.21938,0,1,1,0-.43876h7.44625a.21938.21938,0,1,1,0,.43876Zm0-3.53512a.2203.2203,0,0,1,0-.4406h7.44625a.2203.2203,0,0,1,0,.4406Zm0-3.32793a.21984.21984,0,0,1,0-.43968h7.44625a.21984.21984,0,1,1,0,.43968ZM.2203,14.16574a.21939.21939,0,1,1,0-.43877H16.18442a.21939.21939,0,1,1,0,.43877Z" style="fill:#a1afba;fill-rule:evenodd"/></g></svg>