<svg version="1.1" id="Template" xmlns="http://www.w3.org/2000/svg" xmlns:xlink="http://www.w3.org/1999/xlink" x="0px" y="0px"
	 viewBox="0 0 467.5 87" style="enable-background:new 0 0 467.5 87;" xml:space="preserve" class="lockup1">
<path d="M4.1,73.5h3.8V49.2H4.1v-2.9h11.7c10.3,0,15.2,6.4,15.2,14.7v0.4c0,8.3-4.8,14.9-15.3,14.9H4.1V73.5z
	 M15.6,73.4c7.7,0,11.6-4.6,11.6-12v-0.3c0-6.9-3.4-11.8-11.6-11.8h-4.1v24.1H15.6z M33.9,65.6v-0.3c0-6.6,4.2-11.3,10.3-11.3
	C49.2,54,54,57.1,54,65v1.1H37.5c0.2,5,2.6,7.8,7.1,7.8c3.4,0,5.4-1.3,5.8-3.8h3.5c-0.8,4.4-4.4,6.7-9.4,6.7
	C38.3,76.8,33.9,72.4,33.9,65.6z M50.5,63.3c-0.3-4.5-2.7-6.3-6.3-6.3c-3.6,0-6,2.4-6.6,6.3H50.5z M56.3,84v-2.7h3.1v-24h-3.2v-2.9
	h6.6v3.9c1.3-2.3,4.2-4.2,7.4-4.2c5.8,0,10,4.2,10,11v0.3c0,6.7-3.9,11.3-10,11.3c-3.6,0-6.2-1.8-7.4-4.1v8.6h3.4V84H56.3z
	 M76.7,65.6v-0.3c0-5.5-3.1-8.3-6.8-8.3c-4.1,0-7.2,2.7-7.2,8.3v0.3c0,5.5,3,8.3,7.2,8.3C74.3,73.9,76.7,70.9,76.7,65.6z M90,76.8
	c-4,0-7.1-2-7.1-6.5c0-5.1,5.3-6.8,10.8-6.8h3.1v-1.6c0-3.7-1.5-5-4.6-5c-2.9,0-4.5,1.1-4.9,3.9h-3.5c0.4-5.2,4.4-6.8,8.5-6.8
	c4.1,0,7.9,1.5,7.9,7.9v11.8h2.9v2.7h-6.4v-3C95.3,75.6,93.2,76.8,90,76.8z M96.8,68.7V66h-2.9c-4.3,0-7.5,1.1-7.5,4.3
	c0,2,1,3.7,4,3.7C94,74,96.8,72.1,96.8,68.7z M105.1,76.4v-2.7h3.1V57.3H105v-2.9h6.6v4.2c1-2.3,3.3-4.5,7.9-4.6v3.4
	c-4.8,0-7.9,1.5-7.9,6.8v9.3h3.4v2.7H105.1z M124.8,70.9V57.3h-3.2v-2.9h3.2v-5h3.5v5h5.7v2.9h-5.7v13.2c0,2.1,1,3.2,3.2,3.2
	c0.9,0,1.8-0.2,2.9-0.5v2.9c-1,0.3-1.9,0.5-3.2,0.5C126.7,76.7,124.8,74.3,124.8,70.9z M136.7,76.4v-2.7h3.1V57.3h-3.2v-2.9h6.6V58
	c0.9-2.1,3.3-4,6.4-4c2.8,0,5.3,1.2,6.4,4.5c1.5-3.1,4.5-4.5,7.3-4.5c3.9,0,7.3,2.4,7.3,8.7v10.9h3.1v2.7H164v-2.7h3.2V62.5
	c0-3.9-1.5-5.5-4.5-5.5c-2.9,0-5.7,1.9-5.7,5.9v10.7h3.2v2.7h-9.8v-2.7h3.2V62.5c0-3.9-1.5-5.5-4.5-5.5c-2.9,0-5.7,1.9-5.7,5.9v10.7
	h3.2v2.7H136.7z M175.6,65.6v-0.3c0-6.6,4.2-11.3,10.3-11.3c5.1,0,9.9,3.1,9.9,10.9v1.1h-16.6c0.2,5,2.6,7.8,7.1,7.8
	c3.4,0,5.4-1.3,5.8-3.8h3.5c-0.8,4.4-4.4,6.7-9.4,6.7C180,76.8,175.6,72.4,175.6,65.6z M192.2,63.3c-0.3-4.5-2.7-6.3-6.3-6.3
	c-3.6,0-6,2.4-6.6,6.3H192.2z M198.3,76.4v-2.7h3.1V57.3h-3.2v-2.9h6.6v3.7c1-2.1,3.4-4.1,6.9-4.1c4.4,0,7.6,2.4,7.6,8.7v10.9h3.1
	v2.7h-9.7v-2.7h3.2V62.5c0-3.7-1.7-5.4-5.1-5.4c-3.1,0-6,2.1-6,5.9v10.7h3.2v2.7H198.3z M226.4,70.9V57.3h-3.2v-2.9h3.2v-5h3.5v5
	h5.7v2.9h-5.7v13.2c0,2.1,1,3.2,3.2,3.2c0.9,0,1.8-0.2,2.9-0.5v2.9c-1,0.3-1.9,0.5-3.2,0.5C228.3,76.7,226.4,74.3,226.4,70.9z
	 M258.4,76.4h-11v-2.9h3.8V49.2h-3.8v-2.9h8.5l14.9,25V49.2h-3.9v-2.9h11v2.9h-3.8v27.2H270l-15.5-25.8v23h3.9V76.4z M286.9,76.8
	c-4,0-7.1-2-7.1-6.5c0-5.1,5.3-6.8,10.8-6.8h3.1v-1.6c0-3.7-1.5-5-4.6-5c-2.9,0-4.5,1.1-4.9,3.9h-3.5c0.4-5.2,4.4-6.8,8.5-6.8
	c4.1,0,7.9,1.5,7.9,7.9v11.8h2.9v2.7h-6.4v-3C292.2,75.6,290,76.8,286.9,76.8z M293.6,68.7V66h-2.9c-4.3,0-7.5,1.1-7.5,4.3
	c0,2,1,3.7,4,3.7C290.8,74,293.6,72.1,293.6,68.7z M301.9,76.4v-2.7h3.1V57.3h-3.2v-2.9h6.6V58c0.9-2.1,3.3-4,6.4-4
	c2.8,0,5.3,1.2,6.4,4.5c1.5-3.1,4.5-4.5,7.3-4.5c3.9,0,7.3,2.4,7.3,8.7v10.9h3.1v2.7h-9.7v-2.7h3.2V62.5c0-3.9-1.5-5.5-4.5-5.5
	c-2.9,0-5.7,1.9-5.7,5.9v10.7h3.2v2.7h-9.8v-2.7h3.2V62.5c0-3.9-1.5-5.5-4.5-5.5c-2.9,0-5.7,1.9-5.7,5.9v10.7h3.2v2.7H301.9z
	 M340.8,65.6v-0.3c0-6.6,4.2-11.3,10.3-11.3c5.1,0,9.9,3.1,9.9,10.9v1.1h-16.6c0.2,5,2.6,7.8,7.1,7.8c3.4,0,5.4-1.3,5.8-3.8h3.5
	c-0.8,4.4-4.4,6.7-9.4,6.7C345.2,76.8,340.8,72.4,340.8,65.6z M357.4,63.3c-0.3-4.5-2.7-6.3-6.3-6.3c-3.6,0-6,2.4-6.6,6.3H357.4z
	 M372.6,76.4v-2.9h3.8V49.2h-3.8v-2.9h11.5v2.9H380V60h15.8V49.2h-4.1v-2.9h11.5v2.9h-3.8v24.3h3.8v2.9h-11.5v-2.9h4.1V63H380v10.5
	h4.1v2.9H372.6z M405.5,65.6v-0.3c0-6.6,4.2-11.3,10.3-11.3c5.1,0,9.9,3.1,9.9,10.9v1.1h-16.6c0.2,5,2.6,7.8,7.1,7.8
	c3.4,0,5.4-1.3,5.8-3.8h3.5c-0.8,4.4-4.4,6.7-9.4,6.7C409.9,76.8,405.5,72.4,405.5,65.6z M422.1,63.3c-0.3-4.5-2.7-6.3-6.3-6.3
	c-3.6,0-6,2.4-6.6,6.3H422.1z M428.1,76.4v-2.7h3.1V57.3H428v-2.9h6.6v4.2c1.1-2.3,3.3-4.5,7.9-4.6v3.4c-4.8,0-7.9,1.5-7.9,6.8v9.3
	h3.4v2.7H428.1z M444.3,65.6v-0.3c0-6.6,4.2-11.3,10.3-11.3c5.1,0,9.9,3.1,9.9,10.9v1.1h-16.6c0.2,5,2.6,7.8,7.1,7.8
	c3.4,0,5.4-1.3,5.8-3.8h3.5c-0.8,4.4-4.4,6.7-9.4,6.7C448.7,76.8,444.3,72.4,444.3,65.6z M460.9,63.3c-0.3-4.5-2.7-6.3-6.3-6.3
	c-3.6,0-6,2.4-6.6,6.3H460.9z M242.5,4.4h3.6l8.7,20h-5l-1.7-4.2h-7.8l-1.7,4.2h-4.9L242.5,4.4z M244.2,10.2l-2.4,6.2h4.9
	L244.2,10.2z M217.2,4.4h7.4c0.9,0,1.7,0.1,2.6,0.2c0.9,0.1,1.7,0.4,2.4,0.7c0.7,0.4,1.3,0.9,1.7,1.5c0.4,0.7,0.6,1.5,0.6,2.6
	c0,1.1-0.3,2.1-0.9,2.8c-0.6,0.7-1.5,1.3-2.5,1.6v0.1c0.7,0.1,1.3,0.3,1.8,0.5c0.5,0.3,1,0.6,1.4,1c0.4,0.4,0.7,0.9,0.9,1.5
	c0.2,0.6,0.3,1.2,0.3,1.8c0,1.1-0.2,1.9-0.7,2.6c-0.5,0.7-1,1.3-1.7,1.7c-0.7,0.4-1.5,0.7-2.4,0.9c-0.9,0.2-1.8,0.3-2.7,0.3h-8.2
	V4.4z M221.6,12.4h3.2c0.3,0,0.7,0,1-0.1c0.3-0.1,0.6-0.2,0.9-0.4c0.3-0.2,0.5-0.4,0.6-0.7c0.2-0.3,0.2-0.6,0.2-1
	c0-0.4-0.1-0.8-0.3-1c-0.2-0.3-0.4-0.5-0.7-0.6c-0.3-0.2-0.6-0.3-1-0.3c-0.4-0.1-0.7-0.1-1-0.1h-3V12.4z M221.6,20.6h3.9
	c0.3,0,0.7,0,1-0.1c0.3-0.1,0.7-0.2,0.9-0.4c0.3-0.2,0.5-0.4,0.7-0.7c0.2-0.3,0.3-0.7,0.3-1.1c0-0.5-0.1-0.9-0.4-1.1
	c-0.2-0.3-0.5-0.5-0.9-0.7c-0.4-0.2-0.7-0.3-1.2-0.3c-0.4-0.1-0.8-0.1-1.2-0.1h-3.3V20.6z M256.9,4.4h7.7c1,0,2,0.1,2.9,0.3
	c0.9,0.2,1.7,0.5,2.4,1c0.7,0.5,1.2,1.1,1.6,1.9c0.4,0.8,0.6,1.8,0.6,2.9c0,1.4-0.4,2.6-1.1,3.6c-0.7,1-1.8,1.6-3.2,1.9l5.1,8.4
	h-5.3l-4.2-8h-2.2v8h-4.4V4.4z M261.3,12.7h2.6c0.4,0,0.8,0,1.3,0c0.4,0,0.8-0.1,1.2-0.3c0.4-0.1,0.7-0.4,0.9-0.7
	c0.2-0.3,0.4-0.7,0.4-1.3c0-0.5-0.1-0.9-0.3-1.2c-0.2-0.3-0.5-0.5-0.8-0.7c-0.3-0.2-0.7-0.3-1.1-0.3c-0.4-0.1-0.8-0.1-1.2-0.1h-2.9
	V12.7z M183.1,4.4h3.6l8.7,20h-5l-1.7-4.2H181l-1.7,4.2h-4.9L183.1,4.4z M184.8,10.2l-2.4,6.2h4.9L184.8,10.2z M283.2,4.4h3.6
	l8.7,20h-5l-1.7-4.2h-7.8l-1.7,4.2h-4.9L283.2,4.4z M284.9,10.2l-2.4,6.2h4.9L284.9,10.2z M157.7,4.4h7.4c0.9,0,1.7,0.1,2.6,0.2
	c0.9,0.1,1.7,0.4,2.4,0.7c0.7,0.4,1.3,0.9,1.7,1.5c0.4,0.7,0.6,1.5,0.6,2.6c0,1.1-0.3,2.1-0.9,2.8c-0.6,0.7-1.5,1.3-2.5,1.6v0.1
	c0.7,0.1,1.3,0.3,1.8,0.5c0.5,0.3,1,0.6,1.4,1c0.4,0.4,0.7,0.9,0.9,1.5c0.2,0.6,0.3,1.2,0.3,1.8c0,1.1-0.2,1.9-0.7,2.6
	c-0.5,0.7-1,1.3-1.7,1.7c-0.7,0.4-1.5,0.7-2.4,0.9c-0.9,0.2-1.8,0.3-2.7,0.3h-8.2V4.4z M162.1,12.4h3.2c0.3,0,0.7,0,1-0.1
	c0.3-0.1,0.6-0.2,0.9-0.4c0.3-0.2,0.5-0.4,0.6-0.7c0.2-0.3,0.2-0.6,0.2-1c0-0.4-0.1-0.8-0.3-1c-0.2-0.3-0.4-0.5-0.7-0.6
	c-0.3-0.2-0.6-0.3-1-0.3c-0.4-0.1-0.7-0.1-1-0.1h-3V12.4z M162.1,20.6h3.9c0.3,0,0.7,0,1-0.1c0.3-0.1,0.7-0.2,0.9-0.4
	c0.3-0.2,0.5-0.4,0.7-0.7c0.2-0.3,0.3-0.7,0.3-1.1c0-0.5-0.1-0.9-0.4-1.1c-0.2-0.3-0.5-0.5-0.9-0.7c-0.4-0.2-0.7-0.3-1.2-0.3
	c-0.4-0.1-0.8-0.1-1.2-0.1h-3.3V20.6z M197.5,4.4h7.7c1,0,2,0.1,2.9,0.3c0.9,0.2,1.7,0.5,2.4,1c0.7,0.5,1.2,1.1,1.6,1.9
	c0.4,0.8,0.6,1.8,0.6,2.9c0,1.4-0.4,2.6-1.1,3.6c-0.7,1-1.8,1.6-3.2,1.9l5.1,8.4h-5.3l-4.2-8h-2.2v8h-4.4V4.4z M201.9,12.7h2.6
	c0.4,0,0.8,0,1.3,0c0.4,0,0.8-0.1,1.2-0.3c0.4-0.1,0.7-0.4,0.9-0.7c0.2-0.3,0.4-0.7,0.4-1.3c0-0.5-0.1-0.9-0.3-1.2
	c-0.2-0.3-0.5-0.5-0.8-0.7c-0.3-0.2-0.7-0.3-1.1-0.3c-0.4-0.1-0.8-0.1-1.2-0.1h-2.9V12.7z M77.7,4.4h3.6l8.7,20h-5l-1.7-4.2h-7.8
	L74,24.4h-4.9L77.7,4.4z M79.4,10.2L77,16.4h4.9L79.4,10.2z M137,4.4h3.6l8.7,20h-5l-1.7-4.2h-7.8l-1.7,4.2h-4.9L137,4.4z
	 M138.7,10.2l-2.4,6.2h4.9L138.7,10.2z M92.5,4.4h6l8.5,13.9h0.1V4.4h4.4v20h-5.8L97,10.1h-0.1v14.2h-4.4V4.4z M120,8.3h-5.5V4.4
	h15.8v3.9h-5.9v16.1H120V8.3z M13.9,24.7c-4.6,0-7.3-2.7-7.3-7.6l0-10.7H4.3V4.4h7.3v1.9H9.1l0,10.4c0,4.2,1.5,5.9,4.9,5.9
	c3.2,0,5.1-1.3,5.1-6.2l0-10.1h-2.5V4.4h7.3v1.9h-2.3l0,10.4C21.5,21.7,19.1,24.7,13.9,24.7z M41.3,17.7c-0.5,3.3-2.8,4.9-6.1,4.9
	c-4.4,0-7-3.1-7-8.3v-0.2c0-5.1,2.8-8.3,7-8.3c3.1,0,5.2,1.3,6,4.7h2.1l0-6.1h-2.2l0,2.2c-1-1.9-3.3-2.7-5.8-2.7
	c-5.6,0-9.6,4.3-9.6,10.3v0.2c0,6.2,3.6,10.2,9.4,10.2c4.4,0,7.6-2.2,8.4-6.7L41.3,17.7z M61.7,12.4c-2.3-0.6-4.3-1.3-4.3-2.7
	c0-0.9,0.7-2.3,2.7-2.3c2,0,3.4,0.7,4.5,2.1l2.8-2.4c-1.8-2.8-5-3.2-6.8-3.2c-4.4,0-7.5,2.6-7.5,6.2c0,3.7,3.3,5.1,6.6,6
	c2.8,0.8,3.9,1.2,3.9,2.8c0,1.3-1.2,2.2-3.1,2.2c-3.1,0-4.7-2-5.2-2.7l-3,2.6c1.5,2.4,4.2,3.7,7.9,3.7c4.6,0,7.8-2.7,7.8-6.5
	C67.9,14.4,64.7,13.2,61.7,12.4z"/>
</svg>