<svg xmlns="http://www.w3.org/2000/svg" viewBox="0 0 20.83536 19.19089"><title>24-hour-clock-icon-uc-santa-barbara</title><g id="ICONS"><path d="M18.417,11.67487a.22015.22015,0,1,1,.44029,0v4.01467a.22015.22015,0,0,1-.44029,0V13.90161H16.62045a.76885.76885,0,0,1-.54328-.22547v-.00092a.76539.76539,0,0,1-.22548-.54236v-1.458a.21939.21939,0,1,1,.43877,0v1.458a.33031.33031,0,0,0,.33.33H18.417v-1.788ZM16.11952,8.22963a7.28016,7.28016,0,0,0-.14351-.787,7.00138,7.00138,0,0,0-.337-1.02866l-.00426-.01128a6.94884,6.94884,0,0,0-.6478-1.20813,7.05062,7.05062,0,0,0-.88088-1.07285v.00092a7.0317,7.0317,0,0,0-2.29134-1.53386l-.01036-.00518a7.11746,7.11746,0,0,0-4.06988-.394,6.94943,6.94943,0,0,0-1.32.39824v.00092a6.971,6.971,0,0,0-1.21941.65205,7.126,7.126,0,0,0-1.07194.88l-.00182.00183a7.051,7.051,0,0,0-.88,1.07284,7.02549,7.02549,0,0,0-1.05121,2.5384,7.13912,7.13912,0,0,0,0,2.76033,7.02359,7.02359,0,0,0,1.933,3.6113l.01036.01219a7.17823,7.17823,0,0,0,1.06249.86961,6.99137,6.99137,0,0,0,2.53663,1.05121,7.16037,7.16037,0,0,0,2.15148.09324q.23858-.02606.47411-.06739a5.50951,5.50951,0,0,1,4.96813-7.89075,5.7276,5.7276,0,0,1,.79313.05606Zm-5.54523,8.2406q-.31489.06216-.64444.09751a7.75294,7.75294,0,0,1-.816.04418,7.52041,7.52041,0,0,1-1.465-.14352,7.35541,7.35541,0,0,1-1.40161-.42383,7.43376,7.43376,0,0,1-1.295-.6938,7.56466,7.56466,0,0,1-1.128-.92324l-.01188-.01128A7.49109,7.49109,0,0,1,2.877,4.95076,7.5928,7.5928,0,0,1,3.8124,3.81235L3.813,3.81179a7.59864,7.59864,0,0,1,1.13866-.93487,7.508,7.508,0,0,1,1.29467-.69344h.00092A7.39994,7.39994,0,0,1,7.6507,1.75867a7.541,7.541,0,0,1,2.92786,0A7.4585,7.4585,0,0,1,11.971,2.1783l.01188.00518a7.52144,7.52144,0,0,1,1.295.69344,7.63077,7.63077,0,0,1,1.139.93487h-.00061l.00061.00056a7.5589,7.5589,0,0,1,.93391,1.13841,7.335,7.335,0,0,1,.68831,1.2837l.0061.01188a7.31768,7.31768,0,0,1,.35588,1.09357,7.47492,7.47492,0,0,1,.16911.97443,5.4652,5.4652,0,0,1,1.21088.43511,8.68031,8.68031,0,1,0-8.66718,9.03891,8.84681,8.84681,0,0,0,1.31722-.09842,9.0062,9.0062,0,0,0,.92141-.19257,5.584,5.584,0,0,1-.77821-1.02714Zm1.14781,1.37846a5.50894,5.50894,0,1,0,6.50564-8.85036,9.10776,9.10776,0,1,0-7.73114,9.1252,9.1999,9.1999,0,0,0,1.2255-.27484ZM9.54563,7.46605a.21988.21988,0,0,1,.40769.16485l-.24711.60726,3.4687-3.46778a.21933.21933,0,0,1,.31018.31018L9.85063,8.71593l.46376.347a.21946.21946,0,0,1,.04479.30745l-.64261.86108a.21909.21909,0,0,1-.30745.04418L9.00235,9.9716,7.1126,14.62893a.21935.21935,0,0,1-.40677-.16429L8.485,10.08038l-.31354.31445a.21977.21977,0,0,1-.31079-.3108l.55273-.55211L4.828,6.85361a.219.219,0,0,1-.04388-.30653L5.4267,5.686a.22008.22008,0,0,1,.30744-.04418L9.22691,8.25126l.31872-.78521Zm-.05,2.32669L8.885,9.336l-.0131-.00945L5.26673,6.63331l.38088-.50854L9.37713,8.91094l.01463.01036.48477.362-.38087.50946Zm9.41522.305A5.07021,5.07021,0,0,0,10.875,16.11l.00244.00432.00274.00518a5.12151,5.12151,0,0,0,.862,1.1472,5.06912,5.06912,0,1,0,7.16867-7.169Zm-6.73265,1.79651a.21984.21984,0,0,1,0-.43968h1.99944a.7651.7651,0,0,1,.54237.22548l.00091.00183a.76208.76208,0,0,1,.22548.54145v.90953a.76539.76539,0,0,1-.22548.54236l-.00091.00092a.76509.76509,0,0,1-.54237.22547H12.56429a.33188.33188,0,0,0-.33.33v.90862a.33.33,0,0,0,.09781.23309l.00761.00848a.32962.32962,0,0,0,.22457.0875h2.16276a.22015.22015,0,0,1,0,.44029H12.56429a.76414.76414,0,0,1-.52957-.21329l-.01371-.01285a.76807.76807,0,0,1-.22548-.54322V14.2316a.76982.76982,0,0,1,.76876-.76875h1.61338a.33009.33009,0,0,0,.2334-.0969.3335.3335,0,0,0,.09659-.23309v-.90953a.32874.32874,0,0,0-.33-.32908Z" style="fill:#a1afba;fill-rule:evenodd"/></g></svg>