<svg xmlns="http://www.w3.org/2000/svg" viewBox="0 0 19.90785 23.7038"><title>airplane-icon-uc-santa-barbara</title><g id="ICONS"><path d="M7.94291,8.65773l-1.01313.475-.00365.00091-1.31265.61489a.23652.23652,0,0,1-.03474.01641L.94487,11.93478a.85832.85832,0,0,0-.50519.79709v1.97019l7.50323-1.483V8.65773Zm3.58266-5.72987-.59264-.78952a.86176.86176,0,0,0-.298-.2556.83.83,0,0,0-.37661-.08532h-.6097a.83735.83735,0,0,0-.37661.08532.87287.87287,0,0,0-.298.2556l-.59142.78952v.24951l.2142-.27785a1.28271,1.28271,0,0,1,1.04512-.51646h.62433a1.28962,1.28962,0,0,1,1.04512.51555l.21421.27876V2.92786ZM8.75829,1.72216a1.24055,1.24055,0,0,1,.31688-.23066,1.26349,1.26349,0,0,1,.57345-.13376h.6097a1.24024,1.24024,0,0,1,.89155.36351l-.27636-.71848H10.8726A.88145.88145,0,0,0,10.553.5899l-.01128-.007a.87214.87214,0,0,0-.48874-.14321H9.8552A.87411.87411,0,0,0,9.35489.5899h0a.8787.8787,0,0,0-.32024.41287l-.00792.018-.26844.70142Zm2.76728,2.17556V13.3909L10.60141,21.573l-.09506.84462-.09507.84646h-.23736V17.96174a.21984.21984,0,0,0-.43968,0v5.30238H9.49657l-.09415-.83518A.23888.23888,0,0,0,9.4,22.403L8.38259,13.3909V3.89772l.56217-.73311a.8456.8456,0,0,1,.69715-.34218h.62433a.84669.84669,0,0,1,.69716.34218l.56217.73311Zm1.54848,3.63476h1.33032a.22.22,0,0,1,.21938.2203v1.6667l4.52479,2.11884a1.2993,1.2993,0,0,1,.75931,1.19355V14.969a.21983.21983,0,0,1-.2203.21938.26219.26219,0,0,1-.05179-.00609l-7.70007-1.522-.57527,5.10311,2.60244,1.749a1.28646,1.28646,0,0,1,.5838,1.09322v.83522a.22041.22041,0,0,1-.21938.2203H10.92013l-.09415.83457a.21872.21872,0,0,1-.21847.20811H9.30065v-.00091a.21983.21983,0,0,1-.21756-.19532l-.096-.84645H5.58149a.22061.22061,0,0,1-.2203-.2203V21.6056a1.28834,1.28834,0,0,1,.5838-1.09322l2.60244-1.749-.57618-5.10311L.273,15.18227a.28685.28685,0,0,1-.05363.00609A.21983.21983,0,0,1,0,14.969V12.73187a1.30062,1.30062,0,0,1,.75931-1.19355L5.28349,9.41948V7.75278a.22061.22061,0,0,1,.2203-.2203h1.3291a.22121.22121,0,0,1,.2203.2203v.83853l.88972-.41713V2.8657a1.32892,1.32892,0,0,1,.02224-.2401A1.17753,1.17753,0,0,1,8.031,2.394h0L8.619.86443,8.62422.84737a1.31617,1.31617,0,0,1,.482-.61763l.00092.00092V.22974A1.30917,1.30917,0,0,1,9.8552,0h.19775a1.32148,1.32148,0,0,1,.73494.22091l.01371.00883a1.307,1.307,0,0,1,.48112.61763h-.00061L11.87628,2.394a1.30672,1.30672,0,0,1,.06642.23158,1.32725,1.32725,0,0,1,.02163.2401V8.17418l.89034.41713V7.75278a.22061.22061,0,0,1,.21938-.2203ZM14.32911,9.765a.1963.1963,0,0,1-.03443-.01641l-1.31295-.61489-.00336-.00091-1.014-.475v4.56136l7.50384,1.483V12.73187a.857.857,0,0,0-.50519-.79709L14.32911,9.765ZM14.185,7.97216h-.89155V8.797l.89155.41714v-1.242Zm-2.9306,11.73337-.28428,2.51591h3.1378V21.6056a.84678.84678,0,0,0-.3885-.72972l-2.41413-1.62283-.05089.45248Zm-2.6518-.45248L6.18784,20.87588a.8519.8519,0,0,0-.387.72972v.61584H8.93775l-.074-.66242-.26113-2.306ZM6.6135,7.97216V8.797l-.89033.41714v-1.242Z" style="fill:#a1afba;fill-rule:evenodd"/></g></svg>