<svg xmlns="http://www.w3.org/2000/svg" viewBox="0 0 27.26902 13.79345"><title>boat-Icon-UC-Santa-Barbara</title><g id="ICONS"><path d="M6.108,8.27412H2.40193a.21977.21977,0,0,1-.21938-.22V6.29905H1.31812a.88574.88574,0,0,0-.35163.06826.92718.92718,0,0,0-.4802.51189.8861.8861,0,0,0-.04571.35589l.3437,5.299a.87628.87628,0,0,0,.87662.82056h20.389a.84811.84811,0,0,0,.759-.43542l3.859-6.62021H21.81465V8.05412a.21977.21977,0,0,1-.21938.22Zm10.30525-4.689h2.96229a.21885.21885,0,0,1,.21938.21846V5.70977H20.857a.21963.21963,0,0,1,.21938.21938V7.83474h.29891v-1.756a.22036.22036,0,0,1,.22-.21939h5.45534a.21086.21086,0,0,1,.10877.03017.21915.21915,0,0,1,.08045.29891l-4.051,6.9502a1.29456,1.29456,0,0,1-1.139.6548H1.6609A1.31526,1.31526,0,0,1,.34643,12.56094L.00334,7.26282a1.29818,1.29818,0,0,1,.071-.53109,1.3212,1.3212,0,0,1,.28246-.45614,1.29087,1.29087,0,0,1,.96133-.41622H2.40193a.21984.21984,0,0,1,.2203.21939v1.756H3.175V3.80356a.21963.21963,0,0,1,.22029-.21846H5.88861V.21938A.21924.21924,0,0,1,6.108,0h5.12292a.21866.21866,0,0,1,.21938.21938V7.83474h.29891V5.92915a.22035.22035,0,0,1,.22-.21938h1.26206V3.80356a.21885.21885,0,0,1,.21939-.21846Zm2.7423.43876H16.63262V5.70977h2.52292V4.02386Zm-2.96168,0H13.67V5.70977h2.52383V4.02386Zm4.44282,2.12559V7.83474H18.11377V6.14945h2.52291Zm-2.96168,0V7.83474H15.15117V6.14945H17.675Zm-2.96259,0V7.83474H12.18858V6.14945h2.52383ZM6.32829,7.83474V.43877h4.68323v7.396Zm-2.71365,0V4.02386h2.274V7.83474Z" style="fill:#a1afba;fill-rule:evenodd"/></g></svg>