<svg xmlns="http://www.w3.org/2000/svg" viewBox="0 0 23.86066 18.7137"><title>box-icon-uc-santa-barbara</title><g id="ICONS"><path d="M.70822,8.15743l7.05745,3.52811,3.6759-1.83795L4.3832,6.31852.70822,8.15743Zm11.00362,10.087a.97444.97444,0,0,1-.1752-.06546L4.658,14.73894a.85513.85513,0,0,1-.48538-.787V10.37777l3.49551,1.74832a.21811.21811,0,0,0,.195,0l3.84805-1.92443.00061,8.0428Zm.43724-8.0428v8.0428a.95763.95763,0,0,0,.17429-.06546l6.87951-3.44006a.891.891,0,0,0,.35863-.32238.8818.8818,0,0,0,.12675-.46466V10.37777l-3.49521,1.74832a.21876.21876,0,0,1-.19531,0l-3.84866-1.92443Zm7.978-.04327V13.9519a1.29575,1.29575,0,0,1-.72884,1.17736l-6.87951,3.44006a1.2723,1.2723,0,0,1-1.17736,0l-6.8795-3.44006A1.29718,1.29718,0,0,1,3.733,13.9519V10.15839l-3.6119-1.806a.21856.21856,0,0,1,0-.39123l3.7734-1.88731L.12107,4.1878a.21476.21476,0,0,1-.09781-.09872.21858.21858,0,0,1,.09781-.29347L7.66817.02378a.21182.21182,0,0,1,.195,0l4.06743,2.03234L15.99774.02378a.21243.21243,0,0,1,.19531,0l7.54711,3.77183a.22416.22416,0,0,1,.0975.09846.21963.21963,0,0,1-.0975.29373L19.96645,6.07389,23.74016,7.9612a.21884.21884,0,0,1,0,.39123l-3.61313,1.806Zm-7.978-7.50384V9.49349l6.839-3.4196-6.839-3.41934Zm-.43785,6.83894L4.87316,6.07389l6.83868-3.41842-.00061,6.838Zm7.76557-3.664,3.6759-1.83795L16.09525.46254,12.41935,2.3014,19.4768,5.82952Zm-3.38155,5.856-3.6759-1.83795L19.4768,6.31852l3.6759,1.83891-7.05745,3.52811ZM11.44157,2.3014,7.76567.46254.70822,3.99157l3.6759,1.83795Z" style="fill:#a1afba;fill-rule:evenodd"/></g></svg>