<svg xmlns="http://www.w3.org/2000/svg" viewBox="0 0 15.65394 18.64"><title>calendar-icon-uc-santa-barbara</title><g id="ICONS"><path d="M14.33612,2.36234H13.06034V4.06561a.21984.21984,0,1,1-.43968,0V2.36234H3.03359V4.06561a.21939.21939,0,1,1-.43877,0V2.36234H1.31813a.87886.87886,0,0,0-.621.25655v.00183a.872.872,0,0,0-.25747.62006V17.32187a.87906.87906,0,0,0,.87845.87753h13.018a.87607.87607,0,0,0,.621-.25656l.00092-.00091a.87576.87576,0,0,0,.25655-.62006V3.24078a.88062.88062,0,0,0-.87844-.87844ZM8.6943,11.06608V9.33843a.33212.33212,0,0,1,.09567-.234.33568.33568,0,0,1,.2334-.09567H11.5021a.334.334,0,0,1,.2334.09567v.00092a.33291.33291,0,0,1,.09659.23309v1.72765Zm3.13779.43968V13.234a.33029.33029,0,0,1-.33.32907H9.02337a.32771.32771,0,0,1-.23248-.09689l-.00853-.00853A.32527.32527,0,0,1,8.6943,13.234V11.50576ZM7.18025,13.56309a.21984.21984,0,1,1,0,.43968H4.15184a.76638.76638,0,0,1-.54237-.22547l-.01371-.01463a.767.767,0,0,1-.21238-.52865V11.83484a.76463.76463,0,0,1,.22609-.54267l.00092-.00061a.76271.76271,0,0,1,.54145-.22548H6.63179a.33081.33081,0,0,0,.32907-.33V9.33843a.32872.32872,0,0,0-.32907-.32968H3.82124a.21984.21984,0,0,1,0-.43968H6.63179a.76652.76652,0,0,1,.54236.22547v.00061a.76691.76691,0,0,1,.22639.54328v1.39766a.7714.7714,0,0,1-.76875.76967H4.15184a.32875.32875,0,0,0-.32908.32908V13.234a.32835.32835,0,0,0,.08836.22365l.00854.00853a.327.327,0,0,0,.23218.09689Zm4.32185.43968H9.02337a.76746.76746,0,0,1-.54328-.22547l-.0131-.01463a.767.767,0,0,1-.21237-.52865V9.33843a.76869.76869,0,0,1,.22547-.54328L8.481,8.79454a.76542.76542,0,0,1,.54236-.22547H11.5021a.76543.76543,0,0,1,.54237.22547l.00091.00061V8.79454a.76784.76784,0,0,1,.22548.54389V13.234a.76982.76982,0,0,1-.76876.76875ZM12.62066,1.92265V.21938a.21984.21984,0,0,1,.43968,0V1.92265h1.27578a1.31963,1.31963,0,0,1,1.31782,1.31813V17.32187a1.314,1.314,0,0,1-.38605.9302l-.00153.001a1.31254,1.31254,0,0,1-.93024.387H1.31813A1.32121,1.32121,0,0,1,0,17.32187V3.24078a1.31787,1.31787,0,0,1,.38453-.92841L.387,2.31054V2.30962H.38788a1.31635,1.31635,0,0,1,.93025-.387H2.59482V.21938a.21939.21939,0,0,1,.43877,0V1.92265ZM13.83,6.00989V16.562H1.82515V6.00989ZM1.60485,5.57021H14.04939a.22036.22036,0,0,1,.22.21939V16.78194a.22036.22036,0,0,1-.22.21938H1.60485a.21964.21964,0,0,1-.21938-.21938V5.7896A.21964.21964,0,0,1,1.60485,5.57021Z" style="fill:#a1afba;fill-rule:evenodd"/></g></svg>