<svg xmlns="http://www.w3.org/2000/svg" viewBox="0 0 25.19652 12.18951"><title>car-carrier-icon-uc-santa-barbara</title><g id="ICONS"><path d="M2.18348,4.49975H14.25933v-1.901H2.18348v1.901Zm22.79366,7.24947a.22015.22015,0,0,1,0,.44029H.2203a.22015.22015,0,1,1,0-.44029H2.83645a1.30937,1.30937,0,0,1,.0518-1.79839v.001A1.30852,1.30852,0,0,1,4.728,9.93864l.014.01219a1.31183,1.31183,0,0,1,.0518,1.79839H5.95017A1.31038,1.31038,0,0,1,7.84266,9.93864l.0131.01219a1.30809,1.30809,0,0,1,.05089,1.79839h9.38414a1.30816,1.30816,0,0,1,.05088-1.79651l.00183-.00188a1.3084,1.3084,0,0,1,1.85105,0l.00152.00188a1.30777,1.30777,0,0,1,.05119,1.79651h1.15817a1.3081,1.3081,0,0,1,.05088-1.79839v.001a1.30854,1.30854,0,0,1,1.83978-.01315l.01371.01219a1.31014,1.31014,0,0,1,.05119,1.79839ZM3.81514,10.006a.87125.87125,0,0,0-.61671.25473v.00086h0a.87286.87286,0,0,0,0,1.23256v.00092a.87429.87429,0,0,0,1.23251,0l.00092-.00092a.87177.87177,0,0,0-.00092-1.23256l-.01036-.01031a.863.863,0,0,0-.60544-.24528Zm17.56807,0a.87122.87122,0,0,0-.61671.25473v.00086h0a.87286.87286,0,0,0,0,1.23256v.00092a.87429.87429,0,0,0,1.23251,0l.00091-.00092a.87176.87176,0,0,0-.00091-1.23256l-.00945-.01031a.86846.86846,0,0,0-.60635-.24528ZM15.611,2.77155h4.931L20.12632,1.5433H15.611V2.77155Zm5.23657.43968H15.3916a.22.22,0,0,1-.2203-.2203V1.32331a.21983.21983,0,0,1,.2203-.21938h4.892v.00061a.219.219,0,0,1,.20811.1496l.55821,1.65148a.20491.20491,0,0,1,.018.08531.22.22,0,0,1-.22029.2203Zm4.349,7.66807a.21938.21938,0,1,1-.43876,0V9.12758H16.46261v1.36993a.21944.21944,0,0,1-.21938.2203h-7.289a.21984.21984,0,0,1-.21939-.2203V9.12758H.43968v1.7508a.21984.21984,0,0,1-.43968,0V5.32981a.21984.21984,0,1,1,.43968,0V6.92613h1.3096a.25234.25234,0,0,1-.00457-.04667V1.31813A1.31963,1.31963,0,0,1,3.06284,0h17.5507a1.30355,1.30355,0,0,1,1.22489.83335l.42231,1.06427h.30836a.76938.76938,0,0,1,.54236.22614l.00092.00091a.76481.76481,0,0,1,.22456.54237V6.92613h1.42082V2.11766a.21938.21938,0,1,1,.43876,0V10.8793ZM16.24323,8.68881h8.51453v-1.323H.43968v1.323H8.95421a.21925.21925,0,0,1,.21938.21939V10.279h6.85026V8.9082a.21983.21983,0,0,1,.21938-.21939ZM6.92887,10.006a.87216.87216,0,0,0-.61671,1.48815v.00092l.00091-.00092a.87317.87317,0,0,0,1.23251.00092l.00091-.00092a.874.874,0,0,0-.00091-1.23256l-.01036-.01031a.8652.8652,0,0,0-.60635-.24528Zm11.95732.25559a.8762.8762,0,1,0,.25382.61585.86973.86973,0,0,0-.25382-.61585ZM14.25933.43877H3.06284a.88166.88166,0,0,0-.87936.87936v.84128H14.25933V.43877ZM2.18348,4.9404V6.66007H14.25933V4.9404ZM20.61354.43877a.85821.85821,0,0,1,.8172.55546l.4732,1.19534a.22028.22028,0,0,0,.2072.14839h.458a.32762.32762,0,0,1,.32907.32908V6.92613H14.69871V.43877Z" style="fill:#a1afba;fill-rule:evenodd"/></g></svg>