<svg version="1.0" xmlns="http://www.w3.org/2000/svg" viewBox="0 0 18.23 18.23" >
<title>car-carrier-icon-uc-santa-barbara</title>
<path  style="fill:#a1afba;fill-rule:evenodd" fill-rule="evenodd" clip-rule="evenodd" d="M13.218,11.627c0.261,0,0.498,0.107,0.669,0.277l0.002,0.002
	c0.171,0.171,0.276,0.408,0.276,0.669c0,0.242-0.09,0.462-0.239,0.63h0.837c-0.149-0.168-0.241-0.388-0.241-0.63
	c0-0.261,0.107-0.498,0.278-0.671l0,0c0.174-0.17,0.41-0.277,0.672-0.277c0.255,0,0.488,0.104,0.66,0.27l0.009,0.008
	c0.172,0.173,0.277,0.41,0.277,0.671c0,0.242-0.091,0.462-0.24,0.63h1.894c0.088,0,0.159,0.071,0.159,0.16
	c0,0.087-0.071,0.159-0.159,0.159h-2.6H5.013H2.76H0.159C0.07,13.524,0,13.452,0,13.365c0-0.089,0.07-0.16,0.159-0.16h1.893
	c-0.149-0.168-0.242-0.388-0.242-0.63c0-0.261,0.109-0.498,0.279-0.671l0,0c0.172-0.17,0.409-0.277,0.671-0.277
	c0.256,0,0.489,0.104,0.66,0.27l0.01,0.008c0.17,0.173,0.277,0.41,0.277,0.671c0,0.242-0.091,0.462-0.241,0.63h0.837
	c-0.149-0.168-0.241-0.388-0.241-0.63c0-0.261,0.107-0.498,0.278-0.671h0.001c0.172-0.17,0.408-0.277,0.67-0.277
	c0.257,0,0.49,0.104,0.661,0.27l0.009,0.008c0.172,0.173,0.279,0.41,0.279,0.671c0,0.242-0.091,0.462-0.241,0.63h6.79
	c-0.15-0.168-0.241-0.388-0.241-0.63c0-0.261,0.106-0.498,0.278-0.669l0.001-0.002C12.72,11.734,12.957,11.627,13.218,11.627
	 M18.23,12.575v-1.424V9.874V8.561c0-0.088-0.071-0.16-0.159-0.16s-0.158,0.071-0.158,0.16v1.155h-0.945V5.658
	c0-0.262-0.106-0.5-0.278-0.672l-0.001-0.001c-0.173-0.173-0.412-0.28-0.674-0.28H2.098c-0.263,0-0.501,0.106-0.673,0.28
	C1.253,5.157,1.144,5.396,1.144,5.658v4.059H0.318V8.561c0-0.088-0.071-0.16-0.159-0.16C0.07,8.402,0,8.473,0,8.561v1.313v1.277
	v1.424c0,0.09,0.07,0.161,0.159,0.161c0.088,0,0.159-0.071,0.159-0.161v-1.267h6.001v0.992c0,0.089,0.071,0.159,0.159,0.159h5.274
	c0.087,0,0.158-0.07,0.158-0.159v-0.992h6.003v1.267c0,0.09,0.07,0.161,0.158,0.161S18.23,12.665,18.23,12.575 M15.472,11.945
	c-0.176,0-0.333,0.07-0.447,0.183c-0.114,0.115-0.184,0.272-0.184,0.447s0.069,0.332,0.184,0.445v0.002
	c0.114,0.113,0.271,0.183,0.447,0.183c0.173,0,0.331-0.069,0.444-0.183l0.001-0.002c0.114-0.113,0.184-0.271,0.184-0.445
	s-0.07-0.332-0.185-0.447l-0.007-0.007C15.796,12.012,15.641,11.945,15.472,11.945 M2.985,8.854c0,0.088-0.071,0.16-0.158,0.16
	c-0.088,0-0.159-0.071-0.159-0.16V5.883c0-0.088,0.071-0.158,0.159-0.158c0.087,0,0.158,0.07,0.158,0.158V8.854z M6.1,8.854
	c0,0.088-0.071,0.16-0.159,0.16s-0.159-0.071-0.159-0.16V5.883c0-0.088,0.071-0.158,0.159-0.158S6.1,5.795,6.1,5.883V8.854z
	 M9.215,8.854c0,0.088-0.071,0.16-0.159,0.16c-0.087,0-0.158-0.071-0.158-0.16V5.883c0-0.088,0.071-0.158,0.158-0.158
	c0.087,0,0.159,0.07,0.159,0.158V8.854z M12.331,8.854c0,0.088-0.071,0.16-0.159,0.16s-0.159-0.071-0.159-0.16V5.883
	c0-0.088,0.071-0.158,0.159-0.158s0.159,0.07,0.159,0.158V8.854z M15.445,8.854c0,0.088-0.071,0.16-0.159,0.16
	c-0.086,0-0.158-0.071-0.158-0.16V5.883c0-0.088,0.072-0.158,0.158-0.158c0.088,0,0.159,0.07,0.159,0.158V8.854z M1.463,9.717V5.658
	c0-0.174,0.072-0.333,0.188-0.449c0.114-0.114,0.274-0.186,0.448-0.186h13.917c0.176,0,0.335,0.072,0.448,0.186l0.001,0
	c0.115,0.116,0.188,0.274,0.188,0.449v4.059H1.463z M11.752,10.992h6.161v-0.958H0.318v0.958h6.16c0.088,0,0.159,0.07,0.159,0.159
	v0.992h4.957v-0.992C11.594,11.062,11.664,10.992,11.752,10.992 M2.76,11.945c-0.175,0-0.332,0.07-0.446,0.183H2.313h0.001
	C2.2,12.243,2.129,12.4,2.129,12.575S2.2,12.907,2.313,13.02l0.001,0.002c0.114,0.113,0.271,0.183,0.446,0.183
	c0.174,0,0.332-0.069,0.444-0.183l0.001-0.002c0.114-0.113,0.185-0.271,0.185-0.445s-0.071-0.332-0.186-0.447l-0.006-0.007
	C3.085,12.012,2.93,11.945,2.76,11.945 M5.013,11.945c-0.174,0-0.333,0.07-0.446,0.183h0h0c-0.113,0.115-0.185,0.272-0.185,0.447
	s0.07,0.332,0.183,0.445l0.001,0.002c0.113,0.113,0.271,0.183,0.446,0.183c0.175,0,0.332-0.069,0.446-0.183l0.001-0.002
	c0.113-0.113,0.184-0.271,0.184-0.445s-0.07-0.332-0.185-0.447l-0.007-0.007C5.338,12.012,5.184,11.945,5.013,11.945 M13.664,12.128
	c-0.113-0.112-0.271-0.183-0.446-0.183s-0.331,0.07-0.446,0.183c-0.115,0.115-0.185,0.272-0.185,0.447s0.069,0.332,0.185,0.447
	c0.115,0.113,0.271,0.183,0.446,0.183s0.333-0.069,0.446-0.183c0.113-0.115,0.184-0.272,0.184-0.447S13.777,12.243,13.664,12.128"/>
</svg>
