<svg xmlns="http://www.w3.org/2000/svg" viewBox="0 0 17.58239 17.37367"><title>download-icon-uc-santa-barbara</title><g id="ICONS"><path d="M7.07787,1.31813V6.47636a.21994.21994,0,0,1-.22.21938H4.92638L8.7915,12.43845l3.866-5.74271h-1.926a.2198.2198,0,0,1-.21938-.21938V1.31813A.88223.88223,0,0,0,9.63369.43968H7.95723a.87371.87371,0,0,0-.621.25747L7.33534.69807a.87332.87332,0,0,0-.25747.62006ZM1.31783,16.934H16.26456a.88247.88247,0,0,0,.621-.25628v-.00088a.87439.87439,0,0,0,.25747-.621V13.5052a.88057.88057,0,0,0-.87845-.87936h-.53993a.87368.87368,0,0,0-.621.25747l-.00091.00088a.8756.8756,0,0,0-.25747.621v.911a.22055.22055,0,0,1-.22.2203H2.95711a.22061.22061,0,0,1-.21938-.2203v-.911a.88162.88162,0,0,0-.87815-.87936H1.31783a.87474.87474,0,0,0-.62007.25747l-.00091.00088a.87482.87482,0,0,0-.25656.621v2.55064a.87853.87853,0,0,0,.87754.87814Zm14.94673.43969H1.31783A1.32068,1.32068,0,0,1,0,16.05584V13.5052a1.31455,1.31455,0,0,1,.38514-.92842L.38666,12.575.38758,12.574h0a1.31411,1.31411,0,0,1,.93025-.387h.54175A1.31963,1.31963,0,0,1,3.17649,13.5052v.69167h11.23V13.5052a1.31406,1.31406,0,0,1,.38453-.92842l.00183-.00183.00061-.00091h0a1.31409,1.31409,0,0,1,.93116-.387h.53993a1.3207,1.3207,0,0,1,1.31783,1.31813v2.55064a1.31423,1.31423,0,0,1-.38667.92994v.00092a1.31664,1.31664,0,0,1-.93116.387ZM6.6391,6.25609v-4.938A1.3135,1.3135,0,0,1,7.02363.39062L7.02546.38788h.00061V.387A1.3179,1.3179,0,0,1,7.95723,0H9.63369a1.32121,1.32121,0,0,1,1.31813,1.31813v4.938h2.11766V6.257a.21829.21829,0,0,1,.1816.34008L8.974,12.95065a.22708.22708,0,0,1-.06063.06124.22019.22019,0,0,1-.30409-.06033l-4.26671-6.339a.21994.21994,0,0,1,.17185-.3565Z" style="fill:#a1afba;fill-rule:evenodd"/></g></svg>