<svg xmlns="http://www.w3.org/2000/svg" viewBox="0 0 17.74235 22.20285"><title>man-hat-apron-icon-uc-santa-barbara</title><g id="ICONS"><path d="M9.1224.521V.45431A2.06346,2.06346,0,0,0,8.86615.43724a2.00811,2.00811,0,0,0-.22822.01463V.52012c.05454-.00091.10969-.00091.16576-.00091h.00609L8.81405.51829H8.9411l.00336.00092h.02529c.0518,0,.10268,0,.15265.00183Zm2.73895,13.49209a5.99881,5.99881,0,0,1-2.8398,1.13831,4.7326,4.7326,0,0,1-3.1311-1.15232l-.55089.36011a3.0492,3.0492,0,0,0,1.26511,1.04512,5.41552,5.41552,0,0,0,2.26666.51224,5.0169,5.0169,0,0,0,2.14691-.51037,3.81772,3.81772,0,0,0,1.38029-1.06249l-.53718-.3306Zm-7.07482.55608.14778-.032a3.4369,3.4369,0,0,0,1.47962,1.26206,5.87784,5.87784,0,0,0,2.4574.55456,5.46292,5.46292,0,0,0,2.338-.553,4.15758,4.15758,0,0,0,1.60028-1.27822c.05119.01128.103.0225.15387.03443l-.00182,4.29444-8.17753-.00335.00244-4.2789Zm8.61477.096c.33791.08989.6618.18983.96833.30226v.44822a17.58322,17.58322,0,0,0,.77729,6.3475H2.59543a17.57673,17.57673,0,0,0,.7843-6.35086V14.976c.30744-.1106.63134-.20993.96894-.29891l-.00244,4.38951a.21964.21964,0,0,0,.21939.21938l8.61477.0033a.219.219,0,0,0,.21938-.21842l.00153-4.40565Zm1.40527.4732v.27728a17.34656,17.34656,0,0,0,.79557,6.3475h.82208a.88168.88168,0,0,0,.87937-.87937v-2.972h-.00092a2.5444,2.5444,0,0,0-1.16426-2.02626,6.26541,6.26541,0,0,0-1.33184-.74712Zm.64109,7.06446H1.31813A1.31963,1.31963,0,0,1,0,20.8838v-2.972a2.94369,2.94369,0,0,1,1.33946-2.37,9.31056,9.31056,0,0,1,3.62166-1.458l.74895-.48873a14.96,14.96,0,0,0,.14321-1.66275c.00944-.177.01737-.337.025-.45431q-.176-.192-.341-.40068a7.11275,7.11275,0,0,1-1.078-1.94246,6.10259,6.10259,0,0,1-.38606-2.07744v-.0326a.22935.22935,0,0,1,.00427-.0424c-.00335-.09258-.00609-.17638-.00609-.24986,0-.36528-.00518-.65871-.01036-.94391C4.00924,2.94462,3.96963.73951,8.20008.53383V.27819A.21869.21869,0,0,1,8.371.05546,2.21972,2.21972,0,0,1,8.86615,0a2.54214,2.54214,0,0,1,.50428.05119A.22.22,0,0,1,9.563.26966v.266c4.21064.20994,4.171,2.41414,4.11893,5.253-.00518.2852-.01036.57863-.01036.94391,0,.02438-.00061.07288-.00244.14265l-.00274.10878a.30933.30933,0,0,1,.00365.04083h0v.0326a6.10118,6.10118,0,0,1-.38514,2.07744A7.14763,7.14763,0,0,1,12.206,11.07735c-.11578.14687-.23492.28668-.36107.42049.01128.13128.02255.28581.03382.45613a14.62335,14.62335,0,0,0,.16576,1.65818l.74438.45888a9.26422,9.26422,0,0,1,3.614,1.46377,2.96154,2.96154,0,0,1,1.33946,2.377h-.00091v2.972a1.31536,1.31536,0,0,1-.38606.93117l-.00091.00091a1.31467,1.31467,0,0,1-.93025.387ZM6.29479,11.88572a5.07477,5.07477,0,0,0,.82391.60265A3.49882,3.49882,0,0,0,8.87133,13a3.496,3.496,0,0,0,1.75233-.51164,4.99523,4.99523,0,0,0,.812-.59046l.00518.08532a16.618,16.618,0,0,0,.16576,1.67036,5.59224,5.59224,0,0,1-2.611,1.06066A4.341,4.341,0,0,1,6.1461,13.64318a16.06958,16.06958,0,0,0,.145-1.68921l.00366-.06825ZM2.1393,21.76317a17.34991,17.34991,0,0,0,.80349-6.35086v-.26508a6.26428,6.26428,0,0,0-1.34068.74529A2.527,2.527,0,0,0,.43877,17.91177v2.972a.8801.8801,0,0,0,.87936.87937ZM4.89469,7.7348a5.86679,5.86679,0,0,1-.3827-.66425,5.69632,5.69632,0,0,0,.35833,1.91474,6.67833,6.67833,0,0,0,1.01252,1.82088q.1787.22761.37386.43359l.00092.00061.00243.00274.00884.00853a4.91918,4.91918,0,0,0,1.0701.85773,3.06287,3.06287,0,0,0,1.53234.451,3.06585,3.06585,0,0,0,1.53294-.451,5.25023,5.25023,0,0,0,1.45708-1.3032,6.69129,6.69129,0,0,0,1.01129-1.82088,5.64679,5.64679,0,0,0,.35772-1.92784V7.048l-.00274-.02316-.35833.62159a.21988.21988,0,0,1-.29891.08135.22437.22437,0,0,1-.07678-.07435,1.82929,1.82929,0,0,0-.46894-.44821,5.775,5.775,0,0,0-3.07411-.76449,5.75631,5.75631,0,0,0-3.14816.77059l-.01218.0067a2.11727,2.11727,0,0,0-.53292.521.21952.21952,0,0,1-.3047.05607.22647.22647,0,0,1-.0579-.06033Zm-.39489-1.883a7.49494,7.49494,0,0,1,4.45867-1.1411,7.66314,7.66314,0,0,1,4.2856,1.06248C13.29435,3.04913,13.327.96559,8.89631.958H8.846C4.41175.96559,4.44892,3.05339,4.49919,5.78167l.00061.07009Zm.40007,1.01586c.06643.12767.13285.25565.19958.37113a2.75247,2.75247,0,0,1,.44212-.379l.01219-.00853a6.18327,6.18327,0,0,1,3.39862-.84828,6.21606,6.21606,0,0,1,3.32092.84219,2.46062,2.46062,0,0,1,.37326.31079l.50793-.88089c-.03991-.03961-.08227-.0777-.128-.11578A7.06917,7.06917,0,0,0,8.95664,5.14881,7.05214,7.05214,0,0,0,4.77464,6.193a2.04469,2.04469,0,0,0-.16423.1493C4.70822,6.50046,4.80389,6.68359,4.89987,6.86762Z" style="fill:#a1afba;fill-rule:evenodd"/></g></svg>