<svg xmlns="http://www.w3.org/2000/svg" viewBox="0 0 21.32501 19.05347"><title>package-icon-uc-santa-barbara</title><g id="ICONS"><path d="M9.01362,14.323H20.88533v-.56217H18.207c-.01706.00056-.03443.00153-.05271.00153H3.1707c-.01828,0-.03534-.001-.05362-.00153H.43877V14.323H9.01362ZM12.57312.44151V5.05283a.21526.21526,0,0,1-.04052.12676l-.55882.84584a.22179.22179,0,0,1-.30409.06216.23555.23555,0,0,1-.064-.06216l-.38-.57527-.37935.57527a.22251.22251,0,0,1-.36777,0l-.38-.57527-.38027.57527a.22087.22087,0,0,1-.36685,0l-.564-.85351a.214.214,0,0,1-.03565-.11909h0V.44151H3.1707a.87146.87146,0,0,0-.62006.25717L2.54973.69959a.87454.87454,0,0,0-.25656.62006V12.44271a.87906.87906,0,0,0,.87753.87754H18.15431a.8775.8775,0,0,0,.87753-.87754V1.31965a.87959.87959,0,0,0-.87753-.87814Zm-3.38247,0h2.94371V4.98885l-.34462.51981-.38-.575a.22138.22138,0,0,0-.30409-.06247.21624.21624,0,0,0-.06307.06247l-.38.575-.38027-.575a.221.221,0,0,0-.30378-.06247.21582.21582,0,0,0-.064.06247l-.37935.575-.34462-.51981V.44151Zm8.01117,10.75315a.2203.2203,0,0,1-.4406,0V8.10775l-.14687.38179a.21838.21838,0,0,1-.28337.12523.22094.22094,0,0,1-.12614-.28428l.55973-1.45007a.221.221,0,0,1,.217-.18221l.01127.00092h.01188l.00458.0006h.0006a.22265.22265,0,0,1,.18161.14017l.56735,1.4915a.21962.21962,0,1,1-.41013.15723l-.14686-.38423v3.09026Zm-1.73527,0a.2203.2203,0,1,1-.44059,0V8.10775l-.14687.38179a.21805.21805,0,0,1-.28307.12523.22043.22043,0,0,1-.12614-.28428l.56034-1.45007a.22008.22008,0,0,1,.216-.18221.17682.17682,0,0,1,.04479.00518H15.292l.00426.00091h.00092l.00426.00061.02773.00879a.22.22,0,0,1,.12615.1262h.00091l.56735,1.4915a.21961.21961,0,1,1-.41012.15723L15.46655,8.105v3.08965Zm2.0875.72732a.21984.21984,0,0,1,0,.43968H14.67433a.21984.21984,0,0,1,0-.43968ZM19.47426,1.31965V12.44271a1.31052,1.31052,0,0,1-.33791.87845h1.96836a.22061.22061,0,0,1,.2203.2203v1.00185a.21983.21983,0,0,1-.2203.21938h-.816v2.85012h.816a.21925.21925,0,0,1,.2203.21938v1.0019a.21983.21983,0,0,1-.2203.21938H.21938A.21963.21963,0,0,1,0,18.83409v-1.0019a.219.219,0,0,1,.21938-.21938h.81629V14.76269H.21938A.21963.21963,0,0,1,0,14.54331V13.54146a.22042.22042,0,0,1,.21938-.2203H2.18774a1.314,1.314,0,0,1-.33669-.87845V1.31965A1.31175,1.31175,0,0,1,2.23863.3888V.387h.00091A1.31684,1.31684,0,0,1,3.1707,0H18.15431a1.32276,1.32276,0,0,1,1.32,1.31965ZM4.77281,14.76269v2.85012H8.79333V14.76269Zm-3.29776,0v2.85012H4.33313V14.76269ZM16.5522,17.61281V14.76269H12.53077v2.85012Zm.43968-2.85012v2.85012H19.85V14.76269Zm-4.68049,3.28889H.43877v.56313H20.88533v-.56313H12.31139ZM12.092,14.76269H9.233v2.85012h2.859Z" style="fill:#a1afba;fill-rule:evenodd"/></g></svg>