<svg xmlns="http://www.w3.org/2000/svg" viewBox="0 0 14.19417 17.14084"><title>subway-icon-UC-Santa-Barbara</title><g id="ICONS"><path d="M11.788,14.50431,14.08482,15.831a.21813.21813,0,0,1,.07953.29891l-.26083.451-.26113.45065a.21876.21876,0,0,1-.29951.07952l-1.59267-.91988H2.44438L.8508,17.111a.219.219,0,0,1-.29952-.07952l-.52164-.90161A.21856.21856,0,0,1,.10886,15.831l2.29682-1.32666H1.48915A1.31963,1.31963,0,0,1,.171,13.18618v-1.0241a1.3138,1.3138,0,0,1,.35436-.89673V1.31813A1.31807,1.31807,0,0,1,1.84321,0H12.35138a1.31963,1.31963,0,0,1,1.31783,1.31813v9.94631a1.31186,1.31186,0,0,1,.35345.89764v1.0241a1.31606,1.31606,0,0,1-.38605.93116l-.00092.00092a1.315,1.315,0,0,1-.93116.38605Zm-8.56266-.43877h9.4792a.87585.87585,0,0,0,.621-.25747l.00091-.00061a.87548.87548,0,0,0,.25747-.62128v-1.0241a.88252.88252,0,0,0-.77485-.87327h-.00518l-.0259-.00274-.00518-.00091h-.00091l-.00427-.00061h-.01554l-.00274-.00092h-.011l-.00183-.00091H1.45715l-.00152.00091H1.44436l-.00275.00092H1.42607l-.00426.00061H1.42089l-.00518.00091H1.41053l-.00518.00092H1.39926L1.395,11.2879l-.00517.00091H1.38464l-.00518.00092H1.37428l-.00762.00152H1.36392l-.00427.00183H1.35356l-.00427.00091-.00427.00092-.00609.00061-.00427.00086H1.33375l-.00945.00188H1.32339l-.00427.00091-.00518.00092-.00944.00239-.00274.001-.032.007H1.26885l-.00853.00244-.00092.00091-.01889.00427-.00183.00091-.00335.00091-.01737.00518-.00091.00092-.00945.00244H1.20669l-.00427.00182-.00426.00153v.00091l-.00518.00183-.00427.00091-.00182.00092-.00336.00061-.00426.00183-.00183.00091-.00274.00183-.01463.00426-.00244.00153-.00182.00086-.00427.00188-.00366.00183H1.14727l-.00457.00152-.00426.00274H1.13752l-.00426.00153-.00427.00183-.00091.00086-.00762.0034-.00274.00092-.00153.00091-.00457.00274-.00335.00061-.00091.00091-.00518.0027-.00335.00157H1.09791l-.00335.00274-.00518.00178h0l-.00426.00249-.00884.00426-.00427.00183-.00182.00183-.00244.00061-.0061.00457-.00182.00061-.01707.00975h0a1.02868,1.02868,0,0,0-.13833.09994l-.00092.00274-.02163.01981-.01371.013-.00091.00066a.8785.8785,0,0,0-.25656.62128v1.0241a.8801.8801,0,0,0,.87845.87936Zm2.13929.43877-.95432.5512H9.78337l-.95523-.5512ZM.96415,10.95273l.00853-.00335H.9736l.00182-.00091L.977,10.94755l.00274-.00091h0l.00152-.00092L.983,10.94511H.984l.00182-.00091H.98731l.00091-.00183H.99005l.00244-.00183H.99614l.00061-.00065L.99858,10.939a1.16646,1.16646,0,0,1,.16149-.05363H1.1619l.00609-.00183.03718-.00853.00426-.00183h.00335c.01463-.0034.02926-.00609.0448-.00853v-.001l.00792-.00087.02255-.00426h.00243l.00518-.001.007-.00148H1.306l.00518-.00091.00792-.00092h.00671l.00792-.00182.00518-.001h.00244l.00792-.00056.00609-.00091h.00153l.007-.00092.01645-.00091.00792-.00091H1.3889l.00609-.00092.00884-.00061h.00762l.00792-.00091H1.427l.00792-.00092H12.75907l.00853.00092h.00762l.00792.00091h.00762l.00792.00061.007.00092h.00091l.00762.00091h.00792l.00762.00091.00792.00092h.00153l.0131.00147.00335.001h.00427l.00792.00182h.00762l.00792.00092a1.29742,1.29742,0,0,1,.34614.0975V1.31813a.878.878,0,0,0-.87815-.87845H1.84321a.87959.87959,0,0,0-.87906.87845v9.6346ZM9.49574,8.0913a.21925.21925,0,0,0-.21939.21938v1.433a.21947.21947,0,0,0,.21939.21939h2.6a.21947.21947,0,0,0,.21938-.21939v-1.433a.21924.21924,0,0,0-.21938-.21938Zm2.38062.43968H9.71512v.99241h2.16124V8.531ZM2.31823,7.24911h9.55813V2.08933H2.31823V7.24911Zm9.77751.44059a.22.22,0,0,0,.21938-.22034V1.86994a.21924.21924,0,0,0-.21938-.21938H2.09824a.21964.21964,0,0,0-.21938.21938V7.46936a.22043.22043,0,0,0,.21938.22034Zm-9.9975.4016a.21964.21964,0,0,0-.21938.21938v1.433a.21986.21986,0,0,0,.21938.21939h2.5997a.22006.22006,0,0,0,.2203-.21939v-1.433a.21983.21983,0,0,0-.2203-.21938ZM4.47855,8.531H2.31823v.99241H4.47855V8.531Zm9.19675,7.56965-2.76393-1.59632H9.70476l.99424.57436a.21986.21986,0,0,1-.09659.41713H3.59249v-.00152a.2188.2188,0,0,1-.10969-.4086l1.007-.58137H3.2823L.51837,16.10063l.30318.52165,1.44336-.83366a.21865.21865,0,0,1,.12158-.03718h9.4207v.00092a.224.224,0,0,1,.11061.02955l1.45524.84037.15113-.26083Z" style="fill:#a1afba;fill-rule:evenodd"/></g></svg>