<svg xmlns="http://www.w3.org/2000/svg" viewBox="0 0 20.77616 17.98428"><title>target-icon-uc-santa-barbara</title><g id="ICONS"><path d="M19.85849,8.77108l.44821-1.00981-3.23377.0043a.95342.95342,0,0,0-.52256.15053.90345.90345,0,0,0-.3306.3894l-.2075.4665,3.84622-.00092Zm-4.24264.43968.30684.68741a1.28034,1.28034,0,0,0,.4757.56578,1.23692,1.23692,0,0,0,.6788.19779l.30592-.00091a8.55535,8.55535,0,1,1,0-3.33555l-.31018.00092a1.23737,1.23737,0,0,0-.67705.19683,1.29371,1.29371,0,0,0-.47411.56583l-.305.684H14.52594a.21432.21432,0,0,0,.02682-.11849,5.56864,5.56864,0,1,0,0,.67735.22151.22151,0,0,0-.02773-.121Zm-1.47261,0-2.763.00088a.21349.21349,0,0,1,.025.13989A2.439,2.439,0,0,1,7.268,10.71685l-.00061.001a2.43957,2.43957,0,1,1,4.13873-2.08323.21363.21363,0,0,1-.0259.13985l2.76211-.00156a.2112.2112,0,0,1-.02682-.0932,5.14283,5.14283,0,1,0-.00061.62616.228.228,0,0,1,.02834-.09507Zm-3.14572.00088L8.85914,9.2132a.21893.21893,0,0,1,0-.43785l2.13838-.00092a.22439.22439,0,0,1-.02583-.07587A2.00082,2.00082,0,1,0,7.57818,10.407h0v.00092a2.00136,2.00136,0,0,0,3.39351-1.11947.22986.22986,0,0,1,.02583-.07682Zm9.159-.22117.5969,1.33519a.25659.25659,0,0,1-.064.30074.13592.13592,0,0,1-.09751.02834l-2.7624.00517a8.99146,8.99146,0,1,1,0-3.33554L20.59434,7.321a.1483.1483,0,0,1,.09232.02833.25606.25606,0,0,1,.064.30074l-.59416,1.34038Zm-3.0793,1.23159,3.23049-.00609-.44919-1.00433-3.84531.00156.20811.46832a.90118.90118,0,0,0,.33182.39032A.96145.96145,0,0,0,17.07719,10.22206Z" style="fill:#a1afba;fill-rule:evenodd"/></g></svg>