<svg xmlns="http://www.w3.org/2000/svg" viewBox="0 0 17.14057 18.4395"><title>traffic-cone-icon-uc-santa-barbara</title><g id="ICONS"><path d="M.2203,14.95009H1.9711l.92934-3.55433a.25409.25409,0,0,1,.00853-.0363L3.8773,7.65771a.15756.15756,0,0,1,.00945-.03535l.96833-3.7021a.22253.22253,0,0,1,.00853-.03534L5.62208.98631A1.30783,1.30783,0,0,1,6.896,0H10.2437a1.308,1.308,0,0,1,1.27486.98631L12.276,3.88309a.26732.26732,0,0,1,.00945.03809l.96833,3.70118a.139.139,0,0,1,.00853.03444l.96834,3.70266a.18532.18532,0,0,1,.00945.03478l.93024,3.55585h1.75a.2204.2204,0,0,1,.22023.21938v3.05065a.2204.2204,0,0,1-.22023.21938H.2203A.21983.21983,0,0,1,0,18.22012V15.16947a.21983.21983,0,0,1,.2203-.21938Zm5.1348-11.212h6.43038l-.691-2.642a.88335.88335,0,0,0-.31178-.47594.87246.87246,0,0,0-.539-.17946H6.896a.87453.87453,0,0,0-.539.17946.88353.88353,0,0,0-.3108.47594l-.691,2.642Zm6.54525.43964H5.24022L4.37731,7.4755h8.385l-.862-3.29781Zm.97686,3.73749H4.26244l-.862,3.29746H13.73928l-.86207-3.29746Zm.97785,3.73714H3.28558l-.862,3.29777H14.717l-.86193-3.29777Zm2.8459,3.73745H.43968v2.61H16.701Z" style="fill:#a1afba;fill-rule:evenodd"/></g></svg>