<svg xmlns="http://www.w3.org/2000/svg" viewBox="0 0 17.58239 17.37267"><title>upload-icon-uc-santa-barbara</title><g id="ICONS"><path d="M6.63849,11.73024v-4.938H4.51443a.21925.21925,0,0,1-.2203-.21844.22409.22409,0,0,1,.04845-.13742L8.60929.09773A.21874.21874,0,0,1,8.91338.03706.22555.22555,0,0,1,8.974.09773L13.252,6.451a.21972.21972,0,0,1-.06063.30413.21725.21725,0,0,1-.121.03714H10.95182v4.938a1.31509,1.31509,0,0,1-.387.93086l-.00092.00091a1.31519,1.31519,0,0,1-.93116.387H7.95632a1.32121,1.32121,0,0,1-1.31783-1.31874ZM1.31874,16.933H16.26456a.88033.88033,0,0,0,.621-.25629l.00091-.00088a.87737.87737,0,0,0,.25656-.621V13.5042a.88057.88057,0,0,0-.87845-.87936h-.54084a.877.877,0,0,0-.62007.25747l-.00091.00088a.87723.87723,0,0,0-.25747.621v.911a.21983.21983,0,0,1-.21938.2203H2.95711a.21944.21944,0,0,1-.21938-.2203v-.911a.88161.88161,0,0,0-.87906-.87936H1.31874a.87913.87913,0,0,0-.621.25747l-.00091.00088a.87723.87723,0,0,0-.25747.621v2.55064a.8801.8801,0,0,0,.87936.87815Zm14.94582.43968a1.30924,1.30924,0,0,0,.93025-.387l.00152-.00091a1.31085,1.31085,0,0,0,.38606-.93V13.5042a1.31965,1.31965,0,0,0-1.31783-1.31813h-.54084a1.31724,1.31724,0,0,0-.93025.387h0l-.00061.00091-.00183.00183a1.3146,1.3146,0,0,0-.38514.92842v.69167H3.17649V13.5042a1.32068,1.32068,0,0,0-1.31782-1.31813H1.31874a1.31886,1.31886,0,0,0-.93116.387h0V12.574l-.00244.00183A1.31455,1.31455,0,0,0,0,13.5042v2.55064a1.32226,1.32226,0,0,0,1.31874,1.31783ZM7.07878,6.57381v5.15643a.88011.88011,0,0,0,.87754.87906H9.63277a.87636.87636,0,0,0,.62189-.25747v-.00061a.87527.87527,0,0,0,.25748-.621V6.57381a.22.22,0,0,1,.22029-.22033h1.9251L8.7915.61145l-3.86512,5.742H6.85879A.22057.22057,0,0,1,7.07878,6.57381Z" style="fill:#a1afba;fill-rule:evenodd"/></g></svg>