<svg xmlns="http://www.w3.org/2000/svg" viewBox="0 0 21.28631 12.82694"><title>van-icon-UC-Santa-Barbara</title><g id="ICONS"><path d="M12.56642,1.07711h2.5607a.75236.75236,0,0,1,.40951.12005.81992.81992,0,0,1,.28672.323l1.88122,3.69661a.21992.21992,0,0,1-.19531.31963H12.56642a.21983.21983,0,0,1-.21938-.2203v-4.019a.22035.22035,0,0,1,.21938-.22ZM7.46087,5.533a.21969.21969,0,1,1,0,.43938H1.69657a.21969.21969,0,0,1,0-.43938ZM4.62869,10.18915a.64517.64517,0,0,0-.45766.18922l-.01036.01036a.64873.64873,0,0,0,.00945.90618H4.171a.64919.64919,0,0,0,.91562,0l.01036-.00975a.6479.6479,0,0,0-.46832-1.096Zm-.76876-.121a1.08675,1.08675,0,0,1,1.55062,1.52294l-.0131.01462a1.08872,1.08872,0,0,1-1.53752,0l.00092-.00091a1.08414,1.08414,0,0,1-.0128-1.52259l.01188-.01406Zm13.404.121a.63662.63662,0,0,0-.45674.18922h0a.64735.64735,0,0,0,0,.91654l.00853.01031a.64816.64816,0,0,0,.90618-.92685l-.00975-.00944a.64157.64157,0,0,0-.44822-.17978Zm-.76784-.121a1.08457,1.08457,0,0,1,1.52289-.01275l.01371.01275a1.08663,1.08663,0,0,1-1.5235,1.54975l-.0131-.01219a1.08657,1.08657,0,0,1,0-1.53756Zm.76967-.78486a1.54777,1.54777,0,0,1,1.08748.444l.00944.01036A1.55212,1.55212,0,0,1,16.168,11.9329h-.00091A1.55242,1.55242,0,0,1,17.2658,9.28328Zm-1.408.14413a1.98995,1.98995,0,0,1,2.80293-.01311l.01279.01311a1.991,1.991,0,1,1-2.81572,2.81572h0a1.99165,1.99165,0,0,1,0-2.81572ZM4.62869,9.28328a1.54558,1.54558,0,0,1,1.08747.444l.00945.01036a1.55218,1.55218,0,0,1-2.18348,2.20663l-.01036-.01132a1.551,1.551,0,0,1,0-2.19531h0a1.54264,1.54264,0,0,1,1.09692-.45431ZM3.221,9.42741A1.98958,1.98958,0,0,1,6.02361,9.4143l.0131.01311a1.99051,1.99051,0,0,1-2.802,2.82791L3.221,12.24313a1.99091,1.99091,0,0,1,0-2.81572ZM1.67128,0A1.31235,1.31235,0,0,0,.74286.38423L.74042.38605.73951.387h0a1.31719,1.31719,0,0,0-.387.93116V7.73785H.21938A.22.22,0,0,0,0,7.95814V9.411a1.32121,1.32121,0,0,0,1.31813,1.31813H1.9254a.22062.22062,0,0,0,.21847-.1944,2.50335,2.50335,0,0,1,4.96965-.00853.21986.21986,0,0,0,.21877.20293H14.5622a.22.22,0,0,0,.21786-.1944,2.50335,2.50335,0,0,1,4.96965-.00853.2198.2198,0,0,0,.21939.20293h.54846a.76982.76982,0,0,0,.76875-.76876V7.95814a.21924.21924,0,0,0-.21847-.22029h-.13376V6.56841a1.31127,1.31127,0,0,0-1.11093-1.30076l-.94579-.14931L16.70272.76449a1.41717,1.41717,0,0,0-.49331-.56065A1.29362,1.29362,0,0,0,15.50647,0ZM15.50647.43877H1.67128a.87724.87724,0,0,0-.62189.25747V.69685a.87646.87646,0,0,0-.25717.62128v6.64a.21964.21964,0,0,1-.21938.21939H.43877V9.411a.88062.88062,0,0,0,.87936.87845h.419a2.94337,2.94337,0,0,1,5.78351,0h6.8533a2.94337,2.94337,0,0,1,5.7835,0h.36016a.32978.32978,0,0,0,.33-.32908V8.17753H20.7147a.22042.22042,0,0,1-.2203-.21939V6.56841a.87292.87292,0,0,0-.74042-.86779L18.69789,5.533V5.53213a.21658.21658,0,0,1-.16088-.11762L16.31057.96041a.973.973,0,0,0-.33852-.38788.8571.8571,0,0,0-.46558-.13376ZM15.12712,1.5174H12.78641V5.09762h4.36543L15.43212,1.71881a.38907.38907,0,0,0-.13224-.153A.31992.31992,0,0,0,15.12712,1.5174Z" style="fill:#a1afba;fill-rule:evenodd"/></g></svg>