<svg xmlns="http://www.w3.org/2000/svg" viewBox="0 0 17.77124 17.29677"><title>wrench-and-screwdriver-icon-uc-santa-barbara</title><g id="ICONS"><path d="M6.04645,7.8063,3.66065,5.41989l-.8757.03778a.21773.21773,0,0,1-.1813-.082L.04875,2.23456A.2203.2203,0,0,1,.06611,1.939L1.43665.57a.21818.21818,0,0,1,.29471-.0128L4.86909,3.11453a.21563.21563,0,0,1,.08044.17978l-.039.87566L7.296,6.55642,8.6428,5.21a4.57232,4.57232,0,0,1,1.30076-3.866L9.94265,1.343A4.5869,4.5869,0,0,1,14.827.30307a.21889.21889,0,0,1,.0777.36015h0L12.22789,3.34l.51495,1.68921,1.68925.51494L17.108,2.86742a.22107.22107,0,0,1,.3111,0,.21542.21542,0,0,1,.05332.08562,4.60453,4.60453,0,0,1,.19781,2.59208,4.58641,4.58641,0,0,1-3.07478,3.40471,4.61233,4.61233,0,0,1-2.12376.16576h0l3.92819,3.9291.01194.0131a1.31888,1.31888,0,0,1-.01194,1.85075l-.25412.25473-.00427.00365L14.6533,16.656l-.25656.25564-.01279.0128a1.32026,1.32026,0,0,1-1.851-.0128l-3.90509-3.905L4.78012,16.90031a1.29077,1.29077,0,0,1-.42749.29287,1.37092,1.37092,0,0,1-1.014.00243,1.32613,1.32613,0,0,1-.42841-.28824L.86077,14.85674a1.316,1.316,0,0,1,0-1.86293V12.992L6.04645,7.8063Zm3.92728,3.8383,4.52417,4.5449,1.17889-1.17889-4.53119-4.5519L9.97373,11.6446Zm4.214,4.85508L9.66628,11.95631l-.47868.48294-.25138.25473,3.90753,3.90747a.88453.88453,0,0,0,1.23336.01036l.00945-.01036.10116-.10177ZM9.45726,11.54344a.209.209,0,0,1,.04394-.06308l1.48809-1.48815h.00091l1.01587-1.02775.00427-.00427.25229-.25564a.21918.21918,0,0,1,.29434-.0259l.01127.00853A4.17862,4.17862,0,0,0,14.4617,8.5327a4.15575,4.15575,0,0,0,2.78-3.07838,4.17856,4.17856,0,0,0-.07343-2.02625L14.65,5.94672H14.649a.22075.22075,0,0,1-.21847.05423L12.50426,5.4138h0a.2171.2171,0,0,1-.146-.146l-.582-1.90711a.22126.22126,0,0,1,.04845-.23828L14.34312.60381a4.14273,4.14273,0,0,0-4.08968,1.0503v-.001l-.00091.001A4.12362,4.12362,0,0,0,9.23879,3.30893,4.16894,4.16894,0,0,0,9.0901,5.2392a.21832.21832,0,0,1-.05363.19775l-.00518.0061L7.45173,7.022l-.93964.93974L6.50746,7.966,1.17071,13.30308h0a.883.883,0,0,0,0,1.24287l2.05063,2.05032a.87112.87112,0,0,0,1.24622-.00244l3.99211-4.04062.01189-.01371.01127-.01036.97443-.9857ZM11.45335,10.147l4.53271,4.55434.1036-.10359A.88119.88119,0,0,0,16.1,13.36524l-.01036-.01036L12.1633,9.42821l-.70995.71879ZM2.57349,13.6803,4.0918,15.19892,5.61018,13.6803,4.0918,12.162,2.57349,13.6803Zm1.36292,1.98481a.22013.22013,0,0,0,.31079,0L6.0757,13.835a.2177.2177,0,0,0,0-.31014L4.2472,11.69548a.22173.22173,0,0,0-.31079,0L2.107,13.5249a.21934.21934,0,0,0,0,.31014l1.82942,1.83007ZM3.90259,5.04141,6.35633,7.497l.62982-.63047L4.5324,4.411a.21491.21491,0,0,1-.06307-.16423l.03784-.862L1.60607,1.02.51341,2.11085l2.36234,2.9047.86017-.03813a.21993.21993,0,0,1,.16667.064ZM1.72947.55536l.00189.00183Z" style="fill:#a1afba;fill-rule:evenodd"/></g></svg>