<svg xmlns="http://www.w3.org/2000/svg" viewBox="0 0 18.23 18.23" >
<title>axe-icon-uc-santa-barbara</title>
<path style="fill:#a1afba;fill-rule:evenodd" fill-rule="evenodd" clip-rule="evenodd" d="M11.494,10.851h-0.928h-0.004h-0.004h-0.002h-0.004h-0.004l-0.004,0.002h-0.002
	h-0.004h-0.002h-0.002h-0.004h-0.002h-0.002h-0.002h-0.002h-0.006l0,0l-0.002,0.002h-0.004H10.51h-0.002h-0.004h-0.002h-0.004l0,0
	h-0.002h-0.004h-0.004v0.002h-0.004h-0.002h-0.004l0,0h-0.004h-0.002h-0.004h-0.002h-0.006l-0.002,0.004h-0.006l-0.002,0.002h-0.002
	h-0.004h-0.004h-0.002l-0.004,0.002h-0.004H10.43l0,0h-0.004l-0.002,0.002h-0.002H10.42h-0.004l-0.002,0.002h-0.002H10.41h-0.002
	h-0.004l-0.002,0.002H10.4h-0.004l-0.002,0.002h-0.002h-0.004l-0.004,0.002h-0.002h-0.002h-0.002l-0.004,0.002l-0.002,0.002h-0.004
	h-0.004v0.002h-0.002h-0.004h-0.004l-0.002,0.002h-0.002l-0.004,0.002h-0.004l-0.004,0.002h-0.002l0,0l-0.004,0.002
	c-0.014,0.004-0.025,0.01-0.037,0.012h-0.002h-0.002l-0.006,0.006h-0.002l-0.002,0.002c-0.012,0.004-0.023,0.008-0.033,0.014l0,0
	c-0.029,0.014-0.059,0.029-0.086,0.047l-0.008,0.002c-0.049,0.031-0.092,0.066-0.133,0.105v0.002
	c-0.139,0.139-0.225,0.332-0.225,0.543v5.48c0,0.211,0.086,0.402,0.225,0.541c0.141,0.141,0.332,0.227,0.543,0.227h0.928
	c0.211,0,0.402-0.086,0.541-0.225l0.002-0.002c0.139-0.139,0.225-0.33,0.225-0.541v-5.48c0-0.211-0.086-0.404-0.227-0.543
	c-0.039-0.043-0.086-0.076-0.135-0.107v-0.002h-0.002h-0.002l-0.002-0.002l0,0l-0.002-0.002h-0.002
	c-0.08-0.049-0.17-0.084-0.266-0.1l-0.004-0.002h-0.002l-0.02-0.002l-0.002-0.004h-0.016h-0.004h-0.006l-0.004-0.002h-0.004h-0.002
	h-0.002h-0.004h-0.002h-0.002h-0.006h-0.004v-0.002h-0.002h-0.004h-0.004l0,0h-0.002h-0.004h-0.002h-0.002h-0.002h-0.006h-0.002
	l-0.004-0.002h-0.002h-0.004H11.5h-0.004H11.494z M6.485,0.46C6.495,0.462,6.502,0.465,6.51,0.468l2.366,0.696
	C9.037,1.21,9.19,1.243,9.344,1.266c0.152,0.021,0.308,0.033,0.478,0.033h0.047V1.25c0-0.186,0.074-0.352,0.197-0.475l0.002-0.001
	c0.119-0.121,0.289-0.197,0.473-0.197h0.977c0.18,0,0.342,0.071,0.463,0.187c0.004,0.003,0.01,0.007,0.012,0.011
	c0.123,0.122,0.197,0.29,0.197,0.476v0.048h0.271c0.316,0,0.605,0.13,0.814,0.336c0.207,0.21,0.338,0.498,0.338,0.815v2.134
	c0,0.317-0.131,0.606-0.338,0.814h-0.002c-0.209,0.208-0.496,0.338-0.813,0.338h-0.271v4.965c0.043,0.033,0.082,0.064,0.117,0.104
	c0.211,0.209,0.338,0.496,0.338,0.814v5.48c0,0.316-0.127,0.605-0.338,0.813l0,0c-0.209,0.211-0.496,0.34-0.813,0.34h-0.928
	c-0.318,0-0.605-0.129-0.814-0.34c-0.208-0.207-0.337-0.496-0.337-0.813v-5.48c0-0.318,0.127-0.604,0.335-0.813h0.002v-0.002
	c0.037-0.035,0.076-0.07,0.117-0.102V5.738H9.822c-0.17,0-0.326,0.011-0.478,0.033C9.19,5.792,9.037,5.825,8.876,5.873L6.511,6.568
	C6.502,6.571,6.494,6.573,6.484,6.575L4.863,7.051C4.761,7.08,4.655,7.022,4.625,6.921C4.62,6.903,4.618,6.885,4.618,6.867H4.617
	v-6.7c0-0.106,0.086-0.191,0.193-0.191c0.023,0,0.046,0.004,0.067,0.011L6.485,0.46z M6.635,0.905v5.227l2.132-0.625
	c0.18-0.054,0.351-0.091,0.523-0.116c0.173-0.024,0.346-0.036,0.532-0.036h0.24h1.936h0.463c0.211,0,0.402-0.087,0.543-0.227
	c0.139-0.139,0.225-0.331,0.225-0.543V2.45c0-0.211-0.086-0.404-0.225-0.543c-0.141-0.14-0.332-0.227-0.543-0.227h-0.463h-1.936
	h-0.24c-0.186,0-0.359-0.01-0.532-0.036C9.119,1.621,8.948,1.583,8.768,1.531L6.635,0.905z M6.251,6.244V0.791L4.999,0.424V6.61
	L6.251,6.244z M11.518,0.961h-0.977c-0.08,0-0.15,0.034-0.203,0.085c-0.053,0.052-0.084,0.125-0.084,0.204v0.048h1.551V1.25
	c0-0.079-0.031-0.152-0.082-0.204l-0.008-0.007C11.662,0.991,11.594,0.961,11.518,0.961 M10.254,5.738v4.774h0.004l0.006-0.002
	h0.002l0.002-0.002h0.004l0.01-0.002l0.006-0.002l0.004-0.002l0.004-0.002h0.002l0.004-0.002h0.006l0,0
	c0.02-0.004,0.037-0.01,0.057-0.012h0.004l0.02-0.004h0.006l0,0l0.004-0.002h0.006h0.004h0.002h0.004l0.004-0.002h0.006h0.004
	l0.006-0.002h0.004h0.002h0.004h0.004h0.004l0.002-0.002h0.004l0.006-0.002h0.004h0.002h0.004h0.004h0.004h0.002h0.006l0.004-0.002
	h0.004h0.002h0.006h0.004h0.002h0.004h0.004h0.006h0.002l0.002-0.002h0.006h0.006l0,0h0.004h0.004h0.006h0.006h0.004h0.006h0.928
	h0.004h0.006h0.004h0.006h0.004h0.006l0,0h0.006h0.004l0.006,0.002h0.004h0.006h0.004h0.002h0.004h0.006h0.004l0.004,0.002h0.008
	h0.002h0.002h0.004h0.006h0.004l0,0l0.006,0.002h0.004l0.004,0.002h0.002h0.006h0.004h0.002h0.004l0.004,0.002h0.008h0.002
	l0.006,0.002h0.004c0.053,0.006,0.105,0.018,0.152,0.031V5.738H10.254z"/>
</svg>
