<svg xmlns="http://www.w3.org/2000/svg" viewBox="0 0 17.19657 17.13265"><title>brick-icon-uc-santa-barbara</title><g id="ICONS"><path d="M1.32324.00091,3.61215.00274,3.61733.00183l.00609.00091L15.87935.00792a1.31809,1.31809,0,0,1,1.31722,1.31722h-.00092L17.1942,5.78259V5.8l-.00464,10.01639a1.32075,1.32075,0,0,1-1.31775,1.3163l-14.5555-.00671A1.31638,1.31638,0,0,1,0,15.80873L.00176,11.3528v-.02407L.0061,1.31813h-.001V1.31722h.001A1.31808,1.31808,0,0,1,1.32324.00091V0h0V.00091ZM8.81855,6.0038v5.12444h4.96477l.02072.00091,2.94949.00153.00336-5.12079-3.175-.00182a.25.25,0,0,1-.04236-.00427Zm-.43968,5.12444V6.0038H3.6155l-.01981-.001L.44144,6.00106.43961,11.12214l3.17254.00183a.21406.21406,0,0,1,.043.00427Zm5.42243.43877H13.798l-.00183,5.12687,2.07569.00088a.8811.8811,0,0,0,.8799-.87841l.00182-4.24843L13.8013,11.567Zm-.4406,0H3.83153l-.00274,5.12261,9.53039.00426L13.3607,11.567ZM3.834,5.565h9.53039L13.36588.444,3.8358.43968,3.834,5.565Zm-.443,11.12459.00275-5.12871L.43877,11.56.43718,15.80873a.88331.88331,0,0,0,.87913.87936l2.07462.00153ZM.44144,5.56409,3.397,5.565,3.39886.43968,1.32324.43816V.43968h0V.43816a.88325.88325,0,0,0-.87936.87906h.001v.00091h-.001l-.00244,4.246ZM13.80313.444l-.00092,5.12718,2.95468.00091.00182-4.2469h-.00182a.88052.88052,0,0,0-.87754-.88028Z" style="fill:#a1afba;fill-rule:evenodd"/></g></svg>