<svg xmlns="http://www.w3.org/2000/svg" viewBox="0 0 13.83237 18.19331"><title>business-agreement-icon-uc-santa-barbara</title><g id="ICONS"><path d="M2.52558,11.61362a.21984.21984,0,1,1,0-.43968H9.06481a.21984.21984,0,1,1,0,.43968ZM1.31805.00091V0H1.31714V.00091A1.31951,1.31951,0,0,0,0,1.31813V16.87518H.00084a1.31808,1.31808,0,0,0,1.3163,1.31721v.00092H12.51a1.31965,1.31965,0,0,0,1.3173-1.31722l.00419-11.978.00091-.02078a.21822.21822,0,0,0-.07587-.1657L9.1269.0777A.218.218,0,0,0,8.96022.00091l-.0198.00092L1.31805.00091ZM8.73993.43968,1.31805.43877V.43968H1.31714V.43877a.88.88,0,0,0-.87753.87936V16.87518H.43778a.88376.88376,0,0,0,.87936.88027v-.00091H12.51a.88063.88063,0,0,0,.87937-.87845l.00525-11.77847H10.05813a1.31556,1.31556,0,0,1-.93032-.386L9.1269,4.71066v-.001l-.00275-.00147a1.31633,1.31633,0,0,1-.38422-.92873V.43968Zm4.34349,4.21918H10.05813a.87722.87722,0,0,1-.62044-.25747l-.00152-.00092a.87915.87915,0,0,1-.25656-.621V.75048l3.90381,3.90838Zm-2.60914,7.72779a1.3111,1.3111,0,0,1,.93024.38422l.00092.00092a1.316,1.316,0,0,1-.00092,1.85958v.00152a1.31616,1.31616,0,0,1-1.87176-1.85074l.01218-.01036a1.30648,1.30648,0,0,1,.92934-.38514Zm-1.24044.075a1.75224,1.75224,0,0,1,2.47995-.00091l.00092.00091h.00061a1.75332,1.75332,0,0,1,0,2.48056h-.00061A1.75406,1.75406,0,0,1,9.222,12.47379l.01188-.01219ZM2.52558,6.90632a.2203.2203,0,1,1,0-.44059h7.6766a.2203.2203,0,1,1,0,.44059Zm0,2.2819a.21985.21985,0,1,1,0-.43969h8.30276a.21985.21985,0,1,1,0,.43969Z" style="fill:#a1afba;fill-rule:evenodd"/></g></svg>