<svg xmlns="http://www.w3.org/2000/svg" viewBox="0 0 14.38182 18.53975"><title>calculator-icon-uc-santa-barbara</title><g id="ICONS"><path d="M13.06369.43877H1.3182a.88218.88218,0,0,0-.87943.87936V17.22162a.87386.87386,0,0,0,.25747.62006l.00091.00092a.87427.87427,0,0,0,.62105.25747H13.06369a.8822.8822,0,0,0,.87936-.87845V1.31813a.87747.87747,0,0,0-.25747-.621h-.00091a.87664.87664,0,0,0-.621-.25838ZM10.43809,15.274a.21984.21984,0,1,1-.43968,0v-.46985a.21984.21984,0,0,1,.43968,0V15.274Zm0-1.628a.21984.21984,0,0,1-.43968,0v-.46985a.21984.21984,0,0,1,.43968,0V13.646Zm-1.26541.82117a.21969.21969,0,0,1,0-.43938H11.269a.21969.21969,0,0,1,0,.43938Zm-5.899-.82543a.21987.21987,0,0,1,.3108-.3111l.5771.577.57954-.58039a.2207.2207,0,0,1,.30988,0,.21849.21849,0,0,1,0,.31079l-.57863.5804.58228.58233a.21987.21987,0,0,1-.3111.3108l-.582-.58289-.58046.57948A.21931.21931,0,1,1,3.271,14.798l.57954-.57959-.5768-.57674ZM5.20061,8.6233a.21939.21939,0,1,1,0,.43877H4.37738v.85011a.22018.22018,0,0,1-.44036,0V9.06207H3.12165a.21939.21939,0,1,1,0-.43877H3.937V7.83383a.22018.22018,0,0,1,.44036,0V8.6233Zm3.97207.49143a.21939.21939,0,1,1,0-.43877H11.269a.21939.21939,0,0,1,0,.43877ZM7.84449,11.88481h4.753a.21866.21866,0,0,1,.21938.21938v4.14757a.21929.21929,0,0,1-.21938.21939h-4.753a.21987.21987,0,0,1-.2203-.21939V12.10419a.21925.21925,0,0,1,.2203-.21938Zm4.53363.43876v3.70784H8.06387V12.32357ZM7.84449,6.57963h4.753a.21948.21948,0,0,1,.21938.21938v4.14763a.21944.21944,0,0,1-.21938.2203h-4.753a.22.22,0,0,1-.2203-.2203V6.799a.22007.22007,0,0,1,.2203-.21938Zm4.53363.43973v3.70789H8.06387V7.01936ZM1.78463,11.88481H6.5377a.21871.21871,0,0,1,.21939.21938v4.14757a.21933.21933,0,0,1-.21939.21939H1.78463a.21968.21968,0,0,1-.21939-.21939V12.10419a.21905.21905,0,0,1,.21939-.21938Zm4.53369.43876v3.70784H2.004V12.32357ZM1.78463,6.57963H6.5377a.21952.21952,0,0,1,.21939.21938v4.14763a.21949.21949,0,0,1-.21939.2203H1.78463a.21984.21984,0,0,1-.21939-.2203V6.799a.21987.21987,0,0,1,.21939-.21938Zm4.53369.43973v3.70789H2.004V7.01936Zm-4.53369-5.164H12.5975a.21944.21944,0,0,1,.21938.22029V5.38343a.21925.21925,0,0,1-.21938.21939H1.78463a.21964.21964,0,0,1-.21939-.21939V2.07561a.21983.21983,0,0,1,.21939-.22029ZM12.37812,2.295V5.16344H2.004V2.295ZM1.3182,0H13.06369a1.31682,1.31682,0,0,1,.93116.387V.38788a1.3109,1.3109,0,0,1,.387.93025V17.22162a1.32121,1.32121,0,0,1-1.31813,1.31813H1.3182a1.31774,1.31774,0,0,1-.92849-.38459l-.00183-.00238L.387,18.15187H.38605A1.31715,1.31715,0,0,1,0,17.22162V1.31813A1.31963,1.31963,0,0,1,1.3182,0Z" style="fill:#a1afba;fill-rule:evenodd"/></g></svg>