<svg xmlns="http://www.w3.org/2000/svg" viewBox="0 0 23.43671 16.78425"><title>cement-truck-icon-uc-santa-barbara</title><g id="ICONS"><path d="M19.32815,12.1047a2.11854,2.11854,0,1,0,1.50034.621h-.00183a2.11305,2.11305,0,0,0-1.49851-.621ZM1.33594,1.63553l7.2744,1.44153.0198.00457,2.66612.71422a.2341.2341,0,0,1,.03626.01371l2.594,1.00185.23576-.88332a.8691.8691,0,0,0-.03382-.564h.00091l-.00091-.00186A.869.869,0,0,0,13.75283,2.94V2.939L11.80085,1.812,9.16916,1.10718,2.41732.44294a.87151.87151,0,0,0-.93543.64779l-.146.5448ZM13.10588,7.86816,12.87,8.75179a.86472.86472,0,0,1-.8489.65114H9.76332L7.13681,8.7,4.48958,7.49947a.18288.18288,0,0,0-.02346-.01036L.95507,5.89733a.87373.87373,0,0,1-.48539-1.028l.146-.54481L7.6292,6.71088l.02072.007,2.67131.7151h0l.02407.00429,2.76058.43085ZM8.51862,3.50639l2.657.71177,2.636,1.01922h0l-.59173,2.206L10.42909,7.008l-2.66-.71269L.72959,3.89945h0L1.222,2.05967,8.51862,3.50639ZM8.625,3.08072l.00518.00091L8.625,3.08072ZM4.6078,8.03422V9.40293H8.06858L7.00731,9.119A.25418.25418,0,0,1,6.965,9.10341L4.6078,8.03422ZM4.39969,9.8417l-.01127.00091L4.37623,9.8417H3.34v.47259h9.29791V9.8417h-.58929l-.02743.00091H9.73468L9.72432,9.8417H4.39969Zm-.23157-.43877V7.83556L.77567,6.29713A1.31188,1.31188,0,0,1,.04554,4.75535l.20658-.77028L.85147,1.748.8533,1.74278l.20475-.766A1.31263,1.31263,0,0,1,2.45967.00661L9.23284.67268a.22357.22357,0,0,1,.03565.007h0l2.67138.71513a.22434.22434,0,0,1,.06817.03108L13.97221,2.56v0a1.3167,1.3167,0,0,1,.56149.6356h0a1.30993,1.30993,0,0,1,.05271.84646L14.28659,5.1606l-.178.66485-.81446,3.0403a1.33416,1.33416,0,0,1-.31628.56826.21543.21543,0,0,1,.11152.18831v.692h1.84922V3.46677a.22.22,0,0,1,.2203-.22032h5.74214a1.31374,1.31374,0,0,1,.797.266l.00091-.001a1.32492,1.32492,0,0,1,.47076.6981l1.21789,4.3505.00244.01036a1.30416,1.30416,0,0,1,.03473.16576,1.42133,1.42133,0,0,1,.01188.17886v5.30908a.22.22,0,0,1-.22029.2203h-.70813a.21983.21983,0,0,1-.21938-.2203,2.96143,2.96143,0,0,0-5.05436-2.0945v.0018a2.9536,2.9536,0,0,0-.86717,2.0927.21931.21931,0,0,1-.21938.21878v.00152h-.76968v.401a.21976.21976,0,0,1-.21938.22h-4.969a.22016.22016,0,0,1-.2203-.22v-.42415H9.48513a.2206.2206,0,0,1-.2203-.22029l.00092-.01646A2.96142,2.96142,0,0,0,3.3433,14.202a.21805.21805,0,0,1-.21839.21847v.00091h-.0665A1.32118,1.32118,0,0,1,1.74028,13.1032V10.53459a.21983.21983,0,0,1,.21938-.2203h.92758v-.692a.22332.22332,0,0,1,.22723-.21939Zm12.4306-4.92059a.22037.22037,0,0,0-.21938.2203v3.9809a.219.219,0,0,0,.21938.21938h5.31876a.23441.23441,0,0,0,.05881-.00762.21988.21988,0,0,0,.152-.27057L21.12656,5.04481a.76988.76988,0,0,0-.27583-.40677h-.00091a.76689.76689,0,0,0-.46368-.1557Zm3.78742.44059h-3.568V8.46415H21.628L20.70386,5.163a.33343.33343,0,0,0-.11639-.17518h0V4.98692a.33772.33772,0,0,0-.20133-.064ZM9.9696,10.754H2.18V13.1032a.88156.88156,0,0,0,.73585.86718,3.39932,3.39932,0,0,1,6.78017.01127H9.9696V10.754Zm4.969,0H10.40928v3.87121h4.52936V10.754Zm5.96244-7.06876a.88009.88009,0,0,1,.53284.17554l.00061.00061h-.00061a.88442.88442,0,0,1,.31354.46558L22.965,8.67744l.0019.00789a.75355.75355,0,0,1,.02339.10969.99354.99354,0,0,1,.0067.12009v5.0897h-.27636a3.39816,3.39816,0,0,0-5.79539-2.18348l-.00091-.00064a3.38779,3.38779,0,0,0-.98814,2.18412h-.55791V3.68521ZM6.305,13.2586a.96891.96891,0,0,0-.68588,1.6533H5.62a.96954.96954,0,0,0,1.36993,0l.01127-.01036A.96888.96888,0,0,0,6.305,13.2586Zm-.99576-.02742a1.40611,1.40611,0,0,0,0,1.9906h0a1.40869,1.40869,0,0,0,1.99152,0l.01219-.01371a1.40741,1.40741,0,0,0-2.00371-1.97689Zm14.01893.02742a.967.967,0,0,1,.685.28337v-.00091l.00091.00091a.97172.97172,0,0,1,.00953,1.35957l-.01044.01036a.96866.96866,0,1,1-.685-1.6533Zm-.99607-.02742a1.40649,1.40649,0,0,1,1.99091,0v.00061a1.40481,1.40481,0,0,1,.0131,1.97628l-.0131.01371a1.40768,1.40768,0,0,1-1.99091-1.9906ZM6.305,12.1047a2.109,2.109,0,0,0-1.49851.62007l-.00092.00088h.00092a2.1208,2.1208,0,0,0-.00092,2.998v.00091l.00092-.00091a2.11966,2.11966,0,0,0,2.99794,0l.01127-.01036a2.12092,2.12092,0,0,0-.01127-2.98761h0a2.117,2.117,0,0,0-1.49943-.621Zm-1.80961.3111v-.00094a2.55885,2.55885,0,0,0,0,3.61894v.00089a2.55811,2.55811,0,0,0,3.61922-.00089l.01188-.0131a2.55522,2.55522,0,0,0-.01279-3.6049l.00091-.00094a2.5596,2.5596,0,0,0-3.61922.00094Zm13.02408-.00094a2.557,2.557,0,0,1,3.618,0v.00094a2.55948,2.55948,0,1,1-3.61892.00092Z" style="fill:#a1afba;fill-rule:evenodd"/></g></svg>