<svg xmlns="http://www.w3.org/2000/svg" viewBox="0 0 17.02631 21.99295"><title>construction-worker-icon-uc-santa-barbara</title><g id="ICONS"><path d="M6.02794,11.48325a.22.22,0,0,1,.0518.16054l-.0518-.16054Zm7.10065-4.93278a.22093.22093,0,0,1-.11388.17733l.11388-.17733ZM6.96.09263a.22075.22075,0,0,0-.2075.20022c-.18313.032-.35924.071-.52591.11426A5.01688,5.01688,0,0,0,5.6211.60578.21765.21765,0,0,0,5.47423.813V.877C3.3712,1.78283,3.40753,3.753,3.44889,5.9435l.0061.36168a.2194.2194,0,0,0,.13376.21786,2.63991,2.63991,0,0,1,.31262.16484l.00183.17094c0,.04235.001.13651.001.29556,0,.01981.00084.06734.00236.13651l.00275.10177a.20113.20113,0,0,0-.00366.04143v.032a5.86865,5.86865,0,0,0,.3699,1.99426,6.82549,6.82549,0,0,0,1.03537,1.86476c.1036.13224.21268.26021.32481.38179-.00761.11243-.01462.26356-.02407.43115a14.35228,14.35228,0,0,1-.1365,1.5884l-.71361.46619A8.93716,8.93716,0,0,0,1.288,15.59182,2.83173,2.83173,0,0,0,0,17.87036v3.35291a.76877.76877,0,0,0,.21238.52957l.0131.01463a.76808.76808,0,0,0,.54419.22548H16.25694a.76937.76937,0,0,0,.54145-.22457l.00092-.00091v-.00092l.00091-.00064a.76292.76292,0,0,0,.22456-.54172V17.87036h.00153a2.84774,2.84774,0,0,0-1.28759-2.28525,8.89887,8.89887,0,0,0-3.466-1.40527l-.70934-.43694a14.32864,14.32864,0,0,1-.15784-1.58505c-.01127-.16149-.02071-.30653-.032-.43179.12005-.128.234-.2617.3437-.40095A6.84785,6.84785,0,0,0,12.752,9.46035a5.84731,5.84731,0,0,0,.37052-1.99426v-.032h-.00092a.31627.31627,0,0,0-.00243-.03781l.00243-.10539c.00183-.06917.00282-.11579.00282-.13651,0-.17185,0-.26265.00053-.31018l.00183-.177.33182-.17795-.00091-.001a.22.22,0,0,0,.11578-.18891l.00518-.30071h0c.043-2.18957.082-4.18718-2.02039-5.10981V.82333h0a.21816.21816,0,0,0-.13566-.202,4.94739,4.94739,0,0,0-.6158-.2075Q10.55826.34664,10.279.29742A.22012.22012,0,0,0,10.08921.096Q9.73785.04939,9.34453.02441,8.96105-.00026,8.51635,0C8.21988-.00058,7.9445.007,7.687.0235q-.3821.02331-.727.06913Zm4.41967,14.051.5016.30927a3.66028,3.66028,0,0,1-1.31363,1.008,4.78972,4.78972,0,0,1-2.054.48691A5.16329,5.16329,0,0,1,6.34483,15.459a2.93388,2.93388,0,0,1-1.20394-.99062l.51464-.337A4.54388,4.54388,0,0,0,8.658,15.23349a5.74187,5.74187,0,0,0,2.72158-1.08991Zm-5.46845-.369a15.4133,15.4133,0,0,0,.13834-1.6143l.00182-.04662a4.94586,4.94586,0,0,0,.77821.56674,3.52687,3.52687,0,0,0,1.33946.46985l.02254.00244h0l.02316.00274.02255.00244.007.00091.01645.00091.011.00183.01219.00092.01462.00061h.00793l.019.00182h.00419l.02255.00183H8.353l.02255.00153h.00335l.01981.00091h.00792l.01554.00091h.02224L8.46,13.171h.00793l.019.00091h.07245l.00883-.00091.01463-.00092h.02255l.01645-.00091h.0067l.01988-.00091H8.651l.02316-.00153H8.6751l.02164-.00091.00609-.00092L8.7202,13.164l.00853-.00091.01371-.00061.014-.00092L8.765,13.1597l.01828-.00091.00525-.00091.02133-.00244h.00084l.02354-.00274.02308-.00244.0061-.00092.01652-.00182.0112-.00061.01219-.00275.02133-.00243.01927-.00366h.00419l.02255-.00335h0l.02316-.00335.00426-.00183.01829-.00274.00761-.00153.01493-.00274.02225-.00426.01645-.00336L9.0837,13.114l.02072-.00335.00275-.00092.0457-.00948.00518-.00179.01744-.0043c.04472-.01033.08951-.0216.13552-.03379l.00579-.00244.01645-.00457c.02956-.00853.05972-.01709.08989-.0265h.00091a3.977,3.977,0,0,0,.44311-.17277h0c.11145-.0518.222-.11061.33083-.17368l.018-.01036.00883-.00518.00671-.00426c.04418-.0259.0866-.0518.12889-.07953l.01645-.01036.00335-.00183.0128-.00853c.09506-.06216.18922-.1295.28245-.19866l.00884-.008.00579-.00515.01584-.011.00336-.00274.01218-.00944.0128-.01036.00274-.00183.03017-.02407.01554-.01219.00091-.00091.01463-.01128.00944-.00856.00518-.00332.06033-.05119.00884-.00579.0067-.00609.02963-.0259.01219-.00945.00328-.00366.01463-.01279.00518-.00427.00944-.00884.00427.06216c.03633.52683.08318,1.21785.15821,1.59724a5.31989,5.31989,0,0,1-2.49282,1.0113,4.14314,4.14314,0,0,1-2.72158-1.02105Zm6.3814.85773.1346.02955-.00183,4.10065-7.82011-.00335.00091-4.0845.12889-.02834a3.31314,3.31314,0,0,0,1.419,1.20722,5.6229,5.6229,0,0,0,2.35959.53231,5.24066,5.24066,0,0,0,2.24472-.53048,4.00478,4.00478,0,0,0,1.53424-1.22306ZM12.68708,6.903l-.0128.00762h0l-.00182.00091h-.00092l-.00091.00092H12.67l-.00183.00091h0l-.00366.00183h-.00061l-.00518.00244h0l-.00274.00183h-.00084l-.001.00091h-.00243l-.00092.00058-.00091.00094h-.00153l-.00091.00092h-.00183l-.00183.00091-.00061.00092h-.00274l-.00091.00091-.00092.00061h-.00426l-.00092.00088h-.00061l-.00091.001h-.00274l-.00092.00091h-.00152l-.00091.00092H12.624l-.00153.00091h-.00274l-.00183.00061h-.00152l-.00084.00091h-.00434l-.00176.00088h-.00433l-.00092.00095h-.00243V6.935a28.3169,28.3169,0,0,1-4.15032.31688A27.20176,27.20176,0,0,1,4.42485,6.96L4.4215,6.95907l-.00092-.00092H4.41784l-.00518-.00064H4.41114l-.00183-.00088h0l-.02065-.00609h0l-.0278-.01036L4.36,6.93923l-.00061-.00088-.01829-.007.0019.223c0,.06822.00085.10969.00085.12767.00061.03717.00243.07861.00426.12462a.20128.20128,0,0,1-.00365.0518v.00762A5.407,5.407,0,0,0,4.6875,9.311a6.38752,6.38752,0,0,0,.968,1.742q.17139.218.35589.41287l.00183.00183.01279.01371.0019.00183.00785.00792.00945.01036.01127.011.00671.007.014.01554.00335.00274.01829.018h0l.018.01828.00336.00244.01493.0155.00579.00609.01127.01131.01036.00945.00792.00792.01371.0128.00427.00423.01645.01649.00183.00091.01889.01828.00183.00153.04235.03991.01036.00945.03352.03016.00373.00244.0179.01737h.00092a4.45328,4.45328,0,0,0,.7133.52073,3.10644,3.10644,0,0,0,1.13873.4086l.00846.00092.01554.0027h.00343l.03984.00522H8.258l.01828.00152.00518.00092.01371.00182H8.3055l.01036.00092.01219.00061.0067.00091.01646.00183h.00365l.01981.00091h0l.02079.00092h.00237l.01645.00152h.0198l.00975.00092H8.474l.01645.00091h.04662l.01646-.00091h.03016l.00853-.00092H8.612l.01828-.00152h.00183l.0198-.00092h.00153l.01828-.00091h.00518l.01463-.00183.00792-.00091.011-.00061.01218-.00092h.008l.01547-.00182L8.75036,12.72l.01889-.00152h0l.01981-.00274h.00366l.01645-.00183.00677-.00065.013-.00179.00944-.00183.01036-.00091.0131-.00244.00586-.00091L8.886,12.703h.00175l.01981-.00366H8.9085l.018-.00335h.00525l.01455-.00274.00884-.00152.02316-.00427.007-.00183.01652-.00277.0042-.00058h.00091l.0406-.00975.01729-.00335.0061-.00183.01279-.00244.01036-.00274.00854-.00152.014-.00366.0067-.00156.01737-.00423h.00183l.01889-.00609h.0019l.01882-.00457.00366-.00153.02407-.007.01036-.00243.01219-.00366.02315-.00609.00427-.00153.01927-.00609h0l.03862-.0131.0061-.00156.01371-.00423.00975-.00274.00944-.00427.0128-.00427.0061-.00182.01736-.0061.00244-.001.02011-.00667v-.00091l.04571-.01645.01127-.00427.01188-.00427.008-.00274.01455-.00609.02346-.00945.00061-.001.01927-.00758.00145-.00091.01737-.007.00609-.00244.01372-.00518.00975-.0043.02224-.01032.00609-.00275.01646-.007.00243-.00061.0192-.00884.001-.00095.0179-.0085.00427-.00182.01462-.00671.00793-.0043.01127-.00514.01219-.00518.0067-.00457.01463-.00671.00457-.00183.018-.00853.00275-.00183.0198-.01035h.00092l.01987-.01036.00176-.00092.01889-.01036.00335-.00091.01646-.00948.00609-.00241.01463-.00883.007-.00335.0128-.007.00945-.0061.01127-.00582.01128-.00609.0089-.00515.01364-.00792.0061-.00335.01554-.00884.00518-.00244.01889-.01218h.00091l.02072-.01192.00183-.0018.01706-.01039.0061-.00423.01462-.008.00975-.00609.00945-.00576.01371-.00883.007-.00427.01706-.01127.00274-.00153.01981-.0131h.001l.01829-.01219.00511-.00426.01553-.00853.00854-.0061.01043-.00792.01272-.00853.007-.00427.01554-.01036.00434-.00335.01912-.0131v-.00092l.01981-.01371.00335-.00274.01645-.01127.007-.00427.01189-.00944.01127-.007.00884-.00671.01371-.01036.00609-.00365.01737-.01375.00152-.00088.0192-.01462L10.4,12.01952l.01645-.0128.00609-.00426.0128-.01036.00945-.00705.01043-.00788.013-.0104.00609-.00423.01646-.01371.00243-.00183.01988-.01554h0l.01828-.01554.00511-.00335.01463-.01128.00792-.007.01036-.00853.05606-.04754v-.00091l.01981-.01554.0019-.00244.04472-.039.00883-.00762.01372-.01127.00426-.00518.06033-.05546.0131-.01188.00854-.00792.04326-.04144.00275-.00244c.042-.04083.08386-.08227.12431-.12462h.00092a5.39272,5.39272,0,0,0,.39976-.45949,6.391,6.391,0,0,0,.96925-1.742,5.42736,5.42736,0,0,0,.34188-1.84495V7.45664a.38833.38833,0,0,1-.00328-.04753c.00236-.04662.00328-.08989.0051-.12706V7.15438l.00244-.25138Zm-.18647-.39733h0A27.84472,27.84472,0,0,1,8.45145,6.814a26.72172,26.72172,0,0,1-3.93519-.28489c-.04144-.01829-.0838-.03992-.12584-.06247-.04327-.02315-.089-.05-.1356-.0777a24.01683,24.01683,0,0,1,4.18292-.30043c.9985-.00183,1.9967.03017,2.84407.09659a.20764.20764,0,0,0,.05705.00792l.02247-.00091a13.36647,13.36647,0,0,1,1.39827.17459l-.259.13894ZM4.16928,14.78192l-.0019,4.19572a.219.219,0,0,0,.21847.21938l8.258.00366a.21979.21979,0,0,0,.21939-.21939l.00183-4.21064c.31688.08379.621.17886.90952.28307v.42505a16.84752,16.84752,0,0,0,.74286,6.07449H2.51012a16.88037,16.88037,0,0,0,.74864-6.07967v-.41012q.4342-.1554.91052-.28155Zm-1.34746.45248v.23919A16.6338,16.6338,0,0,1,2.054,21.55326H.76967a.331.331,0,0,1-.2334-.09659l-.00853-.00883a.3278.3278,0,0,1-.088-.22457V17.87036a2.41224,2.41224,0,0,1,1.11148-1.92844,5.986,5.986,0,0,1,1.27059-.70752Zm12.15081,6.31886a16.62692,16.62692,0,0,1-.76114-6.07449l.00092-.25229a5.91284,5.91284,0,0,1,1.26206.70934,2.42932,2.42932,0,0,1,1.11246,1.93454h.00061v3.35383a.33152.33152,0,0,1-.0975.23248v.00092a.32941.32941,0,0,1-.2331.09567ZM3.88766,6.02638,3.88591,5.9365c-.03634-1.96593-.06985-3.7408,1.58832-4.57507V5.77927a10.64522,10.64522,0,0,0-1.58657.24711ZM5.913,5.7421V.96319C6.04676.91413,6.18753.87,6.33714.831c.13041-.03352.26844-.0646.41531-.09236V5.69121c-.28916.01371-.5701.03017-.83945.05089Zm1.27821-.06826V.50553c.16607-.0192.33944-.03382.521-.0451Q8.098.43714,8.51635.43728c.27789,0,.54663.00853.80319.025.1813.01036.355.0259.52165.04476V5.67141c-.4585-.01463-.93116-.02072-1.40345-.01981-.419.00061-.83792.00853-1.24653.02224Zm3.08874.014V.74381c.145.02772.28338.05877.41379.09415.15113.03961.29281.08562.42475.13467V5.736c-.26844-.01889-.54907-.03534-.83854-.04814Zm1.27829.08379v-4.398c1.65658.85163,1.62215,2.65058,1.58223,4.6165V6.0038A10.90327,10.90327,0,0,0,11.55824,5.77165Z" style="fill:#a1afba;fill-rule:evenodd"/></g></svg>