<svg xmlns="http://www.w3.org/2000/svg" viewBox="0 0 24.09595 18.43859"><title>construction-barrier-icon-uc-santa-barbara</title><g id="ICONS"><path d="M4.04587,1.28339h16.0055V.76876a.766.766,0,0,1,.22517-.54267l.00091-.00061A.76283.76283,0,0,1,20.81982,0H21.573a.762.762,0,0,1,.54327.22548h.00092a.76723.76723,0,0,1,.22548.54328v14.994h.98455a.76751.76751,0,0,1,.54321.22548h0a.76564.76564,0,0,1,.22548.54328v1.13744a.76984.76984,0,0,1-.76869.76967H19.06658a.77015.77015,0,0,1-.5442-.22548l-.01279-.01462a.76842.76842,0,0,1-.21268-.52957V16.53148a.76888.76888,0,0,1,.22547-.54237l.00092-.00091a.76807.76807,0,0,1,.54328-.22548h.98479V7.83565H4.04587v7.92707h.98442a.76539.76539,0,0,1,.54236.22548h.00091a.76593.76593,0,0,1,.22548.54328v1.13744a.76984.76984,0,0,1-.76875.76967H.76876a.76828.76828,0,0,1-.54328-.22548l-.01273-.01462A.76409.76409,0,0,1,0,17.66892V16.53148a.765.765,0,0,1,.22548-.54237l.00091-.00091a.76434.76434,0,0,1,.54237-.22548h.9854V.76876A.76278.76278,0,0,1,1.97963.22609V.22548A.76486.76486,0,0,1,2.52291,0h.75322A.76006.76006,0,0,1,3.8185.22548h.00189a.77134.77134,0,0,1,.22548.54328v.51463ZM17.09029,7.396l2.96108-2.96076V1.78706L14.44222,7.396Zm2.96108-2.33979L17.71164,7.396h2.33973V5.05618ZM13.82117,7.396l5.673-5.67289H16.80631L11.13342,7.396Zm-3.30873,0,5.6729-5.67289H13.53726L7.8643,7.396Zm-3.26912,0,5.6729-5.67289H10.26807L4.59517,7.396ZM4.04587,7.324,9.64625,1.72308H6.95142a.209.209,0,0,1-.046.06733L4.04587,4.65093V7.324Zm0-3.295,2.3059-2.306H4.04587V4.029Zm.98442,12.17245H.76876a.33041.33041,0,0,0-.33.33v1.13744a.33082.33082,0,0,0,.089.22456l.00884.00853a.32484.32484,0,0,0,.23218.0969H5.03029a.3319.3319,0,0,0,.33-.33V16.53148a.32782.32782,0,0,0-.09751-.23249l.00092-.00091a.333.333,0,0,0-.2334-.09659ZM3.60612,7.61627V.76876A.32614.32614,0,0,0,3.50923.53627l.00091-.001a.33192.33192,0,0,0-.234-.09655H2.52291a.33024.33024,0,0,0-.33.33V15.74444h1.4132V7.61627Zm19.72114,8.58522H19.06658a.33605.33605,0,0,0-.234.09659.33129.33129,0,0,0-.096.2334v1.13744a.33008.33008,0,0,0,.088.22456l.00884.00853a.32753.32753,0,0,0,.2331.0969h4.26068a.33031.33031,0,0,0,.32992-.33V16.53148a.327.327,0,0,0-.09659-.23249v-.00091a.33275.33275,0,0,0-.23333-.09659ZM20.49013,1.50369V15.74444H21.903V.76876a.32715.32715,0,0,0-.09658-.23249l.0006-.001a.33189.33189,0,0,0-.234-.09655h-.75322a.32971.32971,0,0,0-.32969.33Z" style="fill:#a1afba;fill-rule:evenodd"/></g></svg>