<svg xmlns="http://www.w3.org/2000/svg" viewBox="0 0 18.17777 22.22418"><title>crane-icon-uc-santa-barbara</title><g id="ICONS"><path d="M14.29376,15.28525h.32573V12.20687a.21968.21968,0,0,1,.21938-.21938h2.02534a.21925.21925,0,0,1,.21938.21938v3.07838H17.409a.35057.35057,0,0,0,.24894-.10207.31991.31991,0,0,0,.09568-.227V11.667A.32044.32044,0,0,0,17.658,11.439.35057.35057,0,0,0,17.409,11.337H15.86814l-.01706.00091-.01645-.00091H14.29376a.35113.35113,0,0,0-.24894.10207.32427.32427,0,0,0-.09567.22792v3.28923a.32376.32376,0,0,0,.09567.227.35113.35113,0,0,0,.24894.10207ZM3.71246,20.616H4.2987V8.33993H4.24965a.76271.76271,0,0,1-.54328-.22548l-.014-.01462a.76578.76578,0,0,1-.21146-.52865V7.52212H.76967a.76749.76749,0,0,1-.54321-.22548h0V7.29573A.76352.76352,0,0,1,0,6.75336V4.67257a.7674.7674,0,0,1,.21329-.52866.11331.11331,0,0,1,.01317-.01462.08719.08719,0,0,1,.01364-.0128.76774.76774,0,0,1,.52957-.21268H3.4818a.76743.76743,0,0,1,.22457-.49818V3.40471a.76676.76676,0,0,1,.49909-.22365V.2203A.2189.2189,0,0,1,4.57963.0646L4.5839.06825l3.111,3.111h.177a.76883.76883,0,0,1,.54328.22547v.00092l.00092-.00092a.76713.76713,0,0,1,.22365.4991h6.14975l.00609.00092h.00518l.00518.00091h.00518l.00518.00183.00525.00091.00511.00061.00518.00092.00518.00182.00518.00092.00427.00149.00518.00186.00518.00183.00518.0024.00525.00186.00419.00183.00518.0024.00427.00278.00518.00244.00518.00274.00457.00244.00426.00335.00427.00274.00427.00427.00518.00274.00426.00335.00427.00335.00365.00427.00427.00366.00427.00426,3.175,3.175.00365.00332a.21957.21957,0,0,1-.1557.37512H16.07138v3.37607H17.409a.73922.73922,0,0,1,.52622.2203.77265.77265,0,0,1,.227.54846v3.28923a.77318.77318,0,0,1-.227.54754.73977.73977,0,0,1-.52622.22091H14.29376a.74437.74437,0,0,1-.52682-.22091.77517.77517,0,0,1-.2264-.54754V11.667a.77464.77464,0,0,1,.2264-.54846.74382.74382,0,0,1,.52682-.2203h1.337V7.52212H8.64158v.04906a.77063.77063,0,0,1-.7245.76784V20.616H17.95747a.21984.21984,0,0,1,.2203.21939v1.16943a.21984.21984,0,0,1-.2203.21939H.22037A.2199.2199,0,0,1,0,22.00479V17.32857a.2195.2195,0,0,1,.22037-.21938H3.49308a.21943.21943,0,0,1,.21938.21938V20.616Zm14.02563.43877H.43975v.73067H17.73809v-.73067Zm-2.67923-5.76949V12.42717h1.58505v2.85808ZM3.27278,17.548H.43975v3.068h2.833V17.548ZM15.83463,7.08244h1.59266L14.77915,4.43429,12.13009,7.08244h3.70454ZM7.07306,3.17924,4.64423.75048V3.17924ZM4.82918,14.4775l2.64815,2.64905v-5.2972L4.82918,14.4775Zm2.55735,3.17923L4.73838,15.008v5.2969l2.64815-2.64815Zm.0908.53048L5.04857,20.616H7.47733V18.18721ZM4.73838,13.94789l2.64815-2.64872L4.73838,8.651v5.29686Zm.31019-5.608,2.42876,2.42876V8.33993ZM8.2019,6.39564H6.61015a.78132.78132,0,0,1-.55455-.22791.72092.72092,0,0,1-.2142-.51037V3.61892H4.24965a.32874.32874,0,0,0-.33.32907V7.57118a.32891.32891,0,0,0,.08813.22456l.00846.00884a.33089.33089,0,0,0,.2334.09658H7.87191a.32976.32976,0,0,0,.33-.33V6.39564ZM6.28108,3.61892V5.65736a.37752.37752,0,0,0,.10695.266.31951.31951,0,0,0,.22212.09415H8.2019V3.948h0V3.94373h0V3.93337a.33264.33264,0,0,0-.09659-.21786L8.106,3.7149a.32854.32854,0,0,0-.23409-.096H6.28108ZM.75139,4.34349l2.7295,2.73038V4.34349H.75139Zm2.11705,2.739L.4406,4.65456l-.00085.018V6.75336a.32854.32854,0,0,0,.09683.2331l.00068-.001a.32572.32572,0,0,0,.23241.09693ZM8.95177,4.34349,11.60052,6.9916l2.64822-2.64811Zm2.11858,2.739L8.64158,4.65456V7.08244Z" style="fill:#a1afba;fill-rule:evenodd"/></g></svg>