<svg xmlns="http://www.w3.org/2000/svg" viewBox="0 0 24.87872 18.33591"><title>dump-truck-icon-uc-santa-barbara</title><g id="ICONS"><path d="M20.60135,13.45431a2.21506,2.21506,0,0,0-1.57012.65112l-.01036.00947a2.222,2.222,0,1,0,1.58048-.66059ZM13.4016,3.38156a.21939.21939,0,1,1,.43877,0V9.93714a.21939.21939,0,1,1-.43877,0V3.38156Zm-2.35715,0a.21938.21938,0,1,1,.43876,0V9.93714a.21938.21938,0,1,1-.43876,0V3.38156ZM9.12606,9.93714a.21939.21939,0,1,1-.43877,0V4.03206a.21939.21939,0,1,1,.43877,0V9.93714ZM6.33044,4.68049a.21969.21969,0,0,1,.43938,0V9.93714a.21969.21969,0,1,1-.43938,0V4.68049ZM4.413,9.93714a.2203.2203,0,1,1-.44059,0V5.32066a.2203.2203,0,0,1,.44059,0V9.93714Zm-2.35715,0a.2203.2203,0,1,1-.4406,0v-3.941a.2203.2203,0,0,1,.4406,0v3.941Zm12.31657.7179a.88064.88064,0,0,0,.87753-.87845V1.82942a.21924.21924,0,0,1,.06124-.15205L15.98241.876V.49239l-2.99794.66L11.31471,2.60945a.2029.2029,0,0,1-.08531.0457L1.085,5.4529a.86523.86523,0,0,0-.46894.31263A.87592.87592,0,0,0,.43968,6.3V9.77659a.87906.87906,0,0,0,.87845.87845H14.37238Zm.93116.05271a1.31492,1.31492,0,0,1-.93116.38667H13.323V11.606h2.70939V4.45166a.21961.21961,0,0,1,.21938-.21938h6.026a1.32112,1.32112,0,0,1,.79831.26509h0a1.31992,1.31992,0,0,1,.47137.69715l1.281,4.57933.00335.01036a1.207,1.207,0,0,1,.03382.16667,1.28508,1.28508,0,0,1,.0131.17886v5.54583a.22.22,0,0,1-.2203.21939h-.73859a.21907.21907,0,0,1-.21938-.21939,3.099,3.099,0,0,0-6.1979,0,.21913.21913,0,0,1-.21877.21939h-.81172v.42841a.21983.21983,0,0,1-.2203.21938H11.06791a.21964.21964,0,0,1-.21939-.21938v-.45248h-.51585a.21964.21964,0,0,1-.21939-.21939l.00092-.01648a3.09866,3.09866,0,0,0-6.197.0174.21932.21932,0,0,1-.21878.21755v.00092H3.58113A1.32121,1.32121,0,0,1,2.263,14.55276V11.826a.21974.21974,0,0,1,.21939-.22h.98479v-.51159h-2.149A1.3207,1.3207,0,0,1,0,9.77659V6.3A1.30747,1.30747,0,0,1,.96834,5.02968L11.06425,2.24652,12.72608.79557a.22047.22047,0,0,1,.11061-.06036L16.15334.00457V.00518A.30231.30231,0,0,1,16.20088,0a.21892.21892,0,0,1,.21847.21877l.00091.72363a.21865.21865,0,0,1-.05088.15452l-.67979.81111V9.77659a1.3139,1.3139,0,0,1-.38605.93116Zm2.451-5.18507a.21976.21976,0,0,0-.22.21938V9.89573a.22035.22035,0,0,0,.22.21938h5.54767V10.1142a.23437.23437,0,0,0,.05972-.00762.22012.22012,0,0,0,.152-.27057l-1.0503-3.75177h-.00091a.765.765,0,0,0-.27393-.4068l-.00061.00064a.76344.76344,0,0,0-.46466-.1554Zm3.969.43877H17.97392v3.714h5.04l-.9726-3.473h0V6.20152a.32476.32476,0,0,0-.11761-.17368l.00091-.00058-.00091-.00091a.32935.32935,0,0,0-.20019-.0649ZM12.88331,11.606v-.51159H3.90594V11.606h8.97737Zm-2.03479.43937H2.70269v2.50738a.88064.88064,0,0,0,.78521.87418,3.53653,3.53653,0,0,1,7.05562.00427h.305V12.04538Zm5.18386,0H11.2879v4.058h4.74448v-4.058Zm6.24543-7.37345a.8816.8816,0,0,1,.53383.17462l.00091.00061-.00091.00092a.86756.86756,0,0,1,.31262.46558L24.40705,9.893l.00152.007a.75282.75282,0,0,1,.02346.10878,1.02721,1.02721,0,0,1,.007.121v5.32645h-.30683a3.53664,3.53664,0,0,0-7.05989,0h-.60026V4.67193ZM7.0151,14.65727a1.02061,1.02061,0,0,0-.72183,1.74136l.0006.00091v-.00091a1.01956,1.01956,0,0,0,1.44245,0l.01128-.00945a1.02161,1.02161,0,0,0-.7325-1.73191Zm-1.032-.01128A1.45762,1.45762,0,0,0,5.984,16.70942H5.98308a1.45915,1.45915,0,0,0,2.06434,0l.0128-.01371A1.45913,1.45913,0,0,0,5.98308,14.646Zm14.61827.01128a1.01671,1.01671,0,0,1,.71086.28855l.01036.01127a1.01846,1.01846,0,0,1,0,1.44154l.00092.00091a1.02029,1.02029,0,0,1-1.44337-1.44245v-.00183a1.01731,1.01731,0,0,1,.72123-.298Zm-1.0311-.01128a1.45741,1.45741,0,0,1,2.0494-.01279l.014.01279a1.45873,1.45873,0,0,1,0,2.06343h-.00091a1.45585,1.45585,0,0,1-2.0616,0l-.00183-.00061a1.458,1.458,0,0,1,0-2.06282ZM7.0151,13.45431a2.218,2.218,0,0,0-1.57012.65023v.00089a2.22121,2.22121,0,0,0,0,3.14057l.01036.01127A2.2216,2.2216,0,0,0,8.587,14.10543l-.00061-.00089-.00091.00089a2.21522,2.21522,0,0,0-1.57042-.65112Zm-1.8803.34032H5.13419a2.66037,2.66037,0,0,0,0,3.76216l.01371.01307a2.65971,2.65971,0,0,0,3.7475-3.77523h.00091a2.65968,2.65968,0,0,0-3.76151,0Zm13.58564,0a3.09094,3.09094,0,1,1-.01219.01375Z" style="fill:#a1afba;fill-rule:evenodd"/></g></svg>