<svg xmlns="http://www.w3.org/2000/svg" viewBox="0 0 17.74327 22.9256"><title>engineer-icon-uc-santa-barbara</title><g id="ICONS"><path d="M13.32878,6.6281a13.95684,13.95684,0,0,0-1.48663-.18736l-.02224.00061a.25623.25623,0,0,1-.0579-.0067c-.88454-.06917-1.926-.1036-2.96868-.10116a24.8043,24.8043,0,0,0-4.39012.31871,2.79648,2.79648,0,0,0,.29526.15905,27.88367,27.88367,0,0,0,4.10857.298,29.1304,29.1304,0,0,0,4.228-.32237l.29373-.15878ZM12.03929,1.40859V6.02a11.49706,11.49706,0,0,1,1.66945.24528v-.025c.04151-2.06008.0777-3.94464-1.66945-4.83166Zm-.43968,4.57693V.99911c-.1407-.0518-.29038-.09994-.451-.14321-.13894-.03717-.28763-.071-.443-.10116v5.179c.30843.01371.60818.03108.894.0518Zm-1.33367-.06825V.51129Q10.00176.48153,9.71321.46284q-.40174-.02469-.83853-.025c-.29129,0-.57009.00762-.83884.025Q7.747.47975,7.484.50946V5.9197c.42841-.01462.8687-.02224,1.3093-.02407.49483-.00091.99149.0061,1.47261.02164Zm-3.22159.0198V.75044c-.15814.02929-.30561.06219-.44578.09845C6.44135.89033,6.29205.937,6.14945.98875V5.99161c.28672-.02255.58746-.03995.8949-.05454Zm-1.33367.09077V1.39552c-1.749.86992-1.71424,2.72859-1.67554,4.78772l.00182.10637a11.09968,11.09968,0,0,1,1.67372-.26177ZM4.51016,7.20675l.00183.248c0,.09656.00152.18038.00427.25625a.23291.23291,0,0,1-.00275.06155V7.7802A5.67514,5.67514,0,0,0,4.87131,9.708a6.7135,6.7135,0,0,0,1.01122,1.82q.18007.228.37516.43451l.00053.00061.00275.00274.00853.00853a4.9294,4.9294,0,0,0,1.0701.85773,3.06609,3.06609,0,0,0,1.53325.451,3.06286,3.06286,0,0,0,1.53234-.451A5.27114,5.27114,0,0,0,11.86226,11.528a6.74032,6.74032,0,0,0,1.0113-1.82,5.663,5.663,0,0,0,.35832-1.92783V7.76984a.23133.23133,0,0,1-.00426-.04845c.00274-.04723.00426-.08958.00426-.12767V7.58763c0-.02163.00092-.06551.00092-.13285,0-.04327.00091-.14169.00274-.27822l-.0192.01039a.20227.20227,0,0,1-.08013.02834,29.52042,29.52042,0,0,1-4.32917.3309,28.1477,28.1477,0,0,1-4.19846-.305h0a.22.22,0,0,1-.05332-.01463l-.0451-.01981ZM6.48888.42475c.17642-.0457.362-.08623.55638-.12A.21763.21763,0,0,1,7.23509.09933Q7.60211.05,8.01086.025,8.4126.0003,8.87468,0c.309,0,.5966.00853.86535.0259Q10.1404.05057,10.5.09838A.2205.2205,0,0,1,10.70562.309c.19531.03473.38179.07617.55638.12279a5.13011,5.13011,0,0,1,.6286.21085.21927.21927,0,0,1,.14869.20811V.92507c2.19384.95858,2.1524,3.0409,2.1073,5.32371l-.00609.29982v.00518h0v.01128h0l-.00061.02315-.00092.00366h0v.00335l-.00091.00183-.00084.00152-.00251.01493h0l-.00183.00336v.00182l-.00091.00153-.00336.01127v.00335H14.1277l-.00183.00366V6.64l-.00083.00183-.00587.01368-.00183.00369-.00091.00091-.00092.00244-.0118.01981-.001.00091-.00183.00271-.00183.00247h0l-.00244.00274v.00153l-.00274.00182-.0067.00854-.00092.00182-.00183.00183-.00243.00153v.00091l-.00267.00274-.001.00092-.00152.00152-.00183.00183-.00092.00091-.00335.00335h0l-.00274.00183-.00084.00153-.0016.00091-.00274.00274h-.00091l-.00336.00335h0l-.00243.00183-.00092.00092-.00274.00152-.00152.00183H14.05l-.00365.00244h0l-.00336.00274-.00091.00091-.00236.00088-.00191.00156H14.036l-.00336.00274h0l-.00335.00153-.00365.00274-.00244.00091-.00427.00244-.3437.185-.00183.1901c-.00091.05336-.00091.15452-.00091.32393,0,.025-.00091.07313-.00244.14321l-.00365.10874a.19829.19829,0,0,1,.00426.03995h0V7.7802a6.12343,6.12343,0,0,1-.38514,2.07744,7.11563,7.11563,0,0,1-1.07864,1.94155c-.11487.14686-.23583.28763-.36015.4214.011.13132.02133.28516.03268.45613A14.70361,14.70361,0,0,0,12.046,14.334l.74469.45891a9.27432,9.27432,0,0,1,3.61282,1.46469,2.95784,2.95784,0,0,1,1.33977,2.377h-.00092l-.00091,2.973a1.31149,1.31149,0,0,1-.38514.93024l-.00092.00092a1.31686,1.31686,0,0,1-.93116.387H1.31783A1.32121,1.32121,0,0,1,0,21.60655v-2.972a2.94353,2.94353,0,0,1,1.34037-2.36995A9.32333,9.32333,0,0,1,4.962,14.80566l.74865-.48874a14.64019,14.64019,0,0,0,.14351-1.66275c.00945-.177.018-.33669.0259-.4543-.11906-.12767-.23248-.26174-.34218-.40068A7.16052,7.16052,0,0,1,4.45928,9.85764,6.10563,6.10563,0,0,1,4.07414,7.7802V7.74668a.21249.21249,0,0,1,.00426-.04235c-.00426-.09172-.00518-.17642-.00518-.24955,0-.17124-.00091-.26113-.00182-.30836l-.00183-.18315a2.83487,2.83487,0,0,0-.31933-.17121.221.221,0,0,1-.13315-.13194.21509.21509,0,0,1-.0128-.08653l-.007-.38331C3.555,3.90655,3.51593,1.85345,5.71068.91288V.83853h0A.21957.21957,0,0,1,5.84719.6356,5.15794,5.15794,0,0,1,6.48888.42475Zm4.9465,12.19591.00609.0844c.03809.54846.08653,1.2663.16423,1.66274l-2.70786,1.546L6.15128,14.34526a16.61252,16.61252,0,0,0,.14077-1.66854l.00335-.06825a5.103,5.103,0,0,0,.82482.60269,3.4984,3.4984,0,0,0,1.75263.5116,3.4991,3.4991,0,0,0,1.75233-.5116,5.02878,5.02878,0,0,0,.8102-.5905ZM5.90782,14.71059l-.50976.33365,2.53418,2.41992.18221-.3306.00336-.00518.00182-.00457.00282-.00426.47922-.87053L5.90782,14.71059Zm-1.0177.55821A8.71312,8.71312,0,0,0,1.603,16.61435,2.53052,2.53052,0,0,0,.43938,18.63451v2.972a.8822.8822,0,0,0,.87845.87937h6.928L7.864,21.807l-.00426-.008c-.241-.43877-.44913-.80745-.64444-1.15112l-.0061-.01219a20.38241,20.38241,0,0,1-2.31907-5.367Zm4.60554,7.21712h6.92856a.88063.88063,0,0,0,.88028-.87845v-2.973h-.00092a2.54788,2.54788,0,0,0-1.16334-2.02716,8.66646,8.66646,0,0,0-3.285-1.35257,20.36637,20.36637,0,0,1-2.32943,5.39227l-.00061.00092.00061.00091c-.18214.32024-.3757.66333-.60361,1.0762l-.00092.00244h0l-.00152.00335L9.918,21.7327l-.00183.00274-.42048.75048Zm2.8657-7.4426-.507-.31353L9.194,16.249l.47959.87053.00762.01554.18069.32755,2.49945-2.41932Zm-6.88042.68558a20.08878,20.08878,0,0,0,2.10913,4.69176l.007.01033c.10726.19108.21939.38883.33243.58993l.09872-.72976c.10177-.74956.20392-1.50034.30988-2.37269l.00092-.00762a.11981.11981,0,0,0-.00328-.04662.23359.23359,0,0,0-.02689-.06216.2511.2511,0,0,1-.01828-.03473l-.01036-.0259-.10085.18312h0a.195.195,0,0,1-.03383.04571.21833.21833,0,0,1-.30927.00789L5.48094,15.7289ZM9.85581,20.945c.09751-.17459.1944-.34648.28916-.51311h0a20.13583,20.13583,0,0,0,2.1067-4.67349L9.96124,17.97636a.21763.21763,0,0,1-.30919-.0043.2002.2002,0,0,1-.03543-.0475h0l-.10116-.18221-.01036.025v-.00092l-.01371.02773a.2716.2716,0,0,0-.03131.07008.11217.11217,0,0,0-.00342.04754c.10542.873.20719,1.62374.31018,2.37421l.089.65907Zm-.61244-3.69753-.34553-.62616-.34553.62616.13993.34279a.70657.70657,0,0,1,.06757.16057.5542.5542,0,0,1,.0147.21329v.0061c-.10124.83274-.20666,1.60668-.31209,2.37879-.05941.4412-.12.88271-.17611,1.31356h0l.46222.8233H8.9929L9.499,21.584v-.0006c-.05271-.40251-.11061-.82148-.16667-1.23861-.10543-.77485-.21085-1.54879-.31171-2.38123a.55365.55365,0,0,1,.01554-.21268.72663.72663,0,0,1,.06643-.16057Z" style="fill:#a1afba;fill-rule:evenodd"/></g></svg>