<svg xmlns="http://www.w3.org/2000/svg" viewBox="0 0 23.98016 15.93457"><title>excavator-truck-icon-uc-santa-barbara</title><g id="ICONS"><path d="M8.12329,15.48636h4.91115l.01737.00091c.04814.00423.08013.00579.10359.0067.02316.00092.0579.00183.10452.00183a2.5411,2.5411,0,0,0,1.8026-.74621v-.00091a2.54595,2.54595,0,0,0-.00091-3.60246l-.01036-.01219a2.54173,2.54173,0,0,0-1.79133-.73494H2.98758A2.54862,2.54862,0,0,0,1.185,14.74868l.00091.00091.00091-.00091a2.53764,2.53764,0,0,0,1.80078.74712c.04662,0,.08227-.00091.10543-.00183.025-.00091.05972-.00335.103-.0067l.018-.00091H8.12329Zm-.07069-13.88H3.00921a.33089.33089,0,0,0-.33.32908v2.668a.32454.32454,0,0,0,.0969.23249V4.8368L2.777,4.83589a.32426.32426,0,0,0,.23218.09659H8.0526a.32266.32266,0,0,0,.23218-.09659.32774.32774,0,0,0,.0969-.23249v-2.668a.33022.33022,0,0,0-.0969-.23306l-.00853-.00884a.33312.33312,0,0,0-.22365-.08718ZM3.00921,1.16669H8.0526a.76749.76749,0,0,1,.52926.21238l.014.0131a.76777.76777,0,0,1,.22548.54325v2.668a.76984.76984,0,0,1-.76876.76876H3.00921a.767.767,0,0,1-.54328-.22548h.00092a.76587.76587,0,0,1-.22639-.54328v-2.668a.76982.76982,0,0,1,.76875-.76873ZM22.66234,15.926H16.8054a.21984.21984,0,0,1-.21847-.2203.22208.22208,0,0,1,.03961-.12706l3.53787-6.12632.00091-.00088-.00091-.00092a1.31754,1.31754,0,0,1,.47929-.48447V8.96518a1.327,1.327,0,0,1,.66181-.17368h.69075V3.34313a.32853.32853,0,0,0-.0975-.23306h.00091a.33075.33075,0,0,0-.2334-.09659H15.774a.33016.33016,0,0,0-.16575.04144h-.00153a.33957.33957,0,0,0-.11944.1234l-2.008,3.47815V9.96794a2.97536,2.97536,0,0,1,1.87939.85438l.01371.0128a2.98656,2.98656,0,0,1,0,4.22435h-.00061a2.97817,2.97817,0,0,1-2.11187.8751c-.02956,0-.071,0-.12188-.00274-.04479-.00156-.081-.00427-.11152-.00579H3.221c-.02956.00152-.06673.00423-.11152.00579-.05089.00274-.09232.00274-.12188.00274A2.9753,2.9753,0,0,1,.876,15.05947h0A2.98806,2.98806,0,0,1,2.7682,9.96794V8.21653H2.24046A1.32121,1.32121,0,0,1,.92263,6.8984V1.31783A1.31292,1.31292,0,0,1,1.30777.38941L1.3096.38666h.00091V.38605a1.31187,1.31187,0,0,1,.93-.386h6.58a1.31806,1.31806,0,0,1,1.31783,1.31783V6.172H11.4695l2.58843-4.48365a1.31562,1.31562,0,0,1,.4802-.48539v.00092l.00092-.00092a1.31162,1.31162,0,0,1,.66-.17367h7.46331a1.32066,1.32066,0,0,1,1.31782,1.319V14.60788a1.31508,1.31508,0,0,1-.38666.93028l-.00183.00091a1.31255,1.31255,0,0,1-.92933.387Zm-5.477-.43968h5.477a.879.879,0,0,0,.62006-.25656l.00091-.00183a.87416.87416,0,0,0,.25656-.62009V9.23118H21.30551a.87512.87512,0,0,0-.44151.114l-.00091-.00061v.00061a.8729.8729,0,0,0-.31963.32572h-.00061l-3.35749,5.8155Zm-.55882.09232.17886-.09232a.22179.22179,0,0,0-.17886.09232ZM8.82044.43877a.8801.8801,0,0,1,.87845.87906V6.8984a.87961.87961,0,0,1-.25655.62006l-.00092.00092a.87691.87691,0,0,1-.621.25747h-6.58a.88064.88064,0,0,1-.87754-.87845V1.31783a.87415.87415,0,0,1,.25656-.621L1.62039.69593A.87419.87419,0,0,1,2.24046.43877Zm5.61745,1.46987L11.97561,6.172H13.252l1.85623-3.213a.757.757,0,0,1,.28063-.28337h-.00091a.77505.77505,0,0,1,.386-.10177h5.89228a.77046.77046,0,0,1,.54267.22548v.0006l.00061-.0006a.76627.76627,0,0,1,.22548.54385V8.7915h1.10484V2.34832a.88062.88062,0,0,0-.87753-.87936H15.199a.88675.88675,0,0,0-.44243.11334h.00092a.879.879,0,0,0-.31963.32634ZM13.03962,9.96032V6.61168H10.13827V6.8984a1.30942,1.30942,0,0,1-.38605.92933l-.00061.00183a1.31792,1.31792,0,0,1-.93117.387H3.20788V9.96032h9.83174Zm-10.052,1.80261a1.18683,1.18683,0,0,1,.85011,2.015l-.01036.01032a1.18462,1.18462,0,0,1-1.67737,0H2.14813a1.18741,1.18741,0,0,1-.00944-1.667L2.15,12.11089a1.18189,1.18189,0,0,1,.83762-.348Zm-1.14872.03778A1.625,1.625,0,0,1,4.1494,14.08626l-.01219.01189a1.62314,1.62314,0,0,1-2.29835,0h0A1.62293,1.62293,0,0,1,1.827,11.81378l.01188-.01307Zm6.28443-.03778a1.18223,1.18223,0,0,1,.82909.3376l.01036.01036a1.18628,1.18628,0,1,1-1.68834.01036l.01127-.01036a1.18353,1.18353,0,0,1,.83762-.348Zm-1.14872.03687a1.62586,1.62586,0,0,1,2.28616-.01189l.01219.01189a1.62551,1.62551,0,1,1-2.31053.0131l.01218-.0131Zm6.28535-.03687a1.18646,1.18646,0,1,1-.83884.348h0V12.11a1.18238,1.18238,0,0,1,.83884-.347Zm-1.14872.03778a.67317.67317,0,1,1-.00091-.00091Z" style="fill:#a1afba;fill-rule:evenodd"/></g></svg>