<svg xmlns="http://www.w3.org/2000/svg" viewBox="0 0 20.26801 16.90255"><title>factory-icon-uc-santa-barbara</title><g id="ICONS"><path d="M13.82392,1.36714a1.02581,1.02581,0,0,0-.5314-.04083,1.01432,1.01432,0,0,0-.48082.22639.21975.21975,0,0,1-.2532.0259l-.00244-.00153a.84758.84758,0,0,0-.394-.10908,1.04285,1.04285,0,0,0-.5512.15388,1.12677,1.12677,0,0,0-.40769.40768.83485.83485,0,0,0-.11395.3885.93474.93474,0,0,0,.00883.15478,1.01522,1.01522,0,0,0,.03108.15113h0l.00092.00244.00152-.00152h5.24022l.00092.00152.00091-.00061h0a1.38454,1.38454,0,0,0,.34279-.87753A1.31944,1.31944,0,0,0,16.24993.8074,1.51156,1.51156,0,0,0,15.6125.47924a1.33776,1.33776,0,0,0-.69685.01036,1.29857,1.29857,0,0,0-.81629.76175.21925.21925,0,0,1-.27544.11579Zm.5579,11.48047a.21984.21984,0,0,1,0-.43968h3.302a.21984.21984,0,1,1,0,.43968ZM.2203,15.24437H.74469V.80039A.22.22,0,0,1,.96407.5801H4.139a.21944.21944,0,0,1,.21938.22029v8.772H5.51476V2.20658a.21925.21925,0,0,1,.2203-.21847H8.91a.21964.21964,0,0,1,.22029.21847V9.57239H10.287V3.75446a.21967.21967,0,0,1,.21847-.22033h3.175a.22064.22064,0,0,1,.2203.22033V9.57239h4.30571a1.31335,1.31335,0,0,1,.93025.38606l.00152.00091a1.31477,1.31477,0,0,1,.38606.93116v4.35385h.52438a.21906.21906,0,0,1,.21939.21939v1.21941a.21906.21906,0,0,1-.21939.21938H.2203A.21983.21983,0,0,1,0,16.68317V15.46376a.21984.21984,0,0,1,.2203-.21939Zm19.60894.43969H.43968v.77911H19.82924v-.77911ZM1.18345,15.24437H3.91966V1.01978H1.18345V15.24437ZM8.69,9.57239V2.42688H5.95444V9.57239Zm4.7719,0V3.97384h-2.7362V9.57239Zm-9.10351,5.672H19.08486V10.89052a.876.876,0,0,0-.25656-.62128l-.00091-.00061a.87676.87676,0,0,0-.621-.25747H4.35842v5.23321Zm1.40193-2.39676H9.06207a.21984.21984,0,0,0,0-.43968H5.76035a.21984.21984,0,1,0,0,.43968Zm4.31058,0h3.302a.21984.21984,0,0,0,0-.43968h-3.302a.21984.21984,0,0,0,0,.43968ZM13.21421.89543a1.48722,1.48722,0,0,1,.5707.00609A1.68386,1.68386,0,0,1,14.792.06881,1.784,1.784,0,0,1,15.7161.05327a1.95157,1.95157,0,0,1,.82056.42323,1.75031,1.75031,0,0,1,.61762,1.38212A1.80723,1.80723,0,0,1,16.70272,3.014h0v.00091a.45012.45012,0,0,1-.14961.11061.42978.42978,0,0,1-.1813.039H11.13159a.43805.43805,0,0,1-.26417-.08836.43227.43227,0,0,1-.15814-.22883h0V2.84645a1.41172,1.41172,0,0,1-.04571-.21664,1.33732,1.33732,0,0,1-.01127-.22212,1.25361,1.25361,0,0,1,.17-.59512,1.58269,1.58269,0,0,1,.56491-.56914,1.48,1.48,0,0,1,.78521-.21238,1.2375,1.2375,0,0,1,.468.10116,1.48121,1.48121,0,0,1,.57375-.23678Zm-.65571.68317-.00244-.00153Z" style="fill:#a1afba;fill-rule:evenodd"/></g></svg>