<svg xmlns="http://www.w3.org/2000/svg" viewBox="0 0 17.19664 17.13173"><title>floor-plan-icon-uc-santa-barbara</title><g id="ICONS"><path d="M12.85649,15.50129a.2203.2203,0,0,1,.4406,0v1.41106a.22041.22041,0,0,1-.2203.21938l-.01973-.00061-4.43528-.00186H8.57516l-7.25794-.00332A1.31962,1.31962,0,0,1,0,15.80781L.00373,9.6279l-.001-.01371.001-.01405L.007,1.31722A1.31807,1.31807,0,0,1,1.32422,0L8.57943.00335,8.59832.00274l.0198.00061L15.88033.007a1.31809,1.31809,0,0,1,1.31631,1.31782L17.1942,5.90355l.00152.01981-.00152.01981-.00183,4.54764A1.31963,1.31963,0,0,1,15.87515,11.808H13.29709v1.19107a.2203.2203,0,0,1-.4406,0V11.58864h0v-.81446a.2203.2203,0,0,1,.4406,0v.59508h2.57806a.88208.88208,0,0,0,.88028-.87845L16.757,6.14274H13.29709V8.71136a.2203.2203,0,0,1-.4406,0V6.14274H11.83826a.21986.21986,0,0,1,0-.43971h4.91961l.00091-4.3782a.88384.88384,0,0,0-.87845-.88092L8.8177.44151V5.703h.95889a.21986.21986,0,0,1,0,.43971H8.8177v.59508a.21939.21939,0,1,1-.43877,0V.44151L1.32422.43782a.88227.88227,0,0,0-.87936.8794L.4406,9.3948H8.37893V8.79972a.21939.21939,0,0,1,.43877,0v1.62893a.21939.21939,0,1,1-.43877,0V9.83418H.4406L.43816,15.80781a.88271.88271,0,0,0,.87906.88l7.06171.00365V12.49116a.21939.21939,0,1,1,.43877,0v4.20028l4.03879.00153Z" style="fill:#a1afba;fill-rule:evenodd"/></g></svg>