<svg xmlns="http://www.w3.org/2000/svg" viewBox="0 0 11.45282 20.21347"><title>hammer-icon-uc-santa-barbara</title><g id="ICONS"><path d="M4.9532,11.31045H6.04768l.00609.00091h.011l.00609.00061h.01128l.00518.00092h.00609l.0061.00091h.00518l.00609.00088H6.122l.00579.001.00366.00091h.00762l.00518.00092H6.148l.00236.00061.00518.00091h.00853l.00274.00091.0061.00089h.0067l.00457.00094.0061.00092.00518.00061a1.34988,1.34988,0,0,1,.1752.03714V5.36119H4.59578v5.9992L4.601,11.3589l.00526-.00092.01028-.00369h0l.0061-.00149.00426-.00091h.00092l.00518-.00183.00518-.00152h.00335l.00244-.00092.00518-.00183.00548-.00091.02224-.00518.00518-.00091.0278-.00518.00511-.00065.0061-.00179H4.7262l.02833-.00518h0l.00518-.00092.01036-.00182H4.771l.00518-.00061.00609-.00092.01036-.00094.00609-.00089L4.803,11.319H4.81l.00609-.00091.00343-.00061h.00236l.00518-.00092h0l.01127-.00091.00518-.001h.01219l.00518-.00088H4.8694l.00275-.00091h.00609l.00609-.00092h.011l.0061-.00061h.01127l.0061-.00091H4.9532ZM4.92486,0H6.04158A.7654.7654,0,0,1,6.583.22548h.00183a.76689.76689,0,0,1,.22548.54328V.89125a6.379,6.379,0,0,1,.73768.15143,6.67076,6.67076,0,0,1,1.6143.67887l.01036.00671,2.16946,1.25262a.2202.2202,0,0,1,.10969.18982h.001V5.27313a.21828.21828,0,0,1-.21939.21847.215.215,0,0,1-.12713-.04052L8.26315,3.80993H8.26223a.33613.33613,0,0,0-.45278.11917L7.80884,3.93h.00061a.33749.33749,0,0,0-.04144.16575v.49666a.76931.76931,0,0,1-.76937.76876h-.1883v6.21858a1.33085,1.33085,0,0,1,.52073,1.0485v6.26734a1.31457,1.31457,0,0,1-.387.93028l-.00084.00061a1.31373,1.31373,0,0,1-.93032.387H4.9532a1.32121,1.32121,0,0,1-1.31783-1.31786V12.62827a1.31107,1.31107,0,0,1,.387-.92994h0v-.00091l.00244-.00275a1.39028,1.39028,0,0,1,.13132-.114V5.36119H3.9678a.76886.76886,0,0,1-.5442-.22548L3.41081,5.122a.77549.77549,0,0,1-.15906-.248H2.217a.77717.77717,0,0,1-.17185.26174.76723.76723,0,0,1-.54328.22548H.76845a.76453.76453,0,0,1-.54236-.22548L.21245,5.122A.76722.76722,0,0,1,0,4.59243V1.59172A.76339.76339,0,0,1,.22609,1.0503v-.001A.76407.76407,0,0,1,.76845.82388h.73341a.76143.76143,0,0,1,.54237.22547l.00091.001v-.001a.78273.78273,0,0,1,.17185.26086H3.25175A.77853.77853,0,0,1,3.4236,1.0503l.00092-.001A.7625.7625,0,0,1,3.9678.82388h.1883V.76876A.76541.76541,0,0,1,4.38158.22639L4.38249.22548A.76761.76761,0,0,1,4.92486,0ZM6.04158.43968H4.92486a.32732.32732,0,0,0-.32908.32908V.82388H6.37066V.76876a.3277.3277,0,0,0-.0969-.23249V.53566a.33111.33111,0,0,0-.23218-.096ZM4.68567,11.79157a.8873.8873,0,0,0-.18495.08471.12323.12323,0,0,1-.02072.01188h0v.00091a.91061.91061,0,0,0-.14778.11823H4.3313a.88369.88369,0,0,0-.25716.621v6.26734a.88169.88169,0,0,0,.87906.87848H6.01294a.8762.8762,0,0,0,.62037-.25747l.00152-.00092a.87892.87892,0,0,0,.25663-.62009V12.62827a.88239.88239,0,0,0-.72891-.86626H6.15737l-.02156-.00335h0l-.00434-.00091-.01737-.00244H6.10557l-.00792-.00091-.00427-.00095h-.007L6.083,11.75257H6.07876l-.00366-.00092H6.06322l-.00359-.00091H6.03549l-.00244-.00061H4.93339l-.00244.00061H4.90566l-.00335.00091H4.891l-.00427.00092H4.88349l-.00434.00088h-.007l-.00427.00095H4.86422l-.00091.00091h-.011l-.00366.00091-.00335.00061H4.84107l-.00366.00092H4.83406l-.00335.00091H4.82979l-.007.00088H4.81951v.001l-.00434.00091H4.81151l-.00244.00061H4.80389l-.00335.00092-.00274.00091H4.79689l-.00427.00092-.00335.00088H4.78653l-.00153.00094H4.78135l-.00336.00153H4.77464L4.771,11.769l-.00328.00092H4.76337l-.00366.00179-.00335.00064H4.753l-.00457.00183H4.74509l-.00092.00092-.00244.00091-.00365.00091-.00427.00061h0l-.00243.00092-.00366.00091-.00427.00092h0l-.00335.00091-.00335.00152H4.71309l-.00328.00183-.00342.00092-.00366.00091h0l-.00335.00091-.00335.00153-.00366.00091h0l-.00335.00092-.00335.00091ZM5.81184,1.26264H3.9678a.32935.32935,0,0,0-.33.32576V4.5967a.32663.32663,0,0,0,.08806.2203l.00891.00853a.33052.33052,0,0,0,.233.09689H6.99864a.332.332,0,0,0,.2331-.09689.32864.32864,0,0,0,.09689-.2331V4.09577a.75652.75652,0,0,1,.10177-.38422h0a.7645.7645,0,0,1,1.05122-.28094v.00092L11.014,4.89287v-1.596L8.9539,2.10852l-.01181-.007a5.99105,5.99105,0,0,0-3.10344-.83887ZM11.1063,5.45108l-.09225-.178a.21636.21636,0,0,0,.09225.178ZM3.19813,1.74989H2.27062V4.43521h.92751V1.74989ZM1.50186,1.26264H.76845a.33089.33089,0,0,0-.32907.32908V4.59243A.33064.33064,0,0,0,.52774,4.817l.00853.00853a.33309.33309,0,0,0,.23218.09689h.73341a.33035.33035,0,0,0,.32908-.32572V1.5884a.32949.32949,0,0,0-.09659-.22883H1.735A.32853.32853,0,0,0,1.50186,1.26264Z" style="fill:#a1afba;fill-rule:evenodd"/></g></svg>