<svg xmlns="http://www.w3.org/2000/svg" viewBox="0 0 13.16015 20.64279"><title>hand-trowel-icon-uc-santa-barbara</title><g id="ICONS"><path d="M6.05073,13.38088h.30981v-.92357H.81044A.80544.80544,0,0,1,.0969,11.269L5.86662.42932a.80632.80632,0,0,1,1.42691,0L13.063,11.269a.80339.80339,0,0,1,.09689.3998.82107.82107,0,0,1-.41134.68493.79565.79565,0,0,1-.39886.1036H6.79931v.92357h.3111a1.32121,1.32121,0,0,1,1.31782,1.31874V19.325a1.31289,1.31289,0,0,1-.387.93025l-.00061.00061a1.31243,1.31243,0,0,1-.93024.387H6.05073A1.31963,1.31963,0,0,1,4.73253,19.325V14.69962a1.31713,1.31713,0,0,1,.38605-.93116l.00092-.00061h0l.00244-.00274a1.31473,1.31473,0,0,1,.92879-.38423ZM6.36054,12.018V10.11328a.21939.21939,0,1,1,.43877,0V12.018h5.5504a.36561.36561,0,0,0,.32725-.54267L6.90748.63591a.37691.37691,0,0,0-.1356-.14534.36868.36868,0,0,0-.5192.14534L.48288,11.47529A.35835.35835,0,0,0,.49324,11.84a.35426.35426,0,0,0,.3172.17794Zm.74987,1.8026H6.05073a.8765.8765,0,0,0-.62135.25717H5.42877a.87735.87735,0,0,0-.25747.62189V19.325a.8801.8801,0,0,0,.87943.87845H7.11041a.87709.87709,0,0,0,.62006-.25747h.00091a.8798.8798,0,0,0,.25747-.621V14.69962a.8801.8801,0,0,0-.87844-.87906Z" style="fill:#a1afba;fill-rule:evenodd"/></g></svg>