<svg xmlns="http://www.w3.org/2000/svg" viewBox="0 0 21.51413 15.22136"><title>hard-hat-icon-uc-santa-barbara</title><g id="ICONS"><path d="M.18552,13.66486a.221.221,0,0,1-.13467-.13193.21531.21531,0,0,1-.01219-.08745C.03439,13.178.02921,12.90491.024,12.63467c-.089-4.71522-.16667-8.9475,4.39529-10.81561V1.50887a.22.22,0,0,1,.146-.20719A10.59431,10.59431,0,0,1,5.85994.87662Q6.48474.71345,7.1927.59873V.42231A.21942.21942,0,0,1,7.4002.20293Q8.14611.1033,8.97824.0518,9.81373.00015,10.76165,0,11.71.00132,12.54536.05363c.56308.03443,1.09417.08714,1.5951.15445a.21917.21917,0,0,1,.19013.217h0V.60635a13.63948,13.63948,0,0,1,1.3352.2852,10.497,10.497,0,0,1,1.3035.43877.21864.21864,0,0,1,.13468.202h.00091v.3108c4.55953,1.90376,4.47665,6.1982,4.38341,10.91068h0l-.01219.63987a.20975.20975,0,0,1-.0131.08562.2139.2139,0,0,1-.10969.121l-1.69291.91013a.21045.21045,0,0,1-.07252.02438h0a61.15863,61.15863,0,0,1-8.967.68649A58.46338,58.46338,0,0,1,1.92414,14.589a.2358.2358,0,0,1-.07008-.02225,7.3575,7.3575,0,0,1-.86017-.46405,6.93714,6.93714,0,0,0-.80837-.43786ZM17.10488,2.32v10.1788a21.63449,21.63449,0,0,1,3.93855.60391l.00762-.35772h0c.08806-4.49462.1685-8.59466-3.94617-10.425Zm-.1883,10.6005a.21675.21675,0,0,1-.032.00244.20659.20659,0,0,1-.06581-.01036c-1.85593-.14687-4.04215-.21938-6.22654-.21329a45.92158,45.92158,0,0,0-9.75191.805c.12676.0716.252.14686.37905.22273a6.98408,6.98408,0,0,0,.79374.43115,57.84137,57.84137,0,0,0,8.60777.62524,60.7334,60.7334,0,0,0,8.86523-.677l1.20478-.64779a23.76552,23.76552,0,0,0-3.77431-.5381Zm-.25138-.457V1.68011a10.30872,10.30872,0,0,0-1.11337-.36472q-.56858-.1527-1.22124-.26329V12.33058c.81264.03261,1.59785.07767,2.33461.13285Zm-2.77337-.1493V.61763C13.45732.56339,13.00119.521,12.51946.49145q-.83595-.053-1.75781-.0536-.92233,0-1.75751.05211c-.482.02925-.93909.07157-1.37267.12431v11.705c.96559-.03626,1.96257-.05546,2.96076-.05789,1.11277-.00275,2.22675.01554,3.2996.05271Zm-6.69913.02255V1.0436c-.43694.0716-.84371.15692-1.22367.25625a10.23114,10.23114,0,0,0-1.11094.3586V12.47806c.73951-.06033,1.5238-.10695,2.33461-.14138Zm-2.77338.17855V2.295C.30222,4.09059.37718,8.13213.461,12.62675l.01036.52774A21.16111,21.16111,0,0,1,4.41932,12.51523Z" style="fill:#a1afba;fill-rule:evenodd"/></g></svg>