<svg xmlns="http://www.w3.org/2000/svg" viewBox="0 0 17.9791 15.77125"><title>hazard-icon-uc-santa-barbara</title><g id="ICONS"><path d="M7.7415,2.58324h3.31574a.21985.21985,0,0,1,.18221.34218l-1.10118,1.976h1.32148a.21983.21983,0,0,1,.21939.2203.21358.21358,0,0,1-.03626.121L8.86859,10.22115a.21867.21867,0,0,1-.41013-.10634H8.45755v-3.277h-.716a.22015.22015,0,0,1-.21938-.22V2.80354a.21983.21983,0,0,1,.21938-.2203ZM8.32439,15.387a.76713.76713,0,0,0,.2654.27359l.01462.00887a.78139.78139,0,0,0,.7712,0h0a.77037.77037,0,0,0,.27971-.28246h0v-.00091L17.86667,1.16334l.007-.01036A.77154.77154,0,0,0,17.9791.76845a.76627.76627,0,0,0-.10542-.38422.75763.75763,0,0,0-.266-.27393L17.59305.10086A.76782.76782,0,0,0,17.20852,0H.77028A.77094.77094,0,0,0,.38514.10086h0A.775.775,0,0,0,.10451.38423a.7591.7591,0,0,0,0,.76875L4.37914,8.55414,8.32439,15.387ZM4.75819,8.33475l3.94555,6.83289a.36021.36021,0,0,0,.11061.11731l.01036.00518a.34377.34377,0,0,0,.3306,0h.00091a.32649.32649,0,0,0,.12005-.12249h0L17.48762.94487l.0061-.01218a.32922.32922,0,0,0,.04662-.16424.33225.33225,0,0,0-.04662-.16484.331.331,0,0,0-.11061-.11822L17.37458.48021a.33714.33714,0,0,0-.16606-.04144H.77028A.33266.33266,0,0,0,.60452.48021H.60361A.348.348,0,0,0,.43877.76845a.32561.32561,0,0,0,.0457.16424L4.75819,8.33475Zm5.9261-5.31183H7.9618V6.39839h.716a.21963.21963,0,0,1,.21939.21938V9.27018l2.18926-3.9291H9.765V5.34016a.21835.21835,0,0,1-.19165-.3248Z" style="fill:#a1afba;fill-rule:evenodd"/></g></svg>