<svg xmlns="http://www.w3.org/2000/svg" viewBox="0 0 20.99258 18.75913"><title>layout-icon-uc-santa-barbara</title><g id="ICONS"><path d="M9.92315,1.80352v15.1521a.21885.21885,0,0,1-.21847.21938H2.92024A.22037.22037,0,0,1,2.7,16.95562V1.80352a.21978.21978,0,0,1,.22023-.21939H9.70468a.21828.21828,0,0,1,.21847.21939ZM.21938,18.75913h20.5529a.21984.21984,0,1,0,0-.43968H19.538a1.31024,1.31024,0,0,0,.338-.87845V1.31813A1.31963,1.31963,0,0,0,18.55681,0H2.43493a1.31475,1.31475,0,0,0-.9288.38423L1.50369.38605V.38788a1.31083,1.31083,0,0,0-.387.93025V17.441a1.31094,1.31094,0,0,0,.3367.87845H.21938a.21984.21984,0,0,0,0,.43968ZM9.70468.43968H2.43493a.87476.87476,0,0,0-.62136.25656L1.813.69712a.87356.87356,0,0,0-.25655.621V17.441a.87858.87858,0,0,0,.87852.87845H18.55681a.87732.87732,0,0,0,.6219-.25655l.00091-.00095a.87873.87873,0,0,0,.25656-.621V1.31813a.879.879,0,0,0-.87937-.87845H9.70468Zm1.36384,16.51594V7.96271a.21964.21964,0,0,1,.21938-.21938h6.78444a.21964.21964,0,0,1,.21939.21938v8.99291a.21964.21964,0,0,1-.21939.21938H11.2879a.21964.21964,0,0,1-.21938-.21938Zm.43968-8.77291H17.852v8.55261H11.5082V8.18271Zm-.43968-1.80413V1.80352a.21906.21906,0,0,1,.21938-.21939h6.78444a.21906.21906,0,0,1,.21939.21939V6.37858a.21963.21963,0,0,1-.21939.21938H11.2879a.21963.21963,0,0,1-.21938-.21938ZM11.5082,2.0229H17.852V6.1592H11.5082V2.0229ZM9.48438,16.73532V2.0229H3.14054V16.73532Z" style="fill:#a1afba;fill-rule:evenodd"/></g></svg>