<svg xmlns="http://www.w3.org/2000/svg" viewBox="0 0 20.15649 21.10227"><title>lightbulb-icon-uc-santa-barbara_1</title><g id="ICONS"><path d="M10.07855,4.42332a5.65417,5.65417,0,0,1,3.5982,10.01822v1.53295a1.17044,1.17044,0,0,1-.34279.82756,1.19482,1.19482,0,0,1-.39215.259v1.93728a1.17026,1.17026,0,0,1-1.17035,1.17127h-.44907v.73768a.1953.1953,0,0,1-.19446.195H9.02916a.19545.19545,0,0,1-.1944-.195v-.73768H8.38564a1.16975,1.16975,0,0,1-.82629-.34279l-.001-.00091v-.00095l-.00183-.00179a1.16855,1.16855,0,0,1-.34126-.82483V17.061a1.19,1.19,0,0,1-.39027-.259l-.001-.00091v-.00092l-.00244-.00183a1.16882,1.16882,0,0,1-.34126-.8239V14.44154a5.655,5.655,0,0,1,3.5982-10.01822ZM4.83406,4.558,3.22768,2.95223a.19454.19454,0,1,0-.27539.27484L4.5577,4.83436a.19792.19792,0,0,0,.27636,0,.19568.19568,0,0,0,0-.27636Zm10.76443.27636,1.60765-1.60729a.1949.1949,0,1,0-.27642-.27484L15.3231,4.558a.19507.19507,0,0,0,.27539.27636ZM2.46685,9.88354a.19516.19516,0,0,1,0,.39032H.195a.19516.19516,0,0,1,0-.39032Zm15.22376.39032a.19516.19516,0,1,1,0-.39032h2.27148a.19516.19516,0,0,1,0,.39032ZM10.27386,2.46593a.19516.19516,0,1,1-.39032,0V.1944a.19516.19516,0,0,1,.39032,0V2.46593ZM7.60505,18.29112h4.94644V17.14484H7.60505v1.14628Zm4.94644.39032H7.60505v.31688a.78115.78115,0,0,0,.22878.55212h.00091a.77413.77413,0,0,0,.5509.22879h3.38582a.78121.78121,0,0,0,.78-.78091v-.31688Zm-.95889-6.42277-.00061-.01036V11.23458H10.27386v1.01373a.19516.19516,0,1,1-.39032,0V11.23458H8.5645v5.52085h3.0281V12.25867ZM11.592,10.844v-1.014a.19516.19516,0,0,1,.39032,0v1.199l.00092.01036v5.71616h.52256a.78284.78284,0,0,0,.78064-.78094V14.34891h0a.19318.19318,0,0,1,.0744-.15265,5.269,5.269,0,1,0-6.573-.007.19658.19658,0,0,1,.08294.15966v1.62558a.778.778,0,0,0,.22816.5512l.00092.00152a.77725.77725,0,0,0,.551.22822h.52342V11.03927l.00091-.008V9.82991a.19471.19471,0,0,1,.38941,0v1.014h1.319v-1.014a.19516.19516,0,0,1,.39032,0v1.014Zm-.65906,9.32564H9.22448V20.712h1.70845Z" style="fill:#a1afba;fill-rule:evenodd"/></g></svg>