<svg xmlns="http://www.w3.org/2000/svg" viewBox="0 0 18.13541 20.06934"><title>pain-roller-icon-uc-santa-barbara</title><g id="ICONS"><path d="M.43976,1.31813V4.487a.88208.88208,0,0,0,.87837.87936H14.55367a.88222.88222,0,0,0,.87845-.87936V1.31813a.87685.87685,0,0,0-.25747-.62189h0a.87585.87585,0,0,0-.621-.25747H1.31813A.87673.87673,0,0,0,.69807.69532L.69624.69624a.88094.88094,0,0,0-.25648.62189Zm8.282,10.3543a1.31845,1.31845,0,0,1,.97352,1.27212v5.80666a1.31225,1.31225,0,0,1-.38606.93025l-.00183.00183a1.31224,1.31224,0,0,1-.93017.38605h-.8834a1.31963,1.31963,0,0,1-1.31813-1.31813V12.94455a1.31631,1.31631,0,0,1,.387-.93025v-.00094l.00091-.00058L6.566,12.011a1.31211,1.31211,0,0,1,.58381-.33852V8.17875a.22.22,0,0,1,.22029-.21939h9.19439V3.72709H15.8718V4.487a1.31965,1.31965,0,0,1-1.31813,1.31813H1.31813A1.31965,1.31965,0,0,1,0,4.487V1.31813A1.31466,1.31466,0,0,1,.387.387L.388.386A1.31151,1.31151,0,0,1,1.31813,0H14.55367a1.31129,1.31129,0,0,1,.93116.386h-.00091l.00091.001a1.31466,1.31466,0,0,1,.387.93116v.75992H17.916a.21924.21924,0,0,1,.21938.21938V9.311a.219.219,0,0,1-.21938.21938H8.72172v2.142Zm-1.22794.39273a.87716.87716,0,0,0-.62037.2575l-.00061.00091a.87634.87634,0,0,0-.25747.621v5.80666a.87959.87959,0,0,0,.87845.87845h.8834a.87623.87623,0,0,0,.62121-.25656l.00061-.00061a.87869.87869,0,0,0,.25747-.62128V12.94455a.88171.88171,0,0,0-.87929-.87939Zm.09568-.43877V8.39874h9.19438a.2199.2199,0,0,0,.22022-.22V3.5077a.21918.21918,0,0,0-.22022-.21938h-.912v-.7715h1.82485V9.09163H8.50173a.21963.21963,0,0,0-.21939.21938v2.31538Z" style="fill:#a1afba;fill-rule:evenodd"/></g></svg>