<svg xmlns="http://www.w3.org/2000/svg" viewBox="0 0 22.51029 22.54381"><title>perpendicular-rulers-icon-uc-santa-barbara</title><g id="ICONS"><path d="M15.934,0h3.64482A1.32121,1.32121,0,0,1,20.897,1.31874v13.2977h.2952a1.31963,1.31963,0,0,1,1.31813,1.31813v3.64482a1.312,1.312,0,0,1-.38605.93024l-.00092.00088a1.3165,1.3165,0,0,1-.93116.387H20.897v.3282a1.31478,1.31478,0,0,1-.387.93021v.00095a1.31817,1.31817,0,0,1-.93121.387H15.934a1.32121,1.32121,0,0,1-1.31813-1.31813v-.3282H1.31813A1.32121,1.32121,0,0,1,0,19.57939V15.93457a1.3125,1.3125,0,0,1,.387-.93025h0v-.00091l.00274-.00153a1.311,1.311,0,0,1,.92842-.38544h1.103l.00579-.00061.0061.00061h4.4023l.00548-.00061.00579.00061h4.4026l.00579-.00061.0061.00061h3.35474V1.31874a1.31409,1.31409,0,0,1,.387-.93116h.00091V.387L15.00615.3851A1.31308,1.31308,0,0,1,15.934,0Zm-.87845,2.20663h1.67372a.2203.2203,0,0,1,0,.4406H15.05551V6.622h1.67372a.21938.21938,0,1,1,0,.43876H15.05551v3.97481h1.67372a.21984.21984,0,1,1,0,.43968H15.05551v3.14115h.60788l.00609-.00061.00518.00061h4.40321l.0061-.00061.00518.00061h.36905V1.31874a.88178.88178,0,0,0-.87942-.87906H15.934a.87433.87433,0,0,0-.62037.25717L15.313.69776a.87371.87371,0,0,0-.25747.621v.88789Zm5.24784,12.84949v1.674a.21984.21984,0,0,1-.43968,0v-1.674H15.88886v1.674a.21938.21938,0,0,1-.43876,0v-1.674H11.47438v1.674a.21939.21939,0,0,1-.43877,0v-1.674H7.0608v1.674a.21969.21969,0,0,1-.43937,0v-1.674H2.64632v1.674a.21969.21969,0,0,1-.43938,0v-1.674H1.31813a.87453.87453,0,0,0-.621.25656l-.00091.00091a.87832.87832,0,0,0-.25656.621v3.64482a.87906.87906,0,0,0,.87845.87844h19.874a.87981.87981,0,0,0,.62195-.25747h0a.87889.87889,0,0,0,.25741-.621V15.93457a.879.879,0,0,0-.87936-.87845h-.88881Zm-4.36939,7.048h3.64482a.87924.87924,0,0,0,.621-.25652l.00092-.00183a.875.875,0,0,0,.25753-.62006v-.3282H15.05551v.3282a.88162.88162,0,0,0,.87845.87841Z" style="fill:#a1afba;fill-rule:evenodd"/></g></svg>