<svg xmlns="http://www.w3.org/2000/svg" viewBox="0 0 18.48094 16.37517"><title>picket-fence-icon-uc-santa-barbara</title><g id="ICONS"><path d="M16.85811,13.98541l-.00091-.01829.00091-.01889V12.01854L16.86147,5.711l-.00092-.01736.00092-.018.00091-1.89432-.00091-.01889.00091-.018V2.79257a.89675.89675,0,0,0-.03626-.25933.87172.87172,0,0,0-.11487-.234L15.717.83a.85072.85072,0,0,0-.7264-.386.89.89,0,0,0-.41531.09933A.87051.87051,0,0,0,14.26177.83l-.99515,1.46686a.88789.88789,0,0,0-.114.23492.85589.85589,0,0,0-.03626.259h-.00091l-.00061.9528.00152.01889-.00152.01981V5.71373l-.00274,6.30332v.03869l-.00183,1.89155.00183.01983-.00183.02011v1.06828a.88219.88219,0,0,0,.87936.88028l1.98817.00061v-.00061h0a.88063.88063,0,0,0,.87936-.87845h0l.00091-1.07193Zm.43786-.23828h.41622a.32611.32611,0,0,0,.2334-.09689.332.332,0,0,0,.09659-.23218v-.83278a.33258.33258,0,0,0-.09659-.23245l-.00884-.00854a.3307.3307,0,0,0-.22456-.08809H17.296v1.49093Zm0-1.93058h.41622a.76881.76881,0,0,1,.52956.21238l.01372.0131a.76651.76651,0,0,1,.22547.54325v.83278a.76931.76931,0,0,1-.76875.76845h-.41714v.87083h0a1.3207,1.3207,0,0,1-1.31721,1.31783h0v-.00153H13.98967a1.31963,1.31963,0,0,1-1.31721-1.31813l.00091-.869H11.5472v.869h0A1.31808,1.31808,0,0,1,10.23,16.37181v.00089h-.00091v-.00089L8.24151,16.3709a1.32017,1.32017,0,0,1-1.3163-1.31783v-.86656H5.8l-.00092.86565h0a1.32017,1.32017,0,0,1-1.3163,1.31722V16.37H4.4819v-.00061l-1.98824-.00092A1.31963,1.31963,0,0,1,1.17645,15.0503l.00091-.86379H.76967a.76706.76706,0,0,1-.54328-.22518h0v-.00091A.76475.76475,0,0,1,0,13.41806v-.83278a.76433.76433,0,0,1,.22639-.54237V12.042a.76737.76737,0,0,1,.54328-.22548h.4086L1.18071,5.913h-.411a.7671.7671,0,0,1-.54328-.22517h0V5.68688A.76461.76461,0,0,1,0,5.14452V4.31269a.76418.76418,0,0,1,.22639-.54325V3.76852a.76736.76736,0,0,1,.54328-.22547h.41195V2.78556a1.28107,1.28107,0,0,1,.2264-.7392l.00091.00061V2.04636L2.40385.57954a1.30436,1.30436,0,0,1,.4716-.429A1.3144,1.3144,0,0,1,3.49467.00091V0A1.28824,1.28824,0,0,1,4.5855.57954l.99332,1.46923h-.001a1.27665,1.27665,0,0,1,.17124.35165h0v.00092a1.30942,1.30942,0,0,1,.05523.38605v.75566H6.92978V2.78739a1.27224,1.27224,0,0,1,.227-.73862L8.15193.58228A1.303,1.303,0,0,1,8.62277.153H8.6233a1.30505,1.30505,0,0,1,.61854-.1493V.00274A1.30718,1.30718,0,0,1,9.861.153V.15387a1.29753,1.29753,0,0,1,.47259.42841l.99332,1.46926a1.2923,1.2923,0,0,1,.16667.34188l.00252.00944a1.26847,1.26847,0,0,1,.05629.387v.75322h1.12526V2.79074h-.00092a1.32158,1.32158,0,0,1,.057-.38788,1.293,1.293,0,0,1,.17124-.35071L13.89887.58472a1.31012,1.31012,0,0,1,2.18294.00091l.993,1.46835a1.31618,1.31618,0,0,1,.17032.35254,1.27778,1.27778,0,0,1,.05424.38605v.75048h.41287a.7688.7688,0,0,1,.52956.21237l.01372.0131a.76648.76648,0,0,1,.22547.54417v.83183a.76929.76929,0,0,1-.76875.76848h-.41348L17.296,11.81655ZM5.3621,15.05216V13.94823l.00092-1.894-.00092-.01828.00092-.0174L5.36637,5.711l-.00183-.01736.00183-.018V2.78739a.89911.89911,0,0,0-.03535-.2593V2.529a.88189.88189,0,0,0-.11479-.23493l-.001-.00091v.00091L4.22192.82482A.85009.85009,0,0,0,3.49467.43968V.43877a.85409.85409,0,0,0-.72891.38605L1.77152,2.29165h0a.87616.87616,0,0,0-.11487.23492.90177.90177,0,0,0-.03717.259l-.00092.958.00183.01889-.00183.01981V5.71373l-.00243,6.30332v.03869l-.00092,1.89155.00092.01983-.00092.02011L1.6143,15.0503a.8839.8839,0,0,0,.87936.88031l1.98824.00061v-.00061h.00084v.00061a.88166.88166,0,0,0,.87936-.87906h0ZM5.8043,3.98273l-.001,1.49086H6.92978V3.98273ZM5.80331,5.913l-.00244,5.90355H6.92613L6.92887,5.913Zm-.00244,6.3432L5.8,13.74713H6.92521l.00092-1.49093ZM1.17736,13.74713l.00091-1.49093H.76967a.32778.32778,0,0,0-.33.32908v.83278a.33281.33281,0,0,0,.096.23309l.00092-.00091a.32486.32486,0,0,0,.23309.09689Zm.00335-8.27354.00091-1.49086H.76967a.32772.32772,0,0,0-.33.33v.83183a.33277.33277,0,0,0,.096.23312l.00092-.00091a.32618.32618,0,0,0,.23309.09686Zm7.0608,10.45946,1.98756.00088v-.00088H10.23v.00088a.88163.88163,0,0,0,.88-.87842h0V13.98723l-.00084-.02011.00084-.01983.00091-1.89063L11.11,12.03594l.00091-.01981.00274-6.3024-.00091-.02011.00091-.01981.00061-1.89157-.00061-.01981.00061-.01981V2.78983a.8805.8805,0,0,0-.03626-.25808l-.00236-.00884a.86668.86668,0,0,0-.11251-.22608L9.97008.82756a.88158.88158,0,0,0-.31354-.2858L9.6557.54084V.54176A.876.876,0,0,0,9.24184.44242V.4406a.87379.87379,0,0,0-.41378.10024h0a.88093.88093,0,0,0-.31445.28672L7.51976,2.29408a.89622.89622,0,0,0-.11495.23493.86378.86378,0,0,0-.03717.25838v.95615l.00091.01889-.00091.01981L7.36672,5.67381l.00092.01981-.00092.02011L7.364,12.01705v.03869l-.00061,1.89155.00061.01983-.00061.02011-.00091,1.06584a.88121.88121,0,0,0,.87905.88ZM11.55238,3.98273l-.00091,1.49086h1.12525l.00092-1.49086ZM11.55147,5.913l-.00275,5.90355h1.12556L12.67611,5.913Zm-.00275,6.3432-.00084,1.49093h1.12549V12.2562Zm5.7506-8.27347-.00061,1.49086h.41348a.32744.32744,0,0,0,.2334-.09686.33413.33413,0,0,0,.09659-.23221V4.31269a.33306.33306,0,0,0-.09659-.23337l-.00884-.00853a.3264.3264,0,0,0-.22456-.08806Z" style="fill:#a1afba;fill-rule:evenodd"/></g></svg>