<svg xmlns="http://www.w3.org/2000/svg" viewBox="0 0 7.31729 20.78782"><title>saw-icon-uc-santa-barbara</title><g id="ICONS"><path d="M5.99916,20.78782H1.31775A1.31963,1.31963,0,0,1,0,19.47V15.42085l.00084-.00336v-.01036l.00061-.00274L.00236,15.401V15.3922l.00092-.00246v-.0018l.00183-.00335h0l.001-.00427v-.00426l.00054-.00275V15.3724l.00183-.00335h0l.00091-.00427V15.363l.00183-.00183v-.00243l.00061-.00183.00183-.00335v-.00092l.00091-.00335.00092-.00091.00091-.00274L.017,15.34315v-.00092l.00183-.00335H.01973l.00092-.00365.00091-.00153.00152-.00186L.024,15.32852h0l.00183-.00365L.02674,15.324l.00068-.00244.00176-.00274.00091-.00061.00183-.00365h0l.00244-.00336v-.00091l.00183-.00244L.0371,15.306l.00152-.00182.00183-.00244.00244-.00366.00091-.00061.00092-.00183.00183-.00182.00091-.00156.00244-.00271H.05081l.00183-.00244.00061-.00183.00183-.00182L.05691,15.281l.001-.00095.00237-.00271H.06117L.063,15.27489l.00152-.00182.00092-.00092.00274-.00244h0l.00335-.00335H.07245L.074,15.26454l.00183-.00183.00182-.00095.00244-.0024h0l.00274-.00275L.08433,15.256l.00183-.00182.00274-.00183h0l.00335-.00244h0l.00335-.00274.0019-.00092.00176-.00061.00152-.00182H.10261l.00274-.00275H.106l.00274-.00152.00183-.00091.00153-.00183.00274-.00153h.001l.00327-.00182L.12,15.23254l.00244-.00091.00182-.00092.00183-.00061.00335-.00186H.13034l.5899-.29369-.43359-.50946a.2181.2181,0,0,1,.02414-.30836.19106.19106,0,0,1,.045-.03047h0l.59934-.298-.4345-.50855a.217.217,0,0,1,.02346-.30835.24031.24031,0,0,1,.04479-.03017h0l.59942-.298-.43458-.50884a.21988.21988,0,0,1,.02347-.30927.21384.21384,0,0,1,.0457-.02926L.822,11.79492l.59964-.298-.43442-.50854a.21888.21888,0,0,1,.024-.30835.21567.21567,0,0,1,.0448-.03047h0l.59873-.298L1.22116,9.843a.22005.22005,0,0,1,.02316-.30927.25292.25292,0,0,1,.046-.02926l-.00091-.00091.59934-.298-.4345-.50793a.21963.21963,0,0,1,.02353-.30927.229.229,0,0,1,.04571-.03017h-.001l.59934-.298-.43419-.50855a.21973.21973,0,0,1,.02407-.30927.25137.25137,0,0,1,.04479-.02955V7.21193l.59881-.29769-.43366-.50793A.21835.21835,0,0,1,1.94574,6.097a.201.201,0,0,1,.04418-.03017h0l.59843-.298L2.15476,5.26a.21937.21937,0,0,1,.02407-.3093A.22686.22686,0,0,1,2.223,4.92151h0l.59935-.298-.4345-.50885a.21975.21975,0,0,1,.02437-.309A.21081.21081,0,0,1,2.457,3.77614l-.00091-.00091.59965-.298-.4345-.50854a.21823.21823,0,0,1,.025-.30836.172.172,0,0,1,.04426-.03016h0l.59835-.298-.43358-.50885A.21926.21926,0,0,1,2.87941,1.514a.21017.21017,0,0,1,.04411-.02925h0l.59934-.29891L3.08836.67735A.21791.21791,0,0,1,3.11274.369.25818.25818,0,0,1,3.15753.33852H3.15669l.634-.31506A.21966.21966,0,0,1,3.8882,0h2.111A1.32121,1.32121,0,0,1,7.31729,1.31813V19.47a1.3122,1.3122,0,0,1-.387.93116v.00061a1.31072,1.31072,0,0,1-.93116.38605ZM1.15382,15.20908H6.87761V1.31813A.88065.88065,0,0,0,5.99916.43968H3.94L3.60422.60635l.42566.49849A.21584.21584,0,0,1,4.068,1.16a.21814.21814,0,0,1-.09842.29373l-.59873.29891.425.49727a.22026.22026,0,0,1-.05972.3498l-.59843.298.42506.49758a.23123.23123,0,0,1,.03877.05545.21866.21866,0,0,1-.09849.29434l-.59927.298.42467.49849a.2144.2144,0,0,1,.03992.05515A.22022.22022,0,0,1,3.27,4.89134l-.59965.298.42506.49757a.2199.2199,0,0,1-.05972.3498l-.59843.29769.42505.49757a.22927.22927,0,0,1,.0387.05546.21972.21972,0,0,1-.09842.29525l-.59843.298.42475.49757a.24615.24615,0,0,1,.039.05515.22025.22025,0,0,1-.09842.29465l-.59935.298.42483.49818a.22693.22693,0,0,1,.03893.05454.22165.22165,0,0,1-.09842.29525l-.59965.298.426.49757a.22357.22357,0,0,1,.0387.05455.22067.22067,0,0,1-.09934.29525l-.59843.29891.42567.49757a.2468.2468,0,0,1,.039.05424.22006.22006,0,0,1-.09933.29465l-.59843.29891.42475.49727a.20184.20184,0,0,1,.03992.05545.21928.21928,0,0,1-.09934.29373l-.59964.29861.426.49757A.25806.25806,0,0,1,1.5,13.76176a.21992.21992,0,0,1-.09834.29434L.8022,14.355l.426.49757a.23145.23145,0,0,1,.03778.05515.21789.21789,0,0,1-.09841.29373l-.01372.00762Zm5.72379.43877H.43961V19.47a.88127.88127,0,0,0,.87814.87906H5.99916a.8752.8752,0,0,0,.621-.25717l.001-.00091a.87477.87477,0,0,0,.25649-.621V15.64785Zm-.94244,3.83251a.219.219,0,0,0,.21938-.21847V16.73623a.21963.21963,0,0,0-.21938-.21938H1.38265a.21983.21983,0,0,0-.22029.21938v2.52566a.21925.21925,0,0,0,.22029.21847ZM1.602,19.04159H5.71518v-2.086H1.602Z" style="fill:#a1afba;fill-rule:evenodd"/></g></svg>