<svg xmlns="http://www.w3.org/2000/svg" viewBox="0 0 19.75131 20.39476"><title>stopwatch-icon-uc-santa-barbara</title><g id="ICONS"><path d="M16.81058,2.94005a8.67747,8.67747,0,0,0-1.2965-1.06584,8.54279,8.54279,0,0,0-1.47627-.78948l-.00944-.00427a8.58366,8.58366,0,0,0-6.52453.00336v.00091a8.50576,8.50576,0,0,0-1.47505.78948A8.62026,8.62026,0,0,0,4.73046,2.94005h.00092a8.613,8.613,0,0,0-1.06676,1.298c-.10024.15021-.19683.30409-.28763.4604l-.00518.01036c-.09416.16149-.18313.32724-.26509.49483-.032.064-.06209.12889-.09233.19345l-.00183.00278-.00182.00518-.02133.04661-.00366.00762-.00426.00789-.00084.0043-.00191.00335-.00944.02072-.00153.00274-.00365.00762-.00335.00884L2.958,5.519l-.00061.00278-.00365.00761-.00335.00853-.00275.00518-.00053.00275-.00373.007-.00335.00853-.00275.00609V5.569L2.933,5.57688l-.00335.00765-.00275.007v.00092l-.00335.00761L2.92024,5.608l-.00358.00761H2.916l-.00275.00793-.00335.00853-.00366.007V5.64l-.00243.007-.00335.00857-.00366.00762-.00092.00091-.00243.007-.00335.00762-.00366.00788v.00248L2.884,5.69423l-.00365.00792-.00427.01219h0l-.01036.02315h0l-.00945.02438h0l-.00944.02407h0l-.01036.02316h0l-.00884.02437-.01036.02407-.00853.02438h0l-.01036.02316h0l-.00853.025h0L2.781,5.95353l-.00944.025h0L2.763,6.00258h0L2.75357,6.027h0L2.74382,6.051l-.00853.02438-.00853.025-.00884.02407-.00846.02407h0l-.0086.02529L2.692,6.19789,2.6844,6.222,2.676,6.24722l-.00891.025h0l-.00762.02407-.00884.025L2.643,6.34567h0l-.00792.025-.00853.025L2.61859,6.42v.00061L2.612,6.445l-.00891.025-.0067.025-.00793.025h0l-.00761.02529h0l-.007.02495h0l-.007.025h0l-.00762.025v.00091l-.007.025h0l-.00761.02437h0l-.0061.0259h0l-.00792.025h0l-.0067.025h0l-.0061.0259h0l-.007.025h0l-.007.025h0l-.00579.02526h0l-.007.02593h0l-.00609.025h0l-.00694.0259h0L2.472,6.9502h0l-.0061.025h0l-.00609.025v.00091l-.00609.025h0l-.0061.0259v.00091l-.00609.02529h0l-.0061.0259h0l-.00579.025V7.13l-.00518.025v.00091l-.00518.025h0l-.00609.02589h0l-.00518.0259v.00092l-.00518.025h0l-.00518.0259h0l-.0051.0259h0l-.00526.025v.00091l-.00426.02407v.00092l-.00518.02529h0l-.00518.025h0l-.0045.025v.00091l-.00434.025h0l-.00427.0259h0l-.00518.025h0l-.00426.02587h0l-.00427.025h0l-.00426.0259h0l-.00457.02525v.001l-.00427.025h0l-.00335.02586h0l-.00366.025v.00092l-.00426.025h0l-.00336.0259h0l-.00426.0259h0l-.00274.0259h0l-.00336.025h0l-.00426.02682h0l-.00274.025v.00092l-.00427.025v.00092l-.00244.025h0l-.00365.02682h0L2.288,7.97643h0l-.00366.0265h0l-.00243.0259h0L2.27854,8.055h0l-.00274.0259v.00057l-.00244.02533h0l-.00266.02647h0l-.00252.02624h0l-.00274.0259h0l-.00183.0259h0l-.00243.0259h0l-.00183.02681h0L2.25691,8.29h0l-.00183.02651h0l-.00244.0259h0l-.00182.02681h0l-.00183.0259V8.396l-.00153.025h0l-.00182.02682h0l-.00183.02678h0l-.00153.02593v.00091l-.00091.0259h0l-.00183.0259v.00092L2.23863,8.58l-.00092.02681-.00152.02681-.00091.02678h0l-.00092.02594h0l-.00091.02681-.00092.02647-.00061.02685v.02682h0l-.00083.02681h0l-.001.0259v.05363l-.00092.02772V8.9798h0c0,.13651.00274.26021.007.37231.00609.11491.01371.23861.025.37055v.01828h.00091v7.78017h8.54134l.00579.00094.01219.00092a8.61727,8.61727,0,0,0,1.635-.16667,8.47565,8.47565,0,0,0,3.05675-1.26969,8.58378,8.58378,0,0,0,1.29741-1.06583l.00061-.00092a8.52809,8.52809,0,0,0,1.85539-2.77246l.00419-.00945a8.45463,8.45463,0,0,0,.47868-1.58687,8.53472,8.53472,0,0,0-2.33826-7.711ZM1.71363,4.00406l1.17127.67643q-.08821.16179-.17125.32908l-.01554.03168v.00092l-.01127.02346-.00152.00091-.0061.01554L2.675,5.0897,2.674,5.09153l-.01028.02255-.0019.00244-.00244.00518-.00366.00853-.00419.00789-.0019.00338-.00244.00427-.00335.00883-.0045.00762-.00068.00427-.0061.01218-.00426.00854-.00183.00457-.00183.00335-.00335.00853-.01546.032-.00282.00609-.00152.00278-.007.01615-.00244.00609-.00091.00274-.00359.00762-.00342.00884-.00335.00579-.00092.00179-.01036.02438H2.56862l-.007.0171-.00335.007-.00092.00092-.00327.0085L2.55064,5.36,2.547,5.36789h0l-.00426.00853-.00335.00884-.00358.00762-.00343.00792L2.529,5.41025l-.00366.00761h0l-.00427.00793-.00335.00944-.00365.00792v.00061l-.00336.00792-.007.01646-.00061.00091-.00275.00762-.00419.00792-.00281.00853L2.49275,5.494l-.00267.00667-.00434.00887-.00335.00853-.00092.00183-.00182.007-.00427.00853-.00427.01036h0l-.01036.02495h0l-.01028.025h0L2.44,5.62171h0l-.01036.02437h0l-.01036.0259h0l-.00975.025h0l-.00944.025v.00092l-.01036.025-.00937.025h0l-.01044.02529v.00061l-.00944.0259L2.352,5.84993h0l-.01036.0259-.00884.025-.01028.0259-.00861.0259-.00884.0259-.01036.02495-.00853.02594-.00853.02681-.00884.025-.00944.02587L2.25082,6.133h0l-.00854.02587-.00792.02624-.00853.02651h0l-.00884.0259-.00853.02589-.00784.02621L2.192,6.31612h0l-.00762.0259h0l-.00883.02681h0l-.00762.0259L2.16,6.42154l-.00762.0259-.00792.02682h0l-.00671.02681h0l-.00883.025V6.527l-.00671.02681h0l-.00792.0259V6.5806l-.007.0259h0l-.00762.02681h0l-.00609.02681h0L2.08567,6.686v.00064l-.0067.02678h0l-.007.02594h0l-.007.02681v.00091l-.0067.0259h0l-.00694.02773h0l-.00609.0259v.00088l-.00678.02685h0l-.00609.02651h0l-.0061.02681h0l-.007.02681h0l-.00609.02682v.00091L2.00736,7.009h0l-.00609.02685h0l-.0061.02742h0L1.99,7.09005h0l-.00609.02682v.00091l-.0061.0259V7.1446l-.00517.02681h0l-.0061.02742h0l-.00518.02773h0L1.95709,7.25l-.00092.00244-.00335.02072-.00183.007-.00328.01649-.0019.00945-.00244.01367-.00274.01405-.00152.00945-.00274.01645-.00183.00671-.00244.02011-.00183.00332L1.926,7.413h0l-.00427.02437v.00244l-.00335.02072-.00092.00609L1.91473,7.485l-.00152.00849-.00274.01466-.00237.01219-.001.01127-.00274.01554-.00426.02743-.00183.00365-.00335.02316v.00091l-.00335.02438v.00152l-.00366.02164L1.887,7.65588l-.00243.018-.00084.00884-.00251.01462-.00183.01219-.00176.01127-.00251.01615-.00091.00792-.00267.0189-.00068.00518-.00275.02254v.00092l-.00335.024v.00187L1.862,7.8408l-.00091.0043-.00244.01981-.00092.00761-.00182.01554-.00153.01128-.00183.0131-.00182.01462-.00054.00945-.0019.01828L1.84739,7.96l-.00182.02224L1.845,7.984l-.00275.0241V8.009l-.00243.02255-.00092.00518-.00183.0198-.00091.00792L1.83521,8.08l-.00153.01128-.00175.01279-.001.01463L1.83,8.12817l-.00153.01828-.00091.00609-.00175.02164-.001.00152L1.82332,8.201h0l-.00183.02316v.00426l-.00243.02069v.007l-.00092.01733-.00183.0104-.00091.01371-.00091.01371-.00061.01036L1.81205,8.339v.007l-.00183.02072V8.3701l-.00152.02437h0l-.00092.025V8.4219L1.806,8.44353v.00609l-.00182.018L1.80352,8.478v.014l-.00092.01279-.00091.01128-.00092.01642V8.541l-.00091.02011v.00427l-.00145.02316v.00091l-.001.02438v.00243l-.00091.02164v.007l-.00092.018v.00945L1.79468,8.687,1.79377,8.7v.02776l-.00061.00854v.025H.4412A10.291,10.291,0,0,1,1.71363,4.00406ZM.36533,6.18933a10.67029,10.67029,0,0,1,1.07712-2.5954.21826.21826,0,0,1,.2986-.07953l1.36384.78674c.06307-.1036.128-.20537.19531-.30653A9.07736,9.07736,0,0,1,4.42058,2.62986h.00061A9.07088,9.07088,0,0,1,5.785,1.5104,8.93737,8.93737,0,0,1,7.33534.67948h.00091A8.906,8.906,0,0,1,9.017.17094a9.00984,9.00984,0,0,1,5.17716.50333l.01218.00521a8.99185,8.99185,0,0,1,2.91324,1.95038h.00091l.00091.00092a8.99192,8.99192,0,0,1,1.95046,2.916,8.91949,8.91949,0,0,1,.50847,1.6789,9.09162,9.09162,0,0,1,0,3.51014,8.85463,8.85463,0,0,1-.50428,1.66792l-.00419.0128a8.99957,8.99957,0,0,1-1.95046,2.91262v.00092h-.00182a8.92223,8.92223,0,0,1-4.57743,2.45615,8.99223,8.99223,0,0,1-1.71645.17367l-.02224.00187H.43877v2.21364a.21939.21939,0,0,1-.43877,0V17.74144a.21985.21985,0,0,1,.21938-.22033h1.603V9.74856c-.00945-.1164-.01828-.24346-.02346-.37722V9.37039c-.00244-.05877-.00518-.11484-.00579-.17029H.21938A.21925.21925,0,0,1,0,8.9798,10.77331,10.77331,0,0,1,.36533,6.18933ZM10.77052,2.88124A6.09843,6.09843,0,1,1,6.45727,4.66739a6.081,6.081,0,0,1,4.31325-1.78615ZM6.147,4.35659A6.54032,6.54032,0,1,1,4.23228,8.9798,6.51651,6.51651,0,0,1,6.147,4.35659Zm2.9955,7.116a.21984.21984,0,0,1,0-.43968h3.03664V9.2001H9.14251a.21983.21983,0,0,1-.21938-.2203V6.70827a.22006.22006,0,0,1,.21938-.22034h3.25693a.21939.21939,0,0,1,0,.43877H9.3625V8.76133h3.03694a.21885.21885,0,0,1,.21847.21847v2.27337a.21944.21944,0,0,1-.21847.21938ZM14.02837,1.08046a.22074.22074,0,0,1-.10878-.28337l.10878.28337ZM18.67077,12.238a.22023.22023,0,0,1,.28246-.10816Z" style="fill:#a1afba;fill-rule:evenodd"/></g></svg>