<svg xmlns="http://www.w3.org/2000/svg" viewBox="0 0 23.45859 14.57683"><title>

truck-icon-uc-santa-barbara</title><g id="ICONS"><path d="M19.34911,9.89817a2.11857,2.11857,0,1,0,1.50034.621v-.00091l-.00091.00091a2.11386,2.11386,0,0,0-1.49943-.621ZM16.62053,2.2758h3.78741a.76934.76934,0,0,1,.46467.1554h0a.76284.76284,0,0,1,.27484.40674h.00091l1.00185,3.57934a.21869.21869,0,0,1-.152.27027.19814.19814,0,0,1-.05881.00789v.00094H16.62053a.22016.22016,0,0,1-.22-.22033V2.4961a.22.22,0,0,1,.22-.2203Zm3.78741.43968h-3.568V6.25667h4.80938L20.72605,2.9565V2.95559h0a.33016.33016,0,0,0-.11762-.1746V2.78005h0a.3276.3276,0,0,0-.20049-.06457ZM1.31821,8.10745H13.44556a.87889.87889,0,0,0,.62189-.2572l.00091-.00088a.87944.87944,0,0,0,.25656-.62007V1.31783a.87906.87906,0,0,0-.87936-.87845H1.31821a.877.877,0,0,0-.621.25652v.001a.87276.87276,0,0,0-.25747.621V7.2293a.8801.8801,0,0,0,.87845.87815Zm.44394.43968H1.31821A1.32135,1.32135,0,0,1,0,7.2293V1.31783A1.31459,1.31459,0,0,1,.38552.38941L.38705.387H.388A1.31107,1.31107,0,0,1,1.31821,0H13.44556a1.31965,1.31965,0,0,1,1.31813,1.31783V7.2293a1.31465,1.31465,0,0,1-.337.87815h.53383v-6.849a.21886.21886,0,0,1,.21939-.21847h5.743A1.32093,1.32093,0,0,1,21.72,1.305V1.30411a1.31184,1.31184,0,0,1,.47076.69777l1.21788,4.34989.00244.011a1.32229,1.32229,0,0,1,.03474.16606,1.27644,1.27644,0,0,1,.01279.17855v5.31031a.21917.21917,0,0,1-.22.21938h-.70843a.219.219,0,0,1-.21938-.21938,2.95358,2.95358,0,0,0-.86717-2.09359l-.01036-.01036a2.96218,2.96218,0,0,0-5.04492,2.10395.21808.21808,0,0,1-.21847.21847V12.237H15.4002v.40159a.219.219,0,0,1-.22029.21847H10.21117a.21885.21885,0,0,1-.21938-.21847v-.42508h-.4857a.21981.21981,0,0,1-.21938-.21939l.00092-.01642a2.96095,2.96095,0,0,0-5.92154.01737.21924.21924,0,0,1-.21938.21755v.00089H3.08029a1.32121,1.32121,0,0,1-1.31814-1.3178V8.54713Zm8.22964,0H2.20092v2.34862a.88193.88193,0,0,0,.73677.86718,3.39878,3.39878,0,0,1,6.77926.011h.27484V8.54713Zm4.96873,0H10.43116v3.87121h4.52936V8.54713Zm5.96236-7.06842a.881.881,0,0,1,.53384.1752v.00091h0a.88182.88182,0,0,1,.31262.46558l1.217,4.35051.00244.0067a.78028.78028,0,0,1,.02254.10908.84975.84975,0,0,1,.00793.12066v5.09h-.27667A3.39387,3.39387,0,0,0,21.7538,9.613l-.0131-.01128a3.398,3.398,0,0,0-5.78259,2.19567H15.4002V1.47871Zm-14.596,9.57244a.96866.96866,0,0,0-.68588,1.653v.00095l.00091-.00095a.96857.96857,0,0,0,1.36993-1.36959v.00061a.96873.96873,0,0,0-.685-.284Zm-.99576-.02681a1.40538,1.40538,0,0,0,0,1.99v.00091a1.40747,1.40747,0,1,0,1.99091-1.99v-.00088h0a1.40649,1.40649,0,0,0-1.99091,0Zm14.018.02681a.96823.96823,0,0,1,.68588.284v-.00061l.00091.00061a.97087.97087,0,0,1,.00945,1.35957l-.01036.00941a.96835.96835,0,1,1-.68588-1.653Zm-.99484-.02681a1.40611,1.40611,0,0,1,1.9906,0h-.00061a1.40518,1.40518,0,0,1,.01371,1.97719l-.0131.01371a1.40767,1.40767,0,1,1-1.9906-1.9909ZM6.32686,9.89817a2.11455,2.11455,0,0,0-1.49943.61915v.00182a2.11856,2.11856,0,0,0,0,2.997l.01036.01127a2.12308,2.12308,0,0,0,2.9885-.01036l-.00092-.00091a2.11747,2.11747,0,0,0,.00092-2.997v-.00091l-.00092.00091a2.11275,2.11275,0,0,0-1.49851-.621ZM4.51755,10.209l-.00091-.00091a2.56029,2.56029,0,0,0,0,3.61891l.01371.01219A2.55632,2.55632,0,0,0,8.13556,13.827h.00091a2.55771,2.55771,0,0,0,0-3.618v-.00091a2.5577,2.5577,0,0,0-3.61892.00091Zm13.02286-.00091a2.557,2.557,0,0,1,3.61923,0l-.00092.00091a2.55872,2.55872,0,1,1-3.61831,0Z" style="fill:#a1afba;fill-rule:evenodd"/></g></svg>