<svg version="1.1" viewBox="0 0 28 28" xmlns="http://www.w3.org/2000/svg" xmlns:xlink="http://www.w3.org/1999/xlink"><defs><style>.cls-2{fill:#003660;fill-rule:evenodd;}</style></defs><path class="cls-2" d="M22.4,22.4 L18.5322613,22.4 L18.5322613,16.7402062 C18.5322613,15.2587629 17.9272519,14.2474227 16.5968485,14.2474227 C15.5792392,14.2474227 15.013329,14.9298969 14.7499236,15.5876289 C14.6511465,15.8237113 14.6665804,16.1525773 14.6665804,16.4814433 L14.6665804,22.4 L10.8348542,22.4 C10.8348542,22.4 10.8842427,12.3742268 10.8348542,11.4628866 L14.6665804,11.4628866 L14.6665804,13.1793814 C14.8929445,12.428866 16.1173683,11.357732 18.0713017,11.357732 C20.4954551,11.357732 22.4,12.9309278 22.4,16.3185567 L22.4,22.4 L22.4,22.4 Z M6.95991298,10.0948454 L6.93521872,10.0948454 C5.70050564,10.0948454 4.9,9.25876289 4.9,8.19896907 C4.9,7.1185567 5.72417098,6.3 6.98357832,6.3 C8.24195673,6.3 9.01571025,7.11649485 9.04040452,8.19587629 C9.04040452,9.2556701 8.24195673,10.0948454 6.95991298,10.0948454 L6.95991298,10.0948454 L6.95991298,10.0948454 Z M5.34140992,11.4628866 L8.7523048,11.4628866 L8.7523048,22.4 L5.34140992,22.4 L5.34140992,11.4628866 L5.34140992,11.4628866 Z"></path></svg>