<svg version="1.1" viewBox="0 0 28 28" xmlns="http://www.w3.org/2000/svg" xmlns:xlink="http://www.w3.org/1999/xlink"><defs><style>.cls-2{fill:#003660;fill-rule:evenodd;}</style></defs><path class="cls-2" d="M14.0000174,5.25 C16.3763573,5.25 16.6743333,5.26007262 17.6076138,5.3026555 C18.5389493,5.34513418 19.175018,5.49306279 19.7315825,5.70938103 C20.3069723,5.93295851 20.7949388,6.23215012 21.2814117,6.7185883 C21.7678499,7.20506122 22.0670415,7.69302766 22.2906537,8.26841752 C22.5069372,8.82498199 22.6548658,9.46105071 22.6973445,10.3923862 C22.7399274,11.3256667 22.75,11.6236427 22.75,14.0000174 C22.75,16.3763573 22.7399274,16.6743333 22.6973445,17.6076138 C22.6548658,18.5389493 22.5069372,19.175018 22.2906537,19.7315825 C22.0670415,20.3069723 21.7678499,20.7949388 21.2814117,21.2814117 C20.7949388,21.7678499 20.3069723,22.0670415 19.7315825,22.2906537 C19.175018,22.5069372 18.5389493,22.6548658 17.6076138,22.6973445 C16.6743333,22.7399274 16.3763573,22.75 14.0000174,22.75 C11.6236427,22.75 11.3256667,22.7399274 10.3923862,22.6973445 C9.46105071,22.6548658 8.82498199,22.5069372 8.26841752,22.2906537 C7.69302766,22.0670415 7.20506122,21.7678499 6.7185883,21.2814117 C6.23215012,20.7949388 5.93295851,20.3069723 5.70938103,19.7315825 C5.49306279,19.175018 5.34513418,18.5389493 5.3026555,17.6076138 C5.26007262,16.6743333 5.25,16.3763573 5.25,14.0000174 C5.25,11.6236427 5.26007262,11.3256667 5.3026555,10.3923862 C5.34513418,9.46105071 5.49306279,8.82498199 5.70938103,8.26841752 C5.93295851,7.69302766 6.23215012,7.20506122 6.7185883,6.7185883 C7.20506122,6.23215012 7.69302766,5.93295851 8.26841752,5.70938103 C8.82498199,5.49306279 9.46105071,5.34513418 10.3923862,5.3026555 C11.3256667,5.26007262 11.6236427,5.25 14.0000174,5.25 Z M14.0000174,6.82657376 C11.6636553,6.82657376 11.3869013,6.83550019 10.4642491,6.8775968 C9.61113278,6.91649796 9.14782689,7.05904293 8.83950046,7.1788724 C8.431073,7.33760303 8.13959215,7.52721146 7.83341917,7.83341917 C7.52721146,8.13959215 7.33760303,8.431073 7.1788724,8.83950046 C7.05904293,9.14782689 6.91649796,9.61113278 6.8775968,10.4642491 C6.83550019,11.3869013 6.82657376,11.6636553 6.82657376,14.0000174 C6.82657376,16.3363447 6.83550019,16.6130987 6.8775968,17.5357509 C6.91649796,18.3888672 7.05904293,18.8521731 7.1788724,19.1604995 C7.33760303,19.568927 7.52724619,19.8604078 7.83341917,20.1665808 C8.13959215,20.4727885 8.431073,20.662397 8.83950046,20.8211276 C9.14782689,20.9409571 9.61113278,21.083502 10.4642491,21.1224032 C11.3867971,21.1644998 11.6634816,21.1734262 14.0000174,21.1734262 C16.3365184,21.1734262 16.6132376,21.1644998 17.5357509,21.1224032 C18.3888672,21.083502 18.8521731,20.9409571 19.1604995,20.8211276 C19.568927,20.662397 19.8604078,20.4727885 20.1665808,20.1665808 C20.4727885,19.8604078 20.662397,19.568927 20.8211276,19.1604995 C20.9409571,18.8521731 21.083502,18.3888672 21.1224032,17.5357509 C21.1644998,16.6130987 21.1734262,16.3363447 21.1734262,14.0000174 C21.1734262,11.6636553 21.1644998,11.3869013 21.1224032,10.4642491 C21.083502,9.61113278 20.9409571,9.14782689 20.8211276,8.83950046 C20.662397,8.431073 20.4727885,8.13959215 20.1665808,7.83341917 C19.8604078,7.52721146 19.568927,7.33760303 19.1604995,7.1788724 C18.8521731,7.05904293 18.3888672,6.91649796 17.5357509,6.8775968 C16.6130987,6.83550019 16.3363447,6.82657376 14.0000174,6.82657376 Z M14.0000174,9.50675957 C16.4815641,9.50675957 18.4932404,11.5184359 18.4932404,14.0000174 C18.4932404,16.4815641 16.4815641,18.4932404 14.0000174,18.4932404 C11.5184359,18.4932404 9.50675957,16.4815641 9.50675957,14.0000174 C9.50675957,11.5184359 11.5184359,9.50675957 14.0000174,9.50675957 Z M14.0000174,16.9166667 C15.610838,16.9166667 16.9166667,15.610838 16.9166667,14.0000174 C16.9166667,12.389162 15.610838,11.0833333 14.0000174,11.0833333 C12.389162,11.0833333 11.0833333,12.389162 11.0833333,14.0000174 C11.0833333,15.610838 12.389162,16.9166667 14.0000174,16.9166667 Z M19.7207805,9.32923829 C19.7207805,9.90914346 19.2506669,10.3792223 18.6707617,10.3792223 C18.0908913,10.3792223 17.6207777,9.90914346 17.6207777,9.32923829 C17.6207777,8.74933312 18.0908913,8.27921954 18.6707617,8.27921954 C19.2506669,8.27921954 19.7207805,8.74933312 19.7207805,9.32923829 Z"></path></svg>