<svg version="1.1" id="svg" xmlns="http://www.w3.org/2000/svg" xmlns:xlink="http://www.w3.org/1999/xlink" x="0px" y="0px"
	 viewBox="0 0 400 400" xml:space="preserve"><defs><style>.cls-2{fill:#003660;fill-rule:evenodd;}</style></defs><path class="cls-2" id="path0_00000031918153468845108940000016793279707552334768_" d="M187.4,42.8c-7.4,0.8-10.7,1.3-19.2,2.8
	c-3.1,0.5-12.3,3-16.6,4.4c-2.8,0.9-7.5,2.6-9.4,3.4c-0.7,0.3-2.5,1-4,1.6c-30.4,12.5-58.3,37.4-75.5,67.6
	c-1.9,3.4-6.9,13.6-8.1,16.6c-0.4,1-1,2.5-1.4,3.4c-2.4,5.5-6.7,20.4-8,27.8c-0.3,1.4-0.6,3.4-0.8,4.4c-0.4,2-1,7.3-1.6,13.8
	c-0.5,5.6-0.5,18.3,0,23.3c0.8,8,1.3,11.6,2.1,15.9c0.7,4.1,2.7,12.8,3.6,15.6c1.2,3.9,4.5,13.7,4.8,14c0.2,0.2,0.4,0.9,0.6,1.4
	c0.3,1,0.6,1.6,2.6,6.2c18.1,40.7,58.7,76.1,99,86.2c0.7,0.2,3.4,0.9,6,1.6c23.7,6.2,54.2,6.3,76.9,0.2c1.2-0.3,3.1-0.8,4.4-1.2
	c34.3-9.1,67.8-33.3,88-63.6c5.2-7.8,14.1-24.2,14.1-25.9c0-0.3,0.2-0.7,0.3-0.9c0.8-0.9,5.3-13.5,6.6-18.7c0.3-1.3,0.9-3.3,1.2-4.4
	c6.1-22.5,6-52.8-0.1-76.7c-0.7-2.5-1.3-5.1-1.4-5.6c-8.1-31.9-33.3-66.6-62.6-86.3c-3.4-2.3-9.6-6.1-9.8-6.1c-0.1,0-0.9-0.4-1.7-1
	c-1.7-1-9.1-4.9-12.1-6.1c-1-0.4-3-1.3-4.4-1.9c-1.4-0.6-3.2-1.4-3.9-1.7c-1.4-0.6-10.3-3.6-12.3-4.1
	C223.6,43.2,203.7,41.1,187.4,42.8 M198.2,126.4c8.3,0.6,20.9,1.9,26,2.7c1.3,0.2,3.7,0.6,5.3,0.8c25.5,3.8,53.9,13.1,75.1,24.6
	c9.8,5.3,13.1,12.2,9.8,20.4c-2.9,7.4-13,11.4-19.8,7.7c-5.8-3.1-17-8.7-18.6-9.3c-1-0.4-2.3-0.9-3-1.2c-6.2-2.7-19.6-7-28-9
	c-1.1-0.3-3-0.7-4.2-1c-2.5-0.6-10.7-2.2-17.8-3.4c-34.7-5.9-78.7-4.3-109,4c-5,1.4-6.2,1.6-9,1.4c-14.2-0.7-19-19.1-7-26.9
	c5.9-3.9,34.2-9.2,57.4-10.9C162.5,126,191.3,125.9,198.2,126.4 M186.4,180.4c21.2,1.1,41.7,4.9,61.2,11.4
	c22.1,7.3,41.8,17.6,44.5,23.1c5.7,12-7.7,22.6-18.9,15.1c-3.4-2.3-14.7-7.9-21-10.4c-24.8-9.9-51.2-14.8-79.5-14.8
	c-18.5,0-34.7,2.2-53.5,7.2c-5.1,1.4-6.8,1.4-9.8,0c-10.6-4.7-9.8-19.2,1.1-23C129.8,182.5,160.2,179,186.4,180.4 M191.3,232
	c2.3,0.2,6,0.6,8.3,0.8c17.8,1.8,38.1,7.5,54.6,15.4c5.6,2.7,14.9,7.9,16.1,9c7.4,6.9,1.5,18.9-8.4,17.1c-0.7-0.1-3.5-1.5-6.1-3
	c-20.4-11.5-39.9-17.4-65.2-19.5c-10.6-0.9-31.4-0.5-39.9,0.8c-0.7,0.1-2.7,0.4-4.5,0.6c-5.6,0.8-13.5,2.1-16.4,2.6
	c-1.5,0.3-4.6,0.9-6.8,1.4c-9.2,1.9-14.4-1.3-14.4-9.1c0-6,2.6-8.5,11-10.3C142.1,232.8,173.5,230.3,191.3,232"/>
</svg>
