<svg version="1.1" viewBox="0 0 28 28" xmlns="http://www.w3.org/2000/svg" xmlns:xlink="http://www.w3.org/1999/xlink"><defs><style>.cls-2{fill:#003660;fill-rule:evenodd;}</style></defs><path class="cls-2" d="M23.2608696,8.77573131 C22.5899002,9.07692308 21.8674828,9.28060672 21.1096948,9.3716143 C21.8835603,8.9035753 22.4773575,8.16143012 22.7571067,7.27735645 C22.0325455,7.71072589 21.2318841,8.02600217 20.3765589,8.19501625 C19.6948713,7.45937161 18.7205724,7 17.6423054,7 C15.5747338,7 13.8973105,8.69555796 13.8973105,10.7865655 C13.8973105,11.0834236 13.9294655,11.3716143 13.9937757,11.6489707 C10.8800922,11.4907909 8.12011453,9.98483207 6.27119747,7.69122427 C5.94857484,8.2524377 5.76421905,8.9035753 5.76421905,9.59696641 C5.76421905,10.9100758 6.42554185,12.0693391 7.430924,12.7486457 C6.81783382,12.7302275 6.23904239,12.5579632 5.73313581,12.276273 L5.73313581,12.3228602 C5.73313581,14.1581798 7.02469816,15.6890574 8.73963573,16.035753 C8.42558779,16.1245937 8.09439047,16.1690141 7.75247479,16.1690141 C7.5113117,16.1690141 7.27550778,16.1462622 7.04720672,16.1018418 C7.52417373,17.6056338 8.90684214,18.7009751 10.5467512,18.7302275 C9.26483536,19.7464789 7.6485067,20.3521127 5.89391121,20.3521127 C5.59165346,20.3521127 5.29261122,20.3347779 5,20.3001083 C6.65813026,21.3726977 8.62816479,22 10.7428972,22 C17.6348025,22 21.402306,16.2307692 21.402306,11.2264355 C21.402306,11.0617551 21.3990905,10.8970748 21.3926595,10.7356446 C22.1247234,10.2015168 22.7603222,9.53521127 23.2608696,8.77573131"></path></svg>