<svg version="1.1" viewBox="0 0 28 28" xmlns="http://www.w3.org/2000/svg" xmlns:xlink="http://www.w3.org/1999/xlink"><defs><style>.cls-2{fill:#003660;fill-rule:evenodd;}</style></defs><path class="cls-2" d="M14.597317,22.75 L6.21586566,22.75 C5.68227649,22.75 5.25,22.3174553 5.25,21.7840739 L5.25,6.21585816 C5.25,5.68234104 5.68234439,5.25 6.21586566,5.25 L21.7842022,5.25 C22.3175877,5.25 22.75,5.68234104 22.75,6.21585816 L22.75,21.7840739 C22.75,22.3175232 22.3175198,22.75 21.7842022,22.75 L17.3247467,22.75 L17.3247467,15.9730356 L19.5994608,15.9730356 L19.940067,13.3319323 L17.3247467,13.3319323 L17.3247467,11.6457547 C17.3247467,10.8810943 17.5370823,10.3600035 18.6335952,10.3600035 L20.0321448,10.3593924 L20.0321448,7.99716843 C19.7902709,7.96498221 18.9600773,7.89307249 17.9942117,7.89307249 C15.9778041,7.89307249 14.597317,9.12388978 14.597317,11.3841907 L14.597317,13.3319323 L12.3167632,13.3319323 L12.3167632,15.9730356 L14.597317,15.9730356 L14.597317,22.75 L14.597317,22.75 Z"></path></svg>