<svg version="1.1" viewBox="0 0 28 28" xmlns="http://www.w3.org/2000/svg" xmlns:xlink="http://www.w3.org/1999/xlink"><defs><style>.cls-2{fill:#003660;fill-rule:evenodd;}</style></defs><path class="cls-2" d="M21.8,5.2H6.2c-0.5,0-1,0.4-1,1v15.6c0,0.5,0.4,1,1,1h4.3h4.1h2.7H21h0.8c0.5,0,1-0.4,1-1V6.2 C22.8,5.7,22.3,5.2,21.8,5.2z M18.3,13c-1.3,0-2.6,0-3.9,0c0,0.1,0,0.1,0,0.2c0,1.2,0,2.4,0,3.6c0,0.9,0.6,1.6,1.4,1.7 c0.5,0.1,1,0,1.4-0.2c0.3-0.2,0.6-0.4,0.9-0.5c0,0,0.1-0.1,0.1-0.1c0,0.1,0,0.1,0,0.2c0,0.6,0,1.2,0,1.8c0,0.1,0,0.2-0.2,0.3 c-0.6,0.4-1.4,0.7-2.1,0.8c-0.3,0.1-0.6,0.1-0.9,0.1c-0.6,0-1.2-0.1-1.7-0.3c-1.3-0.4-2-1.3-2.3-2.7c-0.1-0.4-0.1-0.9-0.1-1.3 c0-1.1,0-2.3,0-3.4c0-0.2,0-0.2-0.2-0.2c-0.3,0-0.6,0-0.9,0c-0.1,0-0.1,0-0.1-0.1c0-0.8,0-1.6,0-2.4c0,0,0,0,0-0.1 c0.3,0,0.5-0.1,0.8-0.1c0.2,0,0.4-0.1,0.6-0.2c0.9-0.3,1.4-0.9,1.5-1.8c0.1-0.4,0.1-0.7,0.1-1.1c0-0.1,0-0.2,0.2-0.2 c0.4,0,0.8,0,1.2,0c0.1,0,0.2,0,0.2,0.2c0,1,0,1.9,0,2.9c0,0.2,0,0.2,0.2,0.2c1.2,0,2.4,0,3.5,0c0.2,0,0.2,0.1,0.2,0.2 c0,0.7,0,1.5,0,2.2C18.3,12.8,18.3,12.9,18.3,13z"></path></svg>