<svg version="1.1" viewBox="0 0 28 28" xmlns="http://www.w3.org/2000/svg" xmlns:xlink="http://www.w3.org/1999/xlink"><defs><style>.cls-2{fill:#003660;fill-rule:evenodd;}</style></defs><path class="cls-2" d="M11.728,16.5817301 L11.7273913,10.9890701 L16.9901739,13.7950415 L11.728,16.5817301 Z M23.2834783,10.0199493 C23.2834783,10.0199493 23.0929565,8.64837606 22.5092174,8.04438619 C21.7684348,7.2512996 20.9381739,7.24756742 20.5577391,7.2015373 C17.832,7 13.7433913,7 13.7433913,7 L13.7348696,7 C13.7348696,7 9.64626087,7 6.92052174,7.2015373 C6.53947826,7.24756742 5.70982609,7.2512996 4.96843478,8.04438619 C4.38469565,8.64837606 4.19478261,10.0199493 4.19478261,10.0199493 C4.19478261,10.0199493 4,11.6310037 4,13.241436 L4,14.7517217 C4,16.362776 4.19478261,17.9732083 4.19478261,17.9732083 C4.19478261,17.9732083 4.38469565,19.3447816 4.96843478,19.9487715 C5.70982609,20.7418581 6.68313043,20.7169769 7.11652174,20.7997068 C8.67478261,20.9527258 13.7391304,21 13.7391304,21 C13.7391304,21 17.832,20.9937797 20.5577391,20.7922424 C20.9381739,20.7455903 21.7684348,20.7418581 22.5092174,19.9487715 C23.0929565,19.3447816 23.2834783,17.9732083 23.2834783,17.9732083 C23.2834783,17.9732083 23.4782609,16.362776 23.4782609,14.7517217 L23.4782609,13.241436 C23.4782609,11.6310037 23.2834783,10.0199493 23.2834783,10.0199493 L23.2834783,10.0199493 Z"></path></svg>