<svg version="1.1" viewBox="0 0 28 28" xmlns="http://www.w3.org/2000/svg" xmlns:xlink="http://www.w3.org/1999/xlink"><defs><style>.cls-2{fill:#003660;fill-rule:evenodd;}</style></defs><path class="cls-2" d="M13.5,5.2c0.3,0,0.6,0,0.9,0c0,0,0.1,0,0.1,0c0.4,0.1,0.8,0.1,1.2,0.2c4.8,1,7.8,5.7,6.7,10.5 c-1.2,5.4-7.2,8.4-12.2,6c-2.8-1.3-4.4-3.6-4.9-6.6c0-0.3-0.1-0.5-0.1-0.8c0-0.3,0-0.6,0-0.9c0-0.1,0-0.1,0-0.2 c0.1-1.1,0.3-2.1,0.8-3.1c1.4-2.8,3.6-4.4,6.6-4.9C13,5.3,13.3,5.3,13.5,5.2z M13.4,16.5c-0.3,0.9-0.4,1.8-0.9,2.6 c2.3,0.8,5.4-0.3,6.5-3.3c1-3-0.7-6.1-3.7-6.8c-3.3-0.8-6.1,1.4-6.5,4.3c-0.2,1.5,0.2,2.8,1.1,4c0.5,0.7,1.2,1.2,2,1.5 c0-0.4,0-0.7,0.1-1c0.2-1,0.4-1.9,0.7-2.9c0-0.1,0-0.2,0-0.3c-0.1-0.3-0.2-0.7-0.1-1.1c0.1-0.4,0.2-0.7,0.5-0.9 c0.5-0.3,1.1,0,1.1,0.6c0,0.2,0,0.4-0.1,0.6c-0.1,0.4-0.3,0.9-0.4,1.3c-0.1,0.5,0.2,0.9,0.7,1c0.3,0,0.6,0,0.8-0.2 c0.2-0.2,0.4-0.4,0.6-0.7c0.4-0.7,0.5-1.4,0.4-2.2c-0.1-0.6-0.3-1-0.8-1.3c-0.4-0.3-0.8-0.3-1.3-0.4c-1.3-0.1-2.4,0.7-2.6,2c-0.1,0.5-0.1,1,0.2,1.5c0.1,0.2,0.2,0.4,0.1,0.6c0,0.1,0,0.1,0,0.2c-0.1,0.2-0.1,0.2-0.3,0.2c-0.4-0.2-0.7-0.6-0.9-1 c-0.4-1.2,0-2.6,1.1-3.4c0.9-0.7,2-0.9,3.1-0.8c1,0.1,1.8,0.6,2.3,1.5c0.4,0.6,0.5,1.3,0.4,2c-0.1,0.8-0.3,1.5-0.8,2.1 c-0.6,0.7-1.3,1.1-2.3,0.9C14,17.1,13.7,16.9,13.4,16.5z"></path></svg>