<svg version="1.1" viewBox="0 0 28 28" xmlns="http://www.w3.org/2000/svg" xmlns:xlink="http://www.w3.org/1999/xlink"><defs><style>.cls-2{fill:#003660;fill-rule:evenodd;}</style></defs><path class="cls-2" d="M22.5998365,10.4680471 C22.523221,12.1585417 21.324291,14.4694293 19.0113294,17.4017322 C16.6176108,20.4679254 14.5893691,22 12.9317812,22 C11.9067892,22 11.0381344,21.0678772 10.3289228,19.1974993 C9.85369926,17.4814532 9.38158176,15.765407 8.90739356,14.0544712 C8.3793674,12.1830712 7.81406881,11.2478823 7.2094271,11.2478823 C7.07793823,11.2478823 6.61928021,11.5207735 5.82827632,12.0675779 L5,11.0138295 C5.86761945,10.2626121 6.72281475,9.5083286 7.56662126,8.75608918 C8.72206673,7.76877495 9.59072153,7.25058829 10.170515,7.19641887 C11.5371709,7.06559463 12.3799421,7.9885188 12.6977931,9.9621252 C13.036351,12.0931295 13.2744805,13.417725 13.4059693,13.9369338 C13.8014713,15.7030611 14.2342457,16.5840806 14.7084339,16.5840806 C15.0759815,16.5840806 15.6288559,16.0137687 16.3660219,14.8721227 C17.1031878,13.7284326 17.4955837,12.8596778 17.5494217,12.2607481 C17.6550269,11.2734339 17.2605603,10.7828429 16.3660219,10.7828429 C15.9446363,10.7828429 15.5097912,10.8707405 15.0635573,11.0547121 C15.9332475,8.2757189 17.5898001,6.92454973 20.0373567,7.0032487 C21.8502465,7.05332985 22.7064771,8.21030678 22.5998365,10.4680471"></path></svg>