 <svg version="1.1" viewBox="0 0 28 28" xmlns="http://www.w3.org/2000/svg" xmlns:xlink="http://www.w3.org/1999/xlink"><defs><style>.cls-2{fill:#003660;fill-rule:evenodd;}</style></defs><path class="cls-2" d="M21.8,5.2H6.2c-0.5,0-1,0.4-1,1v15.6c0,0.5,0.4,1,1,1h4.3h4.1h2.7H21h0.8c0.5,0,1-0.4,1-1V6.2 C22.7,5.7,22.3,5.2,21.8,5.2z M10.8,16.5c-1.4,0-2.5-1.1-2.5-2.5c0-1.4,1.1-2.5,2.5-2.5c1.4,0,2.5,1.1,2.5,2.5 C13.3,15.4,12.2,16.5,10.8,16.5z M17.2,16.5c-1.4,0-2.5-1.1-2.5-2.5c0-1.4,1.1-2.5,2.5-2.5c1.4,0,2.5,1.1,2.5,2.5 C19.7,15.4,18.6,16.5,17.2,16.5z"></path></svg>