<svg xmlns="http://www.w3.org/2000/svg" viewBox="0 0 21.52733 16.21798"><title>camera-icon-uc-santa-barbara</title><g id="ICONS"><path d="M4.963,1.72921,8.30459,1.731V.76971h0A.3297.3297,0,0,0,8.208.53722L8.19947.52686A.332.332,0,0,0,7.9749.43877L5.29385.437a.334.334,0,0,0-.2334.09781L5.06136.5354a.32893.32893,0,0,0-.0975.23244L4.963,1.72921ZM.92933,14.278H.76876a.76954.76954,0,0,1-.5442-.22521.07215.07215,0,0,1-.01188-.0149A.763.763,0,0,1,0,13.5095V4.44043a.76809.76809,0,0,1,.22456-.54237l.00183-.001a.76528.76528,0,0,1,.54237-.22636H.92933v-.621a1.31249,1.31249,0,0,1,.387-.93025V2.11862l.00092-.001L1.319,2.11618a1.314,1.314,0,0,1,.92842-.38453H4.52509L4.526.76784A.76319.76319,0,0,1,4.75149.2246h0A.76848.76848,0,0,1,5.29385,0L7.9749.001a.77312.77312,0,0,1,.52835.21146l.01493.014a.767.767,0,0,1,.22517.54328h-.0006l-.00092.96194H20.20829a1.31956,1.31956,0,0,1,1.319,1.31813v11.85a1.31309,1.31309,0,0,1-.387.93029l-.00091.00182a1.3186,1.3186,0,0,1-.93116.38606H2.24746A1.31965,1.31965,0,0,1,.92933,14.89981V14.278Zm-.16057-.43938H4.15123a.32487.32487,0,0,0,.23218-.09689.32864.32864,0,0,0,.09689-.23219V4.44043a.33149.33149,0,0,0-.09689-.2334l-.00762-.00854h0l-.00366-.00243h0L4.3697,4.19331h0L4.367,4.19149,4.366,4.19088,4.3636,4.18905V4.18813l-.00274-.00182V4.1857l-.00244-.00092-.00091-.00091-.00244-.00274h0L4.35233,4.1796l-.00092-.00091L4.349,4.17686,4.34806,4.176l-.00183-.00157-.00152-.00087L4.34288,4.1726l-.00182-.00092-.00092-.00152-.00152-.00092-.00183-.001L4.335,4.16742l-.00152-.00183L4.33161,4.165,4.3307,4.16406l-.00244-.00091-.00092-.00183-.00182-.00091L4.324,4.1598,4.32125,4.158h0L4.3179,4.15706,4.317,4.1561l-.00609-.00331h0L4.30754,4.15h0L4.3048,4.14852h0L4.30053,4.1467h0l-.00274-.00183H4.29718l-.00274-.00153H4.29352l-.00244-.00091-.00091-.00091L4.28743,4.1406,4.2859,4.13969l-.00274-.00061-.00091-.00092-.00153-.00091L4.2789,4.13634H4.27707l-.00153-.00092L4.2728,4.13451,4.27189,4.1339,4.26945,4.133l-.00183-.00091H4.2661l-.00183-.00183H4.26244l-.00152-.00091H4.25818L4.25635,4.1278H4.25483l-.00275-.00091L4.25117,4.126H4.24782l-.00335-.00183h0l-.00366-.00061h0l-.00335-.001h0l-.00427-.00088h0l-.00426-.00183h0L4.22527,4.119H4.221V4.11836l-.00335-.00092H4.21674l-.00244-.001H4.21339l-.00366-.00087H4.20638L4.20455,4.1147H4.2012l-.00274-.00091H4.19693L4.1951,4.11318H4.18657l-.00183-.00092H4.17621l-.00183-.00091H.76876a.32874.32874,0,0,0-.33.32908V13.5095a.33186.33186,0,0,0,.08806.22457l.00883.00762a.32647.32647,0,0,0,.2331.09689Zm1.4787,1.93972H20.20829a.87958.87958,0,0,0,.62189-.25656v-.00061a.88257.88257,0,0,0,.25747-.62132v-11.85a.87906.87906,0,0,0-.87936-.87845H2.24746a.87722.87722,0,0,0-.621.25656l-.00092.00091a.8802.8802,0,0,0-.25747.621v.621H4.15123l.00853.00088h.02072l.00853.001h.01036l.00884.00092.00152.00091h.00975l.0067.00061h.00275l.0067.00091.00274.00092.007.00087h.00244l.00609.001h.00427l.00518.00091.00335.00061.00609.00091h.00427l.00518.00183.00365.00088.00518.001.00518.00061.00427.00091.00427.00092.00426.00091.00518.00092.00366.00087.00609.00156h.00335l.0061.00183.00244.00092.00609.00152.00274.00091.0067.00183h.00275l.00609.00244.00244.00091.007.00183h.00152l.007.00244h.00183l.00761.00274.00183.00092.007.00243h.00061l.00792.00275.00183.00091.0067.00244h.00092l.00853.00335h.00091l.00793.00366h0l.00853.00335h0l.00792.00335h.00091l.00762.00362h.00092l.00761.00339h.00092l.007.00426h.00092l.00762.00366.00091.00061.007.00274.00152.00183.0061.00244.00182.00183.007.00243.00153.00183.00609.0024.00274.001.00427.00366.00335.00148.00518.00279.00274.00152.00518.00274.00335.00183.00427.00331.00366.00187.00426.00244.00335.00179.00427.00247.00366.00274.00335.00244.00761.00518.00457.00274.00336.00244.00426.00366L4.59,3.81061l.00427.00274.00244.00244.00609.00366.00183.00148.00518.0037.00152.00152.00518.00366.00275.00152.00518.00457.00091.00061.00609.00518.00153.00092.00518.00426L4.64,3.8487l.00518.00427.00182.00091.0061.00518V3.86l.00579.00518h.00091l.00609.0061.00092.00091.007.00518.00579.0067h0l.014.01307a.76357.76357,0,0,1,.22548.54332V13.5095a.76938.76938,0,0,1-.76784.76846H1.3681v.62185a.88012.88012,0,0,0,.87936.87849ZM13.90588,4.87737a4.09928,4.09928,0,1,0,2.89678,1.20139,4.08573,4.08573,0,0,0-2.89678-1.20139Zm-3.20788.8888a4.5364,4.5364,0,1,0,3.20788-1.3267A4.51934,4.51934,0,0,0,10.698,5.76617Zm3.20879-2.25264h-.00091V3.51262a5.46317,5.46317,0,0,0-5.46479,5.4596h0v.00092h0a5.46319,5.46319,0,0,0,5.45961,5.46478h.00091a5.46317,5.46317,0,0,0,5.46479-5.4596h-.00091V8.9774h.00091a5.46319,5.46319,0,0,0-5.45961-5.46478v.00091Zm-.00091-.43877A5.90116,5.90116,0,0,0,8.00324,8.97222H8.00233v.00092h.00091a5.89961,5.89961,0,0,0,5.89746,5.90264v.00091h.00091v-.00091a5.90114,5.90114,0,0,0,5.90264-5.89746h0V8.9774h0a5.90272,5.90272,0,0,0-5.89746-5.90264h-.00091Z" style="fill:#a1afba;fill-rule:evenodd"/></g></svg>