<svg xmlns="http://www.w3.org/2000/svg" viewBox="0 0 17.42211 17.4212"><title>earth-icon-uc-santa-barbara</title><g id="ICONS"><path d="M1.85532,8.16382a.21726.21726,0,0,1,.0329-.08806l-.0329.08806ZM12.27427,2.92264a.22039.22039,0,0,1,.19251.18164l-.19251-.18164Zm-9.766,11.26113,1.69809-1.78433L2.8916,8.98955,1.95282,8.378a.21659.21659,0,0,1-.0975-.2142l.31262-2.39677a.221.221,0,0,1,.16575-.185l3.728-.90953.51373-2.65668a.21962.21962,0,0,1,.19714-.177l1.13561-.128a.21958.21958,0,0,1,.24193.1944.29258.29258,0,0,1,.00092.04418l-.046.81873.58411-.30592L8.85213.45,8.85487.43968c-.04844-.00091-.096-.00091-.14351-.00091a8.27543,8.27543,0,0,0-3.16369.62433V1.064a8.23225,8.23225,0,0,0-1.42844.76452,8.3406,8.3406,0,0,0-1.2578,1.032l.00092.00091A8.25409,8.25409,0,0,0,1.06584,5.54584v.00091h0a8.221,8.221,0,0,0-.468,1.54605,8.35271,8.35271,0,0,0,0,3.23469,8.20934,8.20934,0,0,0,1.2316,2.97539,8.33837,8.33837,0,0,0,.67887.88089ZM9.2909.45857l-.00061.0259L9.11661,2.61706H9.1157a.21523.21523,0,0,1-.1167.17612l-1.02257.53566a.21953.21953,0,0,1-.33091-.20049l.05363-.95279-.72275.08135-.51159,2.636h0a.21869.21869,0,0,1-.163.17093l-3.71917.90862-.27575,2.1137.88211.57527h0a.21219.21219,0,0,1,.08531.10451l1.3873,3.59729a.22007.22007,0,0,1-.04327.23766L2.80811,14.50428l.05332.05457a8.288,8.288,0,0,0,7.46789,2.26544,8.20187,8.20187,0,0,0,1.546-.46744h0c.07343-.03105.14687-.06213.21939-.09473l.02132-1.44153-3.20513-1.408a.2195.2195,0,0,1-.113-.28858l.00335-.00667,1.01409-2.40655a.21557.21557,0,0,1,.1554-.12947l-.001-.00091,4.39377-.95859.02255-.46741-1.28-.00609a.21553.21553,0,0,1-.13839-.05l-.00061.00091-.82939-.6877-.45949.73676a.21757.21757,0,0,1-.21664.10116L9.82839,9.07334a.21929.21929,0,0,1-.14351-.36106l1.21-1.49337.05881-1.5192a.21772.21772,0,0,1,.06307-.146h0l1.21605-1.23708-.19866-1.13836a.21877.21877,0,0,1,.17977-.2529.23967.23967,0,0,1,.06039-.00278l2.46344.12009c-.05789-.06124-.1167-.12158-.177-.1813V2.86052A8.29307,8.29307,0,0,0,11.87536,1.064L11.865,1.05883A8.25022,8.25022,0,0,0,9.2909.45857Zm3.24414,15.59.02072-1.3681a.21978.21978,0,0,0-.13133-.20293h0L9.28516,13.09812l.88845-2.11248,4.4474-.97077a.22.22,0,0,0,.17368-.21786l.04052-.84981a.22021.22021,0,0,0-.209-.22883h-.01828l-1.42082-.007-.96285-.79709a.2196.2196,0,0,0-.30927.02925.20642.20642,0,0,0-.0198.02864l-.51555.82814-1.10576-.1191L11.281,7.43829a.22052.22052,0,0,0,.0493-.1322l.0579-1.50552L12.624,4.544a.21942.21942,0,0,0,.05972-.191h.00091l-.17124-.98022,2.62408.128q.24224.298.45522.61672a8.23662,8.23662,0,0,1,.75992,1.41807l.00462.01127a8.19283,8.19283,0,0,1,.468,1.54513,8.4101,8.4101,0,0,1,0,3.23713,8.23425,8.23425,0,0,1-2.26453,4.22984v.00061a8.29638,8.29638,0,0,1-1.25689,1.03232,8.11828,8.11828,0,0,1-.76875.45675ZM13.54816,1.46469A8.671,8.671,0,0,0,12.04447.65907L12.03167.6548a8.64706,8.64706,0,0,0-1.61948-.489,8.80728,8.80728,0,0,0-3.40136,0A8.60734,8.60734,0,0,0,5.381.65907H5.37917a8.61707,8.61707,0,0,0-1.50278.805A8.74927,8.74927,0,0,0,2.55216,2.55064H2.55155a8.73063,8.73063,0,0,0-1.086,1.32392A8.61308,8.61308,0,0,0,.6615,5.37917L.66089,5.37825A8.5891,8.5891,0,0,0,.16667,7.009a8.714,8.714,0,0,0,.49422,5.033,8.58923,8.58923,0,0,0,.80471,1.5043A8.743,8.743,0,0,0,3.87639,15.9562a8.67492,8.67492,0,0,0,3.13267,1.29894,8.80857,8.80857,0,0,0,3.40466,0,8.60187,8.60187,0,0,0,1.62923-.49392h.00152a8.71955,8.71955,0,0,0,2.82517-1.89158l.00092-.00091a8.752,8.752,0,0,0,1.89157-2.8267,8.52706,8.52706,0,0,0,.49331-1.62987,8.77393,8.77393,0,0,0,0-3.40407,8.57369,8.57369,0,0,0-.49331-1.62984L16.75787,5.367a8.75963,8.75963,0,0,0-1.88731-2.81573l-.00092-.00061A8.79593,8.79593,0,0,0,13.54816,1.46469Z" style="fill:#a1afba;fill-rule:evenodd"/></g></svg>