<svg xmlns="http://www.w3.org/2000/svg"
	 width="18.23px" height="18.23px" viewBox="0 0 18.23 18.23">
<title>fancy-glass-icon-UC-Santa-Barbara</title>
<path style="fill:#a1afba;fill-rule:evenodd" fill-rule="evenodd" clip-rule="evenodd" d="M6.54,12.543h1.039h1.395c0.161,0,0.307-0.041,0.432-0.117
	c0.123-0.072,0.225-0.184,0.299-0.32l0.005-0.008l3.857-7.347H0.551l3.857,7.347c0.074,0.141,0.179,0.252,0.306,0.328
	c0.125,0.076,0.272,0.117,0.432,0.117H6.54z M11.561,1.452l1.903-0.511l-3.137-0.138L11.561,1.452z M14.806,0.585
	c0.072-0.002,0.138,0.032,0.177,0.09l3.254,4.305c0.069,0.091,0.049,0.222-0.04,0.29c-0.067,0.052-0.161,0.056-0.228,0.018
	l-2.114-1.113h-0.007l0,0l-1.264-0.667l-0.757-0.396l-0.64,1.224h0.724c0.113,0,0.209,0.093,0.209,0.207
	c0,0.04-0.01,0.077-0.03,0.109l-4.013,7.64l-0.007,0.012c-0.11,0.203-0.264,0.367-0.449,0.477c-0.192,0.117-0.411,0.178-0.647,0.178
	H7.786v3.334c0,0.064,0.021,0.129,0.056,0.178c0.034,0.049,0.085,0.09,0.147,0.111l0.001,0.002l0.001-0.002l2.413,0.896
	c0.107,0.039,0.164,0.16,0.124,0.268c-0.033,0.084-0.112,0.137-0.197,0.137H3.787c-0.115,0-0.208-0.094-0.208-0.209
	c0-0.09,0.059-0.168,0.142-0.197l2.407-0.895l0.008-0.002c0.059-0.021,0.107-0.063,0.141-0.109c0.035-0.049,0.053-0.113,0.053-0.178
	v-3.334H5.146c-0.236,0-0.458-0.061-0.646-0.178c-0.189-0.111-0.347-0.277-0.457-0.488L0.024,4.64
	C-0.029,4.537,0.01,4.411,0.111,4.36c0.03-0.017,0.063-0.024,0.097-0.024h12.51l0.746-1.417l-2.023-1.06l-0.004-0.002L9.313,0.74
	C9.211,0.689,9.173,0.563,9.226,0.462c0.041-0.078,0.122-0.12,0.203-0.111L14.806,0.585z M15.456,1.99l0.656,1.853l1.234,0.646
	L15.456,1.99z M14.682,1.043l0.89,2.517l-1.733-0.911l-0.004-0.002l-1.732-0.91L14.682,1.043z M2.462,7.249
	C2.46,7.24,2.454,7.232,2.451,7.224l-0.86-1.637C1.537,5.485,1.576,5.359,1.678,5.305c0.03-0.016,0.063-0.023,0.096-0.023h10.572
	c0.113,0,0.207,0.093,0.207,0.208c0,0.041-0.01,0.076-0.03,0.108l-0.812,1.547c-0.002,0.066-0.036,0.126-0.087,0.163l-2.265,4.313
	l-0.007,0.014c-0.063,0.115-0.153,0.209-0.259,0.271c-0.111,0.068-0.24,0.104-0.378,0.104H5.403c-0.137,0-0.266-0.035-0.377-0.104
	c-0.109-0.066-0.202-0.162-0.266-0.285L2.462,7.249z M2.766,6.933L2.118,5.697h9.884l-0.648,1.237H2.766z M11.138,7.346
	l-2.145,4.081l-0.006,0.01c-0.026,0.049-0.063,0.086-0.108,0.115c-0.046,0.027-0.102,0.043-0.164,0.043H5.403
	c-0.061,0-0.115-0.016-0.162-0.043c-0.048-0.029-0.086-0.07-0.116-0.125l0,0L2.984,7.346H11.138z M7.372,12.957H6.748v3.334
	c0,0.15-0.047,0.297-0.128,0.414c-0.081,0.115-0.195,0.205-0.335,0.262L6.273,16.97l-1.329,0.492h4.229L7.847,16.97
	c-0.144-0.055-0.264-0.146-0.346-0.266c-0.081-0.117-0.129-0.264-0.129-0.414V12.957z"/>
</svg>
