<svg xmlns="http://www.w3.org/2000/svg" viewBox="0 0 19.23233 12.42534"><title>fish-icon-uc-santa-barbara</title><g id="ICONS"><path d="M6.86488,10.82659l-1.089-1.31813-.01311-.01463-1.224-1.483a.845.845,0,0,0-.678-.3178.88444.88444,0,0,0-.37661.07952.87551.87551,0,0,0-.30135.23828L.3888,11.39241a.21869.21869,0,0,1-.38789-.14016H0V1.18071a.22045.22045,0,0,1,.39672-.13132L3.18289,4.42207a.8727.8727,0,0,0,1.35531.001l.00061-.001H4.5382L6.871,1.59876A4.415,4.415,0,0,1,8.17174.51555.25021.25021,0,0,1,8.19855.50093q.08684-.04662.178-.089A4.36521,4.36521,0,0,1,10.24979.00518L12.4159,0a4.727,4.727,0,0,1,.62128.03961.16864.16864,0,0,1,.04571.00609A4.22472,4.22472,0,0,1,14.298.404a4.35289,4.35289,0,0,1,1.51314,1.19016l3.11555,3.77035a1.307,1.307,0,0,1,0,1.67981l-3.12134,3.778a4.38244,4.38244,0,0,1-1.50461,1.18677,4.18591,4.18591,0,0,1-1.224.36171.22311.22311,0,0,1-.03534.00518,4.6211,4.6211,0,0,1-.61519.04083l-1.7377.00335a.2507.2507,0,0,1-.05.00518.23133.23133,0,0,1-.04845-.00426h-.33A4.37976,4.37976,0,0,1,8.378,12.01766c-.0585-.02773-.1164-.057-.17429-.08715a.2698.2698,0,0,1-.03534-.02011,4.3997,4.3997,0,0,1-1.30351-1.08381ZM6.15828,3.15V9.283l1.04451,1.26389a4.09605,4.09605,0,0,0,.86626.79374V1.09082a4.07543,4.07543,0,0,0-.86047.78765L6.15828,3.15ZM5.71891,8.751V3.682L4.87672,4.70212H4.8758a1.32748,1.32748,0,0,1-1.578.35559,1.29256,1.29256,0,0,1-.45248-.35559L.43968,1.79041v8.85214l2.4056-2.9108a1.31,1.31,0,0,1,2.03144,0L5.71891,8.751ZM8.50874.83518V11.59443l.05423.02681a3.95357,3.95357,0,0,0,1.69718.362h.15905V.44212h-.16941A3.9175,3.9175,0,0,0,8.563.80928l-.05423.0259ZM10.85888.44029v11.542l1.56738-.00274c.13071-.001.25838-.0067.38362-.018V.45431C12.68129.443,12.55.43785,12.4159.43785l-1.557.00244ZM13.24956.518V11.8976a3.76371,3.76371,0,0,0,.86291-.28489,3.93963,3.93963,0,0,0,1.355-1.0695l3.12164-3.77857a.87467.87467,0,0,0,0-1.12038l-3.11555-3.77A3.92958,3.92958,0,0,0,14.11247.80045,3.72919,3.72919,0,0,0,13.24956.518Zm2.74656,5.18686A.65261.65261,0,0,0,15.902,5.6278a.67148.67148,0,0,0-.12005-.06311l-.00945-.00423a.61022.61022,0,0,0-.11914-.03443.71083.71083,0,0,0-.27209,0,.61764.61764,0,0,0-.12889.03866h.00091a.651.651,0,0,0-.12.06311.76038.76038,0,0,0-.10543.08745l-.01036.01036a.66915.66915,0,0,0-.07678.09415.68369.68369,0,0,0-.10177.24955l-.00183.0061a.68749.68749,0,0,0-.01127.12949.74479.74479,0,0,0,.01219.13468h.00091a.709.709,0,0,0,.0387.13041.76732.76732,0,0,0,.06307.11914.85722.85722,0,0,0,.08714.10451.6924.6924,0,0,0,.224.15113.743.743,0,0,0,.1295.03809.70577.70577,0,0,0,.1365.0131.687.687,0,0,0,.13468-.0131h0a.76346.76346,0,0,0,.13041-.03809.74957.74957,0,0,0,.11914-.06459.71846.71846,0,0,0,.10451-.08654l.01036-.01036a.59851.59851,0,0,0,.07617-.09415.75012.75012,0,0,0,.0646-.11914.78853.78853,0,0,0,.03809-.13041l.00183-.00609a.70732.70732,0,0,0,.011-.12859.774.774,0,0,0-.01188-.13559H16.1957a.78853.78853,0,0,0-.03809-.13041.7356.7356,0,0,0-.0646-.11914.65663.65663,0,0,0-.08653-.10451l-.01036-.0104Zm.1493-.44056a1.15689,1.15689,0,0,0-.19592-.10451l-.01219-.00518a1.11238,1.11238,0,0,0-.41957-.08135,1.16913,1.16913,0,0,0-.2203.02163,1.03589,1.03589,0,0,0-.21176.0649h-.00061a1.12563,1.12563,0,0,0-.19623.10451,1.15317,1.15317,0,0,0-.17094.14078l-.0131.01279a1.1166,1.1166,0,0,0-.23218.355,1.07358,1.07358,0,0,0-.0649.20994l-.00091.00792a1.10421,1.10421,0,0,0-.02072.2142,1.167,1.167,0,0,0,.02163.21939v.00152h0a1.03179,1.03179,0,0,0,.0649.20994,1.197,1.197,0,0,0,.10451.19714,1.1499,1.1499,0,0,0,.14077.17093,1.1313,1.1313,0,0,0,.36778.24529,1.07283,1.07283,0,0,0,.21176.06455,1.14089,1.14089,0,0,0,.2203.02168,1.16011,1.16011,0,0,0,.2203-.02168h0a1.10884,1.10884,0,0,0,.21146-.06455,1.2338,1.2338,0,0,0,.19592-.10451,1.17367,1.17367,0,0,0,.17124-.14078l.0128-.01314a1.24449,1.24449,0,0,0,.128-.15779,1.26042,1.26042,0,0,0,.10543-.19714,1.15577,1.15577,0,0,0,.06368-.20994l.00092-.00762a1.08886,1.08886,0,0,0,.02072-.21329,1.144,1.144,0,0,0-.02164-.2203V5.98278h0a1.20784,1.20784,0,0,0-.06368-.20994,1.25557,1.25557,0,0,0-.10543-.19684,1.14779,1.14779,0,0,0-.14077-.17093l-.0131-.01311A1.18478,1.18478,0,0,0,16.14542,5.26429Z" style="fill:#a1afba;fill-rule:evenodd"/></g></svg>