<svg xmlns="http://www.w3.org/2000/svg" viewBox="0 0 20.65559 12.49969"><title>flight-ticket-icon-uc-santa-barbara</title><g id="ICONS"><path d="M19.33685,12.49969H1.31813A1.31963,1.31963,0,0,1,0,11.18187V1.31813A1.31393,1.31393,0,0,1,.38605.38788L.387.387h0L.38941.38449A1.31469,1.31469,0,0,1,1.31813,0H19.33685a1.32069,1.32069,0,0,1,1.31874,1.31813v9.86374a1.32226,1.32226,0,0,1-1.31874,1.31782ZM18.09123,1.42447H14.3998a.21969.21969,0,1,0,0,.43938h3.69143a.21969.21969,0,1,0,0-.43938ZM2.72249,1.86385H12.383a.21969.21969,0,0,0,0-.43938H2.72249a.21969.21969,0,0,0,0,.43938ZM17.87185,6.24573v3.3779a.21939.21939,0,1,0,.43877,0V6.24573a.21939.21939,0,0,0-.43877,0Zm-1.14872,0v3.3779a.21984.21984,0,0,0,.43968,0V6.24573a.21984.21984,0,0,0-.43968,0Zm-.9726,0v3.3779a.21984.21984,0,0,0,.43968,0V6.24573a.21984.21984,0,0,0-.43968,0Zm-1.11916,0v3.3779a.21984.21984,0,0,0,.43968,0V6.24573a.21984.21984,0,0,0-.43968,0Zm-2.17921,0v3.3779a.21939.21939,0,1,0,.43877,0V6.24573a.21939.21939,0,0,0-.43877,0ZM2.72249,9.577H7.82438a.21984.21984,0,0,0,0-.43968H2.72249a.21984.21984,0,0,0,0,.43968Zm0-1.55549H7.82438a.21984.21984,0,0,0,0-.43968H2.72249a.21984.21984,0,0,0,0,.43968Zm0-1.5564H7.82438a.21939.21939,0,0,0,0-.43877H2.72249a.21939.21939,0,0,0,0,.43877ZM.43968,2.83645H20.21529V1.31813a.88064.88064,0,0,0-.87844-.87845H1.31813A.87848.87848,0,0,0,.69685.69624L.69624.69807a.87345.87345,0,0,0-.25656.62006V2.83645Zm19.77561.43964H.43968v7.90578a.87959.87959,0,0,0,.87845.87814H19.33685a.88011.88011,0,0,0,.87844-.87814Z" style="fill:#a1afba;fill-rule:evenodd"/></g></svg>