<svg xmlns="http://www.w3.org/2000/svg" viewBox="0 0 20.34205 10.33602"><title>goggles-icon-uc-santa-barbara</title><g id="ICONS"><path d="M19.90267,2.65668h-.80075V6.10923h.80075V2.65668Zm-7.01174-1.234L9.127,5.63329a.219.219,0,0,1-.32664-.29191l3.504-3.91874H2.99185a.33029.33029,0,0,0-.32908.33v6.831a.32926.32926,0,0,0,.09689.23314h0a.32727.32727,0,0,0,.23219.09594H7.21041a.32078.32078,0,0,0,.12584-.02251h0a.32481.32481,0,0,0,.10726-.07343l.01218-.01128,1.19168-1.192h0V7.61292a.75858.75858,0,0,1,.248-.16759l.0128-.00518a.77381.77381,0,0,1,.28245-.05271H11.1514a.76746.76746,0,0,1,.29373.05789H11.446a.76416.76416,0,0,1,.24864.16759l1.20386,1.20387a.32611.32611,0,0,0,.10634.07343l.00793.00335a.33986.33986,0,0,0,.11822.01916h4.21826a.32867.32867,0,0,0,.33-.32908v-6.806L15.667,4.02569a.21839.21839,0,1,1-.32572-.291l2.06343-2.30688a.27878.27878,0,0,0-.05546-.00518H15.36722L12.1956,4.969a.21871.21871,0,0,1-.32633-.29129l2.91049-3.25511Zm1.642,3.24475a.21871.21871,0,0,1,.32633.29129l-.88454.98814a.21868.21868,0,1,1-.32542-.29221l.88363-.98722Zm4.569-3.34926v.89978h1.02075a.21912.21912,0,0,1,.21938.21877V6.32861a.21976.21976,0,0,1-.21938.22H19.10192V9.01819a1.31034,1.31034,0,0,1-.387.93025l-.00091.00061a1.308,1.308,0,0,1-.93025.387H12.95126A1.28258,1.28258,0,0,1,12.01948,9.95l-.88271-.88183a.84.84,0,0,0-.621-.25744H9.82565a.8387.8387,0,0,0-.621.25744L8.32287,9.95a1.28391,1.28391,0,0,1-.93208.38606H2.55826A1.32016,1.32016,0,0,1,1.24013,9.01819V6.5486H.21938A.21976.21976,0,0,1,0,6.32861V2.43668a.21912.21912,0,0,1,.21938-.21877H1.24013V1.31813A1.31068,1.31068,0,0,1,1.62649.38788V.387H1.6271L1.62984.38419A1.31193,1.31193,0,0,1,2.55826,0H17.78379a1.32121,1.32121,0,0,1,1.31813,1.31813ZM1.24013,6.10923V2.65668H.43877V6.10923ZM2.99185.98387H17.34929a.76691.76691,0,0,1,.52957.21238l.01371.0131a.766.766,0,0,1,.22548.54328v6.831a.77089.77089,0,0,1-.76876.76941H13.131a.77138.77138,0,0,1-.28154-.05241l-.01311-.00518a.75719.75719,0,0,1-.24863-.1685L11.38449,7.92371a.33476.33476,0,0,0-.10695-.07343V7.84933a.34411.34411,0,0,0-.12614-.02221H9.19065a.33283.33283,0,0,0-.11822.01981l-.00853.00335a.33591.33591,0,0,0-.10634.07343L8.95664,7.9228l-1.19107,1.192L7.7543,9.127a.76366.76366,0,0,1-.24863.1685H7.50384a.76414.76414,0,0,1-.29343.05759H2.99185A.76606.76606,0,0,1,2.44857,9.127h0a.76939.76939,0,0,1-.22548-.54332v-6.831a.76809.76809,0,0,1,.22548-.54271l.00182-.00057A.76166.76166,0,0,1,2.99185.98387ZM18.66224,9.01819a.88157.88157,0,0,1-.25656.621l-.00091.00092a.88153.88153,0,0,1-.621.25625H12.95126a.87709.87709,0,0,1-.33761-.06308.86658.86658,0,0,1-.28337-.19409l-.88272-.88184a1.2947,1.2947,0,0,0-.42566-.2876,1.31337,1.31337,0,0,0-.50611-.09872H9.82565a1.29584,1.29584,0,0,0-.93208.38632l-.8818.88184a.85455.85455,0,0,1-.28428.19409.8714.8714,0,0,1-.3367.06308H2.55826a.87856.87856,0,0,1-.87937-.87815V1.31813a.87549.87549,0,0,1,.25748-.621h0A.87367.87367,0,0,1,2.55826.43968H17.78379a.87906.87906,0,0,1,.87845.87845Z" style="fill:#a1afba;fill-rule:evenodd"/></g></svg>