<svg xmlns="http://www.w3.org/2000/svg" viewBox="0 0 15.59788 16.21276"><title>image-icon-uc-santa-barbara</title><g id="ICONS"><path d="M14.28157.443,1.323.43785A.88108.88108,0,0,0,.444,1.3163L.43785,14.88945a.8801.8801,0,0,0,.87937.87936l12.95735.0061a.8807.8807,0,0,0,.87936-.87845L15.16063,1.323a.88121.88121,0,0,0-.87906-.88ZM1.774,1.532H13.82635a.22.22,0,0,1,.2203.21938V12.85192a.22022.22022,0,0,1-.2203.2203H1.774a.21983.21983,0,0,1-.21938-.2203V1.75141A.21964.21964,0,0,1,1.774,1.532Zm11.833.43877V9.32015L12.1825,8.4219a.75183.75183,0,0,0-.766-.03017L8.04011,10.16325a.33335.33335,0,0,1-.18313.0387l-.00426-.00061a.32569.32569,0,0,1-.1752-.07526L3.64573,6.82679a.76049.76049,0,0,0-.84219-.08744l-.80928.4217V1.9708ZM1.99426,7.65588l1.0113-.52682a.31872.31872,0,0,1,.362.03717l4.03178,3.29929a.76259.76259,0,0,0,.40861.17185l.00853.00087a.77012.77012,0,0,0,.426-.0871l3.377-1.77157a.33776.33776,0,0,1,.16667-.03987.33257.33257,0,0,1,.16332.05363L13.607,9.83844v2.7941H1.99426V7.65588Zm8.05138-4.7981a2.17571,2.17571,0,1,1-.00152,4.35141v.00092h0V7.20919A2.17424,2.17424,0,0,1,7.86917,5.03272h0a2.1753,2.1753,0,0,1,2.17647-2.17494Zm1.22916.9467a1.73863,1.73863,0,0,1-1.23068,2.96777V6.77134h0v.00091A1.73842,1.73842,0,0,1,8.307,5.03272h0A1.73827,1.73827,0,0,1,11.2748,3.80448ZM1.323,0,14.28157.00579A1.31861,1.31861,0,0,1,15.59788,1.323l-.0061,13.57345a1.31866,1.31866,0,0,1-1.31721,1.3163L1.31722,16.20667A1.31807,1.31807,0,0,1,0,14.88945L.00609,1.3163A1.31912,1.31912,0,0,1,1.323,0Z" style="fill:#a1afba;fill-rule:evenodd"/></g></svg>