<svg xmlns="http://www.w3.org/2000/svg" viewBox="0 0 16.08692 20.23905"><title>location-icon-uc-santa-barbara</title><g id="ICONS"><path d="M7.87381,20.15892c-.63567-.74255-1.34654-1.5305-2.08-2.34131A60.73775,60.73775,0,0,1,1.465,12.67246H1.46408a8.24833,8.24833,0,0,1-1.095-2.21121A8.0447,8.0447,0,1,1,16.08692,8.04373H16.086a7.9846,7.9846,0,0,1-1.465,4.62964,60.50706,60.50706,0,0,1-4.32978,5.14577c-.73243.81111-1.444,1.59967-2.0814,2.34344a.22.22,0,0,1-.30927.02407.24987.24987,0,0,1-.02675-.02773ZM8.04315,4.48A3.56359,3.56359,0,0,0,4.47847,8.04373h0a3.56453,3.56453,0,1,0,7.12906,0h0A3.5619,3.5619,0,0,0,8.04376,4.48ZM5.2125,5.2125A3.99135,3.99135,0,0,0,4.03971,8.04373h.001a4.00326,4.00326,0,1,0,8.00652,0h0A4.00469,4.00469,0,0,0,8.04376,4.0394H8.04315A3.99167,3.99167,0,0,0,5.2125,5.2125Zm.90624,12.3123c.68063.7523,1.34122,1.4848,1.925,2.1591.58229-.67369,1.24386-1.40589,1.92357-2.15819a60.51147,60.51147,0,0,0,4.29535-5.10463,7.58061,7.58061,0,0,0,1.38608-4.37735h-.00152a7.60424,7.60424,0,0,0-15.20847,0A7.52059,7.52059,0,0,0,.78856,10.329a7.75945,7.75945,0,0,0,1.03659,2.093H1.82424A60.51306,60.51306,0,0,0,6.11874,17.5248Z" style="fill:#a1afba;fill-rule:evenodd"/></g></svg>