<svg xmlns="http://www.w3.org/2000/svg" viewBox="0 0 18.91048 18.79814"><title>lounge-chair-with-umbrella-icon-uc-santa-barbara</title><g id="ICONS"><path d="M.85648,7.92371H5.88159l2.4382-5.82494L.85648,7.92371Zm11.66177,0H6.35661l2.635-6.293h.89216l2.63444,6.293Zm-1.9641-5.82555,2.43912,5.82555h5.04156L10.55415,2.09816ZM.237,17.18445a.21969.21969,0,0,1,0-.43938H.5335v-.4735a.767.767,0,0,1,.22517-.54237v-.00091a.7699.7699,0,0,1,.54328-.22548H8.68086V8.36339H.21905V8.36248A.21389.21389,0,0,1,.0472,8.27869a.21652.21652,0,0,1,.03717-.30653L8.62632,1.305V.76876A.77545.77545,0,0,1,8.6833.4735.7667.7667,0,0,1,8.85271.22365.77518.77518,0,0,1,9.10317.05637.75933.75933,0,0,1,9.39782.00091V0H9.478l.02164.00091a.77213.77213,0,0,1,.273.05546.76048.76048,0,0,1,.24955.16815.74483.74483,0,0,1,.22639.54424V1.305l8.54378,6.65433a.21967.21967,0,0,1-.11914.404H10.24854v7.13942h2.01224a.27043.27043,0,0,0,.05271-.00335.33845.33845,0,0,0,.04936-.01128l5.43-1.74718a.75922.75922,0,0,1,.31537-.0347.77668.77668,0,0,1,.30134.09842.75271.75271,0,0,1,.23767.20994l.00091.00091h0a.77.77,0,0,1,.1295.29038l.12767.5707a.2194.2194,0,0,1-.14687.25565h0l-.67795.21786v1.39491h.60726a.21969.21969,0,0,1,0,.43938H16.59v.29464a1.31686,1.31686,0,0,1-.387.93116l-.00091.00092a1.31312,1.31312,0,0,1-.93025.387H3.653a1.32121,1.32121,0,0,1-1.31782-1.31905v-.29464H.237Zm13.50763-.43938h3.89559V15.49184l-3.89559,1.25323Zm2.40561.43938H2.77487v.29464a.88167.88167,0,0,0,.87814.87936H15.27182a.87577.87577,0,0,0,.621-.25747l.00092-.00091a.87506.87506,0,0,0,.25656-.621v-.29464Zm1.62618-2.19628c.01127-.00426.02163-.00792.03382-.01127l.62433-.20049-.08349-.37631a.34144.34144,0,0,0-.05637-.12553h0a.35983.35983,0,0,0-.10268-.08871.3044.3044,0,0,0-.12859-.04323.31335.31335,0,0,0-.1365.01554l-5.43127,1.7462a.73971.73971,0,0,1-.11548.02868.83486.83486,0,0,1-.11944.00944H1.302a.32713.32713,0,0,0-.32968.32908v.4735H12.31532l5.46113-1.7569ZM9.80977,1.192V.76876A.31086.31086,0,0,0,9.7854.6417a.3155.3155,0,0,0-.07252-.106A.31477.31477,0,0,0,9.60593.46219.3285.3285,0,0,0,9.49441.43877H9.3969a.32048.32048,0,0,0-.128.02255A.32733.32733,0,0,0,9.162.53475a.36289.36289,0,0,0-.07343.107.3267.3267,0,0,0-.02346.12706V1.192ZM9.49959.00091l.19866.21847A.22083.22083,0,0,0,9.49959.00091Zm-.38,8.3634v7.1385h.69014V8.36431L9.7595,8.36339H9.13334Z" style="fill:#a1afba;fill-rule:evenodd"/></g></svg>