<svg xmlns="http://www.w3.org/2000/svg" viewBox="0 0 20.6431 16.18467"><title>luggage-icon-uc-santa-barbara</title><g id="ICONS"><path d="M8.14231,6.30524a.21984.21984,0,0,1,0-.43968H9.4827a.21984.21984,0,1,1,0,.43968Zm0,1.3404a.21987.21987,0,0,1,0-.43973H9.4827a.21987.21987,0,1,1,0,.43973Zm0-.671a.21939.21939,0,1,1,0-.43878H9.4827a.21939.21939,0,1,1,0,.43878Zm8.3428-.089h0V1.9044h-.748V15.745h.748V6.88571ZM15.29737,5.24183V2.48334H9.03265V3.72166l1.27671,1.22917a.21507.21507,0,0,1,.06582.15479h.00061V8.32025a.21816.21816,0,0,1-.21939.217H7.4686a.218.218,0,0,1-.21847-.217V5.10562a.21233.21233,0,0,1,.07953-.167l1.26361-1.217V2.48334H5.34543v8.9324h0V15.167h9.95194V5.24183ZM9.93793,8.10361V5.19612l-.90528-.87145v.52074a.21969.21969,0,1,1-.43938,0V4.32467l-.90619.87145V8.10361Zm-2.60827-3.165a.21825.21825,0,0,1,.13894-.05l-.13894.05ZM8.80747,0h4.32894A.76742.76742,0,0,1,13.666.21238l.01371.0131a.76723.76723,0,0,1,.22549.54329v1.2758h1.39219V1.68593a.21984.21984,0,0,1,.21939-.2203h1.18773a.22.22,0,0,1,.2203.2203v.35864H19.325A1.319,1.319,0,0,1,20.6431,3.36241V14.28849a1.31393,1.31393,0,0,1-.38606.93027l-.00091.00087a1.31546,1.31546,0,0,1-.93118.387H16.92479v.35868a.22.22,0,0,1-.2203.21939H15.51676a.21984.21984,0,0,1-.21939-.21939V15.6066H5.34543v.35868a.21926.21926,0,0,1-.21939.21939H3.93861a.22.22,0,0,1-.2203-.21939V15.6066H1.31785A1.31965,1.31965,0,0,1,0,14.28849V3.36241a1.3121,1.3121,0,0,1,.38606-.93026l.00091-.001H.38789L.38941,2.4288a1.31433,1.31433,0,0,1,.92844-.38423H3.71831V1.68593a.22.22,0,0,1,.2203-.2203H5.126a.21926.21926,0,0,1,.21939.2203v.35864H6.73792V.76877A.76534.76534,0,0,1,6.96341.2264L6.96432.22548A.7638.7638,0,0,1,7.50669,0Zm.22518.43969V2.04457H13.4664V.76877a.33017.33017,0,0,0-.09781-.23249L13.361.52775a.33034.33034,0,0,0-.22456-.08806ZM8.59327,2.04457V.43969H7.50669a.33008.33008,0,0,0-.2334.09568.334.334,0,0,0-.09568.2334v1.2758ZM4.90665,1.9044H4.158V15.745h.74866V1.9044ZM.43969,13.71413h0v.57436a.87968.87968,0,0,0,.87816.87847H3.71831V2.48334H1.31785a.88012.88012,0,0,0-.621.25717l-.00092.00091a.87924.87924,0,0,0-.25625.621v.57345h0v9.77827ZM20.20433,4.37555v9.91294a.88024.88024,0,0,1-.25748.62034v.001a.88062.88062,0,0,1-.6219.25717H16.92479V2.48334H19.325a.88012.88012,0,0,1,.87938.87907V4.37555Z" style="fill:#a1afba;fill-rule:evenodd"/></g></svg>