<svg xmlns="http://www.w3.org/2000/svg" viewBox="0 0 18.23 18.23" >
<title>map-location-icon-uc-santa-barbara</title>
<path  style="fill:#a1afba;fill-rule:evenodd" fill-rule="evenodd" clip-rule="evenodd" d="M11.823,5.961c0.131,0,0.248-0.053,0.334-0.138
	c0.087-0.085,0.139-0.206,0.139-0.337c0-0.131-0.052-0.249-0.139-0.335c-0.086-0.087-0.203-0.138-0.334-0.138
	s-0.253,0.05-0.339,0.138c-0.083,0.086-0.139,0.204-0.139,0.335c0,0.132,0.056,0.252,0.139,0.337
	C11.57,5.908,11.692,5.961,11.823,5.961 M2.498,12.018c0.133,0,0.252-0.053,0.339-0.14c0.085-0.084,0.14-0.203,0.14-0.336
	c0-0.129-0.054-0.25-0.14-0.335c-0.086-0.086-0.206-0.141-0.339-0.141c-0.129,0-0.247,0.055-0.334,0.141
	c-0.085,0.085-0.139,0.206-0.139,0.335c0,0.133,0.054,0.252,0.139,0.336C2.251,11.966,2.369,12.018,2.498,12.018 M3.093,12.14
	c0.156-0.154,0.25-0.366,0.25-0.598c0-0.18-0.057-0.348-0.153-0.481l1.5-1.721v5.179h-3.59c-0.202,0-0.385-0.082-0.519-0.213
	c-0.132-0.134-0.214-0.317-0.214-0.518V3.09c0-0.202,0.082-0.386,0.214-0.519c0.131-0.133,0.316-0.214,0.519-0.214h3.59v6.429
	l-1.77,2.029c-0.124-0.073-0.267-0.114-0.421-0.114c-0.23,0-0.44,0.095-0.592,0.247c-0.153,0.151-0.246,0.363-0.246,0.595
	s0.093,0.443,0.246,0.598c0.152,0.149,0.362,0.245,0.592,0.245C2.732,12.385,2.943,12.29,3.093,12.14 M14.067,6.721
	c-1.011,0.046-1.922,0.475-2.594,1.146c-0.712,0.708-1.15,1.691-1.15,2.777c0,0.406,0.062,0.803,0.18,1.178
	c0.121,0.382,0.299,0.744,0.534,1.08h0.001l0.001,0.003c0.36,0.51,0.825,1.062,1.313,1.614H9.743V6.105l1.312-0.272
	c0.042,0.093,0.101,0.176,0.173,0.249c0.151,0.151,0.362,0.245,0.596,0.245c0.231,0,0.442-0.094,0.594-0.245
	c0.154-0.153,0.247-0.363,0.247-0.596c0-0.232-0.093-0.443-0.247-0.595c-0.151-0.151-0.362-0.246-0.594-0.246
	c-0.233,0-0.444,0.095-0.596,0.246c-0.149,0.15-0.244,0.357-0.247,0.583L9.743,5.732V2.357h3.592c0.202,0,0.385,0.081,0.519,0.214
	c0.131,0.132,0.214,0.316,0.214,0.519V6.721z M12.89,14.577c0.002,0.004,0.009,0.008,0.013,0.012
	c0.16,0.182,0.325,0.363,0.484,0.541l0,0c0.305,0.335,0.601,0.664,0.863,0.966c0.262-0.302,0.557-0.631,0.862-0.966
	c0.737-0.814,1.518-1.68,2.052-2.438c0.21-0.299,0.371-0.629,0.482-0.974c0.109-0.343,0.165-0.707,0.165-1.074
	c0-0.983-0.397-1.875-1.044-2.52c-0.643-0.642-1.534-1.043-2.518-1.043h-0.001c-0.982,0-1.872,0.401-2.517,1.043
	c-0.646,0.645-1.043,1.536-1.043,2.52c0,0.369,0.055,0.729,0.163,1.068c0.11,0.345,0.272,0.675,0.484,0.979v0.002
	C11.751,13.278,12.314,13.931,12.89,14.577 M12.679,14.885H1.099c-0.304,0-0.577-0.122-0.776-0.32C0.124,14.367,0,14.093,0,13.789
	V3.09c0-0.302,0.122-0.575,0.32-0.774l0.002-0.002V2.313c0.2-0.197,0.473-0.321,0.776-0.321h3.773h4.689h3.773
	c0.304,0,0.576,0.125,0.776,0.321c0.199,0.2,0.321,0.475,0.321,0.777v3.631c1.013,0.046,1.926,0.475,2.595,1.146
	c0.71,0.708,1.15,1.691,1.15,2.777c0,0.405-0.062,0.805-0.184,1.186c-0.118,0.382-0.299,0.742-0.531,1.075
	c-0.544,0.768-1.334,1.643-2.079,2.469c-0.349,0.387-0.688,0.762-0.994,1.119c-0.064,0.078-0.182,0.086-0.259,0.021
	c-0.007-0.007-0.015-0.016-0.021-0.023c-0.308-0.357-0.646-0.732-0.994-1.119l0,0l0,0C12.972,15.214,12.824,15.05,12.679,14.885
	 M9.378,2.357H5.053v6.01l1.217-1.392c-0.103-0.141-0.164-0.313-0.164-0.5c0-0.232,0.095-0.443,0.247-0.595
	c0.153-0.153,0.361-0.247,0.595-0.247c0.233,0,0.443,0.094,0.595,0.247c0.078,0.076,0.14,0.17,0.182,0.271l1.652-0.344V2.357z
	 M5.053,8.922v5.598h4.325V6.181L7.79,6.513C7.778,6.73,7.687,6.926,7.543,7.07C7.392,7.222,7.182,7.317,6.949,7.317
	c-0.147,0-0.282-0.038-0.406-0.104L5.053,8.922z M14.25,8.824c-0.502,0-0.958,0.203-1.286,0.533
	c-0.329,0.328-0.533,0.783-0.533,1.287c0,0.503,0.204,0.956,0.533,1.285h0.001c0.327,0.33,0.783,0.531,1.285,0.531
	c0.503,0,0.958-0.201,1.286-0.531c0.33-0.329,0.533-0.782,0.533-1.287c0-0.502-0.203-0.957-0.531-1.285h-0.002
	C15.208,9.028,14.753,8.823,14.25,8.824L14.25,8.824z M12.706,9.097l-0.001,0.002c-0.395,0.396-0.64,0.943-0.64,1.545
	c0,0.601,0.245,1.148,0.64,1.543l0,0h0.001c0.396,0.396,0.942,0.642,1.544,0.642c0.603,0,1.15-0.245,1.546-0.642
	c0.395-0.393,0.64-0.94,0.64-1.545c0-0.601-0.245-1.148-0.64-1.543V9.098l-0.001-0.001l0,0c-0.396-0.395-0.944-0.639-1.545-0.639
	V8.457C13.647,8.457,13.103,8.702,12.706,9.097 M6.949,6.95c0.131,0,0.251-0.053,0.337-0.139c0.085-0.085,0.138-0.204,0.138-0.336
	c0-0.132-0.053-0.251-0.138-0.336C7.2,6.053,7.08,6,6.949,6s-0.25,0.053-0.336,0.139C6.528,6.224,6.474,6.343,6.474,6.475
	c0,0.132,0.054,0.251,0.139,0.336C6.699,6.898,6.817,6.95,6.949,6.95"/>
</svg>
