<svg xmlns="http://www.w3.org/2000/svg" viewBox="0 0 19.18949 20.53515"><title>palm-trees-sun-icon-uc-santa-barbara</title><g id="ICONS"><path d="M2.57531,19.01952a.21938.21938,0,1,1,0-.43875H18.28523a.21938.21938,0,1,1,0,.43875Z" style="fill:#a1afba"/><path d="M2.57531,20.53515a.21938.21938,0,1,1,0-.43875H18.28523a.21938.21938,0,1,1,0,.43875Z" style="fill:#a1afba"/><path d="M7.60522,19.01364a.21975.21975,0,0,1-.19188-.24378A34.83309,34.83309,0,0,0,7.00473,8.361a.21922.21922,0,0,1,.1413-.24555l.07425-.01294a.21884.21884,0,0,1,.07779.01412.21733.21733,0,0,1,.10983.09086,2.36672,2.36672,0,0,1,.18953.37671,26.13675,26.13675,0,0,1,2.348,10.183.22.22,0,0,1-.2057.2329H9.73913a.22287.22287,0,0,1-.23187-.20555,28.07133,28.07133,0,0,0-1.64591-8.50507L7.689,9.84309l.0622.47433a34.00121,34.00121,0,0,1,.09822,8.5039.21933.21933,0,0,1-.21762.1935Z" style="fill:#a1afba"/><path d="M10.91541,18.94659a.21911.21911,0,0,1-.21026-.22643,15.68226,15.68226,0,0,1,1.22377-6.29426l.11939-.27349-.21217.21a9.77068,9.77068,0,0,0-2.07,3.85819,2.09885,2.09885,0,0,1-.13277.33494.11956.11956,0,0,0-.00868-.0247c-.02676-.06234-.06014-.14-.13277-.16174a.22014.22014,0,0,1-.14659-.27377c1.21553-4.01846,3.08905-4.7254,3.16815-4.75363a.2196.2196,0,0,1,.26893.30583,14.89918,14.89918,0,0,0-1.63856,7.08707.21834.21834,0,0,1-.21923.212Z" style="fill:#a1afba"/><path d="M.177,8.41391A3.68087,3.68087,0,0,1,3.67057,6.376,3.93206,3.93206,0,0,1,6.77962,7.75549l.13645.17379-1.17069.90427L4.8642,8.15307,3.983,8.83355,3.1017,8.15307l-.88089.68048-.63747-.492L0,8.8509Zm5.56835-.135.54564-.4214-.04469-.04617a3.5852,3.5852,0,0,0-2.57576-.9966A3.51435,3.51435,0,0,0,.946,7.974l-.12292.15.8348-.26825.56291.42322.88089-.68047.88132.68047.88118-.68047Z" style="fill:#a1afba"/><path d="M2.5984,13.31046a3.09171,3.09171,0,0,1,1.21715-3.173,3.47568,3.47568,0,0,1,2.14979-.79663,2.69775,2.69775,0,0,1,.61152.06881l.21526.05058L6.4879,10.71794l-.924.01677-.21761.89808-.92382.01677-.21747.89779-.65768.01206-.81222,1.208ZM5.96534,9.77957a3.03917,3.03917,0,0,0-1.87528.70018,2.942,2.942,0,0,0-1.13863,1.94674l-.02353.23466.34343-.52935.5426-.01614.04426-.00089.21732-.89808.924-.01647.21747-.89838.92411-.01647.11777-.48786-.06528-.00677C6.1187,9.78339,6.04239,9.77957,5.96534,9.77957Z" style="fill:#a1afba"/><path d="M6.46041,6.98767l.09469-1.163L5.45381,5.43911,5.5485,4.27606,4.44721,3.89054l.072-.88622L3.15639,1.96615l.48286-.09352a2.78584,2.78584,0,0,1,.53051-.05A4.03123,4.03123,0,0,1,7.415,3.7735a4.11044,4.11044,0,0,1,.56285,3.51089l-.07146.20938Zm.46522-.3023.70062.245.01441-.062a3.75782,3.75782,0,0,0-.59388-2.85541,3.70093,3.70093,0,0,0-2.579-1.73442l-.206-.02353.7131.54405-.06262.78926,1.10129.38553-.09469,1.163,1.10158.38553Z" style="fill:#a1afba"/><path d="M8.5136,7.7502l.01029-.22056a4.10912,4.10912,0,0,1,1.81323-3.05832,4.4123,4.4123,0,0,1,2.5215-.844,3.12795,3.12795,0,0,1,1.68855.46287l.44242.28231L13.342,4.74889l-.28639.92135-1.16716-.04616L11.54913,6.741l-1.166-.04617-.33936,1.11629Zm4.345-3.6841a3.97171,3.97171,0,0,0-2.267.76252,3.75943,3.75943,0,0,0-1.6015,2.43783l-.00941.06323.74179.02911.33906-1.11629,1.16613.04617.33936-1.11687,1.16584.04617.25722-.84568.71121-.17445s.00645-.01055-.16151-.05617A2.96082,2.96082,0,0,0,12.85862,4.0661Z" style="fill:#a1afba"/><path d="M15.47389,15.94555l-.72734-.25313.09351-1.01424-.95661-.34612L13.977,13.319l-.95632-.34612.12719-1.37919.22.02176a3.61079,3.61079,0,0,1,2.60046,1.7309,3.38065,3.38065,0,0,1,.1385,3.7135l-.28245.39553Zm-.25889-.55161.63953.23168.15946.64466a1.065,1.065,0,0,0,.0594-.15969,3.4771,3.4771,0,0,0-2.46666-4.01317l-.06337-.01382-.0544.592.95631.34612-.09336,1.01307.95646.34612Z" style="fill:#a1afba"/><path d="M12.78246,10.68854a2.92043,2.92043,0,0,1,.59372-2.47136,3.18378,3.18378,0,0,1,2.42975-1.341,2.07269,2.07269,0,0,1,.4067.03911l.53271.10646L15.591,7.76268l.00449.65682-.80457.25819.00618.80134-.80311.2576.00647.80105-1.15731.3717ZM15.07105,7.4523A3.03605,3.03605,0,0,0,13.727,8.481a2.65806,2.65806,0,0,0-.57491,1.795l.00662.07087.40008-.12822-.00647-.801L14.35558,9.16l-.00632-.80133.8031-.2579-.005-.67636Z" style="fill:#a1afba"/><path d="M13.80964,11.31314l.10263-.20467A3.03773,3.03773,0,0,1,16.09221,9.614a3.82669,3.82669,0,0,1,.73032-.07058,2.91682,2.91682,0,0,1,2.367,1.04012l-1.07433.2057-.44968.511-.80369-.3617-.55462.62489-.80251-.36141-.55447.6249ZM16.81429,9.984a3.35152,3.35152,0,0,0-.63827.06116,2.77219,2.77219,0,0,0-1.71443,1.00454l-.04175.05705.41625.18733.55447-.6249.80251.36141.55462-.6249.80251.36112.42038-.47345.05784-.06764-.04211-.017A3.03989,3.03989,0,0,0,16.81429,9.984Z" style="fill:#a1afba"/><path d="M10.58444,10.16186l-.86119.03882-.255-.8234-.861.03853L8.24262,8.23776l.21158-.0641A2.56547,2.56547,0,0,1,9.196,8.06779a3.32311,3.32311,0,0,1,1.8841.62372,3.21078,3.21078,0,0,1,1.33125,1.945l.04661.2329-.59269.07-1.02587.04587Zm.574.36964.766-.035-.02514-.07234A2.99609,2.99609,0,0,0,9.196,8.50654a2.22122,2.22122,0,0,0-.33406.0247L8.7962,8.541l.13013.42111.861-.03882.255.82339.86118-.03852Z" style="fill:#a1afba"/><path d="M16.97927,3.57618A1.78809,1.78809,0,1,1,18.7675,1.78824,1.78991,1.78991,0,0,1,16.97927,3.57618Zm0-3.13743a1.34934,1.34934,0,1,0,1.34919,1.34949A1.35088,1.35088,0,0,0,16.97927.43875Z" style="fill:#a1afba"/></g></svg>