<svg xmlns="http://www.w3.org/2000/svg" viewBox="0 0 14.32027 18.70977"><title>passport-icon-uc-santa-barbara</title><g id="ICONS"><path d="M6.11928,3.20422a3.48069,3.48069,0,0,0-1.42416.86291,3.44514,3.44514,0,0,0-.4016.48021c.32908-.06216.677-.11488,1.04147-.15449a3.97974,3.97974,0,0,1,.177-.37508,3.26868,3.26868,0,0,1,.60726-.81355Zm5.5495,9.84911a.21982.21982,0,1,1,0,.43964H10.3281v.77642h1.34068a.22054.22054,0,0,1,.22.22029v1.21606a.22055.22055,0,0,1-.22.2203H10.10871a.2203.2203,0,0,1,0-.4406h1.34068v-.77637H10.10871a.22.22,0,0,1-.22029-.21939V13.27359a.22018.22018,0,0,1,.22029-.22026Zm-2.46777,0a.21982.21982,0,0,1,0,.43964H7.85973v.77642H9.201a.22042.22042,0,0,1,.21939.22029v1.21606a.22042.22042,0,0,1-.21939.2203H7.64034a.2203.2203,0,0,1,0-.4406H8.98072v-.77637H7.64034a.21964.21964,0,0,1-.21938-.21939V13.27359a.2198.2198,0,0,1,.21938-.22026Zm-2.6975,1.65574H5.38343v.99667a.21984.21984,0,1,1-.43968,0V13.27359a.2198.2198,0,0,1,.21938-.22026H6.72381a.2198.2198,0,0,1,.21938.22026v2.43215a.21984.21984,0,1,1-.43968,0v-.99667Zm-1.12008-.43968H6.50351V13.493H5.38343v.77642ZM2.87088,15.70574a.21984.21984,0,1,1-.43968,0V13.27359a.22058.22058,0,0,1,.2203-.22026H4.21125a.22.22,0,0,1,.2203.22026v1.21609a.21984.21984,0,0,1-.2203.21939H2.87088v.99667Zm0-2.21277v.77642h1.121V13.493ZM1.42081,0H12.89854a1.41438,1.41438,0,0,1,1.00368.41713h.00092a1.41439,1.41439,0,0,1,.41713,1.00364V17.288a1.42313,1.42313,0,0,1-1.42173,1.42173H1.42081a1.41822,1.41822,0,0,1-1.00368-.41652l-.01218-.01371A1.41933,1.41933,0,0,1,0,17.288V1.42077A1.41436,1.41436,0,0,1,.41713.41805L.41774.41713A1.41566,1.41566,0,0,1,1.42081,0ZM12.89854.43877A.98.98,0,0,1,13.593.727V.72793a.97808.97808,0,0,1,.28764.69284V17.288a.98362.98362,0,0,1-.982.983H1.42081a.97889.97889,0,0,1-.69288-.28855l-.01128-.01041a.98048.98048,0,0,1-.27727-.684V1.42077a.98307.98307,0,0,1,.98143-.982ZM8.2016,3.20422a3.26617,3.26617,0,0,1,.60635.81355,3.6973,3.6973,0,0,1,.177.37508c.36473.03961.71269.09233,1.04177.15449a3.44577,3.44577,0,0,0-.40159-.48021A3.48664,3.48664,0,0,0,8.2016,3.20422Zm.94487,1.64812a5.82962,5.82962,0,0,1,.22121,1.46043h1.27243a3.48669,3.48669,0,0,0-.32054-1.25659c-.36534-.08226-.75932-.15113-1.1731-.20384Zm.22121,1.89919a5.8181,5.8181,0,0,1-.22121,1.45982c.4147-.0518.80776-.121,1.1731-.20384a3.48349,3.48349,0,0,0,.32054-1.256ZM8.985,8.67175a3.8245,3.8245,0,0,1-.177.37478,3.27742,3.27742,0,0,1-.60635.81355A3.5029,3.5029,0,0,0,10.02675,8.517c-.32908.06216-.677.11487-1.04177.15479ZM7.37952,9.91523A2.4758,2.4758,0,0,0,8.4219,8.839c.02072-.0387.04144-.07922.06124-.11914-.35833.02773-.727.0451-1.10362.05024v1.1451Zm1.2904-1.65117A5.26521,5.26521,0,0,0,8.928,6.75153H7.37952v1.579c.44638-.00522.87906-.02865,1.2904-.06643ZM8.928,6.31277a5.26122,5.26122,0,0,0-.25808-1.51223c-.41134-.03809-.844-.06159-1.2904-.06673v1.579ZM8.48314,4.34441c-.0198-.04053-.04052-.08044-.06124-.11914a2.47575,2.47575,0,0,0-1.04238-1.0762V4.29444c.37661.00518.74529.02224,1.10362.05Zm-2.64631,0c.0198-.04053.04052-.08044.06124-.11914a2.47959,2.47959,0,0,1,1.04268-1.0762V4.29444c-.37661.00518-.7456.02224-1.10392.05Zm-.18648.45613A5.23015,5.23015,0,0,0,5.392,6.31277H6.94075v-1.579c-.4476.00514-.87936.02864-1.2904.06673ZM5.392,6.75153a5.2341,5.2341,0,0,0,.25839,1.51253c.411.03778.8428.06121,1.2904.06643v-1.579Zm.44487,1.96836c.0198.03992.04052.08044.06124.11914a2.47964,2.47964,0,0,0,1.04268,1.0762V8.77013c-.37661-.00514-.7456-.02251-1.10392-.05024Zm.28245,1.14019A3.28,3.28,0,0,1,5.512,9.04653a4.12794,4.12794,0,0,1-.177-.37478c-.36443-.03992-.71331-.09263-1.04147-.15479A3.50187,3.50187,0,0,0,6.11928,9.86008ZM5.17349,8.21135a5.86077,5.86077,0,0,1-.22121-1.45982H3.68108a3.45161,3.45161,0,0,0,.31963,1.256c.36533.08287.759.152,1.17278.20384ZM4.95228,6.31277a5.87243,5.87243,0,0,1,.22121-1.46043c-.41378.05271-.80745.12158-1.17278.20384a3.45479,3.45479,0,0,0-.31963,1.25659Zm-1.71789.21938h0v-.007a3.92446,3.92446,0,1,1,0,.014v-.007Z" style="fill:#a1afba;fill-rule:evenodd"/></g></svg>