<svg xmlns="http://www.w3.org/2000/svg" viewBox="0 0 16.53117 17.13399"><title>sail-boat-icon-uc-santa-barbara</title><g id="ICONS"><path d="M5.73048.87034V2.80518H7.19974L5.73048.87034ZM5.29872.16309A.21962.21962,0,0,1,5.696.10158l2.1073,2.77429a.21941.21941,0,0,1,.02438.03291l1.71942,2.263a.17764.17764,0,0,1,.02437.0326l1.71881,2.263a.22171.22171,0,0,1,.025.032l1.71881,2.263a.27909.27909,0,0,1,.0259.03352l1.66945,2.1984a.21926.21926,0,0,1-.16149.36869H5.72957l.00091,1.32849H16.31087a.21983.21983,0,0,1,.2203.21938.21739.21739,0,0,1-.09507.18039l-3.36571,2.745a1.28677,1.28677,0,0,1-.83274.29773H1.83612a1.30943,1.30943,0,0,1-1.27761-.99393L.0067,13.96511a.22.22,0,0,1,.15875-.26692.23732.23732,0,0,1,.05362-.0067H1.67462L5.29872.16309ZM5.2908,1.88769,2.128,13.69149H5.29263l-.00092-1.52807-.00091-.0198V1.88769Zm.43968,7.8037H12.432l-1.41045-1.856H5.73048v1.856Zm7.03491.43969H5.73048v1.79224h8.3963l-1.36139-1.79224ZM5.73048,7.39579h4.95777L9.27779,5.53956H5.73048V7.39579Zm0-2.295H8.94354L7.534,3.24487H5.73048V5.10079Zm9.96459,9.03008H.50245l.48294,1.901a.86752.86752,0,0,0,.30988.47964.87625.87625,0,0,0,.54085.18221H12.23765a.86217.86217,0,0,0,.29647-.04845.87316.87316,0,0,0,.25991-.14839Z" style="fill:#a1afba;fill-rule:evenodd"/></g></svg>