<svg xmlns="http://www.w3.org/2000/svg" viewBox="0 0 15.92787 17.14118"><title>ship-icon-uc-santa-barbara</title><g id="ICONS"><path d="M7.00565,3.24566H8.92739V.43938H7.00565V3.24566Zm6.47792,13.45675a.21939.21939,0,0,1,0,.43877H2.4443a.21939.21939,0,1,1,0-.43877Zm-5.51994-.90953H.21877a.21984.21984,0,0,1,0-.43968H3.14663l-1.844-7.42a.21776.21776,0,0,1,.15448-.28063V6.63331a.21924.21924,0,0,1,.21939-.21938H3.60429V5.62079h-.411a.22.22,0,0,1-.2203-.22V3.466a.22.22,0,0,1,.2203-.2203H6.566V.22A.22114.22114,0,0,1,6.78627,0H9.14678a.22113.22113,0,0,1,.22029.22V3.24566h3.37272a.21926.21926,0,0,1,.21939.2203V5.4008a.21918.21918,0,0,1-.21939.22h-.41195v.79314h1.92875a.22042.22042,0,0,1,.2203.21938V7.65253a.22112.22112,0,0,1,.16484.21329.21487.21487,0,0,1-.01127.06821L12.82115,15.3532h2.88733a.21984.21984,0,0,1,0,.43968Zm-4.366-.43968H7.74516l.00244-7.268H1.79224l1.80535,7.268Zm4.58542,0h4.18627l1.77335-7.268H8.18545L8.183,15.3532ZM3.41264,5.18142h9.10777v-1.497H3.41264v1.497Zm6.49071,5.53974a1.51209,1.51209,0,0,0,1.50552,1.5107h.01127a1.51,1.51,0,0,0,1.50552-1.5107.21939.21939,0,0,0-.43877,0,1.07474,1.07474,0,0,1-.85255,1.04938V9.258a.21938.21938,0,0,0-.43876,0v2.51255a1.07293,1.07293,0,0,1-.85164-1.04938.2203.2203,0,0,0-.44059,0ZM12.32784,6.8533v.79314h1.70845V6.8533Zm-8.72355.79314V6.8533H1.89584v.79314Zm8.28478-2.02565H4.044v.79314h7.8451V5.62079ZM4.044,6.8533v.79314H7.74668V6.8533Zm7.8451.79314V6.8533H8.18636v.79314Z" style="fill:#a1afba;fill-rule:evenodd"/></g></svg>