<svg xmlns="http://www.w3.org/2000/svg" viewBox="0 0 18.21336 17.40556"><title>star-with-dots-icon-uc-santa-barbara</title><g id="ICONS"><path d="M.74154,6.02543A.81348.81348,0,0,0,.26316,7.43589l.01372.0128L4.2136,10.91921h.00091a.3813.3813,0,0,1,.10786.15723l.00275.00853a.377.377,0,0,1,.00761.19958L3.18341,16.40472h0v.00091a.80113.80113,0,0,0,.29952.82483l.01645.01279a.80463.80463,0,0,0,.8949.04236l4.51717-2.6713a.38176.38176,0,0,1,.19166-.05546v.00183a.37237.37237,0,0,1,.19257.05424l4.51382,2.675a.81294.81294,0,0,0,1.21179-.87906l-1.14445-5.122a.3799.3799,0,0,1,.007-.19957.38514.38514,0,0,1,.113-.16576l3.93855-3.46687a.81333.81333,0,0,0,.24985-.39642.824.824,0,0,0-.01219-.46741.80475.80475,0,0,0-.69959-.55973l-5.22377-.49392a.36779.36779,0,0,1-.305-.21237l-.00518-.014L9.85907.49331A.81045.81045,0,0,0,9.11012,0V.00091a.80775.80775,0,0,0-.74987.4924h.00183L6.277,5.31026a.387.387,0,0,1-.1234.15727.39306.39306,0,0,1-.18831.06917h0L.74154,6.02543ZM9.85389,9.67356a.61084.61084,0,0,0-.43024.17738l-.00274.0024h0l-.00061.001a.61057.61057,0,0,0,0,.86535h.00061a.61168.61168,0,0,0,.86809-.862l-.00244-.00335v-.001h-.00091a.61339.61339,0,0,0-.43176-.17978Zm.12157.49.00183.00091a.17311.17311,0,0,1,.04906.12249.16879.16879,0,0,1-.05089.12188.17233.17233,0,0,1-.12157.05085.17448.17448,0,0,1-.12371-.04993h0v-.00092a.17437.17437,0,0,1,0-.24437v-.00091a.17476.17476,0,0,1,.12371-.05028.16865.16865,0,0,1,.12157.05028Zm.55029-4.35507a.128.128,0,0,1,.08044.02864l.00579.007a.12437.12437,0,0,1,.00092.17337l-.00092.00092a.121.121,0,0,1-.08623.0353.11973.11973,0,0,1-.08653-.03622.12133.12133,0,0,1-.03626-.08623.1278.1278,0,0,1,.03473-.08714l.00153-.00092a.12628.12628,0,0,1,.08653-.03473ZM10.12934,5.533a.5607.5607,0,0,1,.77911-.0128l.01463.0128a.56019.56019,0,0,1,.00335.79039l-.00335.00427h-.00091a.56094.56094,0,1,1-.79375-.79283l.00092-.00183Zm.40586,2.33975a.47176.47176,0,0,1,.33242.13837v0a.46526.46526,0,0,1,.13834.33243.47225.47225,0,0,1-.47076.47072.471.471,0,0,1-.34279-.7937l.01036-.00945a.47069.47069,0,0,1,.33243-.13837ZM9.89167,7.701a.908.908,0,0,1,1.28614,0h0a.91.91,0,1,1-1.29894.0131l.0128-.0131Zm2.41322,2.09359a.29388.29388,0,0,1,.29373.29464.29373.29373,0,0,1-.58746,0,.29546.29546,0,0,1,.29373-.29464Zm-.51829-.22365a.73268.73268,0,1,1-.21481.51829.73178.73178,0,0,1,.21481-.51829ZM11.56478,12.879a.21079.21079,0,0,1,.13985.0518l.00793.00857a.20783.20783,0,0,1,0,.29465h.00091a.20875.20875,0,0,1-.30318-.28673l.00762-.00792a.20835.20835,0,0,1,.14687-.06037Zm-.45766-.25042a.6467.6467,0,0,1,.90069-.0131l.01554.0131a.64917.64917,0,0,1,0,.91623l-.00091-.00061-.00092.00061a.6465.6465,0,0,1-.9275-.90069l.0131-.01554Zm2.79135-5.1997a.34473.34473,0,0,1,.24376.58838h.00061a.34817.34817,0,0,1-.47929.00853L13.655,8.01726a.34432.34432,0,0,1,.24345-.58838Zm-.55272-.209A.78328.78328,0,0,1,14.453,8.32805l-.00091-.00092v.00092a.7823.7823,0,0,1-1.09326.01219l-.01493-.01219a.783.783,0,0,1,0-1.10819ZM8.70152,11.55147a.23671.23671,0,0,1,.1755.39458l-.00883.00792a.23429.23429,0,0,1-.33243,0l-.00092.00092V11.954a.23272.23272,0,0,1-.06825-.16667.23743.23743,0,0,1,.06917-.16671h0a.23305.23305,0,0,1,.16576-.06912Zm-.476-.241a.67408.67408,0,0,1,.96743.93878l-.01372.01554a.67419.67419,0,0,1-.95462,0l.00091-.00061a.67492.67492,0,0,1-.00091-.95371Zm.56157-7.5142a.71539.71539,0,0,1,.5061.209l.00092.00087V4.00528a.71613.71613,0,0,1,0,1.01312h0v.00092a.717.717,0,0,1-1.014-1.014l.01462-.01311a.71363.71363,0,0,1,.4924-.19592Zm.19683.51891v.00091a.278.278,0,0,1,0,.39306V4.70822a.27761.27761,0,0,1-.39306-.39215l.00792-.00853a.28128.28128,0,0,1,.38514.00762ZM7.7801,6.49193a.91048.91048,0,0,1,.64414,1.55454h0A.9105.9105,0,1,1,7.13658,6.75885l.01462-.014a.90354.90354,0,0,1,.6289-.2529Zm.33426.5768a.47543.47543,0,0,1,.138.33334.46841.46841,0,0,1-.138.33425h0a.47217.47217,0,0,1-.6679-.66759l.00883-.00949a.47419.47419,0,0,1,.65907.00949ZM6.40073,9.10534a.73073.73073,0,0,0-.5183.21512h.00092a.73012.73012,0,0,0-.01493,1.02165l.014.01493a.73267.73267,0,0,0,1.03385.00153l.00183-.00153h0l.00061-.00095a.72973.72973,0,0,0,.00183-1.03293l-.00183-.00179-.00061-.00091h0a.72966.72966,0,0,0-.51738-.21512Zm.20719.5253.00183.00091a.29311.29311,0,0,1,.0844.2072.29748.29748,0,0,1-.0844.20811H6.60792a.29244.29244,0,0,1-.20719.08562.29644.29644,0,0,1-.20842-.08562l-.00853-.00853A.29744.29744,0,0,1,6.107,9.83875a.29134.29134,0,0,1,.08531-.2072v0a.29388.29388,0,0,1,.41561-.00091Zm-.45857,2.95985a.64623.64623,0,0,1,.45675.18922l.00091.00179a.64517.64517,0,0,1,0,.91292l-.00091.00152a.6466.6466,0,0,1-.91471-.00061l-.01371-.015a.64478.64478,0,0,1,.01371-.89974v-.00091a.648.648,0,0,1,.458-.18922Zm.14748.5a.20931.20931,0,0,1,0,.29465l-.00061.00091a.20592.20592,0,0,1-.14687.05942.20828.20828,0,0,1-.14686-.06033L5.993,13.37662a.2121.2121,0,0,1,.00762-.28612h.00183a.21006.21006,0,0,1,.29373-.00091l.00061.00091ZM4.80532,7.48434a.574.574,0,0,1,.4086.17v.00091l.00092-.00091a.57563.57563,0,0,1-.00092.81781l.00092.00088a.579.579,0,1,1-.40952-.98871Zm.09933.4802h0a.14591.14591,0,0,1,.04053.09933.13581.13581,0,0,1-.04053.09838H4.90374a.13867.13867,0,0,1-.09842.04148A.14247.14247,0,0,1,4.706,8.16225a.13762.13762,0,0,1-.03961-.09838.14024.14024,0,0,1,.23827-.09933ZM6.00584,5.97089l-5.22469.49a.38248.38248,0,0,0-.202.07922.38187.38187,0,0,0-.121.18069A.36543.36543,0,0,0,.55659,7.111l.01036.00857,3.937,3.47053H4.50306L4.504,10.591a.81828.81828,0,0,1,.234.347l.00427.01131a.81813.81813,0,0,1,.01737.43115L3.6109,16.5007h0a.37426.37426,0,0,0,.0128.21664.382.382,0,0,0,.12188.16332l.01127.00762a.38005.38005,0,0,0,.20476.07435.37577.37577,0,0,0,.20963-.05455l4.51656-2.6713a.81389.81389,0,0,1,.41531-.11487v-.00183a.81874.81874,0,0,1,.41561.1167l4.51382,2.67588a.38855.38855,0,0,0,.21055.05515.39279.39279,0,0,0,.337-.24529.36687.36687,0,0,0,.01372-.21664l-1.14446-5.122a.801.801,0,0,1,.25748-.78948l3.93946-3.46687a.36693.36693,0,0,0,.10969-.39915.3849.3849,0,0,0-.12188-.18039.37451.37451,0,0,0-.202-.07952l-5.22377-.494a.80089.80089,0,0,1-.66241-.46924l-.00975-.01976L9.45565.667A.36384.36384,0,0,0,9.11012.43968V.43877a.38433.38433,0,0,0-.209.05972A.377.377,0,0,0,8.76367.667L8.76276.66607V.667L6.67861,5.48394a.79619.79619,0,0,1-.67277.487Z" style="fill:#a1afba;fill-rule:evenodd"/></g></svg>