<svg xmlns="http://www.w3.org/2000/svg" viewBox="0 0 19.30211 19.3015"><title>sun-icon-uc-santa-barbara</title><g id="ICONS"><path d="M9.65105,3.68443a5.96617,5.96617,0,1,0,4.21918,1.74745A5.94526,5.94526,0,0,0,9.65105,3.68443Zm-3.83068,12.163a.21934.21934,0,0,1,.37935.22029L5.12413,17.92883a.21938.21938,0,1,1-.38-.21939l1.0762-1.862Zm-2.586-2.74565a.21937.21937,0,1,1,.21938.38L1.59175,14.557a.21939.21939,0,0,1-.21938-.38l1.862-1.07525Zm-.86444-3.671a.21984.21984,0,0,1,0,.43968H.22a.21984.21984,0,1,1,0-.43968Zm1.08291-3.611a.21892.21892,0,1,1-.21756.38l-1.862-1.07531a.21864.21864,0,0,1,.21756-.37932l1.862,1.07467ZM6.19972,3.23469a.21911.21911,0,0,1-.37935.21938L4.74417,1.59175a.21937.21937,0,0,1,.38-.21938L6.19972,3.23469Zm3.232,13.69747a.21939.21939,0,1,1,.43877,0v2.15a.21939.21939,0,0,1-.43877,0v-2.15Zm3.67072-.86444a.2196.2196,0,0,1,.38-.22029l1.07467,1.862a.21911.21911,0,1,1-.37935.21939l-1.07528-1.86111Zm2.745-2.586a.21953.21953,0,0,1,.22-.38L17.92974,14.177a.21939.21939,0,1,1-.21938.38l-1.86293-1.07528Zm1.08473-3.6113a.21984.21984,0,0,1,0-.43968h2.15057a.21984.21984,0,0,1,0,.43968Zm-.86474-3.67072a.21938.21938,0,0,1-.21939-.38l1.86233-1.07528a.21936.21936,0,1,1,.21938.37993L16.06742,6.19972ZM13.48235,3.45407a.21937.21937,0,0,1-.38-.21938l1.07528-1.86232a.21911.21911,0,1,1,.37935.21938L13.48235,3.45407ZM9.87044,2.36992a.21939.21939,0,0,1-.43877,0V.21938a.21939.21939,0,0,1,.43877,0V2.36992ZM5.1217,5.12109a6.40641,6.40641,0,1,1-1.876,4.53A6.38442,6.38442,0,0,1,5.1217,5.12109Z" style="fill:#a1afba;fill-rule:evenodd"/></g></svg>