<svg xmlns="http://www.w3.org/2000/svg" viewBox="0 0 25.0911 10.32139"><title>sunglasses-icon-uc-santa-barbara</title><g id="ICONS"><path d="M22.44021,1.83185H20.62115l-.91958,1.02867h1.81875l.91989-1.02867Zm-4.08541,0H20.034l-.91989,1.02867h-1.6792l.91989-1.02867ZM17.04215,3.29929l-1.408,1.57377.773.77211.00792.00853a.31891.31891,0,0,0,.0975.064.32769.32769,0,0,0,.12706.02315h4.92151V3.47022l-.18586.20811a.21869.21869,0,1,1-.32573-.2919l.07709-.08714H19.30759L17.72346,5.07172a.21922.21922,0,0,1-.32633-.29281l1.32392-1.47962ZM15.331,4.55587a.286.286,0,0,1-.01889-.0387.32381.32381,0,0,1-.02346-.12706V3.29929h1.167L15.331,4.55587Zm1.51679-1.69535.92081-1.02867h-2.15a.32791.32791,0,0,0-.2331.09564h-.00091l.00091.001a.32614.32614,0,0,0-.09689.23249v.69959Zm3.62166,1.19534a.21826.21826,0,1,1,.32542.29094l-.63377.70938a.21849.21849,0,0,1-.32573-.29129l.63408-.709Zm1.63746-1.19534.91044-1.01739a.32859.32859,0,0,1,.13712.07587l.00792.00944a.3234.3234,0,0,1,.09659.23249v.69959ZM5.26612,1.83185,4.34623,2.86052h1.6792l.91989-1.02867ZM3.95317,3.29929l-.42383.47411V5.74084h4.9212a.30686.30686,0,0,0,.2334-.09567l1.02074-1.022a.3205.3205,0,0,0,.07343-.106.32381.32381,0,0,0,.02347-.12706V3.29929H8.62513l-.57527.64444a.219.219,0,1,1-.32633-.29221l.31414-.35223H6.21892L4.63479,5.07172a.21934.21934,0,0,1-.32664-.29281L5.63237,3.29929Zm-.86352.96559L1.89249,5.60373c.00853.01127.01645.02163.0259.032l.00853.00858a.33123.33123,0,0,0,.2334.09658h.92933v-1.476Zm-1.25932.75139v-1.717H3.08965v.30927L1.83033,5.01627ZM3.75908,2.86052H1.83033V2.16093a.32715.32715,0,0,1,.33-.32908H4.67958l-.9205,1.02867ZM7.53156,1.83185h1.82L8.43073,2.86052H6.61168l.91988-1.02867Zm-.468,2.58081a.21869.21869,0,1,1,.32572.2919l-.72122.80654a.219.219,0,0,1-.32664-.2919l.72214-.80654Zm2.706-2.3925-.75139.84036h.78339V2.16093a.3233.3233,0,0,0-.032-.14077Zm12.231,1.27913V5.74084h.92933a.331.331,0,0,0,.2334-.09567l-.00091-.00091a.32535.32535,0,0,0,.09659-.2331V3.29929Zm-.2142,2.88124H16.63964a.765.765,0,0,1-.29373-.0579.75738.75738,0,0,1-.23583-.15448l-.01371-.0131-1.022-1.02074V4.93248a.76517.76517,0,0,1-.16758-.24772.77408.77408,0,0,1-.05759-.29465V2.16093a.77078.77078,0,0,1,.22517-.54328l.00092.00091a.7667.7667,0,0,1,.54328-.22639h7.31126a.767.767,0,0,1,.52957.21234l.01371.01314a.763.763,0,0,1,.22639.54328V5.41116a.76339.76339,0,0,1-.22639.54389h-.00061a.765.765,0,0,1-.54267.22548Zm.2142,1.39247v2.5281a.21969.21969,0,1,1-.43938,0V7.573H16.29076a1.30969,1.30969,0,0,1-.50641-.09841,1.328,1.328,0,0,1-.42566-.28764l-1.515-1.515a1.34079,1.34079,0,0,1-.28855-.42688,1.29868,1.29868,0,0,1-.09659-.50523V3.29929H11.63252V4.73987a1.284,1.284,0,0,1-.38606.93211L9.7315,7.187a1.31873,1.31873,0,0,1-.42658.28764,1.29814,1.29814,0,0,1-.5052.09841H3.52934v2.5281a.21985.21985,0,1,1-.43969,0V7.573H1.31722A1.31963,1.31963,0,0,1,0,6.25487v-4.937A1.31552,1.31552,0,0,1,.38605.38758h0L.387.38666.38971.38514A1.3108,1.3108,0,0,1,1.31722,0H23.773A1.31912,1.31912,0,0,1,25.0911,1.31783v4.937a1.31393,1.31393,0,0,1-.38606.93025l-.00183.00091a1.31321,1.31321,0,0,1-.93024.387Zm-10.368-4.71248h1.82606V2.7103a.88379.88379,0,0,0-.87936-.87936h-.06734a.87316.87316,0,0,0-.621.25747L11.89,2.08933a.87417.87417,0,0,0-.25747.621v.15022Zm-8.31739,3.32H2.16032A.76593.76593,0,0,1,1.617,5.95505l-.014-.01467a.76655.76655,0,0,1-.21146-.52922V2.16093A.76381.76381,0,0,1,1.617,1.61856L1.618,1.61765a.76543.76543,0,0,1,.54237-.22548H9.4725a.76218.76218,0,0,1,.54145.22548l.00092.00091V1.61765a.76424.76424,0,0,1,.22639.54328V4.39011a.761.761,0,0,1-.22548.5442l-1.022,1.02074a.73967.73967,0,0,1-.24955.16758.75827.75827,0,0,1-.29373.0579Zm21.33629.07434a.87452.87452,0,0,1-.25656.62007l-.00092.00087a.87651.87651,0,0,1-.621.2566H16.29076a.8342.8342,0,0,1-.62128-.2566l-1.515-1.51493a.8344.8344,0,0,1-.25716-.621V2.7103a1.31958,1.31958,0,0,0-1.31813-1.31813h-.06734a1.3124,1.3124,0,0,0-.93025.386l-.00091.001-.00092.00091-.00152.00153a1.31526,1.31526,0,0,0-.38453.92872V4.73987a.8405.8405,0,0,1-.25717.621L9.4207,6.87581a.83416.83416,0,0,1-.621.2566H1.31722a.88062.88062,0,0,1-.87845-.87754v-4.937A.87317.87317,0,0,1,.69624.69776L.69715.69685A.87477.87477,0,0,1,1.31722.43938H23.773a.88064.88064,0,0,1,.87845.87845Z" style="fill:#a1afba;fill-rule:evenodd"/></g></svg>