<svg xmlns="http://www.w3.org/2000/svg" viewBox="0 0 17.49372 17.49374"><title>volleyball-icon-uc-santa-barbara</title><g id="ICONS"><path d="M13.13153,1.18168A8.80751,8.80751,0,0,1,14.928,2.55923l.00366.00365a8.81743,8.81743,0,0,1,.75748.86261,8.75638,8.75638,0,0,1-1.58169,12.23277.2092.2092,0,0,1-.08959.06913A8.745,8.745,0,0,1,.29942,11.00977a8.91053,8.91053,0,0,1-.216-1.064.22708.22708,0,0,1-.01561-.11734,8.71243,8.71243,0,0,1,.2289-3.33582l.00085-.00518L.30124,6.478l.00061-.00518A8.77479,8.77479,0,0,1,3.42533,1.8054,8.73121,8.73121,0,0,1,12.08916.66609l.00518.00156.01371.0061a8.7582,8.7582,0,0,1,1.0116.5l.01188.00792ZM1.85765,13.3913a.22078.22078,0,0,1,.07922.03687,9.62175,9.62175,0,0,0,4.551,1.76817,9.21152,9.21152,0,0,0,4.64941-.532,7.33692,7.33692,0,0,0-.23157-2.24563c-.03778-.13746-.07922-.27393-.12425-.41043a11.61314,11.61314,0,0,1-5.73939.4994A9.25792,9.25792,0,0,1,.61813,10.458c.03206.14687.06643.29282.10543.43877A8.30332,8.30332,0,0,0,1.85765,13.3913Zm9.71413,1.37754a.22826.22826,0,0,1-.007.10539,9.91612,9.91612,0,0,1-.2919,1.78528,8.26481,8.26481,0,0,0,2.46867-1.273,8.79653,8.79653,0,0,0-.305-5.15491A11.17045,11.17045,0,0,0,10.271,5.70068,6.9152,6.9152,0,0,0,8.98335,8.66663a7.2105,7.2105,0,0,1,2.34656,3.63872,7.81231,7.81231,0,0,1,.24187,2.46349ZM11.101,15.154a9.82339,9.82339,0,0,1-4.66739.47686,10.46016,10.46016,0,0,1-3.7408-1.19473,8.2911,8.2911,0,0,0,8.08947,2.36325A9.88052,9.88052,0,0,0,11.101,15.154ZM.50234,9.76442a8.80773,8.80773,0,0,0,4.615,2.31118,11.16952,11.16952,0,0,0,5.50873-.47746A6.92474,6.92474,0,0,0,8.7009,9.00088a7.44617,7.44617,0,0,1-3.06467.42049Q5.346,9.39942,5.05852,9.3525l-.00518-.00091-.0061-.00183h-.007A7.58166,7.58166,0,0,1,2.5676,8.468q-.25412-.14122-.49057-.29891l-.00426-.00244A8.18179,8.18179,0,0,1,1.39115,7.663C1.127,7.44783.87469,7.21713.6294,6.97463c-.04929.22791-.08988.45857-.12.69106a8.24186,8.24186,0,0,0-.007,2.09873Zm15.70422,2.63782a.21555.21555,0,0,1-.00883-.09171,9.63423,9.63423,0,0,0-.74347-4.82644A9.20921,9.20921,0,0,0,12.67059,3.7244a7.299,7.299,0,0,0-1.8243,1.319c-.10269.10269-.20293.20964-.29891.31872a11.61534,11.61534,0,0,1,3.30111,4.7201,9.26478,9.26478,0,0,1,.43633,4.85844,8.32518,8.32518,0,0,0,1.65574-2.04027q.14123-.24453.266-.49819ZM12.5392,3.29869a.21244.21244,0,0,1,.10092-.05023,9.85742,9.85742,0,0,1,1.70077-.64353A8.31608,8.31608,0,0,0,12.9113,1.56012l-.011-.007A8.48463,8.48463,0,0,0,12.002,1.104,8.80119,8.80119,0,0,0,7.67985,3.949,11.16373,11.16373,0,0,0,5.341,8.95c.10878.01371.21847.0259.32725.03351A7.02006,7.02006,0,0,0,8.55129,8.588a7.2005,7.2005,0,0,1,1.9839-3.85292,7.78273,7.78273,0,0,1,2.004-1.4364Zm.57161.21329a9.818,9.818,0,0,1,2.74657,3.80208,10.45455,10.45455,0,0,1,.83609,3.85384A8.31495,8.31495,0,0,0,15.34,3.69149a8.09284,8.09284,0,0,0-.63195-.73128,9.81423,9.81423,0,0,0-1.59724.55177ZM8.17986.458a.203.203,0,0,1-.081.06033A9.63106,9.63106,0,0,0,4.29159,3.576,9.18926,9.18926,0,0,0,2.42683,7.87471c.11487.07343.23218.14321.35321.21146a7.21418,7.21418,0,0,0,2.12735.79375A11.62068,11.62068,0,0,1,7.34376,3.66738,9.2506,9.2506,0,0,1,11.34447.85687,8.23735,8.23735,0,0,0,8.17986.458ZM2.02249,7.59835A9.8142,9.8142,0,0,1,3.94271,3.31062,10.46761,10.46761,0,0,1,6.86965.65577c-.0908.02072-.18129.04384-.273.06821a8.31678,8.31678,0,0,0-5.842,5.7549,10.96049,10.96049,0,0,0,.91288.84463C1.7833,7.41766,1.90153,7.51,2.02249,7.59835Z" style="fill:#a1afba;fill-rule:evenodd"/></g></svg>