<svg xmlns="http://www.w3.org/2000/svg" viewBox="0 0 21.77962 11.75601"><title>3d-glasses-icon-uc-santa-barbara</title><g id="ICONS"><path d="M7.40115,3.00565,6.88377.52936,1.263,3.00565ZM.4665,3.44442a.36024.36024,0,0,0-.02773.13833v7.40359a.32987.32987,0,0,0,.09689.2334.32615.32615,0,0,0,.23218.09568H7.26312a.36941.36941,0,0,0,.09141-.01036.38225.38225,0,0,0,.0838-.03778l1.97018-1.23013a.734.734,0,0,1,.40678-.11756h2.14386a.73394.73394,0,0,1,.40678.11756l1.97019,1.23013a.38218.38218,0,0,0,.08379.03778.366.366,0,0,0,.09141.01036h6.49955a.32882.32882,0,0,0,.23309-.09568h0a.32987.32987,0,0,0,.09689-.2334V3.58275a.34452.34452,0,0,0-.02864-.13833Zm20.05014-.43877L14.89493.52936l-.51646,2.47629Zm-6.58577,0,.58837-2.82a.26858.26858,0,0,1,.01645-.05515A.21834.21834,0,0,1,14.82485.019l6.4962,2.86052a.78288.78288,0,0,1,.26143.1883.20509.20509,0,0,1,.02529.02864h0l.00061.00153a.60953.60953,0,0,1,.04753.064.76965.76965,0,0,1,.12371.42079v7.40359a.77034.77034,0,0,1-.22456.54328h-.00183a.76619.76619,0,0,1-.54236.22639H14.51132a.747.747,0,0,1-.40678-.11761l-1.97018-1.22977a.33927.33927,0,0,0-.0838-.03717.30734.30734,0,0,0-.09141-.01219H9.81529a.30734.30734,0,0,0-.09141.01219.33349.33349,0,0,0-.08288.03717L7.67081,11.6384a.7648.7648,0,0,1-.19622.08836.74848.74848,0,0,1-.21147.02925H.76784a.7646.7646,0,0,1-.54145-.22639l-.00183-.00091A.76437.76437,0,0,1,0,10.98634V3.58275A.76226.76226,0,0,1,.17033,3.098l.00152-.00153A.21186.21186,0,0,1,.19714,3.0669a.78974.78974,0,0,1,.26143-.18739L6.95477.019h0A.22285.22285,0,0,1,6.99864.00528a.21934.21934,0,0,1,.2593.17l.59082,2.83035Zm1.0701,6.5998a.322.322,0,0,1-.0905-.01219.31629.31629,0,0,1-.08379-.03809L12.53443,8.124a.32549.32549,0,0,1-.1167-.11823h0a.33394.33394,0,0,1-.039-.16149V5.4853a.335.335,0,0,1,.08836-.22457l.00853-.00761a.33025.33025,0,0,1,.2331-.09751h6.591a.333.333,0,0,1,.33.32969V9.2754a.33136.33136,0,0,1-.0975.23315h.00091a.32826.32826,0,0,1-.2334.0969Zm4.2987.43876H15.001a.7854.7854,0,0,1-.21146-.02864.75854.75854,0,0,1-.19531-.08811L12.30194,8.49634a.7596.7596,0,0,1-.26692-.27825h.00092L12.035,8.21723a.76527.76527,0,0,1-.09506-.373V5.4853a.77021.77021,0,0,1,.21176-.52927l.01372-.014a.768.768,0,0,1,.54328-.22518h6.591a.76933.76933,0,0,1,.76876.76846V9.2754a.767.767,0,0,1-.22548.54333h-.00061a.76792.76792,0,0,1-.54267.22548Zm-12.521,0H2.48a.7663.7663,0,0,1-.54267-.22548l-.00061-.001a.76657.76657,0,0,1-.22639-.54237V5.4853a.76568.76568,0,0,1,.22639-.54237V4.942h0A.76692.76692,0,0,1,2.48,4.71684H9.07a.76931.76931,0,0,1,.76967.76846v2.359a.756.756,0,0,1-.096.373v.00086h0a.74975.74975,0,0,1-.266.27825L7.18451,9.92746a.75.75,0,0,1-.19531.08811.77874.77874,0,0,1-.21055.02864ZM2.48,9.60545a.32876.32876,0,0,1-.32908-.33V5.4853a.3283.3283,0,0,1,.09568-.2331l.00091.00092A.32667.32667,0,0,1,2.48,5.15561H9.07a.33188.33188,0,0,1,.33.32969v2.359a.33366.33366,0,0,1-.03809.16149h0A.338.338,0,0,1,9.2452,8.124L6.95294,9.55517a.31629.31629,0,0,1-.08379.03809.32675.32675,0,0,1-.0905.01219Z" style="fill:#a1afba;fill-rule:evenodd"/></g></svg>