<svg xmlns="http://www.w3.org/2000/svg" viewBox="0 0 18.19057 18.19087"><title>cd-icon-uc-santa-barbara</title><g id="ICONS"><path d="M9.09932.43725a8.65945,8.65945,0,1,0,6.12012,2.5384A8.63705,8.63705,0,0,0,9.09932.43725ZM9.09559,7.27684A1.818,1.818,0,1,1,7.27653,9.094h0A1.81849,1.81849,0,0,1,9.09559,7.27684V7.27592h0v.00092Zm.976.84214a1.38087,1.38087,0,1,1-2.35685.975h0a1.37989,1.37989,0,0,1,1.3809-1.37933h0a1.37549,1.37549,0,0,1,.976.40429Zm-.97412-2.4409A3.41712,3.41712,0,1,1,5.67869,9.094h0A3.41544,3.41544,0,0,1,9.0965,5.67808V5.67716h.00092v.00092ZM11.20319,6.9892A2.97953,2.97953,0,1,1,6.11593,9.094h0A2.97945,2.97945,0,0,1,9.0965,6.11593h.00092a2.96729,2.96729,0,0,1,2.10577.87327ZM2.66711,2.66033A9.09564,9.09564,0,1,1,0,9.09163,9.06528,9.06528,0,0,1,2.66711,2.66033Z" style="fill:#a1afba;fill-rule:evenodd"/></g></svg>