<svg xmlns="http://www.w3.org/2000/svg" viewBox="0 0 17.17508 18.2771"><title>coffee-maker-icon-uc-santa-barbara</title><g id="ICONS"><path d="M12.5265,4.15849H13.532V3.47292H12.5265v.68557Zm3.01775,4.4508H10.514v3.309a.88221.88221,0,0,0,.87937.87937h3.27278a.88235.88235,0,0,0,.621-.25747l.00092-.00092a.88042.88042,0,0,0,.25625-.621v-3.309Zm-5.24967-.43938h5.47a.21977.21977,0,0,1,.21938.22V8.928h.42231a.7675.7675,0,0,1,.52957.21268l.01379.0128a.76727.76727,0,0,1,.22548.54328v1.5625a.76835.76835,0,0,1-.76884.76876h-.42658a1.317,1.317,0,0,1-.3827.82147h-.00061a1.322,1.322,0,0,1-.71086.36868v.27454l2.06495.00091a.21892.21892,0,0,1,.21854.21847l-.0016,3.24871a1.317,1.317,0,0,1-1.31813,1.3163l-14.53112-.007v.00183h0v-.00183a1.3165,1.3165,0,0,1-1.3163-1.31726h0L.00792,1.31691A1.31963,1.31963,0,0,1,1.32575,0l14.532.0067V.00579h0V.0067a1.31808,1.31808,0,0,1,1.3163,1.31722h.001v.00087h-.001L17.17348,3.2545a.21791.21791,0,0,1-.21878.21842h-2.983v.905a.22062.22062,0,0,1-.21938.22034H12.30712a.22043.22043,0,0,1-.21938-.22034V3.47205L7.91183,3.47022,7.90574,13.49027l3.26729.00091v-.273a1.32289,1.32289,0,0,1-1.09783-1.29985V8.3899a.22.22,0,0,1,.21938-.22Zm5.68935,3.41934h.42231a.33019.33019,0,0,0,.32908-.33V9.69676a.32445.32445,0,0,0-.09652-.23218l-.008-.00884a.33068.33068,0,0,0-.22457-.08806h-.42231v2.22157ZM11.61271,13.4921h2.834v-.25565h-2.834v.25565Zm3.0534.43876h2.06494l-.00084,3.02994a.88126.88126,0,0,1-.881.87906L1.31813,17.83315v-.00091h0v.00091a.88218.88218,0,0,1-.87936-.88032h0l.007-15.63592a.88166.88166,0,0,1,.88-.87906l14.532.00671V.44547h0V.44456a.88181.88181,0,0,1,.87852.87936h-.001v.00087h.001V3.03572l-2.96084-.00157-.02316-.00087H12.30712l-.018.00087L7.69306,3.03237a.21944.21944,0,0,0-.21847.21938l-.00671,10.457a.21966.21966,0,0,0,.21939.21938L11.365,13.929a.14369.14369,0,0,0,.02834.00182ZM3.95591,11.5341a2.1683,2.1683,0,0,0-1.5366.63712l-.00182.00087a2.17635,2.17635,0,0,0,0,3.07416h.00182a2.17367,2.17367,0,0,0,3.086-3.062l-.01188-.01306a2.17206,2.17206,0,0,0-1.53752-.63712Zm1.22642.94822a1.73506,1.73506,0,0,0-2.45375,2.45375h0a1.73542,1.73542,0,0,0,2.465-2.44339Z" style="fill:#a1afba;fill-rule:evenodd"/></g></svg>