<svg xmlns="http://www.w3.org/2000/svg" viewBox="0 0 10.82513 16.44707"><title>computer-mouse-icon-uc-santa-barbara</title><g id="ICONS"><path d="M.05363,1.844a3.37482,3.37482,0,0,1,.59081-.55425A4.95982,4.95982,0,0,1,1.42782.8172h0A6.88978,6.88978,0,0,1,2.29835.4665,8.633,8.633,0,0,1,3.27613.20994,10.83274,10.83274,0,0,1,5.39135,0h.03809A10.819,10.819,0,0,1,7.54985.21172,8.62271,8.62271,0,0,1,8.5277.46924a7.04481,7.04481,0,0,1,.86954.35132,4.92417,4.92417,0,0,1,.78277.4735l.00061-.00091a3.38,3.38,0,0,1,.59447.56125.21778.21778,0,0,1,.05.13834h0V11.954a4.02566,4.02566,0,0,1-1.43551,3.27857,6.366,6.366,0,0,1-3.98181,1.21453H5.4011a6.38487,6.38487,0,0,1-3.97054-1.20843A3.99877,3.99877,0,0,1,0,11.97805V1.98938A.22048.22048,0,0,1,.05363,1.844ZM5.39135,5.74389h.43207L5.824,2.69415H5.43036L5.41062,2.695l-.02079-.00087h-.394L4.99494,5.74389Zm.23676.43786V8.22354a.21939.21939,0,1,1-.43877,0V6.18175l-.41287-.001a.21884.21884,0,0,1-.21938-.21842L4.558,2.47564a.21967.21967,0,0,1,.21938-.21939l.41287.00066V.4406A10.25607,10.25607,0,0,0,3.36358.6383a8.5944,8.5944,0,0,0-.92964.24441,6.7494,6.7494,0,0,0-.81355.32842h0a4.405,4.405,0,0,0-.71323.43,3.012,3.012,0,0,0-.46839.4275v9.90944a3.57535,3.57535,0,0,0,1.26975,2.92019,5.95628,5.95628,0,0,0,3.69776,1.111A5.93169,5.93169,0,0,0,9.11143,14.894a3.60431,3.60431,0,0,0,1.27395-2.94V2.07318a3.03938,3.03938,0,0,0-.4671-.4278V1.64477h0a4.51706,4.51706,0,0,0-.71361-.43115A6.43723,6.43723,0,0,0,8.39021.88637,8.08467,8.08467,0,0,0,7.46179.64109,10.13675,10.13675,0,0,0,5.63.4406V2.25691h.4134a.21977.21977,0,0,1,.21878.21873L6.26127,5.96328a.21948.21948,0,0,1-.21938.21847Z" style="fill:#a1afba;fill-rule:evenodd"/></g></svg>