<svg xmlns="http://www.w3.org/2000/svg" viewBox="0 0 17.24763 18.67778"><title>floppy-disk-icon-uc-santa-barbara</title><g id="ICONS"><path d="M.00091,17.35386q0-4.00742.00183-8.01726Q.00412,5.32692.00518,1.31813H.00366A1.31963,1.31963,0,0,1,1.32148.00091V0H1.3224V.00091L4.72284.00183,4.7393.00091h9.09223a.1936.1936,0,0,1,.046.00518L14.97873.007a.21664.21664,0,0,1,.15539.06455V.07069l2.04979,2.0515a.22229.22229,0,0,1,.06361.164l-.00609,15.0744a1.319,1.319,0,0,1-1.31692,1.31722v-.00091q-3.59788,0-7.19395-.00244Q5.02388,18.673,1.3182,18.67169h0a1.31607,1.31607,0,0,1-.93215-.38606l-.01188-.0128A1.31955,1.31955,0,0,1,0,17.35386ZM14.81267,8.651H2.42967v7.7025h12.383V8.651ZM2.21029,8.21226a.21847.21847,0,0,0-.21938.21939v8.14218a.219.219,0,0,0,.21938.21938H15.033a.22042.22042,0,0,0,.2203-.21938V8.43165a.21983.21983,0,0,0-.2203-.21939ZM12.58866.443V5.5175a.21966.21966,0,0,1-.21938.21938H9.75313a.21979.21979,0,0,1-.22022-.21938V.4412L7.44107.4406H4.95868v5.835h8.65256V.443Zm-.77546,0H9.97343V5.29716H12.149V.443ZM14.05092.444V6.495a.21905.21905,0,0,1-.21939.21938H4.7393A.21925.21925,0,0,1,4.519,6.495V.43877H1.3224V.43968H1.32148V.43877A.8822.8822,0,0,0,.443,1.31813H.44242q0,4.00833-.00175,8.01847Q.43919,13.34538.43785,17.35386H.43968a.87909.87909,0,0,0,.24711.61153l.01036.01032a.87675.87675,0,0,0,.62105.25721v.00091q3.7052,0,7.41236.00366,3.59652,0,7.19395.00244V18.239a.8801.8801,0,0,0,.88-.87845l.00518-14.993L14.887.444Z" style="fill:#a1afba;fill-rule:evenodd"/></g></svg>