<svg xmlns="http://www.w3.org/2000/svg" viewBox="0 0 21.66871 14.43789"><title>game-controller-icon-uc-santa-barbara</title><g id="ICONS"><path d="M6.622.43877H1.31783a.88053.88053,0,0,0-.87845.87936V12.02131a1.98181,1.98181,0,0,0,1.97811,1.97781H5.52238a1.98274,1.98274,0,0,0,1.97871-1.97781V8.39874a.2199.2199,0,0,1,.21878-.2203h6.22806a.22121.22121,0,0,1,.2203.2203v3.62257a1.98181,1.98181,0,0,0,1.9778,1.97781h3.10611a1.98181,1.98181,0,0,0,1.9778-1.97781V1.31813a.88158.88158,0,0,0-.87936-.87936H15.04667a.87423.87423,0,0,0-.621.25747L14.42486.6971a.87338.87338,0,0,0-.25663.621V1.554a.22043.22043,0,0,1-.2203.21938H7.71987A.21912.21912,0,0,1,7.50109,1.554V1.31813a.87927.87927,0,0,0-.25716-.621L7.24309.69624A.87723.87723,0,0,0,6.622.43877ZM9.77446,6.75a.21984.21984,0,0,1,0-.43968H11.894a.21984.21984,0,0,1,0,.43968Zm8.29331-2.87088V2.39006h1.48907V3.87913Zm1.70937.43938H17.84839a.21938.21938,0,0,1-.21939-.22V2.17068a.21866.21866,0,0,1,.21939-.21938h1.92875a.219.219,0,0,1,.21938.21938V4.09851a.21977.21977,0,0,1-.21938.22Zm-4.32034,2.231V5.0604h1.48907V6.54952Zm1.70937.43876H15.23742a.21848.21848,0,0,1-.21939-.21851V4.841a.21889.21889,0,0,1,.21939-.21938h1.92875a.21927.21927,0,0,1,.21938.21938V6.76977a.21886.21886,0,0,1-.21938.21851ZM9.74612.273l2.46746.00183a.21872.21872,0,0,1,.21854.21847v.84127h1.29642V1.31813a1.31241,1.31241,0,0,1,.38454-.92842L14.1146.38788,14.11551.387l.00092-.00092A1.31551,1.31551,0,0,1,15.04667,0h5.30391a1.31963,1.31963,0,0,1,1.31813,1.31813V12.02131a2.42083,2.42083,0,0,1-2.41657,2.41658H16.146a2.42082,2.42082,0,0,1-2.41749-2.41658V8.619H7.93986v3.40227a2.42069,2.42069,0,0,1-2.41748,2.41658H2.41749A2.42082,2.42082,0,0,1,0,12.02131V1.31813A1.31806,1.31806,0,0,1,1.31783,0H6.622a1.315,1.315,0,0,1,.93024.38605L7.55388.387a1.31851,1.31851,0,0,1,.386.93116v.01645H9.52735V.49239A.2197.2197,0,0,1,9.74612.273Zm2.24807.43968v.62189H9.9655V.71086l2.02869.00183ZM5.005,2.18957V3.5205a.21963.21963,0,0,0,.21938.21938H6.55531V5.17959H5.22438a.22.22,0,0,0-.21938.2203V6.73016H3.5662V5.39989a.22015.22015,0,0,0-.22022-.2203H2.015V3.73988H3.346A.21977.21977,0,0,0,3.5662,3.5205V2.18957ZM3.346,1.7508h1.8784a.21906.21906,0,0,1,.2203.21847V3.30112H6.7756A.21963.21963,0,0,1,6.995,3.5205V5.39989a.21945.21945,0,0,1-.21939.21847H5.44468V6.94954a.22024.22024,0,0,1-.2203.22035H3.346a.22.22,0,0,1-.21939-.22035V5.61836h-1.331a.21885.21885,0,0,1-.21938-.21847V3.5205a.219.219,0,0,1,.21938-.21938h1.331V1.96927A.21882.21882,0,0,1,3.346,1.7508Z" style="fill:#a1afba;fill-rule:evenodd"/></g></svg>