<svg xmlns="http://www.w3.org/2000/svg" viewBox="0 0 17.66465 20.26435"><title>kettle-icon-uc-santa-barbara</title><g id="ICONS"><path d="M2.84681,1.72643H6.12812v-.4086A1.32,1.32,0,0,1,6.51234.38936L6.51509.387h0V.38605A1.31767,1.31767,0,0,1,7.446,0H9.893a1.31794,1.31794,0,0,1,1.31813,1.31783v.4086h5.1354a1.32119,1.32119,0,0,1,1.31813,1.31813V12.5393a1.31312,1.31312,0,0,1-.387.93025l-.00092.00091a1.31467,1.31467,0,0,1-.93025.387h-1.6341v3.47906h.73676a.21964.21964,0,0,1,.21939.21939v2.48817a.21984.21984,0,0,1-.21939.2203H1.89066a.22062.22062,0,0,1-.2203-.2203V17.55588a.22043.22043,0,0,1,.2203-.21939h.73585V7.92615l-2.603-5.881A.21223.21223,0,0,1,0,1.94581a.219.219,0,0,1,.21938-.21938Zm6.67566,3.5854H7.81737a.21939.21939,0,0,0,0,.43877h1.7051a.21939.21939,0,1,0,0-.43877Zm0,2.02534H7.81737a.2203.2203,0,0,0,0,.44059h1.7051a.2203.2203,0,0,0,0-.44059Zm0,2.02716H7.81737a.21984.21984,0,0,0,0,.43968h1.7051a.21984.21984,0,0,0,0-.43968Zm0,2.02717H7.81737a.21939.21939,0,0,0,0,.43877h1.7051a.21939.21939,0,1,0,0-.43877Zm0,2.02625H7.81737a.21984.21984,0,0,0,0,.43968h1.7051a.21984.21984,0,0,0,0-.43968ZM6.5678,1.72643h4.20455v-.4086A.88012.88012,0,0,0,9.893.43968H7.446a.87454.87454,0,0,0-.621.25656V.69685a.87246.87246,0,0,0-.25717.621v.4086ZM14.493,17.77617H2.11v2.04941H15.22889V17.77617Zm.21938-15.61006V13.41775h1.6341a.879.879,0,0,0,.62136-.25747v-.001a.87476.87476,0,0,0,.25709-.62V3.04456a.88.88,0,0,0-.87845-.87845ZM2.62651,6.84142V2.16611H.55638L2.62651,6.84142ZM14.27365,2.16611H3.06619V17.33649H14.27365V2.16611Z" style="fill:#a1afba;fill-rule:evenodd"/></g></svg>