<svg xmlns="http://www.w3.org/2000/svg" viewBox="0 0 21.11599 27.54062"><title>lamp-icon-uc-santa-barbara</title><g id="ICONS"><path d="M9.36677,24.4467,9.36433,26.221a.84.84,0,0,0,.25808.6225.85337.85337,0,0,0,.28429.19348.87.87,0,0,0,.3376.064v.00092l9.552.00182a.88167.88167,0,0,0,.87906-.87845l.00282-1.77426a.83381.83381,0,0,0-.25755-.6225.87121.87121,0,0,0-.28337-.19349h-.00061a.87149.87149,0,0,0-.33791-.064v-.00092l-3.64482-.00091-.01554.00091H13.90405l-.0198-.00091h-3.6372a.88214.88214,0,0,0-.88028.87753ZM1.32148,5.62541H4.66556a5.8487,5.8487,0,0,1,11.69315.223V23.13223l3.44006.00091v-.00182a1.32121,1.32121,0,0,1,.50611.09841h0A1.30664,1.30664,0,0,1,21.116,24.451l-.00244,1.77426a1.31808,1.31808,0,0,1-1.31722,1.31539l-9.552-.00091v.00091A1.3088,1.3088,0,0,1,8.92709,26.221l.00274-1.77427a1.31808,1.31808,0,0,1,1.31722-1.31538h3.43762V5.84845a3.17464,3.17464,0,0,0-6.34141-.223h3.32861a1.32357,1.32357,0,0,1,1.223.82756l.00366.00793.00244.0067.00365.00884.00244.00579.00274.00883a1.31416,1.31416,0,0,1,.08288.45949l-.00274,6.83014v3.61222l-.00092.02316-.00083,2.54546h0a1.31359,1.31359,0,0,1-.374.91714l-.01279.0131a1.31013,1.31013,0,0,1-.93025.38606v.00091h-.00092v-.00091l-9.354-.0061A1.31806,1.31806,0,0,1,0,19.95452L.00335,8.53011V6.94354h0A1.31945,1.31945,0,0,1,.3824,6.02121l.00792-.00883a1.332,1.332,0,0,1,.19866-.163l.00953-.00609.00327-.00274.00975-.0061.00335-.00152.01036-.00705L.6286,5.82407l.00952-.0067.00449-.00183.00945-.00609.00335-.00152.01036-.007.00335-.00183.01036-.00518a1.30749,1.30749,0,0,1,.642-.1685Zm3.78468,0H6.90358a3.61387,3.61387,0,0,1,7.22077.223V23.13132H15.919V5.84845a5.40872,5.40872,0,0,0-10.81287-.223Zm6.445,11.986H.43785v2.34314a.88189.88189,0,0,0,.87845.88027l9.354.00518v-.00091h.00092V20.84a.87934.87934,0,0,0,.62006-.25838l.01135-.01036a.87394.87394,0,0,0,.24765-.6097h0l.00091-2.35015ZM1.69352,6.06509h-.372c-.03047,0-.05972.00183-.089.00427h0L1.211,6.07119,1.21,6.0721l-.02163.00244h0l-.01128.00274h0l-.01036.00091H1.16578l-.00945.00244H1.15542l-.01036.00183h0l-.01028.00239h0l-.01044.00279H1.12343L1.114,6.09008H1.11307l-.00945.00274H1.1021L1.082,6.098H1.08138a.88182.88182,0,0,0-.38027.22548l-.0112.01036c-.0147.01462-.02742.02925-.04151.0457l-.00419.00518L.6417,6.38746l-.00427.00579-.00274.00183-.01036.01463L.6225,6.41154l-.00518.007L.61679,6.42l-.00526.00609L.61069,6.4289l-.00525.00671L.6046,6.43652l-.00526.007-.00083.00183L.59325,6.453l-.00609.00854-.00084.00091-.01044.01645L.575,6.47979a.87769.87769,0,0,0-.13186.46375V17.17261h11.108V6.94354a.874.874,0,0,0-.12767-.45522l-.00183-.00244L11.42075,6.484a.94441.94441,0,0,0-.12424-.1554.87762.87762,0,0,0-.62106-.25834L7.12723,6.06783l-.0112.00092H4.88159L4.8627,6.06783,1.69352,6.06509ZM5.9974,9.33787A2.28108,2.28108,0,0,0,4.384,13.23224v-.00092a2.2805,2.2805,0,0,0,3.21305.0131l.01311-.01218a2.28009,2.28009,0,0,0,0-3.22591l-.00092-.00086a2.27247,2.27247,0,0,0-1.61186-.6676ZM7.3,10.31565A1.84257,1.84257,0,1,0,4.6942,12.92144h0v.00087a1.84538,1.84538,0,0,0,2.59452.01041l.01036-.01128A1.84306,1.84306,0,0,0,7.3,10.31565Z" style="fill:#a1afba;fill-rule:evenodd"/></g></svg>