<svg xmlns="http://www.w3.org/2000/svg" viewBox="0 0 13.83946 18.19326"><title>memory-card-icon-uc-santa-barbara</title><g id="ICONS"><path d="M.11579,11.287l.4604-.25321L.5771,9.94021.14687,9.78329a.21982.21982,0,0,1-.14352-.223V8.24482A.22032.22032,0,0,1,.09659,8.066L2.06434,6.57115l.00251-5.25424A1.32062,1.32062,0,0,1,3.38315,0h9.13817a1.319,1.319,0,0,1,1.31722,1.31783h0q0,3.88949-.00274,7.77959-.00138,3.889-.00244,7.77776a1.31951,1.31951,0,0,1-1.31722,1.31808H1.31813v-.00087A1.31963,1.31963,0,0,1,0,16.87518v-.00092H.001l.00175-5.39562a.21765.21765,0,0,1,.11305-.19074V11.287ZM9.81194,6.5486a.21889.21889,0,0,0,.21847.21939l1.90437.00091a.21945.21945,0,0,0,.21938-.21847L12.156,1.983a.21866.21866,0,0,0-.21847-.21846L10.03193,1.7636a.21828.21828,0,0,0-.21847.21847L9.81194,6.5486Zm.43937-4.34715-.00152,4.12868,1.46652.00092.00183-4.1296ZM5.95962,1.98116a.21866.21866,0,0,0-.21847-.21847L3.83678,1.76177a.21964.21964,0,0,0-.21939.21939L3.61557,6.54678a.21887.21887,0,0,0,.21854.21938L5.73932,6.767a.21948.21948,0,0,0,.21854-.21939l.00176-4.56648ZM5.51994,6.32922l.00183-4.12868-1.46652-.001L4.0525,6.32826l1.46744.001Zm1.19381.21938a.21948.21948,0,0,0,.21847.21939l1.90529.00091A.21867.21867,0,0,0,9.056,6.55043L9.0578,1.983a.21865.21865,0,0,0-.21847-.21846L6.93405,1.7636a.219.219,0,0,0-.21878.21847L6.71375,6.5486Zm.43968-4.34715L7.15069,6.33013l1.46743.00092.00282-4.1296ZM.901,11.3558l-.4604.25325L.43877,16.87426h0v.00092a.88325.88325,0,0,0,.87936.88v-.00152h11.198a.88077.88077,0,0,0,.87944-.87845q0-3.88812.00237-7.77776.00273-3.8895.00274-7.77959h0a.88063.88063,0,0,0-.87937-.87845H3.38315a.88011.88011,0,0,0-.87913.87753L2.50219,6.679h0A.21525.21525,0,0,1,2.416,6.8533L.44151,8.35364V9.42375l.42993.15814h0a.21962.21962,0,0,1,.14351.20567L1.014,11.14861A.22086.22086,0,0,1,.901,11.3558Z" style="fill:#a1afba;fill-rule:evenodd"/></g></svg>