<svg xmlns="http://www.w3.org/2000/svg" viewBox="0 0 19.71955 14.10363"><title>microwave-icon-uc-santa-barbara</title><g id="ICONS"><path d="M18.40172.443,14.49.44146,14.48725,13.6606l3.9099.00518v-.00092H18.399a.8828.8828,0,0,0,.209-.025l.00336-.00092.007-.00183.00336-.00152.007-.00091.00336-.00092a.89066.89066,0,0,0,.38178-.22547.87284.87284,0,0,0,.25839-.621v-.61671l.00853-10.84731h0V1.32148h-.00091c0-.03016-.00153-.0588-.00427-.08806l-.00091-.00182-.00153-.02072V1.21l-.00274-.02072V1.18772L19.268,1.17736l-.00182-.00945V1.16609l-.00183-.00858V1.15573l-.00244-.00945V1.14445L19.26006,1.135V1.13409l-.00244-.00944-.00792-.03113-.00091-.00178A.88241.88241,0,0,0,18.40172.443V.444h0V.443ZM15.76455,1.94h2.24076a.22.22,0,0,1,.22.2203V3.8316a.22.22,0,0,1-.22.21938H15.76455a.22.22,0,0,1-.21939-.21938V2.16032a.22.22,0,0,1,.21939-.2203Zm2.02137.43968V3.61221h-1.802V2.3797ZM16.9023,9.22112a1.35528,1.35528,0,0,1,.96041.39733l.0128.01371a1.35775,1.35775,0,0,1-1.933,1.90712h-.00061a1.3561,1.3561,0,0,1,0-1.91991h.00061V9.61845l.00183-.00183a1.35915,1.35915,0,0,1,.958-.3955Zm.64931.70813.01036.01036a.91886.91886,0,0,1-1.30929,1.28948h-.00092l.00092-.00091a.92024.92024,0,0,1-.00092-1.29893l.00092-.00092a.91877.91877,0,0,1,1.29893.00092Zm-1.60729-.31263a.2197.2197,0,0,1,.30836.00275l-.30836-.00275ZM12.11211,2.67831l-9.53374-.0034-.00518,8.75041,9.53374.00427.00092-.93543.00426-7.81585ZM2.3599,2.2371l9.97068.00427a.21886.21886,0,0,1,.21939.21847l-.00518,8.03432-.00092,1.1539a.21866.21866,0,0,1-.21755.21938L2.3538,11.86317a.21885.21885,0,0,1-.21847-.21938l.00518-9.1873A.21906.21906,0,0,1,2.3599,2.2371ZM14.05183.44146l-.00244,13.22432L1.3163,13.66151a.88166.88166,0,0,1-.87906-.88028L.44486,1.3163A.87452.87452,0,0,1,.70416.69624V.69532a.87825.87825,0,0,1,.621-.25838L14.05183.44146ZM14.27061,0l4.13172.00427a1.3212,1.3212,0,0,1,1.31722,1.31721h-.00092v.00183h0L19.7162,12.17062v.61488h.00091v.00183H19.7162a1.32113,1.32113,0,0,1-1.273,1.3163h-.05027L1.3163,14.09936A1.32015,1.32015,0,0,1,0,12.78123L.007,1.3163A1.32156,1.32156,0,0,1,.39306.38514L.394.38605V.38514A1.31745,1.31745,0,0,1,1.32514,0L14.22642.00335A.267.267,0,0,1,14.27061,0Z" style="fill:#a1afba;fill-rule:evenodd"/></g></svg>