<svg xmlns="http://www.w3.org/2000/svg" viewBox="0 0 13.78552 21.46487"><title>monitor-icon-uc-santa-barbara</title><g id="ICONS"><path d="M1.31783,0H12.4677a1.32225,1.32225,0,0,1,1.31782,1.31783h0V20.147a1.31391,1.31391,0,0,1-.38666.93025l-.00091.00152a1.31372,1.31372,0,0,1-.93117.38606H1.31783A1.31965,1.31965,0,0,1,0,20.147V1.31783H0A1.31965,1.31965,0,0,1,1.31783.00091V0ZM11.83636,13.01v4.76341a.21984.21984,0,1,0,.43968,0V13.01a.21984.21984,0,0,0-.43968,0Zm0-6.58665v4.76246a.21984.21984,0,1,0,.43968,0V6.42337a.21984.21984,0,0,0-.43968,0ZM6.8923,2.99367a1.65462,1.65462,0,1,0,1.16853.48448A1.64248,1.64248,0,0,0,6.8923,2.99367ZM7.75,3.788a1.21154,1.21154,0,1,0,.35589.85772A1.20887,1.20887,0,0,0,7.75,3.788ZM.43968,11.82844H13.34615V1.31783h0A.88012.88012,0,0,0,12.4677.43968H1.31783V.43877a.88115.88115,0,0,0-.87815.87906h0V11.82844Zm12.90647.43968H.43968V20.147a.8801.8801,0,0,0,.87815.87845H12.46678a.8785.8785,0,0,0,.621-.25656l.00183-.00091a.87994.87994,0,0,0,.25656-.621Z" style="fill:#a1afba;fill-rule:evenodd"/></g></svg>