<svg xmlns="http://www.w3.org/2000/svg" viewBox="0 0 24.42228 15.22401"><title>monitor-icon-uc-santa-barbara_1</title><g id="ICONS"><path d="M2.62133,0H23.10446a1.31963,1.31963,0,0,1,1.31782,1.31813V12.40554a1.31314,1.31314,0,0,1-.38605.93116l-.00092.00091a1.31261,1.31261,0,0,1-.93085.38606H20.39933v1.281A.21925.21925,0,0,1,20.18,15.224H4.24355a.21964.21964,0,0,1-.21938-.21938v-1.281h-2.706A1.31965,1.31965,0,0,1,0,12.40554V1.31813A1.315,1.315,0,0,1,.387.38788V.387H.38788L.38941.38453A1.31693,1.31693,0,0,1,1.31813,0h1.3032ZM22.02216.43877V13.2849h1.0823a.87924.87924,0,0,0,.62189-.25747v-.00091a.87683.87683,0,0,0,.25716-.621V1.31813a.88008.88008,0,0,0-.879-.87936ZM2.401,13.2849V11.479l-.00152-.02438V.43877H1.31813A.87714.87714,0,0,0,.69776.69624L.69685.69715a.87684.87684,0,0,0-.25717.621V12.40554a.88167.88167,0,0,0,.87845.87936Zm8.96122-1.476a.21964.21964,0,0,0-.21939.21938v.69441a.21973.21973,0,0,0,.21939.21995h1.69809a.21992.21992,0,0,0,.21938-.21995v-.69441a.21983.21983,0,0,0-.21938-.21938Zm1.47779.43937H11.58163v.255H12.84v-.255ZM2.84071,11.23519H21.58248V.43877H2.84071V11.23519Zm18.74177.43877H2.84071V13.2849H21.58248V11.674Zm-1.62191,2.04971H4.46293v1.06066H19.96057Z" style="fill:#a1afba;fill-rule:evenodd"/></g></svg>