<svg xmlns="http://www.w3.org/2000/svg" viewBox="0 0 18.27862 18.27771"><title>oven-icon-uc-santa-barbara</title><g id="ICONS"><path d="M.44486,1.31691.444,4.29352h17.395l.00183-2.96869a.88316.88316,0,0,0-.88-.88027L15.82061.4439,1.32483.43781a.8828.8828,0,0,0-.88.8791Zm8.694-.25625a1.37639,1.37639,0,0,1,.97779.40494l.01279.01372A1.38188,1.38188,0,0,1,8.162,3.42025H8.16107a1.38406,1.38406,0,0,1,0-1.95465H8.1629a1.37368,1.37368,0,0,1,.97595-.40494Zm.66669.71513.01127.01036A.94353.94353,0,0,1,8.47217,3.11h0V3.10915A.94283.94283,0,1,1,9.80554,1.77579ZM3.50222,7.1775,3.497,14.77732l11.27937.00335.00518-7.59986H13.52927L3.50222,7.1775Zm-.443,7.81829.00518-8.03706a.21925.21925,0,0,1,.21847-.21847L13.52927,6.743l1.47079.00092a.21866.21866,0,0,1,.21847.21847l-.00518,8.03767a.21808.21808,0,0,1-.21847.21847L3.27765,15.21426a.21827.21827,0,0,1-.21847-.21847ZM.444,4.7329h17.395l-.00579,12.2279a.88166.88166,0,0,1-.88027.87906L1.31722,17.83311v-.00087h0v.00087a.88318.88318,0,0,1-.87937-.88023h0L.444,4.7329ZM.00609,4.5318.00518,4.51351l.00091-.01889L.00762,1.31691A1.31807,1.31807,0,0,1,1.32483,0L15.82061.00579,16.9608.0067a1.31807,1.31807,0,0,1,1.31691,1.31813l-.00152,3.15939a.17335.17335,0,0,1,.00243.02929.19056.19056,0,0,1-.00243.02956L18.271,16.9608a1.31965,1.31965,0,0,1-1.31813,1.31691L1.31722,18.27009v.00178h0v-.00178A1.3165,1.3165,0,0,1,.00091,16.95288h0Z" style="fill:#a1afba;fill-rule:evenodd"/></g></svg>