<svg xmlns="http://www.w3.org/2000/svg" viewBox="0 0 14.85868 19.05865"><title>plug-icon-uc-santa-barbara</title><g id="ICONS"><path d="M6.14274,12.65935h7.39781a.87985.87985,0,0,0,.621-.25747V12.401a.87422.87422,0,0,0,.25747-.621V6.342H5.2646v5.43792a.8801.8801,0,0,0,.87814.87941Zm3.91875,3.18808v1.89309a1.31521,1.31521,0,0,1-.387.93025v.00092H9.6736l-.00152.00182a1.3175,1.3175,0,0,1-.92842.38514H1.31813A1.31961,1.31961,0,0,1,0,17.74052V.22a.21984.21984,0,1,1,.43968,0V17.74052a.87914.87914,0,0,0,.87845.87845H8.74366a.873.873,0,0,0,.62006-.25752l.00153-.00086a.87509.87509,0,0,0,.25655-.62007V15.84743H8.40849a.21983.21983,0,0,1-.21938-.2203v-2.529H6.14274a1.32121,1.32121,0,0,1-1.31782-1.31818V6.12355a.21983.21983,0,0,1,.21938-.2203h.84463V3.39435L5.888,3.38826l.00092-.00518V.65358A.21963.21963,0,0,1,6.10831.4342H7.49622a.22041.22041,0,0,1,.2203.21938V5.90325h4.25025V.65358a.22.22,0,0,1,.2203-.21938h1.38821a.21982.21982,0,0,1,.21938.21938V5.90325h.84372a.22.22,0,0,1,.2203.2203v5.65639a1.313,1.313,0,0,1-.387.93121h0a1.31464,1.31464,0,0,1-.93116.387H11.49449v2.529a.22043.22043,0,0,1-.21939.2203ZM8.62787,13.09812v2.30962h2.42694V13.09812Zm3.77858-9.92924h.94945V.873h-.94945V3.16888Zm.94945.43968h-.94945V5.90325h.94945V3.60856ZM6.32861,3.16888h.94823V.873H6.32861V3.16888Zm.94823.43968H6.32861V5.90325h.94823Z" style="fill:#a1afba;fill-rule:evenodd"/></g></svg>