<svg xmlns="http://www.w3.org/2000/svg" viewBox="0 0 12.5895 16.72496"><title>speaker-icon-uc-santa-barbara</title><g id="ICONS"><path d="M6.2938,7.21133A3.78619,3.78619,0,1,0,8.9715,8.321,3.78215,3.78215,0,0,0,6.2938,7.21133ZM1.31806,0h9.95331a1.316,1.316,0,0,1,.93025.387l.00091.00183a1.31222,1.31222,0,0,1,.387.92933v14.089a1.31431,1.31431,0,0,1-.387.92995l-.00091.00091a1.31222,1.31222,0,0,1-.93025.387H1.31806A1.31951,1.31951,0,0,1,0,15.40713V1.31813A1.31951,1.31951,0,0,1,1.31806,0Zm9.95331.43968a.87494.87494,0,0,1,.62037.25747l.00152.00092a.87573.87573,0,0,1,.25565.62006v14.089a.877.877,0,0,1-.25565.62007l-.00152.00152a.878.878,0,0,1-.62037.25656H1.31806a.88155.88155,0,0,1-.87929-.87815V1.31813A.88208.88208,0,0,1,1.31806.43968ZM6.29228,13.00336a2.00428,2.00428,0,1,1,1.41624-.58563,1.99945,1.99945,0,0,1-1.41624.58563ZM5.18408,12.106a1.56574,1.56574,0,1,1,1.1082.45949,1.5643,1.5643,0,0,1-1.1082-.45949ZM6.29471,5.66254a2.00467,2.00467,0,1,0-1.41746-.58807,2.00106,2.00106,0,0,0,1.41746.58807ZM5.18744,4.7652A1.56739,1.56739,0,1,0,4.72894,3.657a1.56671,1.56671,0,0,0,.4585,1.10824ZM3.30622,8.00842a4.22858,4.22858,0,1,1-1.2386,2.98849A4.21412,4.21412,0,0,1,3.30622,8.00842Z" style="fill:#a1afba;fill-rule:evenodd"/></g></svg>