<svg xmlns="http://www.w3.org/2000/svg" viewBox="0 0 18.27801 18.27771"><title>stovetop-icon-uc-santa-barbara</title><g id="ICONS"><path d="M.44547,1.31691l-.00762,15.636h0a.88212.88212,0,0,0,.87937.88023v-.00087h0v.00087l15.63657.00675a.88166.88166,0,0,0,.87936-.87906l.00671-15.636a.8816.8816,0,0,0-.87815-.88027L1.32575.43781a.88175.88175,0,0,0-.88028.8791Zm4.4803,1.59541a2.00126,2.00126,0,0,1,1.42173.5899l.0128.01305a2.00912,2.00912,0,0,1-.0128,2.83132V6.3472h0a2.00944,2.00944,0,0,1-2.84437,0H3.50222A2.01239,2.01239,0,0,1,4.92577,2.91232Zm1.11155.90008.01127.01036a1.57435,1.57435,0,0,1-.01036,2.21456l-.00091.00087a1.57745,1.57745,0,0,1-2.224,0L3.8124,6.03732h.00092a1.57293,1.57293,0,0,1,2.224-2.22492Zm10.05447,9.54045a2.73779,2.73779,0,0,1-4.67439,1.93637l-.00092-.00061v.00061a2.73685,2.73685,0,0,1,0-3.87182l.00092-.00183a2.73941,2.73941,0,0,1,3.87212,0l.0128.01371a2.72931,2.72931,0,0,1,.78947,1.92357Zm-1.11245,1.62649a2.30211,2.30211,0,0,1-3.25267,0h.00091a2.29966,2.29966,0,1,1,3.25176-3.25267l.01036.01036a2.3,2.3,0,0,1-.01036,3.24231ZM7.95906,13.35285a3.03613,3.03613,0,1,1-.88972-2.14448,3.02471,3.02471,0,0,1,.88972,2.14448Zm-1.1996,1.83368a2.59562,2.59562,0,1,1,.759-1.83368,2.58587,2.58587,0,0,1-.759,1.83368ZM13.35285,1.89122a3.0331,3.0331,0,1,1-2.14448.88886,3.02455,3.02455,0,0,1,2.14448-.88886Zm1.8346,1.199a2.59487,2.59487,0,1,1-1.8346-.75931,2.58963,2.58963,0,0,1,1.8346.75931ZM4.92577,1.89122a3.0331,3.0331,0,1,1-2.14539.88886,3.02331,3.02331,0,0,1,2.14539-.88886Zm1.83369,1.199A2.59487,2.59487,0,1,1,4.92577,2.331a2.58937,2.58937,0,0,1,1.83369.75931ZM.00091,16.95288l.00671-15.636A1.31807,1.31807,0,0,1,1.32575,0l15.636.0067A1.31859,1.31859,0,0,1,18.278,1.32483l-.007,15.636a1.31965,1.31965,0,0,1-1.31722,1.31691L1.31722,18.27009v.00178h0v-.00178A1.3165,1.3165,0,0,1,.00091,16.95288h0Z" style="fill:#a1afba;fill-rule:evenodd"/></g></svg>