<svg xmlns="http://www.w3.org/2000/svg" viewBox="0 0 12.12491 18.26613"><title>toaster-icon-uc-santa-barbara</title><g id="ICONS"><path d="M1.15573,16.4876h9.81262a.72.72,0,0,0,.71688-.717V2.49549a.71984.71984,0,0,0-.71688-.717H1.15573a.7193.7193,0,0,0-.717.717V15.77064a.71946.71946,0,0,0,.717.717ZM7.77509,0h2.46343a.22055.22055,0,0,1,.22.21938V1.33885h.50984a1.161,1.161,0,0,1,1.15656,1.15664V15.77064a1.15787,1.15787,0,0,1-1.15656,1.15573h-.153v1.11946a.21944.21944,0,0,1-.21938.2203H1.52875a.22028.22028,0,0,1-.22037-.2203V16.92637H1.15573A1.15578,1.15578,0,0,1,0,15.77064V2.49549A1.15891,1.15891,0,0,1,1.15573,1.33885H1.6661V.21938A.21983.21983,0,0,1,1.88548,0H4.34959A.21983.21983,0,0,1,4.569.21938V1.33885H7.55472V.21938A.22023.22023,0,0,1,7.77509,0Zm2.24313.43968H7.99448v.89917h2.02374V.43968Zm-5.888,0H2.10578v.89917H4.1302V.43968ZM1.74715,16.92637v.90008h8.62939v-.90008ZM3.62593,5.15491V3.63471H8.49807v1.5202H3.62593Zm5.09244.43937H6.71009V12.113a.21924.21924,0,0,1-.21938.21938H5.6339a.21867.21867,0,0,1-.21939-.21938V5.59428H3.4057a.219.219,0,0,1-.21854-.22v-1.959a.21964.21964,0,0,1,.21854-.22025H8.71837a.22041.22041,0,0,1,.21938.22025v1.959a.21976.21976,0,0,1-.21938.22ZM5.85328,11.89364V5.59428h.41713v6.29936Z" style="fill:#a1afba;fill-rule:evenodd"/></g></svg>