<svg xmlns="http://www.w3.org/2000/svg" viewBox="0 0 18.55712 14.0759"><title>video-icon-uc-santa-barbara</title><g id="ICONS"><path d="M4.04824,13.63713H14.50888V.43938H4.04824V13.63713ZM.43877,11.48474H3.60856V8.80369H.43877v2.68105Zm3.16979.43963H.43877v.8334a.88377.88377,0,0,0,.87936.87936H3.60856V11.92437ZM.43877,8.36309H3.60856V5.71251H.43877V8.36309Zm0-3.09118H3.60856V2.60666H.43877V5.27191Zm0-3.104H3.60856V.43938H1.31813A.87332.87332,0,0,0,.69807.69685L.69624.69776a.87693.87693,0,0,0-.25747.62v.85011Zm14.50979,9.31685h3.16888V8.80369H14.94856v2.68105Zm3.16888.43963H14.94856v1.71276h2.28951a.87561.87561,0,0,0,.621-.25655l.00092-.00183a.87423.87423,0,0,0,.25747-.621v-.8334ZM14.94856,8.36309h3.16888V5.71251H14.94856V8.36309Zm0-3.09118h3.16888V2.60666H14.94856V5.27191Zm0-3.104h3.16888V1.31778a.8822.8822,0,0,0-.87937-.8784H14.94856V2.16789ZM6.77774,3.60764,13.107,6.72746a.219.219,0,0,1-.00244.39367l-6.33988,3.125a.21983.21983,0,0,1-.29373-.09933.21709.21709,0,0,1-.02225-.09659H6.44775V3.79686a.21945.21945,0,0,1,.21938-.21847.21717.21717,0,0,1,.11061.02925Zm5.736,3.31574L6.88743,9.69767V4.15l5.62628,2.77337Zm2.21364,7.15252H1.31813A1.31963,1.31963,0,0,1,0,12.75777V1.30137l.00091-.01615V1.26785h0L.00183,1.2514h0L.00274,1.234h0l.00092-.01645V1.217l.00152-.01554V1.20052L.007,1.185V1.18406l.00183-.01559V1.16761l.00152-.01554.00091-.00091L.0131,1.13562h0l.00183-.01646V1.11825l.00335-.01554V1.1021l.00244-.01493V1.08656L.02346,1.071V1.0701l.00335-.01553V1.05365L.03047,1.039V1.03811l.00335-.01554V1.02166L.03717,1.007l.00092-.00086L.04144.99149V.99058L.046.976V.97412L.05028.96041V.9595L.05454.94487V.943L.05972.92933V.92751L.064.91379.0649.91288.06917.89825l.00091-.001.00427-.014L.07526.8818l.00427-.014L.08044.86718l.00518-.014V.85224L.0908.83853.09689.82482.09781.823V.82208L.1036.80837.10451.80745.10969.79369.11061.79191.11579.77881.1167.77729.12279.76419l.00092-.001L.1298.74956.13041.74865.13651.7358.13742.73494l.007-.01311V.72031l.0067-.0131L.15205.70533.15905.6935.16.69167.16667.67948.16758.67791.17368.66572.18221.653.18312.65023.19013.639.19105.63652.19866.62524.19958.62342.2075.61214.20811.6097.216.59843.217.5966.22456.58533.22548.5838.2334.57253.24285.55943.24376.557.25138.54663.25321.54384.26082.53353.26265.532.27057.52073.2721.5189.28.50854.28154.50611.29038.49575.29129.49392.29982.48447.30165.48173.31018.47137.312.46985.32054.45949.32237.45766.3309.4473.33273.44547.34126.436.34309.43415.35162.42384.35437.42231.3629.41282.36473.411.37326.40159.37569.39885.38453.39032.387.38758H.38788L.38971.38423.39916.37569.401.37387.41043.36533.41287.36259.4217.35406.42414.35223.43359.34274.43542.34187.44578.33243.4476.33151.45705.32207.45949.32024.46924.31171.47167.31079.48112.30226.48386.30043.49422.2919.49575.29007.50611.28154.50793.28063l.01036-.008L.521.27118.5314.26235.53292.26082.54419.2529.546.252.5573.24345.55882.24254.57009.23492.57192.23305.5832.22609.58472.22456.596.21664.59782.21573.61.20811H.61153L.62281.19927.62463.19866l.01189-.007L.63835.19074l.01218-.007L.65206.18312l.01127-.008L.66607.17429l.01128-.007L.67978.16667.692.15966.6938.15875.70568.15265.70751.15113.7197.145.72122.14412.73433.138.73585.1362.749.13041H.74987l.01371-.007L.76449.12249.77729.11726.77912.1164.79222.1103.79374.10969.80684.10451.80867.1036.82238.0975H.8233L.8361.09232.83792.09141.85164.08623H.85346L.86626.08014H.86809L.88119.075.88271.074.89764.06978.89825.06886.91227.0646.91379.06368l.014-.00431H.92872L.94335.05515.94426.05424.95889.05088.96041.05l.014-.00335L.97534.0457.99.042H.99149l.014-.00427h.00183L1.022.03443,1.02288.03352,1.0375.03108,1.03842.03017,1.053.02742h.00153L1.0695.02407h.0006L1.08564.02072h.00092L1.10118.018H1.103L1.11855.01554h0L1.135.0128h0L1.15146.011h0L1.167.00853h.00091l.01646-.001h0L1.20052.00579,1.20143.00518,1.217.00427h.00091L1.23342.00244h.01737L1.26725.00061h.03443L1.31813,0H17.23807a1.32226,1.32226,0,0,1,1.31905,1.31778v11.44a1.31519,1.31519,0,0,1-.387.93116l-.00091.00092a1.31608,1.31608,0,0,1-.93117.38605H14.72735Z" style="fill:#a1afba;fill-rule:evenodd"/></g></svg>