<svg xmlns="http://www.w3.org/2000/svg" viewBox="0 0 18.81703 21.46243"><title>washing-machine-icon-uc-santa-barbara</title><g id="ICONS"><path d="M9.40851,6.63057A5.81377,5.81377,0,1,1,5.29812,8.33384,5.79393,5.79393,0,0,1,9.40851,6.63057ZM.44578,1.31691l-.00092,3.316H18.37735l.00182-3.30625a.88226.88226,0,0,0-.87936-.88032L16.29229.44547,1.32575.43785V.43877h0V.43785a.88325.88325,0,0,0-.88.87906h0ZM.44486,5.07233l-.007,15.065a.88213.88213,0,0,0,.87937.87932l16.175.00858a.88275.88275,0,0,0,.88-.87906l.00518-15.0738ZM0,20.13729a1.31611,1.31611,0,0,0,.38605.93025H.387a1.31228,1.31228,0,0,0,.93025.386l16.175.00884a1.31861,1.31861,0,0,0,1.31692-1.3163L18.8152,4.8627l.00091-.01041-.00091-.0097L18.817,1.32666A1.31963,1.31963,0,0,0,17.49981.00853l-1.20752-.001L1.32575,0h0A1.31806,1.31806,0,0,0,.00884,1.31691h0L0,20.13729ZM9.40851,1.0372a1.58275,1.58275,0,0,1,1.12374.46558l.01279.01371a1.58457,1.58457,0,0,1-.01279,2.23279v.001a1.5892,1.5892,0,1,1-1.12374-2.713Zm.81355.77546.01036.01066a1.15178,1.15178,0,0,1-.01036,1.61582v0a1.149,1.149,0,1,1,0-1.62648ZM9.40851,8.661a3.78368,3.78368,0,1,0,2.67588,1.10824A3.77491,3.77491,0,0,0,9.40851,8.661Zm2.36478,1.41842a3.34408,3.34408,0,1,0,.97961,2.36478,3.33607,3.33607,0,0,0-.97961-2.36478ZM13.209,8.644a5.3762,5.3762,0,1,0,1.57347,3.80022A5.362,5.362,0,0,0,13.209,8.644Z" style="fill:#a1afba;fill-rule:evenodd"/></g></svg>