<svg xmlns="http://www.w3.org/2000/svg" viewBox="0 0 18.23 18.23">
<title>abacus-icon-uc-santa-barbara</title>
<path style="fill:#a1afba;fill-rule:evenodd" fill-rule="evenodd" clip-rule="evenodd" d="M15.097,0.5H3.132c-0.236,0-0.452,0.098-0.608,0.254
	c-0.157,0.157-0.253,0.373-0.253,0.61v15.619c0,0.236,0.097,0.453,0.252,0.608l0.001,0.001c0.156,0.156,0.371,0.254,0.608,0.254
	h11.964c0.238,0,0.455-0.1,0.609-0.255c0.157-0.155,0.255-0.372,0.255-0.608V1.365c0-0.238-0.098-0.453-0.254-0.61h-0.001
	C15.552,0.598,15.335,0.5,15.097,0.5 M13.751,14.627v-1.023h0.454v2.419H4.026v-2.419h1.76v1.023c0,0.117,0.097,0.216,0.215,0.216
	c0.119,0,0.218-0.099,0.218-0.216v-1.023h0.93v1.023c0,0.117,0.096,0.216,0.216,0.216c0.119,0,0.215-0.099,0.215-0.216v-1.023h4.375
	v1.023c0,0.117,0.098,0.216,0.215,0.216c0.121,0,0.217-0.099,0.217-0.216v-1.023h0.933v1.023c0,0.117,0.095,0.216,0.213,0.216
	C13.654,14.843,13.751,14.744,13.751,14.627 M13.32,13.171h-0.933v-0.993c0-0.121-0.096-0.216-0.217-0.216
	c-0.117,0-0.215,0.095-0.215,0.216v0.993H7.581v-0.993c0-0.121-0.097-0.216-0.215-0.216c-0.12,0-0.216,0.095-0.216,0.216v0.993
	h-0.93v-0.993c0-0.121-0.099-0.216-0.218-0.216c-0.118,0-0.215,0.095-0.215,0.216v0.993h-1.76V9.373h5.206v1.025
	c0,0.12,0.096,0.216,0.214,0.216c0.12,0,0.216-0.096,0.216-0.216V9.373h0.932v1.025c0,0.12,0.097,0.216,0.216,0.216
	c0.118,0,0.215-0.096,0.215-0.216V9.373h0.932v1.025c0,0.12,0.098,0.216,0.215,0.216c0.121,0,0.217-0.096,0.217-0.216V9.373h0.933
	v1.025c0,0.12,0.095,0.216,0.213,0.216c0.121,0,0.218-0.096,0.218-0.216V9.373h0.454v3.798h-0.454v-0.993
	c0-0.121-0.097-0.216-0.218-0.216c-0.118,0-0.213,0.095-0.213,0.216V13.171z M13.32,8.942h-0.933V7.95
	c0-0.121-0.096-0.217-0.217-0.217c-0.117,0-0.215,0.096-0.215,0.217v0.992h-0.932V7.95c0-0.121-0.097-0.217-0.215-0.217
	c-0.119,0-0.216,0.096-0.216,0.217v0.992H9.662V7.95c0-0.121-0.096-0.217-0.216-0.217c-0.118,0-0.214,0.096-0.214,0.217v0.992H4.026
	V5.145h5.206v1.026c0,0.119,0.096,0.216,0.214,0.216c0.12,0,0.216-0.097,0.216-0.216V5.145h0.932v1.026
	c0,0.119,0.097,0.216,0.216,0.216c0.118,0,0.215-0.097,0.215-0.216V5.145h0.932v1.026c0,0.119,0.098,0.216,0.215,0.216
	c0.121,0,0.217-0.097,0.217-0.216V5.145h0.933v1.026c0,0.119,0.095,0.216,0.213,0.216c0.121,0,0.218-0.097,0.218-0.216V5.145h0.454
	v3.796h-0.454V7.95c0-0.121-0.097-0.217-0.218-0.217c-0.118,0-0.213,0.096-0.213,0.217V8.942z M13.32,4.714h-0.933V3.72
	c0-0.119-0.096-0.214-0.217-0.214c-0.117,0-0.215,0.096-0.215,0.214v0.993h-0.932V3.72c0-0.119-0.097-0.214-0.215-0.214
	c-0.119,0-0.216,0.096-0.216,0.214v0.993H9.662V3.72c0-0.119-0.096-0.214-0.216-0.214c-0.118,0-0.214,0.096-0.214,0.214v0.993H4.026
	v-2.39h10.179v2.39h-0.454V3.72c0-0.119-0.097-0.214-0.218-0.214c-0.118,0-0.213,0.096-0.213,0.214V4.714z M3.81,1.892h10.61
	c0.119,0,0.216,0.097,0.216,0.216V16.24c0,0.12-0.097,0.216-0.216,0.216H3.81c-0.119,0-0.216-0.096-0.216-0.216v-2.854V9.157V4.93
	V2.108C3.594,1.989,3.691,1.892,3.81,1.892 M3.132,0.07h11.964c0.357,0,0.68,0.146,0.915,0.38l0.001,0.001
	c0.233,0.233,0.379,0.558,0.379,0.914v15.619c0,0.357-0.146,0.679-0.379,0.913c-0.236,0.235-0.559,0.381-0.916,0.381H3.132
	c-0.353,0-0.676-0.146-0.911-0.378L2.22,17.897H2.218H2.217c-0.234-0.234-0.379-0.559-0.379-0.913V1.365
	c0-0.357,0.146-0.682,0.379-0.915C2.453,0.216,2.777,0.07,3.132,0.07"/>
</svg>
