<svg xmlns="http://www.w3.org/2000/svg" viewBox="0 0 21.13945 19.37067"><title>atm-icon-uc-santa-barbara</title><g id="ICONS"><path d="M13.25382,16.92271H1.31813a1.31335,1.31335,0,0,1-.93116-.387h0l-.00085-.00091L.38453,16.5333A1.31459,1.31459,0,0,1,0,15.60488V1.31813A1.31818,1.31818,0,0,1,1.31813,0H19.82162a1.3159,1.3159,0,0,1,.93086.38605L20.75339.387a1.31135,1.31135,0,0,1,.38606.93116V15.60488a1.31965,1.31965,0,0,1-1.31783,1.31783H19.133v1.6792a.7673.7673,0,0,1-.22456.54328l-.00061-.00092-.00092.00092a.764.764,0,0,1-.54175.22548H14.02258a.76521.76521,0,0,1-.54237-.22548l-.00091-.00183a.76218.76218,0,0,1-.22548-.54145v-1.6792ZM2.08506,2.97813a.21963.21963,0,0,0-.21938.21939v9.05171a.21983.21983,0,0,0,.21938.2203h9.05262a.22.22,0,0,0,.2203-.2203V3.19752a.21984.21984,0,0,0-.2203-.21939Zm8.83324.43877H2.30536v8.61386H10.9183V3.4169Zm3.543,10.10811v1.01556a.21938.21938,0,1,0,.43876,0V13.525a.21938.21938,0,1,0-.43876,0Zm0,1.72124v1.01587a.21938.21938,0,1,0,.43876,0V15.24625a.21938.21938,0,1,0-.43876,0Zm0,1.92449v1.01647a.21938.21938,0,1,0,.43876,0V17.17074a.21938.21938,0,1,0-.43876,0ZM4.89652,14.88793a.21939.21939,0,1,1,0-.43877h8.3573V11.0158a.76677.76677,0,0,1,.21238-.52865l.0131-.01371a.7642.7642,0,0,1,.54328-.22639h4.34258a.76982.76982,0,0,1,.76784.76875V16.483h.68862a.87967.87967,0,0,0,.87906-.87815V1.31813a.879.879,0,0,0-.25717-.62189H20.4426a.8753.8753,0,0,0-.621-.25747H1.31813a.88061.88061,0,0,0-.87936.87936V15.60488a.87508.87508,0,0,0,.25747.62093l.00091.001a.87447.87447,0,0,0,.621.25625H13.25382v-1.5951Zm12.88057,3.0799V16.70759h-.45248v1.26024Zm.43968-1.47962a.21925.21925,0,0,0-.21938-.21939h-.89216a.21925.21925,0,0,0-.21939.21939v1.699a.21964.21964,0,0,0,.21939.21939h.89216a.21964.21964,0,0,0,.21938-.21939v-1.699Zm-1.3224-3.87456V11.819h-.62372v.79466Zm.4406-1.015a.22061.22061,0,0,0-.2203-.21938H16.05073a.22063.22063,0,0,0-.22037.21938V12.833a.22063.22063,0,0,0,.22037.2203h1.06394a.22061.22061,0,0,0,.2203-.2203V11.59869Zm-2.87362,0v1.01679a.21938.21938,0,1,0,.43876,0V11.59869a.21938.21938,0,0,0-.43876,0Zm4.23288,7.00322V11.0158a.3303.3303,0,0,0-.32907-.32907H14.02258a.32773.32773,0,0,0-.23249.09689l-.00938.00762a.32935.32935,0,0,0-.08721.22456v7.58611a.32876.32876,0,0,0,.32908.33h4.34258a.32989.32989,0,0,0,.23248-.0969v-.001a.32774.32774,0,0,0,.09659-.23212ZM6.3926,4.53789v.78856H5.60129a.76757.76757,0,0,0-.54413.22457l.00085.00091-.00085.00092a.76632.76632,0,0,0-.22547.54236V7.17476a.764.764,0,0,0,.22547.54176L5.058,7.718a.76757.76757,0,0,0,.54328.22548H6.3926V9.68213H5.05192a.21939.21939,0,1,0,0,.43877H6.3926v.78856a.21938.21938,0,1,0,.43876,0V10.1209h.791a.76473.76473,0,0,0,.54328-.22517V9.89481l.00092.00092A.77216.77216,0,0,0,8.392,9.35245V8.27259a.76982.76982,0,0,0-.76968-.76875h-.791V5.76522H7.99715a.21939.21939,0,1,0,0-.43877H6.83136V4.53789a.21938.21938,0,1,0-.43876,0Zm.43876,3.40563V9.68213h.791a.33119.33119,0,0,0,.2331-.09573V9.58554a.3294.3294,0,0,0,.09689-.23309V8.27259a.33081.33081,0,0,0-.33-.32907ZM6.3926,7.50384V5.76522H5.60129a.32749.32749,0,0,0-.23309.0969L5.36728,5.8612a.33444.33444,0,0,0-.096.234V7.17476a.32721.32721,0,0,0,.33.32908ZM13.55273,8.6812h.83854a.21963.21963,0,0,1,.21938.21938v.33608h3.16552V8.90058a.21983.21983,0,0,1,.2203-.21938h.83793V8.36065H13.55273V8.6812ZM14.171,9.12v.337a.22061.22061,0,0,0,.2203.21938h3.6052a.21983.21983,0,0,0,.21939-.21938V9.12h.83792a.21918.21918,0,0,0,.22-.21938V8.14127a.21989.21989,0,0,0-.22-.22H13.33335a.21917.21917,0,0,0-.21938.22v.75931a.21847.21847,0,0,0,.21938.21938Z" style="fill:#a1afba;fill-rule:evenodd"/></g></svg>