<svg xmlns="http://www.w3.org/2000/svg" viewBox="0 0 19.85087 17.82277"><title>bank-icon-uc-santa-barbara</title><g id="ICONS"><path d="M.43877,5.9666H19.41119V5.03574L9.92589.4622.43877,5.03574V5.9666ZM.21847,16.03083H1.50461V8.01205H1.12983a.21757.21757,0,0,1-.21695-.21853V6.40628H.21847A.21885.21885,0,0,1,0,6.1869V4.89741H0a.21986.21986,0,0,1,.1234-.19684L9.82991.02161a.222.222,0,0,1,.19105,0l9.69073,4.672a.22064.22064,0,0,1,.13918.20384V6.1869a.22.22,0,0,1-.22029.21938h-.69283V7.79352a.21791.21791,0,0,1-.2167.21853h-.37478v8.01878h1.28431a.2207.2207,0,0,1,.22029.22v1.35256a.22.22,0,0,1-.22029.21939H.21847A.21886.21886,0,0,1,0,17.60338V16.25082a.21953.21953,0,0,1,.21847-.22ZM5.881,6.40628V7.79352a.21731.21731,0,0,1-.21664.21853H5.28928v8.01878h2.7423V8.01205H7.65777a.21759.21759,0,0,1-.217-.21853V6.40628Zm6.52788,0V7.79352a.21713.21713,0,0,1-.21573.21853h-.37569v8.01878h2.7429V8.01205h-.37478a.21713.21713,0,0,1-.21572-.21853V6.40628Zm6.09521,0H14.40254V7.57481H18.5041V6.40628Zm-6.52873,0H7.87374V7.57481h4.10163V6.40628Zm-6.527,0H1.34555V7.57481H5.44833V6.40628Zm-3.505,9.62455H4.8496V8.01205H1.94337v8.01878Zm6.5288,0H11.3787V8.01205H8.47217v8.01878Zm6.52789,0H17.9075V8.01205H15.00006v8.01878Zm4.41113.43938H.43877v.91318H19.41119Z" style="fill:#a1afba;fill-rule:evenodd"/></g></svg>