<svg xmlns="http://www.w3.org/2000/svg" viewBox="0 0 18.39959 17.91694"><title>bar-graph-icon-uc-santa-barbara</title><g id="ICONS"><path d="M11.36469,15.451V.76876a.33031.33031,0,0,0-.33-.32908H7.36489a.32781.32781,0,0,0-.23309.096.33222.33222,0,0,0-.096.2331V15.451Zm-11.14439,0H1.82759V9.28325A.76665.76665,0,0,1,2.05307,8.74H2.054a.76507.76507,0,0,1,.54237-.22547h3.6698a.75292.75292,0,0,1,.33.07434V.76876A.76723.76723,0,0,1,6.82161.22639L6.82253.22548A.765.765,0,0,1,7.36489,0H11.0347a.76984.76984,0,0,1,.76875.76876V5.45534a.75415.75415,0,0,1,.33-.07435h3.6698a.76723.76723,0,0,1,.54328.22548.061.061,0,0,1,.01311.01463.76354.76354,0,0,1,.21237.52865V15.451h1.60821a.21983.21983,0,0,1,.21938.21938v2.02809a.21885.21885,0,0,1-.21938.21846H.2203A.21905.21905,0,0,1,0,17.69848V15.67039A.22.22,0,0,1,.2203,15.451Zm11.58315,0h4.32887V6.14975a.3324.3324,0,0,0-.08708-.22456l-.00951-.00853a.32536.32536,0,0,0-.23249-.096h-3.6698a.32932.32932,0,0,0-.33.32481V15.451Zm6.15676.43968H.43968v1.58749H17.96021V15.89069ZM6.59614,15.451V9.279a.33349.33349,0,0,0-.09659-.22883l-.00884-.00884a.33049.33049,0,0,0-.22456-.08806H2.59635a.32863.32863,0,0,0-.2331.0969h.00061a.33007.33007,0,0,0-.09659.23306V15.451Z" style="fill:#a1afba;fill-rule:evenodd"/></g></svg>