<svg xmlns="http://www.w3.org/2000/svg" viewBox="0 0 21.30192 20.00235"><title>cash-register-icon-uc-santa-barbara</title><g id="ICONS"><path d="M12.47714,7.9725h.39032V3.5181H1.31874a.8801.8801,0,0,0-.87906.87845V18.68422a.8768.8768,0,0,0,.25717.621H.69776a.87367.87367,0,0,0,.621.25748h18.665a.88064.88064,0,0,0,.87845-.87845V4.39655a.87994.87994,0,0,0-.25656-.621l-.00182-.00091a.878.878,0,0,0-.62007-.25656h-.83518V7.9725h.39032a.21983.21983,0,0,1,.21938.2203v.9205a.21978.21978,0,0,1-.21938.22024H12.47714a.22037.22037,0,0,1-.21938-.22024V8.1928a.22043.22043,0,0,1,.21938-.2203ZM8.57577,16.62689a.21939.21939,0,1,1,0-.43877h1.585a.21939.21939,0,0,1,0,.43877Zm0-2.50494a.21939.21939,0,1,1,0-.43877h1.585a.21939.21939,0,0,1,0,.43877Zm0-2.50219a.21969.21969,0,1,1,0-.43938h1.585a.21969.21969,0,0,1,0,.43938ZM6.04951,16.62689a.21939.21939,0,1,1,0-.43877H7.63425a.21939.21939,0,0,1,0,.43877Zm0-2.50494a.21939.21939,0,1,1,0-.43877H7.63425a.21939.21939,0,0,1,0,.43877Zm0-2.50219a.21969.21969,0,0,1,0-.43938H7.63425a.21969.21969,0,0,1,0,.43938ZM3.52385,16.62689a.21939.21939,0,0,1,0-.43877H5.108a.21939.21939,0,1,1,0,.43877Zm0-2.50494a.21939.21939,0,0,1,0-.43877H5.108a.21939.21939,0,1,1,0,.43877Zm0-2.50219a.21969.21969,0,0,1,0-.43938H5.108a.21969.21969,0,1,1,0,.43938Zm9.34361-8.541V.376a.21972.21972,0,0,1,.38606-.14413l.09933.09842.1624.00153L13.78918.0625a.2201.2201,0,0,1,.30659,0l.27386.26936h.20476L14.8471.0625a.22115.22115,0,0,1,.30744,0l.27392.26936h.20385L15.90623.0625a.22115.22115,0,0,1,.30744,0l.27271.26936h.20476L16.96506.0625a.2203.2203,0,0,1,.30745,0l.273.26936h.20536l.273-.26936a.22116.22116,0,0,1,.30745,0l.273.26936h.15814L18.77528.32a.219.219,0,0,1,.37241.15631h.00085V3.07872h.83518a1.31315,1.31315,0,0,1,.93025.38606l.001.00091a1.317,1.317,0,0,1,.387.93086V18.68422a1.32121,1.32121,0,0,1-1.3182,1.31813H1.31874a1.31794,1.31794,0,0,1-.93116-.387L.387,19.61446h0l-.00268-.00274A1.31268,1.31268,0,0,1,0,18.68422V4.39655A1.31965,1.31965,0,0,1,1.31874,3.07872ZM3.74323,8.89391v-2.788H9.94052v2.788Zm6.41759.43963h-6.637a.21978.21978,0,0,1-.21938-.22024V5.88562a.21963.21963,0,0,1,.21938-.21939h6.637a.21906.21906,0,0,1,.21847.21939V9.1133a.2192.2192,0,0,1-.21847.22024Zm3.14724-1.361V.76636l.29373.00426A.21718.21718,0,0,0,13.7581.70786h0l.184-.18069.18465.18069a.218.218,0,0,0,.15387.06276V.77245H14.664A.22028.22028,0,0,0,14.82912.6975l.17276-.17033L15.185.70786a.21938.21938,0,0,0,.15448.06276V.77245h.3827A.22185.22185,0,0,0,15.887.6975L16.0598.52717l.18411.18069a.21752.21752,0,0,0,.1535.06276V.77245H16.781a.21893.21893,0,0,0,.16485-.07587l.17276-.17033.185.18161a.21594.21594,0,0,0,.153.06276V.77245h.38264a.21915.21915,0,0,0,.16582-.07587l.1727-.16941.1838.18069a.21821.21821,0,0,0,.1538.06276V.77245h.19356V7.9725Zm6.01142.43968V8.893H12.69653V8.41218h6.623Z" style="fill:#a1afba;fill-rule:evenodd"/></g></svg>