<svg xmlns="http://www.w3.org/2000/svg" viewBox="0 0 18.90143 16.09619"><title>certificate-icon-uc-santa-barbara</title><g id="ICONS"><path d="M10.8534,13.4531a.26324.26324,0,0,1-.02072.03626l-.43206.749,1.25414-.26265a.21915.21915,0,0,1,.26021.145l.40221,1.224,1.45037-2.51347-.06064-.00853-.00061-.00091h-.00183l-.01828-.00335-.06124-.01128-.00336-.00091-.01645-.00335-.057-.01314-.00274-.00088-.00512-.00091-.01469-.00335-.01218-.00275-.00762-.00243-.03961-.01036-.0061-.00183L13.447,12.763l-.0128-.00426-.007-.00183-.01981-.00518h0L13.3882,12.745l-.0579-.01923-.00152-.00088-.01646-.00579-.0198-.007L13.277,12.706l-.00274-.00091-.01889-.00674-.00336-.00179-.01554-.0061-.01828-.00761-.01737-.007-.00152-.00092L13.181,12.667l-.00518-.00152-.01371-.007-.01128-.00427-.007-.00335-.01707-.00792-.00085-.00091-.01829-.00766-.00523-.00362-.0128-.00579-.01219-.00609-.00609-.00278-.01737-.00941h-.00061l-.01737-.00853-.01737-.00949-.01279-.007-.00457-.00275-.018-.00944-.00183-.00092-.01554-.00944-.00756-.00427-.0095-.00518-.014-.00853-.00335-.00183-.01737-.00944-.00244-.00275L12.897,12.5195l-.00878-.0061-.00767-.00518-.01493-.00944-.00244-.00092-.01646-.01127-.0042-.00244-.02078-.014-.00183-.00092-.00609-.00426-.01554-.01128h-.00061l-.01646-.01188-.00609-.00366-.01036-.00762-.01036-.00792-.00518-.00426-.0164-.01128-.001-.00091-.01554-.011L12.71024,12.39l-.00853-.007-.01219-.00944-.00427-.00275-.01462-.01279-.00274-.001-.02072-.01733-.00762-.00609-.0131-.01127-.00244-.00244-.01463-.01219-.00365-.00248-.00854-.00788-.01127-.0104L12.585,12.2861l-.03626-.03265-.00244-.0027-.00975-.00853-.01036-.00945-.00152-.00182-.01122-.01128-.00707-.00609-.00512-.00518-.01133-.01189-.00152-.00095-.00092-.00087v-.00092h-.00091l-.00853-.00853-.0103-.01036-.001-.00183-.03626-.03808-.00792-.00854-.01036-.01036-.00152-.00182-.01646-.0189-.00517-.00609-.01036-.01127-.00275-.00335-.03443-.04057-.00518-.00609-.01036-.01307-.00091-.00152c-.02682-.03291-.05363-.06734-.07861-.103l-.00336-.0043-.00518-.00758-.00975-.014-.00061-.00091c-.01493-.02224-.02955-.04388-.04418-.06734L12.174,11.8025l-.00518-.00941-.00335-.00426-.00793-.014-.00335-.00427-.014-.02315h0l-.00854-.015-.00512-.00849-.0028-.0061-.00762-.01371-.00274-.00335-.00579-.01128-.007-.0131-.00091-.00187-.01219-.0222-.00335-.00609-.00762-.01463-.00177-.00278-.00523-.01184-.0061-.01219-.00183-.00274-.0067-.01463-.00366-.00762-.00426-.007-.00671-.01553v-.00183l-.007-.0128-.00518-.01219-.00183-.00335-.0061-.01463-.00329-.007-.00341-.00793L12.0073,11.482l-.00092-.00152-.00609-.014L10.8534,13.4531Zm3.21976-5.08727a2.238,2.238,0,0,0-1.57286.64444l-.0128.0128a2.25341,2.25341,0,0,0-.64352,1.83886l-1.3163,2.28037H1.31783a.88062.88062,0,0,1-.87845-.87845V1.31874a.875.875,0,0,1,.25747-.621L.69776.69685A.87441.87441,0,0,1,1.31783.43938H17.5833a.88062.88062,0,0,1,.87845.87936V12.26385a.87853.87853,0,0,1-.25747.621v.00092a.87827.87827,0,0,1-.58533.25564l-1.3163-2.27946a2.24336,2.24336,0,0,0-2.22949-2.4961Zm2.07287,3.1015-.01274.0302-.00432.00884-.00274.00609-.00671.01554-.00091.00332-.0061.01218-.01371.02929-.00365.00854-.00427.00609-.007.01463-.00061.00365-.00609.01128-.007.01279v.00183l-.00853.01463-.00366.00761-.00426.007-.00762.01463v.00183l-.00792.01218-.0061.01128-.00152.00335-.00792.01463-.00335.00609-.00427.00758-.00884.015-.00085.00061-.00768.0131-.00609.01036-.00244.00335-.00792.014-.00329.00579-.0061.00788-.00889.01375v.00091l-.00854.01311-.00609.00944-.00244.00427-.00944.01371-.00366.00518-.00518.00792-.00944.01371v.00092l-.00945.0131-.00609.00853-.00336.00427-.00944.01306-.00274.0043-.007.00854-.00945.0131v.00091l-.01036.01276-.00609.008-.00421.00518-.0095.0128-.00269.00274-.00767.01036-.00945.011v.00179l-.0103.01219-.00609.007-.00524.00514-.01036.01284-.00183.00274-.00853.00945-.00853.01127-.00183.00153-.01036.01218-.0061.0061-.00512.00609-.01041.01189-.00275.00274-.00853.00944-.00944.01036-.00183.00183-.01128.01124-.00579.00674-.00518.00518-.01127.01219-.00183.00183-.00944.00944-.00945.00945.00092.00087a2.24269,2.24269,0,0,1-1.21783.6262h-.00189c-.02072.00426-.04052.007-.0621.00944l1.45092,2.51347.40251-1.224a.21866.21866,0,0,1,.25991-.145l1.25323.26265-.43359-.75322a.18965.18965,0,0,1-.01615-.02864l-1.149-1.98912Zm-.79709-2.13316a1.79369,1.79369,0,0,1,.52865,1.27486,1.817,1.817,0,0,1-.0198.26509l-.00092.01036-.00274.01036-.00092.01127-.00152.00945-.00274.0128-.00152.007c-.00458.02682-.01036.05454-.01646.081h0l-.00426.02015-.00092.00153-.00426.01828-.00092.00426-.00421.01463-.00188.00609-.00335.01372-.0061.02011-.00274.00944L15.799,11.134a1.79919,1.79919,0,0,1-.45.75139V11.8845a1.81264,1.81264,0,0,1-.9787.50459l-.00762.00091-.01462.00244h-.00518l-.01737.00274-.00335.00061-.0192.00274h-.00152l-.02011.00244h-.00152l-.02164.00274-.01828.00183-.00518.00061h-.01554l-.0067.00091-.014.00092-.00859.00182h-.01127l-.0128.00092H14.157l-.01371.00061h-.007l-.01645.00091h-.0259l-.02072.00092-.02163-.00092h-.025l-.01645-.00091h-.00665l-.01407-.00061h-.00945l-.01127-.00092h-.01128l-.00944-.00182-.01371-.00092-.00695-.00091h-.01652l-.00426-.00061-.018-.00183-.00274-.00095L13.866,12.401h-.00091l-.02072-.00244h-.00091l-.0189-.00274-.00426-.00061-.01645-.00274h-.00518L13.78406,12.39l-.008-.00091-.01219-.00275-.0103-.00152-.01042-.00183-.01188-.00183-.00793-.00243-.01371-.00275-.00609-.00091-.01645-.00335-.00336-.00092-.01828-.00426H13.664l-.0192-.00518H13.6439l-.019-.00431-.00336-.00087-.01645-.00427L13.6,12.35008l-.01371-.00335-.007-.00274-.04235-.01188-.00853-.00275-.01311-.00426-.00609-.00183-.01457-.00518-.00432-.00152-.01737-.00522-.00091-.00179-.01981-.0061-.018-.007-.00182-.00061-.01737-.007-.00427-.00092-.01365-.00609-.00609-.00244-.01987-.00792-.01036-.00426-.01036-.00518-.00883-.00336-.01128-.00522-.0067-.0027-.0131-.00609-.01981-.00949-.00244-.00179-.01736-.00761H13.27l-.01737-.00945-.00061-.00091h-.00274l-.01737-.00945-.01371-.00792-.00518-.00248-.01219-.007-.0067-.00335-.0103-.00609-.00889-.00518-.00854-.00518-.01036-.0061-.007-.00335-.01189-.007-.00457-.00335-.01371-.00883-.00244-.00153-.01584-.00975-.00152-.00061-.01646-.01036-.00091-.00091-.01463-.01036-.00274-.00092-.01371-.00944-.00427-.00366-.01219-.00762-.00518-.00426-.01036-.00792-.00761-.00522-.00884-.0061-.00853-.00666-.00609-.00518-.01128-.00792-.00518-.00335-.01188-.0104-.00366-.00179-.0128-.01128L12.9409,12.014l-.01463-.0128h0l-.01554-.01219-.00183-.00091-.01279-.01192-.00366-.00271-.01128-.01035-.00512-.00427-.01041-.00853-.00518-.0061-.00945-.007-.02834-.02773L12.81323,11.9l-.00457-.00422-.01036-.01036-.00147-.00092-.0028-.00244-.01219-.0131-.00152-.00091-.00177-.00244a1.82466,1.82466,0,0,1-.31969-.45008l-.00244-.00423-.032-.06825-.00518-.01127-.00274-.007-.00762-.01893-.007-.01459L12.401,11.2879l-.00579-.01737-.00183-.00183-.007-.018v-.00092l-.00761-.01919V11.23l-.0061-.01828-.00183-.00244-.00518-.01646-.00146-.00426-.00463-.01493-.00244-.0067-.00335-.01311-.00366-.00761-.00335-.01219-.00274-.00945-.00335-.00944L12.3379,11.103l-.00244-.00792-.00335-.01372-.00183-.00609-.00427-.01463-.00091-.00426-.00427-.01828-.00518-.02168h0l-.00426-.02068-.00092-.00065-.00365-.01915-.00153-.00335-.00274-.01646-.00091-.00518-.00336-.01462-.00091-.00792-.00329-.02225-.0028-.01127-.00061-.01036a1.80823,1.80823,0,0,1,.50763-1.55031l.00975-.01219a1.80346,1.80346,0,0,1,2.54089.01219Zm-5.075,4.24751H1.31783A1.32068,1.32068,0,0,1,0,12.26385V1.31874A1.31767,1.31767,0,0,1,.38666.38758h0L.38758.38666.38946.38514A1.316,1.316,0,0,1,1.31783,0H17.5833a1.32068,1.32068,0,0,1,1.31813,1.31874V12.26385a1.31413,1.31413,0,0,1-.387.93025l-.00091.00061a1.307,1.307,0,0,1-.65724.35772l.514.88972h-.00092a.21645.21645,0,0,1,.025.15444.21925.21925,0,0,1-.259.17037l-1.54878-.32329-.493,1.50126h-.001a.21853.21853,0,0,1-.39819.04144l-1.62136-2.80872-1.62192,2.80872a.21834.21834,0,0,1-.39732-.04144H12.053l-.49325-1.50126-1.54854.32329a.21975.21975,0,0,1-.259-.17037.21433.21433,0,0,1,.03114-.1648l.49057-.85011Zm-.49057.85011.138-.09419a.216.216,0,0,0-.138.09419Zm-6.15682-4.59h5.824a.21756.21756,0,1,0,0-.43511h-5.824a.21757.21757,0,1,0,0,.43511ZM9.45056,7.637h-5.824a.221.221,0,0,0,0,.44208h5.824a.22106.22106,0,0,0,0-.44208Zm-5.824-3.94647H15.27459a.21984.21984,0,0,0,0-.43968H3.62653a.21984.21984,0,1,0,0,.43968Z" style="fill:#a1afba;fill-rule:evenodd"/></g></svg>