<svg xmlns="http://www.w3.org/2000/svg" viewBox="0 0 22.32421 20.59417"><title>credit-card-icon-uc-santa-barbara</title><g id="ICONS"><path d="M21.00639,9.192H5.00417a.88064.88064,0,0,0-.87845.87844V19.276a.87132.87132,0,0,0,.25754.62006l.00085.00183a.87415.87415,0,0,0,.62006.25656H21.00639a.88169.88169,0,0,0,.879-.87845V10.07045a.87739.87739,0,0,0-.25747-.621h-.00061a.87686.87686,0,0,0-.621-.25747Zm-19.76891-.639L18.39084,3.95727l-.57435-2.14478L.6622,6.40827l.57528,2.14478ZM18.5048,4.3811,19.677,8.75263H5.00417A1.32068,1.32068,0,0,0,3.686,10.07045v5.15918a.88326.88326,0,0,1-.83518-.65145l-1.50034-5.601L18.5048,4.3811ZM.54825,5.98407l-.07953-.297A.8765.8765,0,0,1,.551,5.03072l.00579-.0095a.87547.87547,0,0,1,.53292-.41037L16.54589.46846a.87921.87921,0,0,1,.65754.08227l.01036.00609a.88167.88167,0,0,1,.40921.53353l.07953.29708L.54825,5.98407ZM20.216,11.11466V12.5434H16.914V11.11466ZM16.69367,10.675h3.74171a.21964.21964,0,0,1,.21938.2203v1.86836a.21941.21941,0,0,1-.21938.21938H16.69367a.2198.2198,0,0,1-.21939-.21938V10.89528a.22.22,0,0,1,.21939-.2203Zm-8.2665,2.288v1.79072H6.14954V12.963Zm-2.497-.43877h2.7164a.21983.21983,0,0,1,.21939.21938v2.22949a.2198.2198,0,0,1-.21939.22H5.93015a.22.22,0,0,1-.22029-.22V12.74358a.22.22,0,0,1,.22029-.21938Zm11.3717,5.53913a.21938.21938,0,1,1,0-.43876h3.13353a.21938.21938,0,1,1,0,.43876Zm-3.79107.00092a.21984.21984,0,0,1,0-.43968h3.13383a.21984.21984,0,1,1,0,.43968Zm-3.79077,0a.21984.21984,0,0,1,0-.43968h3.13353a.21984.21984,0,0,1,0,.43968Zm-3.78986,0a.21984.21984,0,1,1,0-.43968H9.06277a.21984.21984,0,1,1,0,.43968ZM3.686,15.66839a1.3217,1.3217,0,0,1-1.25841-.97625L.04458,5.80039a1.31672,1.31672,0,0,1,.12553-.9857L.17773,4.801a1.31591,1.31591,0,0,1,.799-.614L16.43284.04523a1.3128,1.3128,0,0,1,.98632.12462l.014.00762a1.31269,1.31269,0,0,1,.614.79983l.13559.50367.00092.00574.00183.00523.68466,2.55765.00183.00609.00182.00518,1.2575,4.69177h.8751a1.31478,1.31478,0,0,1,.93085.38666v.00092a1.31248,1.31248,0,0,1,.387.93024V19.276a1.32121,1.32121,0,0,1-1.31782,1.31813H5.00417a1.31352,1.31352,0,0,1-.9275-.38453l-.00274-.00244h0L4.073,20.20629a1.31552,1.31552,0,0,1-.387-.93025Z" style="fill:#a1afba;fill-rule:evenodd"/></g></svg>