<svg xmlns="http://www.w3.org/2000/svg" viewBox="0 0 17.45319 17.45228"><title>dollar-icon-uc-santa-barbara</title><g id="ICONS"><path d="M6.0748,12.64838a.21987.21987,0,0,1,0-.43973h4.20607a.879.879,0,0,0,.87845-.8784V9.82473a.87511.87511,0,0,0-.25747-.621V9.20193a.881.881,0,0,0-.621-.25565H7.17324a1.31394,1.31394,0,0,1-.93025-.387l-.00091-.001-.00061-.00056L6.2397,8.556a1.31338,1.31338,0,0,1-.38429-.9275V6.122A1.31965,1.31965,0,0,1,7.17324,4.80389h3.82794a.21985.21985,0,0,1,0,.43969H7.17324a.8801.8801,0,0,0-.87906.87844V7.62846a.87573.87573,0,0,0,.25717.62006l.00091.00092a.87624.87624,0,0,0,.621.25711h3.10763a1.31394,1.31394,0,0,1,.93025.38611l.00091.00086a1.31812,1.31812,0,0,1,.387.93121v1.50552a1.32014,1.32014,0,0,1-1.31813,1.31813Z" style="fill:#a1afba;fill-rule:evenodd"/><path d="M8.50691,3.31056a.21984.21984,0,1,1,.43968,0V14.14233a.21984.21984,0,0,1-.43968,0Z" style="fill:#a1afba;fill-rule:evenodd"/><path d="M8.72721.43968a8.286,8.286,0,1,0,5.85937,2.42688A8.26288,8.26288,0,0,0,8.72721.43968ZM2.55673,2.55577A8.72293,8.72293,0,1,1,0,8.72593,8.69944,8.69944,0,0,1,2.55673,2.55577Z" style="fill:#a1afba;fill-rule:evenodd"/><path d="M8.72721,14.98634A6.23964,6.23964,0,1,0,6.332,14.51218a6.25421,6.25421,0,0,0,2.39525.47416Zm2.56069-.06916a6.70177,6.70177,0,1,1,2.17677-1.45372A6.6797,6.6797,0,0,1,11.2879,14.91718Z" style="fill:#a1afba;fill-rule:evenodd"/></g></svg>