<svg xmlns="http://www.w3.org/2000/svg" viewBox="0 0 17.99982 17.99982"><title>dollar-sign-magnifying-glass-icon-uc-santa-barbara</title><g id="ICONS"><path d="M7.26038,3.905a.2203.2203,0,0,1,.4406,0v.911H8.942a.21987.21987,0,0,1,0,.43973H7.701V7.2613h.982A.76815.76815,0,0,1,9.45178,8.03V9.37652a.76916.76916,0,0,1-.2245.54323H9.22539a.76647.76647,0,0,1-.54237.22547H7.701v.912a.2203.2203,0,0,1-.4406,0v-.912h-1.531a.21938.21938,0,0,1,0-.43876h1.531V7.701h-.982A.77163.77163,0,0,1,5.736,7.4755l-.00091-.00183a.76425.76425,0,0,1-.22457-.54236V5.58484a.76211.76211,0,0,1,.22457-.54145V5.0415A.76852.76852,0,0,1,6.27833,4.816h.982V3.905Zm3.866-.06912a5.1558,5.1558,0,1,0-7.29231,7.2905l.00085.001.00091-.001a5.1516,5.1516,0,0,0,7.29055.001h0v-.001a5.14966,5.14966,0,0,0,0-7.2905ZM9.62034,2.31054a5.59439,5.59439,0,0,0-6.09527,9.12605v.00056a5.59181,5.59181,0,0,0,7.91152-.00056v.00056A5.59677,5.59677,0,0,0,9.62034,2.31054ZM7.48068.43968a7.041,7.041,0,1,0,3.891,12.90982l.00183-.00061.00092-.00092.00182-.00091.00762-.00609a7.04063,7.04063,0,0,0,1.07529-.8818l.00707-.0061q.11644-.11655.22633-.23827l.00152-.00092c.05271-.05789.10451-.11761.15631-.17794l.00945-.01128.00457-.00518A7.0418,7.0418,0,0,0,7.48068.43968ZM2.1914,2.1914a7.481,7.481,0,0,0,9.28237,11.61606L15.281,17.61468v-.00091l.00091.00091a1.31785,1.31785,0,0,0,1.862,0l.47076-.46984-.00091-.00092h.00091a1.31844,1.31844,0,0,0,.01219-1.85013l-.01219-.0128-3.80722-3.80728A7.48078,7.48078,0,0,0,2.1914,2.1914Zm11.36566,9.65349,3.74683,3.746.01036.01036a.8835.8835,0,0,1-.00938,1.23342l-.001-.00091-.46985.47076a.88314.88314,0,0,1-1.24287,0h0L11.84428,13.557a7.52914,7.52914,0,0,0,1.71278-1.71211ZM7.701,7.701V9.70646h.982a.33247.33247,0,0,0,.2331-.09684h0a.32864.32864,0,0,0,.09689-.2331V8.03a.32762.32762,0,0,0-.09689-.23248A.331.331,0,0,0,8.683,7.701Zm-.4406-.43968V5.25576h-.982a.33008.33008,0,0,0-.23211.09654l-.001-.00056a.33332.33332,0,0,0-.096.2331V6.93131a.32927.32927,0,0,0,.32907.33Z" style="fill:#a1afba;fill-rule:evenodd"/></g></svg>