<svg xmlns="http://www.w3.org/2000/svg" viewBox="0 0 17.45143 17.45228"><title>euro-icon-uc-santa-barbara</title><g id="ICONS"><path d="M5.86425,8.946a.21984.21984,0,1,1,0-.43968H11.588a.21984.21984,0,0,1,0,.43968Z" style="fill:#a1afba;fill-rule:evenodd"/><path d="M10.77936,4.82035a.2203.2203,0,0,1,0,.44059H9.15714A2.75163,2.75163,0,0,0,6.40966,8.00751V9.44477a2.75321,2.75321,0,0,0,2.74748,2.74748h1.62222a.21939.21939,0,1,1,0,.43877H9.15714A3.19222,3.19222,0,0,1,5.97,9.44477V8.00751A3.19378,3.19378,0,0,1,9.15714,4.82035Z" style="fill:#a1afba;fill-rule:evenodd"/><path d="M4.735,9.62175a.21982.21982,0,1,1,0-.43963h5.72378a.21982.21982,0,0,1,0,.43963Z" style="fill:#a1afba;fill-rule:evenodd"/><path d="M8.72538.43968a8.28609,8.28609,0,1,0,5.86028,2.42688A8.2613,8.2613,0,0,0,8.72538.43968ZM2.55491,2.55577A8.72732,8.72732,0,1,1,0,8.72593,8.7026,8.7026,0,0,1,2.55491,2.55577Z" style="fill:#a1afba;fill-rule:evenodd"/><path d="M8.72538,14.98634a6.23544,6.23544,0,1,0-2.39525-.47416,6.25909,6.25909,0,0,0,2.39525.47416Zm2.56161-.06916a6.70906,6.70906,0,1,1,2.17592-1.45372A6.674,6.674,0,0,1,11.287,14.91718Z" style="fill:#a1afba;fill-rule:evenodd"/></g></svg>