<svg xmlns="http://www.w3.org/2000/svg" viewBox="0 0 20.63761 20.03735"><title>finance-icon-uc-santa-barbara</title><g id="ICONS"><path d="M6.02855,0H20.41822a.22.22,0,0,1,.21939.22024V17.21639a.2198.2198,0,0,1-.21939.21938H13.58869c-.09842.11066-.19958.21761-.30409.32212A7.7817,7.7817,0,1,1,5.80849,4.7262V.22024A.21993.21993,0,0,1,6.02855,0ZM7.782,17.796a5.516,5.516,0,1,0-2.12041-.419,5.51947,5.51947,0,0,0,2.12041.419Zm2.28616-.014a5.98752,5.98752,0,1,0-2.28616.4537,5.96936,5.96936,0,0,0,2.28616-.4537Zm3.2484-.70111.00091-.00183.00183-.00183.00068-.00061.00267-.00274.00183-.00183.00159-.00152v-.00183l.00694-.007.0061-.00676.00609-.00695h0l.00671-.00792.00609-.0067.00518-.007h.00091l.0061-.00762.00609-.007a7.376,7.376,0,0,0,.982-1.48724,7.32269,7.32269,0,0,0,.766-3.26856,7.47479,7.47479,0,0,0-.05454-.90064,7.33215,7.33215,0,0,0-.16149-.87327l-.00518-.02163a7.33364,7.33364,0,0,0-1.81448-3.2804.1739.1739,0,0,1-.01981-.0198A7.34281,7.34281,0,0,0,6.92338,4.963a7.0555,7.0555,0,0,0-.84462.1493l-.007.00183A7.34314,7.34314,0,1,0,12.9738,17.44771q.17734-.17735.34279-.36686Zm-5.75395-8.974v.63834H6.5227A1.31809,1.31809,0,0,0,5.20457,10.063v1.09448A1.32222,1.32222,0,0,0,6.5227,12.47526H7.56264v2.852H5.424a.21987.21987,0,0,0,0,.43973H7.56264v.63652a.21939.21939,0,1,0,.43877,0V15.767H9.04135a1.32081,1.32081,0,0,0,1.31783-1.31782v-1.0954a1.311,1.311,0,0,0-.387-.9303V12.4226a1.31643,1.31643,0,0,0-.93086-.38666H8.00141V9.184H9.733a.21939.21939,0,0,0,0-.43877H8.00141V8.10684a.21939.21939,0,1,0-.43877,0Zm.43877,4.36842v2.852H9.04135a.87882.87882,0,0,0,.87821-.87809v-1.0954a.87453.87453,0,0,0-.25632-.62006l-.00091-.00183a.88129.88129,0,0,0-.621-.25661Zm-.43877-.43932V9.184H6.5227a.88012.88012,0,0,0-.87936.87906v1.09448a.87952.87952,0,0,0,.87936.87845Zm12.6362,2.00035H15.35747a7.73682,7.73682,0,0,1-1.40436,2.95985h6.24573V14.03629Zm0-3.39892h-4.8042c.04662.21847.08288.44059.11061.66516a7.743,7.743,0,0,1,.01645,1.76116c-.01889.17941-.04418.35741-.07435.53383h4.75149V10.63737Zm0-3.39954h-6.4703a7.80812,7.80812,0,0,1,.86474,1.25323,7.68677,7.68677,0,0,1,.69441,1.70663h4.91115V7.23783Zm0-3.39953H6.24726V4.625h0c.20536-.04052.41347-.07343.62615-.09841a7.76682,7.76682,0,0,1,6.45445,2.27245h6.871V3.8383Zm0-3.39953H6.24726V3.39953H20.19884Z" style="fill:#a1afba;fill-rule:evenodd"/></g></svg>