<svg xmlns="http://www.w3.org/2000/svg" viewBox="0 0 19.21862 19.72991"><title>gavel-icon-uc-santa-barbara</title><g id="ICONS"><path d="M9.77293,9.08736l1.078-1.07894.00434-.00432.94571-.94573L11.44238,6.701,7.89781,3.15516l-.35832-.35838L4.56135,5.775l.35924.35741L8.46516,9.67817l.35864.35827.94913-.94908ZM1.40527,15.19384H14.064a.21992.21992,0,0,1,.22.2203v1.8282h.9659a.22016.22016,0,0,1,.22.2203v2.04691a.22.22,0,0,1-.22.22036H.21938A.21989.21989,0,0,1,0,19.50955V17.46264a.22.22,0,0,1,.21938-.2203h.96651v-1.8282a.21983.21983,0,0,1,.21938-.2203Zm12.43936.43969H1.62557v1.60881H13.84463V15.63353ZM.43968,19.29017H15.03053V17.68111H.43968v1.60906Zm6.79145-8.68876L3.99651,7.36672l.76869-.76784L7.999,9.83266l-.76784.76875Zm1.07864-.458-.76876.76876.35955.35771a.22071.22071,0,0,1,0,.3108l-.86809.86809a1.32081,1.32081,0,0,1-1.86324,0l-.00061-.00092v.00092L2.15,9.42923l-.01219-.01279A1.31872,1.31872,0,0,1,2.15,7.56533l.86711-.86712a.219.219,0,0,1,.30987,0l.35925.35827.76784-.76839-.35833-.35772a.22014.22014,0,0,1,0-.3108l3.288-3.28831a.21939.21939,0,0,1,.31018,0l.35924.35863.76784-.76876-.35832-.35772a.22013.22013,0,0,1,0-.31079L9.3299.38453A1.32108,1.32108,0,0,1,11.181.37234l.0128.01219L14.21241,3.4041h0a1.31779,1.31779,0,0,1,0,1.86379l-.86626.86724a.22014.22014,0,0,1-.3108,0l-.35863-.35839-.76876.76851.35955.35772a.22068.22068,0,0,1,0,.31079l-.95036.95006,7.67691,7.6769.0128.01371a.76877.76877,0,0,1-.0128,1.07285l-.30165.30135H18.6918a.76614.76614,0,0,1-1.08565,0h-.00176L9.92833,9.55294l-.94914.94914a.22013.22013,0,0,1-.31079,0l-.35863-.35863Zm-1.2297.92781.354.35406-.71269.71269a.88089.88089,0,0,1-1.24287,0h.00091L2.46082,9.11844l-.01134-.01036a.88115.88115,0,0,1,.01134-1.2316l.71171-.71269.35406.35406.00427.00427,3.54487,3.54579.00434.00335ZM9.28328,1.76208l-.355-.35406.71238-.7127A.88236.88236,0,0,1,10.8732.68405l.01036.01127,3.019,3.01861h.00061a.88246.88246,0,0,1-.00061,1.24292l-.71178.71178-.35491-.35315-.00372-.00426L9.28755,1.76543l-.00427-.00335Zm2.3148,4.47238L8.36339,2.99977l.76876-.76785,3.23378,3.2347-.76785.76784ZM11.00636,8.474,18.683,16.1506l.00938.00884a.32721.32721,0,0,1,.08653.22456.331.331,0,0,1-.09591.2331l-.30142.30073v.00061a.33366.33366,0,0,1-.46741.00092l.001-.00092v-.00061l-7.67667-7.676Z" style="fill:#a1afba;fill-rule:evenodd"/></g></svg>