<svg xmlns="http://www.w3.org/2000/svg" viewBox="0 0 11.56091 18.76005"><title>mobile-money-icon-uc-santa-barbara</title><g id="ICONS"><path d="M5.55985,4.83345a.21984.21984,0,0,1,.43968,0V5.913H7.43071a.21984.21984,0,1,1,0,.43968H5.99953v2.369H7.10925a.89873.89873,0,0,1,.63682.26448l.00061.00086a.89772.89772,0,0,1,.26448.63657v1.444a.89748.89748,0,0,1-.26448.63652l-.00061.00086a.89857.89857,0,0,1-.63682.26453H5.99953V13.05a.21984.21984,0,0,1-.43968,0V11.96951H3.76852a.21938.21938,0,1,1,0-.43876H5.55985V9.1614H4.45075a.89749.89749,0,0,1-.63652-.26509L3.81271,8.8954a.89806.89806,0,0,1-.26448-.63657V6.81552A.89688.89688,0,0,1,3.81271,6.179l.00152-.00091A.895.895,0,0,1,4.45075,5.913h1.1091V4.83345Zm-.9726,12.47531a.21847.21847,0,1,1,0-.43693l2.391.00086a.219.219,0,0,1,0,.4379l-2.391-.00183ZM1.31813,0A1.32016,1.32016,0,0,0,0,1.31813V17.44192a1.31588,1.31588,0,0,0,.38453.92842l.00183.00183H.387v.00091a1.3179,1.3179,0,0,0,.93116.387h8.92465a1.32121,1.32121,0,0,0,1.31813-1.31813V1.31813a1.31333,1.31333,0,0,0-.387-.93025L11.17309.387A1.31655,1.31655,0,0,0,10.24278,0Zm8.92465.43968H1.31813a.8822.8822,0,0,0-.87936.87845V17.44192a.87332.87332,0,0,0,.25747.62006l.00091.00183a.87834.87834,0,0,0,.621.25656h8.92465a.88179.88179,0,0,0,.87851-.87845V1.31813a.87473.87473,0,0,0-.25723-.62006L10.86315.69618a.87816.87816,0,0,0-.62037-.2565ZM1.337,1.78615a.22057.22057,0,0,0-.22.22024V15.877a.2198.2198,0,0,0,.22.21938h8.886a.22041.22041,0,0,0,.22029-.21938V2.00639a.22119.22119,0,0,0-.22029-.22024Zm8.66657.43963H1.55641v13.4309h8.44718V2.22578ZM5.99953,9.1614v2.36935H7.10925a.4632.4632,0,0,0,.32755-.13559h.00092a.46638.46638,0,0,0,.13467-.32756v-1.444A.46421.46421,0,0,0,7.43772,9.297L7.4368,9.29608a.46346.46346,0,0,0-.32755-.13468Zm-.43968-.43968v-2.369H4.45075a.46152.46152,0,0,0-.32725.13559H4.12259a.46458.46458,0,0,0-.13468.32725V8.25883a.46523.46523,0,0,0,.13468.3273H4.1235a.46152.46152,0,0,0,.32725.13559Z" style="fill:#a1afba;fill-rule:evenodd"/></g></svg>