<svg xmlns="http://www.w3.org/2000/svg" viewBox="0 0 12.18006 18.33743"><title>money-bag-icon-uc-santa-barbara</title><g id="ICONS"><path d="M4.39956,2.03052,2.91323.36533A.21794.21794,0,0,1,3.07564.00091V0H9.10351a.21978.21978,0,0,1,.15722.373L7.78111,2.03143v1.242l3.91966,3.239a1.284,1.284,0,0,1,.47929,1.01648V17.0193a1.31494,1.31494,0,0,1-.387.93116l-.01371.0131a1.31561,1.31561,0,0,1-.91745.37387H1.31783a1.31233,1.31233,0,0,1-.92995-.387v-.00091H.387l-.00183-.00249A1.31323,1.31323,0,0,1,0,17.0193V7.52882A1.28162,1.28162,0,0,1,.47929,6.51234L4.39956,3.27339V2.03052Zm2.941.20622H4.83832V3.1058h2.5022V2.23674ZM5.86973,7.67843v.983H4.77617a.768.768,0,0,0-.54328.22517l.00091.00092H4.23289a.76934.76934,0,0,0-.22518.54322V10.932a.76564.76564,0,0,0,.22518.54237l.00091.00086a.76757.76757,0,0,0,.54237.22547H5.86973v2.161H4.2271a.21939.21939,0,1,0,0,.43877H5.86973v.98387a.21984.21984,0,0,0,.43968,0v-.98387H7.403a.7686.7686,0,0,0,.54322-.22548h0a.76537.76537,0,0,0,.22517-.54328V12.02979a.77077.77077,0,0,0-.76839-.7687H6.30941V9.10077H7.66106a.21969.21969,0,1,0,0-.43938H6.30941v-.983a.21984.21984,0,1,0-.43968,0Zm.43968,4.02228v2.161H7.403a.33341.33341,0,0,0,.234-.096l-.00091-.00092a.32934.32934,0,0,0,.09659-.23309V12.02979a.32988.32988,0,0,0-.32963-.32908Zm-.43968-.43962V9.10077H4.77617a.32864.32864,0,0,0-.23219.09689l-.00091-.00091a.33316.33316,0,0,0-.096.234V10.932a.32771.32771,0,0,0,.32908.32908ZM3.56529.43877,4.778,1.798H7.40115L8.61386.43877Zm7.85637,6.4121L7.421,3.54548H4.7591L.7584,6.85087a.84416.84416,0,0,0-.31872.678V17.0193a.87994.87994,0,0,0,.25717.62128H.69776a.87254.87254,0,0,0,.62007.25717h9.5441a.87686.87686,0,0,0,.61062-.24681l.00975-.01036a.88049.88049,0,0,0,.25808-.62128V7.52882a.89526.89526,0,0,0-.07953-.37661A.87985.87985,0,0,0,11.42166,6.85087Z" style="fill:#a1afba;fill-rule:evenodd"/></g></svg>