<svg xmlns="http://www.w3.org/2000/svg" viewBox="0 0 22.47038 18.15187"><title>money-briefcase-icon-uc-santa-barbara</title><g id="ICONS"><path d="M2.06861,4.32216H20.40086a.21994.21994,0,0,1,.22029.21994v10.255a.21983.21983,0,0,1-.22029.21938H2.06861a.21964.21964,0,0,1-.21939-.21938V4.5421a.21976.21976,0,0,1,.21939-.21994Zm.121,11.54355H20.27989a.8747.8747,0,0,0,.621-.25656l.00091-.00091a.87532.87532,0,0,0,.25747-.621V3.473H1.31112V14.9872a.8801.8801,0,0,0,.87845.87851Zm18.09032.43937a1.31275,1.31275,0,0,0,.93116-.38666v-.00091h0l.0025-.00183a1.314,1.314,0,0,0,.38447-.92848V3.473h.65206a.22.22,0,0,0,.2203-.2203V.2203A.22.22,0,0,0,22.25008,0H.21938A.21983.21983,0,0,0,0,.2203V3.25267a.21983.21983,0,0,0,.21938.2203H.87144V14.9872a1.32068,1.32068,0,0,0,1.31813,1.31788H7.40115v1.078a.76989.76989,0,0,0,.22548.54328l.01463.0131a.76819.76819,0,0,0,.52926.21238H14.227a.76508.76508,0,0,0,.54237-.22548l.00091-.00091a.76564.76564,0,0,0,.22457-.54237v-1.078ZM14.81084,1.51679a.21969.21969,0,0,1,0,.43938h-7.155a.21969.21969,0,1,1,0-.43938ZM8.17052,17.71219A.33229.33229,0,0,1,7.946,17.625l-.00854-.00944a.32887.32887,0,0,1-.09659-.23249v-1.078h6.71528v1.078a.32914.32914,0,0,1-.096.23249.32586.32586,0,0,1-.2331.09659ZM22.03069.43968V3.0342H.43968V.43968Zm-9.95,5.29538H13.213a.21985.21985,0,0,0,0-.43969H12.08073a.21985.21985,0,0,0,0,.43969Zm6.34324,0h1.13134a.21985.21985,0,1,0,0-.43969H18.424a.21985.21985,0,1,0,0,.43969Zm0,3.18106h1.13134a.21939.21939,0,1,0,0-.43877H18.424a.21939.21939,0,1,0,0,.43877Zm-6.34324,0H13.213a.21939.21939,0,1,0,0-.43877H12.08073a.21939.21939,0,0,0,0,.43877Zm2.59543-4.15463V9.45h.92233V4.76149Zm0,5.12723v4.689h.92233v-4.689Zm2.28379,4.689v-4.689h-.92178v4.689Zm0-5.12779V4.76149h-.92178V9.45Zm.43962-4.68846V9.45h2.7819V4.76149Zm0,5.12723v4.689h2.7819v-4.689Zm-3.16218,4.689v-4.689H11.45457v4.689Zm0-5.12779V4.76149H11.45457V9.45Zm-2.15666,1.412H13.213a.21939.21939,0,1,0,0-.43877H12.08073a.21939.21939,0,0,0,0,.43877Zm6.34324,0h1.13134a.21939.21939,0,1,0,0-.43877H18.424a.21939.21939,0,1,0,0,.43877Zm0,3.182h1.13134a.21984.21984,0,1,0,0-.43968H18.424a.21984.21984,0,1,0,0,.43968Zm-6.34324,0H13.213a.21984.21984,0,0,0,0-.43968H12.08073a.21984.21984,0,0,0,0,.43968ZM2.91506,5.73506H4.04641a.21985.21985,0,1,0,0-.43969H2.91506a.21985.21985,0,1,0,0,.43969Zm6.34208,0h1.13251a.21985.21985,0,0,0,0-.43969H9.25714a.21985.21985,0,0,0,0,.43969Zm0,3.18106h1.13251a.21939.21939,0,0,0,0-.43877H9.25714a.21939.21939,0,0,0,0,.43877Zm-6.34208,0H4.04641a.21939.21939,0,1,0,0-.43877H2.91506a.21939.21939,0,1,0,0,.43877ZM5.51049,4.76149V9.45h.92233V4.76149Zm0,5.12723v4.689h.92233v-4.689Zm2.28281,4.689v-4.689H6.87159v4.689Zm0-5.12779V4.76149H6.87159V9.45ZM8.233,4.76149V9.45H11.0158V4.76149Zm0,5.12723v4.689H11.0158v-4.689Zm-3.16217,4.689v-4.689H2.2889v4.689Zm0-5.12779V4.76149H2.2889V9.45Zm-2.15575,1.412H4.04641a.21939.21939,0,1,0,0-.43877H2.91506a.21939.21939,0,1,0,0,.43877Zm6.34208,0h1.13251a.21939.21939,0,0,0,0-.43877H9.25714a.21939.21939,0,0,0,0,.43877Zm0,3.182h1.13251a.21984.21984,0,0,0,0-.43968H9.25714a.21984.21984,0,0,0,0,.43968Zm-6.34208,0H4.04641a.21984.21984,0,1,0,0-.43968H2.91506a.21984.21984,0,1,0,0,.43968Z" style="fill:#a1afba;fill-rule:evenodd"/></g></svg>