<svg xmlns="http://www.w3.org/2000/svg" viewBox="0 0 6.65144 22.57249"><title>pen-icon-uc-santa-barbara</title><g id="ICONS"><path d="M1.22775,12.56707h4.196V7.6285h-4.196v4.93857Zm2.09786,2.48A1.01864,1.01864,0,0,1,3.545,17.06013v4.56048l2.65759-4.03788-.7462-4.576H1.19393l-.74529,4.576,2.65667,4.03788V17.06013a1.01867,1.01867,0,0,1,.2203-2.01311Zm.40952.60879a.58.58,0,1,1-.40952-.16911.57746.57746,0,0,1,.40952.16911Zm-.216,6.8a.21881.21881,0,0,1-.19349.1167.22132.22132,0,0,1-.1944-.1167L.03577,17.75123a.21892.21892,0,0,1-.03291-.1554H.002l.78612-4.82309V1.31817A1.3189,1.3189,0,0,1,1.1723.38975L1.175.387h0L1.176.38609A1.31553,1.31553,0,0,1,2.1062,0H4.54532A1.3197,1.3197,0,0,1,5.86315,1.31817V12.77274l.78521,4.82309a.2187.2187,0,0,1-.03961.16576L3.5191,22.45579Zm1.90467-15.267V1.31817A.879.879,0,0,0,4.54532.43972H2.1062a.87513.87513,0,0,0-.621.25656V.69719a.8742.8742,0,0,0-.25748.621V7.18882Z" style="fill:#a1afba;fill-rule:evenodd"/></g></svg>