<svg xmlns="http://www.w3.org/2000/svg" viewBox="0 0 17.45234 17.45228"><title>pesos-icon-uc-santa-barbara</title><g id="ICONS"><path d="M7.04039,12.62157a.2203.2203,0,0,1-.4406,0V10.32475H5.30147a.21939.21939,0,1,1,0-.43877H6.59979V8.99473H5.30147a.21939.21939,0,1,1,0-.43877H6.59979V5.25058a.22043.22043,0,0,1,.2203-.21938h3.32336A1.31963,1.31963,0,0,1,11.46158,6.349V7.6766a1.31806,1.31806,0,0,1-1.31813,1.31813H7.04039V9.886h2.894a.21939.21939,0,0,1,0,.43877h-2.894v2.29682Zm1.6859,2.36477a6.23544,6.23544,0,1,0-2.39524-.47416,6.25449,6.25449,0,0,0,2.39524.47416Zm2.56161-.06916a6.71412,6.71412,0,1,0-2.56161.50793,6.71505,6.71505,0,0,0,2.56161-.50793ZM8.72629.43968a8.286,8.286,0,1,0,5.85937,2.42688A8.26506,8.26506,0,0,0,8.72629.43968ZM2.55582,2.55577A8.72666,8.72666,0,1,0,8.72629,0,8.69869,8.69869,0,0,0,2.55582,2.55577ZM7.04039,5.47088V8.556h3.10306a.88166.88166,0,0,0,.87936-.87936V6.349a.88115.88115,0,0,0-.87936-.87815Z" style="fill:#a1afba;fill-rule:evenodd"/></g></svg>