<svg xmlns="http://www.w3.org/2000/svg" viewBox="0 0 23.75901 17.84504"><title>piggy-bank-icon-uc-santa-barbara</title><g id="ICONS"><path d="M18.19087,17.845H15.57959a2.48291,2.48291,0,0,1-1.75933-.73067l-.01188-.01372a2.482,2.482,0,0,1-.71879-1.74653v-.76785H9.92407v.76785a2.48583,2.48583,0,0,1-.73159,1.75933h0v.00092a2.48233,2.48233,0,0,1-1.75927.73067H4.82309a2.484,2.484,0,0,1-1.76025-.73067l-.01219-.01372a2.482,2.482,0,0,1-.71848-1.74653V11.94331H.21938A.21967.21967,0,0,1,0,11.72393V6.268a.21983.21983,0,0,1,.21938-.2203H2.33217V5.53121a2.48251,2.48251,0,0,1,.73067-1.75872l.001-.00061h-.001a2.48672,2.48672,0,0,1,1.54087-.72123V.21938A.21979.21979,0,0,1,4.9663.05271L9.12179,3.04029h9.06908a2.49614,2.49614,0,0,1,2.49,2.49092v.51555h2.6387V3.47967H22.1672V4.56806a.21939.21939,0,0,1-.43877,0V3.26029a.21938.21938,0,0,1,.21939-.22h1.59181a.21981.21981,0,0,1,.21938.22V6.26706a.21967.21967,0,0,1-.21938.21938H20.68087v8.86768a2.49456,2.49456,0,0,1-2.49,2.49092ZM4.87306,6.46481h.46223a.21939.21939,0,1,0,0-.43877H4.87306a.21939.21939,0,1,0,0,.43877Zm4.487-1.36719h4.61741a.21984.21984,0,0,0,0-.43968H9.36007a.21984.21984,0,0,0,0,.43968Zm6.21952,12.30773h2.61128a2.05513,2.05513,0,0,0,2.05032-2.05123V5.53121a2.05567,2.05567,0,0,0-2.05032-2.05154H9.05262V3.47906a.21983.21983,0,0,1-.128-.04089L5.04247.64688V3.26029a.21925.21925,0,0,1-.21938.21938,2.04587,2.04587,0,0,0-1.44946.60209l-.00091-.00092a2.04871,2.04871,0,0,0-.60117,1.45037V6.268a.21964.21964,0,0,1-.21939.21938H.43968v5.01621H2.55216a.21989.21989,0,0,1,.21939.22036v3.63019a2.04424,2.04424,0,0,0,.59087,1.439l.01121.01041a2.0456,2.0456,0,0,0,1.44946.60178H7.43321a2.04543,2.04543,0,0,0,1.44939-.60178h.00061a2.04874,2.04874,0,0,0,.60117-1.44945v-.98723a.22039.22039,0,0,1,.21939-.2203H13.309a.22039.22039,0,0,1,.21939.2203v.98723a2.04524,2.04524,0,0,0,.59172,1.439l.01043.01041A2.0461,2.0461,0,0,0,15.57959,17.40535Z" style="fill:#a1afba;fill-rule:evenodd"/></g></svg>