<svg xmlns="http://www.w3.org/2000/svg" viewBox="0 0 17.45319 17.45228"><title>pound-icon-uc-santa-barbara</title><g id="ICONS"><path d="M9.09254,4.6942a.21939.21939,0,0,1,0,.43877H7.58093a.3322.3322,0,0,0-.1356.02681h0a.34851.34851,0,0,0-.18129.20476l-.00183.00609a.32985.32985,0,0,0-.00846.13194l.45942,3.75908.00091.00853a1.27608,1.27608,0,0,1-.15387.78424l-.007.01219-.82635,1.50984a.32425.32425,0,0,0,.28923.48783h4.89219a.21984.21984,0,0,1,0,.43968H7.01608a.76058.76058,0,0,1-.66157-.37661.75908.75908,0,0,1-.0131-.76084l.82848-1.50978L7.176,9.84362A.841.841,0,0,0,7.27013,9.588a.86249.86249,0,0,0,.00762-.26692V9.31528l-.45949-3.76a.7602.7602,0,0,1,.02414-.309L6.846,5.23408a.76542.76542,0,0,1,.15966-.28058.7547.7547,0,0,1,.2593-.19257h.00061a.74669.74669,0,0,1,.31537-.06673Z" style="fill:#a1afba;fill-rule:evenodd"/><path d="M5.29111,8.81862a.21939.21939,0,1,1,0-.43877h4.94741a.21939.21939,0,1,1,0,.43877Z" style="fill:#a1afba;fill-rule:evenodd"/><path d="M8.72629.43968a8.286,8.286,0,1,0,5.85937,2.42688A8.26073,8.26073,0,0,0,8.72629.43968ZM2.55582,2.55577A8.72512,8.72512,0,1,1,0,8.72593,8.70263,8.70263,0,0,1,2.55582,2.55577Z" style="fill:#a1afba;fill-rule:evenodd"/><path d="M8.72629,14.98634a6.23544,6.23544,0,1,0-2.39524-.47416,6.25106,6.25106,0,0,0,2.39524.47416Zm2.56168-.06916a6.70975,6.70975,0,1,1,2.17579-1.45372A6.6792,6.6792,0,0,1,11.288,14.91718Z" style="fill:#a1afba;fill-rule:evenodd"/></g></svg>