<svg xmlns="http://www.w3.org/2000/svg" viewBox="0 0 11.40795 17.85121"><title>receipt-icon-uc-santa-barbara</title><g id="ICONS"><path d="M3.91332,17.22413l.368-.36289a.21991.21991,0,0,1,.16576-.07587H5.165v.00152a.21719.21719,0,0,1,.15357.06246l.482.47406.46808-.46217a.22328.22328,0,0,1,.166-.07587H7.154v.00152a.21854.21854,0,0,1,.15364.06246l.481.475.46924-.46314a.22087.22087,0,0,1,.16575-.07587h.7194v.00152a.21881.21881,0,0,1,.15387.06246l.48021.47406.468-.46217a.21959.21959,0,0,1,.16576-.07587h.55729V1.06561H10.411v-.001a.21756.21756,0,0,1-.15266-.0621L9.7772.52751,9.30888.99065a.21622.21622,0,0,1-.16576.075h-.7194v-.001a.21988.21988,0,0,1-.15387-.0621l-.48112-.475L7.31987.99065a.21933.21933,0,0,1-.16583.075H6.43465v-.001a.21962.21962,0,0,1-.15381-.0621l-.48027-.475L5.33072.99065a.21763.21763,0,0,1-.16576.075H4.44709v-.001a.21761.21761,0,0,1-.15357-.0621L3.8124.52751,3.34316.99065a.21856.21856,0,0,1-.16575.075H2.458v-.001a.2183.2183,0,0,1-.153-.0621l-.48112-.475-.48173.475V1.00162a.22192.22192,0,0,1-.15631.063L.55273,1.05616a.21419.21419,0,0,1-.114-.02833v15.76l.02072-.00243h.72982v.00152a.21821.21821,0,0,1,.1535.06246l.48112.47406.46839-.46217a.22263.22263,0,0,1,.16569-.07587h.7194v.00152a.21582.21582,0,0,1,.153.06246l.482.47406.10092-.09928M.638.61923l.46132.00664.571-.56211a.21821.21821,0,0,1,.30653,0l.571.56211h.54053l.5701-.56211a.21932.21932,0,0,1,.30744,0l.57009.56211H5.076l.5707-.56211a.21859.21859,0,0,1,.30684,0l.57009.56211h.54054l.571-.563a.21943.21943,0,0,1,.30744,0l.5701.563h.54053l.571-.56211a.21821.21821,0,0,1,.30653,0l.57016.56211h.4518l.06886-.06819a.22278.22278,0,0,1,.16606-.075A.22027.22027,0,0,1,11.408.703V17.14887a.22.22,0,0,1-.2203.21939.22272.22272,0,0,1-.16606-.075l-.06886-.06764h-.4518l-.57016.56247a.22.22,0,0,1-.30653,0l-.57009-.56247H8.5127l-.56766.55973-.00244.00274-.00182.00092-.00237.00243-.0019.00183-.00244.00239-.00176.001-.00281.00275-.00061.00152-.00365.00183-.00092.00183-.00335.00152-.00183.00091-.00335.00275v.00091l-.00335.00152-.00183.00092-.00335.00274-.00183.00061-.00244.00274H7.90208l-.00366.00244-.00152.00091-.00366.00092-.00152.00183-.00274.00086-.00153.00066-.00274.00274H7.88227l-.00365.00183L7.8777,17.832l-.00328.00091-.0019.00092-.00243.00183-.00176.00091-.00434.00061-.00091.00091-.00335.00092-.00275.00091-.00243.00092H7.85272l-.00335.00152H7.84754l-.00335.00091-.00183.00092-.00335.00091H7.83718l-.00335.00183h-.007l-.00335.00055-.00183.001H7.81653l-.00342.00092H7.81128l-.00335.00091H7.79574l-.00335.00092h-.007L7.782,17.85029h-.0131l-.00336-.00091H7.76473l-.00434-.00092H7.75521l-.00091-.001L7.75,17.84694H7.74394l-.00427-.00183H7.73785l-.00336-.00091-.00091-.00092-.00335-.00091H7.7284l-.00328-.00152h-.0019l-.00335-.00092L7.718,17.839l-.00335-.00092-.00176-.00091-.00342-.00061-.00183-.00091-.00335-.00183-.00183-.00092L7.69976,17.832l-.00153-.00061-.00274-.00183H7.694l-.00457-.00274-.00061-.00066-.00366-.00086-.00152-.00183-.00274-.00092L7.679,17.82165l-.00335-.00244H7.67386l-.00244-.00274-.00183-.00061-.00335-.00274-.00183-.00092L7.662,17.81068l-.00085-.00091L7.65771,17.807l-.00183-.00091-.00274-.00152-.00152-.00183-.00268-.00183-.00189-.00152-.00244-.00275-.00092-.001-.00335-.00239-.00091-.00183-.00268-.00243-.00159-.00092-.00274-.00274-.17276-.17094-.39459-.38879H6.52362l-.344.33882-.22608.22365a.22041.22041,0,0,1-.30684,0l-.25808-.25473L5.076,17.22566H4.53606l-.26783.26356-.298.29373-.00153.00153-.00274.00365H3.96445l-.00275.00335-.00182.00092-.00244.00244-.00183.00182-.00152.00183L3.95226,17.8l-.00335.00177-.00092.00188-.00365.00153-.00153.00182-.00183.00183-.00182.00092-.00336.00243-.00182.00092-.00336.00183-.00091.00091-.00335.00244-.00085.00091-.00342.00183-.00183.00061-.00335.00183-.00091.00091-.00366.00178H3.91082l-.00359.00249-.00068.00091-.00365.00092-.00153.00091-.00365.00152H3.89619l-.00365.00183-.00092.00092-.00335.00091-.00183.00061-.00426.00091-.00092.00092-.00335.00091-.00183.00092-.00335.00091-.00091.00061-.0042.00091h-.0019l-.00335.00092-.00084.00091-.00434.00092H3.85543l-.00342.00091H3.84683l-.00183.00055-.00335.001h-.007l-.00335.00092H3.82946l-.00335.00091H3.79839L3.795,17.84938H3.79321l-.00427-.00092h-.007l-.00335-.001-.00091-.00055h-.0061L3.76822,17.846H3.76639L3.763,17.84511l-.00091-.00091-.00336-.00092H3.757l-.00336-.00091-.00176-.00061-.00342-.00091-.00182-.00092L3.74323,17.839l-.00182-.00092-.00336-.00091-.00091-.00061-.00427-.00091-.00182-.00092-.00336-.00183H3.72678l-.00335-.00152-.00183-.00091-.00244-.00092-.00274-.00091-.00335-.00249H3.71222l-.00342-.00178L3.707,17.82348l-.00275-.00183L3.70271,17.821l-.00366-.00183-.00152-.00091-.00274-.00244L3.693,17.815l-.00244-.00183-.00183-.00092-.00335-.00243-.00091-.00092L3.68108,17.807l-.00183-.00182-.00244-.00153L3.675,17.80179,3.67224,17.8l-.00061-.00153L3.668,17.79666l-.00091-.00182-.00335-.00244-.00092-.00092-.00237-.00335H3.65853l-.00244-.00365-.56766-.55882H2.5479l-.56766.55882-.00335.00365H1.976l-.00244.00335-.00183.00092-.00237.00244-.00189.00182-.00275.00183L1.96325,17.8l-.00281.00177-.00092.00188-.00335.00153-.00091.00182-.00335.00183-.00183.00092-.00244.00243-.00183.00092-.00335.00183-.00091.00091-.00366.00244-.00061.00091-.00366.00183-.00152.00061-.00366.00183-.00091.00091-.00335.00178H1.92235l-.00335.00249-.00092.00091-.00335.00092-.00183.00091-.00335.00152H1.90772l-.00335.00183-.00091.00092-.0042.00091-.0019.00061-.00243.00091-.00176.00092-.00342.00091-.00183.00092-.00335.00091-.00183.00061-.00335.00091H1.87756l-.00335.00092-.00183.00091L1.869,17.846H1.8672l-.00335.00091H1.85867l-.00183.00055-.00328.001H1.84648l-.00335.00092H1.84137l-.00342.00091H1.81022l-.00335-.00091H1.805l-.00427-.00092h-.007l-.00336-.001-.00182-.00055H1.78347L1.78005,17.846H1.77914l-.00335-.00092L1.774,17.8442l-.00426-.00092H1.76878l-.00335-.00091-.00274-.00061-.00335-.00091-.00092-.00092L1.75416,17.839l-.00183-.00092L1.75,17.83719l-.0019-.00061-.00335-.00091-.00183-.00092-.00274-.00183H1.73862L1.735,17.8314l-.00152-.00091-.00366-.00092-.00152-.00091-.00366-.00249H1.72369l-.00336-.00178-.00182-.00091-.00336-.00183L1.71424,17.821l-.00335-.00183-.00183-.00091-.00244-.00244L1.70479,17.815l-.00243-.00183-.00183-.00092-.00335-.00243-.00183-.00092L1.69261,17.807l-.00055-.00182-.00372-.00153-.00152-.00188L1.68407,17.8l-.00091-.00153-.00244-.00183-.00183-.00182-.00243-.00244-.00183-.00092-.00274-.00335H1.67036l-.00267-.00365-.56833-.55882H.55882l-.17459.17215A.21922.21922,0,0,1,0,17.25333V.649C0,.52716.17683.43266.3558.43266A.36707.36707,0,0,1,.638.61923ZM7.73693,5.9923h-4.068a.21939.21939,0,1,0,0,.43877h4.068a.21939.21939,0,1,0,0-.43877Zm-.73829,8.34084H8.9021a.21984.21984,0,0,0,0-.43968H6.99864a.21984.21984,0,0,0,0,.43968Zm-4.494,0H5.33681a.21984.21984,0,1,0,0-.43968H2.50463a.21984.21984,0,0,0,0,.43968Zm0-2.82852H8.9021a.21987.21987,0,0,0,0-.43974H2.50463a.21987.21987,0,0,0,0,.43974ZM8.9021,9.19743H2.50463a.21984.21984,0,0,0,0,.43968H8.9021a.21984.21984,0,0,0,0-.43968ZM2.50463,3.95812H8.9021a.21969.21969,0,0,0,0-.43937H2.50463a.21969.21969,0,0,0,0,.43937Z" style="fill:#a1afba;fill-rule:evenodd"/></g></svg>