<svg xmlns="http://www.w3.org/2000/svg" viewBox="0 0 14.50367 17.83398"><title>reverse-arrows-icon-uc-santa-barbara</title><g id="ICONS"><path d="M12.55786,4.04013v8.08094h1.72643a.21932.21932,0,0,1,.17094.3568L10.91584,17.737a.22.22,0,0,1-.3041.06033.21369.21369,0,0,1-.06033-.06124L7.00075,12.46233a.22032.22032,0,0,1,.18221-.34126H8.90329V4.04013A1.31965,1.31965,0,0,1,10.22142,2.722h1.01831a1.31682,1.31682,0,0,1,.93116.387v.00091a1.31087,1.31087,0,0,1,.387.93025Zm-7.403,9.75313V5.49294a.21964.21964,0,0,1,.21938-.21939H6.90812L3.77033.61043.6307,5.27355H2.15938a.21964.21964,0,0,1,.21938.21939v8.30032a.873.873,0,0,0,.25747.62006l.00092.00183a.8736.8736,0,0,0,.62006.25656H4.27643a.88223.88223,0,0,0,.87845-.87845Zm.43968-8.08094H7.32008a.21847.21847,0,0,0,.21938-.21938.2107.2107,0,0,0-.04814-.13651L3.95162.09731A.21842.21842,0,0,0,3.64845.03668a.20513.20513,0,0,0-.06118.06155L.03654,5.37106a.21917.21917,0,0,0,.06033.30317.21178.21178,0,0,0,.12188.03809H1.93939v8.08094a1.316,1.316,0,0,0,.38666.93024h0l.00091.00086.0019.0025a1.31535,1.31535,0,0,0,.92835.38447H4.27643a1.32121,1.32121,0,0,0,1.31813-1.31807V5.71232Zm6.52453,6.62813V4.04013A.87772.87772,0,0,0,11.86162,3.42l-.00091-.00177a.87887.87887,0,0,0-.621-.25656H10.22142a.88041.88041,0,0,0-.87837.87845v8.30032a.21968.21968,0,0,1-.21939.21938H7.59407l3.13955,4.66307,3.13872-4.66307H12.33848A.21964.21964,0,0,1,12.11909,12.34045Z" style="fill:#a1afba;fill-rule:evenodd"/></g></svg>