<svg xmlns="http://www.w3.org/2000/svg" viewBox="0 0 20.76467 17.32613"><title>safe-icon-uc-santa-barbara</title><g id="ICONS"><path d="M1.31813,0h18.1278a1.31206,1.31206,0,0,1,.93085.38605L20.3777.387a1.31424,1.31424,0,0,1,.387.93116V14.781a1.31965,1.31965,0,0,1-1.31874,1.31691H18.856v1.022a.21269.21269,0,0,1-.21878.20628H2.12741a.21348.21348,0,0,1-.2203-.20628v-1.022h-.589a1.31264,1.31264,0,0,1-.93025-.38606L.387,15.71092l-.00092-.00061-.00152-.00188A1.31331,1.31331,0,0,1,0,14.781V1.31813A1.31806,1.31806,0,0,1,1.31813,0Zm9.28328,4.73412V4.31333a.21938.21938,0,1,0-.43876,0v.42079a.21938.21938,0,1,0,.43876,0ZM1.50979,3.61374A.22.22,0,0,0,1.2904,3.834V6.79328a.21964.21964,0,0,0,.21939.21938h.39732v2.072H1.50979a.21984.21984,0,0,0-.21939.2203v2.95893a.21984.21984,0,0,0,.21939.2203h.39732v1.48663a.22.22,0,0,0,.2203.22H18.63725a.21924.21924,0,0,0,.21878-.22V2.1265a.21854.21854,0,0,0-.21878-.21939H2.12741a.21926.21926,0,0,0-.2203.21939V3.61374Zm.61762.43968H1.73008V6.573h.79375V4.05342Zm0,5.47088H1.73008v2.52017h.79375V9.5243ZM7.06172,7.83474H6.64123a.21939.21939,0,0,0,0,.43877h.42049a.21939.21939,0,1,0,0-.43877Zm3.10093,3.5397v.42048a.21938.21938,0,0,0,.43876,0v-.42048a.21938.21938,0,1,0-.43876,0Zm3.53847-3.10093h.42171a.21939.21939,0,0,0,0-.43877h-.42171a.21939.21939,0,0,0,0,.43877ZM10.382,9.18578A1.12366,1.12366,0,0,0,11.181,8.854l.00945-.00762a1.13182,1.13182,0,0,0-1.60912-1.592h.00091A1.1312,1.1312,0,0,0,10.382,9.18578Zm1.05639-.07526.00951-.01036A1.49326,1.49326,0,0,0,9.32655,6.998l-.00091.0006V6.998a1.494,1.494,0,0,0,0,2.11156l.00091.00092.00335.00335a1.4922,1.4922,0,0,0,2.10852-.00335ZM10.382,10.22724a2.16892,2.16892,0,0,0,1.53721-.63652l.00883-.00853A2.174,2.174,0,0,0,8.84451,6.51691l.00092.00061a2.17266,2.17266,0,0,0,1.5366,3.70972ZM12.181,9.85338l.01127-.01128A2.544,2.544,0,0,0,8.58376,6.25518l-.001.00091V6.25518a2.543,2.543,0,0,0,0,3.59728l.001.00092a2.54308,2.54308,0,0,0,3.59722,0Zm5.4036-4.99068h.83268V2.34588H2.3468V3.61374h.39732a.22076.22076,0,0,1,.2203.22029V6.79328a.22042.22042,0,0,1-.2203.21938H2.3468v2.072h.39732a.22061.22061,0,0,1,.2203.2203v2.95893a.22061.22061,0,0,1-.2203.2203H2.3468V13.7514H18.41726V11.23427h-.83268a.21816.21816,0,0,1-.217-.21938V5.083a.21837.21837,0,0,1,.217-.2203Zm.83268.43968h-.61519v5.49313h.61519V5.30238Zm0,10.79551H2.3468v.81537H18.41726v-.81537ZM19.44593.43877H1.31813a.88218.88218,0,0,0-.87936.87936V14.781a.876.876,0,0,0,.25747.62006l.00091.00091a.87631.87631,0,0,0,.621.25717h18.1278a.87957.87957,0,0,0,.87814-.87814V1.31813a.87848.87848,0,0,0-.25619-.621l-.001-.00183A.88.88,0,0,0,19.44593.43877Z" style="fill:#a1afba;fill-rule:evenodd"/></g></svg>