<svg xmlns="http://www.w3.org/2000/svg" viewBox="0 0 18.75449 16.65207"><title>umbrella-icon-UC-Santa-Barbara</title><g id="ICONS"><path d="M5.86875,2.064A8.45168,8.45168,0,0,0,1.8455,4.66221,6.2341,6.2341,0,0,0,.44632,8.39783l.82482-.31019a3.44015,3.44015,0,0,1,1.24568-.22883,3.42881,3.42881,0,0,1,1.24188.248l.51129.2011A8.84234,8.84234,0,0,1,5.3989,4.04458,7.15224,7.15224,0,0,1,7.77251,1.62192,11.62456,11.62456,0,0,0,5.86875,2.064Zm3.86786-.9924V.76937A.307.307,0,0,0,9.53185.468.459.459,0,0,0,9.36951.43785V.43938A.449.449,0,0,0,9.20521.468a.30617.30617,0,0,0-.20354.30135v.30226c.12523-.00335.25046-.00585.37569-.00585.12013,0,.24011.0025.35925.00585Zm-1.17455.02346V.76937A.72732.72732,0,0,1,9.05164.05759.91351.91351,0,0,1,9.36951,0V.00061a.90083.90083,0,0,1,.31689.057.72769.72769,0,0,1,.489.71178v.32481a11.98158,11.98158,0,0,1,2.84407.55272,8.88779,8.88779,0,0,1,4.22892,2.73895,6.70135,6.70135,0,0,1,1.50613,4.33161h0a.22013.22013,0,0,1-.29616.20445l-1.12892-.42384a2.90749,2.90749,0,0,0-2.174.01706l-.804.3172V8.83141l-.00434.00153h0a.21584.21584,0,0,1-.14777.00091,12.81618,12.81618,0,0,0-2.27672-.55,16.09412,16.09412,0,0,0-1.74715-.16667v5.98887a2.40686,2.40686,0,0,1-1.216,2.19719,2.73131,2.73131,0,0,1-1.12983.33943A2.855,2.855,0,0,1,6.661,16.4943v0a2.36743,2.36743,0,0,1-1.5945-1.88913.75135.75135,0,0,1,.17094-.62342.7519.7519,0,0,1,.58655-.273h.0259a.7654.7654,0,0,1,.75565.62616.90887.90887,0,0,0,.61489.709,1.16393,1.16393,0,0,0,.483.0579,1.08041,1.08041,0,0,0,.45613-.14321.93791.93791,0,0,0,.45675-.85255V8.11537a16.18218,16.18218,0,0,0-1.78433.1685,12.719,12.719,0,0,0-2.26909.54846.21947.21947,0,0,1-.15875,0l-.805-.3172a3.01214,3.01214,0,0,0-1.085-.21938,3.01608,3.01608,0,0,0-1.088.20232L.31164,8.91673a.21432.21432,0,0,1-.09226.02011A.21959.21959,0,0,1,0,8.71746,6.70136,6.70136,0,0,1,1.50606,4.38585,8.89663,8.89663,0,0,1,5.735,1.6469a12.02652,12.02652,0,0,1,2.82707-.55181ZM14.0475,8.32165a13.604,13.604,0,0,0-2.05916-.47228,16.01669,16.01669,0,0,0-2.02047-.177l-.00579-.00092H9.92582l-.00365-.00091H9.88164l-.00426-.00092H9.83594l-.00274-.001H9.80828l-.00434-.00055H9.74849l-.00518-.00091H9.65464L9.651,7.66624H9.59157L9.587,7.66533H9.16841l-.00464.00091H9.101l-.00457.00092H9.01112l-.0042.00091H8.95048l-.00335.00055h-.0259l-.00267.001h-.043l-.00365.00092H8.83469l-.02407.00091a16.44043,16.44043,0,0,0-2.04362.178,13.60786,13.60786,0,0,0-2.05916.47228,8.40136,8.40136,0,0,1,1.0695-4.054A6.97625,6.97625,0,0,1,8.86425,1.5174q.25641-.01142.51311-.01127.25641,0,.51281.01127a6.97731,6.97731,0,0,1,3.087,2.75022,8.40109,8.40109,0,0,1,1.07034,4.054ZM10.98283,1.62192a7.15647,7.15647,0,0,1,2.37269,2.42266,8.82728,8.82728,0,0,1,1.12891,4.26336l.51129-.2011a3.36355,3.36355,0,0,1,2.48757-.0192l.82482.3111a6.2334,6.2334,0,0,0-1.39827-3.73653A8.45606,8.45606,0,0,0,12.88659,2.064a11.683,11.683,0,0,0-1.90376-.44211ZM8.74237,15.92147a2.267,2.267,0,0,1-.9467.28337,2.41178,2.41178,0,0,1-.98967-.12432h0a1.94228,1.94228,0,0,1-1.30777-1.547.33835.33835,0,0,1,.00518-.14406.34721.34721,0,0,1,.06826-.12432.31964.31964,0,0,1,.11243-.08836.33052.33052,0,0,1,.13986-.02834h.0259a.32082.32082,0,0,1,.21146.07526.32968.32968,0,0,1,.11335.19257,1.33527,1.33527,0,0,0,.9035,1.04146,1.59564,1.59564,0,0,0,.66235.08045,1.5444,1.5444,0,0,0,.64078-.20141A1.36414,1.36414,0,0,0,9.055,14.10607V8.105l.03382-.00092H9.175L9.176,8.10318h.39641l.00434.00091h.0889l.03717.00092h.03383v6.00106A1.98231,1.98231,0,0,1,8.74237,15.92147Z" style="fill:#a1afba;fill-rule:evenodd"/></g></svg>