<svg xmlns="http://www.w3.org/2000/svg" viewBox="0 0 17.63784 18.2969"><title>wallet-icon-uc-santa-barbara</title><g id="ICONS"><path d="M7.35,2.66733l-.44737-.64779L4.72711,3.52415,7.35,2.66733Zm9.28322,5.92854v-3.385a.88284.88284,0,0,0-.25717-.62184h-.00085a.87557.87557,0,0,0-.621-.25747H1.31874a.88051.88051,0,0,0-.8793.87931V16.97907A.87626.87626,0,0,0,.69685,17.6l.00091.001a.87482.87482,0,0,0,.621.25717H15.75419a.88115.88115,0,0,0,.87906-.87906V14.082H10.177a.76807.76807,0,0,1-.54328-.22548V13.8559a.76466.76466,0,0,1-.22609-.54267V9.36432A.76814.76814,0,0,1,9.62,8.83506l.01365-.01371a.76539.76539,0,0,1,.54328-.22548ZM17.072,14.082v2.89708a1.31951,1.31951,0,0,1-1.31782,1.31783H1.31874a1.31054,1.31054,0,0,1-.92842-.38423l-.00268-.00274h0L.387,17.90932A1.31229,1.31229,0,0,1,0,16.97907V5.21091A1.31965,1.31965,0,0,1,1.31874,3.89283h.04144L6.79571.13558A.76885.76885,0,0,1,7.864.3309L9.08614,2.09876,13.42384.68069a.2012.2012,0,0,1,.03108-.00945.76912.76912,0,0,1,.94671.48021l.01036.03108.88515,2.7103h.457a1.31582,1.31582,0,0,1,.93085.38606h.001a1.31712,1.31712,0,0,1,.386.932v3.385h.34736a.219.219,0,0,1,.21847.22V13.8626a.21886.21886,0,0,1-.21847.21939ZM2.13168,3.89283,7.04344.49665a.32994.32994,0,0,1,.45948.08282L8.65164,2.24136l-.86718.28337-.646-.93365a.21839.21839,0,0,0-.30409-.05632L3.4236,3.89283Zm2.87941,0,8.56023-2.79927h.00183a.32925.32925,0,0,1,.41628.208l.00085.00189.84554,2.58933h-.8367l-.59776-1.82758a.21781.21781,0,0,0-.27551-.14078L7.10651,3.89283Zm3.50679,0h1.88548l2.29225-.74956a.21917.21917,0,0,1,.13468.41714l-1.01556.33242H13.5378L13.05242,2.409,8.51788,3.89283Zm8.68119,5.14181v4.60767H10.177a.32731.32731,0,0,1-.33-.32908V9.36432a.32825.32825,0,0,1,.08836-.22365l.00853-.00944a.3333.3333,0,0,1,.2331-.09659h7.0221Zm-4.77037,1.217a1.08712,1.08712,0,1,1-.76937.31871,1.08321,1.08321,0,0,1,.76937-.31871Zm-1.07955.00762a1.52675,1.52675,0,1,1-.4473,1.07955A1.52605,1.52605,0,0,1,11.34915,10.25923Z" style="fill:#a1afba;fill-rule:evenodd"/></g></svg>