<svg xmlns="http://www.w3.org/2000/svg" viewBox="0 0 17.45228 17.45228"><title>yen-icon-uc-santa-barbara</title><g id="ICONS"><path d="M11.18765,5.1607a.21984.21984,0,0,1,.35772.25564L9.15378,8.75463H11.7285a.21939.21939,0,1,1,0,.43877H8.94568v.91282H11.7285a.21939.21939,0,1,1,0,.43877H8.94568v2.11436a.21939.21939,0,1,1-.43877,0V10.545H5.72415a.21939.21939,0,1,1,0-.43877H8.50691V9.1934H5.72415a.21939.21939,0,1,1,0-.43877H8.29886l-2.391-3.33829a.21946.21946,0,1,1,.3568-.25564L8.72629,8.5974l2.46136-3.4367ZM8.72544,14.98634a6.23543,6.23543,0,1,0-2.39439-.47416,6.25558,6.25558,0,0,0,2.39439.47416Zm2.56253-.06916a6.7143,6.7143,0,1,0-2.56253.50793,6.7146,6.7146,0,0,0,2.56253-.50793ZM8.72544.43968a8.286,8.286,0,1,0,5.86022,2.42688A8.26372,8.26372,0,0,0,8.72544.43968ZM2.55582,2.55577A8.72556,8.72556,0,1,0,8.72544,0,8.69894,8.69894,0,0,0,2.55582,2.55577Z" style="fill:#a1afba;fill-rule:evenodd"/></g></svg>