<svg xmlns="http://www.w3.org/2000/svg" viewBox="0 0 16.23714 19.81709"><title>apple-icon-uc-santa-barbara</title><g id="ICONS"><path d="M16.23714,12.20174a7.63072,7.63072,0,0,1-7.61536,7.61535H7.61542A7.6303,7.6303,0,0,1,0,12.20174V8.81256A3.77766,3.77766,0,0,1,6.70583,6.4225h0c.057.06642.13986.15631.22456.23767a1.83126,1.83126,0,0,0,.18069.15539,1.74346,1.74346,0,0,0,.47929.23493,1.72131,1.72131,0,0,0,.30135.06551A3.913,3.913,0,0,0,3.98517,3.43675a.21984.21984,0,1,1,0-.43968A4.3612,4.3612,0,0,1,8.0523,5.79634l.489-.66089a4.59467,4.59467,0,0,1,3.87029-5.133A.25249.25249,0,0,1,12.44515,0h.01219a.22075.22075,0,0,1,.20658.196,4.57933,4.57933,0,0,1-.85011,3.40137A4.57444,4.57444,0,0,1,8.89449,5.39566l-.6804.91989a4.32261,4.32261,0,0,1,.11822.80319,1.7793,1.7793,0,0,0,.79375-.30318,1.66578,1.66578,0,0,0,.17977-.15539c.08532-.08136.16728-.17125.22456-.23767L9.53283,6.42a3.80105,3.80105,0,0,1,1.305-1.02283,3.7797,3.7797,0,0,1,5.39928,3.41537v3.38918Zm-5.64785,1.24957a2.05095,2.05095,0,0,0-1.51686-2.05276,2.04811,2.04811,0,0,0,1.51686,2.05276Zm-.0476-1.55184a2.48166,2.48166,0,0,0-1.63258-.983.18633.18633,0,0,0-.03169-.00274h-.0131a.21952.21952,0,0,0-.20567.19623,2.48935,2.48935,0,0,0,2.093,2.82334.21916.21916,0,0,0,.25046-.184L11.003,13.745a2.48187,2.48187,0,0,0-.46132-1.84553ZM5.23413,13.745l.00091.00431a.21864.21864,0,0,0,.24955.184A2.49039,2.49039,0,0,0,7.57818,11.11a.21921.21921,0,0,0-.20536-.19623H7.35971a.19037.19037,0,0,0-.032.00274A2.49226,2.49226,0,0,0,5.23413,13.745Zm.81263-1.5847a2.04484,2.04484,0,0,0-.39885,1.291,2.04955,2.04955,0,0,0,1.51741-2.05276,2.03827,2.03827,0,0,0-1.11856.76175ZM5.23413,13.745l-.00183-.0283.00183.0283ZM12.27428.81964,9.29456,4.8533A4.15267,4.15267,0,0,0,12.27428.81964ZM8.942,4.59308l2.98-4.0333a4.15025,4.15025,0,0,0-2.98,4.0333Zm4.74966,12.67855a7.15,7.15,0,0,0,2.10577-5.06989V8.81256A3.33944,3.33944,0,0,0,9.87135,6.698l-.00762.00975c-.0649.07491-.15807.17611-.25411.26844a2.03347,2.03347,0,0,1-.23219.19775,2.21405,2.21405,0,0,1-.5451.27728A2.18535,2.18535,0,0,1,8.234,7.567h0c-.04516.00179-.08142.00274-.11158.00274h-.0042a2.23346,2.23346,0,0,1-.65913-.10024,2.19249,2.19249,0,0,1-.59843-.29556,1.96723,1.96723,0,0,1-.2334-.19775c-.09568-.09233-.18892-.19353-.25382-.26844h0l-.00335-.00457A3.34118,3.34118,0,0,0,.43877,8.81256v3.38918a7.19277,7.19277,0,0,0,7.17665,7.17659H8.62178A7.15474,7.15474,0,0,0,13.69168,17.27163Z" style="fill:#a1afba;fill-rule:evenodd"/></g></svg>