<svg xmlns="http://www.w3.org/2000/svg" viewBox="0 0 14.76178 18.43859"><title>arm-lifting-dumbbell-icon-uc-santa-barbara</title><g id="ICONS"><path d="M9.89207,6.80607a1.92871,1.92871,0,0,0,1.3681-.56674h.00092l-.00092-.00091a1.93576,1.93576,0,0,0,0-2.73712L11.24981,3.49a1.93885,1.93885,0,0,0-2.72675.01036l-.00092.00091h.00092a1.93429,1.93429,0,0,0,0,2.73712l.01036.01127a1.92957,1.92957,0,0,0,1.35865.55638Zm.59417,11.63252H.21938A.21987.21987,0,0,1,0,18.21921v-5.0763a.21987.21987,0,0,1,.21938-.21938l.018.00091L2.13259,12.915h.00092v-.00088A.42923.42923,0,0,0,2.44,12.78733l.00159-.00092A.43267.43267,0,0,0,2.5677,12.479a2.88431,2.88431,0,0,1,.8492-2.04788l.00092-.00092v-.00091h0a2.89845,2.89845,0,0,1,4.948,2.04971.44839.44839,0,0,0,.45011.45065v.00092l1.08923-.00183V9.74h-.0131a4.87053,4.87053,0,1,1,3.69242-1.69531l.659,6.2177a3.77674,3.77674,0,0,1-.152,1.56585h-.00091l.00091.00091a3.75144,3.75144,0,0,1-3.6052,2.60945Zm-.36107-.43968h.36107a3.38563,3.38563,0,0,0,3.18807-2.30536h0a3.32918,3.32918,0,0,0,.13315-1.38612L13.188,8.45572a4.84991,4.84991,0,0,1-2.84346,1.26359v3.42878h-.00061a.21978.21978,0,0,1-.21877.21878l-1.30923.00152v.00091a.88927.88927,0,0,1-.62866-.26082v-.00091a.88173.88173,0,0,1-.26107-.6286A2.46057,2.46057,0,0,0,3.72678,10.7394v.00065A2.452,2.452,0,0,0,3.00647,12.479a.86989.86989,0,0,1-.25473.61671l-.00091.00061v.00092H2.74991a.87048.87048,0,0,1-.6164.25564v-.00091l-1.69474.00883v4.63814Zm-.2331-8.69769A4.43114,4.43114,0,1,1,13.0256,8.00293a4.36675,4.36675,0,0,1-.65382.539l-.0025.00274c-.05881.03961-.11914.0777-.17977.11487l-.00244.00153-.039.02346L12.1438,8.687l-.00426.00274-.04144.02407h-.00092l-.00518.00366-.02346.01279-.018.01032-.007.0037L12.0204,8.758l-.01646.00853-.00883.00427-.02407.0131-.01463.00762-.00944.00518-.03809.02007L11.8976,8.822l-.025.01279-.01127.0061-.0128.00609-.02523.01219-.01042.00518-.01463.0067-.02315.01128-.01036.00426-.03809.01829L11.71539,8.91l-.01279.00518-.02438.01123-.01219.00522-.01279.00518-.02408.01127-.01218.00518-.01219.00518-.07435.03017-.01371.00518-.0103.00426-.025.00945-.01554.00609-.05028.01829-.01036.00335a4.37507,4.37507,0,0,1-1.28516.25987h-.00677l-.00518.00095c-.0716.00335-.14345.00514-.216.00514ZM11.57042,6.5486a2.37213,2.37213,0,0,1-3.34536.01219l-.0128-.01127a2.376,2.376,0,0,1,0-3.359l.00092.00091a2.37288,2.37288,0,0,1,3.34505-.0131l.013.01219a2.376,2.376,0,0,1,0,3.359Z" style="fill:#a1afba;fill-rule:evenodd"/></g></svg>