<svg xmlns="http://www.w3.org/2000/svg" viewBox="0 0 18.22804 18.22808"><title>baseball-Icon-UC-Santa-Barbara</title><g id="ICONS"><path d="M2.66978,2.66982a9.10647,9.10647,0,0,1,12.8894,0c.09141.09076.1813.18495.26844.28093h.00091l.07435.082.00091.00092.07351.08288h0l.03527.04235h.00092q.16454.18923.31688.38758h0l.0339.04418h.00054l.03382.04479h0l.06551.08989h0c.03382.04509.06581.08988.09872.13559h0l.03169.0457h0l.032.046h0l.03108.04662h0c.032.04571.06216.09324.09361.13986h0l.031.04662h0c.03017.04753.05942.09415.089.14168h0l.02932.04845h0l.02918.04814h0c.02871.04754.057.096.0847.14443h.00092l.02773.04845h0l.02742.049h0l.02681.04937h0l.02773.049h0l.0259.05028h0l.05271.09842h0l.026.05h0l.05082.10112h0l.025.05h0l.02529.05119h0l.02316.05088h0l.02506.05089h0l.02339.05088h0l.02315.0518h0l.02255.0518h0l.02346.0521h0l.02225.0518h0l.02163.0518h0l.02255.0518h0l.02079.05088h0l.01973.05.02072.05119h0l.0192.05085h0l.0198.05092h0l.01981.05089h0l.018.0518h.00091l.01828.05119.018.0518.01828.0518.03535.10359h0l.01744.0518.01638.05271h0l.01615.05272h0l.01645.05271h0l.01554.0518.01646.05363.01462.05267.01554.05336.01493.05363.01371.05271.01371.05359h0l.01409.05367h0l.01364.05423h0l.0131.05359h0l.01287.05367.01219.05423.01181.05359v.001l.01219.05362.01127.05424.01128.05545h0l.02163.10878v.00092l.00945.05423.00944.05546.01043.05511.00847.05458.00883.05606.00945.05516.007.05545.00761.056.00853.05519.007.05637.00708.056h0l.00609.0561h0l.0061.05607.00572.05637h0l.00609.05606.00427.057h0l.00525.05607h0l.0045.057h0l.00426.05606h0l.00343.05728v.00061l.00328.05637.00281.0579h0l.00237.057.00274.057.00244.057.00091.0579h0l.00183.057.00091.0579v.11578a9.09007,9.09007,0,0,1-.69014,3.48424l-.02255.0518-.02163.05268-.02225.05179-.02346.0518-.02255.0518-.02315.05093-.02339.0518-.02415.05088h-.00091l-.02316.05028-.02529.05179-.025.05h0l-.025.05027h0l-.02583.05h0l-.026.05h0l-.02583.05028h0l-.02688.049h0l-.0259.04937h0l-.02773.05h0l-.02681.04844-.02742.04936-.02773.04815h0l-.02864.04844h0l-.02827.04845h0l-.02871.04845h0l-.02918.04814h0l-.02932.04753h0c-.02956.04754-.05881.095-.089.14169h0l-.031.04753h0c-.05126.0777-.103.1554-.15577.23157h-.00091l-.03169.04571h0c-.032.04479-.0649.09168-.09781.13559h-.00091l-.03169.04479h0l-.06764.089h0c-.04571.05973-.0905.11853-.138.17643h0c-.03443.04387-.07008.08623-.10543.12949h0c-.08288.09933-.16758.19775-.25564.29465h0c-.09933.10969-.202.21664-.30653.32206A9.11386,9.11386,0,1,1,2.66978,2.66982Zm12.542,12.61456.03626-.03721q.05575-.05524.11152-.11392h0c.07435-.075.14595-.15357.21664-.23218h0c.05979-.06582.11769-.13316.1746-.20049h0c.03382-.04053.06825-.08109.10116-.12341h.00061l.06581-.08227h0l.03291-.04144h.00061c.04326-.05606.08562-.11213.129-.16914h0l.031-.04323h0l.03108-.04236h0l.06216-.08623h0l.03017-.04326h.001l.0301-.04418h0l.05972-.0881h0l.02925-.04384h0l.02956-.04418h0l.02833-.04479h0l.02956-.046h0l.02834-.04388.02772-.0457h0l.02773-.046h.00061l.02681-.04479h0l.02773-.04571h0l.02681-.04662h.00092l.02681-.046h0l.0259-.04662h0l.0518-.09323.0518-.09324.02506-.04753h0l.02491-.04662h0l.02407-.04754.02438-.04753.02414-.04814.02339-.04845.02316-.04753.02353-.04845.02309-.04906.02163-.04844.02346-.04849.02072-.049.02164-.04936h.00091l.02133-.04936.02072-.04906.02072-.05027a8.65446,8.65446,0,0,0,.65663-3.31727V9.05872h0l-.00092-.05511L17.78745,8.949l-.00092-.05511h0L17.785,8.83934l-.00274-.0542-.00183-.05454h0l-.00237-.05515h0l-.00281-.05455L17.772,8.56636h0l-.00342-.05423-.00366-.05367-.00427-.0545-.00518-.05332-.00426-.05455L17.746,8.24338V8.24247l-.00518-.05332-.007-.05367h0L17.728,8.08189l-.00609-.05271-.014-.107h0l-.00769-.05267h0l-.00792-.05272h0l-.00762-.05362h0l-.00883-.05272-.00853-.05271-.00854-.0518-.00944-.05271-.00975-.05272-.01036-.05179h0l-.00945-.0518V7.396l-.01127-.05088V7.34421l-.01127-.05088h0L17.587,7.24062h0l-.02316-.10269-.01219-.05088H17.5507l-.025-.103h0L17.513,6.93317h0l-.01317-.05088-.01371-.05093h0l-.014-.05023-.01371-.05089h0l-.01462-.05-.03017-.10116L17.398,6.52884h0l-.01554-.04906h0l-.01645-.04936-.01554-.05-.01646-.04932c-.01736-.05-.03436-.09842-.05179-.14748h0l-.01737-.04936h0l-.018-.04845h0l-.0192-.04905h0l-.018-.04845h0l-.0192-.04845h0l-.01882-.04814h0l-.019-.04845h0l-.02011-.04753h0l-.02072-.04936h0l-.02072-.04906H17.0906L17.069,5.647h0L17.04733,5.598h0l-.02072-.04845h0l-.02346-.04936h0L16.98152,5.452h0l-.02309-.04845h0l-.02353-.04845h0l-.02316-.04844h0l-.02339-.04723h0L16.86421,5.211h0l-.02438-.04845h0l-.02407-.04665h-.00091l-.024-.0475h0l-.02506-.04753h-.00091l-.02408-.04662h0L16.714,4.92764h0l-.0259-.04662h0l-.0518-.09324h0l-.02773-.0457h0l-.02681-.046h0L16.554,4.65036h0l-.02742-.0457h0L16.49887,4.559h0l-.02772-.04509h-.00092l-.02742-.04479h0l-.02956-.0451h0l-.02833-.04479h0l-.02956-.04479h0l-.02925-.04422h0l-.03017-.04384h0l-.02955-.04326h0l-.0301-.04419h-.001l-.03017-.04326h0l-.03108-.043h0L16.143,4.02939h0l-.03108-.04327h0c-.031-.043-.06307-.08532-.095-.12767h-.001l-.032-.04144h0l-.032-.04235h-.00061l-.03291-.04236h0l-.03291-.04052H15.8846c-.04388-.05637-.08806-.11061-.13376-.16515h0c-.05691-.06734-.11481-.13468-.1746-.20019h0c-.07069-.07861-.14229-.15631-.21664-.23248h0q-.05575-.058-.11152-.114l-.03626-.03622-.00518-.00426h0l-.00426-.00522-.00854-.0088h-.00091l-.00427-.00427-.00274-.00243-.00183-.00183-.018-.01828L15.1652,2.898l-.01279-.01219-.00085-.00092-.00372-.00335-.00847-.00944-.00189-.00092-.00336-.00365-.00335-.00339L15.12559,2.859l-.00183-.00183-.00335-.00244-.00365-.00427h-.00061l-.00884-.00883-.00518-.00427h0l-.00427-.00426-.00243-.00183-.00176-.00244-.00434-.0043h-.00091l-.00427-.00423-.00267-.00274-.0019-.00183-.00419-.00339-.001-.00179-.00335-.00244-.00335-.00427L15.06587,2.803l-.00426-.00427-.00183-.00091L15.05734,2.795l-.00427-.00427h0l-.00457-.00426-.00243-.00183-.00275-.00335L15.03906,2.778h0l-.00427-.00458L15.03235,2.771l-.00182-.00183-.00518-.00427V2.764L15.022,2.76058l-.0045-.0027-.00068-.00061-.00518-.00457V2.75117L15.008,2.74839l-.00427-.00331-.00091-.00092-.00427-.00426-.00183-.00183-.00243-.00152-.0042-.00457-.001-.00061-.007-.0061-.00152-.00183L14.976,2.71918l-.00091-.00092-.00328-.00243-.00434-.00366L14.96319,2.707l-.00275-.00152-.00152-.00183-.00274-.00274-.00244-.00244h-.00091L14.951,2.69572,14.94247,2.689l-.00274-.00274-.00092-.00091-.00152-.00153-.00183-.00274-.00328-.00183h0l-.00281-.00244-.00244-.00274-.00183-.00152-.00335-.00274L14.919,2.66738l-.00092-.00091-.00152-.00092-.00267-.00248-.03207-.02951-.00145-.001-.00281-.00239-.0838-.07344-.00243.00183v.00061l-.00183.00183h0l-.00244.00274h0l-.00274.00152h0l-.00244.00183v.00092l-.00274.00152v.00091l-.00237.00092v.00091l-.0019.00183H14.774l-.00183.00244-.00061.00091-.00183.00092v.00091l-.00335.00149h0l-.00176.00278h0l-.00281.00152V2.586l-.00244.00183h0l-.00274.00183h-.00091l-.00153.00244h0l-.00274.00183v.00091l-.00244.00152h0l-.00267.00183h0L14.7438,2.601l-.00944.00854-.00092.00091-.00182.00152H14.7307l-.00152.00275h0l-.00274.00182V2.6171l-.00518.00457h0l-.00336.00153h0l-.007.007h0l-.00244.00239h-.00092l-.00182.00279h0l-.00244.00182h0l-.00267.00244h0l-.00251.00274h0l-.00274.00153v.00087l-.00244.00187h0l-.00274.00152V2.6491l-.00244.00179h0l-.00274.00247h0l-.00244.00275h0l-.00518.00426h0l-.00274.0027h0l-.00244.00157v.00091l-.00274.00183h0l-.00518.00427h0l-.00762.00761h0l-.01828.01554v.00092l-.00785.00792c-.09575.08623-.19173.17882-.28923.27632-.04327.04239-.08471.08475-.12517.12771l-.00707.007c-.09507.09933-.18831.2014-.2788.305l.84652.48874a.21875.21875,0,1,1-.21793.37935l-.911-.52621-.03047.038-.0128.01741-.00183.00244-.03016.03805v.001c-.04418.05789-.08623.11579-.1295.17429l-.014.02011-.01462.0198h0l-.01463.01981c-.05088.0716-.10116.145-.15113.21938l-.01279.01981-.014.02072-.0128.0198-.03991.06155-.0128.02072-.00945.01463-.00365.00518-.0128.02072-.01219.01889-.00183.00179-.01188.02076-.0131.02072-.0128.02072-.01219.02072-.00426.00609-.00884.01459c-.02925.04848-.0585.0975-.08714.1469l-.01219.02068-.00061.00095-.03565.06216-.011.02072-.00609.01036c-.03047.05363-.05973.10691-.08806.16149l-.01128.0216.89643.32728a.21952.21952,0,0,1-.1493.41287l-.9442-.34553-.01622.03565-.00274.00579-.007.01554-.00243.00518-.00511.01127-.0019.00423-.00244.0061-.00176.0043-.00525.01066-.00274.00579-.00244.00518-.02072.04754-.00274.00518-.00152.00518-.00275.00518-.00243.00518-.00183.00518L12.5198,5.647h0l-.00274.00514-.00244.00609-.00176.00431-.00281.00609-.00152.00427-.00274.00609-.00244.00518-.00183.00518-.01219.02677-.00152.00522-.00274.00518-.00762.01981-.00092.00183-.00274.00426-.00426.01128-.00153.00518-.00274.00514-.00183.00609-.00237.00522-.00281.00518-.00152.00518h0l-.00785.01737-.0061.01706-.01469.03382-.0061.01707-.02072.05119-.00243.00761-.00427.00945-.00609.01737-.014.03473-.0067.01707-.01981.05179-.00548.01554-.00061.00183-.0061.01737-.007.01706-.00426.01219-.00183.00518-.0067.01828-.0061.01707-.00365.00883-.00244.00853-.00609.01737-.01219.03443-.00579.01828-.007.01707-.00609.01737-.00518.018-.0061.01646-.00091.00091-.00518.01828-.00579.01707-.00457.01306-.00153.0043-.00609.01737L12.22607,6.42l-.00366.0104-.00243.007-.0061.01828-.00518.01706-.00243.007-.00366.01127-.00518.01707-.00518.01828-.00091.00244-.00518.01493-.00518.018-.00579.01737h0l-.00518.018-.00518.01828L12.16026,6.63l-.00061.00274-.00518.018-.00518.01828-.00366.01127-.00145.00579-.00525.0192-.00518.01706-.00366.00792-.00152.01036-.00549.01737-.00518.01889-.00152.00427-.00366.0131-.00426.018-.00518.01828-.00092.00087-.00426.01619-.00518.0192-.00427.01554v.00244l-.00426.01828-.00518.01737.95279.16667a.21943.21943,0,0,1-.07343.43267L11.979,7.34878h0l-.00427.02316-.00518.02346V7.396l-.00511.02343-.00433.0235-.00092.00579-.00335.01736-.00457.02407-.00152.01036-.00274.01311-.00427.02346-.00335.01615-.00092.00792-.00426.02316-.00366.02163-.00061.00183-.00365.02407-.00427.02438-.00091.00152-.00336.02163-.00335.02343-.00175.00765-.00282.01646-.00426.02437-.00183.01189-.00152.01218-.00366.02316-.00244.01828-.00091.0061-.00335.02407-.00359.02255v.00087l-.00342.02411-.00335.02346-.00092.00423L11.8778,7.942l-.00335.02407-.00244.02438-.00366.02407-.00091.01463-.00152.0088-.00275.025-.00236.01889-.001.00427-.00274.02529-.00335.02315v.00088l-.00244.02411-.00183.02346-.00084.0061-.0019.01889-.00244.02407-.00176.01036-.001.014L11.84,8.28055l-.00183.01554-.00176.00884-.00159.025-.00183.02072V8.354l-.00244.02346-.00183.025V8.404l-.00274.02346-.00061.02346-.00091.00758-.00183.01741-.00092.02407-.00152.01219-.00091.01279-.00183.02438-.00092.01706-.00091.007v.025l-.00244.02254v.00244l-.00091.02438-.00092.024v.0037l-.00152.02132-.00084.02438V8.7306l-.0019.01462v.025l-.00183.01493V8.7955l-.00061.025v.01886l-.00091.00521-.00085.02438v.025h1.01732a.21984.21984,0,1,1,0,.43968H11.80291v.025l.00085.02407.00091.0061v.01889l.00061.02529v.01036l.00183.01371v.025l.0019.0155V9.507l.00084.02438.00152.02072v.00331l.00092.025.00091.02438v.0024l.00244.02258.00091.02408v.007l.00183.018.00092.02438.00091.01188.00152.01219.00092.025.00183.01737.00091.007.00061.02407.00274.02346v.00153l.00183.02437.00244.02407v.00275l.00183.02133.00159.02437.00176.00853.00183.01646.00152.02407.00274.02437.00244.02407.00457.04327v.00518l.00244.02407h.001l.00237.02438.00274.02407.001.00427.00236.0198.00275.02438.00152.00944.00091.01459.00366.0235.00244.01554V10.262l.00609.04326.00092.00427.00335.02407.00342.02407v.00092l.00359.02346.00335.02316.00091.00609.00244.01828.00366.02407.00335.02346.00426.02408.00282.01554.00175.00792.00434.024.00237.02076.00091.00335.00427.02346.00792.04753.00426.02316.00854.04845.00274.01127.00251.01219.00358.02312.00335.01649.00183.007.00427.02316.00944.04753.00427.02346.97961-.17124a.21988.21988,0,0,1,.07343.43359l-.95279.16515.00518.01889.00426.01737v.00152l.00518.01733.00427.0174.00426.01646.00092.00152.00518.01828.00426.018.00366.0131.00152.00518.00518.018.00549.01737.00152.00944.00366.00884.00518.01794.00525.01741.00145.00609.00366.01188.00518.01828.00518.01737.00061.00335.00457.01463L12.17,11.631l.00518.01646v.0006l.00579.01829.00518.018.00518.01307.00091.0043.00518.01737.00518.01794.00366.0104.00243.007.00518.01829.0061.01706.00243.00792.00366.01036.00518.01733.00609.018.00153.00331.00457.01406.011.03534.00091.00091.0061.01646.00518.01706.00518.01554.00091.00274.007.01737.00579.01706.00365.01219.00244.0061.0061.01706.00609.01737.00244.00879.00365.00858.0061.018.0067.01646.00183.00518.00426.01218.007.018.0061.01737.00061.00179.00548.01466.0067.01829.0061.01553.00091.00153.0061.01737.0067.01645.00457.0128.00244.00426.007.01737.00609.01828.00427.00853.00243.00854.0061.01645.008.01737.00145.00609.00518.01036.0061.01737.007.01706.0016.00366.00609.01371.0061.01737.00785.01615.00152.00609.00281.00518.00176.00518.00244.00514.00274.00522.00153.00518.00274.00518.00152.00518.00274.00609.00092.00183.00152.00335.00183.00518.00274.00518.00153.0061.00274.00426.00152.0061.00274.00426.00251.0061.00176.00518.00183.00335.00091.00183.00244.00518.00183.00518.00244.00518.00274.00609.00152.00518.00281.00518.00176.00518.00244.00514.00518.01131.00183.00518.00243.00518.00275.00518.00152.00518.00274.00518.00183.00518.00244.0061.00274.00426.00061.00183.00183.00427.00274.00426.00152.0061.00275.00426.0025.0061.00176.00518.00244.00518.00274.00518.00183.00518.00152.00331.0019.00187.00176.00518.00244.00514.0019.00522.00236.00518.00275.00518.00243.00609.00275.00518.00243.00518.00183.00427V12.728l.00274.00518.00153.00518.00274.00518.00335.00514.00183.00522.00244.00518.00274.00518.00159.00518.9442-.34553a.21909.21909,0,1,1,.1493.412l-.89643.32908.01128.02072c.057.10725.11731.2142.17862.31868l.01219.02167a8.85256,8.85256,0,0,0,.64437.94061l.911-.52592a.21862.21862,0,1,1,.21793.379l-.84592.4887.01036.01314.00183.00092.04327.04905.007.007.00579.007.00609.0067.0061.00792.00091.00092.00518.00518.007.00761.00586.007.00609.007.0061.0067.013.014.0067.00674.03816.04144.00609.007c.03193.03443.064.06825.09652.10269l.00708.007.00609.007.01273.0128h0c.03717.039.07435.07617.11244.11392q.14133.14128.27971.26878h.00091l.00861.00849.00785.007h0l.01828.01645v.00088l.00762.00609h0l.00518.00522h0l.00274.00153v.00091l.00244.00183h0l.00274.00244h0l.00518.00426V15.572l.00244.00182h0l.00274.0024h0l.00244.00187h0l.00274.00274h0l.00244.00244h0l.00274.00183h0l.00251.00244h0l.00267.00274h0l.00244.00152v.00092l.00182.00179h.00092l.00244.00247h0l.007.0061V15.604l.00336.00183h0l.00518.00426V15.611l.00274.00152h0l.00152.00274h.00092l.00182.00183.00092.00061.00944.00884.00251.00148h0l.00267.00278h0l.00244.00244h0l.00274.00183h0l.00153.00183.00091.00091.00274.00152h0l.00244.00275h0l.00281.00152h0l.00176.0027h0l.00335.00278h0l.00183.00153h.00061l.00183.00274h.00091l.0019.00152v.00092l.00237.00091v.00092l.00274.00243h0l.00244.00183h0l.00274.00183v.00088l.00244.00156h0l.00183.00183v.00091l.00243.00152c.02872-.02411.05614-.04814.0838-.07343l.00281-.00247.00145-.00088.03207-.02925.00267-.00183.00152-.00091.00092-.00153.00274-.00274.00335-.00248.00183-.00179.00244-.00274.00281-.00156v-.00088l.00328-.00182.00183-.00339.00152-.00088.00092-.00091.00274-.00244.00853-.007.00183-.00183.00091-.00091.00244-.00244.00274-.00187.00152-.00239.00275-.00183.00426-.00427.00434-.00335.00328-.00366L14.976,15.508l.00458-.00427.00152-.00152.007-.00609.001-.00092.0042-.00335.00243-.00274.00183-.00183.00427-.00427h.00091l.00427-.0043.00365-.0024v-.00183l.00518-.00335.00068-.00183.0045-.00278.00336-.00331v-.00092l.00518-.00426.00182-.00183.00244-.00244.00427-.00335h0l.00426-.00457.00275-.00244.00243-.00183.00457-.00518h0l.00427-.00339.00244-.00331.00183-.00091.00426-.00457.00183-.00153.00335-.00274.00335-.00335.001-.00091.00419-.00427.0019-.00183.00267-.00244.00427-.00426h.00091l.00434-.00457.00176-.00153.00243-.00274.00427-.00426h0l.00518-.00427.00884-.00853h.00061l.00365-.00457.00335-.00244.00183-.00183.00518-.00522.00335-.00331.00336-.00335.00189-.00092.00847-.00883.00372-.00335.00085-.00183.01279-.01192.00092-.00088.018-.01741.00183-.00239.00274-.00275.00427-.00426h.00091l.00854-.00853.00426-.00457h0l.00518-.00427ZM14.3352,2.37791l.01828-.01554v-.001l.00153-.00087.05972-.05241h0l.00091-.00274.00853-.0061V2.29839l.02682-.02407a8.65606,8.65606,0,0,0-10.673.00091c.03992.03439.0777.06917.11579.10268.10695.09842.209.19532.305.29191.16819.1685.33151.34461.48691.52682l.91379-.52835a.2186.2186,0,1,1,.21786.37905l-.85163.49327A9.27609,9.27609,0,0,1,5.84322,4.9121l.94671-.34644a.2188.2188,0,1,1,.1493.41134l-.90252.3306q.07357.15951.14077.32146a9.11865,9.11865,0,0,1,.40593,1.21606l.98289-.17186a.21952.21952,0,0,1,.07442.43268l-.959.16758a9.06435,9.06435,0,0,1,.18312,1.6204H7.88837a.21984.21984,0,0,1,0,.43968H6.86488a9.071,9.071,0,0,1-.18312,1.621l.959.16758a.21952.21952,0,0,1-.07442.43268L6.58243,11.383a8.928,8.928,0,0,1-.40495,1.21544c-.045.10878-.09172.21573-.14169.32207l.90344.33a.21909.21909,0,0,1-.1493.41195L5.84231,13.316a9.13061,9.13061,0,0,1-.87753,1.37176l.85254.493a.21873.21873,0,0,1-.21786.37935l-.91433-.52774q-.23366.27189-.48637.52591c-.096.096-.19805.19349-.305.29008-.03809.03473-.07587.06913-.11579.10451a8.6582,8.6582,0,0,0,10.673,0l-.01371-.0128-.00275-.00274h0l-.0716-.06368-.00092-.00092L14.35866,15.87h0l-.00365-.00335-.00153-.00095v-.00088l-.00274-.00183-.01554-.01462-.03016-.02682L14.30412,15.82l-.00335-.0027-.00183-.00152-.01371-.01311h0l-.00457-.00426h0l-.00518-.00427-.00335-.00365-.00092-.00061-.00426-.00366L14.266,15.7847l-.00335-.00275-.00183-.00182-.00243-.00244-.00268-.00183-.00159-.00244-.00274-.00183-.00244-.00243-.00274-.00183-.00183-.00274-.00335-.00248-.00183-.00088-.00244-.00426-.00182-.001-.00427-.00332-.00427-.00457h0l-.00419-.0043-.001-.00088L14.217,15.7396h0c-.06307-.06033-.12462-.12-.184-.17886l-.00335-.00244c-.06064-.06063-.12005-.12279-.17886-.18495l-.00792-.00853q-.05805-.06078-.114-.12279l-.00609-.00579-.00153-.00275-.007-.00765-.00792-.0088-.04472-.05-.008-.00884c-.03687-.04144-.074-.08379-.1103-.12584l-.9138.52774a.219.219,0,1,1-.21877-.37935l.85255-.493c-.03108-.03992-.06125-.08048-.09141-.121l-.01463-.02011-.00091-.00061-.02956-.04083-.00335-.00335c-.06818-.09415-.1365-.19017-.202-.28767l-.01463-.02068-.00694-.01128-.00708-.01036L12.879,14.1512l-.01462-.02163-.014-.02072-.0128-.01981-.00091-.00183-.02773-.042-.00152-.00366-.01219-.018q-.07542-.11791-.14778-.23919l-.01273-.02163-.00464-.007-.00853-.01462-.0128-.02255-.00609-.01128-.007-.01036-.01273-.02224-.02261-.03991-.00275-.00427-.01188-.01981-.00091-.00278-.01219-.02159-.0128-.02224L12.519,13.5613l-.01135-.0198-.01218-.02255-.00427-.00609-.00853-.01615-.01219-.02255-.03717-.06738-.01128-.02251-.01036-.0198-.00152-.00274-.01219-.02225-.01219-.02346-.94578.34644a.21924.21924,0,1,1-.15022-.41195l.90252-.33-.00237-.00518-.00281-.00427v-.00182l-.00152-.00336-.00275-.00518-.00243-.00457-.00183-.00579-.00274-.0046-.00153-.00515-.00267-.00518-.00251-.00426-.00183-.0061-.00243-.00517-.00092-.00157-.00183-.0027-.00182-.00518-.00244-.00431-.00274-.00514-.00153-.00609-.00183-.00427-.00243-.00518-.00275-.00518-.00182-.00426-.00244-.0061-.00183-.00339v-.00087l-.00237-.00522-.0019-.00514-.00243-.00518-.00275-.00427-.00182-.00518-.00244-.00518L12.124,12.7703l-.00153-.00518-.00267-.00518-.0019-.00457v-.00065l-.00244-.00453-.00175-.00518-.00251-.00426-.00183-.0061-.00176-.0043-.0025-.0061L12.10236,12.72l-.00152-.00518-.00274-.00518-.00153-.00427-.00091-.00247-.00183-.00362L12.092,12.695l-.00243-.00609-.00183-.00431-.00244-.00514-.00183-.00518-.00244-.00426-.00274-.00518-.00183-.0061-.00152-.00426-.00183-.00427-.00091-.00183-.00153-.00426-.00267-.00522-.0019-.00514-.00152-.00427-.00366-.00609-.00152-.00427-.00183-.00609-.00244-.00427-.00182-.00518-.00275-.00518-.0067-.01828-.00792-.01889-.0061-.0131-.00061-.00518-.00792-.018-.00792-.0192-.00328-.00853-.01135-.02864-.0067-.018-.00274-.00369-.00518-.01459-.007-.01893-.00663-.01733v-.00152l-.008-.01828-.00671-.018-.00518-.014-.00274-.00518-.00609-.01889-.00671-.01828-.00365-.00853-.00427-.01036-.007-.01893-.0067-.01828-.00084-.00332-.0061-.01554-.00708-.01919-.00609-.01707v-.00182l-.0128-.03809-.00518-.01188-.00183-.0061-.00663-.01919-.00708-.0189-.00274-.007-.00335-.01189-.007-.01919-.00579-.01889L11.84,12.036l-.00518-.01737-.007-.01889-.00518-.01646-.00092-.00247-.00609-.01828-.00663-.01886-.00373-.01218-.00237-.00762-.00609-.01828-.00609-.01981-.00251-.007-.00359-.01188-.00677-.0192-.00518-.01889-.00092-.00274-.00518-.01615-.00609-.02011-.00518-.01554-.00091-.00335-.0061-.01889-.00518-.0192-.00335-.01188L11.737,11.713l-.00518-.0189-.00579-.01919-.00183-.0061L11.72,11.6551l-.00518-.01889-.00609-.0198v-.00092l-.00426-.01828-.0061-.01889-.00426-.01554-.00085-.00427-.00609-.01919-.00525-.01981-.00274-.01036-.00244-.00853-.00518-.01981-.00518-.02011-.00183-.00426-.00335-.01463-.00518-.01889-.00518-.02072h0l-.00518-.01919-.983.17185a.21951.21951,0,0,1-.07435-.43268l.95889-.16758-.00518-.02407-.00274-.01463-.00244-.01036-.00427-.02437-.00457-.02072-.00061-.00427-.00457-.025-.00518-.02438v-.00061l-.00419-.02438-.0061-.03016-.0025-.01889-.00518-.02529-.00183-.011-.00244-.014-.00426-.025-.00275-.01646-.00183-.00853-.00426-.02407-.00335-.02255-.00092-.00274-.00335-.025-.00365-.025-.00061-.00278-.00366-.02221-.00427-.02529-.00084-.00853-.00251-.01645-.00358-.025-.0016-.01367-.00183-.01219-.00335-.025-.00274-.01924-.00091-.00575-.00336-.02529-.00335-.02407-.00091-.00183-.00274-.02407-.00336-.0259v-.00426l-.00274-.02072-.00335-.025-.00091-.00975L11.42288,10.18l-.00365-.02525-.00153-.01462-.00091-.01036-.00274-.025-.00153-.02072-.00091-.00518-.00274-.0259-.00244-.025v-.00092l-.00267-.025-.00251-.02529L11.40033,9.971l-.00182-.0192-.00244-.0259-.00091-.01127L11.39424,9.901l-.00244-.0259-.00091-.01737L11.39,9.84915l-.00183-.025-.00153-.02346-.00091-.00244-.00091-.0259-.00275-.0259V9.74464l-.00061-.02347-.00274-.02589V9.68766l-.00091-.01828-.00146-.0259-.001-.0128-.00091-.01219-.00183-.0259-.00092-.01893V9.56578l-.00145-.025-.001-.02407V9.51489l-.00092-.0259-.00091-.0259V9.45883l-.00092-.02164L11.3659,9.4113,11.365,9.40185V9.3854l-.00084-.0259V9.34457l-.001-.011H10.34059a.21984.21984,0,0,1,0-.43968h1.02257l.001-.01036V8.86893l.00084-.02681V8.82566l.00091-.00944.00061-.0259.00092-.02164V8.765l.00091-.0259.00092-.0259V8.7117l.001-.02529.00145-.025v-.0067l.00092-.0192.00183-.025.00091-.01371v-.0131l.00152-.025.00183-.0189v-.007l.00274-.0259.00061-.02438V8.48105l.00275-.025.00091-.0259.00091-.00365.00153-.02255L11.39,8.379l.00091-.00944.00091-.01646.00244-.0259.00092-.01371.00091-.01127.00244-.0259.00182-.01981.00092-.00522.00251-.02586.00267-.025V8.19947l.00609-.05542.00153-.01981.00274-.0259L11.4177,8.088l.00153-.01462.00365-.0259.00153-.01558.00091-.00941.00335-.02529.00274-.02132V7.97128l.00336-.02407.00274-.0259.00091-.00182.00335-.02316.00244-.025.00183-.007.00274-.01829.00335-.02586.00183-.01188.0016-.01219.00358-.025.00251-.01828.00084-.00762.00427-.02529.00366-.02225.00061-.00182.00365-.025.00335-.025L11.479,7.6416l.00335-.02106.00426-.025.00183-.00857.00275-.01642.00426-.025.00244-.01371.00183-.01128.00518-.02529.0025-.01889.00176-.00522.00434-.02494.00419-.025h0l.00518-.02529.00457-.02407.00061-.00518.00457-.0198.00427-.02408.00244-.01036.00274-.015.00518-.024-.95889-.16758a.21951.21951,0,0,1,.07435-.43268l.983.17186.00518-.01985h0l.00518-.01916.00518-.0198.00335-.01463.00183-.0043.00426-.01977.0061-.01919.00244-.00945.00274-.01036.00525-.01981.00511-.01893.00183-.00453.00426-.01554.00518-.01889.00518-.01893h0l.00609-.02007L11.72,6.573l.00427-.01371.00183-.0061.00579-.01919.00518-.01889.00274-.00945.00335-.01036.00518-.01889.0061-.0192.00091-.00335.00518-.01558.00609-.01976.00518-.01737.00092-.00183.00518-.01893.00677-.01885.00359-.01311.00251-.00609.00609-.01889.00609-.01924.00237-.00849.00373-.01127.00663-.018.00609-.0198.00092-.00275.00518-.01554.007-.0198L11.84,6.19214l.00091-.00274.00579-.01889.007-.01889.00335-.01127.00274-.00793.00708-.018.00663-.01981.00183-.00609.00518-.01219.0061-.01893.0067-.01828v-.0024l.00609-.01737.00708-.018.00085-.00091.01279-.03718.007-.01828.00427-.01127.00365-.00762.00671-.01828.007-.01889.00183-.0061.00518-.01279.00671-.0192.008-.018V5.832l.00663-.01733.007-.01889.00518-.01463.00274-.00426.0067-.01828.00793-.01829.00342-.01036.00328-.00853.00792-.018.00792-.0192.00061-.00427.0061-.01371.01462-.03717h0l.00275-.00431.00182-.00609.00244-.00423.00274-.00518.0016-.00518.00267-.00518.00152-.00461.0019-.00575.0042-.01036.00091-.00091.00183-.00366.00152-.00518.00183-.00518.00335-.00518.00183-.00518.00183-.0043.01706-.04049.00275-.00522.0025-.00514.00176-.00518.00183-.00518.018-.03961.00182-.00548.00275-.00518.00243-.00518.0019-.00522.00664-.01459.00182-.00426.00275-.0061.00243-.00426.00183-.00518.00153-.00522.00274-.00423.00244-.00609.00182-.00427.00183-.00274.00092-.00244.00243-.00518.00183-.00426.00251-.00518.00267-.00522.00153-.00514.00274-.00518.00183-.00457.00243-.00518.00427-.00945h0l.00183-.00609.00335-.00427-.90252-.3306A.219.219,0,1,1,11.44,4.56566l.94578.34553q.1842-.35108.3955-.685l.014-.02159q.11655-.181.24193-.35833l.01463-.02072c.06825-.096.13894-.19165.21146-.28493l-.85255-.49327a.21845.21845,0,0,1-.081-.298.2207.2207,0,0,1,.29982-.08105l.91288.52835c.064-.074.12859-.14747.19349-.21847l.00761-.00853.02255-.025.00792-.00884c.06132-.06555.12249-.13041.18465-.195l.00792-.00792.00854-.00762.05454-.05545h.00068c.0563-.05607.11328-.11213.17269-.16824h0l.01828-.01733.001-.001.00937-.00849h0l.00427-.00457h.00091l.00427-.00427V2.465l.00426-.00331.00092-.00092.00342-.00335.00176-.00091.00335-.00335.001-.00183.0042-.00335.00091-.00092.00366-.00339.00152-.00087.00366-.00366.00152-.00156.00282-.00271.00145-.00152.00366-.00274.00152-.00183.00274-.00244.00183-.00274.00244-.00152.00274-.00279.00244-.00148.00274-.00274.00152-.00244.00366-.00183.00152-.00183.00275-.00335.00152-.00091.02864-.02682ZM4.29816,14.8084l-.84591-.4887a.2186.2186,0,1,1,.21786-.379l.911.52592a8.818,8.818,0,0,0,.84645-1.30168l-.89642-.32908a.21909.21909,0,1,1,.1493-.412l.94335.34553c.0518-.11152.10086-.22365.14839-.33791a8.60612,8.60612,0,0,0,.37752-1.12434L5.197,11.142a.21988.21988,0,0,1,.07336-.43359l.97869.17124a8.668,8.668,0,0,0,.177-1.546H5.40872a.21984.21984,0,1,1,0-.43968H6.42611a8.6419,8.6419,0,0,0-.177-1.54514l-.97869.17094A.21942.21942,0,0,1,5.197,7.08705l.95272-.16667a8.54932,8.54932,0,0,0-.37752-1.12465c-.04753-.11308-.09659-.22639-.14748-.337l-.94426.34553a.21952.21952,0,0,1-.1493-.41287l.89642-.32728a8.6573,8.6573,0,0,0-.84645-1.30255l-.911.52621a.21873.21873,0,1,1-.21786-.37935l.84591-.48874c-.13139-.15113-.26881-.298-.4105-.43972-.0975-.0975-.19348-.19009-.28916-.27632-.05545-.05089-.1106-.10025-.16423-.14687-.15631.13651-.30744.27637-.45339.42319a8.66345,8.66345,0,0,0,0,12.26721c.146.146.29708.28767.45339.42326.05363-.04662.10878-.09476.16423-.146.09568-.0871.19166-.17943.28916-.27727C4.02935,15.10583,4.16585,14.959,4.29816,14.8084Z" style="fill:#a1afba;fill-rule:evenodd"/></g></svg>