<svg xmlns="http://www.w3.org/2000/svg" viewBox="0 0 18.22774 18.22804"><title>basketball-icon-UC-Santa-Barbara</title><g id="ICONS"><path d="M2.66886,2.66978a9.22576,9.22576,0,0,1,.87395-.76937l.00267-.00187.00092-.00087H3.547l.008-.00609.00084-.00153.00153-.00091a9.10577,9.10577,0,0,1,10.9272-.13834l.0042.00275.00427.00335.00426.00274A9.14923,9.14923,0,0,1,17.53668,5.629c.039.09324.07526.18648.11067.28154l.00694.01737a9.11917,9.11917,0,0,1-4.2082,11.20472l-.00427.00274-.00518.00244a9.1283,9.1283,0,0,1-6.88895.72305l-.00427-.00183-.00518-.00152H6.53733a8.81643,8.81643,0,0,1-.90861-.32055,9.14079,9.14079,0,0,1-4.778-4.57262L.84981,12.961l-.00092-.00187L.84706,12.954c-.05515-.11731-.10694-.23557-.15722-.35559a9.10584,9.10584,0,0,1,1.979-9.92863ZM6.62112,17.42546c2.852-.411,4.46964-2.08475,5.94408-3.61012A10.05868,10.05868,0,0,1,15.64937,11.34,9.88338,9.88338,0,0,0,15.018,8.31952a24.16283,24.16283,0,0,1-4.21118,2.24289,38.11906,38.11906,0,0,1-9.4293,2.48147,8.66658,8.66658,0,0,0,5.24357,4.38158Zm9.45849-6.24272a3.63089,3.63089,0,0,1,1.48145-.08467,8.75574,8.75574,0,0,0-.20385-4.69359,15.26343,15.26343,0,0,1-1.96866,1.65665,10.4018,10.4018,0,0,1,.69106,3.12161Zm1.369.34465a3.08194,3.08194,0,0,0-1.35347.1097c.00182.21237-.00518.42231-.018.62951a6.89206,6.89206,0,0,1-.89155,3.0412l.06216-.06063a8.63366,8.63366,0,0,0,2.20084-3.71978Zm-1.79316.291a10.402,10.402,0,0,0-2.77489,2.30018,10.99455,10.99455,0,0,1-5.23078,3.547,8.7811,8.7811,0,0,0,1.46408.12279,8.602,8.602,0,0,0,4.11131-1.03384A5.65041,5.65041,0,0,0,15.639,12.23734c.00975-.13833.01493-.27819.01645-.419ZM.5707,7.88075a.21629.21629,0,0,1-.05.03866,8.72461,8.72461,0,0,0,.57436,4.51294c.02773.06582.05607.13133.08471.19714a37.7279,37.7279,0,0,0,9.45848-2.472,23.50845,23.50845,0,0,0,4.214-2.256A11.79745,11.79745,0,0,0,13.88059,6.066h-.00091a12.02927,12.02927,0,0,0-.85316-1.16c-1.55123.8276-3.58632.64448-5.4891.47354a21.49432,21.49432,0,0,0-2.363-.1298A4.88041,4.88041,0,0,0,2.611,6.1013,12.1133,12.1133,0,0,0,.5707,7.88075Zm.0866-.71361A10.99832,10.99832,0,0,1,2.37239,5.73445,5.30062,5.30062,0,0,1,5.164,4.81273a21.85841,21.85841,0,0,1,2.41139.13041c1.80078.16241,3.72434.33517,5.15406-.37752a9.84483,9.84483,0,0,0-3.78322-2.643,5.6772,5.6772,0,0,0-5.1287.32055l-.00884.00609A8.78588,8.78588,0,0,0,2.97966,2.98,8.69476,8.69476,0,0,0,1.09509,5.7966,8.58769,8.58769,0,0,0,.6573,7.16714ZM13.11549,4.34045a2.5421,2.5421,0,0,0,.912-1.85384c.02675-.15718.05356-.31079.08616-.46188a8.68753,8.68753,0,0,0-8.25614-.95432,6.96151,6.96151,0,0,1,3.2417.443,10.29648,10.29648,0,0,1,4.01625,2.827ZM14.5034,2.31663c-.01463.08044-.02926.16241-.0432.24437a2.89893,2.89893,0,0,1-1.058,2.1137,11.94376,11.94376,0,0,1,.84554,1.153l.00244.00427A12.23167,12.23167,0,0,1,15.21944,7.644a14.50918,14.50918,0,0,0,1.97262-1.69809c-.01889-.05-.03961-.10025-.06033-.14931a8.69816,8.69816,0,0,0-2.62833-3.48Z" style="fill:#a1afba;fill-rule:evenodd"/></g></svg>