<svg xmlns="http://www.w3.org/2000/svg" viewBox="0 0 19.78513 18.4395"><title>bowling-pins-icon-uc-santa-barbara</title><g id="ICONS"><path d="M9.893,0a2.69038,2.69038,0,0,1,2.38464,3.92544,2.75087,2.75087,0,0,0-.242.6289c-.00945.03626-.01615.07252-.02408.10878a.21513.21513,0,0,1,.03108.11213.22365.22365,0,0,1-.06971.1618c-.0089.09324-.01316.18891-.01316.28824v.07953a4.1105,4.1105,0,0,0,.85346,2.472c.12767.19954.25808.404.386.62524a3.67656,3.67656,0,0,0,.72641-2.18774V6.14a2.74,2.74,0,0,0-.02529-.37478c-.00061-.00944-.00244-.01737-.00244-.0259-.01127-.07435-.0259-.14778-.04327-.21938a2.59464,2.59464,0,0,0-.22273-.58228,2.49257,2.49257,0,0,1-.2117-.56126,2.5145,2.5145,0,1,1,4.88335,0,2.49282,2.49282,0,0,1-.21055.56126,2.58783,2.58783,0,0,0-.22365.58228c-.00792.031-.01493.06307-.02072.095a.21588.21588,0,0,1,.02743.10608.22111.22111,0,0,1-.06551.15722c-.00793.08471-.01128.17125-.01128.26174v.07435a3.80462,3.80462,0,0,0,.79131,2.28982c.89825,1.40436,1.97872,3.09452.36076,9.76684a.22.22,0,0,1-.21329.16758v.00091H1.04667a.22008.22008,0,0,1-.21658-.18586c-1.61284-6.6583-.533-8.34694.36435-9.75039a3.80764,3.80764,0,0,0,.79192-2.2889V6.14a2.7504,2.7504,0,0,0-.025-.37478L1.958,5.73932c-.01127-.07435-.02492-.14778-.0432-.21938a2.55751,2.55751,0,0,0-.2228-.58228,2.4935,2.4935,0,0,1-.21085-.56126,2.53047,2.53047,0,0,1-.07161-.596A2.51245,2.51245,0,1,1,6.154,4.93766a2.54551,2.54551,0,0,0-.224.58228c-.00762.031-.01456.06307-.02164.095a.2138.2138,0,0,1,.02864.10608.22191.22191,0,0,1-.06642.15722c-.00694.08471-.01127.17125-.01127.26174v.07435a3.66877,3.66877,0,0,0,.72731,2.18774c.12676-.22121.25815-.4257.38514-.62524a4.10464,4.10464,0,0,0,.85347-2.472V5.22529a3.10942,3.10942,0,0,0-.0259-.40586L7.79857,4.817l-.00372-.02255a2.22218,2.22218,0,0,0-.04571-.24011,2.7391,2.7391,0,0,0-.24193-.6289l-.00579-.01279A2.68677,2.68677,0,0,1,9.893,0ZM2.35108,7.01845H5.49315a4.19361,4.19361,0,0,1-.07252-.8041V6.14c0-.06734.00183-.13376.00518-.19866H2.41934c.00335.0649.00579.13132.00579.19866v.07435a4.13162,4.13162,0,0,1-.074.8041Zm3.25877.43968H2.23621a5.723,5.723,0,0,1-.67308,1.281C.7185,10.05966-.29706,11.649,1.21943,17.99982H6.5209c-.08379-.355-.16051-.69532-.23059-1.02348l-.00159-.00884Q6.1941,16.5196,6.115,16.104l-.00274-.0131c-.03528-.1883-.06734-.37234-.09842-.5509l-.00085-.007c-.01469-.081-.02657-.16149-.03961-.241l-.00433-.02164-.00177-.01188c-.01194-.07709-.02413-.153-.03541-.22826l-.00335-.01885-.00792-.05271L5.8923,14.7633l-.00091-.00518h0c-.01036-.07769-.02157-.15452-.03108-.23069l-.00268-.01611L5.8533,14.4775l-.02163-.1746-.00945-.07069-.01889-.1685-.00609-.05606-.01554-.14687-.00938-.09323-.01219-.12706-.00951-.10878-.00268-.02925-.00677-.08288v-.00274l-.00609-.08044-.0061-.082-.00091-.01283A8.308,8.308,0,0,1,6.35088,8.847l-.06917-.10786a5.722,5.722,0,0,1-.67186-1.281ZM2.36053,5.50166H5.48461c.0061-.02834.0128-.057.01981-.08441a3.0304,3.0304,0,0,1,.259-.68161,2.01673,2.01673,0,0,0,.23339-.95523,2.07379,2.07379,0,1,0-4.14757,0,2.09608,2.09608,0,0,0,.0579.49331,2.12064,2.12064,0,0,0,.17429.46192,2.98522,2.98522,0,0,1,.25929.68161c.00762.02743.01372.05607.01981.08441ZM14.291,7.01845h3.143a4.1071,4.1071,0,0,1-.07435-.8041V6.14c0-.06734.00183-.13376.0061-.19866H14.35929c.00336.0649.00518.13132.00518.19866v.07435a4.11036,4.11036,0,0,1-.07343.8041Zm3.25876.43968H14.17526a5.73189,5.73189,0,0,1-.67187,1.281l-.06916.10786a8.10666,8.10666,0,0,1,.63743,4.16829l-.00518.07953h0l-.00938.152-.0019.00762-.00518.082-.00609.08318-.007.08288-.00243.03443-.00945.10024-.01493.15388-.00518.0518c-.00572.0585-.01182.11822-.01889.17794l-.0061.05607-.0198.17093-.007.05607-.0259.209-.00335.02068c-.00945.07256-.01981.146-.03017.22034l-.00091.00944-.00091.00518-.00238.0192c-.01042.0716-.02078.14412-.03206.21847l-.00274.01645-.00609.03443c-.05089.33243-.1103.6807-.17947,1.047h0c-.08806.47076-.19257.96986-.31354,1.50187l-.00182.00853-.00183.00792c-.02309.10177-.04814.20567-.07252.31079l-.00237.01036-.01317.05637h5.30147c1.51588-6.35085.501-7.94016-.34462-9.26073a5.72975,5.72975,0,0,1-.67095-1.281ZM14.30049,5.50166h3.12408c.0061-.02834.0128-.057.01981-.08441a2.97072,2.97072,0,0,1,.25838-.68161,2.05137,2.05137,0,0,0,.17527-.46192,2.09661,2.09661,0,0,0,.05789-.49331,2.07382,2.07382,0,1,0-4.14763,0,2.09294,2.09294,0,0,0,.05789.49331,2.11775,2.11775,0,0,0,.17435.46192,2.98054,2.98054,0,0,1,.26015.68161c.00671.02743.0128.05607.01981.08441Zm-6.11867.68587h3.42025a4.48338,4.48338,0,0,1-.082-.88271V5.22529c0-.0777.00275-.15448.007-.22974H8.258c.00427.07526.00677.152.00677.22974v.07953a4.45651,4.45651,0,0,1-.08294.88271Zm3.53695.43969H8.066a6.10377,6.10377,0,0,1-.72549,1.38455c-.911,1.42508-2.00553,3.13871-.3696,9.98805h5.84231c1.63654-6.84934.54145-8.563-.36991-9.988a6.12821,6.12821,0,0,1-.72457-1.38455Zm-3.5205-2.072h3.38826c.007-.03474.01493-.06917.02346-.1039a3.21275,3.21275,0,0,1,.27819-.72885,2.24761,2.24761,0,1,0-4.17956-.50092,2.2139,2.2139,0,0,0,.18312.49057l.00518.01035a3.22693,3.22693,0,0,1,.27819.72885C8.18364,4.48609,8.19126,4.52052,8.19827,4.55526Z" style="fill:#a1afba;fill-rule:evenodd"/></g></svg>