<svg xmlns="http://www.w3.org/2000/svg" viewBox="0 0 18.22804 18.22804"><title>bowling-ball-icon-UC-Santa-Barbara</title><g id="ICONS"><path d="M2.66978,2.66978A9.09348,9.09348,0,1,1,.69106,5.629,9.13292,9.13292,0,0,1,2.66978,2.66978Zm7.76649,2.64235a1.28532,1.28532,0,1,0,.91044.37631,1.27926,1.27926,0,0,0-.91044-.37631Zm.59964.6874a.84594.84594,0,1,0,.24864.59843.84275.84275,0,0,0-.24864-.59843Zm3.12043.24194a1.28841,1.28841,0,1,0,.90953.37721,1.28339,1.28339,0,0,0-.90953-.37721Zm.59935.6874a.84817.84817,0,1,0,.248.59934.847.847,0,0,0-.248-.59934ZM12.95857,2.8721a1.28569,1.28569,0,1,0,.91021.37661,1.2849,1.2849,0,0,0-.91021-.37661Zm.59941.6874a.84943.84943,0,1,0,.24765.59934A.84774.84774,0,0,0,13.558,3.5595ZM5.7966,1.0954A8.71073,8.71073,0,1,0,9.11417.43877,8.69685,8.69685,0,0,0,5.7966,1.0954Z" style="fill:#a1afba;fill-rule:evenodd"/></g></svg>