<svg xmlns="http://www.w3.org/2000/svg" viewBox="0 0 17.95595 20.70921"><title>checkered-flag-icon-UC-Santa-Barbara</title><g id="ICONS"><path d="M16.17742,20.27044h1.00886a.33174.33174,0,0,0,.33-.32968V.76967a.33011.33011,0,0,0-.09682-.2334l-.0086-.00853a.33006.33006,0,0,0-.22456-.08806H16.17742a.33029.33029,0,0,0-.33.33V19.94076a.32967.32967,0,0,0,.09689.23309v-.00091a.32766.32766,0,0,0,.2331.0975ZM12.95065,9.94992l-.03017-.00422a5.96811,5.96811,0,0,0-2.50829.13986.13888.13888,0,0,1-.02772.00792A5.95812,5.95812,0,0,0,8.304,11.149c-.15113.11914-.30683.22974-.46467.33243l-.02346.01641a6.37979,6.37979,0,0,1-2.69476.97355.16989.16989,0,0,1-.03535.00427,6.45682,6.45682,0,0,1-2.689-.25839.18183.18183,0,0,1-.03535-.01127A6.39156,6.39156,0,0,1,.07435,10.89849.22046.22046,0,0,1,0,10.73335H0V1.44062a.22045.22045,0,0,1,.21938-.22034.21711.21711,0,0,1,.16241.07195A5.94918,5.94918,0,0,0,2.50311,2.60057a.18137.18137,0,0,1,.03108.01131A6.00673,6.00673,0,0,0,4.21948,2.941,5.96586,5.96586,0,0,0,7.58,2.10391a.3123.3123,0,0,1,.02956-.017A6.02635,6.02635,0,0,0,8.208,1.67311V1.67219A6.40738,6.40738,0,0,1,10.256.59355.20338.20338,0,0,1,10.29214.5832a6.42888,6.42888,0,0,1,5.11652.59507V.76967a.77189.77189,0,0,1,.22456-.54328h.00183A.76433.76433,0,0,1,16.17742,0h1.00886a.76381.76381,0,0,1,.52956.21329l.01371.0131a.761.761,0,0,1,.2264.54328V19.94076a.77089.77089,0,0,1-.76967.76845H16.17742a.772.772,0,0,1-.5442-.22517h.00092l-.00092-.00092a.76915.76915,0,0,1-.22456-.54236V10.93993a5.98607,5.98607,0,0,0-2.458-.99Zm-.19958-.4698V6.94532A6.01813,6.01813,0,0,0,11.872,6.8984a5.957,5.957,0,0,0-1.31295.17276V9.59682a6.494,6.494,0,0,1,1.3032-.16,6.563,6.563,0,0,1,.88881.04327Zm0-2.97539V3.746a5.99617,5.99617,0,0,0-2.192.19165V6.62051a6.47162,6.47162,0,0,1,1.3032-.16,6.36982,6.36982,0,0,1,.88881.04418Zm0-3.19843V.76967A6.16476,6.16476,0,0,0,11.9427.7453a5.95862,5.95862,0,0,0-1.38364.216V3.4842a6.41644,6.41644,0,0,1,1.3681-.20045,6.57924,6.57924,0,0,1,.82391.02255ZM13.18984.82909V3.36175a6.42384,6.42384,0,0,1,2.21882.79279V1.69108a5.99161,5.99161,0,0,0-2.21882-.862Zm0,2.97661V6.57115a6.44312,6.44312,0,0,1,2.21882.868V4.66769a5.98114,5.98114,0,0,0-2.21882-.862Zm0,3.21214V9.54746a6.45866,6.45866,0,0,1,2.21882.86717v-2.451a5.97745,5.97745,0,0,0-2.21882-.94579ZM10.11938,9.71413V7.19731a5.98074,5.98074,0,0,0-1.8154.976c-.1228.0969-.24894.18739-.37661.27393v2.43729c.03534-.02682.07076-.05271.10543-.07922a6.388,6.388,0,0,1,2.08658-1.09113Zm0-2.97631V4.07836A5.97772,5.97772,0,0,0,8.47827,4.994a6.61237,6.61237,0,0,1-.5509.38788V7.90909c.03534-.02682.07076-.05363.10543-.08105a6.40317,6.40317,0,0,1,2.08658-1.09022Zm0-3.12317V1.103a5.97405,5.97405,0,0,0-1.64111.91471v0q-.26829.20841-.5509.387V4.85508c.09513-.0649.1883-.13406.28063-.20658a6.42826,6.42826,0,0,1,1.91138-1.03385ZM7.4886,11.18522V8.71837a6.36967,6.36967,0,0,1-2.1914.75318v2.53239a5.93481,5.93481,0,0,0,2.1914-.81872Zm0-2.97631V5.6342a6.40075,6.40075,0,0,1-2.1914.68131V9.02764a5.92413,5.92413,0,0,0,2.1914-.81873Zm0-3.075V2.65759a6.38136,6.38136,0,0,1-2.1914.68161V5.87339a5.94416,5.94416,0,0,0,2.1914-.73951ZM4.85752,12.05845V9.52156a6.4543,6.4543,0,0,1-2.192-.202v2.522a5.97131,5.97131,0,0,0,2.192.21691Zm0-2.97657V6.35447a6.56122,6.56122,0,0,1-.65815,0,6.44281,6.44281,0,0,1-1.53386-.26353V8.86519a5.96743,5.96743,0,0,0,1.49516.23588,5.7234,5.7234,0,0,0,.69685-.01919Zm0-3.167V3.3779c-.21938.01127-.43938.01127-.65815.00091a6.43271,6.43271,0,0,1-1.53386-.26417V5.63233a6.03183,6.03183,0,0,0,1.554.28494,5.86363,5.86363,0,0,0,.638-.00244ZM2.22583,11.69467V9.18486A6.40021,6.40021,0,0,1,.43877,8.22354v2.41139a5.94631,5.94631,0,0,0,1.78706,1.05974Zm0-2.97539v-2.777A6.40694,6.40694,0,0,1,.43877,4.90505V7.65858a5.97279,5.97279,0,0,0,1.78706,1.0607Zm0-3.24844V2.965A6.40182,6.40182,0,0,1,.43877,1.92966V4.32308A5.95252,5.95252,0,0,0,2.22583,5.47084Z" style="fill:#a1afba;fill-rule:evenodd"/></g></svg>