<svg xmlns="http://www.w3.org/2000/svg" viewBox="0 0 19.29442 21.87347"><title>clipboard-and-clock-icon-uc-santa-barbara</title><g id="ICONS"><path d="M10.28415,19.963a5.02075,5.02075,0,1,0,5.47058-8.19063,4.96625,4.96625,0,0,0-.59325-.20293.16968.16968,0,0,1-.02773-.00761A5.02984,5.02984,0,0,0,9.19333,14.493a5.03984,5.03984,0,0,0,0,3.841c.01469.03717.03016.07343.04662.10969a.29654.29654,0,0,1,.01462.032A5.019,5.019,0,0,0,10.28415,19.963Zm1.69626-9.54928a.21939.21939,0,1,1,0,.43877H5.18379a.21939.21939,0,1,1,0-.43877Zm-2.60761,2.852a5.50237,5.50237,0,0,0-.58472,1.05974,5.45957,5.45957,0,0,0-.06734,4.00345H2.00882V2.29835H4.58268v.70751a.2198.2198,0,0,0,.21939.21939h5.81976a.22.22,0,0,0,.22023-.21939V2.29835h2.57386v8.67084A5.4577,5.4577,0,0,0,9.97305,12.5524c-.08805.08806-.17276.17978-.25564.27393H5.18379a.21969.21969,0,1,0,0,.43938ZM11.98041,8.1431H5.18379a.21938.21938,0,1,0,0,.43876h6.79662a.21938.21938,0,1,0,0-.43876Zm0-2.27154H5.18379a.21984.21984,0,1,0,0,.43968h6.79662a.21984.21984,0,0,0,0-.43968ZM9.86946,20.16685H1.31776A1.32194,1.32194,0,0,1,0,18.849V1.77914A1.3212,1.3212,0,0,1,1.31776.46132H4.58268V.2203A.21979.21979,0,0,1,4.80207,0h5.81976a.22.22,0,0,1,.22023.2203v.241h3.26485A1.32166,1.32166,0,0,1,15.425,1.77914v9.41034a5.19529,5.19529,0,0,1,.49636.178,5.46041,5.46041,0,1,1-6.05194,8.79942Zm5.1159-9.09132V1.77914A.87847.87847,0,0,0,14.10691.901H10.84206v.95858h2.79325a.21925.21925,0,0,1,.21938.2203v8.87285a5.48354,5.48354,0,0,1,1.13067.1228Zm-6.07815,7.694a5.48849,5.48849,0,0,0,.58746.95768H1.31776A.87907.87907,0,0,1,.43931,18.849V1.77914A.88011.88011,0,0,1,1.31776.901H4.58268v.95858H1.78943a.21925.21925,0,0,0-.21938.2203V18.5492a.21982.21982,0,0,0,.21938.22029Zm4.54856-3.48335a.22177.22177,0,0,1,.18739-.248.21873.21873,0,0,1,.24681.18739l.103.73677,2.60214-2.60153a.21966.21966,0,0,1,.3111.31019L14.18035,16.3968l.30226.22548a.21944.21944,0,1,1-.26265.35162l-.09659-.07285.48538,3.49981a.2189.2189,0,1,1-.43358.06063l-.49575-3.56468-.44913.45a.21985.21985,0,0,1-.311-.31079l.59166-.59173-2.45984-1.838a.21944.21944,0,1,1,.26265-.35162l2.231,1.6661-.089-.63472ZM3.27857,6.31124h.66052a.21984.21984,0,0,0,0-.43968H3.27857a.21984.21984,0,0,0,0,.43968Zm0,2.27062h.66052a.21984.21984,0,0,0,0-.43968H3.27857a.21984.21984,0,0,0,0,.43968Zm0,2.27063h.66052a.21939.21939,0,0,0,0-.43877H3.27857a.21939.21939,0,1,0,0,.43877Zm0,2.41261h.66052a.21939.21939,0,0,0,0-.43877H3.27857a.21939.21939,0,1,0,0,.43877ZM5.02229,2.78648h5.381V.43877h-5.381Z" style="fill:#a1afba;fill-rule:evenodd"/></g></svg>