<svg xmlns="http://www.w3.org/2000/svg" viewBox="0 0 21.01422 14.9379"><title>dumbbell-icon-uc-santa-barbara</title><g id="ICONS"><path d="M6.05987.43938H5.2515a.87656.87656,0,0,0-.621.25747V.69776a.87223.87223,0,0,0-.25839.621v12.301a.88065.88065,0,0,0,.87937.87845h.80837a.87344.87344,0,0,0,.621-.25656l.00183-.00092a.87722.87722,0,0,0,.25656-.621V1.31874A.8822.8822,0,0,0,6.05987.43938ZM3.05431,2.88215H2.62316a.87246.87246,0,0,0-.62006.25656l-.00183.00152a.876.876,0,0,0-.25656.62037v7.41761a.8801.8801,0,0,0,.87845.87814h.43115a.87791.87791,0,0,0,.621-.25716H3.6762a.87953.87953,0,0,0,.25717-.621V3.7606a.88115.88115,0,0,0-.87906-.87845Zm-.43115-.43968h.43115a1.30879,1.30879,0,0,1,.87906.337V1.31874A1.31226,1.31226,0,0,1,4.3179.39032L4.32034.38758h0V.387A1.31879,1.31879,0,0,1,5.2515,0h.80837a1.32121,1.32121,0,0,1,1.319,1.31874V5.27039h6.2567V1.31874a1.3171,1.3171,0,0,1,.38606-.93116h.00091L14.02349.387,14.025.38514A1.31579,1.31579,0,0,1,14.95374,0h.80935a1.32121,1.32121,0,0,1,1.31776,1.31874V2.78008a1.3118,1.3118,0,0,1,.87845-.33761h.43115A1.32121,1.32121,0,0,1,19.70919,3.7606V5.63207h.53627a.76331.76331,0,0,1,.54267.22639h.00061a.76641.76641,0,0,1,.22548.54328v2.135a.76984.76984,0,0,1-.76876.76876h-.53627v1.87268a1.31457,1.31457,0,0,1-.387.93025l-.00091.00152a1.3168,1.3168,0,0,1-.93086.386H17.9593a1.31011,1.31011,0,0,1-.87845-.33764v1.46138a1.31558,1.31558,0,0,1-.387.93116h-.00061a1.31352,1.31352,0,0,1-.93018.387h-.80935a1.31965,1.31965,0,0,1-1.31813-1.31813V9.9457H7.37891v3.67407a1.313,1.313,0,0,1-.387.93116H6.991a1.31144,1.31144,0,0,1-.93116.387H5.2515a1.32121,1.32121,0,0,1-1.31813-1.31813V12.15839a1.31107,1.31107,0,0,1-.87906.33764H2.62316a1.31922,1.31922,0,0,1-1.31783-1.31782V9.30553H.76882a.76706.76706,0,0,1-.54334-.22548h0V9.07913A.76664.76664,0,0,1,0,8.53677v-2.135a.76561.76561,0,0,1,.22548-.54237V5.85846a.76638.76638,0,0,1,.54334-.22639h.53651V3.7606a1.31584,1.31584,0,0,1,.38514-.92872l.00159-.00153V2.82944h.00085a1.31356,1.31356,0,0,1,.93025-.387Zm17.6223,3.62928h-.53627V8.86584h.53627a.32978.32978,0,0,0,.32907-.32907v-2.135a.32582.32582,0,0,0-.09659-.2331h.00092a.32987.32987,0,0,0-.2334-.09689Zm-1.855-3.1896H17.9593a.87534.87534,0,0,0-.62092.25656l-.001.00152a.87221.87221,0,0,0-.25656.62037v7.41761a.87863.87863,0,0,0,.87845.87814h.43115a.87793.87793,0,0,0,.621-.25716h.00091a.87953.87953,0,0,0,.25717-.621V3.7606a.88115.88115,0,0,0-.87906-.87845ZM15.76309.43938h-.80935a.87721.87721,0,0,0-.621.25747l-.00091.00091a.87371.87371,0,0,0-.25747.621v12.301a.88063.88063,0,0,0,.87936.87845h.80935a.874.874,0,0,0,.62-.25656l.00183-.00092a.87851.87851,0,0,0,.25655-.621V1.31874a.88219.88219,0,0,0-.87838-.87936ZM1.30533,6.07175H.76882a.33081.33081,0,0,0-.33.33v2.135a.32971.32971,0,0,0,.09689.23336V8.76925a.32652.32652,0,0,0,.23316.09659h.53651V6.07175Zm12.33028-.36259H7.48251V9.506h6.1531Z" style="fill:#a1afba;fill-rule:evenodd"/></g></svg>