<svg xmlns="http://www.w3.org/2000/svg" viewBox="0 0 18.22804 18.22804"><title>eight-ball-icon-UC-Santa-Barbara</title><g id="ICONS"><path d="M2.66886,2.66978A9.08746,9.08746,0,1,1,.69014,5.629,9.11748,9.11748,0,0,1,2.66886,2.66978ZM7.55838,7.2485v3.73044h0v.00574h0v.00522h0v.0061l.00091.00518h0v.00609h0l.00183.00427h0v.00609h0l.00152.00518h0V11.028h.00092l.00183.0061h0l.00091.00426v.00092l.00152.00518h0l.00183.00422v.001l.00183.00426h0l.00159.00518h0l.00268.00518h0l.00182.00518h0l.0016.00427H7.58l.00183.00518h0l.00244.00457h0l.00274.00426h0l.00244.00518h0l.00274.00427h0l.00335.00426h0l.00366.00427h0l.00244.00427h0l.00335.00457h0l.00274.00422h0l.00335.00431h0l.00427.00335h0l.00274.00453H7.619l.00335.00339h0l.00336.00335h0l.00457.00427h0l.00426.00274v.00092l.00335.00243h0l.00336.00366.00091.00057.00427.00278h0l.00457.00331h0l.00433.00279h0l.0042.00243h0l.00426.00275h0l.00427.00335h0l.00427.00183v.00091l.00518.00152v.00092l.00524.00179h0l.00451.00247h0l.00518.00183v.00092l.00426.00152h.00092l.00426.00183h0l.00525.00183h0l.00511.00152h0l.00518.00183h0l.00518.00091h0l.00518.00183h0l.00518.00061h0l.00609.00091h0l.00518.00183h.0061l.00518.00092H7.7607v.00091h2.68874a.22.22,0,0,0,.22023-.21938V7.2485a.21978.21978,0,0,0-.22023-.21939H7.77685a.21906.21906,0,0,0-.21847.21939Zm.43877.2203V8.89388h2.2329V7.4688Zm0,1.86476v1.426h2.2329v-1.426ZM6.05042,6.05042a4.33186,4.33186,0,0,0-.94061,4.7201h0a4.35226,4.35226,0,0,0,.92842,1.39335l.01219.01375a4.33368,4.33368,0,1,0,0-6.1272Zm1.57377-.53475a3.89771,3.89771,0,0,0-2.10913,5.08666h0v.00148a3.89359,3.89359,0,0,0,.83427,1.25175l.01127.01127a3.87562,3.87562,0,0,0,2.75327,1.13988,3.89315,3.89315,0,1,0-1.48968-7.491ZM5.79569,1.0954A8.71073,8.71073,0,1,0,9.11387.43877,8.68974,8.68974,0,0,0,5.79569,1.0954Z" style="fill:#a1afba;fill-rule:evenodd"/></g></svg>