<svg xmlns="http://www.w3.org/2000/svg" viewBox="0 0 20.74486 15.68258"><title>first-aid-kit-icon-UC-Santa-Barbara</title><g id="ICONS"><path d="M8.84543,4.189h3.054a.22.22,0,0,1,.2203.2203V7.12144h2.713a.21977.21977,0,0,1,.21938.22v3.05522a.21983.21983,0,0,1-.21938.21939h-2.713v2.71274a.21983.21983,0,0,1-.2203.21938h-3.054a.22042.22042,0,0,1-.2203-.21938V10.616H5.91239a.2193.2193,0,0,1-.21877-.21939V7.34143a.21924.21924,0,0,1,.21877-.22H8.62513V4.40931a.22061.22061,0,0,1,.2203-.2203Zm4.68841-2.13412V.76876A.32549.32549,0,0,0,13.437.53719L13.42842.52774a.328.328,0,0,0-.22365-.08806H7.5404a.32874.32874,0,0,0-.32907.32908V2.05489Zm-6.76128,0H1.31813a1.31375,1.31375,0,0,0-.92842.38423l-.00183.00244L.387,2.44243H.38643A1.31964,1.31964,0,0,0,0,3.37272V14.36445a1.31871,1.31871,0,0,0,1.31813,1.31813h18.1086a1.31056,1.31056,0,0,0,.93025-.386l.00183-.00187a1.31292,1.31292,0,0,0,.38605-.93021V3.37272a1.31912,1.31912,0,0,0-1.31813-1.31783H13.97322V.76876a.7654.7654,0,0,0-.22548-.54237l-.01463-.014A.7658.7658,0,0,0,13.20477,0H7.5404A.7603.7603,0,0,0,6.999.22639L6.99712.227a.76367.76367,0,0,0-.22456.54176V2.05489Zm12.65417.43934H1.31813a.88043.88043,0,0,0-.62091.2566l-.001.00183a.87687.87687,0,0,0-.25747.62006V14.36445a.88067.88067,0,0,0,.87936.87841h18.1086a.87628.87628,0,0,0,.621-.25652l.001-.00091a.87578.87578,0,0,0,.25649-.621V3.37272a.88071.88071,0,0,0-.87845-.87849ZM11.681,4.62869H9.06573V7.34143a.22043.22043,0,0,1-.2203.21939h-2.713v2.61554H8.84543a.22061.22061,0,0,1,.2203.22029v2.71274H11.681V10.39665a.21925.21925,0,0,1,.21847-.22029h2.713V7.56082h-2.713a.21906.21906,0,0,1-.21847-.21939Z" style="fill:#a1afba;fill-rule:evenodd"/></g></svg>