<svg xmlns="http://www.w3.org/2000/svg" viewBox="0 0 25.9518 14.45251"><title>football-icon-UC-Santa-Barbara</title><g id="ICONS"><path d="M25.33882,6.70583A15.43276,15.43276,0,0,0,21.299,2.89434a13.03861,13.03861,0,0,1,.50885,1.8215,12.66091,12.66091,0,0,1,0,5.02084,13.0274,13.0274,0,0,1-.50885,1.82149A15.43932,15.43932,0,0,0,25.33882,7.7476a.86794.86794,0,0,0,0-1.04177ZM13.195,4.30388a.21939.21939,0,1,1-.43877,0v-.78c-.426.00366-.84828.0155-1.2645.03809q-.02606.40813-.0451.80684a.21872.21872,0,1,1-.43694-.02072q.01829-.39038.04144-.75839-.2267.01554-.451.03443-.47123.04158-.9336.09781c-.03444.2788-.0646.55881-.09141.83761a.21857.21857,0,1,1-.43542-.03869q.03519-.3757.07861-.73951-.46893.06491-.92689.14687a.21919.21919,0,1,1-.07587-.43176c.348-.06216.702-.11857,1.06066-.16667q.05941-.43923.13132-.85865a.21928.21928,0,0,1,.43267.07161q-.06215.36564-.11395.73006.41454-.04937.83609-.08562c.17185-.01554.34462-.02868.51738-.03961.01981-.28185.04144-.553.06314-.81538a.21961.21961,0,0,1,.43779.03535c-.02164.2529-.04144.50519-.05972.75321q.61153-.03245,1.23525-.03626V2.30353a.21939.21939,0,0,1,.43877,0v.78094q.62433.00366,1.23494.03626c-.01736-.248-.03717-.50031-.0588-.75321a.21937.21937,0,0,1,.43731-.03535c.02217.26235.04381.53353.064.81538.17239.01093.34515.02407.517.03961q.42141.03611.83549.08562c-.03382-.24285-.07275-.4863-.11335-.73006a.21928.21928,0,0,1,.43267-.07161q.07131.4186.13133.85865c.35863.0481.71269.10451,1.06066.16667a.21918.21918,0,0,1-.0758.43176c-.30416-.05454-.61435-.1036-.92788-.14687q.04433.36428.07953.73951a.21887.21887,0,1,1-.436.03869c-.02583-.2788-.0563-.55881-.0908-.83761q-.46116-.05577-.9336-.09781-.22442-.0192-.451-.03443.02331.36786.04236.75839a.21918.21918,0,0,1-.43786.02072c-.0131-.266-.02864-.53475-.04509-.80684-.41713-.02259-.83853-.03443-1.26511-.03809v.78Zm7.48921-1.788a12.65191,12.65191,0,0,1,.69532,2.28647,12.31332,12.31332,0,0,1,0,4.84868,12.67975,12.67975,0,0,1-.69532,2.28556q-.38758.22532-.78856.42932-.32771.1659-.66516.31689a15.5665,15.5665,0,0,0,.67887-2.4218,15.9202,15.9202,0,0,0,0-6.06927,15.55018,15.55018,0,0,0-.67887-2.42114q.33694.15037.66516.31628.40037.20339.78856.429Zm-15.41658,0a12.57517,12.57517,0,0,0-.69441,2.28647,12.31332,12.31332,0,0,0,0,4.84868,12.60258,12.60258,0,0,0,.69441,2.28556q.38757.22532.78856.42932c.21847.1106.4406.21664.66425.31689a15.67165,15.67165,0,0,1-.678-2.4218,15.9202,15.9202,0,0,1,0-6.06927,15.65517,15.65517,0,0,1,.678-2.42114c-.22365.10025-.44578.20563-.66425.31628q-.4013.20339-.78856.429Zm-.61482,9.04227A15.42424,15.42424,0,0,1,.613,7.7476a.86914.86914,0,0,1,0-1.04177A15.41769,15.41769,0,0,1,4.65276,2.89434a13,13,0,0,0-.50952,1.8215,12.66091,12.66091,0,0,0,0,5.02084,12.98884,12.98884,0,0,0,.50952,1.82149ZM18.66918,1.53233a15.39049,15.39049,0,0,0-11.38662,0,15.23111,15.23111,0,0,0-.8099,2.74382,15.50288,15.50288,0,0,0,0,5.90112,15.25551,15.25551,0,0,0,.8099,2.74321,15.28019,15.28019,0,0,0,5.69361,1.09174,15.28176,15.28176,0,0,0,5.693-1.09174,15.19813,15.19813,0,0,0,.80928-2.74321,15.47019,15.47019,0,0,0,0-5.90112,15.174,15.174,0,0,0-.80928-2.74382Zm1.42325.16332q.44334.224.87053.4756l.014.00888a15.83139,15.83139,0,0,1,4.71493,4.2667,1.29867,1.29867,0,0,1,0,1.55885,15.83656,15.83656,0,0,1-4.71493,4.267l-.014.00849q-.42735.25138-.87053.476-.57131.28885-1.16852.53292h0l-.00511.00244-.00525.00183a15.71077,15.71077,0,0,1-5.93738,1.15816,15.71266,15.71266,0,0,1-5.938-1.15816L7.033,13.29252l-.00518-.00244h0c-.39794-.1624-.78857-.34035-1.16846-.53292q-.443-.22442-.86968-.476l-.01493-.00849A15.85079,15.85079,0,0,1,.259,8.00568a1.30233,1.30233,0,0,1,0-1.55885,15.858,15.858,0,0,1,4.71577-4.2667l.01493-.00888q.426-.25137.86968-.4756c.37989-.19348.77052-.37082,1.16846-.53383h0L7.033,1.16l.00518-.00183a15.79979,15.79979,0,0,1,11.87536,0L18.9188,1.16l.00511.00183h0Q19.52127,1.40634,20.09243,1.69565Z" style="fill:#a1afba;fill-rule:evenodd"/></g></svg>