<svg xmlns="http://www.w3.org/2000/svg" viewBox="0 0 15.85687 19.84204"><title>free-weight-Icon-UC-Santa-Barbara</title><g id="ICONS"><path d="M2.32242,6.30755,2.32943,6.3l.00762-.007L2.345,6.28622l.0067-.007L2.35624,6.274l.00244-.00179.00792-.00762.00677-.007L2.38123,6.25l.00761-.007.00281-.00335.0042-.00457.008-.00675.00664-.007.00792-.00793A8.06767,8.06767,0,0,1,3.271,5.49769V4.78226a3.38835,3.38835,0,0,1,3.3779-3.3779H9.208a3.38845,3.38845,0,0,1,3.37888,3.3779v.716a7.90644,7.90644,0,0,1,.85157.71513l.00768.00793.00786.007.00762.00675.00457.00457.00244.00335.008.007.00664.00762.00792.007.007.00762.00244.00179.00518.00522.007.007.00761.00674.007.007.00762.00758V4.366A3.93815,3.93815,0,0,0,9.6087.43968H6.24878A3.93656,3.93656,0,0,0,2.32242,4.366V6.30755ZM6.002,10.51762a.21939.21939,0,1,1,0-.43877h.61489a.21931.21931,0,0,1,.22036.21939v3.23195a.21988.21988,0,1,1-.43975,0V10.51762Zm1.31783-.21938a.21983.21983,0,0,1,.21938-.2203v.00091H9.8549a.21939.21939,0,1,1,0,.43877H7.75948v1.17614H9.8549v.00087h.01219l.00518.001h.00518l.00609.00091h0l.00518.00092h0l.00518.00061h0l.00518.00091h0l.00579.00091h0l.00518.00183h0l.00518.00092v.00091l.00518.00061h0l.00518.00183h0l.00457.00183h0l.00585.00243h0l.00451.00183h0l.00518.00244h0l.00518.00183h0l.00426.0027h0l.00525.00248h0l.0042.00183v.00091l.00427.00244h0l.00518.00274h0l.00426.00244h0l.00457.00335h0l.00335.00274v.00092l.00427.00243h0l.00427.00366h0l.00426.00335h0l.00366.00335h0l.00426.00366h0l.00336.00331h0l.00365.00339v.00092l.00433.00335h0l.00329.00366v.00087l.00281.00339h0l.0042.00427h0l.00243.00426v.00092l.00366.00335h0l.00244.00457h0l.00335.00426h0l.00274.00427h0l.00251.00423h0l.00267.00522h0l.00244.00518h0l.00274.00426h0l.00244.00457h0l.00189.00514h0l.00177.00522h0l.00152.00518h0l.00281.00518h0l.00085.00427v.00091l.00182.00518h0l.00153.00427v.00091l.00091.00518h0l.001.00518h0l.00176.00518V11.876l.00061.00453h0l.00092.00583h0l.00091.00518h0v.00609h0v.00518h0l.00092.00514h0v.0061h0v1.61617a.22022.22022,0,0,1-.2203.22029H7.534l-.00609-.00091h-.011l-.00518-.00183h-.0061l-.00518-.00091h0l-.00511-.00092h0l-.00524-.00152h0L7.485,13.74347h0l-.00518-.00182h0l-.00518-.00092h0l-.00518-.00156h0l-.00518-.00179h0l-.00518-.00244h0l-.00518-.00186h0l-.00421-.00271h0L7.445,13.72885H7.44442L7.43924,13.727h0l-.00457-.00331h0l-.00427-.00278h0l-.00426-.0024H7.42529L7.421,13.71575h0l-.00427-.00244h0l-.00426-.00366h0l-.00457-.00335h0l-.00427-.00244h0l-.00335-.00457h0L7.396,13.69686h0l-.00365-.0034H7.39177l-.00372-.00453h0l-.00335-.00335h0l-.00427-.00335h0l-.00365-.00366h0l-.00329-.00426h0L7.37007,13.67h0l-.00365-.00426h0l-.00335-.00366h0l-.00244-.00427h0L7.357,13.65359h0l-.00244-.00427h0l-.00274-.00518h0l-.00335-.00426h0l-.00183-.00431h0l-.00244-.00514h0l-.00274-.00457h0L7.339,13.62068h0l-.00182-.00427h0l-.00244-.00521h0l-.00085-.00514h-.001l-.00183-.00518h0l-.00152-.00518h0l-.00177-.00518h0l-.001-.00518h0l-.00092-.00518h0L7.32437,13.575h0l-.00092-.00518h0l-.00091-.0061h0l-.00085-.00518h0l-.001-.00609h0v-.00522h0v-.00514h0l-.00091-.00579h0v-.00609h0V10.29824Zm.43968,1.83612v1.17736h1.876V12.13436Zm-4.04915-6.934v-.418A2.94935,2.94935,0,0,1,6.64885,1.844H9.208a2.94883,2.94883,0,0,1,2.93913,2.93822v.41805a8.025,8.025,0,0,0-1.18735-.614,7.94318,7.94318,0,0,0-6.06267,0,8.01949,8.01949,0,0,0-1.1868.614Zm10.26441,1.585a7.93008,7.93008,0,1,1-12.09292,0V4.366A4.38148,4.38148,0,0,1,6.24878,0H9.6087a4.37767,4.37767,0,0,1,4.366,4.366V6.78536ZM5.253,9.23819A3.7783,3.7783,0,1,0,6.48218,8.417,3.79361,3.79361,0,0,0,5.253,9.23819ZM6.64885,8.822a3.35625,3.35625,0,0,0-1.812,1.813,3.34785,3.34785,0,0,0,4.37214,4.37122A3.33731,3.33731,0,0,0,11.27328,11.914a3.33606,3.33606,0,0,0-.97961-2.36565A3.37938,3.37938,0,0,0,9.20894,8.822a3.3659,3.3659,0,0,0-2.56009,0ZM5.06387,4.9922a7.4837,7.4837,0,0,1,7.17408.79557l.00244.00179.00366.00247.02163.01554.00853.0061.007.00518.00061.00091.03389.02407.00237.00183a7.3882,7.3882,0,0,1,.80258.671l.00518.00609.00244.00183.0518.05.00707.007.0042.00518.00366.00274.0067.00671.00792.00792.0067.0067.00793.00792.00335.00244.00365.00366.00244.00335.00335.00335.00275.00366.00335.00244.00365.00426.00336.00274.00274.00336.00335.00274v.00091l.00335.00244.00274.00274q.16683.16958.32207.348l.00189.00274.0061.0067.00237.00275A7.49425,7.49425,0,1,1,2.59452,6.65677L2.59787,6.654l.00274-.00244.00092-.00091L2.604,6.64794l.00366-.00336.00244-.00274.00335-.00426.00372-.00244.00329-.00366.00335-.00335.00274-.00335.00335-.00366.00366-.00244.0067-.00792.00792-.0067.00671-.00792.008-.00671.00238-.00274.00457-.00518.00762-.007L2.692,6.55988l.00609-.0061.00183-.00061a7.54575,7.54575,0,0,1,.90862-.75687l.01737-.01284A7.40612,7.40612,0,0,1,5.06387,4.9922Z" style="fill:#a1afba;fill-rule:evenodd"/></g></svg>