<svg xmlns="http://www.w3.org/2000/svg" viewBox="0 0 16.42361 18.43859"><title>scale-icon-UC-Santa-Barbara</title><g id="ICONS"><path d="M15.10548,18.43859H1.31813A1.32121,1.32121,0,0,1,0,17.12046V1.31783A1.31447,1.31447,0,0,1,.387.387H.38788V.386L.39062.38423A1.31291,1.31291,0,0,1,1.31813,0H15.10548a1.31787,1.31787,0,0,1,1.31813,1.31783V17.12046a1.31416,1.31416,0,0,1-.386.93025l-.0019.00091a1.31307,1.31307,0,0,1-.93025.387ZM6.2957,3.08173H7.42553V4.74509a.21939.21939,0,1,0,.43877,0V2.86143A.21847.21847,0,0,0,7.64491,2.642H6.2957a.21984.21984,0,1,0,0,.43968ZM8.98193,4.023h.9266V4.5257H8.779a.21984.21984,0,0,0,0,.43968h1.34891a.22061.22061,0,0,0,.2203-.22029V2.86143a.21925.21925,0,0,0-.2203-.21938H8.779a.21984.21984,0,0,0,0,.43968H9.90853v.50184h-.9266a.21969.21969,0,1,0,0,.43938ZM8.43165,5.72378h3.61746a.21988.21988,0,0,0,.21939-.2203V2.103a.22047.22047,0,0,0-.21939-.2203H4.37488a.22042.22042,0,0,0-.21939.2203V5.50348a.21984.21984,0,0,0,.21939.2203H7.992v8.20434a.21984.21984,0,0,0,.43968,0V5.72378Zm3.39808-3.40136H4.59517V5.2841h7.23456V2.32242ZM1.31813,17.99891H15.10548a.88045.88045,0,0,0,.62136-.25656l.00053-.00183a.87125.87125,0,0,0,.25656-.62006V1.31783a.87938.87938,0,0,0-.87845-.87906H1.31813A.87635.87635,0,0,0,.69807.69593L.69715.69681a.87385.87385,0,0,0-.25747.621V17.12046a.88223.88223,0,0,0,.87845.87845Z" style="fill:#a1afba;fill-rule:evenodd"/></g></svg>