<svg xmlns="http://www.w3.org/2000/svg" viewBox="0 0 15.65401 18.63908"><title>schedule-icon-uc-santa-barbara</title><g id="ICONS"><path d="M14.33612,2.36234h-1.2767V4.06561a.21984.21984,0,1,1-.43968,0V2.36234H3.03335V4.06561a.21972.21972,0,1,1-.43944,0V2.36234H1.31813a.87144.87144,0,0,0-.621.25716H.6963a.87673.87673,0,0,0-.25753.621V17.32091a.88062.88062,0,0,0,.87936.87849h13.018a.87928.87928,0,0,0,.62012-.25656l.00085-.00091a.87847.87847,0,0,0,.25717-.621V3.24048a.87947.87947,0,0,0-.87814-.87814ZM7.82627,16.98487H1.60485a.22043.22043,0,0,1-.2203-.21938V6.768a.22043.22043,0,0,1,.2203-.21939H14.04848a.22.22,0,0,1,.2203.21939v9.9975a.22.22,0,0,1-.2203.21938H7.82627Zm-2.891-.43968V13.65267H7.60689v2.89252Zm-3.111-2.89252H4.49591v2.89252H1.82424V13.65267Zm3.111-.43968V10.32048H7.60689V13.213Zm-3.111,0V10.32048H4.49591V13.213ZM7.60689,6.98828V9.8808H4.93522V6.98828Zm-3.111,0V9.8808H1.82424V6.98828Zm3.5506,6.66439h2.67136v2.89252H8.04651V13.65267Zm3.11013,0H13.8291v2.89252H11.15664V13.65267ZM8.04651,13.213V10.32048h2.67136V13.213Zm3.11013,0V10.32048H13.8291V13.213Zm-.43877-6.22471V9.8808H8.04651V6.98828Zm3.11123,0V9.8808H11.15664V6.98828ZM12.61974,1.92265V.21938a.21984.21984,0,0,1,.43968,0V1.92265h1.2767A1.32121,1.32121,0,0,1,15.654,3.24048V17.32091a1.3171,1.3171,0,0,1-.387.9312h-.00068a1.312,1.312,0,0,1-.93024.387H1.31813A1.31963,1.31963,0,0,1,0,17.32091V3.24048a1.31461,1.31461,0,0,1,.38453-.92842l.00152-.00152L.387,2.30962h0a1.31325,1.31325,0,0,1,.93116-.387H2.59391V.21938a.21972.21972,0,0,1,.43944,0V1.92265Z" style="fill:#a1afba;fill-rule:evenodd"/></g></svg>