<svg xmlns="http://www.w3.org/2000/svg" viewBox="0 0 20.08031 19.7229"><title>steering-wheel-icon-UC-Santa-Barbara</title><g id="ICONS"><path d="M16.45987,12.464a.219.219,0,0,1,.28215-.10874l-.28215.10874Zm-4.881-.96555a.21941.21941,0,0,1-.30927-.00153l.30927.00153ZM8.6233,11.496a.2183.2183,0,0,1,.00153-.30836L8.6233,11.496Zm8.21745,5.06137.01279.01218.0061.00579a9.67185,9.67185,0,0,0,2.59878-8.65164,9.50972,9.50972,0,0,0-.54054-1.795A9.66463,9.66463,0,0,0,16.8725,3.03328l-.011.01128-.007.00762-.01371.0131L15.30506,4.601c.15783.16241.30988.33243.45431.50855q.22806.28153.42658.57984c.13041.19684.25388.4022.36777.61641q.14672.27377.26874.55821a.17925.17925,0,0,1,.01372.0326l.02437.05789q.13986.3396.24528.68405a7.18584,7.18584,0,0,1,.17521.7066c.04662.23249.08135.4732.10641.72214.02308.24528.03527.48874.03527.73063,0,.24106-.01219.48543-.03527.73162-.02506.24772-.05979.48874-.10641.72123a7.18654,7.18654,0,0,1-.17521.7066q-.10374.33912-.241.67369l-.00427.01036c-.0908.22-.1944.43785-.30835.65205-.114.21238-.23919.41957-.37235.62094a7.222,7.222,0,0,1-.43084.58293c-.14534.177-.298.34827-.45705.51068l1.54879,1.5494ZM8.23122,7.95906a.22008.22008,0,0,0-.22036.2203v1.84312A2.08334,2.08334,0,0,0,8.6233,11.496l.001.00091.00054.00092h0a2.08121,2.08121,0,0,0,1.47444.61214h.00609a2.08271,2.08271,0,0,0,1.47353-.61153l.001-.00061h.00085v-.00092a2.08184,2.08184,0,0,0,.61305-1.47444V8.17936a.22.22,0,0,0-.2203-.2203Zm3.52287.43968H8.45061v1.62374a1.6414,1.6414,0,0,0,.48349,1.16517v.00092a1.64453,1.64453,0,0,0,1.16517.48264h.00609a1.63906,1.63906,0,0,0,1.16426-.48264l.00183-.00092a1.64449,1.64449,0,0,0,.48264-1.16517V8.39874Zm4.994,8.67693a.2191.2191,0,0,0,.266-.03474l.128-.12858A10.08141,10.08141,0,0,0,18.40142,4.22527a10.18448,10.18448,0,0,0-1.24554-1.529l-.115-.1164-.01279-.0131a.22.22,0,0,0-.31019,0l-.02681.02773a9.85224,9.85224,0,0,0-13.316-.01311v-.0006a.2193.2193,0,0,0-.30988.0006l-.128.12889A10.112,10.112,0,0,0,.76,5.98034,9.929,9.929,0,0,0,.19166,7.86216a10.14456,10.14456,0,0,0-.00092,3.92057,9.92818,9.92818,0,0,0,.56583,1.87848,10.07076,10.07076,0,0,0,2.167,3.26485l.12774.12889.00085.00061a.21813.21813,0,0,0,.266.03291,9.84572,9.84572,0,0,0,13.42994-.0128ZM16.38034,2.90379l-1.28,1.28095a7.5748,7.5748,0,0,0-3.58723-1.79315,7.72476,7.72476,0,0,0-2.97356,0,7.64781,7.64781,0,0,0-1.42508.43172l-.00091.001v-.001a7.68153,7.68153,0,0,0-1.21789.64082,7.57033,7.57033,0,0,0-.92933.70751l-1.28-1.28a9.41289,9.41289,0,0,1,12.69408.01219ZM14.79956,4.50255a.21887.21887,0,0,0,.03992.25046l.12614.12767q.2395.24223.45347.50549c.14161.17334.27538.3565.40061.54481.12706.19013.24284.38453.348.58136.04083.07679.08045.15449.11945.234H3.80539c.03535-.07069.071-.14077.10787-.20993q.15676-.29389.35162-.58472H4.264l.00084-.00092c.12615-.19074.26265-.37386.40525-.54907.14412-.17642.29617-.34461.45492-.50645l.128-.12763a.21846.21846,0,0,0,.02163-.28337A7.14794,7.14794,0,0,1,7.282,3.22856h0A7.10744,7.10744,0,0,1,8.6233,2.82331a7.23427,7.23427,0,0,1,2.80629,0,7.16775,7.16775,0,0,1,3.37,1.67924Zm1.68255,2.68257H3.60856q-.11793.293-.21421.60727a6.8216,6.8216,0,0,0-.16575.66424c-.04418.226-.078.45248-.10025.678-.013.13468-.02255.2721-.02773.41287a7.77511,7.77511,0,0,1,4.278,2.345A6.57292,6.57292,0,0,1,9.00326,16.3709v.76266h0a.28158.28158,0,0,1-.00335.03535.21923.21923,0,0,1-.25229.18038,7.58285,7.58285,0,0,1-3.82276-1.85684L3.63354,16.78377a9.41708,9.41708,0,0,0,12.79952-.01219l-1.29125-1.29132a7.58749,7.58749,0,0,1-1.62046,1.12709,7.50741,7.50741,0,0,1-2.05916.71356.2189.2189,0,0,1-.25656-.17368.23783.23783,0,0,1-.00426-.0414h0V16.3709a6.58324,6.58324,0,0,1,1.59121-4.43708,7.696,7.696,0,0,1,4.188-2.36046c-.00426-.15906-.01462-.31445-.02955-.46467a6.84368,6.84368,0,0,0-.09987-.67979c-.04517-.22364-.10032-.44577-.16614-.66337q-.09186-.30068-.20293-.58041Zm-1.64964,7.98435-.00609-.0061a.21883.21883,0,0,1,0-.30835l.12706-.128c.15966-.16149.31262-.33.45613-.5061q.21618-.26555.40678-.55033c.12523-.18891.24261-.38418.34979-.58468.10451-.19592.2011-.40068.28916-.61214l.00457-.00979q.12534-.30434.22517-.63377c.06582-.21752.121-.43965.16614-.66425a6.84458,6.84458,0,0,0,.09987-.67792c.01493-.152.02529-.30652.02955-.46558a7.2325,7.2325,0,0,0-3.85895,2.199,6.15507,6.15507,0,0,0-1.4806,4.1494v.46467a7.10457,7.10457,0,0,0,1.67981-.61767,7.176,7.176,0,0,0,1.51161-1.04843ZM3.207,16.58937a9.66943,9.66943,0,0,1-2.04545-3.09575,9.43237,9.43237,0,0,1-.53962-1.79468A9.64988,9.64988,0,0,1,3.21976,3.047l.00609.007.01646.01372,1.546,1.546q-.23949.245-.45857.51129c-.153.18765-.29708.38266-.43023.58319H3.89863c-.13125.19592-.25473.404-.37143.62189q-.13986.26143-.25716.532a.2036.2036,0,0,0-.01493.03382l-.03619.08532c-.09331.22639-.17528.45518-.24444.68405A7.459,7.459,0,0,0,2.692,9.09315c-.02316.24528-.03534.49057-.03534.73158s.01218.48539.03534.73067a7.47916,7.47916,0,0,0,.28246,1.42843q.10374.34463.24444.68406c.09164.22029.19432.43724.30676.6487.114.2142.23736.41988.36777.61671.13224.19867.27575.39307.42749.57954.14352.17642.29556.34644.4537.50885L3.21824,16.579l-.00457.00335-.00671.007ZM3.09819,9.99476c.00426.1779.01462.35158.03016.52012q.03336.33822.10025.678a6.84346,6.84346,0,0,0,.16575.66425,6.65783,6.65783,0,0,0,.22982.64413,6.732,6.732,0,0,0,.28848.6091c.10458.19683.22.39123.34614.58045.12614.18892.26021.372.40159.54572q.21527.26326.45431.50519l.12523.128a.21831.21831,0,0,1-.00152.30836l.00091.00087-.00518.0034A7.15852,7.15852,0,0,0,6.8076,16.25664a7.08494,7.08494,0,0,0,1.756.61153V16.3709a6.14064,6.14064,0,0,0-1.51222-4.18657A7.31346,7.31346,0,0,0,3.09819,9.99476Z" style="fill:#a1afba;fill-rule:evenodd"/></g></svg>