<svg xmlns="http://www.w3.org/2000/svg" viewBox="0 0 20.34205 11.46493"><title>swimmer-icon-uc-santa-barbara</title><g id="ICONS"><path d="M15.15027,8.86615,14.08108,7.01327a.21876.21876,0,0,1,.08051-.29861l1.07254-.61854a.21888.21888,0,0,1,.23059.007V6.10222a2.31793,2.31793,0,0,0,.61854.291,2.3503,2.3503,0,1,0-.98387-3.91356h-.00092a2.34381,2.34381,0,0,0-.6874,1.66274c0,.04418.00092.07953.00183.10543.00061.02315.00335.05972.00768.10359a.21958.21958,0,0,1-.12712.21847L13.26479,5.164a.21921.21921,0,0,1-.298-.08014h-.00061L10.28422.43877H4.28133a.32927.32927,0,0,0-.33.32907v.76785a.33084.33084,0,0,0,.33.33H8.726a.21956.21956,0,0,1,.19714.12248l1.28674,2.22858a.21992.21992,0,0,1-.07946.29982L6.85513,6.40722l-.01188.00671-.50885.29369H11.624a.21938.21938,0,1,1,0,.43876H.21938a.21938.21938,0,1,1,0-.43876H5.45869L6.62478,6.034l.011-.007L9.72114,4.246,8.59984,2.30444H4.28133A.7661.7661,0,0,1,3.739,2.079l-.00092-.00092a.76675.76675,0,0,1-.22547-.54236V.76784A.76454.76454,0,0,1,3.73805.22639L3.739.22548A.76715.76715,0,0,1,4.28133,0h6.129a.22245.22245,0,0,1,.19013.10878l2.63595,4.56649.73829-.42562c-.00244-.04419-.00335-.07953-.00335-.10726a2.78093,2.78093,0,0,1,.8172-1.9711V2.16977h.00092A2.78776,2.78776,0,1,1,15.958,6.814a2.84585,2.84585,0,0,1-.61945-.273l-.76937.4439,1.08656,1.88126h4.46629a.21984.21984,0,1,1,0,.43968H8.71746a.21984.21984,0,0,1,0-.43968Zm-.492,2.15906a.21986.21986,0,0,1,0,.43972H3.25267a.21986.21986,0,0,1,0-.43972Z" style="fill:#a1afba;fill-rule:evenodd"/></g></svg>