<svg xmlns="http://www.w3.org/2000/svg" viewBox="0 0 16.61374 18.67713"><title>table-tennis-icon-uc-santa-barbara</title><g id="ICONS"><path d="M9.69432,0a6.91859,6.91859,0,0,1,5.47,11.156c-.12615.163-.25991.31932-.40068.47076a.13427.13427,0,0,1-.02255.025,6.90855,6.90855,0,0,1-3.16278,1.926v3.78041a1.31627,1.31627,0,0,1-.386.93116l-.001.00087a1.31612,1.31612,0,0,1-.93116.387H9.1288a1.3129,1.3129,0,0,1-.93025-.387l-.00091-.00087a1.313,1.313,0,0,1-.387-.93116V13.57772a6.93666,6.93666,0,0,1-4.278-3.51106A2.41433,2.41433,0,0,1,.72122,9.64344L.70758,9.63155a2.41558,2.41558,0,0,1,0-3.41629V6.21465l.00085-.00091H.709a2.40732,2.40732,0,0,1,1.7079-.70843,2.44436,2.44436,0,0,1,.49386.05119A6.92117,6.92117,0,0,1,9.69432,0ZM4.367,8.24944l.00085-.00183.007-.04814.00152-.01036.00518-.03992.00091-.0067L4.38432,8.127V8.12421l.001-.0128.00085-.01128.00061-.00426L4.38859,8.08V8.07484l.00183-.0259V8.04833l.001-.01493L4.39194,8.024v-.0067l.00091-.01554V7.98618L4.39377,7.973V7.97033l.00091-.01615v-.057l-.00091-.01493V7.87191l-.00092-.01036V7.84083L4.39194,7.821V7.82011l-.00152-.0198V7.796L4.3895,7.7805l-.00091-.01036V7.7607l-.00244-.01554V7.74059l-.00183-.01981V7.71987l-.00274-.01981v-.0043l-.00152-.01459-.00183-.01036-.00092-.00944-.00243-.01554V7.64126l-.00275-.0189-.00091-.00182-.00244-.018-.00091-.00609-.00274-.01372L4.3636,7.57239l-.00183-.00883-.00243-.01615-.00092-.00366-.00426-.01889-.00275-.01219L4.3505,7.50506,4.349,7.499l-.00275-.0131L4.3438,7.4755,4.342,7.467l-.00335-.01554-.00183-.00335-.00427-.0192-.00091-.00152-.0042-.01646-.00189-.007-.00244-.01311-.00366-.01036L4.317,7.37278l-.00426-.0155L4.3118,7.35392l-.00609-.01828V7.33381l-.00518-.01706-.00274-.00609-.00427-.01219-.00335-.01036-.00274-.00762L4.28225,7.265,4.2817,7.2613l-.00609-.01707-.001-.00183L4.26854,7.226l-.00244-.007-.00457-.011L4.25818,7.1967l-.00336-.007-.007-.01462V7.17141l-.00793-.01706-.0006-.00183L4.23319,7.137,4.22953,7.13l-.00517-.011-.00427-.01131-.00335-.0061-.007-.0155-.00091-.00182L4.20028,7.0669l-.00761-.0171-.00366-.007-.00518-.01036-.00609-.01036-.00244-.007c-.02072-.0387-.04235-.07861-.06582-.1164L4.10887,6.896,4.1,6.88316l-.0042-.007-.0061-.00941c-.02322-.03717-.04851-.07343-.07441-.10969l-.0109-.01554-.00281-.00274a2.03415,2.03415,0,0,0-.18648-.21512v.00091A1.9787,1.9787,0,0,0,1.01837,6.523l-.001.00152a1.97909,1.97909,0,0,0,.001,2.79593l.01121.01218A1.9781,1.9781,0,0,0,4.367,8.24944ZM4.12594,9.63155a2.54343,2.54343,0,0,1-.22365.19684,6.48348,6.48348,0,0,0,.99332,1.44489.19468.19468,0,0,1,.03815-.0034h9.56293q.1682-.18412.32116-.38266A6.48049,6.48049,0,1,0,3.33219,5.68508a2.42663,2.42663,0,0,1,.79375.52866H4.125l.00092.00091.01462.01463.00518.00609.00975.00853.01043.01219.0042.00335.01371.01463.00183.00274.01219.0128.00768.00884.00609.0067.01274.014.00091.00153.014.01554.00518.00518c.018.02163.03723.04414.05515.06734l.00609.007.01219.01463.00061.00183.01737.02163.00792.01128.00944.01184.00335.00461.01219.01706.00153.00183.01218.01645.00518.00762.00793.01128.00853.01218.00518.007.01127.01615.00183.00366.01188.01889.00281.00274.0103.01615.00518.00792.00761.01219.00792.01184.00427.008.01127.01736.00092.00244.01188.01981.02346.04052.00762.0131.00366.00762.01036.01737.00152.00274.01036.02072.00183.00244.00944.01828.01036.02072.007.01371.00335.007.01036.02072.01036.02163.00183.00335.00853.01737.01829.04388.0095.0192V6.984l.00847.02163.00183.00427.008.01828.01608.04327.00792.02072.00092.00152.00859.02255.00085.00335.0061.0192.00335.00944.00427.0128.00518.01493.00182.00762.007.02072.00092.00183.0067.02254.00183.00427.00518.01794.00609.0235.00427.01554.00183.00666c.01279.047.02407.09358.03351.14016l.00427.02411.00091.00427.00342.0192.00268.011.00182.01218.00336.01737.00091.0067.00342.02347h0L4.81,7.5791v.00518l.00274.01919.00183.01189.00152.01218.00189.01829.00085.00609.00153.02316.00091.00091.00281.02407v.0061l.00146.01889.00091.01219.00092.01218.00182.018v.0061l.00153.025h0l.00091.02525v.00583l.00092.01828L4.83345,7.86v.12519l-.00091.01467-.00092.01645v.0024L4.83071,8.038v.00853l-.00055.01036-.001.01889v.00183l-.00182.01828-.00092.0128v.00609l-.00152.01889-.00085.00518-.001.0131-.00274.018v.00183l-.00153.018L4.818,8.19947l-.001.00944-.00244.018v.00366L4.81188,8.247,4.81,8.26071V8.265l-.00335.01828-.00085.00666-.0019.01219a2.41458,2.41458,0,0,1-.678,1.32944Zm9.9329,2.07806H5.331q.11253.10329.23042.20014a6.47146,6.47146,0,0,0,2.51767,1.28618.21963.21963,0,0,1,.17124.2142v3.948a.87883.87883,0,0,0,.25656.621l.00061.00092a.87869.87869,0,0,0,.62128.25747h1.13135a.87532.87532,0,0,0,.621-.25747l.00091-.00092a.87706.87706,0,0,0,.25747-.621v-3.948a.2191.2191,0,0,1,.16576-.21329A6.46751,6.46751,0,0,0,14.05884,11.70961Z" style="fill:#a1afba;fill-rule:evenodd"/></g></svg>