<svg xmlns="http://www.w3.org/2000/svg" viewBox="0 0 18.22774 18.22808"><title>tennis-ball-icon-uc-santa-barbara</title><g id="ICONS"><path d="M2.67039,2.66982,2.675,2.66464l.00426-.00427.00427-.00426.00433-.00522.0042-.00423.00518-.00427.00518-.00457L2.707,2.6326l.00244-.00239.00183-.00092.00426-.00518.00427-.00426.00518-.00518.00426-.00339.00518-.00515L2.738,2.60156l.00579-.00426.00366-.00518L2.749,2.5912l.00366-.00335.00426-.00426.00427-.00427.00518-.00518.00518-.00457.00426-.00427L2.78008,2.561l.02962-.02773.0042-.0043a9.11859,9.11859,0,1,1,.00427,13.17342l-.00427-.00431-.00945-.00849-.00517-.00518-.0192-.01828-.00427-.00427-.00426-.00426-.00518-.00427-.00518-.00427-.00427-.00548-.00426-.00427L2.749,15.636l-.00152-.00091-.00427-.00427L2.738,15.62564l-.00366-.00426-.00518-.00518-.00426-.00427-.00518-.00457-.00427-.00426-.00426-.00427L2.70939,15.597,2.707,15.59453l-.00457-.00515-.00518-.00426L2.692,15.58085l-.0042-.00461L2.68349,15.572l-.00427-.00518L2.675,15.56257l-.00457-.00427a9.10451,9.10451,0,0,1,0-12.88848Zm1.10667-.3955c.03961.0353.07922.07008.11548.10359.10116.09233.20323.18922.305.29191h.00092A9.11432,9.11432,0,0,1,6.17717,5.62906,9.09024,9.09024,0,0,1,6.8683,9.11421a9.09051,9.09051,0,0,1-.69113,3.48424A9.11693,9.11693,0,0,1,4.19846,15.5583l-.01311.01128c-.0975.09842-.19592.19165-.29281.2788-.03626.03473-.07587.06913-.11548.10451a8.661,8.661,0,0,0,10.67454,0c-.04053-.03538-.07855-.06978-.1167-.10451-.10695-.09659-.209-.1941-.3047-.29008a9.10728,9.10728,0,0,1,0-12.88848c.09659-.09659.19775-.19349.3047-.29191.03815-.03351.07617-.06829.1167-.10359a8.66262,8.66262,0,0,0-10.67454,0Zm-.17886.42837c-.05607-.05085-.11061-.0993-.16332-.14592-.03626.03108-.07161.06308-.107.09412H3.327c-.071.06494-.14077.12953-.20993.19535l-.00427.00426L3.10337,2.859l-.00458.00514-.00426.00339v.00091l-.00427.00366-.00518.00518-.00853.00853-.00426.00426-.00518.00427-.00451.00427-.00524.00457-.00153.00243L3.054,2.9084l-.00518.00426-.00426.00427-.00427.00426-.00511.00427L3.03085,2.93l-.00457.00423-.00518.00522-.00244.00243-.00177.00183L3.01256,2.948l-.00426.00518-.00518.00426-.00427.00423-.00457.00461L2.99,2.97147l-.00518.00427L2.98057,2.98a8.66345,8.66345,0,0,0,0,12.26721l.00427.00522L2.99,15.257l.00426.00426.00457.00423.00427.00522.00518.00335.00426.00518.00433.00518h.00177l.00244.00366.00518.00518.00457.00426.00433.00427.00938.00853.00426.00518L3.054,15.32l.00183.00152.00153.00275.00524.00426.00451.00427.00426.00426.00518.00427.00433.00518.0042.00365.00518.00518.00427.00427h0l.00426.00427.00458.00426.02742.0259.00189.00183.00268.00244.03626.03382V15.433c.05088.04849.1036.09572.15539.14321h.00092c.03534.032.07069.06311.107.09419.05271-.04662.10725-.09476.16332-.146.0975-.08893.19074-.177.27819-.26413l.012-.01314a8.70254,8.70254,0,0,0,1.8848-2.81569,8.67721,8.67721,0,0,0,.65639-3.31727,8.67974,8.67974,0,0,0-.65639-3.31848A8.71629,8.71629,0,0,0,3.88834,2.98h0q-.13711-.1375-.29014-.27727Zm11.19618-.14592c-.05332.04662-.10786.096-.16392.14687-.09507.08623-.19166.17882-.28947.27632a8.66366,8.66366,0,0,0,0,12.26721c.0969.09784.1944.19017.28947.27727.05606.05123.1106.09937.16392.146.15571-.13559.30775-.27727.4537-.42326a8.66355,8.66355,0,0,0,0-12.26721C15.10213,2.83314,14.95009,2.69328,14.79438,2.55677Z" style="fill:#a1afba;fill-rule:evenodd"/></g></svg>