<svg xmlns="http://www.w3.org/2000/svg" viewBox="0 0 9.77202 18.4395"><title>water-bottle-icon-uc-santa-barbara</title><g id="ICONS"><path d="M.21938,4.19328H.99156V3.199A1.31455,1.31455,0,0,1,1.376,2.27062l.00251-.00244h0a1.31339,1.31339,0,0,1,.93109-.38792H4.069V1.32483H3.75024a.21964.21964,0,0,1-.21847-.22029V.2203A.21964.21964,0,0,1,3.75024,0H6.02178a.22042.22042,0,0,1,.21938.2203v.88424a.22042.22042,0,0,1-.21938.22029H5.70306v.55543H7.4627A1.32284,1.32284,0,0,1,8.78144,3.199v.99424h.7712a.21982.21982,0,0,1,.21938.22029V5.62536a.21925.21925,0,0,1-.21938.2203H9.25738V7.31492a.75949.75949,0,0,1-.1493.4534.7696.7696,0,0,1-.39062.27971.33526.33526,0,0,0-.1682.11818.32718.32718,0,0,0-.06246.19627v.83427a.33028.33028,0,0,0,.27484.32572.76532.76532,0,0,1,.64444.75836v6.8405a1.31508,1.31508,0,0,1-.38636.93121H9.01911a1.31085,1.31085,0,0,1-.9311.387H1.68438A1.32119,1.32119,0,0,1,.36625,17.12133v-1.571a.21942.21942,0,0,1-.0387-.12431V11.36986a.21652.21652,0,0,1,.0387-.1234v-.951a.76507.76507,0,0,1,.18221-.49666.774.774,0,0,1,.46138-.26173.32719.32719,0,0,0,.2763-.32577V8.41245a.3309.3309,0,0,0-.23157-.31414.76252.76252,0,0,1-.53871-.73346V5.84566H.21938A.21983.21983,0,0,1,0,5.62536V4.41357a.22042.22042,0,0,1,.21938-.22029Zm.58655,8.98524H8.96731V11.59016H.80593v1.58836Zm8.16138.43972H.80593v1.5884H8.96731v-1.5884ZM.80593,11.15048H8.96731v-.86965a.33425.33425,0,0,0-.07794-.21508.32692.32692,0,0,0-.19781-.11061.77427.77427,0,0,1-.461-.26173A.76573.76573,0,0,1,8.048,9.19675V8.36248a.7632.7632,0,0,1,.539-.73341.32367.32367,0,0,0,.16667-.12.31786.31786,0,0,0,.064-.1941V5.84566H.95523V7.36485a.331.331,0,0,0,.06155.196.32693.32693,0,0,0,.1682.11852.7713.7713,0,0,1,.53992.73311v.79888a.76694.76694,0,0,1-.64444.75844.33543.33543,0,0,0-.19683.11243.32885.32885,0,0,0-.0777.21329v.855Zm8.16138,4.49584H.80593v1.475a.87906.87906,0,0,0,.87845.87849H8.088a.87846.87846,0,0,0,.62091-.25655l.00092-.00092a.87711.87711,0,0,0,.25747-.621v-1.475ZM4.50864,1.877h.75505V1.32483H4.50864V1.877ZM5.80239.4406H3.97054V.88515H5.80239V.4406ZM1.43033,4.19328H8.34176V3.199A.87795.87795,0,0,0,7.4627,2.3209H2.30962a.872.872,0,0,0-.62006.25625L1.68773,2.578a.8776.8776,0,0,0-.2574.621v.99424Zm7.90292.44059H.43968V5.406H9.33325Z" style="fill:#a1afba;fill-rule:evenodd"/></g></svg>