<svg xmlns="http://www.w3.org/2000/svg" viewBox="0 0 22.25373 16.27583"><title>winner-podium-icon-uc-santa-barbara</title><g id="ICONS"><path d="M14.73923,8.17052h7.29512a.21939.21939,0,0,1,0,.43877H21.5255v7.44716a.22041.22041,0,0,1-.2203.21938H.94853a.21962.21962,0,0,1-.21938-.21938v-9.134H.21938a.21969.21969,0,0,1,0-.43938H7.5145V.43877H7.00474a.21939.21939,0,0,1,0-.43877H15.249a.21939.21939,0,0,1,0,.43877h-.50977V8.17052Zm-.43937,7.66563V.43877h-6.346V15.83615ZM3.1707,9.45418H4.62351v.728H3.39009a.4412.4412,0,0,0-.43968.43876v.72915a.43816.43816,0,0,0,.12956.30988c.00511.00609.01121.01036.0173.01645a.4371.4371,0,0,0,.29282.11335H4.8429a.21984.21984,0,1,0,0-.43968H3.39009v-.72915l.00091.00092-.00091-.00092H4.62351a.43883.43883,0,0,0,.31019-.12858h0a.43884.43884,0,0,0,.12949-.31018v-.728a.44039.44039,0,0,0-.11335-.29369L4.9337,9.144a.4374.4374,0,0,0-.31019-.12862H3.1707a.21939.21939,0,1,0,0,.43877Zm1.45373.728h0Zm-.00092,0h0v.00091h0l.00092-.00091Zm12.45307,1.09356h1.4519v.72823H17.328a.21967.21967,0,1,0,0,.43934h1.20052v.72823h-1.4519a.21939.21939,0,1,0,0,.43877h1.4519a.43858.43858,0,0,0,.31018-.12854l.00061-.00092a.43786.43786,0,0,0,.1298-.30931v-1.8958a.43834.43834,0,0,0-.11426-.29373.09086.09086,0,0,0-.01554-.01649.435.435,0,0,0-.31079-.12946h-1.4519a.21984.21984,0,1,0,0,.43968Zm1.45373,1.8958h0v0Zm0,0h0Zm-7.1836-8.08607V2.75174a.21984.21984,0,1,0-.43968,0v2.3337a.21984.21984,0,1,0,.43968,0ZM7.5145,6.92247h-6.346v8.91368h6.346V6.92247ZM21.08491,8.60929H14.73923v7.22686h6.34568Z" style="fill:#a1afba;fill-rule:evenodd"/></g></svg>