<svg xmlns="http://www.w3.org/2000/svg" viewBox="0 0 21.28723 14.02227"><title>ambulance-icon-uc-santa-barbara</title><g id="ICONS"><path d="M13.52653,1.196V.19836a.222.222,0,0,1,.44151,0V1.196h1.53812a1.29251,1.29251,0,0,1,.70325.2038,1.41553,1.41553,0,0,1,.49307.5616l2.17488,4.3532.94579.15026a1.31116,1.31116,0,0,1,1.11161,1.30076V8.9341h.13308a.21979.21979,0,0,1,.21939.22025v2.00223a.76933.76933,0,0,1-.76967.76845H19.9691a.21917.21917,0,0,1-.21847-.20293,2.50392,2.50392,0,0,0-4.9708.00975.21909.21909,0,0,1-.21763.19318H7.332a.22.22,0,0,1-.2184-.20293,2.50327,2.50327,0,0,0-4.96965.00975A.221.221,0,0,1,1.926,11.925H1.3182A1.31965,1.31965,0,0,1,0,10.6072V9.15435A.22.22,0,0,1,.2203,8.9341H.35254v-6.42a1.31746,1.31746,0,0,1,.38673-.93117H.74012l.00274-.00243A1.31239,1.31239,0,0,1,1.67128,1.196ZM4.62869,11.3854a.643.643,0,0,0-.45766.18922l-.01036.01036a.64821.64821,0,0,0,.00952.90583v.001l.00084-.001a.648.648,0,0,0,.91532,0l.01036-.0094a.6479.6479,0,0,0-.468-1.096Zm-.76784-.121-.0131.01367a1.08493,1.08493,0,0,0,.0131,1.52293h0a1.08541,1.08541,0,0,0,1.5366,0l.01287-.014a1.08621,1.08621,0,0,0-1.54947-1.52258Zm13.404.121a.63949.63949,0,0,0-.458.18922h0a.64784.64784,0,0,0,0,.91619l.00975.0104a.64763.64763,0,0,0,.905-.92659l-.00853-.00975a.64485.64485,0,0,0-.44821-.17947Zm-.76876-.121h0a1.08651,1.08651,0,0,0,0,1.53751l.01371.01184a1.08627,1.08627,0,0,0,1.52289-1.54935l-.01394-.0131a1.0846,1.0846,0,0,0-1.52266.0131Zm.76967-.78521a1.55321,1.55321,0,0,0-1.09874,2.65h.00182a1.55182,1.55182,0,0,0,2.19445-2.19475l-.01036-.01127a1.54776,1.54776,0,0,0-1.08717-.444Zm-1.408.14443a1.99048,1.99048,0,0,0,0,2.81477v.00095a1.99134,1.99134,0,0,0,2.81664-2.81572l-.01371-.01219a1.9903,1.9903,0,0,0-2.80293.01219Zm-11.2291-.14443a1.548,1.548,0,0,0-1.09692.45339l-.00091.00092.00091.00091a1.55252,1.55252,0,0,0,0,2.19475l.01036.01127a1.55228,1.55228,0,0,0,2.18439-2.206l-.01036-.01127a1.54739,1.54739,0,0,0-1.08747-.444Zm-1.4071.14443H3.22067a1.99165,1.99165,0,0,0,0,2.81572l.01409.0128A1.9906,1.9906,0,0,0,6.0364,10.62366l-.01279-.01219a1.9892,1.9892,0,0,0-2.802.01219ZM15.50616,1.63471H1.67128a.87512.87512,0,0,0-.621.25747l-.00091.00092a.87912.87912,0,0,0-.25748.621V9.15435a.21828.21828,0,0,1-.21938.21851H.43877V10.6072a.88167.88167,0,0,0,.87943.87845h.4195a2.94258,2.94258,0,0,1,5.78259,0H14.3739a2.94314,2.94314,0,0,1,5.7835,0h.36016a.33083.33083,0,0,0,.33-.32907V9.37286h-.13316a.21891.21891,0,0,1-.21938-.21851V7.76557a.871.871,0,0,0-.741-.869l-1.05639-.16759h0a.22037.22037,0,0,1-.16058-.11818l-2.22675-4.4541a.95541.95541,0,0,0-.33852-.387.84373.84373,0,0,0-.46558-.135Zm-2.94.63926a.21964.21964,0,0,0-.21939.21939v4.0199a.21983.21983,0,0,0,.21939.21938h4.94314a.21548.21548,0,0,0,.09933-.02437.21935.21935,0,0,0,.096-.29526l-1.88122-3.697a.82482.82482,0,0,0-.28611-.323A.75576.75576,0,0,0,15.128,2.274Zm2.56191.43877H12.78641V6.293h4.36513l-1.71942-3.3782a.37484.37484,0,0,0-.13224-.15174.31181.31181,0,0,0-.17185-.05028ZM3.93428,2.39494a.219.219,0,0,0-.21938.21938v1.185h-1.184a.21931.21931,0,0,0-.22037.21938V5.48a.22009.22009,0,0,0,.22037.2203h1.184v1.184a.21928.21928,0,0,0,.21938.22034H5.39653a.21987.21987,0,0,0,.21939-.22034v-1.184h1.185A.21984.21984,0,0,0,7.02028,5.48V4.01868a.21905.21905,0,0,0-.21939-.21938h-1.185v-1.185a.21964.21964,0,0,0-.21939-.21938Zm1.24287.43877H4.15366v1.185a.21905.21905,0,0,1-.21938.21939H2.7493V5.26155h1.185A.21828.21828,0,0,1,4.15366,5.48V6.66591H5.17715V5.48a.21886.21886,0,0,1,.21938-.21847H6.5806V4.23807H5.39653a.21964.21964,0,0,1-.21938-.21939Z" style="fill:#a1afba;fill-rule:evenodd"/></g></svg>