<svg xmlns="http://www.w3.org/2000/svg" viewBox="0 0 17.23004 17.22805"><title>band-aids-icon-UC-Santa-Barbara</title><g id="ICONS"><path d="M9.34023,11.00591a.69766.69766,0,0,0-.69691-.69863l-.00044.00044-.0004-.00044H8.64163a.696.696,0,0,0-.49334.20423l-.0004.00044.0004.00037a.69832.69832,0,0,0,.49308,1.19193l.00067-.00014.00044.00044a.69906.69906,0,0,0,.69856-.69864Zm-.45845.23981a.33892.33892,0,0,1-.23912.09962l-.00055-.00059a.33886.33886,0,0,1-.23981-.57851l.00033.00037.00033-.00037a.33842.33842,0,0,1,.23911-.09961l.00037.00029a.339.339,0,0,1,.33873.33877A.3398.3398,0,0,1,8.88178,11.24572Z" style="fill:#a1afba;fill-rule:evenodd"/><path d="M8.12411,9.789A.69878.69878,0,0,0,6.93136,9.2945l-.0004.00044.0004.00044a.69656.69656,0,0,0-.20456.49213l-.00026.001L6.727,9.789a.6988.6988,0,0,0,.69856.69856l-.00044-.00037a.6981.6981,0,0,0,.699-.69819Zm-.45967.23944a.33707.33707,0,0,1-.23912.09962L7.425,10.12775A.33931.33931,0,0,1,7.08626,9.789l-.00033-.0003a.338.338,0,0,1,.09936-.23937L7.18562,9.549a.33878.33878,0,1,1,.47882.4794Z" style="fill:#a1afba;fill-rule:evenodd"/><path d="M6.90677,8.57168a.69961.69961,0,0,0-.699-.699l.00026.00022-.00066.00022A.6946.6946,0,0,0,5.714,8.0772l-.0004.00044a.699.699,0,0,0,.49455,1.1926l-.0004-.00044a.69822.69822,0,0,0,.699-.69812Zm-.45937.23967a.33946.33946,0,0,1-.239.09954l-.00033-.0003a.33877.33877,0,0,1-.2397-.57828l.00033-.0003a.33909.33909,0,0,1,.479-.00037L6.4474,8.332a.33821.33821,0,0,1,0,.47934Z" style="fill:#a1afba;fill-rule:evenodd"/><path d="M10.33161,9.31656a.69881.69881,0,0,0-.49293-.2046l-.00044.00037L9.83783,9.112l-.0007-.00015a.69736.69736,0,0,0-.4933.20416l-.00044.00044.00044.00044a.69975.69975,0,0,0-.20541.49374h.00081v.00074a.6986.6986,0,1,0,1.19238-.49477Zm-.25415.73311a.33912.33912,0,0,1-.5788-.23878L9.499,9.81052a.33891.33891,0,0,1,.09888-.23967l.00037.00037.00033-.00044a.33734.33734,0,0,1,.23864-.09918l.001-.00036a.339.339,0,0,1,.23922.57843Z" style="fill:#a1afba;fill-rule:evenodd"/><path d="M9.31906,8.59315A.69841.69841,0,0,0,8.1269,8.099l-.00044.00044.00044.00036a.69815.69815,0,0,0,.49315,1.19231H8.6209a.69829.69829,0,0,0,.6983-.69827Zm-.35958.00073a.34.34,0,0,1-.33858.33862H8.62024A.33909.33909,0,0,1,8.381,8.35392l.00036-.00029a.33927.33927,0,0,1,.57851.23922Z" style="fill:#a1afba;fill-rule:evenodd"/><path d="M8.10172,7.37585a.69575.69575,0,0,0-.20456-.49375l-.0003.0003a.69824.69824,0,0,0-1.19226.49345l.00022.0011a.69766.69766,0,0,0,.6979.6979h.00084a.69843.69843,0,0,0,.69831-.69827Zm-.3591.001a.3401.3401,0,0,1-.33873.33876H7.40323a.34068.34068,0,0,1-.33906-.33906l0-.00073a.33973.33973,0,0,1,.5791-.23967l-.00033.00029a.3398.3398,0,0,1,.10006.23938Z" style="fill:#a1afba;fill-rule:evenodd"/><path d="M11.51219,8.136l.0004-.00045a.698.698,0,0,0-.98818-.00014l.0004.00036a.69846.69846,0,1,0,1.1919.50632l.0007-.01257A.6962.6962,0,0,0,11.51219,8.136Zm-.25411.733a.33875.33875,0,0,1-.47908-.479l.00033.0003a.33806.33806,0,0,1,.47841.00015l.00037-.0003a.33689.33689,0,0,1,.099.23945l.00033.008A.33665.33665,0,0,1,11.25808,8.869Z" style="fill:#a1afba;fill-rule:evenodd"/><path d="M10.29507,6.91886l.00041-.00044a.69814.69814,0,0,0-.988,0l.0004.00044a.69781.69781,0,0,0-.20541.49374h.00085a.69838.69838,0,1,0,1.39676.00045V7.41216A.6973.6973,0,0,0,10.29507,6.91886Zm-.25433.7329a.33842.33842,0,0,1-.578-.239L9.463,7.41246a.33786.33786,0,0,1,.09866-.23982L9.562,7.173a.33824.33824,0,0,1,.47864.00037L10.041,7.173a.33786.33786,0,0,1-.00022.47875Z" style="fill:#a1afba;fill-rule:evenodd"/><path d="M9.07774,5.70156l.0004-.00044a.69523.69523,0,0,0-.48183-.20379l-.01213-.001a.69949.69949,0,0,0-.699.699l.00067-.00015A.69656.69656,0,0,0,8.09,6.68934L8.0904,6.6889a.69816.69816,0,1,0,.98734-.98734ZM8.82392,6.435A.33911.33911,0,0,1,8.245,6.19545l.00034-.00029a.33891.33891,0,0,1,.3388-.33877L8.592,5.8561a.33962.33962,0,0,1,.23151.09969l.00033-.00037a.33985.33985,0,0,1,.00011.47955Z" style="fill:#a1afba;fill-rule:evenodd"/><path d="M3.67462,17.22805A3.67656,3.67656,0,0,1,1.075,10.95585l9.88338-9.88279A3.672,3.672,0,0,1,17.23,3.67234,3.64927,3.64927,0,0,1,16.157,6.27191L6.27419,16.1547A3.64933,3.64933,0,0,1,3.67462,17.22805ZM13.558.36465a3.28918,3.28918,0,0,0-2.34226.96572L1.33265,11.21345a3.31194,3.31194,0,0,0,4.68393,4.68364L15.89937,6.0146A3.30784,3.30784,0,0,0,13.558.36465Z" style="fill:#a1afba"/><path d="M13.558,17.22805a3.65218,3.65218,0,0,1-2.60016-1.07335L1.07534,6.27191A3.67615,3.67615,0,0,1,6.2739,1.07276L16.157,10.95585a3.67249,3.67249,0,0,1-2.599,6.2722ZM3.67462.36465a3.30769,3.30769,0,0,0-2.342,5.64995l9.88279,9.88279a3.31226,3.31226,0,0,0,4.68423-4.68423L6.01658,1.33008A3.2889,3.2889,0,0,0,3.67462.36465Z" style="fill:#a1afba"/></g></svg>