<svg xmlns="http://www.w3.org/2000/svg" viewBox="0 0 10.88851 22.22493"><title>band-aid-icon-uc-santa-barbara</title><g id="ICONS"><path d="M.44006,6.01749c.00183,1.48389.00365,3.84017.00365,5.68939H.44287c0,1.98725-.001,3.87791-.00281,4.69329v.2014H10.44974V5.622H.43762l.00183.16911.00061.22456v.00179ZM.44615,17.04125a5.69074,5.69074,0,0,0,.05546.66147,4.58181,4.58181,0,0,0,3.0671,3.76247,5.60588,5.60588,0,0,0,2.27062.30744,5.37409,5.37409,0,0,0,2.192-.62707,4.64411,4.64411,0,0,0,2.415-4.10431Zm10.00024-11.858A4.63708,4.63708,0,0,0,7.81622.96835,5.4405,5.4405,0,0,0,5.67784.44213,5.57254,5.57254,0,0,0,3.496.78675,4.60378,4.60378,0,0,0,.46169,4.86607c-.00944.1063-.01462.21176-.018.31719ZM8.12739,12.656a1.08344,1.08344,0,0,1,.7693.31963l.00091-.00092a1.08943,1.08943,0,0,1,0,1.54H8.89669l-.00061.00088a1.08463,1.08463,0,0,1-.76869.31784h0a1.08973,1.08973,0,0,1-1.08845-1.08808H7.038V13.7444a1.08447,1.08447,0,0,1,.31872-.76875l.00091-.00092h.00092v-.00095a1.08707,1.08707,0,0,1,.76882-.31776Zm.45942.6289h0a.65171.65171,0,0,1,.00152.91985H8.58681a.64678.64678,0,0,1-.45942.18986h0a.64869.64869,0,0,1-.6506-.64931H7.4777V13.7444a.64947.64947,0,0,1,.18922-.45948h.00092a.64487.64487,0,0,1,.45955-.19014h0a.64585.64585,0,0,1,.45942.19014ZM5.44444,12.656a1.0882,1.0882,0,0,1,.76967,1.85866H6.215a1.085,1.085,0,0,1-.77059.31872h0a1.08236,1.08236,0,0,1-.76929-.31872h-.001l-.00091-.00152a1.08566,1.08566,0,0,1-.31689-.76784H4.35545V13.7444a1.08814,1.08814,0,0,1,1.089-1.08838Zm.45949.6289a.65245.65245,0,0,1,.00091.91985H5.90393a.64734.64734,0,0,1-.45949.18986h0a.64532.64532,0,0,1-.45948-.18986H4.984a.64837.64837,0,0,1-.18983-.45945h0V13.7444a.65022.65022,0,0,1,.65023-.64962h0a.64642.64642,0,0,1,.45949.19014Zm-3.143-.6289a1.08827,1.08827,0,0,1,.76968,1.85866h.00091A1.08918,1.08918,0,0,1,1.672,13.74532V13.7444a1.083,1.083,0,0,1,.31878-.76875l.00054-.00092H1.99074a1.08676,1.08676,0,0,1,.77021-.31871Zm.46041.6289a.65245.65245,0,0,1,.00091.91985H3.22136a.65012.65012,0,0,1-1.11-.45945V13.7444a.64747.64747,0,0,1,.19021-.45948h0a.65015.65015,0,0,1,.45941-.191v.00091h0a.6486.6486,0,0,1,.46041.19014Zm4.906-3.26394a1.08915,1.08915,0,0,1,0,2.17829h0a1.08292,1.08292,0,0,1-.76882-.31871l-.00092-.00092-.00091.00092a1.09086,1.09086,0,0,1-.3178-.77059H7.038v-.001h0a1.08717,1.08717,0,0,1,.31872-.76872l.00091-.00061h.00092v-.00091a1.0895,1.0895,0,0,1,.76882-.3178Zm.46033.6295a.64962.64962,0,0,1-.46033,1.10911h0a.64963.64963,0,0,1-.45955-.18922v-.00091a.65051.65051,0,0,1-.191-.45949H7.4777v-.001h0a.64677.64677,0,0,1,.18922-.45854l.00092-.00182a.64891.64891,0,0,1,.45955-.18892h0a.6529.6529,0,0,1,.46033.19074ZM5.44444,10.021a1.08536,1.08536,0,0,1,.76967.31871l.00092.00061a1.08852,1.08852,0,0,1,0,1.53934l-.00092.00092a1.08665,1.08665,0,0,1-.76967.31871h0A1.0866,1.0866,0,0,1,4.35636,11.11H4.35545v-.001h0a1.08814,1.08814,0,0,1,1.089-1.088Zm.4604.6295a.65251.65251,0,0,1,0,.919l-.00091.00091a.64947.64947,0,0,1-.45949.18922h0A.6502.6502,0,0,1,4.79421,11.11h0v-.001h0a.65125.65125,0,0,1,.65023-.64928h0a.65048.65048,0,0,1,.45949.18892l.00091.00182ZM2.76095,10.021a1.08434,1.08434,0,0,1,.76968.31871l.00091.00061a1.08871,1.08871,0,0,1,0,1.53934l-.00091.00092a1.08762,1.08762,0,0,1-1.53843,0l-.00146-.00092A1.08738,1.08738,0,0,1,1.672,11.109h0a1.08724,1.08724,0,0,1,1.089-1.08744V10.021Zm.46132.6295a.65251.65251,0,0,1,0,.919l-.00091.00091a.65353.65353,0,0,1-.91982,0l-.001-.00091a.65137.65137,0,0,1-.18922-.46044h0a.65188.65188,0,0,1,.64962-.65019v.00091h0a.6516.6516,0,0,1,.46041.18892l.00091.00182ZM8.12739,7.41854a1.08549,1.08549,0,0,1,.77021.3178l.01311.01462a1.08909,1.08909,0,1,1-1.87177.75566H7.038a1.08818,1.08818,0,0,1,1.08937-1.089v.00092Zm.45942.62859.01127.01036a.65024.65024,0,1,1-1.12129.44913H7.4777a.64865.64865,0,0,1,.64969-.64932V7.85639a.64655.64655,0,0,1,.45942.19074ZM5.44444,7.41854a1.08677,1.08677,0,0,1,.76967.3178l.00092.00091a1.08617,1.08617,0,0,1,.31879.76937h0a1.0883,1.0883,0,0,1-1.08938,1.0893h0a1.08315,1.08315,0,0,1-.76929-.31963l-.001.00091a1.08736,1.08736,0,0,1-.3178-.77058H4.35545a1.08816,1.08816,0,0,1,1.089-1.089v.00092Zm.4604.62859a.65219.65219,0,0,1,.18922.45949h0a.6507.6507,0,0,1-.64962.65053h0A.64956.64956,0,0,1,4.985,8.967V8.96611h0a.64845.64845,0,0,1-.19166-.45949h.00091a.64969.64969,0,0,1,.65023-.64932V7.85639a.64818.64818,0,0,1,.4604.19074ZM2.76095,7.41854a1.0866,1.0866,0,0,1,1.0893,1.08808h0A1.08662,1.08662,0,0,1,2.76095,9.595v.00091h0a1.0858,1.0858,0,0,1-.76967-.31963l-.00054.00091a1.09038,1.09038,0,0,1,0-1.54086l.01456-.01219a1.08346,1.08346,0,0,1,.75565-.30653v.00092Zm.45949.62859a.65.65,0,0,1,.19105.45949h0a.6507.6507,0,0,1-.65054.65053h0A.65091.65091,0,0,1,2.30154,8.967V8.96611h0a.6501.6501,0,0,1,0-.919l.01029-.011a.651.651,0,0,1,.44912-.17886V7.85639a.64607.64607,0,0,1,.45949.19074ZM.005,11.70688H.0041c0-2.62743-.001-4.99494-.0019-5.68844L.00129,5.793C-.00115,5.47-.003,5.14517.02384,4.82981A5.02836,5.02836,0,0,1,3.34232.37662,5.99831,5.99831,0,0,1,5.6943.0052,5.88636,5.88636,0,0,1,8.00636.57346a5.0914,5.0914,0,0,1,2.88215,4.82918V16.821a5.10007,5.10007,0,0,1-2.64814,4.70878,5.82708,5.82708,0,0,1-2.37179.68074,6.03981,6.03981,0,0,1-2.44673-.33425A5.00618,5.00618,0,0,1,.0671,17.76583,8.63783,8.63783,0,0,1,.0022,16.4565v-.05633C.0041,15.58479.005,13.69413.005,11.70688Z" style="fill:#a1afba;fill-rule:evenodd"/></g></svg>