<svg xmlns="http://www.w3.org/2000/svg" viewBox="0 0 13.10848 18.52939"><title>beaker-icon-UC-Santa-Barbara</title><g id="ICONS"><path d="M5.83256,15.89587a.79893.79893,0,0,0,.564-.23309l.01036-.01036a.80023.80023,0,0,0-.00853-1.11855H6.39656a.8.8,0,0,0-1.128-.00092l-.00091.00092a.8.8,0,0,0,0,1.12891h.00091a.793.793,0,0,0,.564.23309ZM3.04639,9.54928h7.027L8.30215,7.96546a.75574.75574,0,0,1-.25747-.57284V2.26392a.32288.32288,0,0,0-.0969-.23222l-.00761-.0088a.32815.32815,0,0,0-.22457-.089H5.39288a.3379.3379,0,0,0-.12584.02346.32541.32541,0,0,0-.10726.07252.345.345,0,0,0-.07343.10695.32748.32748,0,0,0-.02316.128l.01036,5.1348a.76675.76675,0,0,1-.06581.31506.75588.75588,0,0,1-.19166.26021L3.04639,9.54928Zm7.73175.04419a.22284.22284,0,0,1,.03047.02681l.9595.85834a.75889.75889,0,0,1,.25655.57192v5.62018a.76881.76881,0,0,1-.21237.52957l-.0131.01371a.76829.76829,0,0,1-.54328.22457l-9.40334.00609v.00091h0a.76071.76071,0,0,1-.52865-.21359l-.01463-.01188a.76985.76985,0,0,1-.22456-.54328H1.08382v-5.623a.75841.75841,0,0,1,.06581-.315.78863.78863,0,0,1,.19257-.26021l.97352-.86626.01462-.0128L4.52418,7.64731A.33278.33278,0,0,0,4.608,7.53705a.34039.34039,0,0,0,.02742-.13742L4.625,2.26483A.77.77,0,0,1,4.6814,1.9711a.75087.75087,0,0,1,.1682-.24955.73386.73386,0,0,1,.248-.1685.75607.75607,0,0,1,.29526-.05789H7.7156a.76644.76644,0,0,1,.52927.21268l.014.0128a.764.764,0,0,1,.22548.54328v5.1287a.31222.31222,0,0,0,.10969.24711l2.18409,1.95374Zm-.21421.39641.91136.81446a.32427.32427,0,0,1,.08379.11152.33872.33872,0,0,1,.02682.13468v5.62018a.33092.33092,0,0,1-.089.22457l-.00792.00761a.32964.32964,0,0,1-.23309.09869l-9.40334.00522v-.00092h0a.33178.33178,0,0,1-.22456-.08806L1.62039,16.909a.32676.32676,0,0,1-.09781-.23218H1.5235v-5.623a.32346.32346,0,0,1,.02681-.13646.31718.31718,0,0,1,.08288-.11035l.919-.81716Zm-.99484-7.726V6.66287a.84148.84148,0,0,0,.2919.65536l2.80781,2.512a1.29479,1.29479,0,0,1,.32755.44212,1.31067,1.31067,0,0,1,.11213.539v6.39412a1.3146,1.3146,0,0,1-.38605.93086h-.00092l.00092.00091a1.31536,1.31536,0,0,1-.93117.38606l-10.47313.00518v.00091h0A1.31963,1.31963,0,0,1,0,17.21217H0v-6.3993a1.29869,1.29869,0,0,1,.11213-.53962,1.3133,1.3133,0,0,1,.32908-.44486L3.2545,7.32528a.84364.84364,0,0,0,.29525-.65815L3.54122,2.263a.33083.33083,0,0,0-.33091-.32907H2.8657a.21847.21847,0,0,1-.21938-.21847V.21873A.21871.21871,0,0,1,2.8657,0h7.37708a.21911.21911,0,0,1,.21939.21873V1.71546a.21886.21886,0,0,1-.21939.21847H9.89817a.32648.32648,0,0,0-.23249.09777l-.00853.00857a.32809.32809,0,0,0-.08806.22365ZM9.12941,6.66287a1.2852,1.2852,0,0,0,.43968.98113l2.80781,2.51164a.84287.84287,0,0,1,.2919.65571v6.39412a.8755.8755,0,0,1-.25625.621h-.00092a.877.877,0,0,1-.62037.259l-10.47313.00518h0a.88168.88168,0,0,1-.88028-.87845H.43877v-6.3993A.88073.88073,0,0,1,.5122,10.4512a.866.866,0,0,1,.22121-.29465L3.5464,7.6534A1.28512,1.28512,0,0,0,3.987,6.66713L3.97907,2.263a.76982.76982,0,0,0-.76876-.76784H3.08508V.43877h6.9374V1.49516H9.89817a.76723.76723,0,0,0-.54328.22548l-.01219.01371a.76541.76541,0,0,0-.21329.52957V6.66287ZM4.69694,11.14134a.15345.15345,0,0,0-.15387.15357.15125.15125,0,0,0,.0451.10786.15373.15373,0,0,0,.21755,0,.15563.15563,0,0,0,0-.21664.1536.1536,0,0,0-.10878-.04479ZM4.27707,10.875a.5952.5952,0,0,0-.17368.41988.5934.5934,0,0,0,1.1868,0A.59379.59379,0,0,0,4.27707,10.875ZM8.8305,12.81262a.37451.37451,0,0,0,.37417-.37509.36826.36826,0,0,0-.10969-.26326.37382.37382,0,1,0-.26448.63835Zm.57527.2011a.81507.81507,0,1,0-.57527.23766.81444.81444,0,0,0,.57527-.23766ZM6.70766,15.973a1.2351,1.2351,0,0,1-1.74837,0H4.95868l-.00091-.00091a1.23435,1.23435,0,0,1-.00092-1.74745l.00092-.00092h.00091v-.00061a1.235,1.235,0,0,1,1.749,0l-.00092.00061a1.23267,1.23267,0,0,1,.0128,1.73527Z" style="fill:#a1afba;fill-rule:evenodd"/></g></svg>