<svg xmlns="http://www.w3.org/2000/svg" viewBox="0 0 13.10542 17.02814"><title>beverage-icon-UC-Santa-Barbara</title><g id="ICONS"><path d="M6.29205,13.84524a.79966.79966,0,0,0,.56484-.234l.01036-.01036a.80029.80029,0,0,0-.00945-1.11764l-.00091-.00092v.00092A.79776.79776,0,0,0,5.728,12.48141l-.00092.00183a.78741.78741,0,0,0-.23218.56308.79546.79546,0,0,0,.23218.56492l.00092.00091a.79693.79693,0,0,0,.56407.23309ZM11.33536,5.995l-.00183.02773-.54145,8.86767a.76976.76976,0,0,1-.76784.723H3.08166a.76808.76808,0,0,1-.76784-.723L1.50606,1.66244a.16041.16041,0,0,1-.00244-.02834.21983.21983,0,0,1,.2203-.21938H11.382v.00091h.0128a.21842.21842,0,0,1,.20567.23127L11.33536,5.995Zm-.45278.21939-.52835,8.651a.33.33,0,0,1-.33.30835H3.08166a.3278.3278,0,0,1-.33-.30835L2.223,6.21435ZM2.1962,5.77558h8.71319l.23919-3.92118H1.957L2.1962,5.77558ZM12.65319.43934l-.93695,15.32521a.8782.8782,0,0,1-.87754.82482H2.2672a.87945.87945,0,0,1-.87845-.82482L.45241.43934ZM.21938,0H12.88659V.00057h.01279a.22008.22008,0,0,1,.20575.23157l-.951,15.55739a1.31637,1.31637,0,0,1-1.31539,1.23861H2.2672A1.31637,1.31637,0,0,1,.95181,15.78953L.00176.24863,0,.21938A.21959.21959,0,0,1,.21938,0ZM5.08445,7.35514a.15642.15642,0,0,0-.10871.0451.15431.15431,0,0,0,0,.21755.15269.15269,0,0,0,.10871.0451.15424.15424,0,0,0,.10817-.0451.15448.15448,0,0,0,0-.21755.1581.1581,0,0,0-.10817-.0451ZM4.665,7.09005a.59283.59283,0,1,0,.4195-.17367.59092.59092,0,0,0-.4195.17367ZM8.25,10.34882a.3761.3761,0,1,0-.26417-.1097.37272.37272,0,0,0,.26417.1097Zm.57528.2014a.81543.81543,0,1,0-.57528.23736.81529.81529,0,0,0,.57528-.23736ZM7.168,13.922a1.23767,1.23767,0,0,1-1.74928,0H5.4181v-.00092l-.00092-.0006a1.23326,1.23326,0,0,1,0-1.74746h0l.00092-.00091h0a1.23693,1.23693,0,0,1,1.74989,0H7.16707a1.236,1.236,0,0,1,.0128,1.73618Z" style="fill:#a1afba;fill-rule:evenodd"/></g></svg>