<svg xmlns="http://www.w3.org/2000/svg" viewBox="0 0 15.23407 15.2341"><title>circle-with-stripe-icon-UC-Santa-Barbara</title><g id="ICONS"><path d="M2.23169,2.23105A7.6011,7.6011,0,0,1,7.43376.00278h.00792L7.4493.00187h.05728L7.5142.001h.02407L7.54619,0H7.6897l.00762.001h.02346l.00853.00092h.04754L7.7933.00278h.00853a7.617,7.617,0,0,1,0,15.2298H7.7933l-.01645.00091H7.76893l-.02316.00061H7.49013l-.02438-.00061H7.45813l-.01645-.00091H7.43376a7.6031,7.6031,0,0,1-2.72828-.57527H4.70456a7.60922,7.60922,0,0,1-4.703-7.03917H0A7.60557,7.60557,0,0,1,2.23169,2.23105ZM8.83659.54237V7.3692l-.00091,7.32341a7.04951,7.04951,0,0,0,1.52807-.44055,7.18322,7.18322,0,0,0,0-13.26906A7.09239,7.09239,0,0,0,8.83659.54237ZM6.3993,14.69261V.54237A7.06837,7.06837,0,0,0,4.87215.983,7.16686,7.16686,0,0,0,.43968,7.61814H.43877a7.1902,7.1902,0,0,0,4.43429,6.63392V14.253a7.08933,7.08933,0,0,0,1.52624.43964ZM6.83715.48116V14.75329c.21055.02316.42415.03626.63987.04052h.00427l.01919.00092H7.5081l.00884.00061h.202l.00762-.00061h.008l.01973-.00092h.00335c.216-.00369.43024-.01736.64116-.04052V.48116C8.18789.45861,7.97368.44581,7.75765.44155H7.7543L7.73457.44063h-.008L7.719.43972h-.202L7.5081.44063H7.50048L7.48129.44155H7.477C7.2613.44581,7.0477.45861,6.83715.48116Z" style="fill:#a1afba;fill-rule:evenodd"/></g></svg>