<svg xmlns="http://www.w3.org/2000/svg" viewBox="0 0 11.14938 18.83257"><title>dental-instruments-icon-UC-Santa-Barbara</title><g id="ICONS"><path d="M8.29655,8.60258H8.909V4.02931A2.02041,2.02041,0,0,1,7.69957.59264h0L7.70049.59173,7.7014.59081a2.01925,2.01925,0,0,1,2.85534.00092l.0131.0131a2.01825,2.01825,0,0,1-.0131,2.84406h0a2.01376,2.01376,0,0,1-1.209.58042V8.60258h.61245a.21914.21914,0,0,1,.21938.21878v9.24241a.76681.76681,0,0,1-.22547.54236l-.001.001a.76817.76817,0,0,1-.54237.22548h-.564a.7706.7706,0,0,1-.54413-.22548l-.01218-.01371a.76794.76794,0,0,1-.21329-.52961V8.82136a.21963.21963,0,0,1,.21938-.21878Zm-6.49688,0V3.9032L.06441,2.17586a.21884.21884,0,0,1-.00084-.30927V1.86476L1.86457.064a.21955.21955,0,1,1,.30988.3111L.52908,2.02046,2.16257,3.64573a.22344.22344,0,0,1,.07679.16759V8.60258H2.8518a.21929.21929,0,0,1,.21939.21878v9.24241a.76351.76351,0,0,1-.2264.54236v.001a.77032.77032,0,0,1-.54236.22548h-.564a.77032.77032,0,0,1-.54419-.22548l-.01311-.01463a.76692.76692,0,0,1-.21237-.52869V8.82136a.21909.21909,0,0,1,.21938-.21878Zm.83183.43877H1.40844v9.02242a.33307.33307,0,0,0,.08722.2246l.00937.00793a.32925.32925,0,0,0,.2334.09655h.564a.32714.32714,0,0,0,.32907-.32908V9.04135ZM9.07224,3.60094a.21006.21006,0,0,1,.11213,0,1.57722,1.57722,0,0,0,1.06249-.46223v.00087A1.58373,1.58373,0,0,0,10.25722.91223L10.24686.90191A1.5823,1.5823,0,0,0,8.01067.901L8.00976.90282A1.58165,1.58165,0,0,0,9.07224,3.60094Zm.66859,5.44041h-1.224v9.02242a.33078.33078,0,0,0,.08714.22369l.00952.00884a.33059.33059,0,0,0,.23333.09655h.564a.32881.32881,0,0,0,.33007-.32908Z" style="fill:#a1afba;fill-rule:evenodd"/></g></svg>