<svg xmlns="http://www.w3.org/2000/svg" viewBox="0 0 20.75812 10.5874"><title>eye-icon-UC-Santa-Barbara</title><g id="ICONS"><path d="M10.3329,9.21686A4.38907,4.38907,0,0,0,10.3527.43877l-.10116.00091a4.389,4.389,0,0,0,.08136,8.77718ZM.40457,5.97424A.21951.21951,0,0,1,.03466,5.7378,12.57758,12.57758,0,0,1,4.51222,1.51923,12.04875,12.04875,0,0,1,10.24911,0h.12949a12.05364,12.05364,0,0,1,5.8673,1.51923A12.57758,12.57758,0,0,1,20.72346,5.7378a.21912.21912,0,0,1-.369.23644q-.18237-.28473-.38-.5579a11.55673,11.55673,0,0,1-4.15458,3.803,11.43088,11.43088,0,0,1-5.44133,1.3681A11.43,11.43,0,0,1,4.93819,9.2193a11.54192,11.54192,0,0,1-4.15458-3.803c-.13132.1816-.25838.36808-.379.5579Zm19.32283-.8885a.21857.21857,0,0,0-.11731.089,11.10856,11.10856,0,0,1-3.99736,3.65853,10.99878,10.99878,0,0,1-5.23413,1.31539A10.9916,10.9916,0,0,1,5.1463,8.83324,11.09893,11.09893,0,0,1,1.148,5.17471a.21858.21858,0,0,0-.1173-.089A12.08857,12.08857,0,0,1,4.7246,1.90193,11.64461,11.64461,0,0,1,7.77525.7325a4.82777,4.82777,0,0,0-.85681,7.50993A4.82813,4.82813,0,1,0,12.83753.7005a11.60266,11.60266,0,0,1,3.196,1.20143A12.07642,12.07642,0,0,1,19.7274,5.08574ZM10.3329,6.92369a2.08732,2.08732,0,0,1-1.4717-.60117l-.01127-.01219A2.09631,2.09631,0,0,1,11.80368,3.3349l.01036.01131a2.095,2.095,0,0,1,0,2.96412H11.815l-.00092.00091a2.08794,2.08794,0,0,1-1.48114.61245Zm1.79133-.30318a2.53169,2.53169,0,0,1-3.57139.0128l-.0131-.01188a2.53344,2.53344,0,0,1,0-3.58449l.00092-.00183A2.53466,2.53466,0,0,1,12.112,3.02292l.0131.01219a2.53565,2.53565,0,0,1,0,3.58632Z" style="fill:#a1afba;fill-rule:evenodd"/></g></svg>