<svg xmlns="http://www.w3.org/2000/svg" viewBox="0 0 15.40348 24.31964"><title>female-nurse-icon-uc-santa-barbara</title><g id="ICONS"><path d="M5.157,15.30937a.21976.21976,0,0,1,.23249-.19958l-.23249.19958ZM3.94891,13.75814a.21946.21946,0,0,1-.01829-.17185l.01829.17185ZM3.643,10.04507v0Zm3.39435-9.0252H8.36675a.21853.21853,0,0,1,.21938.21878v.54846h.54846a.21963.21963,0,0,1,.21938.21938v1.33a.2196.2196,0,0,1-.21938.21938H8.58613v.54759a.21921.21921,0,0,1-.21938.22026H7.03734A.21941.21941,0,0,1,6.818,4.10343V3.55584H6.2695a.2196.2196,0,0,1-.21938-.21938v-1.33a.21962.21962,0,0,1,.21938-.21938H6.818V1.23865a.21873.21873,0,0,1,.21938-.21878ZM3.29228,16.14272a4.82147,4.82147,0,0,0-.66668.248,4.10072,4.10072,0,0,0-2.25173,2.699,12.59286,12.59286,0,0,0-.37235,3.6311L0,22.73973v.26178a1.32226,1.32226,0,0,0,1.31783,1.31813H14.08535a1.30945,1.30945,0,0,0,.93025-.387h.00182a1.31618,1.31618,0,0,0,.38606-.93116v-.26178h-.00092a12.709,12.709,0,0,0-.37142-3.65h-.00092a4.10323,4.10323,0,0,0-2.25173-2.699,7.85138,7.85138,0,0,0-1.96318-.52683l-.0198-.00431a.22371.22371,0,0,0-.153-.02768h-.00244v.00091a.43368.43368,0,0,1-.26265-.16332.62584.62584,0,0,1-.13041-.355h0l-.04418-1.01831c.05454-.06581.10816-.13407.16-.20293.163-.02437.31506-.05119.45522-.07861.17338-.03382.33243-.07008.475-.10878V13.905a.22433.22433,0,0,0,.12523-.09172,9.8566,9.8566,0,0,0,1.61156-4.1208,7.40455,7.40455,0,0,0-.44913-3.75781.22873.22873,0,0,0,.025-.05455.22122.22122,0,0,0,.00365-.10542h0L11.52709.75844A.98892.98892,0,0,0,11.408.45526L11.39668.4379a.94448.94448,0,0,0-.20141-.22731h0a.912.912,0,0,0-.28581-.15631A.987.987,0,0,0,10.58465,0h-5.767A.99644.99644,0,0,0,4.4928.05428.95666.95666,0,0,0,4.207.21059l-.0128.01127a.93717.93717,0,0,0-.19866.2334.9536.9536,0,0,0-.12006.30318l-1.078,4.99829A6.14359,6.14359,0,0,0,2.256,9.45761a11.39581,11.39581,0,0,0,1.69291,4.30053.21773.21773,0,0,0,.12614.10177c.146.0451.30562.08654.47655.12275.1487.033.30683.0622.475.08993.05637.07587.11487.15113.17459.22274l-.04418,1.014-.00091.00518a.63191.63191,0,0,1-.1295.355.441.441,0,0,1-.24955.16058l-.0128.00183-.1755.032c-.28673.05089-.5768.10177-.86383.16759l-.33334.06368a.22682.22682,0,0,0-.09933.04753ZM5.23657,16.079l.72031.29621a1.00071,1.00071,0,0,1,.33852.22547,1.12181,1.12181,0,0,1,.21938.32451l1.18254,2.58964,1.18315-2.71822a.90663.90663,0,0,1,.22731-.31541A1.06145,1.06145,0,0,1,9.45,16.2774l.66151-.24864a.90487.90487,0,0,1-.0777-.08623,1.06266,1.06266,0,0,1-.22365-.60025h0v-.0037l-.02682-.59931-.05545.05085h0l-.01463.01131a3.44329,3.44329,0,0,1-.95706.60818,2.74061,2.74061,0,0,1-1.05456.21512A2.83184,2.83184,0,0,1,6.25152,15.211a3.77784,3.77784,0,0,1-.63134-.47263l-.0259.589v.01493a1.06792,1.06792,0,0,1-.22456.60025.881.881,0,0,1-.13315.13647Zm5.4398.20541.06307.01127a7.55313,7.55313,0,0,1,1.85593.49327,3.68442,3.68442,0,0,1,2.01589,2.42789h-.00061a12.28774,12.28774,0,0,1,.35406,3.522v.00087H14.9638v.26178a.87347.87347,0,0,1-.25656.621l-.00091.00087a.87493.87493,0,0,1-.621.2566H1.31783a.87906.87906,0,0,1-.87754-.87845v-.26178l-.00152-.02068a12.24509,12.24509,0,0,1,.35406-3.50221A3.68521,3.68521,0,0,1,2.80872,16.789a5.14784,5.14784,0,0,1,1.02257-.33178l.798-.15357,1.16091.47655a.5652.5652,0,0,1,.19257.128.66925.66925,0,0,1,.13315.19866l1.387,3.03664a.21914.21914,0,0,0,.40007-.00335h0L9.28237,16.9712a.473.473,0,0,1,.11914-.16423.60667.60667,0,0,1,.20293-.11914l1.07193-.40342ZM3.16552,5.99836a5.73082,5.73082,0,0,0-.47441,3.398,10.882,10.882,0,0,0,1.59114,4.068c.10878.03108.22974.0612.362.08989l.04388.00853a7.1451,7.1451,0,0,1-.60635-1.33428A8.97559,8.97559,0,0,1,3.643,10.04507l-.00092-.01554c-.00335-.089-.00518-.17794-.00426-.26783.00091-.09171.00274-.1789.00609-.259.00518-.09872.01036-.185.01737-.25839.00609-.0716.01554-.15387.02742-.24528A5.083,5.083,0,0,1,5.65888,5.69l.00427-.00431.00091-.00087.00091.00087.00092-.00087.00183-.00152A.20245.20245,0,0,1,5.722,5.64608a.22009.22009,0,0,1,.29191.10273A2.26422,2.26422,0,0,0,7.307,6.85609a9.75171,9.75171,0,0,0,1.94764.458,8.32011,8.32011,0,0,1,1.61156.37047,1.23658,1.23658,0,0,1,.90617.98971h0l.00092.01463.00762.14534v.00061c.00274.04235.00426.08653.00517.1365.00366.09263.00427.1944.00427.30679,0,.0622-.00061.146-.00335.25112-.00183.08653-.00427.16423-.00762.23248-.00457.089-.00883.16846-.014.23736-.00518.06155-.01128.13407-.0189.21512a.19561.19561,0,0,1-.00518.04506c-.02163.178-.04844.35745-.07952.53722q-.048.27606-.114.564c-.04327.19257-.09171.38-.14169.55973-.05088.18221-.10542.36107-.16423.53384v-.001l-.00944.02168a6.975,6.975,0,0,1-.53384,1.11581l.03565-.0061c.1295-.0259.25138-.05275.36534-.082a9.3809,9.3809,0,0,0,1.49577-3.86694A6.95345,6.95345,0,0,0,12.12125,5.97a17.39331,17.39331,0,0,0-2.103-.44059A16.13378,16.13378,0,0,0,5.3816,5.52607a16.978,16.978,0,0,0-2.21608.47229Zm7.6635,6.30515q.08319-.24453.15479-.50184c.05089-.17947.09659-.35924.13742-.5381.0387-.17338.07587-.355.10786-.54145.032-.17886.05881-.35929.07953-.53536l.00244-.0192c.00518-.05606.01127-.12161.01645-.19958V9.96737h0c.0061-.08379.01128-.15909.01463-.22639.00365-.07434.00609-.14869.007-.22029.00182-.0518.00182-.13377.00182-.24259,0-.14256-.00091-.241-.00182-.29369-.00092-.03382-.00275-.07769-.0061-.128l-.007-.13289c-.03717-.29978-.2788-.49235-.63133-.6313a8.038,8.038,0,0,0-1.52015-.34553,10.00845,10.00845,0,0,1-2.03814-.48386A2.7753,2.7753,0,0,1,5.75669,6.18575a4.52341,4.52341,0,0,0-1.6335,2.86844c-.00853.06216-.01645.13742-.02407.22731-.00792.088-.01371.16849-.01736.23919-.00336.08287-.0061.16423-.00671.24188,0,.07348.00153.14931.00335.22705a.112.112,0,0,1,.00244.025,8.5415,8.5415,0,0,0,.41653,2.07318,6.35,6.35,0,0,0,.823,1.64538l.01219.01615.01188.01736a.2396.2396,0,0,1,.02529.03291,3.82347,3.82347,0,0,0,1.10454,1.03385,2.40367,2.40367,0,0,0,1.22733.35162,2.28351,2.28351,0,0,0,.88637-.18069A3.03042,3.03042,0,0,0,9.435,14.462a.10043.10043,0,0,1,.01646-.0128,4.16271,4.16271,0,0,0,.35071-.35863.20059.20059,0,0,1,.025-.02834,5.03643,5.03643,0,0,0,.39063-.52621,6.46467,6.46467,0,0,0,.61061-1.22977l.00061-.00274ZM3.29929,5.50688a17.39915,17.39915,0,0,1,2.02016-.41439,16.68328,16.68328,0,0,1,4.76.00243,17.69982,17.69982,0,0,1,2.02443.4171L11.09777.84894a.55558.55558,0,0,0-.06551-.16759l-.007-.0128a.56192.56192,0,0,0-.10451-.1167h-.00183A.49826.49826,0,0,0,10.76869.469a.59431.59431,0,0,0-.184-.02864h-5.767A.59385.59385,0,0,0,4.63387.469a.50634.50634,0,0,0-.14961.08288L4.473.56038a.51734.51734,0,0,0-.10177.121A.54924.54924,0,0,0,4.3048.84894L3.29929,5.50688ZM8.14736,1.45864H7.25673v.54785a.21977.21977,0,0,1-.21939.22H6.48888V3.1162h.54846a.2198.2198,0,0,1,.21939.22026v.54759h.89063V3.33646a.21922.21922,0,0,1,.21939-.22026h.54754V2.22648H8.36675a.21919.21919,0,0,1-.21939-.22Z" style="fill:#a1afba;fill-rule:evenodd"/></g></svg>