<svg xmlns="http://www.w3.org/2000/svg" viewBox="0 0 11.48504 20.42763"><title>female-symbol-upside-down-icon-UC-Santa-Barbara</title><g id="ICONS"><path d="M6.92277,9.06634a5.69533,5.69533,0,0,1,1.46561.52617A5.78092,5.78092,0,0,1,9.79822,10.6264h.00061l.00183.00152.00183.00183.01188.0131a5.73029,5.73029,0,0,1-.00944,8.09648l-.00153.00152-.00091.00092v.00087l-.00183.00187-.01219.011a5.762,5.762,0,0,1-1.8544,1.23708A5.7302,5.7302,0,0,1,1.68682,18.746H1.68621l-.00183-.00152-.01219-.01406A5.74983,5.74983,0,0,1,.43633,16.87788a5.72258,5.72258,0,0,1,0-4.38337,5.75177,5.75177,0,0,1,1.242-1.85958l.00182-.00183.01189-.0128A5.77491,5.77491,0,0,1,3.09666,9.59251a5.6833,5.6833,0,0,1,1.46561-.52617V5.88192H1.41045a.21885.21885,0,0,1-.21938-.21847V3.74262a.21983.21983,0,0,1,.21938-.22029H4.56227V.21938A.21963.21963,0,0,1,4.78165,0H6.70339a.21963.21963,0,0,1,.21938.21938v3.303h3.15182a.21944.21944,0,0,1,.21938.22029V5.66345a.21847.21847,0,0,1-.21938.21847H6.92277V9.06634Zm1.26359.91379a5.27927,5.27927,0,0,0-1.51405-.51559.21957.21957,0,0,1-.18922-.2166V5.66345a.22.22,0,0,1,.2203-.2203H9.8552V3.96109H6.70339a.21925.21925,0,0,1-.2203-.21847V.43968H5.002V3.74262a.21925.21925,0,0,1-.2203.21847H1.62984V5.44315H4.78165a.22.22,0,0,1,.2203.2203V9.24794h0a.21974.21974,0,0,1-.18221.21572,5.25812,5.25812,0,0,0-1.52106.51647,5.358,5.358,0,0,0-1.29741.951l-.00945.00975A5.31164,5.31164,0,0,0,.84128,12.663a5.29711,5.29711,0,0,0,0,4.04641A5.3137,5.3137,0,0,0,1.98481,18.424l.01036.00944.00183.00183v.00091l.00092.00061.00091.00183a5.33209,5.33209,0,0,0,1.71972,1.14872,5.292,5.292,0,0,0,5.76-1.14171l.01128-.01219.00244-.00183v.00092a5.3233,5.3233,0,0,0,1.15146-1.72308,5.2944,5.2944,0,0,0-1.14019-5.75821l-.01127-.01036-.00244-.00274L9.489,10.93624h0a5.335,5.335,0,0,0-1.30259-.95611Zm1.60211,8.77535-.018.014a.11705.11705,0,0,0,.018-.014ZM1.68956,10.62366l.00183-.00153-.00183.00153Zm6.43373,1.65573a3.38631,3.38631,0,0,0-4.7719.01036l-.00091.00092h.00091l-.00426.00426-.01128.01036a3.3439,3.3439,0,0,0-.72031,1.085,3.3842,3.3842,0,0,0,.73159,3.68717h0l.00426.00335a3.352,3.352,0,0,0,1.09509.73246,3.42393,3.42393,0,0,0,2.59208,0,3.352,3.352,0,0,0,1.09509-.73246l.00427-.00335a3.3861,3.3861,0,0,0,.00091-4.78257L8.13792,12.294v.00091l-.00427-.00426-.01036-.01128Zm-.91806-1.12525a3.82743,3.82743,0,0,0-4.16494.82634v-.00061l-.00335.00427-.01219.0128a3.79007,3.79007,0,0,0-.81446,1.22672,3.82346,3.82346,0,0,0,.82665,4.16372v.00091l.00335.00366a3.82743,3.82743,0,0,0,5.40446,0l.00426-.00366a3.827,3.827,0,0,0-.00091-5.40415H8.449l-.00426-.00427-.0131-.01127A3.79582,3.79582,0,0,0,7.20523,11.15414Z" style="fill:#a1afba;fill-rule:evenodd"/></g></svg>