<svg xmlns="http://www.w3.org/2000/svg" viewBox="0 0 25.09201 10.32048"><title>glasses-icon-uc-santa-barbara</title><g id="ICONS"><path d="M22.93072,1.83185H15.61946a.32533.32533,0,0,0-.2331.09594h0a.33041.33041,0,0,0-.09689.23314v.69868h7.9713V2.16093a.33538.33538,0,0,0-.09665-.23314L23.15529,1.919a.32819.32819,0,0,0-.22457-.08715ZM22.00139,3.3002V5.74084h.92933a.33253.33253,0,0,0,.2334-.09571V5.64426a.331.331,0,0,0,.09665-.23249V3.3002Zm-.2142,2.88033H16.64111a.746.746,0,0,1-.29434-.0579.76731.76731,0,0,1-.23583-.15357l-.01366-.014-1.022-1.02166h0a.7569.7569,0,0,1-.22547-.54328V2.16093a.76433.76433,0,0,1,.22639-.54328h0a.76939.76939,0,0,1,.54328-.22548h7.31126a.76882.76882,0,0,1,.52957.21238l.01377.0131a.7661.7661,0,0,1,.22547.54328V5.41177a.76617.76617,0,0,1-.22547.54328h0a.76779.76779,0,0,1-.54334.22548Zm-.22548-.43969V3.3002H15.28947V4.39011a.33165.33165,0,0,0,.02346.128.338.338,0,0,0,.07252.106l.00091-.00091,1.02075,1.02192.00944.00948a.31174.31174,0,0,0,.0969.06308.32786.32786,0,0,0,.12766.02315ZM22.00139,7.573v2.5281a.21984.21984,0,0,1-.43968,0V7.573H16.29132a1.28805,1.28805,0,0,1-.93177-.38609L13.84458,5.672a1.28417,1.28417,0,0,1-.386-.93207V3.3002H11.63343V4.73991a1.2837,1.2837,0,0,1-.38611.93207l-1.515,1.51493a1.2881,1.2881,0,0,1-.93178.38609H3.5302v2.5281a.21985.21985,0,0,1-.43969,0V7.573H1.319A1.32121,1.32121,0,0,1,0,6.25487v-4.937A1.31716,1.31716,0,0,1,.387.38758h0L.38783.387.38966.38514A1.31128,1.31128,0,0,1,1.319,0H23.77383A1.32121,1.32121,0,0,1,25.092,1.31783v4.937a1.31654,1.31654,0,0,1-.387.93025l-.001.00091a1.31631,1.31631,0,0,1-.93025.387Zm-10.368-4.71339h1.82515V2.7103a.88065.88065,0,0,0-.87942-.87845h-.06733a.87509.87509,0,0,0-.62007.25656l-.00183.00087a.87737.87737,0,0,0-.2565.621v.14931ZM3.5302,3.3002V5.74084H8.4514a.32692.32692,0,0,0,.12706-.02315.30778.30778,0,0,0,.10548-.07256l1.0216-1.02192A.31977.31977,0,0,0,9.779,4.51809a.33165.33165,0,0,0,.02346-.128V3.3002ZM3.316,6.18053H8.4514a.76135.76135,0,0,0,.54333-.22548l1.02191-1.02166a.75436.75436,0,0,0,.16759-.24863.77089.77089,0,0,0,.05789-.29465V2.16093a.771.771,0,0,0-.22548-.54328h-.00183a.76561.76561,0,0,0-.54236-.22548H2.16118a.76634.76634,0,0,0-.54267.22548L1.618,1.61856a.76437.76437,0,0,0-.22644.54237V5.41177a.76373.76373,0,0,0,.21329.52865.06463.06463,0,0,0,.01315.01463.76413.76413,0,0,0,.54323.22548H3.316Zm-.22548-.43969V3.3002H1.83124V5.41177a.32845.32845,0,0,0,.088.224l.00853.00854a.33123.33123,0,0,0,.2334.09658ZM1.83124,2.85961h7.9712V2.16093a.33042.33042,0,0,0-.0969-.23314h0a.33182.33182,0,0,0-.23309-.09594H2.16118a.33312.33312,0,0,0-.2334.09594.32975.32975,0,0,0-.09654.23314v.69868Zm22.821,3.39526a.87528.87528,0,0,1-.25748.62007v.00091a.87625.87625,0,0,1-.621.25747H16.29132a.86668.86668,0,0,1-.33669-.064.88542.88542,0,0,1-.2852-.19349l-1.51405-1.515a.84007.84007,0,0,1-.258-.621V2.7103a1.31818,1.31818,0,0,0-1.31819-1.31813h-.06733a1.31528,1.31528,0,0,0-.9302.38606v.00091h-.001l-.00243.0024a1.31927,1.31927,0,0,0-.38453.92876V4.73991a.89192.89192,0,0,1-.063.337.87119.87119,0,0,1-.19415.284l-1.515,1.515a.83973.83973,0,0,1-.621.25747H1.319a.88219.88219,0,0,1-.87936-.87845v-4.937A.87317.87317,0,0,1,.6971.69776L.698.69593A.87694.87694,0,0,1,1.319.43938H23.77383a.88064.88064,0,0,1,.87845.87845Z" style="fill:#a1afba;fill-rule:evenodd"/></g></svg>