<svg xmlns="http://www.w3.org/2000/svg" viewBox="0 0 7.27166 21.56781"><title>healthcare-medical-thermometer-icon-UC-Santa-Barbara</title><g id="ICONS"><path d="M5.78625,16.31148v3.10581A2.14174,2.14174,0,0,1,5.1546,20.9356l-.00061.00092a2.14268,2.14268,0,0,1-1.51862.63129h0a2.142,2.142,0,0,1-1.51832-.63129l-.00091-.00092a2.13923,2.13923,0,0,1-.63134-1.51831V16.31148L.02956,13.8099A.215.215,0,0,1,0,13.70021H0V1.31813A1.31174,1.31174,0,0,1,.38605.38788H.387V.387L.38971.38453A1.31466,1.31466,0,0,1,1.31813,0H5.95292A1.32121,1.32121,0,0,1,7.27166,1.31813V13.70021a.21806.21806,0,0,1-.03809.12279L5.78625,16.31148ZM6.83106,3.06893H5.27313a.21984.21984,0,0,1,0-.43968H6.83106V1.31813A.88012.88012,0,0,0,5.95292.43968H1.31813a.87423.87423,0,0,0-.621.25747L.69624.69807a.87369.87369,0,0,0-.25747.62006V2.62925H1.99792a.21984.21984,0,0,1,0,.43968H.43877V4.74356H1.99792a.21939.21939,0,0,1,0,.43877H.43877V6.85787H1.99792a.21939.21939,0,0,1,0,.43877H.43877V8.97249H1.99792a.21939.21939,0,0,1,0,.43877H.43877v1.67462H1.99792a.21985.21985,0,0,1,0,.43969H.43877v2.117L1.8864,16.1308a.21251.21251,0,0,1,.03717.12188v3.16461a1.715,1.715,0,0,0,1.7118,1.71088h0a1.71346,1.71346,0,0,0,1.71119-1.71088V16.25268h.00092a.21574.21574,0,0,1,.02925-.1097l1.45433-2.5004v-2.117H5.27313a.21985.21985,0,0,1,0-.43969H6.83106V9.41126H5.27313a.21939.21939,0,0,1,0-.43877H6.83106V7.29664H5.27313a.21939.21939,0,0,1,0-.43877H6.83106V5.18233H5.27313a.21939.21939,0,0,1,0-.43877H6.83106V3.06893Zm-3.416,11.77146a1.18813,1.18813,0,0,0-.96376,1.16335v3.31939a1.18376,1.18376,0,0,0,2.36751,0V16.00374a1.18648,1.18648,0,0,0-.96407-1.16335V5.67468a.21984.21984,0,0,0-.43968,0v9.16571Zm.2203.419a.74589.74589,0,0,0-.74438.74438v3.31939a.74454.74454,0,0,0,1.48907,0V16.00374a.74589.74589,0,0,0-.74469-.74438Z" style="fill:#a1afba;fill-rule:evenodd"/></g></svg>