<svg xmlns="http://www.w3.org/2000/svg" viewBox="0 0 18.3548 14.66006"><title>heart-icon-uc-santa-barbara</title><g id="ICONS"><path d="M9.17694,14.168c.49148-.368,1.05975-.76445,1.66793-1.18951,3.02116-2.10822,7.07025-4.93431,7.07025-7.928a4.47379,4.47379,0,0,0-1.94057-3.88583A4.40179,4.40179,0,0,0,14.0628.46939,4.20022,4.20022,0,0,0,9.39023,3.92682a.21841.21841,0,0,1-.42658-.00152A4.29368,4.29368,0,0,0,6.29905.70279,4.31066,4.31066,0,0,0,4.29169.46939a4.39582,4.39582,0,0,0-1.91138.69533A4.47369,4.47369,0,0,0,.43968,5.05055c0,2.99367,4.04885,5.81976,7.06842,7.928.61.42506,1.17828.82147,1.66884,1.18951Zm1.91991-.83088c-.66478.46375-1.28.89308-1.78608,1.27822a.2204.2204,0,0,1-.26607,0c-.5061-.38423-1.12282-.81447-1.78615-1.27822C4.157,11.17258,0,8.27153,0,5.05055A4.90259,4.90259,0,0,1,2.13838.79847,4.84624,4.84624,0,0,1,4.24172.03337,4.75937,4.75937,0,0,1,6.452.29236,4.59182,4.59182,0,0,1,9.17694,3.10809,4.59481,4.59481,0,0,1,11.90278.29236a4.758,4.758,0,0,1,2.2103-.259,4.83313,4.83313,0,0,1,2.103.766A4.9,4.9,0,0,1,18.3548,5.05055C18.3548,8.27153,14.19778,11.17258,11.09685,13.33716Z" style="fill:#a1afba;fill-rule:evenodd"/></g></svg>