<svg xmlns="http://www.w3.org/2000/svg" viewBox="0 0 23.25985 20.61405"><title>heartbeat-icon-uc-santa-barbara</title><g id="ICONS"><path d="M16.845,20.12206c.33151-.24712.71087-.51133,1.11581-.7947,2.07622-1.4485,4.85935-3.391,4.85935-5.4267a3.02988,3.02988,0,0,0-1.312-2.63165,2.98456,2.98456,0,0,0-1.29223-.46985,2.92312,2.92312,0,0,0-1.35682.15784,2.69755,2.69755,0,0,0-.869.52434.16039.16039,0,0,1-.02315.02076,3.13471,3.13471,0,0,0-.90862,1.63681.219.219,0,0,1-.42749-.00179,3.19139,3.19139,0,0,0-.77577-1.50369.17539.17539,0,0,1-.02407-.0259,2.70642,2.70642,0,0,0-.99941-.65053,2.9284,2.9284,0,0,0-1.35774-.15784,2.98436,2.98436,0,0,0-1.29217.46985,3.02958,3.02958,0,0,0-1.3118,2.63165A3.31476,3.31476,0,0,0,11.634,15.845a.22821.22821,0,0,1,.03717.04814A10.78793,10.78793,0,0,0,13.447,17.6482a.249.249,0,0,1,.03291.02681c.7392.59874,1.53569,1.15481,2.249,1.65235.40525.28337.78429.54758,1.11611.7947Zm.766-8.88779a3.3951,3.3951,0,0,0-.766,1.13775,3.39749,3.39749,0,0,0-.62555-.99088V2.05063a.21886.21886,0,0,0-.21847-.21939H2.05039a.21959.21959,0,0,0-.21938.21939V16.00038a.21959.21959,0,0,0,.21938.21939h9.32283A10.22809,10.22809,0,0,0,12.72486,17.611H1.31783a.87855.87855,0,0,1-.87845-.87815V1.31813a.8771.8771,0,0,1,.25747-.621V.69624a.88085.88085,0,0,1,.621-.25747H16.73349a.88062.88062,0,0,1,.87754.87936v9.91614Zm-4.36086,6.8164H1.31783A1.3208,1.3208,0,0,1,0,16.73288V1.31813A1.31876,1.31876,0,0,1,.38423.38941L.38673.38788.38758.387h0A1.31737,1.31737,0,0,1,1.31783,0H16.73349a1.32121,1.32121,0,0,1,1.31813,1.31813v9.56208a3.12487,3.12487,0,0,1,.6545-.33334,3.33771,3.33771,0,0,1,1.55921-.18312,3.41744,3.41744,0,0,1,1.48535.53992,3.45662,3.45662,0,0,1,1.50917,2.997c0,2.26213-2.8919,4.28046-5.04857,5.786-.45948.32054-.88454.61763-1.23342.8818a.21892.21892,0,0,1-.26509.00183c-.34888-.26509-.77485-.56309-1.23427-.88363-.70666-.493-1.49248-1.04146-2.22833-1.636Zm2.53053-7.0693a3.09561,3.09561,0,0,0-.7971-.4345,3.33873,3.33873,0,0,0-1.55976-.18312,3.41735,3.41735,0,0,0-1.48388.53992,3.4911,3.4911,0,0,0-.88119,4.87733H2.27062V9.24519H5.17685a.22033.22033,0,0,0,.21176-.1624l1.224-3.61557,1.79194,8.31952a.21918.21918,0,0,0,.4278.00335l1.8931-6.229.44486,1.52528a.21855.21855,0,0,0,.21.15788v.00091H15.7807v1.73618Zm0-2.17586H11.54415l-.60452-2.071h0a.21841.21841,0,0,0-.41957-.00274L8.6553,12.86838,6.874,4.601a.2195.2195,0,0,0-.42292-.02681L5.019,8.80551H2.27062V2.27H15.7807Z" style="fill:#a1afba;fill-rule:evenodd"/></g></svg>