<svg xmlns="http://www.w3.org/2000/svg" viewBox="0 0 14.81084 22.04197"><title>iv-bag-icon-UC-Santa-Barbara</title><g id="ICONS"><path d="M4.78592,5.97242a1.2348,1.2348,0,0,1,.87479.36194l.01219.01375a1.23432,1.23432,0,0,1-.01311,1.73523l.00092.00095a1.23841,1.23841,0,0,1-1.74989,0V8.08334H3.90991a1.23579,1.23579,0,0,1,.00091-1.748h0V6.33436l.00183-.00087a1.23518,1.23518,0,0,1,.87327-.36107Zm1.45623,11.376a4.463,4.463,0,0,0,4.46012,4.246.22093.22093,0,0,1,.05881.00793h3.60947v-.6454H10.70227a3.82754,3.82754,0,0,1-3.82185-3.60851Zm.99142,3.24931a4.89353,4.89353,0,0,0,3.409,1.43636.22807.22807,0,0,0,.05972.00792h3.88865a.22034.22034,0,0,0,.21992-.21939V20.73751a.22045.22045,0,0,0-.21992-.22H10.70227A3.38846,3.38846,0,0,1,7.3201,17.34838h.86962a.22061.22061,0,0,0,.22029-.2203V16.2929H9.59689a1.3143,1.3143,0,0,0,.93079-.38606l.00091-.00091a1.313,1.313,0,0,0,.38605-.93086v-.60818a1.31806,1.31806,0,0,0-1.31775-1.31813h-.0278V11.86744a.8445.8445,0,0,1,.29289-.65571l2.80773-2.51164a1.27435,1.27435,0,0,0,.43968-.982V1.32392a1.31334,1.31334,0,0,0-.386-.93025l-.00091-.001.00091-.00088A1.31584,1.31584,0,0,0,11.79218.0067L1.31874.00061V0H1.3182A1.31963,1.31963,0,0,0,.00091,1.31783H0V7.71621A1.28974,1.28974,0,0,0,.44212,8.701l2.81146,2.50128a.84683.84683,0,0,1,.29526.66238L3.54213,13.061a1.31838,1.31838,0,0,0-.74712.37234l-.00274.00152v.00092h0a1.31464,1.31464,0,0,0-.387.93116v.60818A1.31965,1.31965,0,0,0,3.72343,16.2929h.97595v.83518a.22122.22122,0,0,0,.22037.2203h.88173a4.89471,4.89471,0,0,0,1.43209,3.24931Zm3.409,1.43636a.22088.22088,0,0,1-.15875-.21147l.15875.21147Zm-5.50341-5.126V16.2929H7.97033v.61518H5.13914Zm4.45775-3.42055a.88166.88166,0,0,1,.879.87936v.60818a.88178.88178,0,0,1-.25717.621l-.00091.00091a.87644.87644,0,0,1-.62091.25717H3.72343a.8801.8801,0,0,1-.87845-.87906v-.60818a.87579.87579,0,0,1,.25656-.621l.00091-.00091a.87639.87639,0,0,1,.621-.25747H9.59689Zm-8.07248-8.46v-3.175H1.52258a.33042.33042,0,0,1,.09873-.23248L1.629,1.61152a.32842.32842,0,0,1,.22449-.088h0l9.40333.00518a.32786.32786,0,0,1,.23226.0975l.00876.00792a.33237.33237,0,0,1,.08806.22457V5.02754Zm10.06149.43968H1.52441V7.47611a.33872.33872,0,0,0,.0259.1365.34247.34247,0,0,0,.08379.1097l3.18206,2.83126a.75242.75242,0,0,1,.25739.57772l-.01036,1.91747h2.983V11.13643a.75354.75354,0,0,1,.25656-.5725l3.17345-2.83888A.32025.32025,0,0,0,11.56,7.61444a.331.331,0,0,0,.0259-.13559V5.46722Zm-6.96,7.58154.00944-1.91808a.30693.30693,0,0,0-.11121-.24894L1.3422,8.05047a.76629.76629,0,0,1-.25838-.57436V1.85257h.00182a.76648.76648,0,0,1,.22457-.54236l.01462-.014a.76686.76686,0,0,1,.52866-.21146h0v.00091l9.40333.00518a.76842.76842,0,0,1,.54328.22457l.01219.01462a.76165.76165,0,0,1,.21329.52866V7.47885a.7573.7573,0,0,1-.25747.57253L8.59466,10.88962a.3137.3137,0,0,0-.10969.24681v1.91233h.64535V11.86744a1.31286,1.31286,0,0,1,.11213-.539,1.29552,1.29552,0,0,1,.32847-.443l2.80689-2.51194a.85231.85231,0,0,0,.21938-.29434.87482.87482,0,0,0,.07344-.36107V1.32392a.87318.87318,0,0,0-.25808-.621h0a.87646.87646,0,0,0-.62037-.25842L1.31874.43785V.43938H1.3182a.87906.87906,0,0,0-.87943.87845H.43968V7.71621a.87833.87833,0,0,0,.07343.362A.8669.8669,0,0,0,.734,8.37345L3.54556,10.875a1.28858,1.28858,0,0,1,.44143.99058L3.98,13.04876ZM8.40666,8.90393a.59454.59454,0,1,1,.41866-.17368.59077.59077,0,0,1-.41866.17368Zm-.10908-.48447a.15384.15384,0,0,1-.04479-.10878.15449.15449,0,0,1,.15387-.153.15388.15388,0,0,1,.10878.04479.15373.15373,0,1,1-.21786.217ZM6.69973,10.27108a.8141.8141,0,1,1-.57527.23862.81014.81014,0,0,1,.57527-.23862Zm.26456.54846a.37573.37573,0,1,1-.26456-.10874.37392.37392,0,0,1,.26456.10874ZM5.34992,6.64515A.79892.79892,0,0,0,4.221,6.64428l-.00091.00087a.8004.8004,0,0,0,0,1.128L4.221,7.775a.79924.79924,0,0,0,1.12892-.00183l.00091.00092V7.77319a.79893.79893,0,0,0,.00945-1.11855Z" style="fill:#a1afba;fill-rule:evenodd"/></g></svg>