<svg xmlns="http://www.w3.org/2000/svg" viewBox="0 0 18.16314 18.16223"><title>life-preserver-icon-UC-Santa-Barbara</title><g id="ICONS"><path d="M2.66033,2.66A9.09975,9.09975,0,0,1,5.60982.6874q.26967-.11151.54664-.20567L6.16864.47746q.2331-.07906.47351-.145L6.65068.32908,6.67323.323,6.69455.3178h.00092L6.718.31079,6.73965.30561,6.74727.30318,6.7622.29861,6.78444.29343,6.80181.28911,6.80607.28764,6.82954.28246l.02163-.0061L6.85452.27545,6.87433.27027,6.89688.26509,6.90876.26235,6.91912.25991l.02163-.0061L6.96147.2495,6.9633.24863,6.98676.24254,7.00809.23731l.007-.00178L7.03155.23218,7.0541.227,7.06964.22365,7.07726.22182,7.09889.21756A9.00246,9.00246,0,0,1,8.52153.01706L8.54378.01554,8.5904.0128,8.61386.011h.02346L8.66048.00945,8.7071.00762,8.73056.0067l.0067-.001L8.75371.00518h.02347l.018-.00091h.00518L8.8238.00335,8.84787.00244h.02346L8.89449.00152,8.90911.00061h.05728L9.024,0h.11487l.0579.00061h.057l.01584.00091.02316.00092h.02346l.02316.00091.02346.00092H9.3689L9.386.00518h.02346c.03869.00152.0777.00335.11639.00579h.02347L9.57244.0128l.046.00274.02316.00152A9.01051,9.01051,0,0,1,11.1773.24341l.02163.00522.00274.00087.02072.00431.02224.0061.02255.00518.02164.00518.0198.00518L11.312.27636l.02164.0061.02254.00518.0061.00147.01737.00432.02132.00518.014.00457.00853.00243L11.446.31079l.02163.007h.00092L11.48992.323l.02254.0061L11.521.33243l.014.00335.0387.01122.00518.001c.05119.01462.10207.02925.153.04474l.00091.001c.08806.02682.1752.05454.26174.08379l.01036.00427c.18556.06216.36869.13133.54937.20567a9.114,9.114,0,0,1,4.9206,4.92151c.07343.17947.14229.36107.20445.5448l.00609.014c.08745.259.16424.52408.22822.79374l.00061.00183c.01219.05241.02438.10512.03565.15783l.00092.00183.00426.02164.00518.02254.00244.01036.00274.01189.00427.0225.00426.01894.00092.00426.00426.0225.00427.02351.00183.00518.00335.017.00427.02259.00365.01463.00092.00883.00426.02225.00518.02346h0l.00335.02255.00427.02315.00183.00854.00244.014.00457.02316.00243.01828.00183.00518.00335.02255.00366.02316.00061.00426.00366.0192c.03717.21847.06459.44024.08531.66333l.00183.02316c.00518.05362.00944.10816.01371.1624l.00183.02255V8.452l.00183.02169.00152.02346v.01219l.00091.011.00183.02347.00092.02254v.00061l.00091.02347.00152.02346V8.6233l.00092.0128.00183.02346.00091.02072v.00331l.00061.02259.00091.02311v.008l.00092.01554c.00426.10969.00609.21756.00609.32816,0,.10969-.00183.21847-.00609.32816l-.00092.01646v.00609l-.00091.02316-.00061.02346v.00427l-.00091.01919-.00183.02407-.00092.01371v.0094l-.00152.02351-.00091.02255V9.5959l-.00092.02225-.00183.02346-.00091.01127v.01184l-.00152.02351-.00183.02255-.00183.02315a9.13059,9.13059,0,0,1-.20445,1.37506l-.00518.02169-.00366.01645-.00152.0067-.00549.02255-.011.04479-.00518.02255-.00274.01036-.00244.01219-.00609.02224v.00091l-.00945.03809-.00182.0061-.0061.02254-.00091.00518-.00518.01707-.00518.02254-.00335.01372-.00275.00883-.01188.04388v.00091l-.01219.04327-.00243.00945-.01036.03443-.00457.01919-.00762.02494-.0061.02321-.00182.00457-.00518.01706c-.02316.08135-.04815.16149-.074.241l-.00091.00361c-.01127.03447-.02346.06982-.03474.10516l-.00426.01036q-.0946.27744-.20628.54846a9.09871,9.09871,0,0,1-4.92151,4.9206q-.26966.11289-.54755.20658l-.01127.00422c-.08654.0293-.17368.05789-.26174.08384l-.00091.00092c-.05089.01554-.10177.03016-.153.04479l-.00518.00091-.0387.01127-.0131.00427-.00945.00274-.02254.00579-.02133.0061h-.00092l-.02163.00609-.02255.00518-.00853.00335-.014.00366-.02132.00518-.01737.00518-.0061.00091-.02254.00579-.02164.00513-.00335.001-.0198.00514-.02164.00609-.02255.00431-.02224.0061-.02346.00518-.02163.00518a8.99927,8.99927,0,0,1-1.60486.23066L9.54929,18.15l-.00945.00091-.014.00092-.11639.00426-.02346.00153H9.36281l-.02346.00091-.02316.00092H9.311l-.01828.00091H9.2452l-.02316.00091-.02346.00092h-.234l-.02347-.00092L8.918,18.1604H8.87133l-.0192-.00091H8.84787l-.02407-.00092-.02347-.00091H8.77718l-.02347-.00153H8.73056l-.02346-.00182-.04662-.00183-.02316-.00061-.014-.00092L8.61386,18.15l-.02346-.00091-.04662-.00244-.02225-.00183a8.80483,8.80483,0,0,1-1.03384-.12279l-.02346-.00336-.09141-.01741-.02255-.00422-.06917-.01371-.02316-.00427-.02254-.00522-.02347-.00453-.02132-.00518-.02347-.00426-.02254-.00518L7.123,17.95046l-.00061-.001-.02346-.00422-.02255-.00518-.0067-.00183-.01554-.00335-.02346-.00518L7.016,17.92548l-.00792-.00092-.04479-.01127-.00183-.00092-.05271-.01188-.01188-.00279q-.372-.0918-.72824-.21329l-.01218-.00422c-.18557-.06307-.36778-.13132-.54664-.20658A9.09865,9.09865,0,0,1,.68832,12.553c-.075-.18129-.14413-.36442-.2072-.55089l-.00274-.00793L.443,11.88968V11.889l-.00091-.00361-.0067-.02164-.007-.02224L.42658,11.837l-.00579-.01706L.4147,11.79827l-.00427-.01371L.40068,11.755l-.0067-.0225v-.00061l-.007-.02072-.0061-.02255-.00243-.00853L.37417,11.667.36808,11.6444.362,11.62734l-.00091-.00457L.355,11.60052l-.0061-.02163-.00152-.00427-.00518-.01919-.0061-.02164A9.04212,9.04212,0,0,1,.01371,9.57153l-.00152-.0226-.00092-.0094C.00945,9.49566.00792,9.45239.007,9.40821L.00518,9.386V9.36768L.00427,9.3625.00335,9.33935V9.31071l-.00061-.0189V9.26835L.00183,9.25373V9.24519L.00091,9.22173V9.13885L0,9.12758V9.081H0V9.03343L.00091,9.024V8.94019L.00183,8.917v-.008l.00091-.01549V8.86945l.00061-.01828V8.82349l.00092-.02316.00091-.00609V8.77687L.007,8.7528V8.72929l.00091-.02311.00244-.04662L.01127,8.6361V8.6233l.00092-.00944L.01371,8.5904l.00274-.04662.00092-.02347v-.0104l.00152-.01275C.02346,8.435.02773,8.37279.032,8.31129l.00244-.02316q.03244-.37067.09415-.73249l.00366-.02316L.13651,7.509l.00091-.00427.00335-.01828.00335-.02316.00275-.014.00091-.00854L.153,7.41761l.00853-.046.00427-.02316.00182-.00792.00275-.01463L.17459,7.3033l.00335-.017.00183-.00609L.184,7.25759l.00518-.02311V7.23174l.00426-.01985.00427-.0225L.20049,7.1775l.00244-.01132.00518-.0225L.21238,7.123V7.12113L.21756,7.098l.00518-.02255.00091-.00609.00366-.01646.00944-.03717.00153-.00762L.24863,6.9633l.00092-.00183.0259-.10725.00091-.00335c.0579-.23158.12523-.46041.20141-.68314L.483,6.15458c.06307-.18369.13132-.3662.20537-.54567A9.09057,9.09057,0,0,1,2.66033,2.66Zm.96285,8.50076L.96651,12.06q.05942.16592.12706.32633a8.681,8.681,0,0,0,4.68292,4.68232q.16089.06718.32573.12767l.90008-2.65668c-.0521-.01889-.103-.03961-.15387-.06033a5.8382,5.8382,0,0,1-1.88365-1.25688l-.01311-.01128a5.91352,5.91352,0,0,1-.72792-.88789,5.7713,5.7713,0,0,1-.539-1.00886c-.02163-.05089-.04144-.10182-.06155-.15362ZM.96651,6.10191,3.62318,7.002c.02011-.0518.03992-.10269.06155-.15357a5.76951,5.76951,0,0,1,.539-1.00886,5.85541,5.85541,0,0,1,.72792-.88729l.00092-.00061A5.87925,5.87925,0,0,1,6.84751,3.6829l.00092.00057V3.6829c.05088-.02076.10177-.04083.15387-.06063L6.10222.96651q-.16453.05942-.32573.12675A8.67865,8.67865,0,0,0,1.09357,5.77649c-.0451.10691-.08745.21573-.12706.32542ZM.82574,11.6444l2.65606-.89917c-.01645-.057-.03291-.11487-.04845-.17337V10.57l-.00883-.03291h0l-.00335-.01127-.00183-.00579-.00762-.03474-.00091-.00426-.00427-.01372-.00183-.007L3.40319,10.45l-.00091-.00183-.00275-.01128-.00091-.00431-.00152-.00609-.00275-.01092-.00243-.01128-.00183-.00609L3.38917,10.393l-.00243-.01123V10.3799l-.00183-.00945-.00244-.00762-.00091-.00365-.00183-.011-.00092-.00366-.00152-.00762-.00274-.00975v-.00152l-.00244-.01036-.00091-.00518-.00183-.007-.00183-.01036v-.00091l-.00244-.01036-.00183-.00671-.00091-.00457-.00152-.011-.00092-.00182-.00183-.01036-.00518-.025-.00609-.03047-.00061-.00426-.00183-.00767-.00183-.0094v-.00183a5.68025,5.68025,0,0,1-.09049-.74285h0l-.00274-.02925V9.3817L3.2484,9.372l-.00091-.00518V9.35123L3.24688,9.3366V9.322L3.246,9.31771V9.30644l-.00091-.007V9.27627l-.00091-.0131-.00092-.00152V9.20894L3.24231,9.201V9.18634L3.2417,9.17268V9.12575l-.00092-.00853V9.081h0V9.0447l.00092-.00944v-.0451h0l.00061-.01462V8.96l.00091-.00671V8.90058l.00092-.00183.00091-.0131V8.85548L3.246,8.84421l.00092-.00427V8.82532l.00061-.01463V8.79607l.00091-.00518.00092-.01036V8.7656l.00091-.011V8.75006l.00183-.01371v-.001l.00152-.0292V8.69064l.00092-.00792.00091-.0067V8.66383l.00091-.00274.00092-.01463V8.64555l.00061-.01376.00091-.00331L3.263,8.57486l.00091-.00336V8.55657h0l.0061-.0524v-.007c.00426-.04418.00944-.089.01462-.13316l.00092-.00243c.00518-.04754.01218-.09416.01889-.14078l.00091-.00365.00183-.01463h0l.00518-.02925V8.16717l.00183-.00853.00152-.00884L3.31666,8.144l.00182-.01127V8.129l.00244-.01122V8.11445l.00183-.00761.00091-.00975.00092-.00157.00152-.01123L3.327,8.08l.00183-.007.00092-.01036V8.06174l.00243-.01193.00092-.00452L3.334,8.03858l.00244-.01036h0L3.33829,8.016l.00091-.00518.00092-.0061.00243-.01127h0l.00183-.01128.00183-.0067.00061-.00426.00274-.01219V7.95814l.00183-.01036.00152-.00609.00092-.00427.00274-.01218V7.92371l.00152-.00883.00183-.00945.00092-.00188.00152-.01183.00091-.00427.00183-.00609L3.36754,7.871V7.86917l.00183-.01036.00183-.00609.00091-.00518.00244-.01189V7.83474L3.37973,7.814l.00183-.01127L3.38247,7.8l.00244-.0094L3.38674,7.782V7.7802l.01036-.04479.00152-.00518.00091-.0061.00275-.01036.00091-.00091c.02407-.10025.05-.19866.07861-.29617L.82574,6.51752l-.00518.01737-.00518.018-.00183.00335-.00427.014-.00518.018-.00518.01732L.798,6.6065.79374,6.623l-.00518.018-.00518.01554V6.6583l-.00518.018L.773,6.69364l-.00335.0131-.00183.00518L.76266,6.729.7584,6.74727l-.00275.01036-.00335.007-.00426.018-.01889.07161-.00092.00365-.00365.01372A8.64641,8.64641,0,0,0,.451,8.63275L.45,8.64494V8.6553L.4473,8.69917h0L.44578,8.7528l-.00092.01371v.02164L.444,8.808.44212,8.8564v.00609L.44151,8.878v.04479L.4406,8.94537v.0259l-.00092.01889V9.081h0v.08989l.00092.0198v.025l.00091.02346v.04474l.00061.01651v.00609L.443,9.35062.444,9.35489l.00091.018v.02255l.00092.01371v.00879l.00091.02229.00061.02255v.00087l.00091.02076L.45,9.50693v.011L.451,9.52917l.00091.02255.00152.02072v.00183a8.72243,8.72243,0,0,0,.13224,1.09936l.00244.01462.00457.02159.00335.01924.00274.011.00061.007.00366.01737.00427.01889.00182.00879.00153.00949.00365.01793.00336.01828.00182.0061.00244.01284.00335.01828.00457.018.00061.00269.00275.01559.00426.01793.00335.01742h0l.00457.018.00427.01829.00244.01554.00091.00335.00427.01828.00426.01737.00275.0128.00182.00609.00427.01737.00426.018.00183.00854L.67887,11.11l.00427.018.00426.01829c.04175.16819.08745.33425.13834.49818Zm13.8556-.89917,2.65607.89917c.02772-.08806.05271-.17612.0777-.266l.00518-.01707.00091-.007.00335-.01036.00518-.0189.00945-.03565.00518-.018.00457-.01737v-.00091l.00426-.01707.00518-.01828.00335-.01554v-.00274l.00518-.01707.00427-.01828.00274-.01279.00153-.00518.00457-.01829.00426-.018.00244-.00975.00183-.00854.00426-.018.00427-.01737.00183-.00609.00274-.0128.00427-.01737.00426-.01828v-.00335l.00335-.01554.01981-.0872.00091-.00269A8.67356,8.67356,0,0,0,17.714,9.48438l.00091-.02076V9.46275c.00335-.07252.00518-.14412.0067-.21664v-.007c.00183-.05276.00183-.10543.00183-.15814,0-.12767-.00244-.25564-.00853-.38179V8.69826A8.58892,8.58892,0,0,0,17.4212,6.8076l-.00091-.00671-.01981-.071-.00518-.018-.00091-.00518-.00427-.0131-.00427-.01737-.00609-.018V6.65647L17.3694,6.623l-.00518-.01645v-.001L17.359,6.58821l-.00518-.018-.00427-.014-.00182-.00335-.00427-.018-.00609-.01737-2.65668.89917q.0777.25777.1295.52343a5.85041,5.85041,0,0,1,.10969.976v.00152l.00152.08806v.00274l.00092.07252-.00092.07343v.00183l-.00152.089v.00092a5.87153,5.87153,0,0,1-.10969.97656q-.05211.266-.12889.52256ZM17.19664,12.06l-2.65607-.89922c-.01981.0518-.03961.10273-.06125.15362a5.776,5.776,0,0,1-.53992,1.00886,5.83378,5.83378,0,0,1-1.61583,1.61613,5.8164,5.8164,0,0,1-1.00794.53992c-.0518.02072-.103.04144-.15479.06125l.90008,2.65576q.16455-.06078.32573-.12767a8.67308,8.67308,0,0,0,4.68293-4.68232c.04418-.107.08744-.21572.12706-.32633Zm-2.71457-2.9108.00061-.06825-.00061-.06734V8.99626h0l-.00092-.02834V8.93928L14.48024,8.928V8.91185h0l-.00092-.014V8.89449l-.00091-.01128V8.86158L14.4775,8.8564l-.00061-.01219V8.814L14.476,8.81156l-.00091-.01123v-.014l-.00092-.00945-.00091-.00426V8.758l-.00091-.01371h0l-.00061-.0131-.00092-.00336V8.71654l-.00091-.00518V8.70344L14.469,8.694V8.68881l-.00091-.01132V8.6751l-.00152-.014h0V8.64737l-.00092-.00243-.00183-.01737-.00091-.008V8.61111L14.462,8.60685l-.00335-.04144-.00092-.00427-.00091-.00975c-.01707-.1786-.043-.355-.07679-.52682-.0198-.09842-.04144-.19592-.06551-.291l-.00091-.00244-.007-.02437L14.305,7.69915l-.00457-.01554V7.68087l-.00427-.0128V7.66716l-.01737-.064V7.60225l-.018-.06215-.00091-.00244-.00426-.0131V7.52364l-.00336-.01188-.01645-.05028V7.46057l-.00427-.0128V7.445L14.228,7.43376l-.00153-.00427-.00609-.02072-.00366-.01036-.00061-.00152-.00457-.0131L14.21088,7.382,14.203,7.35789l-.00244-.007-.00091-.00244-.00183-.00518L14.196,7.33717c-.03717-.10878-.07769-.217-.12157-.323a5.43478,5.43478,0,0,0-.49849-.93207,5.49774,5.49774,0,0,0-.6746-.82056h-.00092A5.38,5.38,0,0,0,11.148,4.08785l-.01036-.00427a5.39939,5.39939,0,0,0-1.74745-.39489H9.38505l-.00853-.00061-.025-.00182H9.33417V3.68534H9.31771l-.01127-.00091H9.30126l-.00853-.001H9.279L9.26774,3.6829H9.25129L9.23666,3.682H9.19522L9.183,3.68108H9.16567L9.152,3.68016H9.01027l-.0128.00092H8.98011L8.96883,3.682H8.92648l-.01371.00091H8.89631l-.01218.00057H8.879l-.064.00279H8.81161l-.025.00182-.00792.00061H8.77291l-.01127.00087H8.75889l-.01371.001h0a5.34816,5.34816,0,0,0-1.39583.273l-.00609.00153c-.11061.03717-.2203.07861-.32725.12279h0A5.4136,5.4136,0,0,0,5.26277,5.26064l-.00091.00091a5.434,5.434,0,0,0-.67461.82147,5.32406,5.32406,0,0,0-.80319,1.94155,5.34157,5.34157,0,0,0-.09689.787V8.814l-.00335.08136v.00148l-.00092.02868V8.928L3.682,8.93928v.02864l-.00091.01188v.01646h0V9.081h0V9.183l.00091.011v.02864L3.6829,9.233v.01732h.00092v.02838l.00091.00513v.008l.00092.00945v.01645l.00061.01646h0l.00091.01366v.0034l.00183.02529v.01371a5.3684,5.3684,0,0,0,1.57377,3.51014l.01036.01127a5.44055,5.44055,0,0,0,1.742,1.16243c.10786.0451.21694.08562.32816.12371l.00609.00153.00275.00091.04479.01462.00183.00092a5.385,5.385,0,0,0,1.34555.25564h.00091l.06643.00335.00335.00092.0131.00091h.01737l.01127.00092.02743.00091.01218.00091h.01646l.01371.00061h.014l.00578.00092h.03626l.014.00091h.17l.014-.00091h.03687l.00518-.00092h.014l.01463-.00061h.01645l.01128-.00091h.00609l.00762-.00091h.01371l.01219-.00092h.01645l.01371-.00091.00275-.00092.025-.00061h.00853l.00518-.00091h.01493l.01371-.00183h0a5.329,5.329,0,0,0,.7194-.09232,5.25986,5.25986,0,0,0,.61153-.15814h.00092l.01279-.00427.00183-.00091.03108-.01036.00609-.00183c.11762-.03961.23249-.08288.34645-.1295a5.41452,5.41452,0,0,0,1.75141-1.1737,5.4605,5.4605,0,0,0,.67552-.82056,5.30747,5.30747,0,0,0,.49849-.93207c.04388-.107.08531-.21573.1234-.32725v-.001l.00183-.00513.00091-.00335.00336-.00854.00243-.007.00183-.007.00274-.00858.00153-.00422.00426-.01127V10.7626l.00457-.0128v-.00091l.00427-.01219.00091-.00335.00336-.00945.00182-.00609.00153-.007.00274-.00853.00152-.00427.00457-.01219V10.6849l.00762-.0259.00092-.00518.00243-.008.00275-.00757.00517-.01554v-.00335l.00427-.01219v-.001l.00335-.01275.00092-.00183.00365-.01127.00061-.00518.00274-.00762.00244-.00884.00092-.00518.00365-.01036.00061-.00243.00366-.0131h0l.00335-.01285.00091-.00361.00244-.01036.00183-.00609.00274-.00671.00153-.00883.00091-.00427.00366-.01127v-.00244l.00426-.01371h0l.00335-.01219.00092-.00426.00183-.00975.00152-.00579.00274-.007.00153-.0095.00091-.00421.00366-.01219v-.00092l.00335-.01371L14.33,10.3671l.00244-.01219.00091-.00427.00183-.00949.00153-.007.00182-.00609.00275-.01036.00061-.00335.00274-.01219v-.00092l.00335-.01371.00091-.00183.00183-.011.00152-.00518.00183-.00883.00183-.00762.00152-.00609.00183-.01036v-.00275l.00335-.01371h0l.00275-.01371.00091-.00274.00244-.01036.00091-.00609.00183-.00767.00152-.00879.00092-.00426.00274-.01189v-.00183l.00335-.01371v-.00091l.00274-.0131v-.0034l.00153-.01031.00183-.0061.00091-.007.00152-.00761.00183-.0061.00183-.01036.00091-.00335.00153-.01315v-.00087l.00274-.01371v-.00091l.00244-.01219.00091-.00426.00183-.00945.00091-.007.00153-.0067.00091-.00889.00183-.00513.00152-.01127V9.975l.00275-.01371h0l.00426-.0259.00092-.00609.00091-.00793.00183-.00853V9.90848l.00152-.01219.00092-.00178.00609-.04053V9.84789l.00183-.0067.00061-.01036.00091-.00366.00183-.01188V9.81346l.00853-.064V9.74612L14.444,9.733V9.7321l.00183-.01279V9.71652l.00152-.01092V9.70042l.00183-.00793.00091-.00853V9.67878l.00153-.01127V9.66472l.00183-.01367V9.65014l.00182-.01554.00092-.01036V9.61815l.00061-.00762.00091-.00884.00092-.00518.00091-.01188V9.5828l.00183-.01371V9.56818L14.462,9.556l.00091-.00427V9.54136l.00091-.007.00092-.00609.00091-.01036.00092-.00426v-.0128l.00152-.01463V9.48438l.00091-.01127V9.46793l.00092-.00853v-.008l.00091-.0061V9.435l.00092-.00335.00061-.0131V9.41705l.00091-.01311V9.39023l.00091-.00518.00092-.00944v-.014l.00091-.01036.00092-.0034V9.31771l.00061-.01127.00091-.00518V9.28384l.00183-.0484V9.233l.00091-.01128V9.194l.00092-.042V9.14921ZM14.54,7.00108l2.65668-.89917c-.03962-.10969-.08288-.21851-.12706-.32633a8.67308,8.67308,0,0,0-4.68293-4.68232q-.16089-.06718-.32573-.12675l-.90008,2.65576c.04845.01828.096.03626.1426.05606l.01219.00457a5.80377,5.80377,0,0,1,1.00886.54054,5.9342,5.9342,0,0,1,.887.72823h0v.00061a5.858,5.858,0,0,1,.72793.88637,5.78109,5.78109,0,0,1,.53992,1.00978c.02164.05088.04144.10085.06064.15265Zm-2.89434,10.336-.89917-2.65662q-.25777.07632-.52347.12949a5.82594,5.82594,0,0,1-.84037.1036H9.37225l-.00518.00092-.01218.00091H9.33752l-.00061.00091H9.31863l-.01128.00092H9.29974l-.007.00091H9.27719l-.0128.00061H9.26256l-.01554.00092H9.18639l-.01371.00091h-.018l-.01219.00091h-.121l-.01311-.00091h-.018l-.01372-.00091H8.91612l-.01554-.00092H8.89967L8.886,14.91809H8.87133l-.00792-.00091H8.85579l-.01127-.00092H8.82715l-.00092-.00091H8.80917l-.0131-.00091-.00518-.00092h-.018l-.00609-.00061-.06064-.00365H8.70009l-.00853-.00092a5.92293,5.92293,0,0,1-.75139-.09842c-.14687-.0293-.29191-.06368-.43542-.10451H7.50414l-.04327-.01188L7.453,14.69079H7.45051l-.01127-.00427H7.43589L7.428,14.68378l-.00945-.00244-.00091-.00091-.89917,2.65662.01737.00462.01736.00579.00427.00092.01371.00426.01737.00549.018.00518.00091.00061.01645.00518.01829.00517.01554.00518h.00152l.01828.00518.01706.00518.01311.00366.03961.01127.01036.00239.00883.00279.01707.00427.02529.0067.01036.00366a8.62913,8.62913,0,0,0,1.8803.29007h0l.02316.00092.03107.00183h.01311l.02224.00091.0192.00061.04844.00091.00579.00092H8.879l.02254.00091h.04479l.02255.00092h.0579l.01036.00091H9.127l.00945-.00091h.05789l.02316-.00092h.04418l.02255-.00091h.01645l.00579-.00092.04845-.00091.01919-.00061.02225-.00091h.014l.03017-.00183.02224-.00092h.00091l.02164-.00091.08714-.00518h.00183a8.70211,8.70211,0,0,0,1.30076-.17185l.01829-.00335.00243-.00092.08806-.01889.01463-.00365.00365-.00061.018-.00366.01828-.00427.0908-.02163.01707-.00426.00609-.00183.01219-.00335.018-.00427.01828-.00427.00243-.00091.01554-.00366L11.237,17.452l.01645-.00335.00091-.00091.018-.00427.01828-.00518.01371-.00335.00336-.00091.01828-.00518.05363-.01463.018-.00427.00793-.00279.00944-.00239.018-.00517.03565-.00976.018-.00578c.04661-.01311.09415-.02773.14077-.04236l.01828-.00462ZM10.74645,3.4815,11.64562.82574l-.01828-.0061C11.58072.805,11.53318.791,11.48657.77729L11.46859.773,11.43294.76266,11.415.75748,11.40552.75474,11.39759.75226l-.018-.00453L11.326.73311,11.30771.72884,11.30435.727,11.29064.72366,11.27236.71848l-.018-.00426h-.00091L11.237.71,11.21873.70477,11.20319.70111,11.20076.70046,11.18248.69532l-.018-.00365-.01219-.0034L11.14622.68649,11.12915.68314,11.03835.6615,11.02007.65724,11.00209.653,10.99844.65206,10.98381.64931,10.89575.6286h-.00243L10.875.62524A8.58517,8.58517,0,0,0,9.57427.45339H9.57244L9.4853.44821,9.46366.4473h0L9.44142.44638,9.41034.44547l-.014-.001L9.37408.444,9.35489.443,9.30644.44212,9.30065.4412h-.039L9.24611.44029h-.007L9.21747.43938H8.94628L8.924.44029H8.917L8.90149.4412h-.039L8.8567.44212,8.80826.443,8.78906.444,8.76682.44451l-.01311.001L8.72264.44638,8.70009.4473H8.69948a8.58517,8.58517,0,0,0-1.68773.241l-.014.0034L6.92613.71,6.90967.71422H6.90876L6.87341.72275,6.85879.727,6.85452.72788,6.83715.73311l-.018.00426L6.80882.741l-.007.00152L6.78353.74773,6.76646.75226,6.75763.75474,6.74727.75748,6.7302.76266,6.71192.76693,6.70766.76845,6.69455.773,6.67749.77729,6.65921.78247,6.65677.78338,6.64215.78765,6.62386.79374,6.60741.798l-.00091.001-.018.00513L6.57115.80928,6.55744.81263,6.55317.81446,6.53581.81964l-.01737.0061L7.41761,3.4815l.00183-.00092L7.428,3.47815l.00792-.00188.00335-.00087.01127-.00335L7.453,3.47114l.00792-.00183L7.47123,3.466h.00092l.01036-.00335.00579-.00092L7.49348,3.459l.01127-.00244h0l.01036-.00335.03382-.00884.00853-.00243h.00275l.03108-.00884.00091-.00061.01188-.00274.00427-.00183.00609-.00061.01128-.00279.00091-.00087c.1036-.02681.209-.05093.31536-.0716a5.89653,5.89653,0,0,1,.74957-.09842H8.701l.06582-.00426h.00609l.00853-.00092H8.7918l.00427-.00091h.01462l.01554-.00092h.00092l.014-.00091H8.8567l.00671-.001h.01828L8.886,3.24414l.01372-.00092h.03108l.00517-.00091h.01829l.00761-.00092h.07435L9.045,3.24048h.07313l.00883.00091h.075l.007.00092h.01889l.00457.00091h.032l.0128.00092.00518.00056h.01737l.0067.001H9.322l.014.00091h.00152l.01493.00092h.01462l.00518.00091H9.3817l.04479.00239h0a6.02079,6.02079,0,0,1,.79466.10121c.152.03017.30165.06551.44821.107h.00183l.00944.00366.007.00243L10.691,3.466l.04419.01219.00335.00152.00792.00183Zm.39123.60208-.121-.15387A.219.219,0,0,0,11.13768,4.08358Z" style="fill:#a1afba;fill-rule:evenodd"/></g></svg>