<svg xmlns="http://www.w3.org/2000/svg" viewBox="0 0 11.64737 20.42786"><title>male-symbol-icon-UC-Santa-Barbara</title><g id="ICONS"><path d="M4.63631,8.97942V4.4458L1.73862,7.34257a.2194.2194,0,0,1-.31019,0L.0649,5.979a.21772.21772,0,0,1,0-.31014L5.66863.06422a.22011.22011,0,0,1,.31079,0l5.60373,5.60464a.21933.21933,0,0,1,0,.31014L10.21932,7.34257a.22013.22013,0,0,1-.31079,0L7.01175,4.4458V8.977a5.79289,5.79289,0,1,1-2.37544.00244Zm.43877-5.0638v5.2451h0a.22025.22025,0,0,1-.18221.21694A5.32867,5.32867,0,0,0,3.199,9.98219,5.36787,5.36787,0,0,0,.81538,12.7644a5.3427,5.3427,0,0,0,1.22641,5.65888A5.34836,5.34836,0,1,0,6.76128,9.37583a.21889.21889,0,0,1-.18921-.21755V3.91562h0a.21969.21969,0,0,1,.37478-.1557l3.11707,3.11646,1.054-1.053L5.824.53071.53018,5.82334l1.054,1.053L4.7003,3.75992a.22322.22322,0,0,1,.15539-.06369.21964.21964,0,0,1,.21939.21939Zm3.16125,8.314a3.39829,3.39829,0,0,0-2.4123-.99941H5.8155l-.46985.03108a3.39254,3.39254,0,0,0-1.142.37569,3.43979,3.43979,0,0,0-.951.75931,3.414,3.414,0,0,0,3.87639,5.39893,3.42709,3.42709,0,0,0,1.84739-1.84918,3.42248,3.42248,0,0,0,0-2.60914,3.41926,3.41926,0,0,0-.74012-1.10728Zm-.94152-1.14628a3.84239,3.84239,0,0,0-1.45189-.2919L5.824,10.79055a.15227.15227,0,0,0-.02925.00183l-.48387.032a.12957.12957,0,0,0-.025.00335,3.81841,3.81841,0,0,0-1.2904.42323,3.893,3.893,0,0,0-1.07285.85681,3.85253,3.85253,0,0,0,.17794,5.25668,3.87812,3.87812,0,0,0,1.25171.83605,3.84994,3.84994,0,0,0,4.19419-.83605,3.84357,3.84357,0,0,0,1.128-2.72341,3.85247,3.85247,0,0,0-2.37971-3.55767Z" style="fill:#a1afba;fill-rule:evenodd"/></g></svg>