<svg xmlns="http://www.w3.org/2000/svg" viewBox="0 0 17.74266 22.77355"><title>male-doctor-icon-uc-santa-barbara</title><g id="ICONS"><path d="M8.87133,12.48141a3.5015,3.5015,0,0,1-1.75263-.51129,5.08451,5.08451,0,0,1-.82391-.60361l-.00427.06887c-.01736.33364-.03808.72914-.06825,1.078v.00274a.22267.22267,0,0,1-.00427.04053c-.01889.20994-.04143.40068-.06825.54754l2.74748,1.5686,2.70847-1.547c-.01036-.0494-.01889-.10269-.02742-.16-.01645-.11213-.03291-.24593-.04753-.3824a.22548.22548,0,0,1-.01829-.08745.25643.25643,0,0,1,.00427-.043l-.00244-.02529h0v-.00152c-.03108-.33517-.05362-.67369-.07343-.96316l-.00518-.08383a5.08111,5.08111,0,0,1-.812.59085,3.49607,3.49607,0,0,1-1.75233.51129Zm4.8237,6.05651v-.21786h-.03961a1.14691,1.14691,0,0,0-.63926.39063h-.00061a1.13581,1.13581,0,0,0-.24468.727,1.148,1.148,0,0,0,2.29592,0,1.13527,1.13527,0,0,0-.241-.72183l-.00427-.0061a1.14472,1.14472,0,0,0-.6401-.38971h-.04669v.216a.92653.92653,0,1,1-.43968.00183Zm0-.65723H13.633v.00061a.2561.2561,0,0,0-.04571.00457,1.54822,1.54822,0,0,0-1.25513,1.55183,1.58672,1.58672,0,1,0,3.17344,0,1.54873,1.54873,0,0,0-1.24134-1.54848.19157.19157,0,0,0-.05942-.00853h-.07008V14.366l.00274.00182a6.28712,6.28712,0,0,1,2.38367,1.32575,2.33906,2.33906,0,0,1,.78186,1.69992h.00091v4.06195a.8807.8807,0,0,1-.87936.87845H9.49512l.52675-1.94673.50337-.9796-.00092-.00092.00092-.00061a20.37707,20.37707,0,0,0,2.32943-5.39227c.07952.01737.15722.03535.234.05363.14016.03352.27819.06886.41286.106l.19014.0555c.00182.03108.00335.06125.00335.09233v3.5595Zm-.14839-4.14849a1.69447,1.69447,0,0,0-.41622-.50458,2.25519,2.25519,0,0,0-1.1411-.49483c.00762.057.01554.113.02346.16758.011.07587.02316.14256.03352.19349l.74286.45765c.13284.02865.26691.05881.40068.08989.12012.02956.23858.05881.3568.0908Zm-1.60478-1.44671a2.71133,2.71133,0,0,1,1.4701.60635,1.975,1.975,0,0,1,.6676,1.00795l.178.0457A6.817,6.817,0,0,1,16.827,15.3791a2.771,2.771,0,0,1,.91563,2.01437h-.00092l-.00091,4.06195a1.31279,1.31279,0,0,1-.38606.93116h0a1.31143,1.31143,0,0,1-.93024.387H1.31813A1.31963,1.31963,0,0,1,0,21.45542V17.39347a2.782,2.782,0,0,1,.99332-2.08323,7.22073,7.22073,0,0,1,2.76393-1.43818l.00853-.00244h0l.20141-.05275a2.23092,2.23092,0,0,1,.53109-.87415,2.12277,2.12277,0,0,1,1.30084-.63651c.02247-.29465.03961-.61672.05446-.89308.00953-.17611.01707-.337.0259-.45435-.11852-.128-.2334-.26169-.34217-.40094A7.12456,7.12456,0,0,1,4.45867,8.61629a8.8679,8.8679,0,0,1-.39733-3.3459C4.0068,2.28372,3.96536,0,8.87133,0c4.90688,0,4.86521,2.28372,4.8109,5.27039-.00945.52347.01371,1.1996-.03291,1.73679l-.00091.00518v.00518a6.32059,6.32059,0,0,1-.36351,1.59875A7.1254,7.1254,0,0,1,12.206,10.55784q-.17218.2203-.36076.4217c.011.13133.02224.28394.03351.45523.01829.26935.039.58045.06315.85072Zm-8.07827,2.4382a2.83924,2.83924,0,0,0-1.794.82665l-.00191.00092h0l-.00061.00061A2.84713,2.84713,0,0,0,1.231,17.56959h0a.21943.21943,0,0,0,.17946.216v.14321a4.478,4.478,0,0,0,.21086,1.64294,1.981,1.981,0,0,0,.91044,1.00094.21828.21828,0,0,0,.13041.24955l.48965.2014a.62383.62383,0,0,0,.81111-.33517l.00153-.00426a.62421.62421,0,0,0-.33944-.81355l-.48965-.20141a.21984.21984,0,0,0-.28573.12l-.153.37235a1.54153,1.54153,0,0,1-.66851-.75322,4.14985,4.14985,0,0,1-.18038-1.47962l.00061-.13986h.4278a.21925.21925,0,0,0,.22007-.21938h0a1.59019,1.59019,0,1,1,3.18037,0h0a.21847.21847,0,0,0,.21939.21938h.43358v.13986a4.13773,4.13773,0,0,1-.17977,1.47962,1.54329,1.54329,0,0,1-.66942.75322l-.15205-.37235a.22082.22082,0,0,0-.28672-.12l-.48965.20141a.62466.62466,0,0,0-.34736.79279.298.298,0,0,0,.01645.03961.623.623,0,0,0,.78339.3282.18444.18444,0,0,0,.03717-.01463l.47419-.19439a.22024.22024,0,0,0,.13033-.24955,1.98516,1.98516,0,0,0,.91045-1.00094A3.197,3.197,0,0,0,6.75,18.57845c.14778.26691.30226.53993.46558.82909h0l.72458,1.36474.30409,1.56159H1.31813a.88062.88062,0,0,1-.87936-.87845V17.39347a2.36051,2.36051,0,0,1,.85163-1.76025,6.77192,6.77192,0,0,1,2.58081-1.33885c-.00518.06064-.00762.11914-.00762.17977v.24955Zm1.89592-1.97023a1.70459,1.70459,0,0,0-.94952.49579,1.78619,1.78619,0,0,0-.3108.43024c.184-.04754.35681-.0908.46132-.114l.74956-.49c.01828-.08105.03443-.19165.04944-.32211ZM4.32917,14.17615a1.68809,1.68809,0,0,0-.02613.298v.24864a2.83234,2.83234,0,0,1,.85156.19958c-.02407-.07866-.04905-.15906-.075-.24285q-.09873-.3236-.18922-.64779c-.15814.03992-.36869.09354-.56126.14443Zm.677,5.98217-.28763.11818a.177.177,0,0,0-.09933.09937.19338.19338,0,0,0-.0061.13041.09809.09809,0,0,1,.00945.02255.18575.18575,0,0,0,.09506.08806.18273.18273,0,0,0,.14169.00152l.00244-.00152.28527-.1167-.14085-.34187Zm-1.547.11818-.28763-.11818-.14077.34187.28763.11822a.18273.18273,0,0,0,.14169-.00152.18837.18837,0,0,0,.09506-.089l.00854-.02164a.18808.18808,0,0,0-.00518-.13041.1808.1808,0,0,0-.09934-.09937Zm2.25783-5.04914q-.11518-.33684-.21786-.6746L5.4785,14.486l2.35624,2.25112a.21972.21972,0,0,0,.31018-.00792.25105.25105,0,0,0,.0339-.04479h0l.10078-.184.01036.025a.184.184,0,0,0,.01828.03535.32829.32829,0,0,1,.02682.06307.13178.13178,0,0,1,.00335.0457l-.00092.00793c-.10634.87235-.20719,1.62283-.31018,2.37269l-.09834.73067c-.11129-.19775-.22373-.39641-.3325-.58837l-.00092-.00065.00092-.00088c-.2849-.50458-.54328-.96132-.7843-1.42081a.22.22,0,0,0,.12858-.20049h0a2.84385,2.84385,0,0,0-.83518-2.01681L6.105,15.55187l-.00091-.00061h0a2.86019,2.86019,0,0,0-.387-.3239Zm.07678.63286a2.38643,2.38643,0,0,0-.36868-.30135.17668.17668,0,0,1-.0259-.018,2.42207,2.42207,0,0,0-3.0214.31932l-.00092.00183a2.4084,2.4084,0,0,0-.69685,1.48815h.38758a2.03014,2.03014,0,0,1,4.03636,0h.38757a2.40346,2.40346,0,0,0-.69684-1.48815l-.00092-.00183Zm8.46981,3.23226.00054.00061a.48921.48921,0,0,1,0,.68862l-.00054.00152a.49.49,0,0,1-.6893,0l-.00092-.00152a.48938.48938,0,0,1,0-.68862l.00092-.00061a.49.49,0,0,1,.6893,0Zm-8.35585-5.623L8.60106,15.008l-.4796.87052-.00243.00423-.00275.00431-.00243.00518-.18222.3309L5.39745,13.80289l.51037-.33338Zm6.45293.33186L9.86191,16.22129l-.1813-.32816-.00792-.01463L9.19347,15.008l2.66026-1.51862.507.312ZM9.8552,19.704l-.08988-.65907c-.10208-.75078-.20385-1.50125-.31019-2.37452a.13625.13625,0,0,1,.00343-.04662.31407.31407,0,0,1,.03192-.07073.18932.18932,0,0,0,.0131-.02769h.00091l.00945-.025.10116.184h.00061a.22133.22133,0,0,0,.03481.04661.21843.21843,0,0,0,.3098.00427l2.29074-2.21791a20.16963,20.16963,0,0,1-2.1067,4.67348h-.00091c-.09415.16667-.19074.33853-.28825.51312Zm-.61336-3.69784L8.89723,15.38l-.34553.6262.13986.3431a.68606.68606,0,0,1,.06733.16057.55375.55375,0,0,1,.01554.21238l-.00144.007c-.10124.83274-.20575,1.60576-.31118,2.37879-.05941.4412-.12.88271-.17611,1.31356h0l.46223,1.91229h.24444L9.49749,20.343v-.00091c-.05272-.40251-.1097-.82056-.16667-1.23865-.10452-.77359-.20994-1.54844-.311-2.38118a.5572.5572,0,0,1,.01486-.21238.73811.73811,0,0,1,.06825-.16057l.13894-.3431ZM13.209,7.00565A5.9009,5.9009,0,0,1,12.872,8.467a6.62865,6.62865,0,0,1-1.01129,1.81967,5.24845,5.24845,0,0,1-1.45647,1.30442,3.06365,3.06365,0,0,1-1.53294.45065A3.06266,3.06266,0,0,1,7.339,11.59108a5.24909,5.24909,0,0,1-1.45616-1.30442A6.67958,6.67958,0,0,1,4.87062,8.467a5.88987,5.88987,0,0,1-.336-1.46321L4.79445,5.899a3.63628,3.63628,0,0,0,.10542-.62341c.01646-.18648.02072-.38179.025-.57284a4.261,4.261,0,0,1,.046-.64322,1.09976,1.09976,0,0,1,.20971-.49579.79054.79054,0,0,1,.68253-.29978,4.748,4.748,0,0,1,1.07338.20293.16588.16588,0,0,0,.03572.00849,7.34527,7.34527,0,0,0,1.89912.31632,7.42915,7.42915,0,0,0,1.91747-.31963l.00153-.00091a4.79721,4.79721,0,0,1,1.09021-.2072.79028.79028,0,0,1,.67377.28947l.00754.01031a1.09312,1.09312,0,0,1,.20994.4964,4.18348,4.18348,0,0,1,.04662.64261c.00426.191.00883.387.025.57284a3.57822,3.57822,0,0,0,.10817.62951L13.209,7.00565Zm-8.71928-2.391a3.98076,3.98076,0,0,1,.051-.63317,1.52794,1.52794,0,0,1,.29457-.68832,1.20623,1.20623,0,0,1,1.02958-.468,5.07669,5.07669,0,0,1,1.18833.21939l.0131.00335a7.0886,7.0886,0,0,0,1.805.30409,7.08548,7.08548,0,0,0,1.806-.30409l.00175-.00091a5.09483,5.09483,0,0,1,1.1996-.22183,1.2031,1.2031,0,0,1,1.0174.45518l.01127.01193a1.533,1.533,0,0,1,.29556.68923,3.96665,3.96665,0,0,1,.05088.62981C13.27119,2.2042,12.97045.43877,8.87133.43877,4.77129.43877,4.47238,2.20572,4.48975,4.61468Z" style="fill:#a1afba;fill-rule:evenodd"/></g></svg>