<svg xmlns="http://www.w3.org/2000/svg" viewBox="0 0 16.07382 21.02031"><title>medical-record-icon-uc-santa-barbara</title><g id="ICONS"><path d="M1.31783.482H4.78135V.2203A.22.22,0,0,1,5.00073,0h6.07205a.21961.21961,0,0,1,.21847.2203V.482h3.46352a1.32121,1.32121,0,0,1,1.31905,1.31783V19.70218a1.31686,1.31686,0,0,1-.387.93116h-.00092a1.313,1.313,0,0,1-.93116.387H1.31783A1.32121,1.32121,0,0,1,0,19.70218V1.79986A1.31358,1.31358,0,0,1,.387.86961V.869h0L.38948.86626A1.3153,1.3153,0,0,1,1.31783.482Zm3.1899,3.61283a.21905.21905,0,0,0-.21939.21938V5.431H3.17162a.21963.21963,0,0,0-.21939.21938V7.04191a.21925.21925,0,0,0,.21939.21939H4.28834V8.378a.21961.21961,0,0,0,.21939.21938H5.899A.219.219,0,0,0,6.11837,8.378V7.2613H7.23448a.21964.21964,0,0,0,.2203-.21939V5.65035a.22.22,0,0,0-.2203-.21938H6.11837V4.31424A.21847.21847,0,0,0,5.899,4.09486Zm1.17187.43877H4.72711V5.65035a.21964.21964,0,0,1-.21938.21938H3.39161v.9528H4.50773a.21964.21964,0,0,1,.21938.21938V8.15772H5.6796V7.04191A.21983.21983,0,0,1,5.899,6.82253H7.0151v-.9528H5.899a.21983.21983,0,0,1-.21938-.21938V4.53363Zm6.80882,1.59262H8.283a.21986.21986,0,0,0,0,.43972h4.20547a.21986.21986,0,1,0,0-.43972Zm0,2.91784H3.31848a.21969.21969,0,0,0,0,.43938h9.16994a.21969.21969,0,1,0,0-.43938Zm0,6.01569H3.31848a.22015.22015,0,0,0,0,.44029h9.16994a.22015.22015,0,1,0,0-.44029Zm0-3.09819H3.31848a.21939.21939,0,0,0,0,.43877h9.16994a.21939.21939,0,1,0,0-.43877ZM5.22011.70233V2.90714h5.63238V.44055H5.22011V.70233ZM1.85684,1.94063H4.78135V.9208H1.31783a.87707.87707,0,0,0-.621.25808L.69624,1.1798a.87236.87236,0,0,0-.25656.62006V19.70218a.87855.87855,0,0,0,.87815.87845H14.75477a.87724.87724,0,0,0,.621-.25656l.00091-.00091a.87341.87341,0,0,0,.25656-.621V1.79986A.88168.88168,0,0,0,14.75477.9208H11.29125V1.94063h2.92451a.21983.21983,0,0,1,.21938.21939V19.342a.22044.22044,0,0,1-.21938.2203H1.85684a.22044.22044,0,0,1-.21938-.2203V2.16a.21983.21983,0,0,1,.21938-.21939Zm2.92451.43968H2.07622V19.12264H13.99638V2.38031H11.29125v.74621a.21906.21906,0,0,1-.21847.2203h-6.072a.21944.21944,0,0,1-.21938-.2203Z" style="fill:#a1afba;fill-rule:evenodd"/></g></svg>