<svg xmlns="http://www.w3.org/2000/svg" viewBox="0 0 13.10939 18.53031"><title>medicine-icon-uc-santa-barbara</title><g id="ICONS"><path d="M9.56909,5.27922V6.66378a.83856.83856,0,0,0,.29282.65449L12.67,9.83083a1.32633,1.32633,0,0,1,.32725.44242,1.30775,1.30775,0,0,1,.11212.539V17.207a1.31221,1.31221,0,0,1-.38666.93025h0a1.30941,1.30941,0,0,1-.93116.38606L1.319,18.52939v.00092H1.31813A1.31965,1.31965,0,0,1,.00091,17.21309H0V10.8019a1.29445,1.29445,0,0,1,.44151-.97263L2.09725,8.35578l.01706-.01463,1.13927-1.014A.87053.87053,0,0,0,3.47578,7.03a.88432.88432,0,0,0,.07336-.36381l-.007-1.387H3.02049a.76206.76206,0,0,1-.54328-.22639L2.4635,5.03912a.76706.76706,0,0,1-.21261-.52865V.76876A.76958.76958,0,0,1,2.47721.22639V.22548A.76879.76879,0,0,1,3.02049,0h7.06872a.76561.76561,0,0,1,.54237.22548V.22639l.00091-.00091A.76987.76987,0,0,1,10.858.76876V4.51047a.77141.77141,0,0,1-.76876.76875ZM8.499,4.83954V.43968H6.77408V4.83954ZM8.93867.43968V4.83954h1.15054a.3319.3319,0,0,0,.32908-.32907V.76876a.32855.32855,0,0,0-.0969-.23218h0a.3222.3222,0,0,0-.23218-.0969ZM6.33531,4.83954V.43968H4.6098V4.83954Zm-2.16428,0V.43968H3.02049a.33083.33083,0,0,0-.33.32908V4.51047a.32949.32949,0,0,0,.08806.22365l.00883.00792a.32559.32559,0,0,0,.2331.0975H4.171ZM6.858,13.33518v.43937H11.44v-.43937ZM3.01531,15.04877h.734v-.907a.22026.22026,0,0,1,.2203-.22034h.90709v-.7349H3.96963a.21944.21944,0,0,1-.2203-.21938v-.90679h-.734v.90679a.21905.21905,0,0,1-.21939.21938H1.8883v.7349h.90762a.21987.21987,0,0,1,.21939.22034v.90705Zm.95432.43941a.21977.21977,0,0,0,.21938-.22v-.907H5.0961a.21986.21986,0,0,0,.22007-.21938V12.9671a.21982.21982,0,0,0-.22007-.21938H4.189v-.90679a.21963.21963,0,0,0-.21938-.21938H2.79592a.21982.21982,0,0,0-.22029.21938v.90679H1.66891a.219.219,0,0,0-.21938.21938v1.17462a.21907.21907,0,0,0,.21938.21938h.90672v.90705a.22.22,0,0,0,.22029.22Zm-3.52995.68588H12.67V11.02647H.43968v5.14759ZM12.67,16.61283H.43968v.60026H.43793a.88208.88208,0,0,0,.8802.87845H1.319l10.47253-.00518a.88216.88216,0,0,0,.62105-.259V17.828a.88056.88056,0,0,0,.2574-.621v-.59416ZM.46558,10.5877H12.64419a.84462.84462,0,0,0-.04669-.13559.8886.8886,0,0,0-.21938-.29556l-1.593-1.42508H2.33552l-1.602,1.42508a.82808.82808,0,0,0-.26791.43115Zm2.36325-2.295H10.294L9.57,7.64491a1.28545,1.28545,0,0,1-.43968-.98113V5.27922H3.98l.00609,1.38547a1.281,1.281,0,0,1-.4406.99058Z" style="fill:#a1afba;fill-rule:evenodd"/></g></svg>