<svg xmlns="http://www.w3.org/2000/svg" viewBox="0 0 18.31854 18.31854"><title>oculist-icon-UC-Santa-Barbara</title><g id="ICONS"><path d="M8.09465,13.38088a.21982.21982,0,0,1,.21146-.38544,1.46546,1.46546,0,0,1,.553.53657,1.45349,1.45349,0,0,1-.224,1.7697l-.0128.01219a1.45409,1.45409,0,0,1-2.04545-.01219v-.00092l-.00061.00092a1.45705,1.45705,0,0,1-.22395-1.7697,1.46925,1.46925,0,0,1,.55364-.53657.21967.21967,0,0,1,.21085.38544,1.01231,1.01231,0,0,0-.52774.89125,1.01226,1.01226,0,0,0,.298.71848H6.88621a1.01785,1.01785,0,0,0,1.42874.01032l.01036-.01032a1.01546,1.01546,0,0,0-.23066-1.60973Zm7.11687-8.66565a2.64852,2.64852,0,0,1-.37143,1.35591,2.68383,2.68383,0,0,1-1.01374.983A.21955.21955,0,0,1,13.529,6.967a.21285.21285,0,0,1-.02743-.10543h0V5.86821a.22157.22157,0,0,1,.07344-.16515,1.43122,1.43122,0,0,0,.2919-.44821l.0067-.01706a1.4308,1.4308,0,0,0-.31871-1.53234l-.00153-.00183a1.42909,1.42909,0,0,0-2.33217,1.55123l.0061.01462a1.42963,1.42963,0,0,0,.29616.44487.21887.21887,0,0,1,.06216.15387h.00092v.99332a.21963.21963,0,0,1-.21939.21938.222.222,0,0,1-.11822-.03382,2.68688,2.68688,0,0,1-1.00185-.976,2.66739,2.66739,0,1,1,4.96447-1.35591ZM14.46378,5.8484a2.23046,2.23046,0,1,0-3.316.60266V5.95292a1.8444,1.8444,0,0,1-.32481-.51495l-.00853-.01889a1.86722,1.86722,0,0,1,3.04882-2.02534v.00061h0l.00092.00092a1.86277,1.86277,0,0,1,.41561,2.00553l-.0061.01828a1.87078,1.87078,0,0,1-.33334.53384v.49814a2.25052,2.25052,0,0,0,.52347-.60266ZM5.77467,2.047A2.66464,2.66464,0,0,1,8.11354,3.43244a.21918.21918,0,0,1-.08623.29708.21327.21327,0,0,1-.10634.02773H6.92765a.21854.21854,0,0,1-.16393-.07343,1.443,1.443,0,0,0-.44913-.29195L6.29814,3.384a1.45353,1.45353,0,0,0-.52347-.0975,1.42416,1.42416,0,0,0-1.00978.41713L4.764,3.70545A1.42813,1.42813,0,0,0,5.77467,6.14274a1.43382,1.43382,0,0,0,.53992-.10542l.01463-.00579A1.41073,1.41073,0,0,0,6.77408,5.735a.2193.2193,0,0,1,.15357-.063H7.921a.22062.22062,0,0,1,.2203.21939.22633.22633,0,0,1-.03443.11852A2.66748,2.66748,0,1,1,5.77467,2.047Zm1.13317.749a2.228,2.228,0,1,0,0,3.83739,2.23615,2.23615,0,0,0,.603-.52165H7.01327a1.86666,1.86666,0,0,1-.51555.323.07634.07634,0,0,1-.0192.00975A1.86739,1.86739,0,0,1,4.45318,3.39527H4.4541L4.455,3.39435h0a1.86474,1.86474,0,0,1,2.00645-.4153l.01706.00609a1.87341,1.87341,0,0,1,.53475.33243h.49757a2.24069,2.24069,0,0,0-.603-.52165ZM1.31783,0A1.3087,1.3087,0,0,0,.39032.38544L.38758.387V.38788H.38666A1.31769,1.31769,0,0,0,0,1.31813V17.00071a1.31912,1.31912,0,0,0,1.31783,1.31783H17.00041a1.3121,1.3121,0,0,0,.93025-.38606l.00152-.00152a1.31234,1.31234,0,0,0,.38636-.93025V1.31813A1.32016,1.32016,0,0,0,17.00041,0ZM17.00041.43968H1.31783A.87155.87155,0,0,0,.69776.69715L.69685.69807a.87324.87324,0,0,0-.25747.62006V17.00071a.8801.8801,0,0,0,.87845.87815H17.00041a.87663.87663,0,0,0,.621-.25625l.00091-.00092a.87994.87994,0,0,0,.25656-.621V1.31813a.88064.88064,0,0,0-.87845-.87845Zm-2.224,8.41946a.21907.21907,0,1,1,.21054-.38423A1.91763,1.91763,0,0,1,15.71,9.1745a1.89969,1.89969,0,0,1-.29373,2.30871v.00092h0l-.00092.00091a1.89677,1.89677,0,0,1-2.6844-.00091H12.73v-.00092l-.00061-.00091a1.8995,1.8995,0,0,1,.43085-3.00739.21914.21914,0,1,1,.21085.38423,1.46085,1.46085,0,0,0-.7584,1.28183,1.44986,1.44986,0,0,0,.4275,1.03206l.00091.00183a1.46314,1.46314,0,0,0,2.06526,0L15.107,11.173a1.46142,1.46142,0,0,0-.3306-2.31389ZM3.796,11.62916a.2191.2191,0,0,1-.21177.38362,1.89753,1.89753,0,0,1-.429-3.00769V9.00357h.00153a1.89926,1.89926,0,1,1,2.25508,3.00921.219.219,0,1,1-.21146-.38362,1.47347,1.47347,0,0,0,.55607-.539A1.46156,1.46156,0,0,0,3.465,9.31345v.00091a1.46263,1.46263,0,0,0,.33091,2.3148ZM7.80518,9.54167A.21914.21914,0,1,1,7.421,9.33082a1.90425,1.90425,0,0,1,.7005-.72214,1.89919,1.89919,0,1,1,0,3.27186,1.92012,1.92012,0,0,1-.7005-.72305.21907.21907,0,1,1,.38422-.21055,1.46008,1.46008,0,1,0,0-1.40527ZM11.90705,14.837a.21907.21907,0,1,1,.38423.21055,1.453,1.453,0,0,1-2.30506.32907L9.974,15.36387a1.45224,1.45224,0,0,1,.01218-2.04454h.00092l-.00092-.00061a1.45349,1.45349,0,0,1,1.7697-.224,1.46856,1.46856,0,0,1,.53536.553.21929.21929,0,0,1-.38423.21146,1.01711,1.01711,0,0,0-1.611-.22974V13.6286a1.02019,1.02019,0,0,0-.01036,1.42874l.01036.00945a1.01346,1.01346,0,0,0,.7197.29708,1.00288,1.00288,0,0,0,.51647-.13986,1.02674,1.02674,0,0,0,.37478-.387Zm1.958.47838a.21969.21969,0,0,1-.21146.38514,1.45582,1.45582,0,1,1,1.72917-2.306l.0128.01372a1.455,1.455,0,0,1,.21176,1.756,1.46625,1.46625,0,0,1-.55364.53627.21954.21954,0,0,1-.21085-.38514,1.01243,1.01243,0,0,0,.52774-.89125,1.01055,1.01055,0,0,0-.28764-.70842l-.01036-.01036a1.01666,1.01666,0,1,0-1.20752,1.61ZM3.33646,13.85926a.21942.21942,0,0,1-.38453-.21146,1.45381,1.45381,0,0,1,2.30444-.32908l.00092.00061a1.45356,1.45356,0,0,1,0,2.05733H5.25637a1.454,1.454,0,0,1-2.30444-.32907.2192.2192,0,1,1,.38453-.21055,1.02681,1.02681,0,0,0,.37478.387,1.003,1.003,0,0,0,.51738.13986,1.01632,1.01632,0,1,0-.89216-1.50461Z" style="fill:#a1afba;fill-rule:evenodd"/></g></svg>