<svg xmlns="http://www.w3.org/2000/svg" viewBox="0 0 10.05813 20.29634"><title>pill-Icon-UC-Santa-Barbara</title><g id="ICONS"><path d="M9.6736,15.65211a4.60262,4.60262,0,0,1-.35307,1.7724,4.65965,4.65965,0,0,1-1.01076,1.508v.00091a4.66087,4.66087,0,0,1-1.508,1.00978,4.60176,4.60176,0,0,1-1.77244.35314l-.01889-.00091a4.60037,4.60037,0,0,1-1.75263-.35223,4.65093,4.65093,0,0,1-1.508-1.00978H1.749A4.65624,4.65624,0,0,1,.73859,17.42451a4.5936,4.5936,0,0,1-.35345-1.7724H.38605l.00183-4.90079H.22274a.21963.21963,0,0,1-.21939-.21846V5.06807A.33123.33123,0,0,1,0,5.02846,5.01316,5.01316,0,0,1,1.47688,1.47779L1.47779,1.476A5.05281,5.05281,0,0,1,3.11037.3824,4.9907,4.9907,0,0,1,5.02937,0h0A4.99079,4.99079,0,0,1,6.94776.3824,5.0595,5.0595,0,0,1,8.56907,1.46469l.01279.01127A5.06149,5.06149,0,0,1,9.67543,3.11007a4.989,4.989,0,0,1,.3827,1.91839v5.5044a.219.219,0,0,1-.21938.21846H9.6736v4.90079ZM.60727,10.31256h9.0121V5.02846a4.54127,4.54127,0,0,0-.34919-1.74989,4.62509,4.62509,0,0,0-.99911-1.49242L8.2598,1.77579A4.61245,4.61245,0,0,0,6.77933.78673a4.55774,4.55774,0,0,0-1.75-.348h0a4.54687,4.54687,0,0,0-1.7508.34888A4.62388,4.62388,0,0,0,.78765,3.27857a4.54167,4.54167,0,0,0-.348,1.717.185.185,0,0,1,.00244.03291l-.00054.0198v5.2643ZM8.91612,17.256a4.17925,4.17925,0,0,0,.31871-1.60394V10.75132H.82574L.82391,15.65211H.82482A4.16921,4.16921,0,0,0,1.14354,17.256a4.2162,4.2162,0,0,0,.91653,1.36719H2.05916a4.23722,4.23722,0,0,0,1.36627.91562,4.187,4.187,0,0,0,1.58414.31963l.0198-.00091a4.171,4.171,0,0,0,1.603-.31872A4.24271,4.24271,0,0,0,8.91612,17.256Z" style="fill:#a1afba;fill-rule:evenodd"/></g></svg>