<svg xmlns="http://www.w3.org/2000/svg" viewBox="0 0 16.88036 16.88036"><title>plus-icon-uc-santa-barbara</title><g id="ICONS"><path d="M.2203,5.40507H5.40507V.22A.22054.22054,0,0,1,5.62536,0H11.255a.22.22,0,0,1,.2203.22V5.40507h5.18507a.22.22,0,0,1,.22.22029V11.255a.21993.21993,0,0,1-.22.22026H11.47529V16.661a.21984.21984,0,0,1-.2203.21939H5.62536a.22042.22042,0,0,1-.22029-.21939V11.47525H.2203A.22.22,0,0,1,0,11.255V5.62536a.22.22,0,0,1,.2203-.22029Zm5.40506.43968H.43877v5.19086H5.62536a.21961.21961,0,0,1,.21939.21938v5.18569h5.19086V11.255a.2198.2198,0,0,1,.21938-.21938h5.186V5.84475H11.255a.22.22,0,0,1-.21938-.21939V.43938H5.84475v5.186A.21984.21984,0,0,1,5.62536,5.84475Z" style="fill:#a1afba;fill-rule:evenodd"/></g></svg>