<svg xmlns="http://www.w3.org/2000/svg" viewBox="0 0 17.39115 17.59214"><title>star-of-life-icon-uc-santa-barbara</title><g id="ICONS"><path d="M6.59722,0h4.19754a.21984.21984,0,0,1,.21939.2203V4.78039l3.9489-2.27915a.219.219,0,0,1,.29983.07957l.0067.01184,2.093,3.62414a.21946.21946,0,0,1-.08044.298h0L13.33078,8.79607l3.95043,2.281a.21793.21793,0,0,1,.08044.298l-2.09877,3.63538a.21892.21892,0,0,1-.29891.081l-3.94982-2.28094v4.56136a.21984.21984,0,0,1-.21939.2203H6.59722a.21925.21925,0,0,1-.21938-.2203V12.81048L2.4271,15.09086a.21769.21769,0,0,1-.298-.07953H2.12819L.02942,11.376A.21873.21873,0,0,1,.109,11.07705l3.95134-2.281L.11078,6.51478a.21815.21815,0,0,1-.08136-.298l.00092-.00061H.02942L2.12819,2.58081A.21925.21925,0,0,1,2.428,2.50124L6.37784,4.78039V.2203A.21925.21925,0,0,1,6.59722,0Zm3.97816.43968H6.81661v4.721h0a.2342.2342,0,0,1-.02956.1106.22031.22031,0,0,1-.30043.07922L2.39877,2.99.51847,6.24634,4.596,8.59984a.22.22,0,0,1,.01218.38606L.51847,11.3464l1.8803,3.25633,4.07139-2.35111a.22039.22039,0,0,1,.34645.17978v4.72105h3.75877V12.4314h.00091a.22245.22245,0,0,1,.02865-.10874.21876.21876,0,0,1,.2986-.08044l4.08968,2.36051,1.87969-3.25633L12.79512,8.992a.21885.21885,0,0,1-.01128-.38514l4.08907-2.36142L14.99413,2.9891,10.91664,5.34382a.21915.21915,0,0,1-.34126-.18312Z" style="fill:#a1afba;fill-rule:evenodd"/></g></svg>