<svg xmlns="http://www.w3.org/2000/svg" viewBox="0 0 21.19825 23.97437"><title>stethoscope-icon-UC-Santa-Barbara</title><g id="ICONS"><path d="M18.63817,17.17957a3.45624,3.45624,0,1,1-1.79217,0V6.06078a4.2797,4.2797,0,0,0-8.55939,0H8.2857V6.1013a7.39739,7.39739,0,0,1,6.502,7.34083h0a.219.219,0,0,1-.21938.21938h-.25473l.00183.20476c.00091.17794.0016.37752.0016.55272a11.8978,11.8978,0,0,1-.54763,4.33314,5.20576,5.20576,0,0,1-2.59543,2.69506l.08806.21482a.21992.21992,0,0,1-.11914.28611l-1.33367.54663-.00061.00088a1.321,1.321,0,0,1-1.7182-.71174l-.00243-.007a1.31924,1.31924,0,0,1,.71848-1.72033L10.141,19.509a.218.218,0,0,1,.28581.11822l.06734.16393a3.82291,3.82291,0,0,0,1.67828-1.97445,10.15223,10.15223,0,0,0,.411-3.39866c.00092-.16663.00092-.35494,0-.52679l-.00152-.22974h-.26021a.21911.21911,0,0,1-.21992-.21938h0a4.7078,4.7078,0,0,0-9.4156,0h0a.219.219,0,0,1-.21938.21938h-.2462l-.00152.22274V14.418a10.17011,10.17011,0,0,0,.411,3.39866,3.826,3.826,0,0,0,1.67889,1.97445l.06734-.16393a.21812.21812,0,0,1,.28611-.11822l1.33428.54755A1.31983,1.31983,0,0,1,6.7232,21.758a.22876.22876,0,0,1-.01554.03626,1.32067,1.32067,0,0,1-1.71363.70138l-1.33337-.54751a.21854.21854,0,0,1-.11944-.28611l.08806-.21482a5.20222,5.20222,0,0,1-2.59543-2.69506A11.87156,11.87156,0,0,1,.4863,14.419c0-.17611,0-.3766.00183-.5555l.00183-.202H.21938A.219.219,0,0,1,0,13.44213H0A7.3958,7.3958,0,0,1,6.50381,6.1013V6.06078a6.06218,6.06218,0,0,1,12.124-.06551.23386.23386,0,0,1,.01036.06551V17.17957Zm-8.44871,3.02384-.00792-.02072-.07679-.18587-1.13165.46467a.88437.88437,0,0,0-.486,1.135.12543.12543,0,0,1,.011.02769.88426.88426,0,0,0,1.14354.46619h0l1.13257-.46463-.58472-1.42234Zm3.68717-6.5419h-.85682l.00092.22883c.00061.17276.00152.362,0,.52957a10.47009,10.47009,0,0,1-.43877,3.54975,4.264,4.264,0,0,1-1.91831,2.23375l.34271.83671a4.76084,4.76084,0,0,0,2.35533-2.4504,11.49479,11.49479,0,0,0,.51738-4.17073c0-.17463,0-.37325-.00153-.5512l-.00091-.20628Zm-9.255,6.52118a.08733.08733,0,0,1-.00853.02072l-.5838,1.42234,1.13142.46463A.88429.88429,0,0,0,6.30949,21.612l.00084-.00179a.88516.88516,0,0,0-.48021-1.14872l-1.13135-.46467-.07709.18587ZM7.48677,6.48827H7.47649L7.4109,6.48736H7.37708l-.0649.00091H7.30182A6.95371,6.95371,0,0,0,.443,13.22274H2.25089a5.1472,5.1472,0,0,1,10.28506,0h1.8087A6.95359,6.95359,0,0,0,7.48677,6.48827Zm.02682-.43876c.1122.00091.22365.00518.33425.01218V6.06078H7.84693a4.71934,4.71934,0,0,1,9.43868,0V18.67961a1.88931,1.88931,0,0,1,.29038-.04814h0l.02742-.00183h.00274l.00244-.00092h.00366l.01279-.00091h0l.0061-.00092h.00609l.01188-.0006h.0061l.007-.00092h.04235l.007-.00091h.06124l.00671.00091h.04235l.007.00092H17.835l.01219.0006H17.853l.00609.00092h0l.01036.00091h.0061l.00274.00092h.00244l.02772.00183h0a1.89948,1.89948,0,0,1,.29008.04814V6.12659a.2305.2305,0,0,1-.00945-.06581,5.62278,5.62278,0,0,0-11.24555,0v.00091c.11152-.007.22365-.01127.337-.01218h.00518l.00518-.00092h.0259l.00579-.00065h.14351l.00518.00065h.02682l.00518.00092h.01036ZM17.78143,19.06414h-.02415l-.00518-.00092h-.0198l-.00457.00092h-.03961l-.00244.00091h-.01219l-.00427.00061h-.01493l-.00426.00092h-.01128l-.00335.00091a1.4319,1.4319,0,0,0-.47746.11822H17.157l-.00182.00183h-.00244l-.00183.00092a1.429,1.429,0,0,0-.43694.30134,1.4535,1.4535,0,1,0,2.0555,0,1.42461,1.42461,0,0,0-.43351-.29952l-.0019-.00091-.00152-.00091-.00092-.00092H18.328l-.0006-.00183h-.00183l-.00092-.00061-.00183-.00091a1.43758,1.43758,0,0,0-.44547-.114l-.00426-.00091h-.00092l-.00883-.00092h-.00518l-.00335-.00091h-.0061l-.00426-.00091H17.835l-.00518-.00092h-.01462l-.00427-.00061h-.01219l-.00274-.00091h-.01455Zm.85674-.2142a1.89314,1.89314,0,1,1-2.23436.32907,1.85326,1.85326,0,0,1,.44219-.32907V17.63449a3.01436,3.01436,0,1,0,1.79217,0v1.21545ZM1.78188,13.88364l.00183-.22213H.9269l-.00183.20384c-.00092.17886-.00092.37844-.00092.55364a11.53362,11.53362,0,0,0,.51647,4.17073,4.76993,4.76993,0,0,0,2.35563,2.4504L4.14,20.20341a4.271,4.271,0,0,1-1.91938-2.23375,10.51048,10.51048,0,0,1-.43877-3.54975C1.781,14.24958,1.781,14.05792,1.78188,13.88364Z" style="fill:#a1afba;fill-rule:evenodd"/></g></svg>