<svg xmlns="http://www.w3.org/2000/svg" viewBox="0 0 9.23727 24.3973"><title>syringe-icon-UC-Santa-Barbara</title><g id="ICONS"><path d="M1.63136,0h6.002a.22042.22042,0,0,1,.2203.21938V1.32057a.22042.22042,0,0,1-.2203.21938H5.924V4.139H9.01789a.21959.21959,0,0,1,.21938.21938V5.55985a.21922.21922,0,0,1-.21938.21939H7.85363v8.517a1.31469,1.31469,0,0,1-.387.93025l-.00091.00183a1.31527,1.31527,0,0,1-.71086.36685v.93025a.22.22,0,0,1-.22.2203H5.52847v.773a.21847.21847,0,0,1-.21938.21939H4.87824v6.43982a.21984.21984,0,0,1-.43968,0V17.73809H4.00832A.21944.21944,0,0,1,3.788,17.5187v-.773H2.78191a.21926.21926,0,0,1-.21939-.2203v-.9275A1.3188,1.3188,0,0,1,1.44831,14.2962v-8.517H.22A.22.22,0,0,1,0,5.55985V4.35842A.22035.22035,0,0,1,.22,4.139H3.34164V1.54H1.63136A.21964.21964,0,0,1,1.412,1.32057V.21938A.21964.21964,0,0,1,1.63136,0ZM7.414,7.31919H6.19028a.21939.21939,0,1,1,0-.43877H7.414V5.77924h-5.526v8.517a.87906.87906,0,0,0,.87936.87845H6.53489a.87678.87678,0,0,0,.621-.25747h.00061a.87747.87747,0,0,0,.25747-.621v-.35071H6.19028a.21984.21984,0,0,1,0-.43968H7.414v-1.217H5.49922a.21969.21969,0,0,1,0-.43938H7.414v-1.217H6.19028a.21984.21984,0,0,1,0-.43968H7.414v-1.217H5.49922a.21984.21984,0,0,1,0-.43968H7.414v-1.217ZM5.0897,16.74568H4.22679v.55364H5.0897v-.55364Zm1.22581-1.13135H3.00129V16.306H6.31551v-.69167ZM5.704,4.57872H.44029v.76175H8.79766V4.57872ZM5.48459,1.54H3.78132V4.139H5.48459V1.54ZM7.414.43968H1.85166v.66059H7.414Z" style="fill:#a1afba;fill-rule:evenodd"/></g></svg>