<svg xmlns="http://www.w3.org/2000/svg" viewBox="0 0 13.60971 18.83257"><title>tooth-icon-UC-Santa-Barbara</title><g id="ICONS"><path d="M.43968,1.31813V4.53972A35.27383,35.27383,0,0,0,.62006,8.22537a35.2859,35.2859,0,0,0,.57954,3.64481L2.42182,17.696a.86865.86865,0,0,0,.8604.69681h.26936a.87672.87672,0,0,0,.876-.80224L5.026,10.60385A1.31763,1.31763,0,0,1,6.33958,9.39724h.93116a1.31734,1.31734,0,0,1,1.313,1.20661l.59942,6.98676a.876.876,0,0,0,.875.80224h.26936a.86881.86881,0,0,0,.86108-.69681l1.22215-5.82586a35.45164,35.45164,0,0,0,.57954-3.64481,35.18725,35.18725,0,0,0,.18068-3.68565V1.31813a.88206.88206,0,0,0-.87936-.87936H1.319a.87369.87369,0,0,0-.621.25747L.69723.69715a.87506.87506,0,0,0-.25755.621ZM0,4.53972V1.31813A1.31627,1.31627,0,0,1,.38453.38971L.38788.387h0V.38605A1.31632,1.31632,0,0,1,1.319,0H12.29158a1.31963,1.31963,0,0,1,1.31813,1.31813V4.53972a35.86565,35.86565,0,0,1-.18312,3.73044,35.74183,35.74183,0,0,1-.58746,3.689L11.617,17.7841a1.30947,1.30947,0,0,1-1.28949,1.04847h-.26936a1.3159,1.3159,0,0,1-1.312-1.2057l-.59935-6.98676a.87672.87672,0,0,0-.876-.80323H6.33958a.87616.87616,0,0,0-.87571.80323l-.59934,6.98676a1.31649,1.31649,0,0,1-1.313,1.2057H3.28222A1.3114,1.3114,0,0,1,1.99274,17.7841L.77059,11.95915A35.73012,35.73012,0,0,1,.184,8.27016,35.86056,35.86056,0,0,1,0,4.53972Z" style="fill:#a1afba;fill-rule:evenodd"/></g></svg>