<svg xmlns="http://www.w3.org/2000/svg" viewBox="0 0 24.81199 15.47352"><title>bicycle-icon-uc-santa-barbara</title><g id="ICONS"><path d="M17.62413,0a1.04437,1.04437,0,0,1,.741.30744l.0128.01371a1.04826,1.04826,0,0,1-.28581,1.66458L19.3143,6.51326a4.54374,4.54374,0,1,1-.42414.11483l-.57345-2.12737-4.23136,5.7707a1.94169,1.94169,0,0,1,.114.42136,1.99016,1.99016,0,0,1,.02529.29286v.04479a1.97728,1.97728,0,0,1-.58137,1.3873l-.0131.01184a1.97348,1.97348,0,0,1-1.3483.56861h-.08806c-.02681-.00091-.05332-.00274-.08013-.00366h-.0061l-.00091-.00091h-.0061l-.04143-.00244-.30044-.02255-.15722.515h.71848a.21969.21969,0,0,1,0,.43937H10.29123a.21969.21969,0,0,1,0-.43937h.85231l.16758-.54846-2.61865-.19532A4.532,4.532,0,1,1,6.92186,7.09188L8.51178,4.88521l-.62951-.996H5.8679a.21988.21988,0,0,1-.21938-.21939V2.91506a.21988.21988,0,0,1,.21938-.21938h4.5708a.21989.21989,0,0,1,.22037.21938V3.6698a.2199.2199,0,0,1-.22037.21939H8.40057l.4802.75931,9.24953-.83945-.46314-1.71363-.043.00091a1.04733,1.04733,0,0,1-.741-1.78889h0A1.04168,1.04168,0,0,1,17.62413,0ZM10.88631,12.46343c-.01554-.01462-.03108-.03108-.04662-.0457a1.98173,1.98173,0,0,1,0-2.80446c.02133-.02255.04387-.04327.06734-.064l-2.01772.14748a4.55247,4.55247,0,0,1-.03711,2.61463l2.03411.152ZM13.333,9.92315a1.54869,1.54869,0,0,0-.53962-.35071l-.89825,2.948a1.57951,1.57951,0,0,0,.34614.039h.01218a1.55472,1.55472,0,0,0,1.53142-1.53507V10.996a1.54544,1.54544,0,0,0-.1365-.61763.2048.2048,0,0,1-.032-.06551,1.55087,1.55087,0,0,0-.28337-.38971Zm-.968-.44638c-.04083-.00366-.08227-.00518-.1237-.00518a1.54388,1.54388,0,0,0-1.09168,2.635,1.5605,1.5605,0,0,0,.336.25477L12.365,9.47677Zm-6.80089.46375c.0198.01794.03961.03717.05942.05606V9.9975l.00091-.00092a1.42855,1.42855,0,0,1,0,2.01955l-.00091.00061c-.01737.01737-.03444.03382-.05272.05024l1.70693.12679A3.02852,3.02852,0,0,0,7.33016,9.811l-1.766.1295Zm-.95371,2.49427a1.41847,1.41847,0,0,1-.98022-.39276.74534.74534,0,0,1-.05454-.0521,1.33143,1.33143,0,0,1-.38782-.90922v-.00183l-.00067-.01646v-.00095l-.00092-.01794h0l-.00091-.01919v-.03779a1.33554,1.33554,0,0,1,.47783-1.04512,1.42194,1.42194,0,0,1,.75651-.34979l.05271-.00975.0259-.00335L5.165,9.53009l.869-1.20661A3.01765,3.01765,0,1,0,7.04252,12.617l-2.43211-.18221Zm.70325-2.128a.98348.98348,0,0,0-.69983-.28855,1.05247,1.05247,0,0,0-.12865.00762,1.27965,1.27965,0,0,0-.50184.21938c-.02316.02011-.04662.04083-.06826.06246a.981.981,0,0,0-.29007.68466v.03992l.00092.01219h0a.98859.98859,0,0,0,.2788.65205l.01035.00945a.3411.3411,0,0,0,.032.03108,1.24723,1.24723,0,0,0,.67034.259.98873.98873,0,0,0,.69624-1.68834v-.00091Zm8.53951-.4604,4.09211-5.58149-8.80216.79984,2.5223,3.98878.27034-.02068a2.06,2.06,0,0,1,.2961-.02163,1.87585,1.87585,0,0,1,.26935.01793l.1356-.44543h-.71849a.21939.21939,0,1,1,0-.43877h2.029a.21939.21939,0,0,1,0,.43877h-.85255l-.16941.55273a2.02616,2.02616,0,0,1,.59873.35223l.00092.00091.0006-.00091a2.00932,2.00932,0,0,1,.32756.35772Zm-2.6838-.75657L8.76316,5.2841,7.282,7.34082a4.3789,4.3789,0,0,1,.45339.39733A4.52193,4.52193,0,0,1,8.74335,9.26774l2.426-.17794ZM8.22506,12.70536l-.68916-.0521A3.45722,3.45722,0,1,1,6.29113,7.96607l.37333-.51738a4.09159,4.09159,0,1,0,1.5606,5.25667ZM5.73414,9.48865l1.38364-.10177a2.97157,2.97157,0,0,0-.45248-.57862,3.073,3.073,0,0,0-.26874-.2395l-.66242.91989Zm1.86751-.13712.67948-.05027A4.0752,4.0752,0,0,0,7.02454,7.69732l-.37142.51494a3.52252,3.52252,0,0,1,.323.2849,3.47285,3.47285,0,0,1,.62555.85437Zm.83944.37814-.65388.04753a3.47511,3.47511,0,0,1-.04571,2.45127l.65907.0491a4.1197,4.1197,0,0,0,.04052-2.5479Zm11.8388-1.805a2.99918,2.99918,0,0,0-.57009.05362l.90861,3.3709a.21907.21907,0,1,1-.42323.11334L19.286,8.09221a3.02317,3.02317,0,1,0,.99393-.16758Zm-2.4443.57253a3.4671,3.4671,0,0,1,1.3355-.83092l-.16606-.614a4.06723,4.06723,0,1,0,.42414-.114l.16576.614a3.51693,3.51693,0,0,1,.685-.06733,3.45747,3.45747,0,1,1-2.4443,1.01221ZM6.0882,3.45042h4.1321V3.13536H6.0882v.31506ZM18.05413.61763a.6087.6087,0,0,0-.86024,0h-.00183a.60867.60867,0,1,0,.87175.00944Z" style="fill:#a1afba;fill-rule:evenodd"/></g></svg>