<svg xmlns="http://www.w3.org/2000/svg" viewBox="0 0 17.40832 15.72219"><title>bird-icon-uc-santa-barbara</title><g id="ICONS"><path d="M11.6118,4.10979a.73538.73538,0,0,0-.11061-.09172.72311.72311,0,0,0-.12523-.06734.80147.80147,0,0,0-.13651-.04052.73064.73064,0,0,0-.28489,0,.80174.80174,0,0,0-.13651.04052.73424.73424,0,0,0-.12523.06734.75625.75625,0,0,0-.11152.09172h0a.76765.76765,0,0,0-.09049.1103h.00091a.70323.70323,0,0,0-.06825.12523.75652.75652,0,0,0-.04083.13651.70491.70491,0,0,0-.01371.1426.714.714,0,0,0,.01371.14351.72566.72566,0,0,0,.04083.13559.69528.69528,0,0,0,.06734.12523A.82771.82771,0,0,0,10.5813,5.14a.76714.76714,0,0,0,.11152.09171.7429.7429,0,0,0,.26083.10787.78342.78342,0,0,0,.14351.0131.7652.7652,0,0,0,.14229-.0131.80222.80222,0,0,0,.13651-.04144.70211.70211,0,0,0,.12523-.06643.76264.76264,0,0,0,.20232-.20293.7146.7146,0,0,0,.06734-.12523h0a.79435.79435,0,0,0,.04052-.135.76065.76065,0,0,0,0-.28764.75938.75938,0,0,0-.04052-.13468h0a.71936.71936,0,0,0-.06734-.12614.73982.73982,0,0,0-.09171-.1103ZM15.717,7.61627,16.89072,5.583,14.95191,4.46385c.03443.07343.06887.14778.10269.22273v.00183l.00244.00518.00274.0061.00183.00579L15.064,4.711l.00092.00061.00243.007.00275.00518.00243.007.00092.00152.00426.01036.00275.00609.01127.025.00091.00365.00153.00153.00274.007.00244.00609.00274.00609V4.799l.00244.00518.00274.0067.00244.0061.00183.00426.00091.00183.00244.00609.00274.007.00244.00584v.00183l.00091.00091.00518.00945A7.83263,7.83263,0,0,1,15.57106,6.325l.00427.02011.00091.00336.00275.01645.0006.00695.00275.01286.00243.01035.00183.00945.00275.014.0006.00579.00366.01828v.00091l.00335.01975.00092.0028.00335.01706.00091.0061.00183.01365.00244.00981.00091.01036.00274.0128.00061.007.00275.01707.00091.00274.00335.01981v.00091l.00274.01889.00153.00457.00183.01554L15.6256,6.63l.00153.01219.00183.01127.00091.00853.00244.01554.00091.00427.00335.01914v.00066l.00183.02067.00092.00279.00243.01737.00092.00579.00183.014.00182.01036.00153.00944.00183.01371.00091.0061.00244.01737v.00335l.00274.0198v.00092l.00244.01914v.00523l.00274.01463.00091.00945.00153.01127.00183.01219.00091.00761.00183.01646v.00335l.00244.02072h0l.00182.01981.00092.00365.00152.01646.00092.00761.00091.013.00183.01133.00061.00853.00183.01463v.00609l.00182.018v.00183L15.685,7.105v.00183l.00183.018.00091.00609.00092.01463.00061.00884.00182.01127.00092.0128.00091.00792.00092.01615.00061.00366.00182.0198v.00091l.00092.01981.00091.00427.00092.01645.00061.00792.00091.0128.00091.01127v.00853l.00183.01554v.00513l.00153.01925v.00152l.00091.02011.00091.00244v.01828l.00092.00579.00091.01488.00092.01041.00061.01036v.01981l.00182.018v.00274l.00092.02072v.00091l.00091.01981v.00426l.00092.01554v.00945l.00061.01122.00091.01315v.00762l.00091.01646v.025Zm1.66275-2.0037L15.69294,8.53372a7.83243,7.83243,0,0,1-2.27427,4.88434v.0006h0l-.00092.00086A7.90778,7.90778,0,0,1,10.868,15.1262H10.8665a7.73376,7.73376,0,0,1-1.45555.44334,7.99644,7.99644,0,0,1-1.49943.15113l-.02224.00152H.248a.21977.21977,0,0,1-.21939-.22V8.53189c-.00975-.09933-.01645-.21-.02072-.33C.00183,8.0785,0,7.96454,0,7.86064A7.96824,7.96824,0,0,1,.1493,6.32587,7.84669,7.84669,0,0,1,.596,4.85417v.00091a7.75355,7.75355,0,0,1,.72549-1.35774A7.91027,7.91027,0,0,1,2.3017,2.30353l.00091-.00061A7.9159,7.9159,0,0,1,4.85417.59508V.596L4.85508.59508A7.77708,7.77708,0,0,1,6.32678.15052a7.8843,7.8843,0,0,1,4.52936.44029L10.868.59508a7.87916,7.87916,0,0,1,2.53784,1.69565l.0128.01219a7.9006,7.9006,0,0,1,.98021,1.19351c.05028.0752.09934.15113.14595.22791l2.75358,1.58932a.22032.22032,0,0,1,.08135.29891Zm-2.73285-.76084.00335.00762.00366.00609.00061.00244.00365.00787.00335.00767.00092.00274.007.01371.00243.007.00092.00183.00274.00853.00427.007.00152.00427.00183.00426.00335.00792.00366.00854.00335.00761.00335.00884.00183.00426.00183.0033.00335.008.00274.00853.00061.00091.00366.007.00335.00767.00183.007.00152.00152.00274.00884a7.27535,7.27535,0,0,1,.41988,1.387,7.43394,7.43394,0,0,1,.14138,1.451V7.942c-.00152.16332-.00945.32481-.02072.48539v.00518l-.00061.00427v.00182l-.00091.00336v.00944a7.46968,7.46968,0,0,1-.11914.862,7.35558,7.35558,0,0,1-1.10484,2.66825,7.47955,7.47955,0,0,1-.926,1.127l-.00153.00158a7.46193,7.46193,0,0,1-1.12647.92507,7.285,7.285,0,0,1-1.28248.68588v.00091a7.35238,7.35238,0,0,1-1.37328.41622,7.505,7.505,0,0,1-1.4193.145l-.011-.00061H.46741V8.524h0L.4665,8.50508C.45705,8.38929.44913,8.28229.44578,8.18454c-.00427-.09659-.0061-.2039-.0061-.3239a7.51025,7.51025,0,0,1,.14077-1.451,7.34273,7.34273,0,0,1,.42049-1.387h0V5.02175A7.42169,7.42169,0,0,1,1.685,3.7408a7.51238,7.51238,0,0,1,.92689-1.128l.00092-.001a7.44812,7.44812,0,0,1,2.40987-1.6115h0a7.37431,7.37431,0,0,1,1.3879-.419,7.49246,7.49246,0,0,1,2.90044,0,7.2945,7.2945,0,0,1,1.37755.41469l.01036.00427a7.45623,7.45623,0,0,1,2.39859,1.60028l.01036.01219a7.48423,7.48423,0,0,1,.92751,1.128c.05606.08562.11152.17185.16575.25991h0l.00366.00518.00061.00274.00457.007.00518.00761.00061.00183.00366.00518.00518.00756.00335.0061.00091.00188.00427.00762.00426.00792.00183.00183.00335.00512.00457.00768.00336.00609.00091.00183.00427.00762.00517.00792.00092.00335.00244.00427.00518.00695.014.02321.00153.00366.00182.00426.00854.01554h.00091q.096.16592.184.34127c.05942.11639.11578.23309.16667.34979ZM2.07714,7.26312V12.7468H2.079a.32507.32507,0,0,0,.05271.184.33227.33227,0,0,0,.1493.121.34162.34162,0,0,0,.19105.02072h0a.33579.33579,0,0,0,.16911-.09324L8.35639,7.26312ZM1.6402,12.7468H1.63837a.77349.77349,0,0,0,.919.75566h.00092a.76188.76188,0,0,0,.39306-.21238l6.091-6.09094a.21938.21938,0,0,0-.1554-.37478H1.85867a.22041.22041,0,0,0-.2203.21938l.00183.01975V12.7468ZM11.745,3.65457a1.07843,1.07843,0,0,1,.177.145,1.1446,1.1446,0,0,1,.145.177,1.18554,1.18554,0,0,1,.10878.20135v.00067h0a1.16742,1.16742,0,0,1,.06551.67308,1.11706,1.11706,0,0,1-.06551.22v-.0006a1.26493,1.26493,0,0,1-.10878.202,1.09454,1.09454,0,0,1-.145.177,1.12759,1.12759,0,0,1-.177.145,1.17485,1.17485,0,0,1-.20232.10817,1.13686,1.13686,0,0,1-.21847.06642,1.17468,1.17468,0,0,1-.227.02224,1.19191,1.19191,0,0,1-.22822-.02224,1.177,1.177,0,0,1-.21847-.06642,1.13331,1.13331,0,0,1-.202-.10817,1.15631,1.15631,0,0,1-.177-.145,1.16454,1.16454,0,0,1-.2532-.379,1.15969,1.15969,0,0,1-.06643-.21939,1.16366,1.16366,0,0,1,.06643-.67308,1.15243,1.15243,0,0,1,.10725-.202l.00061.00092V3.97663a1.201,1.201,0,0,1,.14534-.177h.00092a1.16736,1.16736,0,0,1,.17611-.145,1.21878,1.21878,0,0,1,.202-.10878A1.1618,1.1618,0,0,1,10.86985,3.48a1.17643,1.17643,0,0,1,.22731-.02254,1.10747,1.10747,0,0,1,.227.02254,1.13333,1.13333,0,0,1,.21847.06582A1.15265,1.15265,0,0,1,11.745,3.65457Z" style="fill:#a1afba;fill-rule:evenodd"/></g></svg>