<svg xmlns="http://www.w3.org/2000/svg" viewBox="0 0 11.0027 15.01618"><title>droplet-icon-uc-santa-barbara</title><g id="ICONS"><path d="M5.50189.61272C5.196,1.067,4.816,1.61214,4.39986,2.21A46.60114,46.60114,0,0,0,.84547,7.76951,5.08816,5.08816,0,0,0,.43961,9.73787a4.723,4.723,0,0,0,.81965,2.66368,4.92236,4.92236,0,0,0,2.17921,1.77,5.4459,5.4459,0,0,0,4.12593,0,4.9262,4.9262,0,0,0,2.17891-1.77,4.72387,4.72387,0,0,0,.82062-2.66368,5.08965,5.08965,0,0,0-.40684-1.96836A46.55353,46.55353,0,0,0,6.604,2.21057C6.18655,1.61214,5.80757,1.067,5.50189.61272ZM4.03933,1.95858C4.55946,1.21237,5.02321.54718,5.316.10232A.22407.22407,0,0,1,5.381.03593.2189.2189,0,0,1,5.6841.099c.29343.44486.7581,1.11242,1.28005,1.86111A46.55314,46.55314,0,0,1,10.56326,7.601a5.53255,5.53255,0,0,1,.43944,2.1369,5.1589,5.1589,0,0,1-.89741,2.90893A5.36337,5.36337,0,0,1,7.7326,14.57741a5.89527,5.89527,0,0,1-4.46355,0A5.36675,5.36675,0,0,1,.89727,12.6468,5.16116,5.16116,0,0,1,0,9.73787,5.52714,5.52714,0,0,1,.43961,7.601,46.61672,46.61672,0,0,1,4.03933,1.95858Z" style="fill:#a1afba;fill-rule:evenodd"/></g></svg>