<svg xmlns="http://www.w3.org/2000/svg" viewBox="0 0 19.42582 16.87274"><title>eco-electric-fuel-pump-icon-UC-Santa-Barbara</title><g id="ICONS"><path d="M2.0616,0H9.13032a1.3207,1.3207,0,0,1,1.31783,1.31813v12.1325h4.44648a.8752.8752,0,0,0,.621-.25714l.00091-.00091a.87644.87644,0,0,0,.25753-.62007v-.83274h-.74017a.21983.21983,0,0,1-.21939-.2203V9.48621H13.88a1.31963,1.31963,0,0,1-1.31813-1.31782V4.74356a.22.22,0,0,1,.21938-.22029h.493V.21938A.22.22,0,0,1,13.49362,0h.92964a.22053.22053,0,0,1,.22.21938V4.52327h2.70086V.21938A.22.22,0,0,1,17.56441,0h.92933a.2198.2198,0,0,1,.21938.21938V4.52327h.4924a.22022.22022,0,0,1,.2203.22029V8.16839a1.31579,1.31579,0,0,1-.387.93024l-.00092.00061a1.30947,1.30947,0,0,1-.93024.387h-.93452v2.03326a.2206.2206,0,0,1-.22029.2203h-.74006v.83274a1.31364,1.31364,0,0,1-.38611.92991l-.00086.00095a1.31419,1.31419,0,0,1-.93122.387H10.44815v1.05731h.52347a.22.22,0,0,1,.2203.2203v1.48541a.21983.21983,0,0,1-.2203.21938H.2203A.21983.21983,0,0,1,0,16.65336V15.168a.22.22,0,0,1,.2203-.2203H.74347V1.31813A1.31451,1.31451,0,0,1,1.12983.38788L1.13044.387h.00091L1.13323.38453A1.31385,1.31385,0,0,1,2.0616,0ZM15.25326,9.48621v1.81388h1.48023V9.48621Zm2.53053-7.22473h.48965V.43968h-.48965v1.8218Zm.48965.43934h-.48965V4.52327h.48965V2.70082ZM13.713,2.26148h.49088V.43968H13.713v1.8218Zm.49088.43934H13.713V4.52327h.49088V2.70082Zm-.3239,6.346h4.22771a.88177.88177,0,0,0,.621-.25656V8.78845a.87318.87318,0,0,0,.25748-.62006V4.963H13.00153V8.16839a.88012.88012,0,0,0,.87845.87845ZM2.47873,5.99435H8.46334V1.91077H2.47873V5.99435Zm6.204.43969a.21988.21988,0,0,0,.22035-.21939V1.69047a.21988.21988,0,0,0-.22035-.21938H2.25843a.21983.21983,0,0,0-.21938.21938V6.21465a.21983.21983,0,0,0,.21938.21939Zm1.54605,8.95329H.43968V16.434H10.75224V15.38733ZM9.13032.43968H2.0616a.87564.87564,0,0,0-.621.25656L1.43971.69715a.87658.87658,0,0,0-.25748.621V14.94765h8.82715V1.31813A.8801.8801,0,0,0,9.13032.43968Z" style="fill:#a1afba;fill-rule:evenodd"/></g></svg>