<svg xmlns="http://www.w3.org/2000/svg" viewBox="0 0 21.84757 21.94264"><title>electric-car-icon-UC-Santa-Barbara</title><g id="ICONS"><path d="M3.02389,10.18154h8.98158a1.29519,1.29519,0,0,1,1.02781.49391l2.95309,3.68108a.83962.83962,0,0,0,.62524.32664l1.58414.10878v-3.0534h-.73921a.219.219,0,0,1-.22029-.21847V9.48618h-.93452a1.32121,1.32121,0,0,1-1.31813-1.3181V4.74265a.21983.21983,0,0,1,.2203-.21938h.49245V.21938A.21976.21976,0,0,1,15.91659,0h.92934a.2198.2198,0,0,1,.21938.21938V4.52327h2.70086V.21938A.21977.21977,0,0,1,19.98616,0h.92933a.22039.22039,0,0,1,.2203.21938V4.52327h.4924a.21963.21963,0,0,1,.21938.21938V8.16808a1.31393,1.31393,0,0,1-.38605.93025l-.00092.00088a1.31506,1.31506,0,0,1-.93116.387h-.9336v2.0339a.21964.21964,0,0,1-.2203.21847h-.74011V14.8212l1.5823.10877a.76918.76918,0,0,1,.717.76724v1.15725h.13224a.21977.21977,0,0,1,.22.21938v2.0031a.77036.77036,0,0,1-.76845.76845H19.9691a.21982.21982,0,0,1-.21847-.20293,2.50387,2.50387,0,0,0-4.97087.00883.219.219,0,0,1-.21756.1941H7.3329a.22007.22007,0,0,1-.21938-.20293,2.50339,2.50339,0,0,0-4.97.00883.21968.21968,0,0,1-.21755.1941H1.31783A1.3207,1.3207,0,0,1,0,18.52756V17.07384a.22022.22022,0,0,1,.21938-.21938H.35315V14.86873a.219.219,0,0,1,.21938-.21938H.91715l.824-3.45469a1.31281,1.31281,0,0,1,1.28278-1.01312Zm15.39038,5.06471a.13852.13852,0,0,1-.02742-.00274l-1.80449-.12344a1.27693,1.27693,0,0,1-.93726-.48961l-2.95375-3.68108a.87374.87374,0,0,0-.30318-.2462.88994.88994,0,0,0-.3827-.08227H3.02389a.86449.86449,0,0,0-.85534.67461l-.86261,3.61736a.21911.21911,0,0,1-.21512.17523H.79191v1.98573a.21983.21983,0,0,1-.21938.2203H.43968v1.23342a.8801.8801,0,0,0,.87815.87845H1.7377a2.94317,2.94317,0,0,1,5.78356,0h6.85355a2.94264,2.94264,0,0,1,5.78259,0h.36107a.33188.33188,0,0,0,.32968-.32907v-1.7828h-.13284a.22.22,0,0,1-.2203-.2203V15.69721a.3343.3343,0,0,0-.088-.22639.325.325,0,0,0-.21853-.10269l-1.77421-.12188Zm-.73834-5.76007v1.8136h1.47931V9.48618Zm2.52961-7.22409h.49V.43965h-.49V2.26209Zm.49.43877h-.49V4.52327h.49V2.70086ZM16.136,2.26209h.4897V.43965H16.136V2.26209Zm.4897.43877H16.136V4.52327h.4897V2.70086Zm-.32395,6.34567h4.22771a.87908.87908,0,0,0,.621-.25656l.00086-.00091a.87746.87746,0,0,0,.25747-.621V4.963H15.42328V8.16808a.8801.8801,0,0,0,.87845.87845ZM6.77225,11.69894H3.71977a.32274.32274,0,0,0-.31932.24711l-.62032,2.41322H6.77225V11.69894Zm-3.05248-.43877a.763.763,0,0,0-.74346.57771L2.28616,14.525a.21853.21853,0,0,0,.15814.266.22085.22085,0,0,0,.05332.007h4.494a.21866.21866,0,0,0,.21938-.21938v-3.1a.21828.21828,0,0,0-.21938-.21847Zm4.72985,0a.21905.21905,0,0,0-.22029.21847v3.1a.21944.21944,0,0,0,.22029.21938h6.00807a.21936.21936,0,0,0,.17185-.35589l-2.29591-2.8919a.74936.74936,0,0,0-.60178-.29008Zm3.28223.43877H8.669v2.66033h5.33437l-2.01254-2.53605a.31439.31439,0,0,0-.259-.12428ZM4.62869,19.30577a.64821.64821,0,0,0-.458.18921l-.01031.01036a.64834.64834,0,0,0,.01031.905v0a.64624.64624,0,0,0,.91562,0l.01036-.00853a.64742.64742,0,0,0-.468-1.096Zm-.76784-.121-.0131.01374a1.08488,1.08488,0,0,0,.0131,1.52289h0a1.085,1.085,0,0,0,1.53629,0l.01311-.014a1.0862,1.0862,0,0,0-1.5494-1.52261Zm13.40373.121a.6393.6393,0,0,0-.45766.18921h0a.64588.64588,0,0,0,0,.91532l.00945.01036a.64776.64776,0,0,0,.90623-.92568l-.0095-.00975a.645.645,0,0,0-.44852-.17946Zm-.76845-.121h0a1.08544,1.08544,0,0,0,0,1.53663l.01377.0128a1.08618,1.08618,0,0,0,1.52253-1.54943l-.01372-.01307a1.08454,1.08454,0,0,0-1.52258.01307Zm.76942-.78518a1.55235,1.55235,0,0,0-1.09849,2.64906l.0006.00088.001-.00088a1.5519,1.5519,0,0,0,2.1947-2.19475l-.01036-.0104a1.55256,1.55256,0,0,0-1.08742-.44391Zm-1.40771.14443a1.98969,1.98969,0,0,0,0,2.81481v.00092A1.99133,1.99133,0,0,0,18.67443,18.544l-.014-.01219a1.98755,1.98755,0,0,0-2.80257.01219ZM4.62869,18.39959a1.548,1.548,0,0,0-1.09692.45339H3.53086l.00091.00092a1.55252,1.55252,0,0,0,0,2.19475l.011.01219A1.55229,1.55229,0,0,0,5.72622,18.8539l-.00945-.0104a1.55458,1.55458,0,0,0-1.08808-.44391Zm-1.4071.14443H3.22067a1.99167,1.99167,0,0,0,0,2.81573l.01372.01188a1.99075,1.99075,0,0,0,2.803-2.82761l-.01407-.01219a1.9865,1.9865,0,0,0-2.80171.01219Z" style="fill:#a1afba;fill-rule:evenodd"/></g></svg>