<svg xmlns="http://www.w3.org/2000/svg" viewBox="0 0 22.65959 17.51261"><title>factory-with-leaf-icon-UC-Santa-Barbara</title><g id="ICONS"><path d="M.21938,15.85443H.74383V1.41045a.21979.21979,0,0,1,.21938-.22029h3.175a.22.22,0,0,1,.22024.22029v8.772H5.51506V2.81664a.21964.21964,0,0,1,.21939-.21938h3.175a.21964.21964,0,0,1,.21938.21938v7.36581h1.15633V4.36421a.22.22,0,0,1,.2203-.22h3.175a.21922.21922,0,0,1,.21939.22v5.81824H18.2055a1.31012,1.31012,0,0,1,.87936.33669V9.08888a3.46474,3.46474,0,0,1-1.14019-.26082A3.27048,3.27048,0,0,1,16.497,7.64918a3.15027,3.15027,0,0,1-.54845-1.7767A3.375,3.375,0,0,1,16.21647,4.569a27.59086,27.59086,0,0,1,2.14625-3.36663c.30658-.43968.58045-.83274.748-1.08655h.00091A.21833.21833,0,0,1,19.30424,0a.22084.22084,0,0,1,.19349.11579c.16758.2529.4412.64687.74712,1.08655A27.61748,27.61748,0,0,1,22.39207,4.569a3.37546,3.37546,0,0,1,.26752,1.30351,3.1502,3.1502,0,0,1-.54846,1.7767,3.2738,3.2738,0,0,1-1.44762,1.17888,3.45913,3.45913,0,0,1-1.13988.26082v6.76555h.52408a.21984.21984,0,0,1,.2203.21939v1.2194a.21984.21984,0,0,1-.2203.21939H.21938A.21983.21983,0,0,1,0,17.29322v-1.2194a.21983.21983,0,0,1,.21938-.21939ZM19.52363.9336V8.64829a3.01567,3.01567,0,0,0,.97168-.22548,2.83736,2.83736,0,0,0,1.25476-1.01922,2.71654,2.71654,0,0,0,.46984-1.53111,2.92624,2.92624,0,0,0-.23309-1.13413,27.64225,27.64225,0,0,0-2.10213-3.28554c-.12614-.18221-.248-.35589-.36106-.51921Zm-.43877,7.71469V.93265c-.11335.16427-.23492.33795-.36107.521a27.73108,27.73108,0,0,0-2.10243,3.28466,2.93329,2.93329,0,0,0-.234,1.13413A2.711,2.711,0,0,0,16.859,7.40359a2.83906,2.83906,0,0,0,1.25414,1.01922,3.024,3.024,0,0,0,.97169.22548Zm-4.703,4.80938h3.30112a.21984.21984,0,1,0,0-.43968H14.38182a.21984.21984,0,1,0,0,.43968Zm-4.3115,0h3.30173a.21984.21984,0,1,0,0-.43968H10.07032a.21984.21984,0,0,0,0,.43968Zm-4.31089,0h3.302a.21984.21984,0,1,0,0-.43968h-3.302a.21984.21984,0,0,0,0,.43968Zm-1.401-2.83645v5.23321H19.08486V11.50028a.88168.88168,0,0,0-.87936-.87906H4.35842Zm6.3664-.43877H13.461V4.5836h-2.7362v5.59885Zm-4.771,0H8.69V3.03694H5.95383v7.14551Zm-4.77038,5.672H3.91966V1.62984H1.18345V15.85443Zm18.64488.43938H.43877v.77912H19.82833Z" style="fill:#a1afba;fill-rule:evenodd"/></g></svg>