<svg xmlns="http://www.w3.org/2000/svg" viewBox="0 0 15.0287 20.44169"><title>hot-air-balloon-icon-uc-santa-barbara</title><g id="ICONS"><path d="M8.99412,14.43453a7.07642,7.07642,0,0,0,0-13.83915,5.0371,5.0371,0,0,1,1.21514,1.6661,12.37429,12.37429,0,0,1,1.0564,5.253,12.37529,12.37529,0,0,1-1.0564,5.253,5.05145,5.05145,0,0,1-1.21514,1.667Zm.46619,2.39768V14.774a7.56026,7.56026,0,0,1-3.89192,0v2.05824ZM9.9,14.64173v2.19048h.35254a.21926.21926,0,0,1,.21939.21939.2573.2573,0,0,1-.00793.05789L10.059,19.357a1.31134,1.31134,0,0,1-1.29741,1.08473H6.26645A1.30943,1.30943,0,0,1,4.97087,19.357L4.56135,17.0906a.21957.21957,0,0,1,.177-.255l.039-.00336H5.1287V14.64173a7.51143,7.51143,0,1,1,4.77129,0ZM9.98988,17.271H5.03912l.36168,2.00885a.87364.87364,0,0,0,.86565.72309H8.76164a.873.873,0,0,0,.86626-.72309l.362-2.00885ZM6.03488.59538a7.07642,7.07642,0,0,0,0,13.83915,5.04293,5.04293,0,0,1-1.21514-1.667,12.38926,12.38926,0,0,1-1.0564-5.253,12.38826,12.38826,0,0,1,1.0564-5.253A5.02862,5.02862,0,0,1,6.03488.59538ZM7.5145,14.589c-.88363,0-1.69809-.76846-2.30018-2.01133A11.94276,11.94276,0,0,1,4.20211,7.5145,11.93521,11.93521,0,0,1,5.21432,2.45222C5.81641,1.20844,6.63087.43968,7.5145.43968s1.69809.76876,2.29987,2.01254A11.93028,11.93028,0,0,1,10.82689,7.5145a11.93782,11.93782,0,0,1-1.01252,5.06319C9.21259,13.82056,8.39813,14.589,7.5145,14.589Z" style="fill:#a1afba;fill-rule:evenodd"/></g></svg>