<svg xmlns="http://www.w3.org/2000/svg" viewBox="0 0 24.11667 17.77431"><title>house-with-leaf-icon-UC-Santa-Barbara</title><g id="ICONS"><path d="M.22365,15.61585H1.7118V8.92221H.21938A.21905.21905,0,0,1,0,8.70374V7.34417a.21867.21867,0,0,1,.089-.17611L8.09983.056A.22073.22073,0,0,1,8.39.056V.05515l6.24811,5.49678c.73159-1.13836,1.6402-2.44247,2.42267-3.56529.52713-.75687.99759-1.43117,1.295-1.883A.2166.2166,0,0,1,18.6016.01033.19529.19529,0,0,1,18.66559,0a.2212.2212,0,0,1,.2203.2203V.34279c.29282.43538.6935,1.01069,1.13409,1.64294a47.04414,47.04414,0,0,1,3.65,5.722,5.59084,5.59084,0,0,1,.44669,2.1655,5.22742,5.22742,0,0,1-.91045,2.94672,5.42675,5.42675,0,0,1-2.4028,1.95651,5.83121,5.83121,0,0,1-1.91753.436v2.3425a.21984.21984,0,0,1-.43968,0V15.22035a5.83756,5.83756,0,0,1-2.16794-.44394,5.501,5.501,0,0,1-1.40771-.855v1.69443h1.48907a.21925.21925,0,0,1,.21938.21939v1.71969a.21961.21961,0,0,1-.21938.21938H.22365a.21981.21981,0,0,1-.2203-.21938V15.83524a.21945.21945,0,0,1,.2203-.21939ZM18.88589,1.12008v4.905L21.307,4.62778c-.54419-.80776-1.12464-1.64111-1.6472-2.39159-.27819-.39916-.53993-.77394-.77394-1.11611Zm0,5.41207V9.22444l3.91173-2.25782c-.32816-.571-.76693-1.255-1.2453-1.97446l-2.66643,1.54Zm0,3.19752v2.70878l4.78592-2.76393A5.20878,5.20878,0,0,0,23.265,7.87527c-.06307-.153-.15021-.33-.25473-.52683L18.88589,9.72967Zm0,3.214v1.8285a5.366,5.366,0,0,0,1.749-.40159,4.99511,4.99511,0,0,0,2.21029-1.795,4.80248,4.80248,0,0,0,.82147-2.3925l-4.78074,2.76058Zm-.43968,1.83795V13.08685l-.00153-.00061-.0131-.007L13.415,10.18306a4.76185,4.76185,0,0,0,.08379.63926l.001.00335.01731.08376.00183.00369.00945.04388.00243.01032.007.02868.00092.00518.00609.024.00518.01892.00158.00975.00787.02834a4.60365,4.60365,0,0,0,.19439.58837,4.87573,4.87573,0,0,0,1.05366,1.59693l.01036.01128a5.02945,5.02945,0,0,0,1.62892,1.09174,5.38033,5.38033,0,0,0,1.99944.411Zm0-2.199V9.87318h-.00153L18.442,9.87135l-.00189-.00183-.00335-.00091L18.43493,9.868l-.00335-.00183-.00244-.00186-4.3575-2.51587-.00427.00853-.00695.0131-.00707.01219v.00061l-.00761.014-.0061.01279-.007.01311L14.025,7.4365l-.007.0131h0l-.00609.0128-.01981.039-.007.0128-.00086.00182-.00584.01036-.0061.0128-.00609.0131-.00609.01219-.0061.0128-.0067.01219-.00518.01219-.0061.01188L13.93,7.62572l-.00609.01218-.00244.00579-.00274.007-.0061.01128-.00518.01218-.00609.01128-.00579.01188-.00269.007L13.89,7.70951l-.00518.01127-.00518.01189-.00513.01127-.00523.01127-.00427.00854-.00091.00274-.00518.01127-.01463.03352-.00427.00975v.00152l-.00609.01036v.00092l-.00853.02072-.00427.01036-.00518.01036-.00609.01554-.00609.01553-.00092.00092-.00518.01371-.00609.01493-.00061.00244-.00518.01219-.0061.0155-.00182.0043-.00427.01036-.00609.01554-.00269.0061-.00249.00853-.0061.01462-.00244.00792-.00365.00762L13.745,8.056l-.00335.00945-.00275.00518-.00579.01554-.00365.01036-.00152.00426-.00518.01459-.00458.01219-.00152.00339-.00518.01462-.00518.014v.00091l-.00518.01554-.00609.01463v.00088l-.00427.01375-.00512.01462-.001.00274-.00427.0128-.00518.01554-.00091.00366-.00427.011-.00457.01493L13.664,8.2857l-.01828.05511-.00244.008-.00274.00579a5.1341,5.1341,0,0,0-.23127,1.32l5.037,2.90805Zm0-3.21306V6.67475h-.00153l-.00457-.00183h0l-.00421-.00244h0l-.00523-.00365-2.901-1.67467c-.22907.34374-.44912.67982-.65236.99942l-.0067.01192c-.17977.28337-.34553.55211-.49057.79831l-.00944.0155-.00884.01558-.00945.01645-.00761.0128-.00086.00183-.0095.01554-.00975.01554-.00853.01554-.00854.01554-.00883.01462h0l-.00945.01554-.00518.01033,4.1622,2.40289Zm0-3.199V.75474c-.29282.43115-.64408.93448-1.025,1.48236-.52354.75048-1.103,1.58292-1.64635,2.39068l2.6713,1.54269Zm-4.01442,7.339c-.07343-.07618-.14351-.15388-.21085-.23432l-.01981-.02316-.007-.007-.01372-.01737-.01639-.02076-.00341-.00331-.01981-.025c-.02011-.02437-.039-.04845-.0588-.07343l-.00884-.01127-.01036-.01372-.00152-.00274-.05546-.07164-.01889-.02586L13.986,12.979l-.01737-.02407-.01792-.0259-.01829-.02529L13.93,12.89946l-.01554-.02167-.01219-.017-.00609-.00792-.018-.0259-.0036-.007-.01377-.01886-.01365-.02075-.00371-.00515-.01707-.02681-.031-.04845-.00371-.00427-.01646-.02681-.0067-.01039L13.759,12.6429l-.0329-.05332-.00793-.0131-.00853-.01372-.01554-.02681L13.6932,12.535l-.01463-.02594-.00944-.01642-.007-.01127-.00086-.00092-.04485-.08108-.01462-.02678-.00366-.00609-.01188-.02225-.02859-.05545-.00432-.007-.01036-.02072-.01371-.02742-.01493-.02773c-.02316-.04753-.0457-.09415-.06734-.14172h0l-.01371-.02922a5.21758,5.21758,0,0,1-.468-2.16184,5.4953,5.4953,0,0,1,.227-1.55065l.00092-.00057.01462-.04845.00427-.01646.00091-.00243.00427-.014.00523-.01645.00421-.01554.0061-.01646.00188-.00673L13.238,8.176l.00518-.01554.00274-.00883.00244-.00762.00518-.01649.00365-.01032L13.2587,8.112l.00609-.01646.00366-.01218L13.27,8.07911l.00518-.01645.0061-.01554.00609-.01646.00524-.01554V8.01451l.00609-.01584.00609-.01615V7.98069l.00513-.01466.00579-.0155.00182-.00366.00427-.0128.00609-.01645.00183-.00518.00427-.01128.00609-.01553.00244-.007.00457-.00945.00579-.01645.00371-.00857.00238-.007.007-.01615.00335-.0104.00275-.00609.00609-.0155.00518-.01311.00152-.00335.007-.01645L13.397,7.7415l.00092-.00183.0067-.01645.007-.01554.00426-.01127.00427-.011.00609-.01128.00427-.01218.00523-.01128h0l.00513-.01219.00518-.011.01584-.03565V7.59125L13.46772,7.58l.00518-.01219.00518-.01313.0061-.01094.00182-.00457.00854-.0198.00091-.00092.00609-.0128.0061-.01218.00518-.0128.01188-.02529h.00091l.0061-.0128.00609-.0131.0061-.0128.0067-.01371V7.40207l.00706-.01128.0061-.0131.00695-.01371.0067-.0131.02011-.04053.00671-.01371.007-.01314.01462-.02742.007-.01489.00762-.01372.007-.01371.01377-.02864L13.67,7.17141l.00671-.01371.00792-.01493.01554-.02925.00761-.01371.00793-.01494.00761-.01371.008-.01554.00177-.00243.01463-.02682.00853-.01493.00792-.01554.00854-.01462.00182-.00335.00671-.01131.008-.01551.00847-.01462.00884-.01558.00853-.0155.00183-.00366.0067-.011.00792-.01645.00853-.01463.00945-.01554.007-.014.00426-.00518.00336-.00766.00792-.014.00762-.0128.00792-.014.00792-.01371.00762-.0128.00274-.00366.00524-.01036.00847-.01371.007-.01371.00853-.014.00762-.01371.008-.014.00085-.00153.00762-.01218.00792-.01372.00762-.0131.00884-.01462.00762-.01375.01645-.02769.00853-.01463.00884-.014.00761-.01375.00884-.01459.00676-.01219L14.05,6.49955l.00853-.01493.01646-.02743.00853-.01493.00884-.01371.0067-.01219.00183-.00243.00853-.01463.00889-.014.00848-.01462.00883-.01463L14.188,6.2698l.00884-.01493.00609-.00944c.06307-.1036.1295-.21085.19684-.31784L8.24487.51308.43968,7.44076V8.48345H1.9321a.2206.2206,0,0,1,.2203.22029v6.91211H5.68051V9.07426a.21906.21906,0,0,1,.21939-.21939h4.77037a.21906.21906,0,0,1,.21939.21939v6.54159h3.54213V13.50947ZM6.11928,15.61585h4.33161V9.29364H6.11928v6.32221Zm4.56227.43877-.01128.00092H5.8999l-.01128-.00092H.443v1.28H16.14024v-1.28H10.68155Z" style="fill:#a1afba;fill-rule:evenodd"/></g></svg>