<svg xmlns="http://www.w3.org/2000/svg" viewBox="0 0 12.94115 20.67234"><title>leaf-icon-UC-Santa-Barbara</title><g id="ICONS"><path d="M6.25055.93969c-.3245.47594-.70477,1.02193-1.11581,1.61278-.61762.88694-1.3032,1.87055-1.94581,2.82334L6.25055,7.14368V.93969Zm0,10.44236L1.23946,8.48954c-.13035.24437-.23827.46284-.31688.65206a6.10138,6.10138,0,0,0-.47869,2.13411L6.25055,14.628V11.38205ZM1.45275,8.10684c.38941-.6807.91654-1.50278,1.49242-2.36569l3.30538,1.908v3.22768l-4.7978-2.77ZM.44816,11.78273l5.80239,3.35048v2.11614A6.30708,6.30708,0,0,1,4.01289,16.77a5.8618,5.8618,0,0,1-2.59548-2.1094,5.62259,5.62259,0,0,1-.96925-2.87789Zm6.243-.90587,4.79805-2.77c-.39062-.6807-.91745-1.50278-1.49272-2.36569L6.6912,7.64918v3.22768Zm5.01043-2.38732c.13132.24437.23827.46284.31689.65206a6.10279,6.10279,0,0,1,.47929,2.13411L6.6912,14.628V11.38205l5.01043-2.89251ZM6.6912,7.14368V.93969c.32384.475.70386,1.02193,1.1152,1.61186.61727.88607,1.30412,1.87147,1.94576,2.82426L6.6912,7.14368Zm5.80326,4.63905L6.6912,15.13321v2.11614A6.30686,6.30686,0,0,0,8.92825,16.77a5.86283,5.86283,0,0,0,2.59635-2.1094,5.62838,5.62838,0,0,0,.96986-2.87789ZM6.274.12188a.22013.22013,0,0,1,.394,0c.35041.53018.89216,1.30838,1.49943,2.17921a54.90821,54.90821,0,0,1,4.25635,6.672,6.48306,6.48306,0,0,1,.51738,2.51343,6.0633,6.0633,0,0,1-1.05457,3.41937A6.30476,6.30476,0,0,1,9.09675,17.175a6.75938,6.75938,0,0,1-2.40555.514v2.763a.22033.22033,0,0,1-.44065,0V17.689a6.76421,6.76421,0,0,1-2.40621-.514,6.30224,6.30224,0,0,1-2.78891-2.2691A6.064,6.064,0,0,1,0,11.48653,6.51634,6.51634,0,0,1,.51733,8.9731,55.00715,55.00715,0,0,1,4.77367,2.3017C5.381,1.43117,5.92336.65206,6.274.12188Z" style="fill:#a1afba;fill-rule:evenodd"/></g></svg>