<svg xmlns="http://www.w3.org/2000/svg" viewBox="0 0 14.50461 19.58391"><title>led-icon-uc-santa-barbara</title><g id="ICONS"><path d="M7.25185,0a6.05929,6.05929,0,0,1,4.4413,1.983A6.96193,6.96193,0,0,1,13.53293,6.7299v6.58938h.75139a.21925.21925,0,0,1,.22029.21939V15.008a.22.22,0,0,1-.22029.21938H10.8147v4.13716a.2203.2203,0,0,1-.44059,0V15.22736H4.13051v4.13716a.21984.21984,0,0,1-.43968,0V15.22736H.2203A.22022.22022,0,0,1,0,15.008V13.53867a.21945.21945,0,0,1,.2203-.21939H.97169V6.7299A6.95938,6.95938,0,0,1,2.81146,1.983,6.05577,6.05577,0,0,1,7.25185,0ZM7.01876,8.39173a1.52454,1.52454,0,0,1,1.11672.49575,1.71726,1.71726,0,0,1,.44212.95706h2.0168a.22042.22042,0,0,1,.2203.21938v3.25536h2.27855V6.7299A6.52286,6.52286,0,0,0,11.37169,2.281,5.62658,5.62658,0,0,0,7.25185.43963,5.62306,5.62306,0,0,0,3.13292,2.281,6.51859,6.51859,0,0,0,1.41137,6.7299v6.58938H3.75481a.21844.21844,0,0,1-.064-.15473V10.06392a.21963.21963,0,0,1,.21938-.21938h1.5494a1.71648,1.71648,0,0,1,.44151-.95706,1.526,1.526,0,0,1,1.11764-.49575ZM8.5776,10.28422a1.71708,1.71708,0,0,1-.44212.957,1.50656,1.50656,0,0,1-2.23436,0,1.7163,1.7163,0,0,1-.44151-.957H4.13051v2.88033a.21926.21926,0,0,1-.0649.15473h6.3085V10.28422ZM7.814,9.18639a1.06785,1.06785,0,0,0-1.59175,0,1.31312,1.31312,0,0,0,0,1.756,1.06785,1.06785,0,0,0,1.59175,0,1.31222,1.31222,0,0,0,0-1.756ZM13.31263,13.759H.43968v1.02867H14.06585V13.759Z" style="fill:#a1afba;fill-rule:evenodd"/></g></svg>