<svg xmlns="http://www.w3.org/2000/svg" viewBox="0 0 16.5522 16.87274"><title>monitor-with-grid-icon-UC-Santa-Barbara</title><g id="ICONS"><path d="M6.48132,12.0853H8.05748V8.4956H4.46781v3.5897ZM12.52559.43968V4.02843h3.58692V1.31813a.87906.87906,0,0,0-.87844-.87845Zm0,4.02752V8.056h3.58692V4.4672Zm0,4.0284v3.5897h2.70848a.87953.87953,0,0,0,.621-.25747l.00092-.00092a.88045.88045,0,0,0,.25655-.621V8.4956Zm-.4406,3.5897V8.4956H8.49624v3.5897H12.085Zm0-4.02935V4.4672H8.49624V8.056Zm0-4.02752V.43968H8.49624V4.02843ZM4.02813,8.4956H.43938v2.71034a.8822.8822,0,0,0,.87936.87936H4.02813V8.4956ZM4.46781.43968V4.02843H8.05748V.43968Zm0,4.02752V8.056H8.05748V4.4672ZM4.02813,8.056V4.4672H.43938V8.056Zm0-4.02752V.43968H1.31874a.87293.87293,0,0,0-.621.25656L.69685.69715a.87548.87548,0,0,0-.25747.621v2.7103Zm6.26279,8.49564v2.42358H13.1033A.7669.7669,0,0,1,13.632,15.16l.01463.01311a.76722.76722,0,0,1,.22548.54327V16.104a.76984.76984,0,0,1-.76876.76879H3.44956a.76558.76558,0,0,1-.54334-.22548h0v-.00094a.765.765,0,0,1-.22547-.54237V15.7164a.768.768,0,0,1,.22547-.54267l.001-.0006a.76411.76411,0,0,1,.54236-.22548H6.261V12.52407H1.31874A1.32121,1.32121,0,0,1,0,11.20594V1.31813A1.31455,1.31455,0,0,1,.38514.38971L.387.387H.38758A1.31409,1.31409,0,0,1,1.31874,0H15.23407A1.32121,1.32121,0,0,1,16.5522,1.31813v9.88781a1.31308,1.31308,0,0,1-.387.93024v.00092a1.31464,1.31464,0,0,1-.93116.387H10.29092Zm-.21938,2.86234h-6.622a.33031.33031,0,0,0-.33.33V16.104a.33381.33381,0,0,0,.0969.23343v-.00091a.32649.32649,0,0,0,.23315.09656H13.1033a.32973.32973,0,0,0,.32908-.32908V15.7164a.32869.32869,0,0,0-.09659-.23248l-.00884-.00853a.32466.32466,0,0,0-.22365-.089Zm-.22-2.86234H6.70071v2.42358H9.85155Z" style="fill:#a1afba;fill-rule:evenodd"/></g></svg>