<svg xmlns="http://www.w3.org/2000/svg" viewBox="0 0 19.88622 18.59064"><title>recycle-Icon-UC-Santa-Barbara</title><g id="ICONS"><path d="M14.7176,6.71345,10.014,5.01993a.21833.21833,0,0,1-.13224-.28.21593.21593,0,0,1,.0969-.11579l.58563-.33852L9.63491,2.68075l-.773,1.33885L8.85579,4.029,7.89964,5.68569h0a1.28543,1.28543,0,0,1-.80075.61489,1.33468,1.33468,0,0,1-.51311.03656,1.31894,1.31894,0,0,1-.48691-.16941L4.526,5.2582A1.31921,1.31921,0,0,1,4.04489,3.459l.00091-.00061-.00091-.00091L5.66254.65815A1.29169,1.29169,0,0,1,6.80425,0l3.98608.00335h.02254l2.27428.00274a1.31474,1.31474,0,0,1,.65968.17246h.00091A1.31619,1.31619,0,0,1,14.227.66333l.653,1.13044.69381-.40068a.21922.21922,0,0,1,.32389.2401L15.01316,6.5486a.21948.21948,0,0,1-.25473.17612.20776.20776,0,0,1-.04083-.01127Zm-9.56543,6.403H4.22283l.92568-1.60759.58655.33882h0a.21938.21938,0,0,0,.32572-.22822l-.887-4.92486V6.69273A.23438.23438,0,0,0,5.164,6.65735a.21787.21787,0,0,0-.27972-.13221L.18587,8.21653a.2231.2231,0,0,0-.128.10025.22025.22025,0,0,0,.08044.29951l.69533.4016-.653,1.13074A1.31726,1.31726,0,0,0,0,10.80678H.00091a1.30118,1.30118,0,0,0,.17978.65724L1.312,13.42811a.21483.21483,0,0,0,.01889.03291l1.98573,3.448a1.28891,1.28891,0,0,0,1.1411.65964v-.00088l3.23377.00088v.001a1.32122,1.32122,0,0,0,1.31783-1.31725l.00183-1.8172a1.27455,1.27455,0,0,0-.38514-.93177,1.31087,1.31087,0,0,0-.426-.28946l-.00092.00091v-.00091A1.30877,1.30877,0,0,0,7.694,13.117H5.17624l-.02407-.00058Zm.01462.43877H7.694v.00058a.8778.8778,0,0,1,.33761.0631h0a.9.9,0,0,1,.28428.19349.87354.87354,0,0,1,.19349.28428.887.887,0,0,1,.064.33852l-.00183,1.8172a.87952.87952,0,0,1-.88.87753v.00095l-3.23377-.00095h0a.85337.85337,0,0,1-.76175-.43965L1.88975,13.55575H5.15217l.01462-.00058ZM1.63685,13.1164.56065,11.24646a.87359.87359,0,0,1-.12188-.43968h0a.8673.8673,0,0,1,.12188-.43968l.76083-1.32057a.21831.21831,0,0,0-.08013-.298V8.74759L.766,8.47309,4.78835,7.02454l.75749,4.20791-.36778-.21238a.22041.22041,0,0,0-.29982.08044l-.0067.01188-1.15329,2.004Zm14.90681-.412.96986,1.67981,1.812-3.132a.8523.8523,0,0,0,.00092-.87994l-1.61-2.78892-.0067-.01127a.88373.88373,0,0,0-1.20143-.323l-1.57377.90678a.89381.89381,0,0,0-.25991.22457V8.37954l-.00092.00092a.86612.86612,0,0,0-.14869.30923.89153.89153,0,0,0-.02681.34374.865.865,0,0,0,.10816.31441l.0061.0104,1.92509,3.334h-.00091l.00609.01033.00091.00186Zm.717,2.11675-1.08229,1.8699a.85016.85016,0,0,1-.75931.43877l-1.52533.00095a.21945.21945,0,0,0-.21847.21938h-.00091v.54751L10.40945,15.139l3.26486-2.75845v.42384a.219.219,0,0,0,.21938.21938h.01981l2.3081-.00335,1.039,1.80078Zm-7.33229.15113a.27134.27134,0,0,0-.025.025.21926.21926,0,0,0,.025.30927L13.741,18.52844a.21705.21705,0,0,0,.15265.0622.21947.21947,0,0,0,.21939-.2203v-.8017l1.30594-.00088a1.29339,1.29339,0,0,0,1.13927-.65727l3.14663-5.43889a1.30171,1.30171,0,0,0,.1813-.65873,1.31764,1.31764,0,0,0-.18038-.65906l-1.61-2.78892-.007-.01218a1.31843,1.31843,0,0,0-1.79834-.48295L14.717,7.77685a1.30168,1.30168,0,0,0-.39062.3376h0a1.30665,1.30665,0,0,0-.10086,1.44946l.00762.01371,1.73526,3.00586-1.85531.00153V11.908h0a.21938.21938,0,0,0-.36107-.16758L9.92833,14.97233ZM8.47583,3.8124l.0067-.01314.95706-1.65661.00092-.00244L9.45,2.12376l.00092-.00183L10.42164.4412,6.80425.43694a.85494.85494,0,0,0-.76267.44059L4.42393,3.67772h0a.88283.88283,0,0,0,.32146,1.20052l1.57286.91044a.87788.87788,0,0,0,.3239.114.9248.9248,0,0,0,.65358-.17551.85672.85672,0,0,0,.224-.26082h.00061L8.47583,3.8124ZM10.92775.4412,9.88781,2.242l1.16608,2.01345-.00091.00088.00091.00095a.21824.21824,0,0,1-.08135.298l-.36778.21237L14.628,6.21618,15.3855,2.008l-.475.27484a.22022.22022,0,0,1-.29982-.08044L13.848.88363A.87755.87755,0,0,0,13.52744.5579V.557a.87348.87348,0,0,0-.44029-.113Z" style="fill:#a1afba;fill-rule:evenodd"/></g></svg>