<svg xmlns="http://www.w3.org/2000/svg" viewBox="0 0 14.74198 18.67016"><title>recycle-bin-icon-UC-Santa-Barbara</title><g id="ICONS"><path d="M14.30321,1.60577H.43968V3.21671H14.30321V1.60577ZM6.6224,12.53869H3.86791l.81258,1.41046H6.62143l.001-1.41046Zm-3.00592-.43694H4.438l.4991-.86991A.22029.22029,0,0,1,5.1869,11.131l-.28-1.55732-1.4812.53292a.21832.21832,0,0,1,.07861.298l-.433.75135.54511.94582Zm1.32483,0H6.85879l.00518.00092h.00609l.00524.00152h.00512v.00092H6.8856l.0061.00182h0l.00518.00153h0l.00517.00091h0l.00518.00183h0l.00518.00183h0l.00427.00152h0l.00518.00183h0l.00524.0024h0l.00512.00186h0l.00427.00183h0l.00548.00241h0l.00427.00277h0l.00426.00244h0l.00518.00274h0l.00427.00335h0l.00426.00275h0l.00427.00335h0l.00457.00244h0l.00427.00365h0l.00335.00244h0l.00432.00366v.00061l.0036.00274h0l.00427.00335h0l.00335.00427h0l.00426.00365V12.17l.00366.00335h0l.00335.00332h0l.00335.0043h0l.00366.00365h0l.00244.00423h0l.00335.0043h0l.00274.00427v.00091l.00244.00366h0l.00365.00427v.00088l.00244.0043h0l.00274.00426h0l.00153.00427h0l.00365.00518h0l.00153.00426v.00092l.00188.00423h0l.00269.00521h0l.00152.00518h0l.00189.00518h0l.00177.00518h0l.00152.00518h0l.00092.00427v.00091l.00188.00518h0l.00177.00518h0v.00518h0l.00153.0061h0l.00091.00426h0v.0061h0l.00091.00518V12.309h0v.00518h0v.00609h0v.0061l-.00091,1.8413a.21886.21886,0,0,1-.21938.21847H4.55374a.21768.21768,0,0,1-.192-.11488l-1.05883-1.837L3.302,12.43327,3.29959,12.429l-.00274-.00518h0l-.6676-1.15908a.21788.21788,0,0,1,.00183-.22121l.38514-.66763-.21755-.12611a.21856.21856,0,0,1-.07947-.29952.21144.21144,0,0,1,.127-.09933L5.002,9.07426a.21922.21922,0,0,1,.28063.13224.222.222,0,0,1,.00944.03443v.00274l.40769,2.26544a.21883.21883,0,0,1-.177.25412.22262.22262,0,0,1-.15113-.02773l-.16393-.0951-.26631.46135Zm1.90047,0Zm3.67163-.128.34273.59264.81446-1.408-.96986-1.68163-1.22123.70385,1.02958,1.78371h0l.00244.00515v.00095l.00188.00183v.00152Zm.08983,1.02958-.54688.94487-.86723.00092a.219.219,0,0,0-.21847.21694L7.76923,13.15022l1.20752-1.021a.22044.22044,0,0,0,.21238.16606l.02072-.00092.983-.00091.41043.71Zm-3.31513-.02072L9.04836,11.4954a.219.219,0,0,1,.30835.0259.21677.21677,0,0,1,.05272.14169h0v.19348h.53115l-.951-1.64538A.22049.22049,0,0,1,9.07,9.91127l.0131-.007,1.589-.91532A.21988.21988,0,0,1,10.971,9.07l1.14263,1.97964a.21718.21718,0,0,1-.00056.21847l.00056.00091-1.74106,3.00738a.21849.21849,0,0,1-.20293.1097H9.40943v.25137a.21936.21936,0,0,1-.37235.15814l-1.749-1.47779a.22012.22012,0,0,1-.02584-.3093.29075.29075,0,0,1,.02584-.02587ZM6.28016,9.29638,7.2293,7.65189l.26631.45952-.167.09567a.21854.21854,0,0,0,.03474.39581L9.527,9.3817a.19588.19588,0,0,0,.03961.01127.21946.21946,0,0,0,.25473-.17611l.40769-2.2691h0a.21819.21819,0,0,0-.3239-.22792l-.21847.12524-.387-.67034h0A.22058.22058,0,0,0,9.1096,6.066L7.77776,6.06505H7.7546L5.647,6.06261a.21828.21828,0,0,0-.20293.10878L4.30144,8.151a.2192.2192,0,0,0,.07953.29982l1.59876.92565a.22055.22055,0,0,0,.30043-.08011ZM6.01,8.88687,4.79018,8.18118l.97017-1.68072,1.62618.00092-.34188.59325-.00177.00182-.001.00183L7.041,7.09981l-.00518.00883v.00152L7.03521,7.112,6.01,8.88687ZM7.89263,6.50229l1.09022.00088.4345.75142a.21933.21933,0,0,0,.298.08014l-.27911,1.5497L7.94717,8.34785a.21891.21891,0,0,0,.03724-.266V8.08094h0l-.5019-.86782.41012-.71083ZM9.527,9.3817l-.1365-.24254a.21836.21836,0,0,0,.1365.24254ZM5.9322,1.16609V.21938A.22061.22061,0,0,1,6.15249,0H8.59076a.21986.21986,0,0,1,.21938.21938v.94671h5.71337a.21962.21962,0,0,1,.21847.22029V3.4361a.21965.21965,0,0,1-.21847.2203h-.55364V17.35234a1.31829,1.31829,0,0,1-.387.93085H13.582a1.31122,1.31122,0,0,1-.93085.387h-10.56A1.32121,1.32121,0,0,1,.773,17.35234V3.6564H.21938A.22066.22066,0,0,1,0,3.4361V1.38638a.22062.22062,0,0,1,.21938-.22029Zm2.4382,0V.43877H6.37254v.72732ZM2.09115,18.23048a.87856.87856,0,0,1-.87845-.87814V3.6564H13.53019V17.35234a.87525.87525,0,0,1-.25748.621l-.00061.00061a.87993.87993,0,0,1-.621.25656Z" style="fill:#a1afba;fill-rule:evenodd"/></g></svg>