<svg xmlns="http://www.w3.org/2000/svg" viewBox="0 0 15.65059 20.82915"><title>replay-icon-uc-santa-barbara</title><g id="ICONS"><path d="M1.28614,13.853,4.0327,11.91756A4.07954,4.07954,0,0,1,7.79239,6.33607L8.226,6.33272a.21908.21908,0,0,1,.22122.21756V6.5521H8.4478V8.802L10.4,7.4269a.09015.09015,0,0,1,.02072-.0128L13.397,5.31594l.84219-.59417L8.4478.64245V2.80792a.21981.21981,0,0,1-.21939.21938l-.01889-.00088L7.7994,3.028A7.38612,7.38612,0,0,0,1.28614,13.853Zm13.0774-6.8768a7.32482,7.32482,0,0,1,.60361,1.54669,7.3889,7.3889,0,0,1-7.116,9.2781l-.41043.00183-.01889-.00091a.21983.21983,0,0,0-.2203.21938v2.1655l-5.7902-4.07962.8428-.59417,2.9763-2.09785.02011-.01311,1.951-1.3748v2.2499h.00092V14.279a.21965.21965,0,0,0,.22121.21664l.43359-.00335a4.08026,4.08026,0,0,0,4.04732-4.07779,4.09521,4.09521,0,0,0-.28672-1.50278l2.74565-1.93549Zm-3.14206,1.6789,3.09026-2.17918h0l.018-.01128a.21953.21953,0,0,1,.29891.08227A7.82512,7.82512,0,0,1,7.85119,18.23886l-.20993.00091v2.36995h0a.22013.22013,0,0,1-.34553.17978L.90435,16.286a.21755.21755,0,0,1,0-.35833l1.09753-.773,2.98605-2.10487v-.00095a.322.322,0,0,1,.032-.02068l2.26544-1.59541a.21582.21582,0,0,1,.1365-.04814.21964.21964,0,0,1,.21939.21938v2.45283l.21329-.00182a3.64018,3.64018,0,0,0,3.61038-3.64055,3.66663,3.66663,0,0,0-.08044-.76328,3.56275,3.56275,0,0,0-.23218-.71543.21874.21874,0,0,1,.06917-.28066Zm-6.79237,3.519L1.33855,14.353h0l-.0189.01131a.219.219,0,0,1-.298-.082A7.75879,7.75879,0,0,1,.259,12.41757,7.827,7.827,0,0,1,7.7994,2.59009h.209V.21923H8.009A.219.219,0,0,1,8.35364.03976l6.3926,4.50315a.21068.21068,0,0,1,.05271.05272.22016.22016,0,0,1-.05271.30592l-1.09783.773-2.9955,2.11187H10.652l-.01462.00853L8.36492,9.39617a.21909.21909,0,0,1-.3565-.17185V6.7724l-.21268.00152a3.64379,3.64379,0,0,0-3.53,4.405,3.5619,3.5619,0,0,0,.23158.71421A.22018.22018,0,0,1,4.42911,12.17412Z" style="fill:#a1afba;fill-rule:evenodd"/></g></svg>