<svg xmlns="http://www.w3.org/2000/svg" viewBox="0 0 17.9532 19.94746"><title>rotating-arrows-with-leaf-icon-UC-Santa-Barbara</title><g id="ICONS"><path d="M16.23439,15.00859a2.92383,2.92383,0,0,1-.86565,2.0817l-.0128.01219a3.14488,3.14488,0,0,1-2.10669.89826h-.00762v.00061H11.915v1.49942a.21974.21974,0,0,1-.36533.16424l-4.069-3.12656a.21849.21849,0,0,1,.01371-.35768l4.06713-3.12592a.21823.21823,0,0,1,.30683.03992.22326.22326,0,0,1,.04571.13285H11.915v1.49425h.74438l.02347.00182v-.00091a.25709.25709,0,0,0,.18312-.07956.30885.30885,0,0,0,.08958-.2011v-.01551h0V12.70079a.76477.76477,0,0,1,.22457-.54236l.00188-.00092a.76218.76218,0,0,1,.54139-.22612h1.74228a.76346.76346,0,0,1,.54236.22612h.00092a.76831.76831,0,0,1,.22547.54328h-.00091v2.3078ZM.08105,4.71157A2.92761,2.92761,0,0,1,.9467,2.62986L.96047,2.618a3.14373,3.14373,0,0,1,2.10664-.89826h.0067V1.71881H4.40139V.21938A.21963.21963,0,0,1,4.62077,0a.21741.21741,0,0,1,.145.05515L8.83568,3.18106a.21945.21945,0,0,1,.04052.30745.186.186,0,0,1-.05515.05L4.754,6.6653a.21789.21789,0,0,1-.306-.04083.21187.21187,0,0,1-.0457-.13285H4.40139V4.99738h-.7453l-.02341-.00095v.00095a.25934.25934,0,0,0-.18318.07952.31.31,0,0,0-.089.20111v.00365l-.00061.01189h.00061V7.01936a.76931.76931,0,0,1-.76845.76876H.85078a.76724.76724,0,0,1-.54334-.22548l-.0131-.01371a.76548.76548,0,0,1-.21329-.52957H.08293V4.71157ZM1.2575,2.941A2.48407,2.48407,0,0,0,.52073,4.71157H.51982V7.01936H.5217a.331.331,0,0,0,.08709.22457l.00884.00853a.32808.32808,0,0,0,.23315.096h1.7413a.32925.32925,0,0,0,.32907-.32908V5.29355h.00061V5.28837l.001-.018v-.0131a.7477.7477,0,0,1,.21507-.48722.69235.69235,0,0,1,.49488-.21241v.00095h.98809a.219.219,0,0,1,.21938.21938V6.04764L8.34334,3.35535,4.84015.66485V1.93819a.21907.21907,0,0,1-.21938.21939h-1.547a2.70347,2.70347,0,0,0-1.806.77211L1.2575,2.941ZM13.24163,1.71881a2.92282,2.92282,0,0,1,2.08141.86535l.01219.0131a3.14263,3.14263,0,0,1,.89825,2.1073v.007h.00091V6.03823h1.49852a.22.22,0,0,1,.22029.2203.21347.21347,0,0,1-.05545.14412l-3.12652,4.06987a.21865.21865,0,0,1-.30648.04053.19937.19937,0,0,1-.05124-.05515L11.287,6.39046a.21839.21839,0,0,1,.04052-.30561.22083.22083,0,0,1,.13407-.04509V6.03823h1.49394V5.27039h0a.25808.25808,0,0,0-.07922-.18313.30506.30506,0,0,0-.20141-.08988h-1.741a.76908.76908,0,0,1-.54328-.22457l-.0131-.01462a.76744.76744,0,0,1-.21238-.5296v-1.741a.76128.76128,0,0,1,.22548-.54267l.00061-.00061a.76513.76513,0,0,1,.54267-.22548v.00091h2.30779V1.71881Zm1.77061,1.17553a2.48733,2.48733,0,0,0-1.77061-.73676H10.93384a.32971.32971,0,0,0-.33.33v1.741a.32978.32978,0,0,0,.08806.22459l.00853.00884a.33087.33087,0,0,0,.2334.09659h1.72551v.00091h.00518l.01829.00092h.01279a.74565.74565,0,0,1,.48722.2142.69516.69516,0,0,1,.21146.49575h0v.00426l-.00061.00515.00061.01283v.9659a.21983.21983,0,0,1-.21938.21938H11.90553l2.6911,3.50222L17.288,6.47791H16.015a.22.22,0,0,1-.2203-.21938v-1.547h.00092a2.70046,2.70046,0,0,0-.77211-1.80687l-.01128-.01036ZM2.96686,9.70621a.22.22,0,0,1,.38788-.00061c.1554.23583.41287.60452.7002,1.01739a25.77157,25.77157,0,0,1,2.01437,3.16126,3.16125,3.16125,0,0,1,.25229,1.22641,2.97894,2.97894,0,0,1-.51585,1.6746,3.09863,3.09863,0,0,1-1.36445,1.11,3.30317,3.30317,0,0,1-1.06152.24528v1.58658a.21938.21938,0,1,1-.43876,0V18.14059a3.28839,3.28839,0,0,1-1.0598-.24528,3.08292,3.08292,0,0,1-1.36475-1.11A2.97673,2.97673,0,0,1,0,15.11066a3.17258,3.17258,0,0,1,.25229-1.22641A25.77474,25.77474,0,0,1,2.26636,10.7239c.28672-.41287.54419-.78186.7005-1.01769Zm.41292.81629V17.7a2.8456,2.8456,0,0,0,.893-.20994,2.64629,2.64629,0,0,0,1.17035-.951,2.53178,2.53178,0,0,0,.43877-1.42843,2.744,2.744,0,0,0-.21786-1.05883,26.07832,26.07832,0,0,0-1.96988-3.07838c-.10969-.15726-.21421-.30836-.3144-.45095ZM2.941,17.7V10.5225c-.09939.14259-.2039.29369-.31451.45186A25.9576,25.9576,0,0,0,.65724,14.05183a2.74329,2.74329,0,0,0-.21756,1.05883,2.52987,2.52987,0,0,0,.43877,1.42843,2.645,2.645,0,0,0,1.17035.951A2.842,2.842,0,0,0,2.941,17.7Zm12.1179-.91989a2.49265,2.49265,0,0,0,.73579-1.77152h.00092v-2.3078h-.00092a.32861.32861,0,0,0-.09592-.23218v-.00094a.329.329,0,0,0-.23315-.09687H13.72336a.33078.33078,0,0,0-.32907.33v1.72582h-.00061v.02316l-.00091.0131a.75449.75449,0,0,1-.21421.48782.69628.69628,0,0,1-.49574.21177v-.00091h-.98815a.21964.21964,0,0,1-.21938-.21939V13.67248L7.97277,16.36389l3.50252,2.69138V17.782a.21977.21977,0,0,1,.21938-.22h1.547v.00061a2.70593,2.70593,0,0,0,1.80687-.77211Z" style="fill:#a1afba;fill-rule:evenodd"/></g></svg>