<svg xmlns="http://www.w3.org/2000/svg" viewBox="0 0 14.19437 23.8067"><title>train-Icon-UC-Santa-Barbara</title><g id="ICONS"><path d="M11.78758,21.17043,14.085,22.49618a.22191.22191,0,0,1,.08044.30074l-.26265.45-.25991.45065a.21967.21967,0,0,1-.29982.07953l-1.59328-.91989H2.44488L.8513,23.77714a.21975.21975,0,0,1-.29983-.07953l-.52164-.90069a.22025.22025,0,0,1,.07953-.30074l2.29743-1.32575H1.48964A1.31963,1.31963,0,0,1,.17157,19.85261V18.82729a1.3121,1.3121,0,0,1,.35309-.89581V7.98425A1.32121,1.32121,0,0,1,1.84279,6.66612H3.36111V5.39218a.22.22,0,0,1,.2203-.21939H6.53882L2.71515,2.9235a.22474.22474,0,0,1-.082-.07922.22045.22045,0,0,1,.07861-.29983L6.98612.03007a.22015.22015,0,0,1,.22213,0l4.271,2.51255a.21938.21938,0,0,1,.0028.37936L7.65555,5.17279H10.613a.21905.21905,0,0,1,.21938.21939V6.66612h1.51832a1.32121,1.32121,0,0,1,1.31813,1.31813V17.93a1.31445,1.31445,0,0,1,.35406.89734v1.02532a1.3078,1.3078,0,0,1-.387.92994l-.00061.00183a1.31336,1.31336,0,0,1-.93024.38605Zm-8.56267-.43968H12.705a.8777.8777,0,0,0,.621-.25655l.00092-.00061a.881.881,0,0,0,.25625-.621V18.82729a.88089.88089,0,0,0-.77363-.87235H12.805l-.00055-.00091-.026-.00275h-.00518l-.00091-.00061h-.01463l-.00512-.00091H12.737l-.00548-.00091H1.46283l-.00518.00091H1.44217l-.00524.00091H1.42231l-.00183.00061H1.41621l-.00609.00092h0l-.00427.00091H1.39549l-.00512.00092-.00189.00091H1.38l-.00274.00091-.00244.00058-.00878.00095H1.36441l-.00518.00091-.00365.00092H1.355l-.0061.00091h-.0042l-.0061.00152-.00432.00088h0l-.01067.00095v.00092l-.00426.00091-.00512.00091-.01042.00153-.00153.00088-.0329.00795h0L1.2599,17.979H1.259l-.01828.00518-.00244.00091-.00274.00092-.018.00518H1.21669l-.00859.00335-.00091.00091-.00518.00183-.00427.00092h0l-.00457.00152-.00426.00183H1.18738l-.00365.00183-.00427.00152-.00238.00091-.00189.00092-.01462.00518-.00274.00183H1.1563l-.00457.00243-.00426.00183h0l-.00427.00153-.00518.00274h0l-.00426.00183-.00427.00152-.00183.00088L1.12,18.0299l-.00182.00091-.00183.00179-.00427.00187-.00335.00061L1.107,18.036l-.00341.00271-.00457.001-.00061.00061-.00457.00274-.00427.00179v.00065l-.00426.00182-.00853.00427-.00427.00274-.00183.00092-.00274.0006-.00665.00458H1.05941l-.0164.01036h0a.87281.87281,0,0,0-.13711.10085l-.0028.00183a.19382.19382,0,0,1-.02072.01889l-.01371.0131v.00183a.86745.86745,0,0,0-.25833.62006v1.02532a.88.88,0,0,0,.8793.87814Zm2.14021.43968-.95518.55209H9.78387l-.95523-.55209ZM.96434,17.61977l.00884-.00427.00061-.00091H.97562l.00182-.00091L.979,17.61276H.97988l.00183-.00091.00091-.00061H.98415L.986,17.61032l.00091-.00091H.98872l.00152-.00091L.993,17.60667H.99451L.99634,17.606v-.00089H.99816a1.2988,1.2988,0,0,1,.16241-.05362l.00152-.00092.0061-.00152.03717-.00884.00427-.00091.00274-.00061.0457-.00887h0l.007-.00179.02316-.00336h.00183l.00609-.00094.0067-.00088.00366-.00061.00427-.00092.00761-.00091H1.323l.00341-.00092.00787-.00091.00518-.00095h.00244l.007-.00057.00671-.00092h.00091l.00792-.00091L1.38,17.51434l.00762-.00091h.00091l.007-.00091h.00762l.00274-.00061H1.411l.00762-.00092h.00792l.00762-.00091h.03108l.007-.00092h11.2489l.00706.00092h.031l.00793.00091h.00761l.00793.00092h.00609l.00152.00061h.00884l.0067.00091h0l.00792.00091h.00854l.00792.00092.0067.00091h.00183l.01371.00149h.00372l.0042.00095.00762.00091.00457.00092h.00244l.00792.00091a1.33786,1.33786,0,0,1,.347.09751V7.98425a.88158.88158,0,0,0-.87936-.87936H1.84279a.88232.88232,0,0,0-.87845.87936v9.63552Zm8.5319-2.86235a.21978.21978,0,0,0-.22024.21939v1.43208a.22019.22019,0,0,0,.22024.2203h2.59969a.22.22,0,0,0,.21939-.2203V14.97681a.21964.21964,0,0,0-.21939-.21939Zm2.37939.43877h-2.16v.99332h2.16v-.99332Zm-9.55781-1.281h9.55781V8.75636H2.31782v5.15887Zm9.77811.43965a.21905.21905,0,0,0,.21939-.21938V8.53607a.22046.22046,0,0,0-.21939-.22034H2.09843a.21986.21986,0,0,0-.21938.22034V14.1355a.21847.21847,0,0,0,.21938.21938Zm-9.9975.40254a.21905.21905,0,0,0-.21938.21939v1.43208a.21946.21946,0,0,0,.21938.2203h2.5997a.21946.21946,0,0,0,.21938-.2203V14.97681a.21905.21905,0,0,0-.21938-.21939Zm2.37971.43877H2.31782v.99332H4.47814v-.99332ZM7.09673.47341,3.25513,2.73276,7.09673,4.993l3.84293-2.26026L7.09673.47341ZM6.98612.03007ZM3.80079,6.66612h6.59279V5.61247H3.80079V6.66612Zm9.8741,16.10064L10.911,21.17043H9.70526l.99332.57342a.21986.21986,0,0,1-.09689.41743H3.59177V22.1604a.21872.21872,0,0,1-.10878-.4086l1.00618-.58137H3.28255L.51893,22.76676l.3022.52164,1.44306-.83366a.22277.22277,0,0,1,.12279-.03626h9.4204a.21726.21726,0,0,1,.10969.02956l1.45555.84036.15113-.26082Z" style="fill:#a1afba;fill-rule:evenodd"/></g></svg>