<svg xmlns="http://www.w3.org/2000/svg" viewBox="0 0 15.05703 18.71221"><title>tree-icon-UC-Santa-Barbara</title><g id="ICONS"><path d="M7.74826,14.61492a7.09,7.09,0,1,0-.43974,0V11.34728L2.09609,8.3381A.2192.2192,0,1,1,2.31633,7.959l4.99219,2.88218V6.5873L4.4023,4.90932a.21951.21951,0,0,1,.21938-.38027L7.30852,6.08119V2.72584a.21987.21987,0,0,1,.43974,0V6.08208l2.68861-1.553a.21913.21913,0,0,1,.21787.38027L7.74826,6.5873v4.25391L12.7404,7.959a.219.219,0,0,1,.21939.37907L7.74826,11.34728v3.26764Zm0,.43937v3.43762a.21987.21987,0,1,1-.43974,0V15.05429a7.53184,7.53184,0,1,1,.43974,0Z" style="fill:#a1afba;fill-rule:evenodd"/></g></svg>