<svg xmlns="http://www.w3.org/2000/svg" viewBox="0 0 22.61547 20.2188"><title>trolly-bus-side-icon-UC-Santa-Barbara</title><g id="ICONS"><path d="M7.09889,6.26874h6.59279V5.21509H7.09889V6.26874ZM9.21838,7.99882H1.8959a.32762.32762,0,0,0-.32908.32908v3.384H9.21838V7.99882ZM1.8959,7.55914a.76647.76647,0,0,0-.54237.22548l-.001.00091a.76669.76669,0,0,0-.22548.54237v3.60429a.21968.21968,0,0,0,.21939.21938H9.21838v4.3377H8.06357a3.57781,3.57781,0,0,0-.82208-1.2776v-.00091a3.52458,3.52458,0,0,0-5.32731.39306H.43968v-8.017a.87224.87224,0,0,1,.25747-.6201L.69776,6.965a.87821.87821,0,0,1,.62037-.25655H19.28931a.87642.87642,0,0,1,.53384.1752h0V6.8845a.87456.87456,0,0,1,.31262.46562l1.15907,4.1433a.7599.7599,0,0,0,.46138.50793l.01121.00427.19958.0777H21.9661a.32105.32105,0,0,1,.2106.30744v3.21306h-.99764a3.67823,3.67823,0,0,0-.33852-.39306,3.537,3.537,0,0,0-5.82037,1.27851H14.235v-4.3377h6.04249v-.00091a.21009.21009,0,0,0,.05887-.00762.21962.21962,0,0,0,.15259-.27061L19.438,8.1207v.00088a.76544.76544,0,0,0-.27478-.40765v.00061a.7697.7697,0,0,0-.46473-.1554H1.8959Zm.31866,8.37558a.21381.21381,0,0,1-.018.02678,3.07949,3.07949,0,0,0-.54176,1.72738.21924.21924,0,0,1-.21938.21755v.00092H.76967a.76808.76808,0,0,1-.54419-.22548l-.0131-.01371A.76744.76744,0,0,1,0,17.13859V7.58687a1.31629,1.31629,0,0,1,.387-.93025H.38788l.00244-.00335a1.31313,1.31313,0,0,1,.92781-.38453H6.65921V4.9957a.22043.22043,0,0,1,.21938-.2203H7.3683L3.58875,2.59375a.21888.21888,0,0,1,.21847-.37935l4.43612,2.561H11.205L3.64055.40845a.21854.21854,0,1,1,.21761-.379l8.22105,4.746H13.912a.21964.21964,0,0,1,.21847.2203v1.273h5.15887a1.31533,1.31533,0,0,1,.7974.266h0a1.31645,1.31645,0,0,1,.47137.69712l1.16,4.14242a.326.326,0,0,0,.071.13468.31664.31664,0,0,0,.12675.08379l.01036.00518.19873.07679.00085.00091.00091-.00091a.76253.76253,0,0,1,.4888.716v4.77281a.77046.77046,0,0,1-.76851.76876h-.19013a.21984.21984,0,0,1-.21939-.2203,3.085,3.085,0,0,0-.54657-1.7575l-.00371-.00427-.00092-.00095L20.8838,15.946l-.00182-.00458a3.22722,3.22722,0,0,0-.35224-.41957A3.0991,3.0991,0,0,0,15.24016,17.712a.21892.21892,0,0,1-.21847.21878v.00152H8.07058a.21926.21926,0,0,1-.21939-.2203v-.01615a3.11153,3.11153,0,0,0-.145-.901.2596.2596,0,0,1-.01219-.03718,3.14828,3.14828,0,0,0-.76175-1.23586H6.93039A3.08359,3.08359,0,0,0,2.57045,15.513a3.16207,3.16207,0,0,0-.35589.4217Zm-.57954.10786H.43968v1.096a.32942.32942,0,0,0,.08812.22453l.00847.008a.33171.33171,0,0,0,.2334.0975h.45589a3.51236,3.51236,0,0,1,.40946-1.426Zm20.54168,0h-.71762a3.53116,3.53116,0,0,1,.411,1.44946.33206.33206,0,0,0,.30658-.32847v-1.121Zm-7.28634.88607H8.19672a3.57986,3.57986,0,0,1,.0838.564h6.52879a3.47477,3.47477,0,0,1,.081-.564ZM13.79527,7.99882H9.65806v8.49045h4.13721V7.99882Zm4.90323,0H14.235v3.71307h5.753l-.9723-3.473h.00061L19.01569,8.238a.33241.33241,0,0,0-.1167-.17368h0V8.06369a.32977.32977,0,0,0-.20049-.06487ZM4.753,16.77234a.942.942,0,1,0,.66607.27636.93646.93646,0,0,0-.66607-.27636Zm-.97687-.03443a1.38221,1.38221,0,1,0,.97687-.40434,1.37854,1.37854,0,0,0-.97687.40434Zm14.56312.03443a.93636.93636,0,0,0-.66577.27636l-.01127.00972a.94215.94215,0,0,0,1.34311,1.32152l.01036-.00975a.94237.94237,0,0,0-.67643-1.59785Zm-.97681-.03443-.01219.01276a1.37935,1.37935,0,0,0,.01219,1.93914l.00086.00092a1.3811,1.3811,0,0,0,1.95282,0l.01218-.0128a1.381,1.381,0,0,0-1.96586-1.94ZM4.753,15.64526a2.06693,2.06693,0,1,0,1.46134,3.529v-.00061a2.06654,2.06654,0,0,0,.00091-2.92207l-.00091-.00092v.00092A2.05864,2.05864,0,0,0,4.753,15.64526Zm-1.77238.29556a2.50551,2.50551,0,1,0,3.543,3.54365l.00091-.00091.00092.00091a2.50437,2.50437,0,0,0-.00092-3.54365h.00092a2.50615,2.50615,0,0,0-3.54482,0Zm15.35863-.29556a2.0598,2.0598,0,0,0-1.46128.60543l-.01133.01036a2.06711,2.06711,0,0,0,2.93395,2.91263l.01127-.01036a2.06743,2.06743,0,0,0-1.47261-3.51806Zm-1.77244.29556-.01182.01279a2.50586,2.50586,0,0,0,3.5567,3.53086l.01188-.01283a2.50587,2.50587,0,0,0-3.55676-3.53082Z" style="fill:#a1afba;fill-rule:evenodd"/></g></svg>