<svg xmlns="http://www.w3.org/2000/svg" viewBox="0 0 13.85134 23.60081"><title>trolleybus-front-icon-UC-Santa-Barbara</title><g id="ICONS"><path d="M3.62933,7.04435h6.59273V5.98978H3.62933V7.04435Zm8.90418,14.50431h-.39062v1.83277a.21886.21886,0,0,1-.21847.21938H9.32472a.21983.21983,0,0,1-.2203-.21938V21.54866H4.74631v1.83277a.21984.21984,0,0,1-.21939.21938h-2.6a.21963.21963,0,0,1-.21938-.21938V21.54866H1.31813A1.32121,1.32121,0,0,1,0,20.23053v-1.025a1.3147,1.3147,0,0,1,.35345-.89673V8.36248A1.31912,1.31912,0,0,1,1.67128,7.04435H3.1896V5.7704A.22.22,0,0,1,3.409,5.5501H5.01993V.21938a.21984.21984,0,0,1,.43968,0V5.5501H8.392V.21938a.21938.21938,0,0,1,.43876,0V5.5501h1.61065a.22007.22007,0,0,1,.22035.2203V7.04435h1.51826a1.31963,1.31963,0,0,1,1.31813,1.31813v9.94539a1.31928,1.31928,0,0,1,.35315.89765v1.025a1.31344,1.31344,0,0,1-.387.93025l-.00061.00091a1.31185,1.31185,0,0,1-.93025.387ZM.79283,17.99708l.00889-.00338.00147-.00088L.8041,17.9919H.80593L.80837,17.991h0l.00183-.00092.00091-.00152H.81446l.00092-.00095.00182-.00088H.81873l.00274-.00183.00183-.00061H.82391l.00183-.00091.00182-.00091A1.253,1.253,0,0,1,.99,17.92971l.00067-.00088L.99673,17.927l.03712-.00853.00426-.00095.00274-.00088.04479-.00853h0l.00793-.00183.02315-.00335.00189-.00092h.00512l.00792-.00152H1.135l.00426-.00091.00792-.00092.00427-.00091h.00335l.007-.00183h.00609l.00153-.00061h.00883l.00579-.00091h.00183l.007-.00092.01554-.00183H1.217l.007-.00091.00762-.00064h.00792l.00762-.00088h.00365l.00427-.00092H1.2706l.00761-.00091H12.57312l.00793.00091h.01559l.00421.00092h.00335l.00793.00088h.00761l.00792.00064.00671.00091h.008l.00756.00092h.00091l.007.00091.00762.00092h.00274l.0128.00091.00365.00061h.00427l.00762.00183h.00457l.00335.00091.00762.00092a1.27238,1.27238,0,0,1,.34644.0975V8.36248a.88115.88115,0,0,0-.87845-.87936H1.67128a.88167.88167,0,0,0-.87845.87936v9.6346Zm.5253,3.1119H12.53351a.88157.88157,0,0,0,.621-.25656V20.8509a.87675.87675,0,0,0,.25808-.62037v-1.025a.88066.88066,0,0,0-.77455-.87236h-.00457l-.00061-.00091-.02589-.00274h-.00518l-.00092-.00064h-.01462l-.00518-.00089h-.00518l-.00518-.00091H1.281l-.00518.00091H1.2706l-.00518.00089H1.25079l-.00183.00064H1.2386l-.0042.00091H1.2283l-.00432.00092-.00518.00091-.00183.00091H1.20661l-.00335.00092-.00792.00061-.00244.00091-.00421.00092H1.1826l-.00433.00091-.00457.00091-.00579.00092-.00518.00061h0L1.153,18.3417l-.00152.00091-.00366.00091H1.14262l-.01036.00244-.00146.00092-.03205.007H1.09783l-.00944.00336H1.08747l-.01828.00514-.00238.00095-.0028.00091-.01706.00518H1.04512l-.00853.00336H1.03567l-.00426.00179-.00518.00156h0L1.022,18.378l-.00457.00091-.00152.00091-.00366.00153-.00426.00183-.00183.00091-.00244.00091L.99,18.39014l-.00366.00153H.98479l-.00457.00183L.976,18.39624h0l-.00426.00152-.00518.00183-.00092.00091L.96224,18.402.958,18.40385H.95615l-.007.00424H.9467l-.00177.00186-.00432.00244H.93726l-.00183.00179L.93116,18.416l-.00335.00153-.00091.00091-.00427.0018-.00457.00277h0l-.00427.00244-.00847.00335L.901,18.43158l-.00092.00183L.89643,18.434l-.00579.00366-.00275.00088L.87144,18.448h0a.8502.8502,0,0,0-.13711.10085l-.00269.00274a.23586.23586,0,0,1-.02169.0189l-.0128.0131-.00091.00091a.87413.87413,0,0,0-.25747.621v1.025a.88167.88167,0,0,0,.87936.87845Zm8.00659-5.97425a.22.22,0,0,0-.2203.22027v1.43209a.21982.21982,0,0,0,.2203.21938h2.5997a.21884.21884,0,0,0,.21847-.21938V15.355a.219.219,0,0,0-.21847-.22027Zm2.3794.43965h-2.16v.99332h2.16v-.99332Zm-9.5569-1.28092h9.5569V9.13367H2.14722v5.15979Zm9.7772.43968a.21886.21886,0,0,0,.21847-.21938V8.91429a.21906.21906,0,0,0-.21847-.2203H1.92692a.21983.21983,0,0,0-.21938.2203v5.59947a.21963.21963,0,0,0,.21938.21938Zm-9.9975.40159a.2198.2198,0,0,0-.21938.22027v1.43209a.21961.21961,0,0,0,.21938.21938h2.6a.21982.21982,0,0,0,.21939-.21938V15.355a.22.22,0,0,0-.21939-.22027Zm2.3797.43965H2.14722v.99332h2.1594v-.99332Zm7.3975,5.97428h-2.16V23.162h2.16V21.54866Zm-7.3975,0H2.14722V23.162h2.1594Z" style="fill:#a1afba;fill-rule:evenodd"/></g></svg>