<svg xmlns="http://www.w3.org/2000/svg" viewBox="0 0 16.3968 19.37128"><title>windmill-icon-uc-santa-barbara</title><g id="ICONS"><path d="M8.6623,11.86135a.219.219,0,1,1,.43694-.02926l.49331,7.30518a.219.219,0,0,1-.20384.2334H9.37408v.00061H7.0237a.2192.2192,0,0,1-.21938-.21939l.00084-.02833.4924-7.29329a.21944.21944,0,1,1,.43785.03016L7.25855,18.9319H9.13916Z" style="fill:#a1afba;fill-rule:evenodd"/><path d="M5.51848,8.822a.219.219,0,0,1,.21939.379L1.554,11.617.48539,13.46711v.00153a.33557.33557,0,0,0,.11913.45187l.00092.00091.00091-.00091a.31982.31982,0,0,0,.16491.04235H2.909l4.18383-2.415a.21888.21888,0,0,1,.21847.37935L3.08265,14.36872a.21717.21717,0,0,1-.11488.032H.77126v.00092a.76205.76205,0,0,1-.38521-.10208h0a.75657.75657,0,0,1-.27971-.28246.74736.74736,0,0,1,0-.76848h0L1.19808,11.358a.22053.22053,0,0,1,.08623-.09171Z" style="fill:#a1afba;fill-rule:evenodd"/><path d="M9.99147,7.28384a.21851.21851,0,1,1-.437,0V2.45375L8.48436.60209A.32482.32482,0,0,0,8.36522.48021a.35284.35284,0,0,0-.33182,0L8.02311.48539a.36025.36025,0,0,0-.11067.11819L7.90634.614,6.84508,2.45283V7.28445a.21985.21985,0,1,1-.43969,0V2.39585h.00092a.21406.21406,0,0,1,.02834-.10877L7.5273.39638,7.53339.38362a.76482.76482,0,0,1,.26509-.273L7.81311.10116a.78444.78444,0,0,1,.77065,0,.77017.77017,0,0,1,.28056.283L9.9588,2.281a.21767.21767,0,0,1,.03267.11487Z" style="fill:#a1afba;fill-rule:evenodd"/><path d="M9.08652,11.92716a.21911.21911,0,1,1,.21938-.37935l4.18193,2.415h2.13869a.33481.33481,0,0,0,.16575-.04235l.00945-.00518a.34905.34905,0,0,0,.1554-.28246.32763.32763,0,0,0-.04479-.16488h-.00092l-1.06827-1.85193L10.66083,9.20193a.219.219,0,1,1,.21938-.37905l4.23326,2.44339a.2231.2231,0,0,1,.08007.08044l1.09783,1.9019h0a.77214.77214,0,0,1-.266,1.04241l-.01371.00853a.76177.76177,0,0,1-.38514.10208H13.42994v-.00092a.213.213,0,0,1-.11061-.02925Z" style="fill:#a1afba;fill-rule:evenodd"/><path d="M5.75669,10.7367a2.81,2.81,0,0,1,1.03659-3.827l.01279-.007a2.81131,2.81131,0,0,1,2.79844,4.87672l-.01287.007a2.81094,2.81094,0,0,1-3.827-1.03567l-.00792-.014Zm.15022-2.00614a2.36948,2.36948,0,0,0,.23065,1.79133l.0061.00853a2.37363,2.37363,0,0,0,3.232.8757l.00951-.0067a2.37287,2.37287,0,0,0-2.363-4.11558L7.01266,7.289A2.36565,2.36565,0,0,0,5.90691,8.73056Z" style="fill:#a1afba;fill-rule:evenodd"/><path d="M7.00047,10.01913a1.37576,1.37576,0,1,1,1.8864.51738l-.014.0067a1.37456,1.37456,0,0,1-1.86537-.50945l-.007-.01463Zm.29282-.91748a.93956.93956,0,0,0,.08806.70328l.00518.00853a.94049.94049,0,0,0,1.27212.34888l.00883-.00518A.93781.93781,0,1,0,7.29329,9.10165Z" style="fill:#a1afba;fill-rule:evenodd"/></g></svg>