<svg xmlns="http://www.w3.org/2000/svg" viewBox="0 0 18.26491 20.30335"><title>add-user-icon-uc-santa-barbara</title><g id="ICONS"><path d="M16.64879,15.44309a.21984.21984,0,1,1,0,.43968H13.84524v2.80354a.2203.2203,0,1,1-.44059,0V15.88277H10.60111a.21984.21984,0,1,1,0-.43968h2.80354V12.63858a.2203.2203,0,0,1,.44059,0v2.80451Zm-6.50625-3.87182a5.09836,5.09836,0,0,1-2.41841.96468,4.04649,4.04649,0,0,1-2.6716-.97443l-.42384.27667a2.59089,2.59089,0,0,0,1.04756.85219,4.57314,4.57314,0,0,0,1.91747.43267A4.23711,4.23711,0,0,0,9.41,12.69135a3.26187,3.26187,0,0,0,1.14262-.86632l-.41012-.25376ZM5.30665,11.205A14.06391,14.06391,0,0,0,5.4267,9.78939a4.34626,4.34626,0,0,0,.65815.4732,3.00665,3.00665,0,0,0,1.50887.43968,3.01135,3.01135,0,0,0,1.5107-.43968,4.34823,4.34823,0,0,0,.64688-.46381v.00767c.03115.46223.07252,1.0634.138,1.40614a4.69609,4.69609,0,0,1-2.191.88551A3.64942,3.64942,0,0,1,5.30665,11.205Zm4.54916,1.74806A4.61735,4.61735,0,0,0,8.98346,15.661h0a4.61549,4.61549,0,0,0,.69441,2.44582h-8.36a.87625.87625,0,0,1-.62014-.25655l-.00183-.00153a.87806.87806,0,0,1-.25716-.62006V14.85679a2.12367,2.12367,0,0,1,.97839-1.6956,7.43065,7.43065,0,0,1,2.80452-1.14445A2.989,2.989,0,0,0,5.4852,13.08532a5.04232,5.04232,0,0,0,2.10852.47594,4.68406,4.68406,0,0,0,2.00645-.475c.08806-.04241.17337-.08745.25564-.13316ZM5.01018,9.38414c-.00579.09842-.0128.22877-.02065.37234a12.95961,12.95961,0,0,1-.11921,1.401l-.62189.40586A7.97694,7.97694,0,0,0,1.15481,12.8114,2.53677,2.53677,0,0,0,0,14.85679v2.37184a1.31288,1.31288,0,0,0,.38423.9275l.00274.00244h0l.00061.00092a1.31614,1.31614,0,0,0,.93032.387H9.98714a4.74137,4.74137,0,0,0,.35223.3955,4.64012,4.64012,0,0,0,7.92371-3.27673h.00183v-.001h-.00183a4.63666,4.63666,0,0,0-4.63722-4.64144V11.0219H13.625v.00091a4.613,4.613,0,0,0-2.30871.61306c-.04845-.01194-.10025-.02413-.15875-.03718-.06825-.01554-.13925-.032-.21177-.04661l-.61823-.38088a12.96513,12.96513,0,0,1-.13834-1.39309c-.00944-.13985-.01828-.26783-.02681-.3766.1036-.11158.20384-.22883.29891-.35071a6.09728,6.09728,0,0,0,.92415-1.66336,5.22393,5.22393,0,0,0,.33152-1.78188V5.57692a.27773.27773,0,0,0-.00335-.0387l.00182-.08836.00244-.12158c0-.32146.00427-.56491.00884-.8041C11.77329,1.95983,11.8087,0,7.59372,0c-4.214,0-4.17865,1.95983-4.132,4.52418.00434.23919.00853.48264.00853.8041l.00275.11731v.00609l.00243.08563a.21126.21126,0,0,0-.00328.03961v.02864A5.22307,5.22307,0,0,0,3.803,7.38744,6.083,6.083,0,0,0,4.72711,9.0508c.0905.11578.18465.2273.28307.33334Zm1.294.4994a2.583,2.583,0,0,0,1.28949.38,2.58853,2.58853,0,0,0,1.29132-.38,4.43906,4.43906,0,0,0,1.2316-1.10393,5.64573,5.64573,0,0,0,.85772-1.54269,4.98856,4.98856,0,0,0,.28307-1.22276l-.30135-.92964-.00426-.01188a3.23731,3.23731,0,0,1-.09073-.54237c-.01378-.15722-.01714-.32577-.02079-.489a3.53222,3.53222,0,0,0-.03779-.54419.91379.91379,0,0,0-.16941-.40921.6168.6168,0,0,0-.53566-.241A3.853,3.853,0,0,0,9.201,3.022l-.00609.00183a6.06432,6.06432,0,0,1-1.6012.2721A5.98717,5.98717,0,0,1,6.0035,3.02567a.134.134,0,0,1-.02834-.007,3.81937,3.81937,0,0,0-.88454-.17185.62021.62021,0,0,0-.53719.241.91328.91328,0,0,0-.16667.40921,3.46242,3.46242,0,0,0-.039.54419c-.00335.16327-.00671.33085-.02164.489V4.5318h0a3.238,3.238,0,0,1-.08958.54084l-.00457.0128h0l-.30043.92592A4.97958,4.97958,0,0,0,4.214,7.23692a5.64569,5.64569,0,0,0,.8578,1.54269c.10017.12859.20621.25133.3159.36711h0l.00183.001.01036.011a4.1718,4.1718,0,0,0,.90434.72488Zm4.987-5.494c-.00792-.12614-.01036-.24193-.0131-.35589a3.98182,3.98182,0,0,0-.04388-.61153,1.33593,1.33593,0,0,0-.25229-.60026,1.02258,1.02258,0,0,0-.88606-.41287,4.11032,4.11032,0,0,0-1.00886.18892h0l-.00183.00086h0a5.70124,5.70124,0,0,1-1.49151.25844,5.70744,5.70744,0,0,1-1.49-.25844l-.01219-.0033A4.04918,4.04918,0,0,0,5.09244,2.409a1.02358,1.02358,0,0,0-.887.41287,1.355,1.355,0,0,0-.25229.60026,3.93881,3.93881,0,0,0-.04228.61153c-.00342.113-.00609.22878-.01378.35406C3.85719,2.14021,3.89619.43877,7.59372.43877c3.69936,0,3.73661,1.70235,3.69753,3.95073ZM10.25741,18.18021a.1594.1594,0,0,1,.02254.02955,4.33908,4.33908,0,0,0,.37052.42414,4.20333,4.20333,0,0,0,7.17567-2.96868h-.00091v-.001h.00091a4.20389,4.20389,0,0,0-4.20028-4.2045v.00092H13.625v-.00092a4.18932,4.18932,0,0,0-2.1524.59173.11935.11935,0,0,1-.02072.0128A4.2036,4.2036,0,0,0,9.4204,15.661h0A4.18541,4.18541,0,0,0,10.25741,18.18021Z" style="fill:#a1afba;fill-rule:evenodd"/></g></svg>