<svg xmlns="http://www.w3.org/2000/svg" viewBox="0 0 20.30945 22.40126"><title>buildings-icon-uc-santa-barbara</title><g id="ICONS"><path d="M6.96147,20.712h6.388V7.446a.33029.33029,0,0,0-.32969-.33H7.29055a.327.327,0,0,0-.23218.09689l-.00945.00848a.33008.33008,0,0,0-.08745.22462V20.712Zm-6.74209,0H2.48574V12.18347a.76722.76722,0,0,1,.22548-.54237h0a.7669.7669,0,0,1,.54419-.22639h.60727V10.04326a.21963.21963,0,0,1,.21938-.21939h2.44V7.446a.76967.76967,0,0,1,.21147-.52932l.01371-.014a.76832.76832,0,0,1,.54328-.22548h.59081V4.95508a.21963.21963,0,0,1,.21938-.21938h.86565V3.01445a.21919.21919,0,0,1,.22-.21939h.749V.21938a.21984.21984,0,0,1,.43968,0V2.79506h.749a.21919.21919,0,0,1,.22.21939V4.7357h.86565a.21963.21963,0,0,1,.21938.21938V6.67724h.59081a.76933.76933,0,0,1,.76846.76876v6.35689a.75534.75534,0,0,1,.33-.0749h2.979a.76931.76931,0,0,1,.76876.76937V20.712H20.091a.21828.21828,0,0,1,.21847.21938v1.2514a.21808.21808,0,0,1-.21847.21847H.21938A.21885.21885,0,0,1,0,22.18279v-1.2514A.219.219,0,0,1,.21938,20.712Zm19.6513.43877H.43968v.81172h19.431v-.81172ZM8.68394,11.81905a.21984.21984,0,0,1,0-.43968h2.94248a.21984.21984,0,0,1,0,.43968Zm0-2.31206a.2203.2203,0,0,1,0-.4406h2.94248a.2203.2203,0,0,1,0,.4406Zm0,9.25372a.21938.21938,0,1,1,0-.43876h2.94248a.21938.21938,0,1,1,0,.43876Zm0-2.3148a.21984.21984,0,0,1,0-.43968h2.94248a.21984.21984,0,0,1,0,.43968Zm0-2.31206a.21984.21984,0,0,1,0-.43968h2.94248a.21984.21984,0,0,1,0,.43968Zm5.10433,4.1881h2.12558a.21938.21938,0,1,1,0,.43876H13.78827V20.712h3.639V14.49736a.33081.33081,0,0,0-.33-.33h-2.979a.3297.3297,0,0,0-.2331.09689l-.00091-.00091a.33192.33192,0,0,0-.096.22974v1.51314h2.12558a.2203.2203,0,1,1,0,.44059H13.78827V18.322Zm-9.70621.43876a.21938.21938,0,1,1,0-.43876h2.44V16.44682h-2.44a.2203.2203,0,0,1,0-.44059h2.44V14.13385h-2.44a.21984.21984,0,0,1,0-.43968h2.44v-1.515a.331.331,0,0,0-.32572-.32481h-2.941a.327.327,0,0,0-.23309.0969H3.0214a.33.33,0,0,0-.096.23218V20.712H6.52209v-1.9513Zm2.44-8.49807H4.30144v1.15207H6.52209V10.26264Zm4.3825-5.52694V3.23383H9.40577V4.7357Zm1.08473.43968H8.321V6.67724h3.66828Z" style="fill:#a1afba;fill-rule:evenodd"/></g></svg>