<svg xmlns="http://www.w3.org/2000/svg" viewBox="0 0 18.22896 18.22774"><title>clock-icon-uc-santa-barbara</title><g id="ICONS"><path d="M9.11478.43877A8.6741,8.6741,0,1,0,15.249,2.97966,8.6499,8.6499,0,0,0,9.11478.43877Zm-.943,9.95606a.21966.21966,0,1,1-.31019-.3111l.55212-.55181L4.82918,6.85447a.21953.21953,0,0,1-.04479-.30774L5.427,5.68661a.21959.21959,0,0,1,.30745-.04484L8.72111,7.87191l-.05606-.40068a.2192.2192,0,1,1,.43419-.06063l.11488.83091.28093.209,3.68016-3.68021a.21987.21987,0,1,1,.3111.31079L9.85,8.71563l.46558.34827a.22.22,0,0,1,.0448.30653l-.64353.86108a.22259.22259,0,0,1-.2142.08562l.6359,4.57506a.21927.21927,0,1,1-.4345.05942L9.01393,9.98013l-.24529-.18226-.5969.597Zm1.32483-.60209L8.885,9.3366l-.0128-.01036L5.267,6.63422l.38087-.50884L9.37743,8.91094l.014.01036.48539.36259-.38027.50885Zm4.6098-5.67015.00092-.00092a7.09008,7.09008,0,0,1,1.9321,6.3734,7.00861,7.00861,0,0,1-1.05122,2.53906,7.15547,7.15547,0,0,1-.87052,1.06l-.01128.011A7.02622,7.02622,0,0,1,11.815,15.63932l.00061.00091a7.05313,7.05313,0,0,1-6.61929-.65236,7.1919,7.1919,0,0,1-1.06158-.86961l-.01218-.01311a7.16923,7.16923,0,0,1-.88181-1.07163,7.01282,7.01282,0,0,1-.65022-1.21879,6.93,6.93,0,0,1-.40007-1.31966,7.14507,7.14507,0,0,1,0-2.76149A6.958,6.958,0,0,1,2.59056,6.413a7.038,7.038,0,0,1,.65022-1.21788,7.1519,7.1519,0,0,1,.88089-1.07254l.00092-.00092A7.05959,7.05959,0,0,1,6.41484,2.58842h0a7.01158,7.01158,0,0,1,1.32-.3989,7.10092,7.10092,0,0,1,4.06987.39372l.01036.00518a7.02622,7.02622,0,0,1,2.29134,1.53417ZM13.27789,2.877a7.55486,7.55486,0,0,1,1.13867.93452v.00183a7.54038,7.54038,0,0,1,.93512,1.13744,7.5,7.5,0,0,1,1.11855,2.69811,7.59972,7.59972,0,0,1,0,2.9306A7.46735,7.46735,0,0,1,15.35168,13.277a7.61245,7.61245,0,0,1-.92324,1.12708l-.01188.01219a7.56092,7.56092,0,0,1-1.13867.93452,7.48062,7.48062,0,0,1-1.29466.69344h-.00092a7.43734,7.43734,0,0,1-1.40253.42511,7.5633,7.5633,0,0,1-2.92969,0,7.46116,7.46116,0,0,1-2.6975-1.11764,7.5956,7.5956,0,0,1-1.12891-.92415l-.011-.01128A7.50618,7.50618,0,0,1,1.75964,7.64974a7.41371,7.41371,0,0,1,.42475-1.40248A7.49,7.49,0,0,1,3.81271,3.81332l.00061-.00183A7.55484,7.55484,0,0,1,6.24665,2.18343v.001l.00061-.001a7.428,7.428,0,0,1,1.40375-.425,7.51772,7.51772,0,0,1,4.32033.41988l.01189.00513a7.4879,7.4879,0,0,1,1.29466.69354ZM2.66978,2.66978A9.112,9.112,0,1,1,0,9.11387,9.0864,9.0864,0,0,1,2.66978,2.66978Z" style="fill:#a1afba;fill-rule:evenodd"/></g></svg>