<svg xmlns="http://www.w3.org/2000/svg" viewBox="0 0 18.67687 17.23777"><title>communication-icon-uc-santa-barbara</title><g id="ICONS"><path d="M3.57327,12.58312a2.03276,2.03276,0,0,0,.58649,1.36664,1.80207,1.80207,0,0,0,1.30746.53718l1.915-.025a.217.217,0,0,1,.22.21572v.00275h.00092v.9016l2.96016-1.99151L7.60317,11.59869v.90521a.219.219,0,0,1-.21938.21939H6.10557A5.26382,5.26382,0,0,1,4.30205,12.326a3.56133,3.56133,0,0,1-.7523-.4086l.02352.66571Zm11.45451-3.4269a2.3261,2.3261,0,0,1,1.64453,3.97115h0v.00092a2.332,2.332,0,0,1-.551.40854,3.64931,3.64931,0,0,1,2.55552,3.48156.21983.21983,0,0,1-.2203.21938h-6.856a.21983.21983,0,0,1-.2203-.21938,3.64874,3.64874,0,0,1,2.554-3.48059,2.32723,2.32723,0,0,1,1.09356-4.38158Zm1.33373.99235a1.88721,1.88721,0,1,0-1.33373,3.22165h.00183a1.87945,1.87945,0,0,0,1.3319-.55273l.00055.00061a1.88881,1.88881,0,0,0-.00055-2.66953Zm.93689,4.601a3.20219,3.20219,0,0,0-2.26879-.93964h-.00183a3.20739,3.20739,0,0,0-3.19995,2.9891h6.40265a3.20432,3.20432,0,0,0-.93208-2.04946ZM3.64664,0A2.32562,2.32562,0,0,1,5.292,3.97024l-.00091.00091.00091.00091a2.30672,2.30672,0,0,1-.5512.40769A3.65183,3.65183,0,0,1,7.2967,7.86125a.22008.22008,0,0,1-.22036.2203H.21938A.21983.21983,0,0,1,0,7.86125,3.65081,3.65081,0,0,1,2.554,4.38061,2.32647,2.32647,0,0,1,3.64664,0ZM4.981.99149A1.88752,1.88752,0,1,0,3.64664,4.214h.00153A1.88286,1.88286,0,0,0,4.981,3.66127l.00086.00061A1.89022,1.89022,0,0,0,4.981.99149Zm.93629,4.601a3.20059,3.20059,0,0,0-2.2691-.9397H3.64664A3.21,3.21,0,0,0,.44638,7.64187h6.403a3.20071,3.20071,0,0,0-.93207-2.04941Zm8.84786-.153a2.02785,2.02785,0,0,0-.58563-1.36536A1.808,1.808,0,0,0,12.872,3.536l-1.91412.0259a.21966.21966,0,0,1-.22182-.21695V3.34255h-.00091V2.44064L7.77593,4.43338l2.95925,1.99243V5.519a.21885.21885,0,0,1,.21938-.21847h1.27828a5.257,5.257,0,0,1,1.80345.39733,3.55781,3.55781,0,0,1,.7523.40769l-.02346-.66607ZM14.48968,3.763a2.2379,2.2379,0,0,0-1.62283-.66425l-1.692.02164V2.02869a.22017.22017,0,0,0-.35681-.17185L7.26221,4.25117a.22024.22024,0,0,0-.06064.30378.2418.2418,0,0,0,.06125.06064l3.57077,2.40372a.21922.21922,0,0,0,.34035-.18216h.00092V5.73932h1.058a4.79631,4.79631,0,0,1,1.63739.36351,2.02622,2.02622,0,0,1,.96742.67125.21929.21929,0,0,0,.299.08014.21688.21688,0,0,0,.10872-.19684h.001L15.203,5.42487A2.46951,2.46951,0,0,0,14.48968,3.763Zm-10.641,10.4969a2.47794,2.47794,0,0,1-.7133-1.66183L3.093,11.3656h0a.21844.21844,0,0,1,.4086-.11487,2.02034,2.02034,0,0,0,.96711.66912,4.76278,4.76278,0,0,0,1.63685.36381H7.1644V11.18583h.00092a.21761.21761,0,0,1,.34034-.1813l3.57047,2.40286a.22741.22741,0,0,1,.06064.06125.21779.21779,0,0,1-.06064.30317L7.5212,16.16523a.2196.2196,0,0,1-.3568-.17124V14.90225l-1.692.02255A2.23933,2.23933,0,0,1,3.84866,14.25994Z" style="fill:#a1afba;fill-rule:evenodd"/></g></svg>