<svg xmlns="http://www.w3.org/2000/svg" viewBox="0 0 15.95377 17.23625"><title>contacts-book-icon-uc-santa-barbara</title><g id="ICONS"><path d="M3.62867,14.81449a.21939.21939,0,1,1,0,.43877H1.75781v.66516a.87454.87454,0,0,0,.25656.62006l.00152.00183a.87756.87756,0,0,0,.62037.25651H14.63571a.8816.8816,0,0,0,.87929-.8784V1.31808a.87582.87582,0,0,0-.25747-.62093h-.00061a.87681.87681,0,0,0-.62121-.25747H2.63626a.8801.8801,0,0,0-.87845.8784V2.029H3.62867a.21939.21939,0,1,1,0,.43877H1.75781V14.81449Zm6.4319-6.15828a3.65347,3.65347,0,0,1,2.554,3.48175.219.219,0,0,1-.2184.22005H5.53822a.21977.21977,0,0,1-.21938-.22005,3.65377,3.65377,0,0,1,2.5549-3.48175,2.3274,2.3274,0,1,1,2.739-.40952h0v.00092a2.291,2.291,0,0,1-.55212.4086ZM11.2361,9.86983a3.19305,3.19305,0,0,1,.933,2.04874H5.76553A3.20846,3.20846,0,0,1,11.2361,9.86983ZM10.30159,5.268a1.88926,1.88926,0,0,1,.00091,2.66978h-.00091a1.88761,1.88761,0,1,1,0-2.66978ZM1.31813,15.25326H.21877a.21939.21939,0,0,1,0-.43877H1.31813V2.46776H.21877a.21939.21939,0,0,1,0-.43877H1.31813V1.31808A1.32121,1.32121,0,0,1,2.63626,0H14.63571a1.313,1.313,0,0,1,.93017.387l.00183.00091a1.31548,1.31548,0,0,1,.38606.9302V15.91842a1.31913,1.31913,0,0,1-1.31806,1.31783H2.63626a1.31124,1.31124,0,0,1-.92781-.38423L1.706,16.84958h0l-.00091-.001a1.31714,1.31714,0,0,1-.387-.93019Z" style="fill:#a1afba;fill-rule:evenodd"/></g></svg>