<svg xmlns="http://www.w3.org/2000/svg" viewBox="0 0 19.53642 12.74162"><title>envelope-icon-uc-santa-barbara</title><g id="ICONS"><path d="M19.08638,11.55908,13.404,7.26373,9.90274,9.91035a.21946.21946,0,0,1-.26692.00183L6.13238,7.26373.45,11.55908a.88357.88357,0,0,0,.2462.48539H.69807a.86669.86669,0,0,0,.62006.25747H18.21867a.881.881,0,0,0,.86771-.74286Zm-5.816-4.74447L9.76775,9.46275,6.26737,6.81552l-.00793-.00609L.43968,2.40987V1.319A.88222.88222,0,0,1,1.31813.43968H18.21867a.87472.87472,0,0,1,.62.25747l.0016.00092a.879.879,0,0,1,.25648.621V2.40987l-5.8203,4.40047-.00609.00427Zm.4975.17367,5.32889-4.02843v8.05687L13.76785,6.98828ZM.43968,2.95985l5.3292,4.02843L.43968,11.01672V2.95985ZM1.31813,0H18.21867a1.31431,1.31431,0,0,1,.92987.387l.00091.00091a1.314,1.314,0,0,1,.387.93116V11.42349a1.32121,1.32121,0,0,1-1.31775,1.31813H1.31813a1.31975,1.31975,0,0,1-.92842-.38453l-.00183-.00244H.387A1.31471,1.31471,0,0,1,0,11.42349V1.319A1.32121,1.32121,0,0,1,1.31813,0Z" style="fill:#a1afba;fill-rule:evenodd"/></g></svg>