<svg xmlns="http://www.w3.org/2000/svg" viewBox="0 0 18.41025 17.76246"><title>fax-icon-uc-santa-barbara</title><g id="ICONS"><path d="M17.09212,9.52089H4.40352V16.491l-.00092.00452v.0162l-.00091.01036v.00609l-.00084.01036-.001.007L4.399,16.554V16.562L4.398,16.5686l-.00061.01041-.00091.00518-.00091.01066L4.39476,16.6l-.00191.011v.00366l-.00243.01371v.00183l-.00176.01371v.00183l-.00251.01462-.00274.01554-.00084.00092-.0016.01366-.00091.00279-.00183.01188-.00153.00361-.00274.0165-.00244.01036-.00182.00579-.00183.00884-.00152.0067-.00183.00793-.00275.00853-.00053.007-.00373.00853-.00092.00512-.00243.01042-.00183.00457-.00328.011-.001.00274-.00335.0128-.00091.00182-.00427.01311V16.852l-.00518.01407h0l-.00426.01462-.00092.00092-.00518.01279v.00275l-.00426.011-.00183.00366-.00427.01031-.00091.00523-.00427.00853-.00274.0061-.00236.00792-.00373.0067-.00336.007-.00243.00762-.00267.00609-.00343.00878-.00266.00432-.00435.01036-.00274.00335-.00426.01036-.00153.00336-.00518.01127-.00183.00269-.00609.01133v.00152l-.007.0131-.00761.0128v.00086l-.007.01219-.00092.00188-.00579.011-.00182.00274-.0061.01036-.00175.00335-.00526.00884-.00335.00518-.00426.00762-.00427.00609-.00419.00609-.00373.007-.00427.00584-.00762.01219-.00609.00853-.00267.00366-.00769.01188-.00792.01036-.00092.00183-.00853.01127v.00092l-.00845.01188h-.001l-.00884.01127v.00092l-.00846.01127-.0019.00178-.0067.0095-.00274.00243-.00671.00884-.00274.00427-.007.00761-.00335.00457-.00609.00579-.00945.01128-.0051.00609-.00435.00518H17.09212a.88155.88155,0,0,0,.87937-.87845V10.3994A.87879.87879,0,0,0,17.714,9.779l-.00084-.00092a.87726.87726,0,0,0-.62106-.25722Zm-.02407-5.40166a.22214.22214,0,0,1,.07587.16759l-.00053.0198-.00373,4.77647a1.31518,1.31518,0,0,1,.88363.38514V9.4691a1.31272,1.31272,0,0,1,.387.9303v6.04493a1.32119,1.32119,0,0,1-1.31813,1.31813H1.31813a1.31618,1.31618,0,0,1-.93017-.387v-.00091H.387l-.00244-.00244A1.31861,1.31861,0,0,1,0,16.44433V4.7134a.21988.21988,0,0,1,.43976,0V6.64733a1.30963,1.30963,0,0,1,.87837-.33761H3.08539a1.31622,1.31622,0,0,1,.93116.38661l.00061.001a1.3145,1.3145,0,0,1,.38636.93116V9.08127h.607v-7.764A1.32016,1.32016,0,0,1,6.32861,0h0l6.51326.00091L12.86167,0a.21658.21658,0,0,1,.16667.07709l4.03971,4.04214Zm-.3629.387H13.96042a1.3109,1.3109,0,0,1-.93025-.387h-.00091l-.00092-.00091-.00144-.00183a1.31409,1.31409,0,0,1-.38461-.92842V.43816H6.32861V.43877h0V.43816a.88167.88167,0,0,0-.87845.87906V9.08127H16.7018l.00335-4.57507ZM13.082.74987v2.4382a.87345.87345,0,0,0,.25656.621h.00091a.87425.87425,0,0,0,.621.25747h2.43486L13.082.74987ZM3.08539,6.7491H1.31813a.88048.88048,0,0,0-.87837.87936v8.81587a.87327.87327,0,0,0,.25739.62037v.00056a.87731.87731,0,0,0,.621.25752H3.08539a.88167.88167,0,0,0,.87936-.87845V7.62846a.87763.87763,0,0,0-.25747-.621l-.00091-.00091a.87657.87657,0,0,0-.621-.25747Zm3.047,4.91632a.21938.21938,0,1,1,0-.43876H7.20523a.21938.21938,0,1,1,0,.43876Zm0,1.9254a.2203.2203,0,0,1,0-.4406H7.20523a.2203.2203,0,0,1,0,.4406Zm0,1.926a.21985.21985,0,1,1,0-.43969H7.20523a.21985.21985,0,1,1,0,.43969Zm1.71028-3.85141a.21938.21938,0,1,1,0-.43876H8.91551a.21938.21938,0,1,1,0,.43876Zm0,1.9254a.2203.2203,0,0,1,0-.4406H8.91551a.2203.2203,0,1,1,0,.4406Zm0,1.926a.21985.21985,0,1,1,0-.43969H8.91551a.21985.21985,0,1,1,0,.43969Zm1.71089,0a.21985.21985,0,1,1,0-.43969h1.07193a.21985.21985,0,1,1,0,.43969Zm0-1.926a.2203.2203,0,0,1,0-.4406h1.07193a.2203.2203,0,0,1,0,.4406Zm7.36764,1.926H12.94882a.22.22,0,0,1-.21939-.2203V11.446a.21944.21944,0,0,1,.21939-.21938h3.97237a.21847.21847,0,0,1,.21847.21938v3.85049a.21906.21906,0,0,1-.21847.2203Zm-3.75207-.43969V11.66542h3.53177v3.41172ZM9.55355,11.66542a.21938.21938,0,1,1,0-.43876h1.07193a.21938.21938,0,1,1,0,.43876Z" style="fill:#a1afba;fill-rule:evenodd"/></g></svg>