<svg xmlns="http://www.w3.org/2000/svg" viewBox="0 0 17.94292 20.56235"><title>headset-icon-uc-santa-barbara</title><g id="ICONS"><path d="M11.66786,18.67778H10.34394v1.44489h1.32392V18.67778ZM8.97127,0a7.8377,7.8377,0,0,1,7.83657,7.83565v.71666a1.32,1.32,0,0,1,.74811.37417l.00084.00091a1.31159,1.31159,0,0,1,.38613.92995V13.9394a1.31821,1.31821,0,0,1-1.31821,1.31813h-1.16v.784a3.57827,3.57827,0,0,1-3.35809,3.57169v.72884a.21984.21984,0,0,1-.21939.2203H10.12517a.22.22,0,0,1-.22-.2203V18.45748a.21977.21977,0,0,1,.22-.21938h1.76207a.21964.21964,0,0,1,.21939.21938v.71508a3.13862,3.13862,0,0,0,2.91933-3.131v-.15875a.21639.21639,0,0,1-.12006.03535h-1.762a.21979.21979,0,0,1-.22007-.21939V8.09891a.22.22,0,0,1,.22007-.22029h1.762l.02963.00177V7.83565a5.96362,5.96362,0,0,0-11.92723,0v.04474l.02834-.00177h1.763a.21983.21983,0,0,1,.21938.22029v7.59982a.21964.21964,0,0,1-.21938.21939h-1.763a.21984.21984,0,0,1-.21939-.21939v-.4412H1.31813A1.31369,1.31369,0,0,1,.38941,14.873L.387,14.87147v-.00091l-.00084-.00092A1.31362,1.31362,0,0,1,0,13.9394V9.85734a1.32,1.32,0,0,1,1.13569-1.305V7.83565A7.8381,7.8381,0,0,1,8.97127,0Zm5.22994,2.60579A7.39616,7.39616,0,0,0,1.5753,7.83565v.70386h.99332V7.83565a6.40284,6.40284,0,1,1,12.80568,0v.70386h.99386V7.83565a7.37291,7.37291,0,0,0-2.16695-5.22986Zm2.4235,6.3734H15.12529v5.83957h1.49942a.88075.88075,0,0,0,.87944-.87936V9.85734a.88188.88188,0,0,0-.25663-.621h-.00091a.87921.87921,0,0,0-.6219-.25711ZM14.68652,8.3183H13.36328v7.16105h1.32324V8.3183ZM2.81725,8.97919H1.31813a.87961.87961,0,0,0-.87936.87815V13.9394a.87636.87636,0,0,0,.25747.621l.00068.00092a.87643.87643,0,0,0,.62121.25747H2.81725V8.97919ZM4.57933,8.3183H3.25693v7.16105h1.3224Z" style="fill:#a1afba;fill-rule:evenodd"/></g></svg>