<svg xmlns="http://www.w3.org/2000/svg" viewBox="0 0 15.9105 17.0541"><title>house-icon-uc-santa-barbara</title><g id="ICONS"><path d="M.22365,14.9666H1.64111V8.56974H.21938A.21964.21964,0,0,1,0,8.35035V7.04715a.218.218,0,0,1,.089-.17642L7.7674.05521A.21867.21867,0,0,1,8.05687.0543h.00091L15.831,6.89419a.21509.21509,0,0,1,.07526.16424h0V8.35035a.21964.21964,0,0,1-.21938.21939H14.27213V14.9666H15.6902a.22055.22055,0,0,1,.2203.22v1.64812a.21987.21987,0,0,1-.2203.21939H.22365a.2198.2198,0,0,1-.22-.21939V15.18659a.22047.22047,0,0,1,.22-.22Zm1.85714,0H5.445V8.70533a.21964.21964,0,0,1,.21939-.21939h4.57232a.22043.22043,0,0,1,.2203.21939V14.9666h3.37637V8.35035a.22062.22062,0,0,1,.2203-.2203h1.4138V7.15776L7.91244.51135.43968,7.14466v.98539H1.86141a.22042.22042,0,0,1,.21938.2203V14.9666Zm3.80387,0H10.0173v-6.041H5.88466v6.041Zm4.36422.44029H.443v1.20844H15.47082V15.40689H10.24888Z" style="fill:#a1afba;fill-rule:evenodd"/></g></svg>