<svg xmlns="http://www.w3.org/2000/svg" viewBox="0 0 15.05635 14.59065"><title>information-icon-uc-santa-barbara</title><g id="ICONS"><path d="M6.67286,8.23372V7.73079H7.2378V4.7137H6.65723V4.18782H7.87989v3.543H8.46v.50293ZM7.083,2.91145a.441.441,0,0,1,.88184,0,.44092.44092,0,1,1-.88184,0Z" style="fill:#a1afba"/><path d="M14.707.34928A1.17893,1.17893,0,0,0,13.86993,0H1.18628A1.19245,1.19245,0,0,0,0,1.18642v9.26266a1.19259,1.19259,0,0,0,1.18628,1.1865h.07837L.7587,14.35778c0,.012-.00588.03007-.00588.042a.22251.22251,0,0,0,.042.11447.19917.19917,0,0,0,.277.03609l3.84246-2.91481h8.95559a1.179,1.179,0,0,0,.83706-.34936,1.19353,1.19353,0,0,0,.34936-.83714V1.18642A1.179,1.179,0,0,0,14.707.34928Zm-.04808,10.0998a.79166.79166,0,0,1-.789.78892H4.848a.20329.20329,0,0,0-.13248.05425l-3.475,2.63788L1.69222,11.473a.18988.18988,0,0,0-.15659-.22893c-.01206,0-.02411-.006-.03617-.006H1.18628a.76306.76306,0,0,1-.554-.22879h-.006a.8134.8134,0,0,1-.22879-.56013V1.18642A.79272.79272,0,0,1,.63225.62629a.76315.76315,0,0,1,.554-.22886H13.86993a.76288.76288,0,0,1,.554.22886h.006a.81356.81356,0,0,1,.22893.56013Z" style="fill:#a1afba;fill-rule:evenodd"/></g></svg>