<svg xmlns="http://www.w3.org/2000/svg" viewBox="0 0 24.64715 15.8069"><title>laptop-icon-uc-santa-barbara</title><g id="ICONS"><path d="M.76784,15.36722H23.87847a.3299.3299,0,0,0,.32907-.32908v-.47228a.33045.33045,0,0,0-.09666-.23249l-.00792-.00858a.32574.32574,0,0,0-.22449-.088H.76784a.326.326,0,0,0-.23218.09568.32987.32987,0,0,0-.09689.2334v.47228a.32864.32864,0,0,0,.09689.2331v-.00061a.33016.33016,0,0,0,.23218.09659ZM2.49122,0h19.6641a.76481.76481,0,0,1,.54236.22456h.00092A.76471.76471,0,0,1,22.925.76784V13.7971h.95348a.76348.76348,0,0,1,.52858.21238l.01462.0131a.76723.76723,0,0,1,.22548.54328v.47228a.76984.76984,0,0,1-.76868.76876H.76784a.76992.76992,0,0,1-.5432-.22548l.00084-.00091H.22464A.76562.76562,0,0,1,0,15.03814v-.47228a.7671.7671,0,0,1,.22464-.54272l.00084-.00056a.7681.7681,0,0,1,.54236-.22548h.95463V.76784A.767.767,0,0,1,1.94794.22548L1.94947.22456A.76337.76337,0,0,1,2.49122,0Zm19.6641.43877H2.49122a.32874.32874,0,0,0-.32907.32907V13.7971H22.48439V.76784a.32747.32747,0,0,0-.0959-.23218V.53475a.332.332,0,0,0-.23317-.096ZM8.62361,14.98452a.21969.21969,0,0,1,0-.43938h7.25154a.21969.21969,0,1,1,0,.43938ZM3.05339,1.05548a.22.22,0,0,0-.22029.2203V12.961a.21905.21905,0,0,0,.22029.21847H21.59322a.219.219,0,0,0,.21992-.21847V1.27578a.22.22,0,0,0-.21992-.2203Zm18.321.43877H3.27278V12.74071H21.37437Z" style="fill:#a1afba;fill-rule:evenodd"/></g></svg>