<svg xmlns="http://www.w3.org/2000/svg" viewBox="0 0 19.89048 19.4258"><title>map-icon-uc-santa-barbara</title><g id="ICONS"><path d="M6.484,1.22032,1.42782.59173a.84315.84315,0,0,0-.692.21237.88827.88827,0,0,0-.22274.29617.88531.88531,0,0,0-.07343.3629V17.95412a.87738.87738,0,0,0,.075.36533.85755.85755,0,0,0,.224.29526.859.859,0,0,0,.3239.18312l.01615.0061a.88338.88338,0,0,0,.35528.02163L6.484,18.15943V12.88575l-1.1213,1.47017a1.07854,1.07854,0,0,1,.135.29337,1.3385,1.3385,0,0,1-.06672.87942L5.43,15.52962a1.32439,1.32439,0,0,1-.58472.66.94392.94392,0,0,1-.798.0646.266.266,0,0,1-.04387-.01889.9447.9447,0,0,1-.51159-.61763,1.3815,1.3815,0,0,1,.65236-1.53995.94139.94139,0,0,1,.81964-.05612c.0259.011.05089.02321.075.03631L6.484,12.16269V1.22032Zm.43876,10.1565L8.85823,7.83139l-.018-.02163a1.37869,1.37869,0,0,1,0-1.6722.91281.91281,0,0,1,1.46987,0,1.28819,1.28819,0,0,1,.25564.55882l2.402-.14168V.468l-6.04494.7523v10.1565ZM9.20894,8.10166a.89293.89293,0,0,0,.36624.07952.94441.94441,0,0,0,.73494-.37142,1.31615,1.31615,0,0,0,.27393-.67552l2.38366-.14078V18.95688L9.152,18.45322l-2.22919-.29379V12.29067l2.28617-4.189Zm4.19754-1.65488,1.89584-.70136c-.00427-.04571-.00671-.09233-.00671-.13986a1.33081,1.33081,0,0,1,.28246-.83518.91147.91147,0,0,1,1.46987,0,1.37379,1.37379,0,0,1,0,1.67127.91192.91192,0,0,1-1.46987,0,1.22519,1.22519,0,0,1-.16423-.26966l-2.00736.742V18.95688l5.28075-.69715a.87192.87192,0,0,0,.76357-.87144V1.997a.86929.86929,0,0,0-.76936-.87144L13.40648.468V6.44678ZM16.707,5.044a.94954.94954,0,0,1,0,1.12281.47689.47689,0,0,1-.787,0,.8367.8367,0,0,1-.15813-.32724l-.00061-.00524h0a.97773.97773,0,0,1-.02682-.22877.89853.89853,0,0,1,.18556-.56156.4785.4785,0,0,1,.787,0ZM9.96916,6.4121a.94955.94955,0,0,1,0,1.12282.4769.4769,0,0,1-.787,0,.94578.94578,0,0,1,0-1.12282.4785.4785,0,0,1,.787,0ZM5.07508,14.7694a.89758.89758,0,0,1-.04754.58929v.00055a.895.895,0,0,1-.38849.444.51242.51242,0,0,1-.444.03809l-.00182-.00091a.51051.51051,0,0,1-.27972-.3437.94079.94079,0,0,1,.436-1.03294.51216.51216,0,0,1,.44394-.039.43459.43459,0,0,1,.1356.0908v.00092l.00274.00091.00183.00244a.58986.58986,0,0,1,.14138.24955ZM8.28661.60874,13.15175.00238A.27763.27763,0,0,1,13.18709,0a.224.224,0,0,1,.0649.00945c.032.00182.06491.00512.09751.00944l5.38526.67034A1.31565,1.31565,0,0,1,19.89048,1.997V17.38829a1.3134,1.3134,0,0,1-1.146,1.30594l-5.38557.71087c-.03686.00518-.0716.00853-.10512.01036a.21953.21953,0,0,1-.09506.00848l-6.34141-.83666a.81594.81594,0,0,0-.114-.00792.82588.82588,0,0,0-.11487.00792l-5.09762.67278a1.30625,1.30625,0,0,1-.53475-.03626l-.02072-.00518A1.30807,1.30807,0,0,1,.45,18.9447,1.28569,1.28569,0,0,1,0,17.95412V1.46317A1.31684,1.31684,0,0,1,.114.91989,1.30829,1.30829,0,0,1,.44669.47594,1.28183,1.28183,0,0,1,1.48054.1554L6.59461.79191a.89608.89608,0,0,0,.10878.007.90669.90669,0,0,0,.10969-.007Z" style="fill:#a1afba;fill-rule:evenodd"/></g></svg>