<svg xmlns="http://www.w3.org/2000/svg" viewBox="0 0 20.36124 21.28814"><title>open-letter-icon-uc-santa-barbara</title><g id="ICONS"><path d="M5.99161,11.07126a.21984.21984,0,0,1,0-.43968h6.53923a.21984.21984,0,1,1,0,.43968Zm13.93087.00244-5.58477,4.22191,5.58477,4.22192V11.0737Zm-5.94835,3.94708,2.68349-2.02869.00366-7.20676a.18565.18565,0,0,1,0-.032V5.09762H13.32543a1.31485,1.31485,0,0,1-.93117-.38788h0l-.00243-.00244a1.31169,1.31169,0,0,1-.38507-.92786V.43877L4.58542.43785V.43877h0V.43785a.88325.88325,0,0,0-.879.87937V12.99355L6.3881,15.02078,9.386,12.75351a1.30686,1.30686,0,0,1,1.58931,0l2.99885,2.26727Zm3.12134-2.36051.00282-6.45019L19.5736,8.08a.845.845,0,0,1,.34888.70142v1.74288l-2.827,2.136ZM6.02452,15.29561.43877,19.51753V11.0737l2.90561,2.19658.01981.01462,2.66033,2.01071ZM.43877,10.52432l2.82791,2.13686V6.20673L.78772,8.08a.88637.88637,0,0,0-.26.30648l-.00091.00188H.52774a.879.879,0,0,0-.089.39306v1.74288ZM.444,20.06325l6.07022-4.58817.00884-.0067,3.12744-2.36417a.86632.86632,0,0,1,1.06065,0l3.12653,2.36325.01036.00762,6.06931,4.58817a.88.88,0,0,1-.87388.78521H1.31813a.87724.87724,0,0,1-.621-.25656L.69631,20.591A.88417.88417,0,0,1,.444,20.06325ZM17.09829,5.65979l.00084-.76235.00092-.02011a.21819.21819,0,0,0-.07709-.16667L12.39373.07678A.22179.22179,0,0,0,12.227,0l-.02011.00091L4.58542,0h0A1.31963,1.31963,0,0,0,3.26668,1.31722V5.65736L.52347,7.72931a1.328,1.328,0,0,0-.38879.46315h0A1.312,1.312,0,0,0,0,8.78144V19.97a1.31583,1.31583,0,0,0,.38605.93025l.00092.00091H.38788l.00183.00239a1.3141,1.3141,0,0,0,.92842.38458H19.04342A1.32119,1.32119,0,0,0,20.36124,19.97V8.78144a1.32016,1.32016,0,0,0-.13467-.589,1.2979,1.2979,0,0,0-.3888-.46315L17.09829,5.65979ZM12.44637.74987,16.35109,4.657H13.32543a.87382.87382,0,0,1-.62091-.25619l-.001-.00092a.87434.87434,0,0,1-.25717-.62042V.74987ZM5.99161,7.66472a.21984.21984,0,0,1,0-.43968h7.67752a.21984.21984,0,1,1,0,.43968Zm0,1.65147a.21939.21939,0,0,1,0-.43877h8.30368a.21939.21939,0,0,1,0,.43877Z" style="fill:#a1afba;fill-rule:evenodd"/></g></svg>