<svg xmlns="http://www.w3.org/2000/svg" viewBox="0 0 15.40287 21.68548"><title>operator-icon-uc-santa-barbara</title><g id="ICONS"><path d="M5.236,13.44458l.72031.29611a1.0143,1.0143,0,0,1,.33852.22462,1.12147,1.12147,0,0,1,.21938.32481l1.18254,2.59025,1.18315-2.71792a.9209.9209,0,0,1,.22731-.31628,1.07708,1.07708,0,0,1,.34217-.20384l.66242-.24864a.71059.71059,0,0,1-.07861-.08653,1.0585,1.0585,0,0,1-.22365-.60026h0v-.00335l-.02681-.59843-.05546.05h0l-.01463.01219a3.46856,3.46856,0,0,1-.95706.60787,2.74752,2.74752,0,0,1-1.05456.21421,2.8333,2.8333,0,0,1-1.45007-.41287,3.74358,3.74358,0,0,1-.63042-.4732l-.02621.5899-.0006.01371a1.05721,1.05721,0,0,1-.22457.60026.86183.86183,0,0,1-.13315.13742Zm6.5288-6.07967c-.00427.06063-.01128.13315-.0189.21512a.154.154,0,0,1-.00518.04418c-.02071.17764-.04844.35832-.07952.53718-.032.18374-.07008.37295-.11305.56395-.04418.19354-.09171.38087-.14168.56039-.0518.18221-.10634.36107-.16515.53292h0l-.00944.02164a7.175,7.175,0,0,1-.3626.81294c-.05545.10359-.11152.20445-.17032.30317l.03534-.007c.12889-.025.25077-.05271.36473-.08135a8.17243,8.17243,0,0,0,1.30076-6.74635,6.15084,6.15084,0,0,0-1.22489-2.32A4.08518,4.08518,0,0,0,9.47585.57011a1.80062,1.80062,0,0,0-1.66427.152,1.12114,1.12114,0,0,0-.096.07953.37508.37508,0,0,1-.16819.10878C7.35118.96317,7.2613.88273,7.17842.5762,7.162.514,7.016.49235,6.79145.5113a3.76654,3.76654,0,0,0-1.508.56156A5.62615,5.62615,0,0,0,3.61922,2.60428h0c-1.20234,1.67549-1.68011,4.3825.66333,8.226.10878.031.22975.06124.36168.08891l.04327.0095a7.07951,7.07951,0,0,1-.61671-1.3681,8.93372,8.93372,0,0,1-.4275-2.15l-.00091-.01554c-.00427-.089-.00518-.17855-.00427-.26844,0-.09171.00183-.17794.0061-.2593.00426-.09841.00944-.18373.01645-.25808.00609-.071.01554-.15393.02742-.24437a5.09311,5.09311,0,0,1,1.97019-3.31l.00518-.0033V3.05067h.00092l.00091-.00092.00183-.001a.21468.21468,0,0,1,.05515-.03772.2186.2186,0,0,1,.291.10359A2.26708,2.26708,0,0,0,7.30639,4.221,9.73475,9.73475,0,0,0,9.254,4.67959a8.3707,8.3707,0,0,1,1.61156.3696,1.244,1.244,0,0,1,.90435.97108l.00365.03352a10.57527,10.57527,0,0,1-.00883,1.31112ZM10.86924,9.5493l-.03991.12-.00153.00244a6.76,6.76,0,0,1-.34644.77668,5.63352,5.63352,0,0,1-.41805.677l.00092.00086h-.00092c-.07526.10457-.15387.2039-.23309.298a.1702.1702,0,0,0-.03108.03535l-.039.04418a3.75278,3.75278,0,0,1-.30927.30927l-.01646.01371a3.01366,3.01366,0,0,1-.84706.54328,2.30559,2.30559,0,0,1-.88637.18038,2.40439,2.40439,0,0,1-1.22733-.35223,3.80276,3.80276,0,0,1-1.10454-1.03385.21925.21925,0,0,0-.02346-.03108l-.01554-.02072-.00335-.00609A6.32147,6.32147,0,0,1,4.4864,9.42133a8.53565,8.53565,0,0,1-.40617-2.0418l-.00152-.02407c-.00274-.07861-.00427-.15387-.00366-.2273,0-.0777.00274-.15875.0061-.24254.00365-.071.00944-.15114.01736-.23834.00762-.09074.01554-.166.02408-.22816A4.52421,4.52421,0,0,1,5.75608,3.55154,2.78356,2.78356,0,0,0,7.14581,4.62871,9.99526,9.99526,0,0,0,9.184,5.1116a8.09688,8.09688,0,0,1,1.52015.34619c.35253.13828.59507.33182.63133.63225.01036.19684.01554.38454.01554.5832a4.16371,4.16371,0,0,1-.78338,2.55308,2.626,2.626,0,0,1-1.99426.91105V9.7763a.21808.21808,0,0,0-.21664-.21938h-1.096a.2199.2199,0,0,0-.21878.21938v1.17309a.21971.21971,0,0,0,.21878.21939h1.096a.21789.21789,0,0,0,.21664-.21939v-.37148A3.067,3.067,0,0,0,10.86924,9.5493ZM5.7896,14.14594a.56409.56409,0,0,1,.19257.12712.67776.67776,0,0,1,.13406.19866l1.38608,3.03664a.21869.21869,0,0,0,.40007-.00336v.00092l1.37938-3.16918a.47116.47116,0,0,1,.11914-.16393.61767.61767,0,0,1,.20293-.12005l1.07193-.40251.06368.01122c.30257.05338.6091.10792.90953.17861a2.20837,2.20837,0,0,1,.11061.546,7.14076,7.14076,0,0,0,.24619,1.21362l-1.93819-1.079a.21841.21841,0,0,0-.29708.08476l-.01128.02255h0L7.65009,19.70311,5.541,14.628a.21843.21843,0,0,0-.28672-.11853.19581.19581,0,0,0-.03382.01732l-1.926,1.0729A7.21246,7.21246,0,0,0,3.5397,14.387a2.55266,2.55266,0,0,1,.10024-.51835c.32481-.0819.65815-.14254.98723-.2011l1.16243.47838Zm4.85234-.94847a.21713.21713,0,0,1,.15387.02772l.01889.00361c.323.057.64962.11553.9726.19323a.22243.22243,0,0,1,.12341.03138,5.09543,5.09543,0,0,1,.86717.30227,4.10458,4.10458,0,0,1,2.25173,2.699,12.69436,12.69436,0,0,1,.37234,3.65091h.00092v.26173a1.31965,1.31965,0,0,1-1.31813,1.31813H1.31813a1.3125,1.3125,0,0,1-.93025-.387H.387V21.2976l-.00244-.00183A1.31587,1.31587,0,0,1,0,20.36735v-.26173l.00091-.01981a12.62848,12.62848,0,0,1,.37235-3.6311H.37234a4.10551,4.10551,0,0,1,2.25265-2.699,4.9773,4.9773,0,0,1,.75565-.273.21752.21752,0,0,1,.09507-.025c.36808-.09689.74286-.16332,1.11246-.22888l.1755-.03133.0128-.00153a.44622.44622,0,0,0,.25046-.16057.63525.63525,0,0,0,.1295-.355l.00092-.00513.04326-1.015c-.05972-.07161-.11761-.14595-.17459-.2231-.16759-.02645-.32633-.05692-.47411-.088-.17094-.03778-.33152-.07922-.47686-.12432a.2149.2149,0,0,1-.12675-.10177c-2.50585-4.06987-1.98055-6.96848-.685-8.77382l-.00091-.00092A6.07236,6.07236,0,0,1,5.05893.69717,4.21273,4.21273,0,0,1,6.7561.07345c.39489-.03383.6868.0649.80685.28763A2.21941,2.21941,0,0,1,9.61754.15718,4.52235,4.52235,0,0,1,11.5082,1.51681a6.58334,6.58334,0,0,1,1.31386,2.48482,8.62175,8.62175,0,0,1-1.40436,7.17751.21782.21782,0,0,1-.12523.0908v.00061c-.1426.039-.30074.07617-.47442.10969q-.21115.0416-.45583.078c-.0518.06886-.10542.13712-.16.20293l.04418,1.01917h0a.62927.62927,0,0,0,.13041.355.4319.4319,0,0,0,.26265.1621h.00244Zm1.95282.95706a3.68879,3.68879,0,0,1,2.0168,2.42784,12.29851,12.29851,0,0,1,.35254,3.52142v.00183h0v.26173a.88219.88219,0,0,1-.87936.87845H1.31813a.87454.87454,0,0,1-.62006-.25656l-.00183-.00182a.87457.87457,0,0,1-.25656-.62007v-.26173a.09105.09105,0,0,0-.00152-.02072,12.24507,12.24507,0,0,1,.35406-3.50253v0a3.68871,3.68871,0,0,1,2.01589-2.42784c.11213-.05271.22639-.09842.34279-.13986-.018.09842-.03108.202-.04571.31689a6.94857,6.94857,0,0,1-.39641,1.65.21559.21559,0,0,0,.01219.188.21914.21914,0,0,0,.29708.08562l2.21273-1.23251,2.21638,5.33615h0a.22012.22012,0,0,0,.40586,0l2.2173-5.33615,2.21182,1.23251h0a.21971.21971,0,0,0,.31262-.266,7.00643,7.00643,0,0,1-.40068-1.65817c-.01646-.1298-.03108-.24467-.0518-.35345a4.15647,4.15647,0,0,1,.45248.177ZM5.15735,12.67521a.21748.21748,0,0,1,.23157-.19958l-.23157.19958ZM3.64329,7.41061l-.00091-.00767.00091.00767Zm4.49554,2.98332v.33517h-.6615V9.9966h.6615v.33517a.21342.21342,0,0,0-.00244.03108A.20442.20442,0,0,0,8.13883,10.39393Z" style="fill:#a1afba;fill-rule:evenodd"/></g></svg>