<svg xmlns="http://www.w3.org/2000/svg" viewBox="0 0 14.0522 18.90212"><title>phone-icon-uc-santa-barbara</title><g id="ICONS"><path d="M3.31,11.933.047,16.066a.2195.2195,0,0,0,.03473.30653h0l2.48818,1.99456a2.44587,2.44587,0,0,0,3.4169-.35863,49.03313,49.03313,0,0,0,4.5059-6.53063,48.94335,48.94335,0,0,0,3.40136-7.16775,2.44289,2.44289,0,0,0-1.39735-3.13719L9.52559.01466A.21892.21892,0,0,0,9.24222.14L9.24039.14422l-1.951,4.899a.21991.21991,0,0,0,.12341.28428h.00091l1.66335.64871C8.51673,7.188,7.88692,8.39792,7.2047,9.57954l-.0061.01219c-.67887,1.17462-1.41045,2.32059-2.1783,3.41081L3.62813,11.88643a.21943.21943,0,0,0-.30835.03382L3.31,11.933ZM.52568,16.16624l2.99946-3.80052,1.40193,1.12373H4.928l.00945.00792a.21871.21871,0,0,0,.30561-.05088c.8233-1.15481,1.60851-2.37788,2.33461-3.63629l.00609-.01127C8.31106,8.54052,8.97957,7.24646,9.5713,5.94935l.00609-.014a.21837.21837,0,0,0-.12523-.28307l-1.674-.65206L9.56947.50193l2.77,1.07956a2.00573,2.00573,0,0,1,1.14537,2.57379,48.645,48.645,0,0,1-3.3712,7.10407,48.56906,48.56906,0,0,1-4.4672,6.47091,2.00638,2.00638,0,0,1-2.80171.29556L.52568,16.16624ZM9.5713,5.94935l.00183-.00182Z" style="fill:#a1afba;fill-rule:evenodd"/></g></svg>