<svg xmlns="http://www.w3.org/2000/svg" xmlns:xlink="http://www.w3.org/1999/xlink" version="1.1" x="0px" y="0px" viewBox="0 0 27.43 27.43" style="enable-background:new 0 0 27.43 27.43;" xml:space="preserve">
	<title>Question Mark</title>
	<style xmlns="http://www.w3.org/2000/svg" type="text/css">
	.st6{fill-rule:evenodd;clip-rule:evenodd;fill:#A1AFBA;}
	.st7{fill:#A1AFBA;}
</style>
	<g id="ICONS">
		<path xmlns="http://www.w3.org/2000/svg" class="st6" d="M13.72,0.66c-3.6,0-6.87,1.46-9.23,3.82c-2.36,2.36-3.82,5.63-3.82,9.23c0,3.6,1.46,6.87,3.82,9.23   c2.36,2.36,5.63,3.82,9.23,3.82c3.6,0,6.87-1.46,9.23-3.82c2.36-2.36,3.82-5.63,3.82-9.23c0-3.6-1.46-6.87-3.82-9.23   C20.59,2.12,17.32,0.66,13.72,0.66L13.72,0.66z M21.23,6.2L21.23,6.2c0.49,0.49,0.94,1.03,1.33,1.61c0.38,0.57,0.71,1.19,0.98,1.83   c0.26,0.63,0.46,1.3,0.6,1.99c0.13,0.67,0.2,1.37,0.2,2.08c0,0.71-0.07,1.41-0.2,2.08c-0.14,0.69-0.34,1.36-0.6,1.99   c-0.27,0.65-0.6,1.26-0.98,1.84c-0.38,0.57-0.82,1.11-1.31,1.6l-0.02,0.02c-0.5,0.5-1.04,0.94-1.61,1.33   c-0.57,0.38-1.19,0.71-1.84,0.98l0,0c-0.63,0.26-1.3,0.46-1.99,0.6c-0.67,0.13-1.37,0.2-2.08,0.2c-0.71,0-1.41-0.07-2.08-0.2   c-0.69-0.14-1.35-0.34-1.99-0.6c-0.64-0.27-1.26-0.6-1.83-0.98c-0.57-0.38-1.11-0.82-1.6-1.31L6.2,21.23   c-0.5-0.5-0.94-1.04-1.33-1.61c-0.38-0.57-0.71-1.19-0.98-1.83c-0.26-0.63-0.47-1.3-0.6-1.99c-0.13-0.67-0.2-1.37-0.2-2.08   c0-0.71,0.07-1.41,0.2-2.08c0.14-0.69,0.34-1.36,0.6-1.99c0.27-0.64,0.6-1.26,0.98-1.83C5.27,7.24,5.71,6.7,6.2,6.2l0,0   C6.7,5.71,7.24,5.26,7.82,4.88C8.39,4.49,9.01,4.16,9.65,3.9l0,0c0.63-0.26,1.3-0.46,1.99-0.6c0.67-0.13,1.36-0.2,2.08-0.2   c0.71,0,1.41,0.07,2.08,0.2c0.68,0.13,1.34,0.34,1.97,0.59l0.02,0.01c0.65,0.27,1.26,0.6,1.84,0.98   C20.19,5.26,20.73,5.71,21.23,6.2L21.23,6.2z M19.98,4.33c0.62,0.41,1.19,0.89,1.71,1.41v0v0c0.52,0.52,0.99,1.1,1.41,1.71   c0.41,0.61,0.76,1.26,1.04,1.95c0.28,0.67,0.5,1.38,0.64,2.11c0.14,0.71,0.21,1.45,0.21,2.2c0,0.75-0.07,1.49-0.21,2.21   c-0.15,0.73-0.36,1.44-0.64,2.11c-0.28,0.69-0.63,1.34-1.04,1.95c-0.41,0.61-0.87,1.18-1.39,1.7L21.7,21.7   c-0.52,0.52-1.09,0.99-1.71,1.41c-0.61,0.41-1.26,0.76-1.95,1.04l0,0h0c-0.67,0.28-1.38,0.5-2.11,0.64   c-0.71,0.14-1.45,0.22-2.2,0.22c-0.75,0-1.49-0.08-2.2-0.22c-0.73-0.14-1.44-0.36-2.11-0.64c-0.69-0.28-1.34-0.63-1.95-1.04   c-0.61-0.41-1.18-0.87-1.7-1.39L5.74,21.7c-0.52-0.52-0.99-1.09-1.41-1.72c-0.41-0.61-0.76-1.26-1.04-1.95   c-0.28-0.68-0.5-1.38-0.64-2.11c-0.14-0.71-0.22-1.45-0.22-2.2c0-0.75,0.07-1.49,0.22-2.2c0.14-0.73,0.36-1.44,0.64-2.11   c0.28-0.69,0.63-1.34,1.04-1.95c0.41-0.62,0.89-1.19,1.41-1.71l0,0c0.52-0.52,1.1-0.99,1.71-1.41C8.06,3.92,8.72,3.57,9.4,3.29v0   l0,0c0.68-0.28,1.38-0.5,2.11-0.64c0.71-0.14,1.45-0.21,2.2-0.21c0.75,0,1.49,0.07,2.2,0.21c0.72,0.14,1.42,0.36,2.1,0.63   l0.02,0.01C18.72,3.57,19.37,3.92,19.98,4.33L19.98,4.33z M4.02,4.02C6.5,1.54,9.93,0,13.72,0c3.79,0,7.22,1.54,9.7,4.02   c2.48,2.48,4.02,5.91,4.02,9.7c0,3.79-1.54,7.22-4.02,9.7c-2.48,2.48-5.91,4.02-9.7,4.02c-3.79,0-7.22-1.54-9.7-4.02   C1.54,20.93,0,17.5,0,13.72S1.54,6.5,4.02,4.02z"/>
		<g xmlns="http://www.w3.org/2000/svg">
		<path class="st7" d="M12.66,15.65c0-1.46,0.95-2.36,1.85-3.24c0.7-0.7,1.31-1.35,1.31-2.21c0-1.06-0.59-1.8-1.93-1.8    c-1.35,0-2.27,0.92-2.39,2.34h-1.4c0.13-2.11,1.62-3.58,3.82-3.58c2.45,0,3.42,1.48,3.42,2.99c0,1.33-0.9,2.18-1.76,3.01    c-0.81,0.77-1.58,1.53-1.58,2.63v0.77h-1.33V15.65z M12.13,19.12c0-0.65,0.52-1.15,1.15-1.15c0.63,0,1.15,0.5,1.15,1.15    c0,0.65-0.52,1.15-1.15,1.15C12.66,20.28,12.13,19.77,12.13,19.12z"/>
	</g>
	</g>
</svg>