<svg xmlns="http://www.w3.org/2000/svg" viewBox="0 0 17.37031 16.84928"><title>signal-strength-icon-uc-santa-barbara</title><g id="ICONS"><path d="M8.99047,15.53145V4.58878a1.312,1.312,0,0,1,.387-.93025l-.00091-.00061a1.31612,1.31612,0,0,1,.93208-.387h1.249a1.32121,1.32121,0,0,1,1.31783,1.31783V15.53145a1.3084,1.3084,0,0,1-.387.93086l-.01189.0131a1.31662,1.31662,0,0,1-.919.37387h-1.249a1.31518,1.31518,0,0,1-.93208-.387l-.0128-.01371a1.31441,1.31441,0,0,1-.37325-.91715ZM9.42923,4.58878V15.53145a.87365.87365,0,0,0,.24711.61062l.01128.01036a.87762.87762,0,0,0,.621.25808h1.249a.87878.87878,0,0,0,.61062-.24772l.01041-.01036a.87886.87886,0,0,0,.258-.621V4.58878a.8795.8795,0,0,0-.87906-.87815h-1.249a.87682.87682,0,0,0-.621.25717H9.6867a.87534.87534,0,0,0-.25747.621Zm4.05616,10.94267V1.31813A1.31276,1.31276,0,0,1,13.87206.387h0V.38605A1.3139,1.3139,0,0,1,14.80322,0h1.249a1.31963,1.31963,0,0,1,1.31813,1.31813V15.53145a1.30885,1.30885,0,0,1-.38605.93086l-.0131.0131a1.3138,1.3138,0,0,1-.919.37387h-1.249a1.3207,1.3207,0,0,1-1.31783-1.31783Zm.43877-14.21332V15.53145a.88115.88115,0,0,0,.87906.87906h1.249a.8749.8749,0,0,0,.61062-.24772l.01036-.01036a.87389.87389,0,0,0,.25839-.621V1.31813a.88012.88012,0,0,0-.87937-.87845h-1.249a.87631.87631,0,0,0-.621.25717V.69624a.87851.87851,0,0,0-.25808.62189ZM7.94108,15.53145V7.86064a.87906.87906,0,0,0-.87936-.87845h-1.249a.87586.87586,0,0,0-.62092.25656v.00091a.87584.87584,0,0,0-.25813.621v7.67081a.87853.87853,0,0,0,.25813.621l.01031.01036a.87877.87877,0,0,0,.61061.24772h1.249a.87817.87817,0,0,0,.62189-.25808h0a.87666.87666,0,0,0,.25747-.621Zm.43877-7.67081v7.67081a1.31263,1.31263,0,0,1-.38606.93086h0a1.31356,1.31356,0,0,1-.93207.387h-1.249a1.3151,1.3151,0,0,1-.91806-.37387l-.01279-.0131a1.30836,1.30836,0,0,1-.387-.93086V7.86064a1.315,1.315,0,0,1,.38422-.92842l.00275-.00183V6.92948l.00061-.00092a1.315,1.315,0,0,1,.93024-.386h1.249A1.31807,1.31807,0,0,1,8.37985,7.86064ZM0,15.53145V11.1325a1.31228,1.31228,0,0,1,.38605-.93024L.387,10.20134l.00091-.00091.00188-.00183a1.31485,1.31485,0,0,1,.92837-.38423h1.249A1.31965,1.31965,0,0,1,3.88492,11.1325v4.39895a1.30836,1.30836,0,0,1-.387.93086l-.01188.0131a1.315,1.315,0,0,1-.919.37387h-1.249a1.30928,1.30928,0,0,1-.93025-.387H.38605A1.31267,1.31267,0,0,1,0,15.53145ZM.43877,11.1325v4.39895a.8777.8777,0,0,0,.25838.621h0a.8762.8762,0,0,0,.621.25808h1.249a.879.879,0,0,0,.61068-.24772l.0103-.01036a.8787.8787,0,0,0,.25808-.621V11.1325a.88168.88168,0,0,0-.87906-.87936h-1.249a.87443.87443,0,0,0-.621.25747l-.00091.00092A.8726.8726,0,0,0,.43877,11.1325Z" style="fill:#a1afba;fill-rule:evenodd"/></g></svg>