<svg xmlns="http://www.w3.org/2000/svg" viewBox="0 0 19.82741 19.45842"><title>telephone-icon-uc-santa-barbara</title><g id="ICONS"><path d="M1.31813,3.67163h.39215V3.53421A1.31806,1.31806,0,0,1,3.0281,2.21608H6.88042a1.316,1.316,0,0,1,.87845.337V.21938a.21969.21969,0,0,1,.43938,0V3.67163h10.311a1.31606,1.31606,0,0,1,.93116.38605l.00092.00092a1.31588,1.31588,0,0,1,.38605.93086V17.26733a1.31963,1.31963,0,0,1-1.31813,1.31808H8.12055a1.32131,1.32131,0,0,1-1.24013.873H3.0281a1.31377,1.31377,0,0,1-.92842-.38423l-.00182-.00243H2.09725l-.00092-.00092a1.33259,1.33259,0,0,1-.30835-.48543H1.31813a1.3123,1.3123,0,0,1-.93025-.387H.387v-.00087l-.00274-.00182A1.31507,1.31507,0,0,1,0,17.26733V4.98946A1.31963,1.31963,0,0,1,1.31813,3.67163ZM16.707,8.11811a.22.22,0,0,0,.21939-.21938V6.16346a.22062.22062,0,0,0-.21939-.22029H10.8793a.22041.22041,0,0,0-.21938.22029V7.89873a.21982.21982,0,0,0,.21938.21938ZM15.1262,15.34985H16.345a.21984.21984,0,0,0,0-.43968H15.1262a.21984.21984,0,1,0,0,.43968Zm0-1.926H16.345a.21982.21982,0,0,0,0-.43964H15.1262a.21982.21982,0,1,0,0,.43964Zm0-1.92444H16.345a.21984.21984,0,0,0,0-.43968H15.1262a.21984.21984,0,1,0,0,.43968Zm-1.94246,3.85049h1.2188a.21984.21984,0,0,0,0-.43968h-1.2188a.21984.21984,0,0,0,0,.43968Zm0-1.926h1.2188a.21982.21982,0,0,0,0-.43964h-1.2188a.21982.21982,0,0,0,0,.43964Zm0-1.92444h1.2188a.21984.21984,0,0,0,0-.43968h-1.2188a.21984.21984,0,0,0,0,.43968ZM11.2422,15.34985h1.21788a.21984.21984,0,1,0,0-.43968H11.2422a.21984.21984,0,1,0,0,.43968Zm0-1.926h1.21788a.21982.21982,0,1,0,0-.43964H11.2422a.21982.21982,0,1,0,0,.43964Zm0-1.92444h1.21788a.21984.21984,0,1,0,0-.43968H11.2422a.21984.21984,0,1,0,0,.43968Zm-.1426-3.82093h5.38709V6.38376H11.0996V7.67843ZM8.19825,4.11131V18.14577h10.311a.8801.8801,0,0,0,.87936-.87844V4.98946a.87687.87687,0,0,0-.25747-.621l-.00061-.00061a.87827.87827,0,0,0-.62128-.25656ZM2.14966,3.891V18.14055a.87962.87962,0,0,0,.25655.621l.00092.00092a.88176.88176,0,0,0,.621.25716H6.88042a.88167.88167,0,0,0,.87845-.8791V3.53421a.8796.8796,0,0,0-.25656-.621l-.00182-.00091a.875.875,0,0,0-.62007-.25747H3.0281a.88062.88062,0,0,0-.87844.87936V3.891Zm-.43938.2203H1.31813a.87959.87959,0,0,0-.87845.87815V17.26733a.87848.87848,0,0,0,.25656.621l.00152.00092a.87634.87634,0,0,0,.62037.25655h.39215V4.11131Z" style="fill:#a1afba;fill-rule:evenodd"/></g></svg>