<svg xmlns="http://www.w3.org/2000/svg" viewBox="0 0 21.38942 17.82718"><title>wifi-icon-uc-santa-barbara</title><g id="ICONS"><path d="M10.731,13.54127a2.14408,2.14408,0,1,1-1.515.62707,2.13855,2.13855,0,0,1,1.515-.62707ZM7.226,12.49092l-.5-.5a1.23748,1.23748,0,0,1-.36442-1.03385,1.24188,1.24188,0,0,1,.575-.93268,6.90233,6.90233,0,0,1,7.58519.011,1.235,1.235,0,0,1,.57009.933,1.2901,1.2901,0,0,1-.06216.557,1.27385,1.27385,0,0,1-.30317.4735l-.50184.50184a1.26057,1.26057,0,0,1-1.54788.1941,3.81415,3.81415,0,0,0-3.90807-.00762,1.25921,1.25921,0,0,1-1.5427-.19628Zm-.18922-.81014.49941.49935a.81865.81865,0,0,0,1.01038.12955,4.264,4.264,0,0,1,4.35416.007.821.821,0,0,0,1.01312-.12706l.50245-.50184a.79683.79683,0,0,0,.2395-.67465.80247.80247,0,0,0-.37235-.61057,6.458,6.458,0,0,0-7.10925-.00944.79873.79873,0,0,0-.3766.61061.84726.84726,0,0,0,.039.36717.8303.8303,0,0,0,.20018.30988ZM18.80674,6.25926A12.55883,12.55883,0,0,0,2.57417,6.19278v.001A1.27054,1.27054,0,0,1,.85536,6.12123L.845,6.10813.37241,5.63676v.0006a1.243,1.243,0,0,1-.37142-.95,1.27467,1.27467,0,0,1,.1237-.50519A1.25052,1.25052,0,0,1,.44676,3.772a15.70034,15.70034,0,0,1,20.5072.07765,1.23022,1.23022,0,0,1,.4345.91537,1.23773,1.23773,0,0,1-.36991.94244l-.48691.4863-.0131.01218a1.26747,1.26747,0,0,1-1.7118.05333ZM10.69289,2.8131A12.9746,12.9746,0,0,1,19.091,5.92592a.83078.83078,0,0,0,1.121-.032l.00945-.01036.4863-.48691a.81312.81312,0,0,0,.18831-.28093.82056.82056,0,0,0-.23066-.93451A15.256,15.256,0,0,0,.73166,4.10442a.83976.83976,0,0,0-.23828.93787.80416.80416,0,0,0,.18922.28428v.00086h0l.47137.47173.01219.01188a.82927.82927,0,0,0,1.12464.04754v0A12.91929,12.91929,0,0,1,10.69289,2.8131Zm5.058,6.60132a1.26615,1.26615,0,0,0,.84981.26082l.007-.00061a1.26718,1.26718,0,0,0,.81355-.37051l.49057-.49092a1.2579,1.2579,0,0,0-.11213-1.89488A11.33731,11.33731,0,0,0,3.65555,6.90461a1.23683,1.23683,0,0,0-.48538.92415,1.2438,1.2438,0,0,0,.36868.976l.48783.48813a1.26522,1.26522,0,0,0,1.667.11213,8.28706,8.28706,0,0,1,10.05722.00944Zm-5.026-2.14265a8.71784,8.71784,0,0,1,5.29293,1.79468.82822.82822,0,0,0,.55791.17094l.00274-.00091a.82933.82933,0,0,0,.53292-.24254l.48965-.49057a.83169.83169,0,0,0,.19257-.29043.87447.87447,0,0,0-.03961-.684.82956.82956,0,0,0-.22456-.26753A10.89848,10.89848,0,0,0,3.92582,7.24923a.80051.80051,0,0,0-.31871.60452.8558.8558,0,0,0,.049.34827.84236.84236,0,0,0,.19349.2919l.48813.48783a.82758.82758,0,0,0,1.09173.0752,8.72266,8.72266,0,0,1,5.29538-1.78518Zm1.21087,7.20767a1.70506,1.70506,0,1,0,.49941,1.20661A1.69907,1.69907,0,0,0,11.93576,14.47944Z" style="fill:#a1afba;fill-rule:evenodd"/></g></svg>