<svg xmlns="http://www.w3.org/2000/svg" viewBox="0 0 9.42162 19.27225"><title>aper-clip-icon-uc-santa-barbara</title><g id="ICONS"><path d="M2.12406,12.96527V1.319A1.32278,1.32278,0,0,1,3.44189,0h4.6616A1.32277,1.32277,0,0,1,9.42162,1.319H9.4207V14.56068h.00092a4.71081,4.71081,0,1,1-9.42162,0V4.59a.769.769,0,0,1,.22548-.54327L.22639,4.0458a.76925.76925,0,0,1,.54237-.22548h.411a.76891.76891,0,0,1,.54267.22548l.00061.00092V4.0458A.76651.76651,0,0,1,1.94855,4.59H1.94764v9.97069h.00091a2.76226,2.76226,0,1,0,5.52451,0V2.27854A.33082.33082,0,0,0,7.144,1.94947H4.4023a.32874.32874,0,0,0-.32969.32907H4.0717V12.96527h.00152a.63789.63789,0,0,0,1.27578,0V3.94647a.76673.76673,0,0,1,.22548-.54237h.00091a.76383.76383,0,0,1,.54237-.22639h.411a.7637.7637,0,0,1,.54236.22639h.00092a.76543.76543,0,0,1,.22548.54237H7.29664v9.0188h.00092a2.58675,2.58675,0,1,1-5.1735,0ZM2.56283,1.319V12.96527a2.14752,2.14752,0,1,0,4.295,0H6.8597V3.94647H6.85787A.33177.33177,0,0,0,6.7622,3.714h0a.33091.33091,0,0,0-.2334-.09659h-.411a.33029.33029,0,0,0-.33.32908v9.0188a1.07742,1.07742,0,0,1-2.15484,0h.00153V2.27854H3.63293A.76232.76232,0,0,1,3.859,1.73618l.00091-.001a.76639.76639,0,0,1,.54237-.22548H7.144a.76931.76931,0,0,1,.76845.76879V14.56068a3.20133,3.20133,0,1,1-6.40265,0H1.5107V4.59H1.50887a.32553.32553,0,0,0-.09659-.2334H1.4132A.33091.33091,0,0,0,1.1798,4.26h-.411a.32874.32874,0,0,0-.32908.33v9.97069a4.27159,4.27159,0,1,0,8.54317,0h0V1.319H8.98193A.88063.88063,0,0,0,8.10349.43968H3.44189a.88325.88325,0,0,0-.87906.87936Z" style="fill:#a1afba;fill-rule:evenodd"/></g></svg>