<svg xmlns="http://www.w3.org/2000/svg" viewBox="0 0 15.28841 19.22102"><title>bell-icon-uc-santa-barbara</title><g id="ICONS"><path d="M7.6435,18.78138a1.96114,1.96114,0,0,0,1.94947-1.742H5.694a1.95987,1.95987,0,0,0,1.94947,1.742ZM6.56827,4.23284A3.34792,3.34792,0,0,0,4.03494,5.7963,7.073,7.073,0,0,0,2.62357,9.57153a9.99951,9.99951,0,0,1-1.49333,5.9328C.95839,15.838.771,16.2024.57142,16.59973H14.71466c-.19866-.39733-.38666-.76175-.5579-1.0954a10.004,10.004,0,0,1-1.49334-5.9328A7.07245,7.07245,0,0,0,11.25206,5.7963,3.34893,3.34893,0,0,0,8.71878,4.23284Zm2.3699-.4308a3.89779,3.89779,0,0,1,2.66374,1.73161,7.54716,7.54716,0,0,1,1.50028,4.03788,9.66607,9.66607,0,0,0,1.44428,5.73262c.20628.40063.43785.85072.709,1.401a.21881.21881,0,0,1-.18739.33422H10.03448a2.39748,2.39748,0,0,1-.69289,1.47692l-.00183.00152a2.39855,2.39855,0,0,1-3.39344,0l-.00091-.00152a2.3873,2.3873,0,0,1-.69258-1.47692H.21833V17.0385a.22568.22568,0,0,1-.096-.02164A.22017.22017,0,0,1,.02205,16.724c.27484-.55974.50976-1.015.71878-1.4199a9.66824,9.66824,0,0,0,1.444-5.73262A7.553,7.553,0,0,1,3.68423,5.53365,3.8982,3.8982,0,0,1,6.34792,3.802V.76937A.77228.77228,0,0,1,6.57339.22605h.00183A.76194.76194,0,0,1,7.11759,0H8.16971a.76462.76462,0,0,1,.54237.22605H8.713a.76436.76436,0,0,1,.22518.54332V3.802ZM8.16971.43933H7.11759a.32923.32923,0,0,0-.32993.33V3.79321H8.49879V.76937A.32716.32716,0,0,0,8.4019.53627L8.40281.53536A.3328.3328,0,0,0,8.16971.43933Z" style="fill:#a1afba;fill-rule:evenodd"/></g></svg>