<svg xmlns="http://www.w3.org/2000/svg" viewBox="0 0 17.76967 16.28563"><title>books-icon-uc-santa-barbara</title><g id="ICONS"><path d="M4.50163.88215H.76876a.32729.32729,0,0,0-.32908.32908v14.305a.332.332,0,0,0,.09573.234l.00086-.00091a.32588.32588,0,0,0,.23249.09659H4.50163a.32988.32988,0,0,0,.33005-.32973V1.21123A.32823.32823,0,0,0,4.735.979L4.7262.97021A.32679.32679,0,0,0,4.50163.88215Zm10.22572,9.609a.21872.21872,0,1,1-.43359.05789l-1.028-7.49287a.21915.21915,0,1,1,.43445-.05789l1.02714,7.49287Zm-7.87283.43694a.21984.21984,0,1,1-.43968,0V3.235a.21984.21984,0,0,1,.43968,0V10.9281Zm1.66427,2.56435a.21939.21939,0,1,1-.43877,0V3.235a.21939.21939,0,0,1,.43877,0V13.49245ZM15.0095.44247,11.31289.94853l-.00153.001a.325.325,0,0,0-.21506.127v.001a.32771.32771,0,0,0-.065.24437v.00092l1.94429,14.17188.00092.00152a.32173.32173,0,0,0,.12614.21508l.00061-.00087a.33009.33009,0,0,0,.24528.06581l.00092-.001,3.69692-.507h.00244a.327.327,0,0,0,.21511-.12706l-.00091-.00061a.33319.33319,0,0,0,.06551-.24468l-.00061-.00152L15.38367.7234V.72157a.32936.32936,0,0,0-.12706-.21511H15.2557a.33142.33142,0,0,0-.24437-.0646L15.0095.44247ZM11.269.51255c-.01219.00183-.02438.00244-.03559.00518a.76485.76485,0,0,0-.48636.29464L10.74645.813V.81237a.75687.75687,0,0,0-.15113.55.14009.14009,0,0,0,.00432.03382L12.5393,15.53755a.2454.2454,0,0,0,.00518.03569.76532.76532,0,0,0,.2947.48691v.00091h0a.76519.76519,0,0,0,.54932.15114c.01219-.00092.02316-.00244.03443-.00431l3.66736-.50332a.2617.2617,0,0,0,.03535-.00518.76631.76631,0,0,0,.48721-.29373v-.00092l.001.00092a.77188.77188,0,0,0,.15107-.55121.15557.15557,0,0,0-.00518-.03351L15.82061.68013a.32206.32206,0,0,0-.00609-.0363.76237.76237,0,0,0-.29343-.48626L15.52018.15666l.00091-.00091A.77767.77767,0,0,0,14.9708.00462.21957.21957,0,0,0,14.937.00979L11.269.51255ZM9.33325.88215H5.60038a.32748.32748,0,0,0-.2334.096.334.334,0,0,0-.09654.2331v14.305a.33688.33688,0,0,0,.09654.234v-.00091a.32961.32961,0,0,0,.2334.09659H9.33325a.32968.32968,0,0,0,.33-.32973V1.21123A.32838.32838,0,0,0,9.56671.979L9.55782.97021A.32679.32679,0,0,0,9.33325.88215ZM5.60038.44247H9.33325a.76768.76768,0,0,1,.52957.21268L9.8775.668a.76765.76765,0,0,1,.22451.54328v14.305a.76818.76818,0,0,1-.76876.76941H5.60038a.76569.76569,0,0,1-.54322-.22548v-.00061h0l-.0061-.00609-.00609.0067a.76618.76618,0,0,1-.54334.22548H.76876a.76593.76593,0,0,1-.54328-.22548v-.00061h0A.76866.76866,0,0,1,0,15.51622V1.21123A.76432.76432,0,0,1,.22548.66886L.22639.668A.76665.76665,0,0,1,.76876.44247H4.50163A.76768.76768,0,0,1,5.0312.65515L5.045.668,5.05106.674l.0061-.00518V.668A.76856.76856,0,0,1,5.60038.44247ZM2.85534,10.9281a.21984.21984,0,1,1-.43968,0V3.235a.21984.21984,0,0,1,.43968,0Z" style="fill:#a1afba;fill-rule:evenodd"/></g></svg>