<svg xmlns="http://www.w3.org/2000/svg" viewBox="0 0 26.11032 17.45837"><title>book-pages-icon-uc-anta-barbara</title><g id="ICONS"><path d="M22.89884.43968,25.667,3.21031V1.31783a.88012.88012,0,0,0-.87936-.87815Zm1.0149,6.84843a.22015.22015,0,0,1,0,.44029H15.02687a.22015.22015,0,1,1,0-.44029Zm0-2.43851a.21771.21771,0,1,1,0,.43541H15.02687a.21772.21772,0,1,1,0-.43541Zm0,7.32193a.21939.21939,0,0,1,0,.43877H15.026a.21939.21939,0,1,1,0-.43877Zm0-2.44186a.21984.21984,0,0,1,0,.43968H15.026a.21984.21984,0,0,1,0-.43968ZM6.19363,6.534,5.31,6.00106,3.97724,7.00382a.22152.22152,0,0,1-.21146.02834h0l-1.35347-.532v.96315H6.19363V6.534ZM2.41231,6.02879V4.85051H6.19363V6.02178l-.78338-.47259a.21989.21989,0,0,0-.25748.02255L3.81245,6.57968,2.41231,6.02879Zm-.21939-1.617H6.413a.21905.21905,0,0,1,.21939.21938V7.68361A.21963.21963,0,0,1,6.413,7.903H2.19292a.21963.21963,0,0,1-.21938-.21938V4.63113a.219.219,0,0,1,.21938-.21938ZM7.80183,7.7284a.22015.22015,0,1,1,0-.44029h3.27888a.22015.22015,0,0,1,0,.44029Zm0-2.44339a.21772.21772,0,1,1,0-.43541h3.27888a.21771.21771,0,1,1,0,.43541ZM2.19292,12.6103a.21939.21939,0,0,1,0-.43877h8.88779a.21939.21939,0,0,1,0,.43877Zm0-2.441a.21984.21984,0,0,1,0-.43968h8.88779a.21984.21984,0,0,1,0,.43968Zm-.87479,6.84843a.8801.8801,0,0,1-.87845-.87849V1.31783a.8783.8783,0,0,1,.25656-.621L.69776.69624A.871.871,0,0,1,1.31813.43968H12.833v16.5781Zm11.7352.44059H1.31813A1.32121,1.32121,0,0,1,0,16.13929V1.31783A1.3166,1.3166,0,0,1,.38514.38936L.387.38788h0L.38788.387A1.3125,1.3125,0,0,1,1.31813,0H24.78762a1.31965,1.31965,0,0,1,1.31813,1.31783v2.384a.20289.20289,0,0,1,0,.08562V16.13929a1.311,1.311,0,0,1-.38606.93029l-.00091.00182a1.31512,1.31512,0,0,1-.93116.387ZM25.667,3.96445V16.13929a.876.876,0,0,1-.25742.621l-.001.00091a.87343.87343,0,0,1-.621.25656H13.27271V.43968h8.878V2.64632a1.32119,1.32119,0,0,0,1.31813,1.31813Zm-.30409-.43877h-1.894a.88221.88221,0,0,1-.87937-.87936V.75048Z" style="fill:#a1afba;fill-rule:evenodd"/></g></svg>