<svg xmlns="http://www.w3.org/2000/svg" viewBox="0 0 22.6148 13.94915"><title>bus-Icon-UC-Santa-Barbara</title><g id="ICONS"><path d="M18.33834,9.37652A2.06574,2.06574,0,0,0,16.877,9.981l-.01036.01032A2.0669,2.0669,0,0,0,19.8,12.904l.01188-.01036a2.066,2.066,0,0,0-1.47353-3.51715ZM9.21777,1.72917H1.89584a.33276.33276,0,0,0-.23309.096.3286.3286,0,0,0-.0969.2331V5.4422H9.21777v-3.713ZM1.89584,1.2904a.76477.76477,0,0,0-.54236.22457l-.00092.00091a.76832.76832,0,0,0-.22548.54237V5.66254a.21986.21986,0,0,0,.21939.21938h7.8713v4.33831H8.063A3.58692,3.58692,0,0,0,7.24058,8.942h.00091a3.51952,3.51952,0,0,0-4.98031-.00853,3.39344,3.39344,0,0,0-.34706.40068H.43877V1.31722A.87749.87749,0,0,1,.69624.69715L.69715.69624a.87585.87585,0,0,1,.621-.25747H19.2887a.878.878,0,0,1,.53353.1752h0V.61488a.88107.88107,0,0,1,.31354.46558l1.15908,4.14235a.7587.7587,0,0,0,.4604.50981l.01127.00335.19958.0777v.00091a.31923.31923,0,0,1,.20994.30653V9.33417h-.99759a3.53686,3.53686,0,0,0-6.15828.88606H14.235V5.88192h6.04158a.21116.21116,0,0,0,.05972-.00853.21977.21977,0,0,0,.152-.27057L19.438,1.85105h-.00092a.76359.76359,0,0,0-.27453-.40616V1.4458a.76351.76351,0,0,0-.46467-.1554H1.89584Zm.31872,8.37528a.17554.17554,0,0,1-.01889.0262,3.08139,3.08139,0,0,0-.54146,1.72735.2181.2181,0,0,1-.21877.21751v.00187H.76876a.76474.76474,0,0,1-.54328-.22639.06021.06021,0,0,1-.0128-.01371A.76772.76772,0,0,1,0,10.8689V1.31722A1.31715,1.31715,0,0,1,.38605.387H.387L.38788.38605.38971.38418A1.31522,1.31522,0,0,1,1.31813,0H19.2887a1.30668,1.30668,0,0,1,.7971.266l.00091-.00091a1.311,1.311,0,0,1,.47076.698l1.15908,4.14244a.31677.31677,0,0,0,.19958.21847l.01036.00426.19866.0777h.00061a.75736.75736,0,0,1,.489.71513v4.77216a.76827.76827,0,0,1-.76875.76941h-.18922a.21983.21983,0,0,1-.2203-.21938,3.08755,3.08755,0,0,0-.54663-1.75842l-.00274-.00431h-.00061L20.88381,9.677l-.00244-.00518a3.15442,3.15442,0,0,0-.35163-.41865,3.098,3.098,0,0,0-5.28928,2.19018.21892.21892,0,0,1-.21877.21847v.00091h-6.952a.21964.21964,0,0,1-.21938-.21938l.00091-.01707a3.14079,3.14079,0,0,0-.145-.901A.19582.19582,0,0,1,7.694,10.488a3.14355,3.14355,0,0,0-.76266-1.2349V9.2522l-.00092.00092a3.07927,3.07927,0,0,0-4.35994-.00884,3.03874,3.03874,0,0,0-.35589.4214Zm-.58046.10817H.43877V10.8689a.32663.32663,0,0,0,.089.2246l.00792.00884a.33125.33125,0,0,0,.2331.09659h.45613A3.51419,3.51419,0,0,1,1.6341,9.77385Zm20.54194,0h-.71879a3.49267,3.49267,0,0,1,.412,1.44915.33193.33193,0,0,0,.30684-.32973V9.77385Zm-7.28629.88515H8.19581a3.47711,3.47711,0,0,1,.08471.564h6.52879a3.5778,3.5778,0,0,1,.08044-.564ZM13.79527,1.72917H9.65715v8.49106h4.13812V1.72917Zm4.90262,0H14.235v3.713h5.75242l-.97169-3.472h0V1.96836a.32954.32954,0,0,0-.11761-.17368H18.899l-.00091-.00061a.32654.32654,0,0,0-.20019-.0649ZM4.75209,10.5036a.94045.94045,0,1,0,.66608.27545.94257.94257,0,0,0-.66608-.27545Zm-.97686-.03534a1.38,1.38,0,1,0,.97686-.40525,1.38043,1.38043,0,0,0-.97686.40525Zm14.56311.03534a.94255.94255,0,0,1,.67735,1.59693l-.01127.01036a.942.942,0,0,1-1.3422-1.32209l.01036-.00975a.941.941,0,0,1,.66576-.27545Zm-.97686-.03534A1.38091,1.38091,0,0,1,19.3274,12.408l-.01219.0131a1.37854,1.37854,0,0,1-1.9519,0l-.00183-.00092a1.37867,1.37867,0,0,1-.011-1.9391l.011-.0128ZM4.75209,9.37652a2.06693,2.06693,0,1,0,1.46226,3.52812L6.21374,12.904a2.06744,2.06744,0,0,0,.00061-2.923H6.21374a2.06272,2.06272,0,0,0-1.46165-.60452Zm-1.77121.29464a2.50542,2.50542,0,1,0,3.54274,3.54366h.00091a2.504,2.504,0,0,0,0-3.543V9.67116a2.50476,2.50476,0,0,0-3.54365,0Zm13.58533,0A2.50588,2.50588,0,0,1,20.123,13.202l-.01219.0128A2.50556,2.50556,0,0,1,16.554,9.68488Z" style="fill:#a1afba;fill-rule:evenodd"/></g></svg>