<svg xmlns="http://www.w3.org/2000/svg" viewBox="0 0 19.09797 22.97861"><title>counterclockwise-icon-uc-santa-barbara</title><g id="ICONS"><path d="M15.316,17.43978a9.00835,9.00835,0,0,1-1.75233.96377,8.875,8.875,0,0,1-1.788.525c-.03625.1039-.07495.20658-.1173.30774a6.06042,6.06042,0,1,1-.44761-5.5047l.0095-.00427a.25089.25089,0,0,1,.04839-.01706,3.60176,3.60176,0,0,0,.53719-.21359,3.63854,3.63854,0,0,0,.51586-.30562l.00158-.00091a3.7525,3.7525,0,0,0,.90276-5.2256l-.00182-.00244a3.7537,3.7537,0,0,0-4.721-1.20234c-.02955.01737-.04845.02864-.06825.039L10.21231,9.325a.22019.22019,0,0,1-.05332.30558.223.223,0,0,1-.13919.04q-2.44347-.00273-4.88683,0-2.44979,0-4.89987-.00091a.21886.21886,0,0,1-.21939-.21847.231.231,0,0,1,.0128-.07347L.0259,9.37682,3.32336.1453A.22081.22081,0,0,1,3.60429.01249.21855.21855,0,0,1,3.71642.103L5.4267,2.5311a8.9363,8.9363,0,0,1,13.54115,9.106,8.90536,8.90536,0,0,1-3.65182,5.8027Zm-9.94814.50245.53719-.53718.5579,4.02142a.21927.21927,0,0,0,.4345-.05941l-.54931-3.95927.15539.1164a.21969.21969,0,1,0,.2626-.35228l-.35924-.2687,3.05674-3.05675a.21922.21922,0,0,0-.31018-.30988L6.2177,16.47145,6.09673,15.6a.21909.21909,0,1,0-.43414.05941l.106.76785L3.2353,14.53508a.21932.21932,0,1,0-.26265.35132l2.76484,2.06525-.6807.67979a.21987.21987,0,0,0,.3111.31079Zm6.03031.73585.00092-.00152v-.00091l.001-.00183.00329-.01128c.02011-.06124.03809-.12157.05637-.18312l.00335-.01371.001-.00187.00238-.01093.00372-.0131.00238-.00762.00183-.00609.00426-.01311.00335-.01279v-.00183l.00275-.01128.00426-.01371.00183-.007.00152-.0061.00366-.01367.00335-.0131v-.00065l.00335-.01219L11.50789,18.3l.00189-.00609.007-.02682h0l.00609-.02681.00153-.0067A5.59467,5.59467,0,0,0,11.673,17.1753v-.007L11.674,17.147v-.014h0l.0006-.01462.00092-.02072V17.076l.00091-.01375h0v-.0286l.001-.0067v-.02164l.00086-.014h0v-.107h0v-.02347a5.59154,5.59154,0,1,0-.425,2.20934q.08043-.19281.145-.39211Zm.70051-2.2368c.01133.1423.01828.28673.01828.43359v.00579l.00091.00091v.077l-.00091.00675v.07526l-.00086.0155-.001.01466V17.1l-.00091.01128v.01919a6.154,6.154,0,0,1-.15352,1.16335l-.001.00426-.00091.00423-.01554.0622-.00086.00518-.001.00365-.00244.00945-.01127.04418-.00183.00941-.00518.0171a8.48968,8.48968,0,0,0,6.61539-6.88987A8.4876,8.4876,0,0,0,5.4913,3.01043.21831.21831,0,0,1,5.189,2.955L3.59454.69228.54389,9.2327q2.29347.00228,4.58908,0,2.23725-.00136,4.47756-.00091L7.946,6.86518h0A.21717.21717,0,0,1,7.9746,6.5809a1.18682,1.18682,0,0,1,.24863-.16667l.05881-.032a.10013.10013,0,0,1,.02346-.01372,4.18754,4.18754,0,0,1,5.27892,1.344h0a4.18959,4.18959,0,0,1-1.01069,5.83774h-.00055a4.17491,4.17491,0,0,1-.57533.34035c-.12523.06125-.25412.1167-.38362.16485a6.0505,6.0505,0,0,1,.48539,2.3797h-.00091v.00609Z" style="fill:#a1afba;fill-rule:evenodd"/></g></svg>