<svg xmlns="http://www.w3.org/2000/svg" viewBox="0 0 10.75765 18.31184"><title>dna-icon-uc-santa-barbara</title><g id="ICONS"><path d="M8.78567,9.15714a4.21087,4.21087,0,0,1,.34736.30591,4.49984,4.49984,0,0,1,.49666.57772c1.21179,1.68011,1.15481,4.62869,1.10971,6.91668-.0067.38087-.01457.741-.01457,1.13409a.21987.21987,0,0,1-.21938.2203H8.58183a.22064.22064,0,0,1-.2203-.2203v-1.0866H2.37692l.00336.13654c.00883.37814.01584.71849.01584.95006a.22058.22058,0,0,1-.2203.2203H.25317a.22.22,0,0,1-.22025-.2203c0-.39306-.008-.75322-.01468-1.13409-.04509-2.288-.10207-5.23657,1.10972-6.91668a4.43074,4.43074,0,0,1,.84493-.88424A4.69083,4.69083,0,0,1,.426,6.85818,9.85,9.85,0,0,1,.0286,3.82973H.03013L.03378.2203A.21964.21964,0,0,1,.25317.00091V0H2.17582a.22081.22081,0,0,1,.2203.2203L2.39338,1.30259v.00423H8.36427V1.30015L8.36153.2203A.22081.22081,0,0,1,8.58183,0h1.92362V.00091a.21884.21884,0,0,1,.21841.21939l.00366,3.60943H10.729a8.88008,8.88008,0,0,1-.614,3.59153,4.48048,4.48048,0,0,1-1.3294,1.73588Zm-6.79389,4.607a.21678.21678,0,0,1-.01036-.06829.2197.2197,0,0,1,.026-.10359,5.264,5.264,0,0,1,.68217-2.4269A2.64349,2.64349,0,0,1,3.76422,10.312,5.31285,5.31285,0,0,1,5.342,9.90883l.02163-.00274.089-.01036h0L5.57779,9.882h0L5.703,9.86648l.014-.00183a7.91167,7.91167,0,0,0,.84889-.1554,6.1389,6.1389,0,0,0,.75657-.23344A4.09136,4.09136,0,0,0,9.715,7.24237a8.46188,8.46188,0,0,0,.57375-3.41264h.00153l-.00422-3.39H8.80121c0,.58411,0,.72214.001.86047l.00086.2072v.03809c.00183.86778.00183,1.735-.00945,2.59878v.00091c-.0036.15906-.00883.31445-.01645.46376v.007a.16919.16919,0,0,1-.00274.0302,4.61964,4.61964,0,0,1-.66059,2.42449A3.5341,3.5341,0,0,1,5.4163,8.40327a.18806.18806,0,0,1-.02407.00248l-.088.01036h0c-.07958.00792-.15027.01645-.21.02437-.04844.00518-.11908.01554-.20567.02834q-.40814.0608-.77211.153a5.93934,5.93934,0,0,0-.6813.21416,4.50955,4.50955,0,0,0-1.11764.60822,3.94871,3.94871,0,0,0-.83366.85225C.35677,11.858.41283,14.72552.4561,16.95044c.00609.33178.01279.65145.01462.92171H1.95461c-.00183-.23065-.007-.46741-.01219-.72213a32.69755,32.69755,0,0,1,.04936-3.38583Zm.46467-.28767H8.3143a6.471,6.471,0,0,0-.16088-1.05514H8.1525a2.48051,2.48051,0,0,0-.97321-1.50978,3.98461,3.98461,0,0,0-1.80169-.56583,4.81775,4.81775,0,0,0-1.43117.36533,2.19072,2.19072,0,0,0-.901.70995,4.55867,4.55867,0,0,0-.589,2.05547Zm6.30759.14625a.20615.20615,0,0,1,.0131.07313.21731.21731,0,0,1-.00518.047c.04327.72549.03717,1.5043.032,2.16336-.00091.1487-.00274.30165-.00274.56918v.28093a.15237.15237,0,0,1,.00183.02834.15717.15717,0,0,1-.00183.02956v1.05791h1.48571c.00183-.27026.00854-.58993.01554-.92171.04236-2.22492.09939-5.09245-1.02866-6.654a4.04426,4.04426,0,0,0-.44821-.52165,3.8037,3.8037,0,0,0-.4147-.35223,5.19215,5.19215,0,0,1-.93208.46375,6.64932,6.64932,0,0,1-.80928.24864l-.07069.01645a3.19451,3.19451,0,0,1,.82817.39733A2.90728,2.90728,0,0,1,8.5767,12.30986h0v.00092a7.40273,7.40273,0,0,1,.18734,1.312Zm-.42049.29347H2.41592c-.06672.8751-.06215,1.82088-.04753,2.64906H8.36153v-.08989c0-.08292.00274-.31506.00457-.57253.00518-.6073.011-1.31813-.02255-1.98664ZM1.98386,4.654a.31247.31247,0,0,1-.00244-.03812V4.60279c-.00853-.15722-.01365-.31079-.01736-.45766V4.14422c-.01128-.86443-.01036-1.73252-.00945-2.59878V1.50826l.001-.20567c.00086-.139.00086-.27728.00177-.86291H.47169L.46737,3.82973H.46889A9.43767,9.43767,0,0,0,.84307,6.72259,4.2423,4.2423,0,0,0,2.34676,8.89052a5.14623,5.14623,0,0,1,.93207-.465,6.79347,6.79347,0,0,1,.73128-.22974c.05272-.0128.10634-.02651.16088-.03778a3.95081,3.95081,0,0,1-.44059-.1746,2.61733,2.61733,0,0,1-1.03994-.837,3.7234,3.7234,0,0,1-.58472-1.476A7.96243,7.96243,0,0,1,1.98386,4.654Zm.426-.25838h5.9389c.00249-.08471.00518-.17094.007-.25839.01036-.79526.01036-1.59331.00944-2.39067H2.39246c-.00091.79736-.00091,1.59449.00945,2.39067.00183.08379.00462.17033.00792.25839Zm5.914.43964H2.43573a7.1356,7.1356,0,0,0,.10116.75326,3.32131,3.32131,0,0,0,.50854,1.30228A2.1807,2.1807,0,0,0,3.916,7.587a4.7785,4.7785,0,0,0,1.465.37905A3.11847,3.11847,0,0,0,7.75274,6.81918,3.949,3.949,0,0,0,8.3238,4.83524Z" style="fill:#a1afba;fill-rule:evenodd"/></g></svg>