<svg xmlns="http://www.w3.org/2000/svg" viewBox="0 0 26.53075 15.60397"><title>graduation-cap-icon-uc-santa-barbara</title><g id="ICONS"><path d="M.43963,1.6341H25.53316V.43968H.43963V1.6341Zm20.49257.43969v6.984a.22.22,0,0,1-.2203.21939H5.26a.21883.21883,0,0,1-.21846-.21939v-6.984H.21938A.2196.2196,0,0,1,0,1.8544V.2203A.2198.2198,0,0,1,.21938,0H25.75346a.22055.22055,0,0,1,.22.2203V1.8544a.22035.22035,0,0,1-.22.21939h-.0192V9.00265a1.01557,1.01557,0,0,1,0,1.98386v.24624a1.01655,1.01655,0,0,1,.49941.27453h0a1.01548,1.01548,0,0,1,.29708.71788v2.61a.76827.76827,0,0,1-.76967.76876h-.49392a.77052.77052,0,0,1-.54328-.22456l.00091-.00092h-.00091a.765.765,0,0,1-.22548-.54328v-2.61a1.0085,1.0085,0,0,1,.298-.71788h.00086a1.01577,1.01577,0,0,1,.49727-.27453v-.24624a1.01617,1.01617,0,0,1,0-1.98386V2.07379Zm-15.45193,0V8.83751H20.49252V2.07379Zm20.4423,7.51358a.57746.57746,0,1,0,.1685.40769.57553.57553,0,0,0-.1685-.40769Zm-.9854,2.63779v2.61a.3264.3264,0,0,0,.09659.2331h.00091a.32614.32614,0,0,0,.23249.09689h.49392a.33082.33082,0,0,0,.33-.33v-2.61a.571.571,0,0,0-.1685-.40769h0a.57726.57726,0,0,0-.9854.40769Z" style="fill:#a1afba;fill-rule:evenodd"/></g></svg>