<svg xmlns="http://www.w3.org/2000/svg" viewBox="0 0 8.66692 18.43676"><title>lightbulb-icon-uc-santa-barbara</title><g id="ICONS"><path d="M4.33335,6.97183A2.24029,2.24029,0,0,1,5.92083,7.63l.00183.00092.01889.01889.01828.0198.00244.00183H7.10946V.76845A.33045.33045,0,0,0,7.01263.53627h.00085L7.01263.53536a.32974.32974,0,0,0-.23224-.096H1.88758a.33029.33029,0,0,0-.33.32907v6.903H2.70534l.00188-.00183.01884-.0198.01889-.01889L2.74586,7.63a2.24257,2.24257,0,0,1,1.58749-.65815Zm.305,4.473,1.45433,2.51865.40342-1.22642a.219.219,0,0,1,.26022-.145l.60178.12615a.197.197,0,0,1,.032.00609l.62281.13042L7.15,11.35859a.25529.25529,0,0,1-.02072-.03447l-.37564-.65049a.19035.19035,0,0,1-.01986-.03535l-.3239-.56065a2.26142,2.26142,0,0,1-.48721.72915l-.00183.00061-.01706.01737-.00183.00183-.01463.01462-.00426.00427-.014.0131-.00609.00518-.011.01127-.00884.00671-.00853.00883L5.82333,10.9l-.00762.00666H5.8148l-.01737.01558-.01463.0131-.00335.00275-.01737.01462-.00091.00092-.01889.01554-.00092.0006-.01828.014-.00335.00244-.01554.0131-.00609.00335-.0128.01128-.00792.00518-.01219.00853-.01036.007-.00945.007-.01889.01463-.01548.01036L5.60669,11.07l-.01829.01219-.00243.00091L5.54605,11.11h0l-.00244.00152-.01828.01127-.02072.01311-.007.00426-.01371.00853-.00944.00518-.01128.007-.02072.01219-.01462.00853-.007.00335-.02163.01124-.01975.01131h-.001l-.02225.01219h0L5.3355,11.23l-.00457.00244-.018.00853-.0061.00365-.01554.00671-.00853.00457-.014.00609-.01121.00518-.011.00514c-.02955.01284-.05972.025-.08989.03691v.00091l-.0457.01737-.00548.00183-.018.00579a2.15876,2.15876,0,0,1-.21329.0649l-.007.00183-.01737.00426-.049.01036-.01549.00336-.00889.00179-.025.00521-.02072.00427H4.72641c-.02407.00427-.04845.00853-.07343.01219l-.0061.00091-.00853.00061ZM6.56619,9.4722A2.23935,2.23935,0,0,0,6.58,9.2193V9.162L6.579,9.1614V9.13185l-.00061-.00671-.00091-.01923v-.0024l-.00183-.02864v-.0061l-.00177-.01889-.00067-.00335v-.014l-.00182-.01462V9.01362l-.00183-.01828-.00092-.00579-.00152-.0131-.00091-.01554-.00092-.00244-.00244-.01828v-.008L6.561,8.92191l-.00275-.0171V8.903l-.00243-.01737L6.554,8.87712l-.00147-.00945-.00188-.01828h0l-.00336-.018L6.54547,8.822l-.00183-.00884-.0033-.018V8.79424l-.00341-.01741-.00182-.01032-.00183-.0067L6.529,8.74244V8.73909l-.00335-.01493-.00274-.01188L6.52109,8.7071l-.00335-.01829-.00092-.00426-.00426-.0131-.00244-.01372-.00183-.00426L6.504,8.6361,6.5022,8.63092l-.00244-.01219-.00457-.01462-.00152-.00244L6.4894,8.5843l-.00183-.007-.00335-.01036L6.479,8.55135V8.54987L6.473,8.53342l-.00269-.00854-.00158-.00883-.00609-.01737h0l-.0061-.01615-.00335-.00975L6.4504,8.46516l-.01219-.0329L6.43486,8.421l-.00244-.00579-.007-.01645-.00085-.00366-.0061-.01279L6.41414,8.3701l-.00177-.00518-.00676-.01646-.00183-.00335L6.3986,8.332l-.00609-.01276-.00183-.00274L6.384,8.30032l-.00182-.00609-.0061-.01036L6.37,8.26985l-.00061-.00244-.00792-.01554L6.359,8.24578l-.00451-.01036L6.3468,8.22079V8.21988l-.00853-.01554-.00366-.00792-.00426-.00766-.00853-.0155V8.17235l-.00793-.01463-.00512-.00883-.00341-.00671-.00878-.01554-.00066-.00186L6.288,8.1111H7.59668v2.21547H7.05919l-.493-.85437Zm.983,1.70327,1.08229,1.87325a.2243.2243,0,0,1,.03108.16519.22.22,0,0,1-.2593.17l-.85407-.17882v4.46385a.76827.76827,0,0,1-.76876.76784H1.88758a.77246.77246,0,0,1-.54425-.22456l-.0131-.01463a.77022.77022,0,0,1-.21146-.52865V13.20507l-.85438.17882a.22012.22012,0,0,1-.25985-.17.22279.22279,0,0,1,.031-.16519l1.08321-1.87325V10.766H.85094a.21964.21964,0,0,1-.21939-.21938V7.89172a.21984.21984,0,0,1,.21939-.2203h.26783V.76845A.76612.76612,0,0,1,1.34333.227L1.34485.22609A.7631.7631,0,0,1,1.88758,0H6.78039a.76707.76707,0,0,1,.54236.22609h0a.76312.76312,0,0,1,.2264.54236v6.903h.26691a.21945.21945,0,0,1,.21939.2203v2.65485a.21925.21925,0,0,1-.21939.21938H7.54915v.40952Zm-.43969,1.93819v4.55526a.33073.33073,0,0,1-.32907.32908H1.88758a.33.33,0,0,1-.23346-.0969l-.00853-.00766a.33131.33131,0,0,1-.08806-.22452V13.11366L1.81561,13.06l.49514,1.50461h0a.22323.22323,0,0,0,.09933.12188.2196.2196,0,0,0,.29861-.08044l1.62466-2.81482L5.958,14.60608a.21933.21933,0,0,0,.39825-.04144h.00091L6.852,13.06l.25747.05363Zm-5.83255-.38941a.18752.18752,0,0,1,.0326-.00609l.60117-.12615a.21868.21868,0,0,1,.25991.145L2.574,13.96347l1.45464-2.51865-.00945-.00061-.014-.00274-.01377-.00183L3.982,11.43812l-.00366-.00092-.0198-.00274L3.936,11.43111l-.00061-.00091-.02255-.00427L3.9086,11.425l-.01914-.00339-.00859-.00179-.01371-.00244-.01311-.00366-.0103-.00152L3.82633,11.408,3.82206,11.407l-.02316-.00518h0l-.02254-.0061L3.773,11.39485l-.01919-.00518-.00756-.00244-.01468-.00365-.01311-.00336-.00853-.00274-.01828-.00518-.00427-.00152-.02163-.00609h0l-.02255-.007-.00335-.00179-.018-.00579L3.614,11.34732l-.01371-.00427-.01219-.00426-.00939-.00366-.01651-.00579L3.557,11.32751l-.02072-.00792h0l-.02157-.00853-.00433-.00183L3.493,11.30344l-.00854-.00369-.0131-.0061-.01127-.00514-.00939-.00335-.01651-.007-.00427-.00152-.02072-.00945h0l-.02072-.00975-.00335-.00152-.01737-.008-.00761-.00332-.01219-.007-.01219-.00518-.00853-.00427-.01554-.00853-.00421-.00183-.01986-.01036H3.2867l-.0198-.01131-.00366-.00179-.01645-.00853-.00762-.00427-.01127-.007-.01219-.0067-.00762-.00457-.01554-.00945-.00426-.00243-.0192-.01128h0l-.01889-.01219-.0192-.01127-.00762-.00518-.01218-.00762-.01036-.007-.00762-.00518-.01463-.00944L3.074,11.07888l-.018-.01219h0l-.0189-.0131-.00365-.00244-.01463-.0104-.007-.00609-.01133-.007-.01036-.00853L2.98261,11.014,2.9689,11.0027l-.00365-.00244-.018-.014h0l-.01737-.01371-.00427-.00275-.014-.011-.0067-.0061-.01036-.00884-.01036-.00853-.0061-.00609-.01462-.01219-.00275-.00244L2.84434,10.9H2.84367l-.01645-.01467-.00366-.00361-.01274-.01189-.00707-.00609-.00944-.00945L2.784,10.84548l-.00609-.0061-.01274-.01279-.01926-.0192-.00091-.00061L2.7355,10.797l-.00944-.00941H2.72514l-.01554-.01706-.00238-.00274h-.001l-.00944-.0104L2.68894,10.748l-.00189-.00091-.00853-.00945L2.67,10.72817l-.00091-.00092-.00945-.01036-.007-.00792-.00182-.00244-.00854-.01036-.00761-.00792-.00275-.00244-.00853-.01036-.00609-.00792-.00274-.00244L2.606,10.65474l-.00609-.007-.00238-.00331L2.58864,10.634l-.0061-.00793-.00243-.00335-.00854-.01036-.00518-.007-.00365-.00426-.00853-.01131L2.549,10.5837l-.00275-.00423-.00853-.01127-.00421-.00609-.00432-.00427-.00786-.01127L2.517,10.54078l-.00335-.00518-.00884-.01128-.00335-.00609-.00426-.00518-.00793-.01127L2.486,10.4966l-.00518-.0061-.007-.01127L2.47041,10.474l-.01218-.01794-.00244-.00426-.00518-.007-.007-.01219-.00244-.00335L2.436,10.42134l-.008-.01189-.00183-.00365-.00518-.00762-.0067-.01219-.00269-.00339-.00432-.00788-.00762-.01189-.00183-.00274-.00517-.00945-.007-.01218-.00092-.00157L2.379,10.32657l-.00695-.01127-.001-.00278L2.365,10.3022l-.0061-.01189L2.358,10.2894l-.00579-.0104-.007-.01306V10.265l-.00609-.01127-.0061-.01188L2.33208,10.241l-.00061-.00335-.01122-.02072h0l-.01218-.02437v-.00092l-.01134-.02407-.00085-.00091-.01042-.02407-.00061-.00092-.00518-.0131-.00512-.011-.001-.00179-.0061-.01219-.00426-.01127-.00086-.00152-.00524-.01311-.32383.56065a.21352.21352,0,0,1-.01987.03535l-.37569.65049a.33787.33787,0,0,1-.02011.03447L.6541,12.85467l.62281-.13042Zm.33151-2.39768.49245-.85346V9.46519L2.099,9.45327l-.00091-.00362V9.44812l-.00244-.02589V9.418L2.09478,9.4143V9.40577l-.001-.00335L2.09137,9.3625h0l-.00092-.00426-.00091-.02773V9.32716l-.00086-.008V9.29852l-.001-.00762V9.283L2.0868,9.27871V9.1614l.00091-.01828.001-.01127V9.12514l.00086-.01923.00091-.0024.00092-.02864v-.0061l.00152-.01889.00091-.00335.001-.014.00085-.01462.00092-.00427.00061-.01828.00091-.00579.00183-.0131.00183-.01554V8.95847l.00243-.01828.00092-.008L2.107,8.92191l.00147-.0171V8.903l.00274-.01737.00153-.00853.00182-.00945.00275-.01828h0l.00243-.018L2.12245,8.822l.00061-.00884.00365-.018V8.79424l.00335-.01741.00275-.01032.00061-.0067L2.138,8.74244l.00061-.00335.00274-.01493.00335-.01188L2.1456,8.7071l.00366-.01829.00152-.00426.00366-.0131.00335-.01372.001-.00426L2.163,8.6361l.00189-.00518.00329-.01219.00427-.01462V8.60167L2.1776,8.5843l.00274-.007.00244-.01036L2.187,8.55135,2.188,8.54987l.00518-.01645.00274-.00854.00335-.00883.00524-.01737h0l.00609-.01615.0033-.00975.0028-.00762.01182-.0329L2.23275,8.421l.00274-.00579.00609-.01645.00092-.00366.00518-.01279.00518-.01219.00152-.00518.007-.01646.00183-.00335L2.26931,8.332l.00524-.01276.00055-.00274L2.283,8.30032l.00244-.00609.00518-.01036.00609-.014.00092-.00244.00792-.01554.0025-.00609.00512-.01036.00706-.01463.00086-.00091.00762-.01554.00335-.00792.00457-.00766.00853-.0155V8.17235l.00762-.01463L2.358,8.14889l.00366-.00671.00853-.01554.00091-.00186L2.379,8.1111H1.07032v2.21547h.5381Zm1.37-2.30539h.00147l.00092-.00179h0l.00091-.00153L2.98261,8.017l.00189-.00187.00055-.00087.00183-.00153.00091-.00182.00092-.00092L2.99023,8.009l.00092-.00148.00091-.00092.00183-.00183.00091-.00091.00061-.00095V8.00233l.00183-.00092.00091-.00183.00092-.00183h.00152l.00091-.00152.00183-.00183.00092-.00091L3.00516,7.992l.00152-.00092.00092-.00183.00091-.00183h.00092l.00249-.00152V7.984l.00177-.00091.00183-.00156.00061-.00088L3.017,7.97886,3.01887,7.978,3.01979,7.977l.00091-.00157.00152-.00179.00092-.00091.001-.00152H3.025l.00091-.00092.00091-.00183.00153-.00091.00091-.00091.00183-.00153L3.032,7.96424l.00061-.00183.00183-.00091L3.03533,7.96l.001-.00091.00146-.00092.00092-.00182.00091-.00092h.00092l.00091-.00152L3.04294,7.953l.00092-.00091.00183-.00183.00091-.00061.00091-.00183L3.049,7.946,3.05,7.945l.00183-.00148.00091-.00092.00153-.00091.00091-.00183a1.80851,1.80851,0,0,1,2.55674,0l.00152.00183.00091.00091.00183.00092.001.00148.00147.001.00091.00182.00092.00183.00183.00061.00061.00183.00182.00091.00092.00092.00091.00152h.00092l.00152.00274.00183.00092.00091.00152.00153.00092.00091.00091.00091.00183.00183.00091.00092.00153.00152.00091.00091.00091.00092.00183.00091.00092H5.643l.0006.00152.001.00091.00177.00179.00091.00157.00092.00091.00152.00091.00183.00183.00091.00088.00092.00156.00152.00091.00091.00183.001.00152h.00178l.00091.00183L5.66,7.99105l.00183.00092.001.00152.00177.00091.00061.00183.00183.00152h.00091l.001.00183.00147.00183.00091.00092.00092.00057v.00095l.00091.00091.00189.00183.00055.00092.00183.00148.00091.00095.00091.00092.00153.00182.00091.00153.00092.00087.00182.00187.00092.00091.00061.00153h0l.00183.00179h.00182a.13886.13886,0,0,0,.02072.025l.00433.0061.00847.00849.01128.01558.00792.00879.00518.0061.00761.011.00427.00457.00975.01279.00244.00275.02346.03108v.00061l.011.01554.01121.01584L5.82,8.18972l.00761.01123a1.64517,1.64517,0,0,1,.09263.15026l.00244.00514.00609.01131.00427.00853.00518.00945.00518.00944.00427.00793.00517.01218.00275.00514.0067.01467.00183.00335.00853.01645v.00092l.00884.018v.00091l.00761.01737c.00793.018.01554.03626.02255.05423L6.015,8.556l.00457.00854.00427.01218.00244.00671.00523.014.00178.00427.01279.03805.0061.018.00091.00275.0061.01706.00518.01828h0l.00182.0061.00335.01371.00336.00761.00274.01128.00244.01036.00274.00883.00335.0128.00183.007.00426.01463.00092.00426.00335.01828v.00153l.00518.02011h0l.00427.0198v.00244l.00371.01645.00086.00518.00335.01463.00091.00788.00153.01219.00274.0104.00091.01036.00153.011.00182.00883.00275.01372v.00609l.00243.01737v.00244l.00275.0198v.00091l.00152.02072.00091.00092.00183.0198.00092.00366.00066.01645v.00579l.00177.01493.00092.00854v.01218l.00091.011V9.1355l.00092.0128v.00792l.00061.01554.001.0061V9.2193a1.80782,1.80782,0,0,1-3.61563,0l.00092-.02072V9.17176l.001-.01554V9.1483l.00086-.0128V9.12575l.00091-.011V9.1026l.00152-.00854V9.07913l.00092-.00579.00188-.01645V9.05323l.00177-.0198.00061-.00092.00183-.02072V9.01088l.00189-.0198.00085-.00244.00244-.01737.00092-.00609.00188-.01372.00055-.00883.00275-.011.00091-.01036.00244-.0104.00183-.01219L2.556,8.89083l.00244-.01463L2.55939,8.871l.00335-.01645V8.85213l.00432-.0198V8.83141l.00451-.01919.00061-.00153.00457-.01828.00061-.00426.00457-.01463.00153-.007.00274-.0128.00244-.00883.0028-.01036.00329-.01128.0028-.00761.00329-.01371.00183-.0061.00518-.01462.00092-.00366.00579-.01706V8.65773l.007-.018V8.63884l.0061-.01828.00091-.00244.00518-.01645.00153-.00427.00518-.014.0028-.00671.00512-.01218L2.6508,8.556l.00462-.00975.00756-.018.00518-.01311L2.67,8.51l.00853-.018.007-.01737.00092-.00091.00761-.018.001-.00092.00787-.01645L2.70442,8.435l.007-.01467.00244-.00514L2.72,8.403l.00427-.00793.00457-.00944L2.734,8.37619l.00426-.00853.0061-.01131.00335-.00514A1.70772,1.70772,0,0,1,2.8391,8.201l.007-.01123.00432-.00427.0103-.01584L2.872,8.15407l.00091-.00061.02322-.03108.00177-.00275.01041-.01279L2.911,8.10227l.00853-.011.00518-.0061.007-.00879.0128-.01558.00883-.00849.00335-.0061a.15436.15436,0,0,0,.02169-.025ZM.03556,13.04872l.13925-.09411A.22452.22452,0,0,0,.03556,13.04872Z" style="fill:#a1afba;fill-rule:evenodd"/></g></svg>