<svg xmlns="http://www.w3.org/2000/svg" viewBox="0 0 18.58789 19.89566"><title>microscope-icon-uc-santa-barbara</title><g id="ICONS"><path d="M5.76522,6.97884,12.65235.09171a.21885.21885,0,0,1,.31109,0l.94213.94122.96834-.968a.21892.21892,0,0,1,.31115,0l2.17733,2.17738a.22069.22069,0,0,1,0,.3108l-.96833.96833.94152.94152a.22014.22014,0,0,1,0,.3108l-.31872.31871a1.57054,1.57054,0,0,1,.2203.80411c0,.02955-.00091.05789-.00274.08653a8.77589,8.77589,0,0,1-1.217,10.88783q-.23949.24-.49758.4604v2.34406a.21924.21924,0,0,1-.21938.22029H12.90982a.21983.21983,0,0,1-.21939-.22029v-.71666a8.81307,8.81307,0,0,1-5.75577-.00095v.71761a.2198.2198,0,0,1-.21939.22029H4.3246a.22064.22064,0,0,1-.2203-.22029v-2.345A8.81839,8.81839,0,0,1,2.3794,15.331h-2.16A.22042.22042,0,0,1,0,15.11066v-1.6469a.219.219,0,0,1,.21938-.21938H10.37746a.21925.21925,0,0,1,.2203.21938v1.6469a.22061.22061,0,0,1-.2203.2203H5.42152A6.41013,6.41013,0,0,0,15.98545,8.94568a6.35364,6.35364,0,0,0-.63651-1.50217,1.5786,1.5786,0,0,1-.493-.19014l-4.40784,4.40779a.21959.21959,0,0,1-.30988,0l-.94244-.94248-.968.96929a.22105.22105,0,0,1-.3111,0L5.73938,9.50967a.21928.21928,0,0,1,0-.31018l.96828-.96834L5.76522,7.289a.21939.21939,0,0,1,0-.31018ZM8.886,10.40854,7.01754,8.54134l-.81264.81355,1.8672,1.86655.81385-.8129Zm7.67661-5.20366V5.204l-.00092-.00091-.00183-.00183V5.1997h-.00152V5.19787L16.55738,5.197,16.55555,5.196V5.19543h-.00092a.99632.99632,0,0,0-.08958-.103,1.13359,1.13359,0,0,0-.70233-.32816H15.761l-.00859-.00091h-.00427l-.00426-.00092-.00792-.00064h-.00848l-.008-.00088h-.01706L15.69447,4.76h-.03383a1.13348,1.13348,0,0,0-.80465.33242h0a1.135,1.135,0,0,0-.3337.80411v.01736l.00091.00854v.00883l.00092.00762v.01645h0l.00091.00853v.00884l.00091.00762.001.00426v.00515l.00056.007v.00274A1.13673,1.13673,0,0,0,15.63139,7.034h.07252l.01133-.00061h.00421l.00945-.00091h.00462l.00848-.00092h.00609l.00762-.00091.007-.00092h.00609l.00853-.001.00427-.00057.00981-.00091.00421-.00092.01036-.00091h.00243L15.8197,7.023h.00274l.011-.00183h.00183l.01219-.00183H15.849l.01219-.00243h.00091l.0128-.00275h.00091l.01219-.00243h.00183l.01133-.00275.00238-.00091.00945-.00152.00426-.00183.00884-.00183.00518-.00061.00762-.00183.00609-.00183.007-.00152.01188-.00366.00792-.00152.00518-.00183.00853-.00274.00366-.00061.0128-.00457.01036-.00335h.00183l.01218-.00427.0128-.00426h0l.01133-.00427h.00177l.011-.00518.03565-.014.00427-.00153.00762-.00365a1.1408,1.1408,0,0,0,.52956-.4665h.00092l.00609-.01188h.00061l.0061-.0104V6.452l.00609-.01036.00091-.00182.00518-.01036.00092-.00153.00518-.00975.00091-.00335.00518-.00766.00152-.00361.00458-.00857.00152-.00423.00366-.007.00243-.00518L16.7,6.35969l.00336-.007a1.14448,1.14448,0,0,0,.09415-.45613,1.12883,1.12883,0,0,0-.23492-.69167ZM14.51132,6.977a1.574,1.574,0,0,1-.418-.90857L14.09236,6.058V6.05712l-.00183-.011-.00092-.00792V6.03488l-.00091-.01127-.00056-.00518v-.007l-.001-.01128V5.99862l-.00092-.00944-.00091-.01128h0V5.96571l-.00092-.00761V5.95444l-.00091-.01127V5.89655a1.575,1.575,0,0,1,.4604-1.11246l.00183-.00095V4.78256h0a1.5718,1.5718,0,0,1,1.11489-.46222h.04083l.00518.00091h.01189l.00279.00091H15.742l.01036.00088h.00944l.00275.00065.01127.00091h.00579l.00518.00092.01127.00091h.00366l.00762.00091.01127.00153h.00092l.01036.00091a1.57865,1.57865,0,0,1,.90861.41805l.12858-.1295-.94152-.94152L13.75018,1.49943,12.80805.55695,6.23172,7.13424l.94121.94152,2.1783,2.17738.94152.94244L14.51132,6.977Zm2.56953-.39637a1.57563,1.57563,0,0,1-.13133.22365l-.00365.00514-.00153.00278-.00609.00762-.00335.00457-.00274.00331-.00518.008-.00336.00423-.00274.00339-.00609.00792-.00244.00427-.00269.00335-.00584.007-.00366.00426-.00244.00331-.00609.007-.00274.00427-.00335.00426-.0061.007-.00243.00335-.00366.00427-.0061.007-.00243.00335-.00335.00457-.007.00666-.00183.0037h-.00086l-.0095.01036-.00152.00335-.01031.01127-.00371.00244c-.01127.014-.02407.02678-.03626.03992l-.00152.00152-.01128.01127-.00274.00275H16.774c-.01889.0198-.0387.03869-.05851.057a1.32826,1.32826,0,0,1-.11243.09141l-.00183.00182-.04387.032h0l-.00336.00183-.02437.01614-.00427.00271c-.02681.0174-.05363.03447-.081.05l-.00274.00179-.0131.007-.00061.00092-.01219.0067-.00427.00274-.01736.00854-.00427.00274-.01219.00579-.00091.00091c-.01615.00884-.03352.01642-.05089.02438l-.00243.00152-.014.00609-.001.00092-.03535.01462-.00427.00275-.01279.00518h-.00092l-.014.00579-.00335.00087-.018.008-.0061.00153L16.2024,7.378l-.00269.00091-.01468.00518-.00091.00061-.0128.00457-.00512.00152-.01925.0061-.00427.00183L16.129,7.403h-.00092l-.01365.00427-.00432.00091-.01067.00335-.00762.00274-.007.00149-.01189.00369-.00183.00092-.01457.00335h-.00279l-.01189.00335-.00609.00183-.00884.00183-.011.00244-.00365.00182-.01554.00244h0l-.01463.00366-.00426.00061-.01036.00183-.00945.0027-.00609.00065-.0131.00183-.00153.00091-.01487.00244-.0025.00091-.0131.00183-.0067.00091-.00792.00092L15.88,7.45813l-.0033.00092-.01559.00182a6.84577,6.84577,0,0,1-8.822,9.46367A6.87666,6.87666,0,0,1,4.80481,15.331H2.90287A8.406,8.406,0,0,0,4.45318,17.0516l.05455.04479.01645.01371.0067.00518.00945.00792.01645.01371.04936.039.01554.01279.01646.01311.01706.01371.01645.0131.00092.00091.01559.01189.0164.01306.01554.01219.00092.00065.01736.0131.01615.01219.10122.07587.0103.00788.007.00522.05.03687.01737.01218q.10238.074.20719.14413l.01554.01127.00183.00183.01737.01127c.12858.08623.259.1685.39276.24711q.17367.10239.35071.19684l.01919.00945.01615.00853.00274.00087.0189.0104.01919.00945.01707.00975H6.02l.0192.01036.01889.00853.01889.00941v.00095l.01919.00944.0189.00945.01889.00884.00183.00152.01736.00792.01895.00945.01884.00944.00365.00183.01554.007.01889.00945.01925.00853.00422.00274.05332.02407.00609.00335.05881.02682.01219.00518a8.3644,8.3644,0,0,0,6.43891.17611l.01889-.0067c.23066-.08993.45614-.19105.67643-.29983H13.518l.08988-.0457.00336-.00183.05515-.02834.01919-.01036.01128-.00609.0067-.00335.0192-.00975.018-.00945.01828-.0104.01884-.01032.00761-.00426.01036-.00518.01829-.01036.01828-.01036.018-.00945.00269-.00091.03351-.01889.01889-.01036.01829-.01132.01828-.01032.03631-.02072.01793-.01036.01828-.01039.01706-.01033.01737-.00975.00091-.00061.01889-.01127.01829-.01127.018-.01036.00366-.00335.03352-.01924.01736-.01123.0189-.01128.01828-.011.018-.01032.01737-.01219.01828-.01127.018-.01127.01828-.01128.03535-.02315.018-.01128.01828-.01219.018-.01127.03479-.02316H14.412l.01706-.01219.01828-.01192.01737-.01123.018-.01219L14.5,17.56014l.018-.01188.01645-.01219.01829-.01219.00335-.00152.01371-.01036.00457-.00274.03017-.02164.01706-.01279.01645-.01036.00092-.00092.00426-.00365.03017-.02133.01737-.01311.01736-.01218.01737-.0128.01706-.01219.01737-.0128.01737-.01218.01706-.01311.00518-.0043.01128-.00758.01737-.0131.01736-.01284.01615-.01306.01737-.0128.00091-.00091.0156-.01219.0164-.01284.03351-.02586.01311-.01036.00426-.00274.01646-.01371.01645-.0131.01645-.0128.01707-.014.01559-.01279.0164-.01311.01737-.01371.01645-.0131.01646-.01371.0034-.00335.01219-.01036.0164-.01314.01615-.01368.00457-.00335q.28254-.23721.54236-.49757a8.32549,8.32549,0,0,0,1.3742-9.97952ZM14.21576,1.344l1.8675,1.86659.81264-.81294L15.02931.53048l-.81355.81355ZM.43877,14.89128h9.7193V13.68314H.43877v1.20814Zm14.64234,2.79318a8.74843,8.74843,0,0,1-1.95191,1.10819V19.456h1.95191V17.68446ZM6.495,18.792a8.7324,8.7324,0,0,1-.97692-.47167,9.01909,9.01909,0,0,1-.97413-.63652V19.456H6.495Z" style="fill:#a1afba;fill-rule:evenodd"/></g></svg>