<svg xmlns="http://www.w3.org/2000/svg" viewBox="0 0 16.52112 18.95467"><title>music-note-uc-santa-barbara</title><g id="ICONS"><path d="M16.52112,12.70223v.63221a2.55469,2.55469,0,0,1-.88363,1.90807l-.014.01128a3.226,3.226,0,0,1-4.18718-.01128h0a2.55466,2.55466,0,0,1-.88363-1.90807v-.00087h.00091a2.55114,2.55114,0,0,1,.88272-1.90772h0a3.14708,3.14708,0,0,1,2.09968-.77912h.00092v.00152a3.29446,3.29446,0,0,1,.7807.09263,3.09011,3.09011,0,0,1,.40525.12676V4.5049L5.96815,6.9388v9.329a2.55373,2.55373,0,0,1-.88363,1.90772h0a3.14876,3.14876,0,0,1-2.09968.77912V18.9531a3.1586,3.1586,0,0,1-2.10146-.77755h0A2.55062,2.55062,0,0,1,0,16.26783v-.00092H.00061A2.55291,2.55291,0,0,1,.88338,14.3598h0v-.00092a3.15486,3.15486,0,0,1,2.10054-.7782h.00092a3.32532,3.32532,0,0,1,.78.09324,3.25933,3.25933,0,0,1,.40586.128V3.58318a.21881.21881,0,0,1,.17276-.2142L16.242.00814a.21943.21943,0,0,1,.27027.15205A.1968.1968,0,0,1,16.5202.219h.00092V12.70223Zm-.43969.63221V.50846L4.6095,3.74894V14.14285h0a.2185.2185,0,0,1-.32116.19349,2.69242,2.69242,0,0,0-.62646-.23584,2.84764,2.84764,0,0,0-.677-.08014H2.98392a2.71463,2.71463,0,0,0-1.80839.66577h0a2.11854,2.11854,0,0,0-.73676,1.58078H.43938v.00092a2.11744,2.11744,0,0,0,.73615,1.58047h0v.00092a2.71138,2.71138,0,0,0,1.80931.66668V18.515a2.71322,2.71322,0,0,0,1.80869-.66669h0a2.11349,2.11349,0,0,0,.73585-1.58047V6.77217h0A.22133.22133,0,0,1,5.69,6.5604L14.8669,4.00976a.21924.21924,0,0,1,.29556.20659V11.2089h-.00085a.22207.22207,0,0,1-.02505.10268.21974.21974,0,0,1-.29647.09172,2.6951,2.6951,0,0,0-.62525-.23675,2.86583,2.86583,0,0,0-.678-.08105V11.087H13.536a2.71182,2.71182,0,0,0-1.80869.666h0a2.11925,2.11925,0,0,0-.73677,1.58052h.00092v.00087a2.12082,2.12082,0,0,0,.73585,1.58082h0a2.78614,2.78614,0,0,0,3.60612.011l.01219-.011A2.11762,2.11762,0,0,0,16.08143,13.33444Z" style="fill:#a1afba;fill-rule:evenodd"/></g></svg>