<svg xmlns="http://www.w3.org/2000/svg" viewBox="0 0 19.85697 19.90511"><title>orator-icon-uc-santa-barbara</title><g id="ICONS"><path d="M1.31819,13.90314H2.46258V12.82023l-.73676.43176a.219.219,0,0,1-.29983-.07865l-.4863-.82813a.21992.21992,0,0,1,.07862-.29983l2.48153-1.45616a.21511.21511,0,0,1,.08282-.08653l.00426-.00244a1.1862,1.1862,0,0,1,.14169-.40007,1.14229,1.14229,0,0,1,.41378-.4153l.958-.56217H5.101a.17049.17049,0,0,1,.02864-.01737,1.15668,1.15668,0,0,1,.85681-.10969,1.16909,1.16909,0,0,1,.3498.15631L6.33806,9.151c.16307-.05515.32968-.10542.50184-.15113.15539-.04235.32115-.081.49483-.11822L7.78721,8.587c.04144-.2142.06642-.68831.08562-1.04512.00518-.10085.01036-.19444.01468-.26691-.07008-.0777-.139-.15875-.20481-.24254a4.7524,4.7524,0,0,1-.71757-1.29223,4.069,4.069,0,0,1-.25747-1.38547V4.33313A.266.266,0,0,1,6.711,4.29779l-.00153-.0585v-.007l-.00274-.08989c0-.20384-.00183-.36351-.00426-.51037l-.00183-.02438L6.70156,3.593l-.00091-.06734C6.66439,1.52807,6.63605,0,9.92407,0c3.2874,0,3.25967,1.52807,3.22433,3.52568l-.00275.06734.001.01462-.001.02438c-.00243.14686-.00426.30653-.00426.51037l-.00244.09507v.00183h0l-.00183.06033a.209.209,0,0,1,.00244.03351h0v.02164a4.07494,4.07494,0,0,1-.25625,1.38547,4.76135,4.76135,0,0,1-.71782,1.29223c-.06922.088-.14265.17428-.21761.25564.0067.08105.0128.1685.01981.266.02412.35681.05606.82726.09933,1.04238l.44912.27728a6.11178,6.11178,0,0,1,2.38215.9692,2.01049,2.01049,0,0,1,.90678,1.61587h-.00091l-.00055,2.4443h2.73523A1.31963,1.31963,0,0,1,19.857,15.22127v.83091a1.3147,1.3147,0,0,1-.387.93025l-.00086.00092a1.31546,1.31546,0,0,1-.9303.387H16.87518v1.217a1.31551,1.31551,0,0,1-.386.93025l-.00158.00061a1.31289,1.31289,0,0,1-.93025.387H4.29962a1.32119,1.32119,0,0,1-1.31813-1.31783v-1.217H1.31819A1.32119,1.32119,0,0,1,0,16.05218v-.83091A1.30913,1.30913,0,0,1,.387,14.291l.00091-.00091v-.00092l.00244-.00152a1.31153,1.31153,0,0,1,.92787-.38453Zm10.843-10.27539V3.62318a.6022.6022,0,0,0-.14169-.01371H10.31439V4.1329h.00091a.44219.44219,0,0,0,.03114.164.38662.38662,0,0,0,.08556.13559.39463.39463,0,0,0,.12523.089.351.351,0,0,0,.14321.02955v.00092l1.27486.00061V4.55191A.17692.17692,0,0,0,12.042,4.5388a.20756.20756,0,0,0,.05424-.03721l.00609-.00666a.21334.21334,0,0,0,.04236-.06765.2293.2293,0,0,0,.01468-.08109h.00177V3.62775Zm.54328.20019h-.10628v.51825H12.599a.66377.66377,0,0,1-.16234.43268.19925.19925,0,0,1-.02931.032.64675.64675,0,0,1-.19008.12858.59116.59116,0,0,1-.242.0518V4.99067l-1.27486-.00091v.00091a.8034.8034,0,0,1-.31872-.06733.826.826,0,0,1-.26752-.18922.88367.88367,0,0,1-.177-.27728l-.0131-.03717-.01372.03717-.007.01554a.85159.85159,0,0,1-.17.26174.83361.83361,0,0,1-.26783.1883.80222.80222,0,0,1-.31871.06734V4.98793H7.87191v.00092a.60386.60386,0,0,1-.241-.05089H7.63a.62846.62846,0,0,1-.2011-.1426L7.428,4.79445H7.42705a.6619.6619,0,0,1-.13224-.20811.67.67,0,0,1-.04662-.24285h.00092L7.25,3.82794H7.14368c.00092.11579.00274.22365.00274.31445v.08288h0l.00244.07861a.27713.27713,0,0,1-.00061.05271,3.63024,3.63024,0,0,0,.22883,1.23526,4.289,4.289,0,0,0,.65023,1.16943c.07618.09659.1554.18892.23858.27637l.0025.00243.00085.00092.007.007a3.09741,3.09741,0,0,0,.68314.54754,1.77816,1.77816,0,0,0,1.92941.00092,3.38557,3.38557,0,0,0,.932-.83519,4.289,4.289,0,0,0,.65023-1.16943,3.63015,3.63015,0,0,0,.22974-1.23708V4.35324a.19485.19485,0,0,1-.00152-.03808l.00152-.08989.001-.08288c0-.0908.00085-.19866.00268-.31445ZM7.68788,3.61739v.01036L7.687,4.34349h.00092a.21879.21879,0,0,0,.05545.14687l.00335.00274a.176.176,0,0,0,.06033.04327h0a.16058.16058,0,0,0,.0649.01371h0L9.14678,4.551V4.55008A.35484.35484,0,0,0,9.29,4.52083a.38366.38366,0,0,0,.12523-.08837.41006.41006,0,0,0,.08318-.12675l.00335-.00884a.44717.44717,0,0,0,.03114-.164h.00086V3.60947H7.82865l-.01981-.00091a.78194.78194,0,0,0-.121.00883Zm.17032-.4476h4.16128a.30943.30943,0,0,1,.03108.00274.80652.80652,0,0,1,.30836.05789.55815.55815,0,0,1,.082.04571,1.50658,1.50658,0,0,1-.20993-.55455,1.32755,1.32755,0,0,0-.03687-.31872.42325.42325,0,0,0-.15656-.21755v.00091l-.01712-.014L12.003,2.16093l-.00244-.00152a2.14289,2.14289,0,0,1-.628-.60818,1.3581,1.3581,0,0,1-.22213-.75139V.55364a5.64285,5.64285,0,0,0-1.22641-.114,5.63351,5.63351,0,0,0-1.22642.114v.2462a1.36068,1.36068,0,0,1-.22274.75139,2.1505,2.1505,0,0,1-.627.60818l-.00371.00152-.01646.01127-.01706.014V2.18531a.41546.41546,0,0,0-.15631.21755,1.316,1.316,0,0,0-.03626.31872,1.61649,1.61649,0,0,1-.16759.51829.5062.5062,0,0,1,.05333-.025.911.911,0,0,1,.33364-.046l.02072.00091Zm-.72634-.2953a.57194.57194,0,0,0,.04808-.16758,1.59839,1.59839,0,0,1,.05551-.43267A.841.841,0,0,1,7.548,1.83547l.00183-.00179h0l.0198-.01462.0061-.00427.001-.00091L7.5791,1.813l.01645-.01219.00762-.00518a1.71457,1.71457,0,0,0,.50275-.48116A.93239.93239,0,0,0,8.26071.79984L8.2598.685c-.9656.38362-1.11764,1.1859-1.12794,2.18953Zm-.4562,6.62818.00945.01462h0a.16438.16438,0,0,1,.01737.02925,1.15842,1.15842,0,0,1-.4214,1.56159l-.00183.00091-.96742.56766A1.15811,1.15811,0,0,1,4.481,11.808v2.09512H15.3663v-2.4443h-.00091a1.59373,1.59373,0,0,0-.73158-1.266,5.55687,5.55687,0,0,0-2.1003-.86717,2.85854,2.85854,0,0,1-1.04695.81964,3.6441,3.6441,0,0,1-1.56341.36868,3.90519,3.90519,0,0,1-1.6402-.37051A2.3543,2.3543,0,0,1,7.31127,9.336c-.11914.02589-.23828.05515-.35833.08714-.09415.0259-.18648.0518-.27728.07953ZM4.0422,11.89608l-.39373.23214v1.77492H4.0422V11.89608Zm8.07759-2.75265-.23864-.14687c-.04473.02834-.08958.057-.13468.08467a3.71449,3.71449,0,0,1-1.72033.646A3.01967,3.01967,0,0,1,8.1069,9.08645c-.04485-.03047-.08995-.06247-.13657-.096L7.719,9.15435a1.98966,1.98966,0,0,0,.75414.59543,3.4687,3.4687,0,0,0,1.45006.32724,3.211,3.211,0,0,0,1.37267-.32663,2.52632,2.52632,0,0,0,.824-.607Zm-.4891-.50794c-.04388-.248-.07252-.63408-.09476-.95706a3.35582,3.35582,0,0,1-.42689.29708,2.20712,2.20712,0,0,1-2.37-.00091,3.32584,3.32584,0,0,1-.4345-.30226c-.01737.32755-.04144.71513-.08191.95889.04382.03256.088.063.13127.09323a3.99106,3.99106,0,0,0,.63048.36107,2.14723,2.14723,0,0,0,1.01642.20476,2.45122,2.45122,0,0,0,.81294-.2075,5.42083,5.42083,0,0,0,.65724-.347c.05271-.03291.10542-.06586.15966-.10025Zm1.085-5.78442c-.0131-.9924-.17032-1.78523-1.12739-2.16611V.79984a.93883.93883,0,0,0,.15388.51459,1.73393,1.73393,0,0,0,.50184.48116l.00762.00518.01742.01219.00177.00092.00153.00091.00609.00427.02011.01462h0l.00152.00179a.84651.84651,0,0,1,.31262.43877,1.63964,1.63964,0,0,1,.05552.43267.447.447,0,0,0,.04747.14416ZM8.7202,6.67383a2.89168,2.89168,0,0,0,1.24439-.1432,2.91528,2.91528,0,0,0,1.24561.145c.05424-.00183.10269-.00335.17368-.00335a.21983.21983,0,0,0,.21938-.21938.22382.22382,0,0,0-.02163-.096.987.987,0,0,0-.2334-.33152,1.83251,1.83251,0,0,0-.67-.39915,1.10066,1.10066,0,0,0-.70142-.04236l-.01122.00427-.01042-.00427h0a1.099,1.099,0,0,0-.70294.04236A1.83654,1.83654,0,0,0,8.58,6.02543a1.0039,1.0039,0,0,0-.23828.348.21964.21964,0,0,0,.12706.28337.22236.22236,0,0,0,.0777.01463h0c.07252,0,.11914.00091.17368.00243ZM9.00174,6.243a1.4514,1.4514,0,0,0,.80745-.13133.21824.21824,0,0,1,.09416-.057.22571.22571,0,0,1-.0908-.05272l-.00427-.0043-.00853-.00332-.00092-.00091v.00091A.69862.69862,0,0,0,9.393,6.041a1.48115,1.48115,0,0,0-.39123.202Zm1.02592-.1883a.22939.22939,0,0,1,.09172.05454l.00335.00335h0a1.44758,1.44758,0,0,0,.80684.13132,1.49211,1.49211,0,0,0-.39214-.20232.69585.69585,0,0,0-.40617-.04723l-.00853.00332a.21016.21016,0,0,1-.09507.057ZM2.902,13.90314h.30683V12.383l-.30683.17977v1.34038Zm.9467-2.40286.04845-.02834L3.632,11.01912,1.42874,12.3123l.26423.45157.86194-.50611a.24865.24865,0,0,1,.03808-.02163l1.25567-.73585Zm.44486-.21756a.228.228,0,0,1,.089.02586.7242.7242,0,0,0,.35772.089.713.713,0,0,0,.34888-.0975l.96986-.56918h0a.72079.72079,0,0,0,.26357-.96651.22091.22091,0,0,1-.0164-.02864.72124.72124,0,0,0-.95895-.25046L5.34382,9.488h0l-.01036.00579H5.33255l-.969.56853a.70633.70633,0,0,0-.25564.25812.73188.73188,0,0,0-.09781.34888.21217.21217,0,0,1-.01975.09507l.30312.51829Zm12.14289,6.08759H3.42025v1.217a.88064.88064,0,0,0,.87937.87754H15.55735a.87925.87925,0,0,0,.621-.25656l.00085-.00091a.87685.87685,0,0,0,.25717-.62007v-1.217Zm2.10243-3.02841H1.31819a.87566.87566,0,0,0-.621.25744v.00095a.87126.87126,0,0,0-.25838.621v.83091a.88062.88062,0,0,0,.87942.87845H18.53884a.87636.87636,0,0,0,.621-.25747h.00092a.87957.87957,0,0,0,.25661-.621v-.83091a.88074.88074,0,0,0-.8785-.87937Z" style="fill:#a1afba;fill-rule:evenodd"/></g></svg>