<svg xmlns="http://www.w3.org/2000/svg" viewBox="0 0 17.63932 21.06876"><title>paint-palette-icon-uc-santa-barbara</title><g id="ICONS"><path d="M.43968,11.90461A8.74335,8.74335,0,0,0,9.16481,20.63h4.40224l-2.6713-4.06134c-.03376-.05089-.06581-.10268-.09689-.1554h0l-.018-.03108h0l-.03626-.06307h0l-.01645-.03108v-.00095l-.03376-.063c-.02133-.043-.04242-.08531-.06314-.12858h0l-.01462-.03291h0l-.01365-.032-.01378-.0326-.014-.032V15.965l-.01371-.032-.01311-.03352-.01279-.03295h0l-.01219-.03287h0l-.01219-.0329-.01182-.03352-.01042-.032h0l-.01128-.03383-.01036-.03351-.01035-.033-.01036-.03352h0l-.00945-.03378h0l-.00975-.03352-.00853-.03382-.00762-.03382-.00884-.03352-.00761-.03382-.00793-.03351-.0067-.03383-.007-.03351-.00609-.03474-.007-.03352-.00518-.03386-.00518-.03351h0L10.344,15.128h0l-.00463-.03443h0l-.00426-.03382h0l-.0033-.03352-.00432-.03474-.00366-.03351h0l-.00244-.03474h0l-.00274-.03352h0l-.00244-.03477h0l-.00182-.03439-.00183-.03352-.00061-.03473-.00183-.03352v-.03474l-.00091-.03351v-.03474l.00091-.03352v-.03473l.00183-.03352.00158-.03474h0l.00177-.03443.00183-.03382.00249-.03447.0033-.03352.0028-.03469.00329-.03352.00457-.03382.00433-.03443.0042-.03382.00518-.03443.00518-.03383.00518-.03351.0061-.03382.00609-.03352.00579-.03382.008-.03291.007-.03352.00762-.03382.00792-.03352h0l.00853-.03382.00859-.03291.00878-.03351.00853-.03291h0l.01036-.03352.01036-.0329.01036-.03291.01036-.03291.01036-.0326.01127-.03295.01219-.03287.01189-.03291h0l.0131-.03172.01219-.03287h0l.01279-.032.0131-.032h0l.01372-.03291.01371-.03172.01462-.03135h0l.01493-.03169h0l.01554-.032h0l.01463-.03108h.001l.01548-.03108h0l.01554-.032h.00092l.01554-.03108h0l.01615-.03108.01736-.03108h0l.01737-.03108h.00092l.01706-.03047h0l.01828-.03108h0l.018-.0302h0l.01919-.03013h0l.01889-.03017h0l.0192-.03047.01981-.03016h0l.0198-.02925h.00092l.0198-.0296h0l.02072-.02921h0l.02072-.02925h0l.02163-.02956h.00092l.02072-.02925.02224-.02864h0l.02255-.02834h0l.02255-.02955h0l.02315-.02834h0l.02347-.02773h0l.45857-.54663V6.25091l-.75986.00335h0l-1.06164.00336-.02254-.00153H9.70194l-.06307-.00278H9.63551a2.58707,2.58707,0,0,1-1.35865-.46706,2.303,2.303,0,0,1-.27636-.23493c-.114-.10969-.22639-.23066-.30318-.32146l-.00853-.00948A4.08586,4.08586,0,0,0,.43968,7.80549v4.09912Zm13.75445.24894v7.54193l1.31477-3.32793a4.79819,4.79819,0,0,0,.31171-1.90377,4.43825,4.43825,0,0,0-.43877-1.82332l-.24528-.48691Zm-.03352,8.81252-.00274.00336-.00092.00243h-.00061l-.00274.00366-.00183.00244h0l-.00061.00183-.00091.00091v.00091l-.00183.00061-.00091.00183-.00086.00092h0l-.00067.00182-.00091.00153-.00183.00091h0l-.00091.00183-.00092.00091-.00061.00061h0l-.00183.00183-.00274.00274h0l-.00061.00057-.007.008-.00091.00092-.01554.01371-.00091.00091.04936-.05515Zm-.05789.06125-.00518.00426-.00269.00092-.00341.00244-.00183.00091-.00152.00091h0l-.00274.00183v.00092h-.00153L14.082,21.041h-.00092l-.00183.00183h-.00061l-.00274.00091-.00091.00092-.00092.00061-.00152.00091-.00274.00091h-.00092l-.00243.00183h-.00092l-.00091.00092-.00153.00061-.00457.00182-.00152.00092H14.0561l-.00183.00091-.00427.00149-.00183.00095h-.00152l-.00091.00091h-.00092l-.01554.00423-.00274.00095h0l-.00244.00092h-.00091l-.00183.00091H14.018l.08471-.03717Zm-.348-1.33184L12.44,16.36755a4.78242,4.78242,0,0,1-.31171-1.90377,4.43541,4.43541,0,0,1,.43877-1.82332l.24528-.48691h.94244v7.54193ZM3.64482,5.76979a2.43383,2.43383,0,0,1,1.2999,4.69085l-.01742.00427H4.92669v.00091A2.43465,2.43465,0,0,1,1.9449,8.77622l-.00427-.01794V8.75737H1.93972a2.43467,2.43467,0,0,1,1.7051-2.98758Zm-1.85258.92507a2.87218,2.87218,0,1,1,3.27095,4.18627l-.01584.00518H5.044A2.86963,2.86963,0,0,1,1.5235,8.89388l-.00518-.01554L1.5174,8.87742h.00183l-.00091-.00183L1.5174,8.87468a2.87179,2.87179,0,0,1,.27484-2.17982ZM7.7284,16.34927a1.27346,1.27346,0,0,1,1.56006.87692l.00153.01036v.00061H9.2909l.00091.00274v.00183a1.27007,1.27007,0,0,1-.87656,1.55793l-.0095.00274-.00092.00092h0l-.00274.00057H8.40057a1.27249,1.27249,0,1,1-.67217-2.45462Zm-1.15049.38087a1.70982,1.70982,0,0,1,3.131.37752.11952.11952,0,0,1,.007.02164v.00179h0a1.70956,1.70956,0,0,1-1.18163,2.09024l-.02255.00674H8.51087a1.71045,1.71045,0,0,1-1.933-2.49793ZM4.06012,12.309a1.74767,1.74767,0,0,1,.9364,3.36754l-.019.00423H4.97666l.00091.00095a1.74608,1.74608,0,0,1-2.13686-1.21088l-.00518-.01889V14.451H2.83462a1.74855,1.74855,0,0,1,1.2255-2.142Zm-1.437.60361a2.18527,2.18527,0,1,1,2.49092,3.18559l-.01128.00339H5.09945l-.00274.00183A2.18414,2.18414,0,0,1,2.41931,14.589l-.00359-.01189-.001-.00091h.001l-.001-.00092L2.41413,14.571a2.17626,2.17626,0,0,1,.209-1.65848Zm13.004-.759H16.033l.44334.52866a3.02013,3.02013,0,0,1,.21152,3.64634L14.9577,18.95688l.9595-2.42784a5.25337,5.25337,0,0,0,.34127-2.079,4.907,4.907,0,0,0-.48539-2.00736l-.146-.28916Zm-1.5235,8.87285-.00091.00092.00091-.00092Zm-.08745.039L14.011,21.066h-.00244l-.00091.00091h-.007l-.00329.00087h-.00768l-.00365.001H9.16481A9.1813,9.1813,0,0,1,0,11.90461V7.80549A4.52314,4.52314,0,0,1,8.02828,4.9431L8.03,4.945c.07069.082.17191.19166.27454.291a1.99067,1.99067,0,0,0,.22365.19161,2.17782,2.17782,0,0,0,1.12982.38793h0l.05942.00274h0l.039.00061.01645-.00061c.0838,0,.67613-.00092,1.05975-.00183h0l.76175-.00335V1.31813A1.31241,1.31241,0,0,1,11.979.38971L11.98048.387h.00092l.00091-.00092A1.31557,1.31557,0,0,1,12.91262,0h2.12375a1.31963,1.31963,0,0,1,1.31808,1.31813V11.85464l.45857.54663a3.45508,3.45508,0,0,1,.2401,4.16738L14.16762,20.953h0v.00092l-.00092.00182-.00091.00061L14.164,20.96h0l-.00183.00335-.00061.00183-.00091.00091-.14443.09934Zm-1.02592-2.11005-1.72911-2.62681c-.01743-.02743-.03449-.05424-.051-.08109h-.00085l-.01652-.02769h0l-.01645-.02682h0l-.01645-.02742h0c-.01554-.02776-.03108-.05545-.04571-.08379h0l-.02925-.05546h0l-.014-.02833h0l-.01371-.02777-.02681-.056-.0128-.02864h0l-.0131-.02833h0l-.01219-.02865h0l-.01188-.02833h0l-.01219-.02864h0L10.957,15.7423h0l-.01128-.02772h0l-.01036-.02925-.01036-.02956h0l-.01036-.02834h0l-.01036-.02955h0l-.00853-.02834L10.88637,15.54h0l-.00951-.02925-.00878-.02925-.00767-.02955h0l-.00884-.02926h0l-.00762-.02955-.007-.02929h0l-.00762-.02921-.00695-.03047h0l-.0061-.02926h0l-.00706-.02925-.00579-.03016-.00518-.02956-.00518-.02929h0l-.00518-.02951h0l-.00512-.03017h0l-.00463-.03016-.00427-.02926-.00329-.03047-.00341-.02925h0l-.00366-.02925v-.00091l-.00243-.03017h0l-.00269-.02955-.00249-.02925-.00183-.03017v-.00095l-.00275-.02952-.0006-.03017h0l-.00183-.02925v-.03016L10.748,14.678v-.089l.00092-.03017.00091-.03016.00152-.02926.00183-.03047.00183-.02925.00244-.03016.00183-.02956.00243-.02925.00366-.03016.00335-.02956.00366-.02925h0l.00432-.03017.00421-.02955h0l.00427-.03017.00426-.02925.00518-.02925.0061-.02956.00609-.02925L10.812,14.025l.007-.02929.00579-.02922.00792-.02955.007-.02834.00762-.02955h0l.00792-.02834.00761-.02956.00854-.02833.00889-.02956h0l.00939-.02834.00944-.02925.00945-.02864h0l.00975-.02868.01036-.0283.01036-.02773.011-.02929h0l.01036-.02769h0l.01133-.02833h0l.01219-.02864.01219-.02773h0l.01182-.02742h.00092l.01218-.02777.0128-.0286h0l.0131-.02743h0l.01371-.02772.014-.02773h0l.01371-.02682h.00092l.01371-.02742h0l.014-.02773.01554-.02681h0l.01554-.02681.01463-.02682h0l.01645-.02681h0l.01615-.02651h0l.01585-.02681h.00061l.01645-.0259h0l.01645-.02682h.00092l.01645-.02593h.00092L11.28,12.936h0l.01828-.025h0l.018-.02586h0l.01828-.02682h0l.01889-.025h0l.0192-.02529h0l.01889-.025h.00091l.01889-.02586h0l.01981-.025h0l.02072-.025h0l.02072-.025h0l.44334-.52866h.40586l-.14595.28916a4.88147,4.88147,0,0,0-.48539,2.00736,5.24214,5.24214,0,0,0,.341,2.079l.95889,2.42632Zm2.9245-11.81564v4.57415H12.03411V7.13972ZM12.03411,6.701V1.31813a.87859.87859,0,0,1,.25656-.621l.00091-.00091a.87552.87552,0,0,1,.621-.25747h2.12375a.88062.88062,0,0,1,.87839.87936V6.701Z" style="fill:#a1afba;fill-rule:evenodd"/></g></svg>