<svg xmlns="http://www.w3.org/2000/svg" viewBox="0 0 6.98737 20.75004"><title>pencil-icon-uc-santa-barbara</title><g id="ICONS"><path d="M1.87512,15.35869V.4406h-.557a.872.872,0,0,0-.621.25655L.69624.69807a.87261.87261,0,0,0-.25747.621V14.85167l1.43635.507ZM2.3148.4406V15.34223l2.3276-.951.03108-.01219V.4406Zm2.79745,0V14.35683l.01036.00244,1.42356.36442L6.5486,1.319H6.548V1.31813A.88062.88062,0,0,0,5.67046.43877V.4406H5.11225ZM6.98311,14.96471a.22728.22728,0,0,1-.00244.096.22233.22233,0,0,1-.04236.08379L4.172,20.34327a.77643.77643,0,0,1-.28185.2986.76133.76133,0,0,1-.39641.10722V20.75a.761.761,0,0,1-.678-.40677L.032,15.12194A.22437.22437,0,0,1,0,15.00615H0V1.319A1.31387,1.31387,0,0,1,.38605.38788H.38788L.38977.38514A1.31561,1.31561,0,0,1,1.31813,0H5.67046V.00183a1.32069,1.32069,0,0,1,1.31691,1.3163V1.319H6.98676L6.98311,14.96471Zm-.54237.184L4.97087,17.90994l-1.13318-.4638h0a.222.222,0,0,0-.22913.039l-.86779.77028-.66942-.23919L.678,15.401l1.14719.404a.74034.74034,0,0,0,.5448-.01371l.00092.00183L4.80755,14.798a.31631.31631,0,0,1,.10177-.025.32157.32157,0,0,1,.10543.01036l1.426.3653ZM2.37879,18.59246l.823,1.54418a.32944.32944,0,0,0,.121.12954.32213.32213,0,0,0,.17094.04509v.00092a.327.327,0,0,0,.17124-.04662.32152.32152,0,0,0,.12066-.1298l.97778-1.83612-.96651-.39646-.84889.75326a.21925.21925,0,0,1-.23334.05515Z" style="fill:#a1afba;fill-rule:evenodd"/></g></svg>