<svg xmlns="http://www.w3.org/2000/svg" viewBox="0 0 17.35112 16.47115"><title>piano-keys-icon-uc-santa-barbara</title><g id="ICONS"><path d="M.43694,16.02537l2.302.00091.00336-5.30847L1.749,10.7172a.21834.21834,0,0,1-.21847-.21878L1.53751.444.44827.443.43694,16.02537Zm2.52992-5.74546H1.96745l.007-9.84023H3.9617L3.955,10.27991Zm1.20752.43877-.99332-.00087L3.1768,16.02628l3.37089.00183L6.55988.4406l-2.16-.00092-.007,10.05962a.21883.21883,0,0,1-.21847.21938Zm5.41116-.436h1.98731L11.579.44242H9.59164l-.0061,9.84028ZM9.37317.00427l2.42516.00091h.01122l1.35591.00091.01645-.00091,2.4245.00091L15.628.007l1.50461.00091a.21945.21945,0,0,1,.21847.21939l-.007,16.02445a.21945.21945,0,0,1-.21847.21939L3.004,16.46414a.26982.26982,0,0,1-.04662.00518l-2.73894-.001A.21882.21882,0,0,1,0,16.249H0v-.00514H0L.00609.21938A.21925.21925,0,0,1,.22548,0L9.368.00427Zm5.01992,10.28h.98723L15.387.44486,13.39977.444l-.00609,9.83966.99423.00061Zm1.20661.43724h-.99423l-.00366,5.31,2.30445.00092.007-15.5866L15.82488.44486,15.81817,10.503a.21845.21845,0,0,1-.21847.21847ZM10.794,15.94767l.00335-5.22712h.99424a.21866.21866,0,0,0,.21847-.21847L12.01613.444l.9464.00091-.0067,10.05722a.21865.21865,0,0,0,.21847.21847l.99423.00091-.00366,5.22713L10.794,15.94767Zm-.43816-.00152-3.37-.00092L6.99773.44151,9.15439.44242l-.0067,10.05875a.21867.21867,0,0,0,.21847.21847h.99424Z" style="fill:#a1afba;fill-rule:evenodd"/></g></svg>