<svg xmlns="http://www.w3.org/2000/svg" viewBox="0 0 18.23068 18.23084"><title>soccer-ball-icon-uc-santa-barbara</title><g id="ICONS"><path d="M13.67209,1.22338a9.11764,9.11764,0,0,1,4.48274,9.06634.23072.23072,0,0,1-.00427.032A9.12441,9.12441,0,0,1,17.00794,13.671l-.00091.00091h.00091a9.08256,9.08256,0,0,1-5.526,4.24447l-.00274.00152h-.00336l-.00182.00091h-.00092l-.00335.00092a9.08408,9.08408,0,0,1-6.91059-.912H4.55822A9.102,9.102,0,0,1,.3881,6.48767.15165.15165,0,0,1,.396,6.4633,9.1481,9.1481,0,0,1,1.22359,4.558l.0067-.01127A9.15068,9.15068,0,0,1,3.56916,1.88062,9.04956,9.04956,0,0,1,4.77,1.10241l.0198-.01127A9.15515,9.15515,0,0,1,10.3012.0771c.27453.03626.54754.08562.816.146a.12628.12628,0,0,1,.032.00792,9.13909,9.13909,0,0,1,2.522.99241ZM3.032,13.36962l1.87427-1.06218.128-3.49917L3.20566,6.5437,1.37716,7.594.96,10.93137l2.072,2.43825Zm2.08262-.67708L3.27117,13.73766l1.37876,2.77067,3.01592.01645L7.969,14.51925,5.1146,12.69254Zm.0128-9.4292L4.73708,1.62406a8.45427,8.45427,0,0,0-.90161.60544A8.65956,8.65956,0,0,0,1.60964,4.76612l-.007.01219A8.65168,8.65168,0,0,0,.84088,6.50748l.40769.65632L3.10815,6.09553,5.1274,3.26334Zm.00944-1.85866.40678,1.71,2.85144.44486L11.297,2.27612,10.90389.62465q-.3277-.06857-.65906-.113a8.723,8.723,0,0,0-5.108.89308ZM8.2134,3.97421,5.4644,3.5458l-1.93058,2.706,1.78,2.20419,3.012-1.59784-.11243-2.884ZM7.82223,16.96264l-2.4331-.0128a8.6338,8.6338,0,0,0,5.0958.7325l-2.6627-.7197ZM3.9476,16.08358,2.79706,13.7703.73028,11.33819l.00609.02254A8.62363,8.62363,0,0,0,3.9476,16.08358ZM.56269,10.57034.9454,7.50842.68031,7.08184a8.73608,8.73608,0,0,0-.1685.90435,8.60729,8.60729,0,0,0,.05088,2.58415ZM8.541,7.24,5.4711,8.8689l-.12676,3.45225L8.21949,14.16l3.14907-1.617.20476-3.41416L8.541,7.24Zm2.98849-4.58729L8.65064,3.92576l.11311,2.93669,3.05759,1.90377,2.62225-1.08229.00518-3.012L11.52944,2.65269ZM11.38258.74043l.3635,1.53051,2.95833,2.04453,1.33428-.43023-.03717-.04937A8.68474,8.68474,0,0,0,13.4527,1.60334V1.60243a8.72957,8.72957,0,0,0-2.07012-.862ZM16.30652,4.2591l-1.4199.458-.00609,3.05735,1.43977,2.62834,1.41739-.30744A8.7155,8.7155,0,0,0,16.30652,4.2591Zm-.35406,6.38468L14.56364,8.10807,12.01026,9.16172l-.2011,3.36323,2.45374.78769,1.68956-2.66886ZM14.07886,15.965l-1.40162,1.06161a8.61677,8.61677,0,0,0,1.60638-.9406l-.20476-.121Zm.03626-2.24042-2.5159-.80745L8.40779,14.5546l-.30652,2.02895,3.26912.88363L13.858,15.58174l.25716-1.85715Zm3.55706-3.16643-1.3294.28855-1.77487,2.80293-.26777,1.93728.35308.209a8.71339,8.71339,0,0,0,1.97537-2.34344v.00091A8.71129,8.71129,0,0,0,17.67218,10.55816Z" style="fill:#a1afba;fill-rule:evenodd"/></g></svg>