
<svg xmlns="http://www.w3.org/2000/svg" viewBox="0 0 18.23 18.23">
<title>stopwatch-icon-uc-santa-barbara</title>
<g>
	<path style="fill:#a1afba;fill-rule:evenodd" fill-rule="evenodd" clip-rule="evenodd" d="M13.713,5.141c-0.304-0.304-0.634-0.576-0.987-0.813
		c-0.351-0.235-0.728-0.437-1.124-0.602l-0.008-0.002c-0.385-0.159-0.789-0.283-1.209-0.365c-0.41-0.08-0.835-0.124-1.271-0.124
		s-0.86,0.043-1.27,0.124C7.42,3.444,7.014,3.567,6.627,3.727C6.231,3.891,5.856,4.093,5.505,4.328
		C5.15,4.566,4.818,4.837,4.516,5.141C4.213,5.442,3.941,5.773,3.705,6.127c-0.235,0.352-0.437,0.728-0.6,1.124
		c-0.162,0.388-0.285,0.794-0.37,1.216C2.655,8.878,2.61,9.303,2.61,9.738c0,0.436,0.045,0.863,0.125,1.271
		c0.085,0.424,0.208,0.83,0.37,1.217c0.163,0.396,0.365,0.771,0.6,1.123c0.235,0.354,0.508,0.687,0.811,0.987l0.012,0.013
		c0.298,0.298,0.626,0.565,0.978,0.802c0.351,0.234,0.726,0.438,1.122,0.599c0.387,0.16,0.793,0.283,1.214,0.37
		c0.411,0.08,0.837,0.121,1.272,0.121s0.862-0.041,1.273-0.121c0.422-0.084,0.829-0.21,1.215-0.37h-0.001
		c0.396-0.161,0.773-0.367,1.124-0.599c0.354-0.236,0.684-0.512,0.987-0.814l0.011-0.008c0.298-0.299,0.565-0.627,0.802-0.979
		c0.234-0.351,0.438-0.727,0.6-1.123c0.159-0.387,0.285-0.793,0.37-1.217c0.079-0.407,0.12-0.834,0.12-1.271
		c0-0.435-0.041-0.861-0.12-1.271c-0.085-0.424-0.211-0.828-0.37-1.216c-0.162-0.396-0.365-0.771-0.602-1.124
		C14.286,5.773,14.014,5.441,13.713,5.141 M17.299,4.169l-1.262,0.822c-0.08-0.122-0.167-0.239-0.255-0.356l-0.021-0.024
		l-0.005-0.006l-0.023-0.031L15.731,4.57c-0.417-0.532-0.897-1.018-1.438-1.442c-0.326-0.253-0.671-0.486-1.039-0.694l-0.013-0.007
		l-0.03-0.016l-0.006-0.002l-0.034-0.022l-0.004-0.004l-0.029-0.016c-0.264-0.141-0.535-0.272-0.814-0.388
		c-0.086-0.036-0.171-0.07-0.255-0.101l0.494-1.419c0.982,0.365,1.872,0.872,2.659,1.483C16.032,2.578,16.731,3.333,17.299,4.169
		 M15.469,1.626c0.902,0.706,1.669,1.551,2.28,2.491c0.062,0.094,0.036,0.22-0.06,0.28l-1.429,0.931
		c0.233,0.38,0.439,0.781,0.614,1.199c0.409,0.991,0.635,2.076,0.635,3.21c0,1.136-0.226,2.222-0.635,3.21
		c-0.427,1.027-1.052,1.953-1.825,2.727c-0.771,0.776-1.697,1.398-2.726,1.822c-0.989,0.414-2.074,0.638-3.21,0.638
		c-1.136,0-2.22-0.224-3.209-0.638c-1.028-0.424-1.954-1.046-2.726-1.822c-0.775-0.773-1.398-1.699-1.825-2.727
		c-0.409-0.988-0.635-2.074-0.635-3.21c0-1.135,0.226-2.22,0.635-3.21c0.173-0.418,0.38-0.819,0.616-1.199L0.538,4.397
		c-0.093-0.06-0.119-0.186-0.058-0.28c0.612-0.939,1.378-1.784,2.28-2.491c0.869-0.681,1.862-1.232,2.963-1.614
		C5.828-0.026,5.943,0.03,5.981,0.134l0.56,1.611c0.813-0.262,1.676-0.404,2.573-0.404c0.896,0,1.762,0.142,2.573,0.404l0.562-1.611
		c0.036-0.104,0.152-0.161,0.256-0.122C13.607,0.394,14.603,0.945,15.469,1.626 M15.821,5.387c0.262,0.409,0.493,0.843,0.681,1.295
		c0.389,0.941,0.602,1.972,0.602,3.055s-0.213,2.117-0.602,3.057c-0.406,0.976-1,1.856-1.74,2.595
		c-0.734,0.737-1.614,1.331-2.591,1.735c-0.941,0.391-1.974,0.606-3.057,0.606c-1.082,0-2.116-0.216-3.055-0.606
		c-0.977-0.404-1.857-0.998-2.596-1.735c-0.736-0.738-1.33-1.619-1.735-2.595c-0.39-0.94-0.605-1.974-0.605-3.057
		s0.216-2.114,0.605-3.055C1.916,6.23,2.143,5.796,2.409,5.39l0.008-0.01C2.453,5.323,2.491,5.264,2.53,5.208l0.023-0.031
		l0.001-0.002C2.826,4.786,3.13,4.422,3.463,4.086c0.531-0.529,1.135-0.984,1.795-1.349l0.008-0.005l0.005-0.002
		C5.654,2.52,6.059,2.34,6.483,2.191c0.009-0.001,0.018-0.006,0.025-0.012c0.816-0.28,1.693-0.432,2.605-0.432
		c0.913,0,1.79,0.151,2.606,0.434c0.008,0.003,0.017,0.008,0.025,0.009c0.397,0.14,0.777,0.307,1.139,0.5l0.006,0.004l0.034,0.017
		l0.011,0.005c0.675,0.368,1.289,0.832,1.826,1.37c0.348,0.347,0.661,0.721,0.937,1.121l0.005,0.006l0.018,0.029
		c0.031,0.044,0.062,0.091,0.093,0.136L15.821,5.387z M3.008,1.943c0.784-0.612,1.676-1.118,2.658-1.483l0.495,1.419
		C6.075,1.909,5.99,1.943,5.905,1.979C5.576,2.115,5.258,2.272,4.953,2.447L4.927,2.462L4.918,2.465L4.883,2.488
		C4.55,2.681,4.234,2.894,3.936,3.128C3.414,3.537,2.949,4.003,2.544,4.511L2.53,4.531l-0.011,0.01L2.499,4.57L2.495,4.574
		C2.39,4.708,2.287,4.848,2.189,4.991L0.93,4.169C1.498,3.333,2.196,2.58,3.008,1.943 M8.246,10.916c-0.079,0.08-0.207,0.08-0.286,0
		c-0.078-0.077-0.078-0.205,0-0.285l0.509-0.508L5.166,7.656C5.077,7.59,5.058,7.461,5.126,7.374L5.719,6.58
		C5.784,6.493,5.913,6.472,6,6.539l2.753,2.055L8.7,8.225C8.685,8.114,8.762,8.012,8.873,7.996C8.983,7.981,9.086,8.061,9.1,8.168
		l0.106,0.766l0.257,0.191l3.392-3.389c0.078-0.08,0.207-0.08,0.286,0c0.079,0.079,0.079,0.208,0,0.285L9.793,9.373l0.428,0.319
		c0.09,0.068,0.107,0.194,0.041,0.283L9.67,10.768c-0.048,0.063-0.125,0.091-0.197,0.077l0.586,4.216
		c0.014,0.11-0.063,0.213-0.174,0.229s-0.211-0.062-0.226-0.172l-0.639-4.581l-0.225-0.167L8.246,10.916z M9.467,10.365L8.903,9.943
		L8.892,9.935L5.569,7.455l0.351-0.47L9.357,9.55l0.014,0.011l0.446,0.333L9.467,10.365z M12.949,3.992
		c0.381,0.254,0.73,0.545,1.05,0.862c0.318,0.32,0.608,0.672,0.86,1.05c0.25,0.373,0.466,0.772,0.641,1.193
		c0.17,0.414,0.301,0.846,0.391,1.293c0.087,0.434,0.134,0.888,0.134,1.348c0,0.462-0.047,0.914-0.134,1.351
		c-0.09,0.447-0.221,0.879-0.391,1.293c-0.175,0.419-0.391,0.82-0.641,1.193c-0.249,0.372-0.534,0.72-0.851,1.038l-0.01,0.01
		c-0.319,0.319-0.669,0.607-1.05,0.861c-0.374,0.252-0.773,0.466-1.191,0.638h-0.001c-0.413,0.172-0.845,0.304-1.292,0.394
		c-0.438,0.085-0.889,0.131-1.351,0.131c-0.461,0-0.913-0.046-1.35-0.131c-0.446-0.09-0.878-0.222-1.292-0.394
		c-0.42-0.172-0.819-0.386-1.193-0.638c-0.374-0.249-0.722-0.534-1.039-0.851l-0.013-0.011c-0.317-0.318-0.606-0.668-0.861-1.048
		c-0.25-0.373-0.463-0.776-0.636-1.193c-0.172-0.414-0.306-0.846-0.392-1.296c-0.087-0.435-0.132-0.887-0.132-1.348
		c0-0.46,0.045-0.911,0.132-1.348C2.426,7.942,2.56,7.51,2.732,7.097c0.173-0.42,0.387-0.82,0.636-1.193
		c0.253-0.378,0.542-0.73,0.861-1.05h0.002C4.55,4.534,4.902,4.246,5.28,3.992c0.374-0.251,0.772-0.465,1.193-0.635
		C6.887,3.182,7.32,3.051,7.766,2.963c0.437-0.087,0.888-0.131,1.348-0.131c0.462,0,0.913,0.044,1.348,0.131
		c0.445,0.085,0.874,0.217,1.284,0.387l0.012,0.006C12.176,3.526,12.575,3.742,12.949,3.992"/>
</g>
</svg>
