<svg xmlns="http://www.w3.org/2000/svg" viewBox="0 0 18.608 21.03768"><title>timer-icon-uc-santa-barbara</title><g id="ICONS"><path d="M10.33974,2.48665V1.74227H8.26924v.74438a9.35586,9.35586,0,0,1,1.03476-.057,9.53831,9.53831,0,0,1,1.03574.057ZM8.38661,12.82816a.2185.2185,0,0,1-.28221-.33365l5.98369-5.094a.21844.21844,0,0,1,.28246.3333L8.38661,12.82816Zm-4.4179-1.31052a.21939.21939,0,0,1,0,.43877H2.47965a.21939.21939,0,1,1,0-.43877Zm5.115,5.55559a.21985.21985,0,1,1,.43969,0v1.48815a.21985.21985,0,0,1-.43969,0V17.07323Zm5.5562-5.11682h1.48815a.21939.21939,0,1,0,0-.43877H14.6399a.21939.21939,0,1,0,0,.43877ZM9.52339,6.402a.21985.21985,0,0,1-.43969,0V4.913a.21985.21985,0,0,1,.43969,0V6.402ZM2.72584,5.15552A9.268,9.268,0,0,1,7.83047,2.54637v-.8041H6.3795a.22045.22045,0,0,1-.21939-.2203V.21938A.21983.21983,0,0,1,6.3795,0h5.849a.22.22,0,0,1,.2203.21938V1.522a.22064.22064,0,0,1-.2203.2203H10.77905v.8041a9.26469,9.26469,0,0,1,4.61163,2.15149l.95341-.805a.21821.21821,0,0,1,.30835.0259L18.27192,5.8353a.22007.22007,0,0,1-.0259.30927l-.95889.80924A9.3077,9.3077,0,1,1,2.72584,5.15552ZM5.91391,3.5397A8.875,8.875,0,1,0,15.572,5.46479q-.1554-.15684-.32146-.30566h0l-.00061-.00087-.01828-.01645-.00092-.001H15.2298A8.80872,8.80872,0,0,0,10.584,2.96107a.25281.25281,0,0,1-.05454-.00091A9.3395,9.3395,0,0,0,9.322,2.86936H9.304c-.22548,0-.44815.00853-.66942.025h-.007l-.01889.00183L8.5904,2.898c-.1621.01371-.32542.0326-.48783.05789a.17748.17748,0,0,1-.05271.0067.16967.16967,0,0,1-.02773-.00152,8.78331,8.78331,0,0,0-2.10822.57863Zm8.61721,2.96685a7.38972,7.38972,0,0,0-2.39951-1.60668l-.00938-.00426a7.42918,7.42918,0,0,0-5.64608.00365v.00061A7.4265,7.4265,0,0,0,4.07688,6.50564a7.52819,7.52819,0,0,0-.92354,1.12373,7.38312,7.38312,0,0,0-1.10027,2.65942,7.48985,7.48985,0,0,0,0,2.89069,7.35671,7.35671,0,0,0,1.10027,2.65759,7.413,7.413,0,0,0,.92354,1.12373l.01042.01127a7.51383,7.51383,0,0,0,1.113.91227,7.328,7.328,0,0,0,1.27584.68222v0a7.28926,7.28926,0,0,0,1.38205.419,7.54818,7.54818,0,0,0,2.89252,0,7.35856,7.35856,0,0,0,2.65759-1.10214,7.39731,7.39731,0,0,0,1.12281-.92259l.01219-.01189a7.39813,7.39813,0,0,0,1.59449-2.38732l.00342-.01036a7.27538,7.27538,0,0,0,.41463-1.37084,7.50444,7.50444,0,0,0,0-2.89343,7.34465,7.34465,0,0,0-.41805-1.38029l-.00457-.01127a7.3699,7.3699,0,0,0-.67887-1.266,7.44734,7.44734,0,0,0-.92324-1.12282Zm-.8793-1.288a7.81386,7.81386,0,0,0-1.35171-.7237l-.01279-.00423A7.74043,7.74043,0,0,0,10.83268,4.051a7.84094,7.84094,0,0,0-4.52327.44391H6.30856a7.823,7.823,0,0,0-1.35171.7237,7.9914,7.9914,0,0,0-1.19015.97687l-.00092.00091A7.844,7.844,0,0,0,2.06617,8.73909a7.83463,7.83463,0,0,0,1.69961,8.53185l.0131.01219a7.972,7.972,0,0,0,1.178.96563,7.82458,7.82458,0,0,0,1.35171.72275v.00091a7.82831,7.82831,0,0,0,8.53275-1.70148l.01188-.01306a7.83987,7.83987,0,0,0,.965-1.17614,7.74061,7.74061,0,0,0,.7236-1.35256L16.547,14.717a7.74231,7.74231,0,0,0,.43876-1.45285,7.90311,7.90311,0,0,0,0-3.061,7.677,7.677,0,0,0-.44394-1.46469l-.00427-.01132a7.88267,7.88267,0,0,0-1.69626-2.5317,7.92341,7.92341,0,0,0-1.18949-.97687Zm2.06946-.22609a8.05473,8.05473,0,0,1,.71452.75383,9.65118,9.65118,0,0,1,.61915.83092l.74012-.62616-1.3352-1.58231-.73859.62372ZM6.59979,1.30259h5.40933V.43968H6.59979Z" style="fill:#a1afba;fill-rule:evenodd"/></g></svg>