<svg xmlns="http://www.w3.org/2000/svg" viewBox="0 0 26.24042 17.1622"><title>whiteboard-icon-uc-santa-barbara</title><g id="ICONS"><path d="M2.51164,0H23.72787A1.31859,1.31859,0,0,1,25.046,1.31813V15.84407a1.30933,1.30933,0,0,1-.33755.87845h1.312a.21984.21984,0,1,1,0,.43968H.2203a.21984.21984,0,1,1,0-.43968H1.53051a1.30831,1.30831,0,0,1-.3367-.87845V1.31813A1.31383,1.31383,0,0,1,1.58048.387h0L1.58139.38636,1.58322.38453A1.31416,1.31416,0,0,1,2.51164,0ZM7.33808,12.96889l2.74656-.52008a.21912.21912,0,1,0-.08013-.43085L7.257,12.53778a.21933.21933,0,0,0,.081.43111Zm-.18983-.99942,2.74656-.52069a.21929.21929,0,0,0-.08044-.43115l-2.74656.521a.21912.21912,0,0,0,.08044.4308Zm8.73818-6.065L18.633,5.38374a.21885.21885,0,1,0-.08044-.43024L15.806,5.47362a.21915.21915,0,0,0,.08044.43085Zm-.18922-1,2.74662-.521a.21921.21921,0,1,0-.08111-.43085l-2.74687.52073a.21938.21938,0,0,0,.08136.43115Zm-6.53307.77638,1.0433.71178L9.49657,7.43589a.21915.21915,0,1,0,.362.24711L10.57,6.6394l1.04359.71083a.21918.21918,0,1,0,.24773-.36164L10.8172,6.27768l.7108-1.04511a.21913.21913,0,0,0-.362-.24708L10.45516,6.0297,9.411,5.31884a.21906.21906,0,1,0-.24681.362Zm5.931,1.30777-1.87427.355a.33055.33055,0,0,1-.24711-.05179.3341.3341,0,0,1-.13894-.21086L12.72,6.47548a.33146.33146,0,0,1,.26265-.38606l1.33428-.2532a.76916.76916,0,0,0,.61245-.89734l-.11488-.60544a.7694.7694,0,0,0-.89734-.61336l-1.77756.337a.21914.21914,0,1,0,.08039.43085l1.77731-.33669a.33324.33324,0,0,1,.248.0518.32569.32569,0,0,1,.138.21085l.11579.6054a.32905.32905,0,0,1-.0518.2468.32561.32561,0,0,1-.21055.13929l-1.33458.2529a.76859.76859,0,0,0-.61245.89826l.11493.60478a.768.768,0,0,0,.89729.6131l1.87451-.355a.22015.22015,0,0,0,.17429-.25655.21776.21776,0,0,0-.25559-.17429ZM8.90064,8.16229l-1.87427.35494a.33147.33147,0,0,1-.386-.26261l-.11487-.60544a.332.332,0,0,1,.0518-.24715.32713.32713,0,0,1,.21085-.138l1.33428-.25412a.76789.76789,0,0,0,.61244-.89734L8.62,5.50714a.76832.76832,0,0,0-.89734-.61245l-1.77756.337a.21914.21914,0,1,0,.08038.43085l1.77732-.33761a.332.332,0,0,1,.38605.26265l.11487.60635a.327.327,0,0,1-.05088.24681A.33252.33252,0,0,1,8.04194,6.58l-1.33514.2529a.77006.77006,0,0,0-.61245.89764l.11482.60544a.77074.77074,0,0,0,.89825.61214l1.87451-.35558a.21893.21893,0,0,0-.08129-.43024Zm5.19172,8.56023.3376-.63408H2.63017A.21828.21828,0,0,1,2.41078,15.87V1.29223a.21847.21847,0,0,1,.21939-.21938H23.60965a.21983.21983,0,0,1,.2203.21938V15.87a.21964.21964,0,0,1-.2203.21847H22.44874v.63408h1.27913a.88015.88015,0,0,0,.62128-.25655l.00061-.00183a.87686.87686,0,0,0,.25656-.62007V1.31813a.8801.8801,0,0,0-.87845-.87936H2.51164a.87656.87656,0,0,0-.621.25747V.69715a.8771.8771,0,0,0-.25808.621V15.84407a.88167.88167,0,0,0,.87906.87845Zm.49666,0h7.42V14.92845H15.54334L14.98817,15.973l-.00183.00331-.39732.74625ZM23.38935,1.51161H2.84955V15.64968H14.66428L15.21,14.62375a.2215.2215,0,0,1,.20208-.13407h6.82856l.00518.00092h.0061l.00609.00091h.00427l.00609.00183h0l.00518.00091h0l.00518.00092h0l.00518.00152h0l.00524.00092v.00087l.00609.00095h0l.00421.00153h0l.00518.00183h0l.00518.00178h0l.00426.00157v.00091l.0061.00183h0l.00426.00244h0l.00433.00274h0l.00512.00183v.00061l.00427.00183h0l.00548.00335h0l.00427.00274h0l.00426.00244h0l.00427.00274h0l.00426.00335h0l.00427.00274v.00092l.00457.00335h0l.00335.00244v.00091l.00427.00274h0l.00341.00423h0l.00451.00339h0l.00335.00366h0l.00335.00426h0l.00366.00335h0l.00341.00427h0l.00329.00427h0l.00366.00457h0l.00244.00426h0l.0028.00427h0l.00329.00426h0l.00244.00427h0l.00274.00518h0l.00244.00457h0l.00274.00427h0l.00244.00514h0l.00274.0043h0l.00183.00518h0l.00244.00518h0l.00182.00518h0l.00153.00427v.00091l.001.00427h0l.00177.00518v.00091l.00183.00423h0l.00152.00609h0l.001.00522h0l.00086.00518h0l.00091.00609h0l.00092.00427h0l.00061.00609h0v.0061l.00091.00518h0v.00518h0v.00579h0v.94061h.94061Z" style="fill:#a1afba;fill-rule:evenodd"/></g></svg>