<svg xmlns="http://www.w3.org/2000/svg" viewBox="0 0 20.83292 11.84672"><title>battery-charging-icon-uc-santa-barbara</title><g id="ICONS"><path d="M9.652,2.71305l2.80384.00086a.21952.21952,0,0,1,.21853.21938.2228.2228,0,0,1-.02778.10609h0l-.912,1.6341,1.06066.00092a.21943.21943,0,0,1,.21938.21847.22378.22378,0,0,1-.02772.10725h0l-2.35533,4.221a.21891.21891,0,0,1-.41007-.114l.00147-2.731H9.65045A.2195.2195,0,0,1,9.432,6.15737L9.4335,2.93151A.21827.21827,0,0,1,9.652,2.71305ZM3.59149,1.48663A.21924.21924,0,0,0,3.3712,1.706v8.43835a.22.22,0,0,0,.22029.2203H18.85511a.22.22,0,0,0,.21939-.2203V1.706a.21924.21924,0,0,0-.21939-.21938Zm15.04333.43877H3.81088V9.925H18.63482V1.9254ZM1.61277,3.97232H.43968V7.86673H1.61277V3.97232ZM.21938,3.53177A.21983.21983,0,0,0,0,3.75207v4.334a.22043.22043,0,0,0,.21938.2203H1.61277v2.22217A1.31807,1.31807,0,0,0,2.9306,11.84672H19.51485a1.316,1.316,0,0,0,.9311-.386v-.00092a1.313,1.313,0,0,0,.387-.93116V1.31813A1.32121,1.32121,0,0,0,19.51485,0H2.9306a1.31416,1.31416,0,0,0-.92842.38453L2.00035.387H1.99974L1.99883.38788a1.31807,1.31807,0,0,0-.38606.93025V3.53177ZM19.51485.43968H2.9306a.88.88,0,0,0-.621.25656V.69715a.87763.87763,0,0,0-.25808.621v9.21046a.88115.88115,0,0,0,.87906.87936H19.51485a.876.876,0,0,0,.62092-.25747l.00091-.00061a.8763.8763,0,0,0,.25656-.62128V1.31813a.87906.87906,0,0,0-.87839-.87845ZM12.08256,3.15181,9.87074,3.1509l-.00091,2.788h.57162a.21838.21838,0,0,1,.21883.21847V8.272l1.76263-3.15973-1.05365-.00061a.2193.2193,0,0,1-.19867-.32577Z" style="fill:#a1afba;fill-rule:evenodd"/></g></svg>