<svg xmlns="http://www.w3.org/2000/svg" viewBox="0 0 20.83262 11.84763"><title>battery-icon-uc-santa-barbara</title><g id="ICONS"><path d="M2.92969,0h16.5851a1.32121,1.32121,0,0,1,1.31783,1.319v9.21042a1.31467,1.31467,0,0,1-.387.93121h-.00092a1.30912,1.30912,0,0,1-.92994.387H2.92969a1.32268,1.32268,0,0,1-1.31808-1.31817v-2.223H.21938A.21964.21964,0,0,1,0,8.087v-4.335a.2196.2196,0,0,1,.21938-.21938H1.61161V1.319A1.3154,1.3154,0,0,1,1.99944.38788h0V.387L2.00188.38514A1.315,1.315,0,0,1,2.92969,0Zm11.521,1.56677a.21983.21983,0,0,0-.2203.21938v8.27869a.22.22,0,0,0,.2203.22029H18.8539a.22.22,0,0,0,.22029-.22029V1.78615a.21982.21982,0,0,0-.22029-.21938Zm4.18383.43968H14.67007v7.839h3.96444v-7.839ZM8.99808,1.56677a.21963.21963,0,0,0-.21938.21938v8.27869a.21983.21983,0,0,0,.21938.22029h4.40413a.21943.21943,0,0,0,.21938-.22029V1.78615a.21923.21923,0,0,0-.21938-.21938Zm4.18475.43968H9.21838v7.839h3.96445v-7.839ZM3.59028,1.56677a.21963.21963,0,0,0-.21939.21938v8.27869a.21983.21983,0,0,0,.21939.22029H7.9944a.21925.21925,0,0,0,.21939-.22029V1.78615a.21905.21905,0,0,0-.21939-.21938ZM7.775,2.00645H3.81057v7.839H7.775v-7.839ZM1.61161,7.86765V3.97232H.43877V7.86765ZM19.51479.43968H2.92969a.87693.87693,0,0,0-.62032.25747L2.30871.69807a.87184.87184,0,0,0-.25656.621v9.21042a.87863.87863,0,0,0,.87754.87849h16.5851a.8816.8816,0,0,0,.621-.25655v-.00092a.87686.87686,0,0,0,.25716-.621V1.319a.8801.8801,0,0,0-.87814-.87936Z" style="fill:#a1afba;fill-rule:evenodd"/></g></svg>