<svg xmlns="http://www.w3.org/2000/svg" viewBox="0 0 17.4574 17.45746"><title>chip-icon-uc-santa-barbara</title><g id="ICONS"><path d="M5.2749,5.05618h6.90785a.21882.21882,0,0,1,.21938.21847v6.90968a.2196.2196,0,0,1-.21938.21938H5.2749a.21964.21964,0,0,1-.21938-.21938V5.27465a.21886.21886,0,0,1,.21938-.21847ZM2.04783,12.98782V14.0951A1.31961,1.31961,0,0,0,3.366,15.41292h1.104v1.82515a.21982.21982,0,0,0,.43963,0V15.41292h3.6308v1.82515a.21939.21939,0,1,0,.43877,0V15.41292H12.549v1.82515a.21938.21938,0,1,0,.43876,0V15.41292h1.1046a1.3134,1.3134,0,0,0,.93019-.387l.00091-.00066a1.31177,1.31177,0,0,0,.387-.9302V12.98782h1.82515a.21987.21987,0,0,0,0-.43973H15.41043V8.97919h1.82515a.21984.21984,0,0,0,0-.43968H15.41043V4.90841H17.238a.21939.21939,0,0,0,0-.43877H15.41043V3.3651A1.32121,1.32121,0,0,0,14.09236,2.047h-1.1046V.22213a.21938.21938,0,1,0-.43876,0V2.047H8.97914V.22213a.21939.21939,0,1,0-.43877,0V2.047H4.90957V.21938a.21982.21982,0,0,0-.43963,0V2.047H3.366a1.3122,1.3122,0,0,0-.92836.38453l-.00189.00244-.00091.00091H2.43388a1.31554,1.31554,0,0,0-.386.93025V4.46964H.21938a.21939.21939,0,0,0,0,.43877H2.04783v3.6311H.21938a.21984.21984,0,0,0,0,.43968H2.04783v3.5689H.21938a.21987.21987,0,0,0,0,.43973ZM4.65728,14.9735l.02163-.0027a.23518.23518,0,0,1,.043.0027h9.37049a.87618.87618,0,0,0,.62031-.25742h.00152a.88058.88058,0,0,0,.25747-.621V3.3651a.88326.88326,0,0,0-.8793-.87845H3.366a.87068.87068,0,0,0-.621.25747L2.74407,2.745a.87044.87044,0,0,0-.25747.62006v10.73a.88053.88053,0,0,0,.87936.8784ZM11.96336,5.495H5.4949v6.47h6.46846Z" style="fill:#a1afba;fill-rule:evenodd"/></g></svg>