<svg xmlns="http://www.w3.org/2000/svg" viewBox="0 0 22.48177 16.07305"><title>cloud-network-icon-uc-santa-barbara</title><g id="ICONS"><path d="M3.81332,16.06605a3.81574,3.81574,0,0,1-2.891-6.30332L.92141,9.76181A3.81708,3.81708,0,0,1,3.08508,8.50432a5.34362,5.34362,0,0,1,9.5502-2.3599,3.73288,3.73288,0,0,1,.93543-.11487,3.81772,3.81772,0,0,1,3.56285,2.4513,3.81512,3.81512,0,0,1,3.26913,3.778h0a3.81648,3.81648,0,0,1-3.81606,3.81332V16.073h-.00092v-.00091L3.81332,16.06605ZM21.0002,6.03564l.98205-.29952A8.01066,8.01066,0,0,0,13.036.565l.23066,1.00008A6.987,6.987,0,0,1,21.0002,6.03564Zm1.32666.05271a.21908.21908,0,0,0,.14535-.273l-.00092-.00426h.00092A8.45239,8.45239,0,0,0,12.72669.178a.21849.21849,0,0,0-.1691.259V.44136h0l.32907,1.4269a.21967.21967,0,0,0,.26235.16515l.00457-.00091a6.54651,6.54651,0,0,1,7.50109,4.34166.21973.21973,0,0,0,.27393.14077l1.39826-.42658Zm-4.1561.97443h0a.21813.21813,0,0,0,.273.13194l1.39309-.45345h0l.00609-.00177a.22.22,0,0,0,.13224-.28063,5.879,5.879,0,0,0-6.55226-3.79595l-.01828.00335a.21913.21913,0,0,0-.17.2593l.30135,1.426a.2194.2194,0,0,0,.25229.17855,3.97547,3.97547,0,0,1,4.38249,2.53266ZM16.654,4.62945A4.40052,4.40052,0,0,1,18.5041,6.71451l.9787-.31872a5.44275,5.44275,0,0,0-5.77132-3.33463l.21329,1.00612a4.39881,4.39881,0,0,1,2.7292.56217ZM1.426,14.63822a3.36558,3.36558,0,0,0,2.38732.99l12.77239.0061v-.00092h.00092v.00092a3.37955,3.37955,0,0,0,3.37881-3.37547h0a3.37662,3.37662,0,0,0-3.00738-3.35809.21979.21979,0,0,1-.19257-.14869,3.383,3.383,0,0,0-4.15611-2.14631V6.60482a.21629.21629,0,0,1-.2401-.08379,4.94035,4.94035,0,0,0-1.75354-1.52685A4.90641,4.90641,0,0,0,3.49887,8.70633a.22087.22087,0,0,1-.18831.20476,3.36785,3.36785,0,0,0-2.0555,1.13836l-.00092-.00092v.00092A3.37732,3.37732,0,0,0,1.426,14.63822Z" style="fill:#a1afba;fill-rule:evenodd"/></g></svg>