<svg xmlns="http://www.w3.org/2000/svg" viewBox="0 0 21.20161 15.85408"><title>computer-monitor-icon-uc-santa-barbara</title><g id="ICONS"><path d="M21.20161,1.31783V14.5363a1.31408,1.31408,0,0,1-.387.93116v.00061a1.31474,1.31474,0,0,1-.93116.386H1.31783A1.31956,1.31956,0,0,1,0,14.5363V1.31783A1.30926,1.30926,0,0,1,.387.38753V.38605L.39032.38423A1.31121,1.31121,0,0,1,1.31783,0H19.88348a1.31963,1.31963,0,0,1,1.31813,1.31783ZM9.24611,14.92144h2.7103a.21984.21984,0,0,0,0-.43968H9.24611a.21984.21984,0,0,0,0,.43968ZM19.92766,1.46312a.22.22,0,0,0-.21939-.22025H1.49333a.22041.22041,0,0,0-.21938.22025V13.82879a.21983.21983,0,0,0,.21938.2203H19.70827a.21945.21945,0,0,0,.21939-.2203V1.46312Zm-.43877,12.1472V1.6825H1.71272V13.61032Zm1.273.926V1.31783a.8801.8801,0,0,0-.87844-.87906H1.31783a.87794.87794,0,0,0-.621.25716V.69685a.87621.87621,0,0,0-.25709.621V14.5363a.87937.87937,0,0,0,.87807.879H19.88348a.87489.87489,0,0,0,.621-.25712l.00092-.00091A.87451.87451,0,0,0,20.76192,14.5363Z" style="fill:#a1afba;fill-rule:evenodd"/></g></svg>