<svg xmlns="http://www.w3.org/2000/svg" viewBox="0 0 26.13439 16.90382"><title>desktop-computer-icon-uc-santa-barbara</title><g id="ICONS"><path d="M.77036,0H25.36571a.76422.76422,0,0,1,.54137.22639l.00183.00087a.76524.76524,0,0,1,.22548.54236V16.13506a.76984.76984,0,0,1-.76868.76876H18.10525a.76361.76361,0,0,1-.54328-.22548l-.0131-.01371a.76751.76751,0,0,1-.21238-.52957V14.23313H13.37723v1.11764h2.72066a.22.22,0,0,1,.21938.22029v1.1082a.21964.21964,0,0,1-.21938.21938H5.43a.21964.21964,0,0,1-.21938-.21938v-1.1082A.22.22,0,0,1,5.43,15.35077H8.15018V14.23313H.77036a.769.769,0,0,1-.544-.22518L.21329,13.993a.76276.76276,0,0,1-.21238-.52835V12.06179L0,12.03777V.76962A.76557.76557,0,0,1,.22548.22726L.22639.22639A.7631.7631,0,0,1,.69167.00427L.69959.00366H.70142L.71.00274H.71086L.7194.00178H.73075L.7392.00091H.75048L.75931,0H.77036ZM9.40859,13.23036H12.1179a.21969.21969,0,1,0,0-.43938H9.40859a.21969.21969,0,1,0,0,.43938Zm12.1179-9.37561h2.50029a.21985.21985,0,1,1,0,.43969H21.52649v8.70278h1.191a.21987.21987,0,0,1,.21938.22034v1.9641a.21964.21964,0,0,1-.21938.21938h-1.9641a.21964.21964,0,0,1-.21938-.21938v-.94853H17.77617v1.90193a.32847.32847,0,0,0,.08715.22457l.00944.00883a.33034.33034,0,0,0,.23249.09659h7.26046a.33043.33043,0,0,0,.32907-.33V.76962a.32855.32855,0,0,0-.097-.233.32443.32443,0,0,0-.2321-.096H21.45207l.00244.00431h0l.0019.00427.00267.00426V.45431l.00152.00426.00191.00366h0V.46375l.00266.00457.00061.00244L21.4667.4735l.00274.00518V.47929h0L21.471.483l.00183.00426V.48813l.0019.00422.00145.00431h0V.49757L21.478.50275,21.4798.5055h0l.001.00152.00144.00518.00092.00274h0l.00091.00244.00183.00427.00061.00182h0V.52683L21.48924.532h0l.00092.00523.00152.00365.00091.00153.00092.00518.00091.00269h0l.00092.00188.00152.00518.00091.00243v.0027l.00183.00523v.0006h0l.00092.00458.0016.00426h0V.578l.00083.00518.00092.00426h.00091l.00092.00609.00152.00239h0V.59782l.001.00609L21.509.60544,21.51.60813l.00092.0061v.001h0l.00091.00335.00061.00609h0l.0019.00518V.63317h0V.635l.00176.00518V.64535l.00152.00518V.65206h0V.65571l.00091.00518V.66242h0L21.51941.666l.001.00609h0l.00084.00523V.68161h0V.68253l.00152.00579V.69106h0V.69868l.00091.00182h0V.70386L21.52459.709V.71086h0V.72031h0V.72549L21.5255.73h0V.73585l.001.00457h0V.74987h0V.75931h0V.76962h0V3.85475Zm-.55371,11.10661H22.4981V13.437h-.97161v.02772a.76486.76486,0,0,1-.22547.54328l-.00435.00427-.00274.00152-.00091.00275-.00518.00426h0l-.00427.00331-.00244.00279-.00183.00182L21.275,14.032v.00091l-.00427.0033-.00365.0034-.00061.00092-.00457.00365-.00153.00153-.00274.00269-.00426.0034h-.00092l-.00426.00427-.00183.00091-.00328.00274-.00343.00335h-.00091l-.00427.00336-.00274.00274-.00244.00152-.00449.00366-.00526.00335-.00243.00274-.00183.00061-.00518.00457h-.00092l-.00335.00335-.00335.00183-.00183.00153-.00518.00365-.00091.00092-.00328.00243-.00434.00183-.00091.00092-.00518.00421h-.00175l-.00343.00249-.00335.00274-.00183.00087-.00518.0034-.00183.00091-.00244.00244-.00518.00274h0l-.00518.00335-.00274.00092-.00335.00243-.00427.00275h0l-.00518.00239-.00365.00187-.00153.00183-.00518.00239h-.00091l-.00518.00279-.00358.00152-.0016.00178-.00518.0028-.00092.0006-.00518.00183-.00335.00183-.00183.00092-.00518.00243-.00182.00092-.00336.00182-.00426.00153-.00084.00091-.00609.0027-.00191.00065-.00419.00183-.00434.00274h0l-.00609.00244-.00244.00092-.00366.00091-.00518.00244h0l-.00571.00274-.00282.00091-.00244.00061-.00518.00275h-.00091l-.00518.00182-.00457.00153-.00152.00091-.00518.00183-.00183.00091-.00427.00061-.00426.00183-.00183.00092-.00518.00182H20.995l-.00518.00153-.00335.00183h-.00183l-.00579.00182-.00183.00061-.00426.00092v.75931ZM.4406,11.81838H21.08673V.76962h0V.749L21.08582.74469V.73585L21.08491.73158,21.084.72732V.72392L21.08338.7197V.71513L21.08163.71086V.70751l-.0019-.00426V.69954L21.07881.69532,21.07729.69106,21.07637.68771,21.07554.68314l-.001-.00336L21.07363.67552,21.073.67212,21.0712.6676,21.06944.66425l-.001-.00336L21.06693.65663,21.066.65206,21.06419.64871,21.06266.64535l-.00182-.0037L21.059.63743,21.05809.63408,21.05657.63073,21.05474.62707,21.0523.62372l-.00091-.0034L21.04865.61671,21.04712.61245,21.0453.60909,21.04347.60635,21.042.602,21.0392.59873,21.03737.59594l-.00243-.0033L21.03311.589,21.03158.58563,21.02793.58228,21.0264.57862,21.02374.57619,21.02092.57284,21.01848.57009,21.01665.56674,21.01422.56308,21.01155.55973,21.009.5573,21.00629.55364,21.00386.5512,21.00111.54846,20.99868.54511,20.99593.54237,20.9935.539,20.98984.53719,20.98222.52865,20.97948.5253,20.977.52256h-.00091L20.97369.521h0V.52012L20.97095.51829,20.96851.51586h0L20.9676.51494,20.96585.514h-.001L20.96394.51311,20.96242.51129h0L20.9615.51063,20.95975.50885l-.001-.00092h-.00061L20.95632.507V.50611L20.95541.5055l-.00175-.001H20.953L20.95206.50367,20.95023.50184h-.00091L20.9484.50093,20.94779.50032V.4994L20.945.49844V.49757h-.00091L20.9417.49666V.49575L20.94078.49514,20.939.49422H20.938V.49331l-.00335-.001V.49148h0V.49057L20.93233.48965,20.93134.489,20.9286.48813h0V.48721h-.00092l-.00145-.001h-.001L20.92433.48539,20.9225.48386h-.00061L20.91915.482h-.00091L20.9158.48016h-.00092L20.91306.47868h-.00183L20.9097.47685,20.908.47594h0L20.90605.475l-.00153-.001h-.00091L20.9027.4735h-.00183L20.90026.47259,20.89934.47167h-.00182L20.8966.47076,20.89576.46985l-.0016-.00092h-.00182L20.89051.46832,20.8899.46741H20.889L20.88716.4665,20.88624.46558H20.8838L20.882.46467V.46375h-.00183L20.87862.46314,20.87588.46223,20.875.46132h-.00244L20.87162.4604,20.8707.45949h-.00091L20.86834.45857h-.00282L20.86461.458,20.864.45705h-.00175l-.001-.00091h-.00244L20.857.45522h-.00183L20.85364.45431,20.85181.45339h-.00175l-.0016-.00065h-.00183L20.844.45187V.451h-.00343V.45h-.00183L20.83627.44913h-.00091L20.832.44821h-.00092L20.82835.4476h-.00061l-.00366-.001h0L20.82073.44578h-.00419L20.81281.44486,20.8122.444h-.00457L20.80519.443h-.00183L20.80154.44242h-.01189L20.78691.44151h-.00427l-.00091-.001H.74712l-.00274.001H.74012A.32769.32769,0,0,0,.4406.76962V11.81838Zm20.64613.43877H.4406v1.20752a.33038.33038,0,0,0,.088.22457l.00854.00762a.32826.32826,0,0,0,.23317.09689h19.9873a.33082.33082,0,0,0,.32907-.32908V12.25715Zm-8.14919,1.976H8.5904v1.11764h4.34714V14.23313ZM5.65035,16.459H15.87759v-.66851H5.65035Z" style="fill:#a1afba;fill-rule:evenodd"/></g></svg>