<svg xmlns="http://www.w3.org/2000/svg" viewBox="0 0 18.89998 12.57251"><title>dvd-player-icon-uc-santa-barbara</title><g id="ICONS"><path d="M18.9,5.534v5.72043a1.31719,1.31719,0,0,1-.38613.93117H18.513a1.31122,1.31122,0,0,1-.93032.387H1.31813A1.32027,1.32027,0,0,1,0,11.25438V5.534a1.31964,1.31964,0,0,1,.07617-.443L.07709,5.09H.07617L1.58322.87418A1.30324,1.30324,0,0,1,2.82457,0H16.07565a1.30092,1.30092,0,0,1,1.24012.87418L18.824,5.09a1.262,1.262,0,0,1,.057.21852h.00092A1.38572,1.38572,0,0,1,18.9,5.534Zm-.43877.9077a.88022.88022,0,0,0-.87852-.87844H1.31813a.87086.87086,0,0,0-.62091.25747h-.001a.87637.87637,0,0,0-.25747.621v4.81273a.88232.88232,0,0,0,.87936.87937H17.58269a.88043.88043,0,0,0,.62037-.25747l.00061-.00092a.87642.87642,0,0,0,.25754-.621V6.44165Zm-18.0197-.983a1.31473,1.31473,0,0,1,.87662-.33482H17.58269a1.30749,1.30749,0,0,1,.8751.33425.65209.65209,0,0,0-.00877-.07434h0V5.38282a.887.887,0,0,0-.03961-.145L16.9023,1.022a.859.859,0,0,0-.82665-.58319H2.82457A.88554.88554,0,0,0,2.31572.596a.87762.87762,0,0,0-.31872.426L.49,5.23779h0a.88814.88814,0,0,0-.03907.145c-.00427.025-.007.04936-.00945.07583ZM14.61857,9.64709h1.59785V8.04894H14.61857V9.64709Zm1.81723.43938a.2205.2205,0,0,0,.2203-.22V7.82956a.2205.2205,0,0,0-.2203-.22H14.39827a.21977.21977,0,0,0-.21938.22V9.86648a.21977.21977,0,0,0,.21938.22ZM2.25021,9.06755h9.35062a.21938.21938,0,0,0,0-.43876H2.25021a.21938.21938,0,1,0,0,.43876Z" style="fill:#a1afba;fill-rule:evenodd"/></g></svg>