<svg xmlns="http://www.w3.org/2000/svg" viewBox="0 0 18.27862 18.27806"><title>equalizer-icon-uc-santa-barbara</title><g id="ICONS"><path d="M.44486,1.31727l-.007,15.63565h0a.88475.88475,0,0,0,.87937.88115v-.00178h0v.00178l15.63657.00584a.88168.88168,0,0,0,.87936-.87906l.00762-15.636a.8828.8828,0,0,0-.87906-.88L15.82061.444,1.32483.4379a.88273.88273,0,0,0-.88.87937ZM14.50705,12.54118l.00427,3.05583a.21863.21863,0,0,1-.43725,0l-.00518-3.05583h-1.102v.00091a.7697.7697,0,0,1-.76784-.76875v-1.248h-.00069a.7708.7708,0,0,1,.76937-.76785l1.09692.00092V2.68628a.21939.21939,0,0,1,.43877,0V9.75836h1.11946a.76917.76917,0,0,1,.76784.76845l-.00091,1.24744h.00091a.76982.76982,0,0,1-.76875.76784l-1.1149-.00091Zm-.20384-2.34593,1.31965.001v.00092a.33033.33033,0,0,1,.33007.32968v1.24744H15.951a.32733.32733,0,0,1-.096.2331.33242.33242,0,0,1-.23309.0975l-1.3291-.00091h-.01128l-1.3147-.00061v-.00092a.32874.32874,0,0,1-.32976-.32907v-1.248h.00069a.33015.33015,0,0,1,.32991-.33h1.29741l.01805.00188.02-.00188ZM9.14312,6.2016h1.32522v.00061a.32663.32663,0,0,1,.2321.09593.33117.33117,0,0,1,.09781.23406V7.77933h-.00183a.32589.32589,0,0,1-.096.2334.33123.33123,0,0,1-.2331.09659H9.14678l-.014-.00091-.02643.00091L7.81219,8.10841V8.1078a.32325.32325,0,0,1-.23218-.096.32941.32941,0,0,1-.09842-.234l.00069-1.24713h.00084A.32109.32109,0,0,1,7.58,6.29814a.32686.32686,0,0,1,.2331-.0975H9.10534l.01889.001Zm-.23827-.43877V2.68354a.21984.21984,0,0,1,.43968,0v3.0799l1.12381.00092V5.76283a.771.771,0,0,1,.76784.76937l-.001,1.24713h.001a.77.77,0,0,1-.76884.76785H9.34544v7.04709a.21939.21939,0,0,1-.43877,0V8.54718L7.81219,8.54657v.00061a.76945.76945,0,0,1-.76784-.76937V6.53068H7.04351a.77119.77119,0,0,1,.7696-.76785ZM3.96627,12.09449h-1.312v-.001a.32969.32969,0,0,1-.33-.32964l.00091-1.24744h.00092a.32514.32514,0,0,1,.09567-.23309.3296.3296,0,0,1,.2334-.09751l1.31112.00092H5.31091v.00061a.33077.33077,0,0,1,.23249.096.33587.33587,0,0,1,.0975.234L5.64,11.76445H5.63908a.32693.32693,0,0,1-.09568.23345.3355.3355,0,0,1-.23431.0975L4.0068,12.09449H3.96627Zm.24011.4378v3.05954a.21984.21984,0,0,1-.43968,0V12.53229l-1.11246-.00056v.00056a.76921.76921,0,0,1-.76784-.7684l.00091-1.24744H1.8864A.76929.76929,0,0,1,2.65515,9.748l1.10979.00061V2.68171a.22026.22026,0,0,1,.44052,0v7.0669l1.10545.00091V9.74861a.76983.76983,0,0,1,.76693.76875l-.00091,1.24709h.00183a.76985.76985,0,0,1-.76967.76881l-1.10271-.001ZM.00091,16.95292.00762,1.31727A1.31972,1.31972,0,0,1,1.32483,0L15.82061.00675h1.1411a1.32121,1.32121,0,0,1,1.31691,1.31813l-.00761,15.636a1.31859,1.31859,0,0,1-1.31722,1.31721l-15.63657-.007V18.272h0v-.00091A1.31807,1.31807,0,0,1,.00091,16.95292h0Z" style="fill:#a1afba;fill-rule:evenodd"/></g></svg>