<svg xmlns="http://www.w3.org/2000/svg" viewBox="0 0 15.43547 18.19326"><title>file-type-icon-uc-santa-barbara</title><g id="ICONS"><path d="M2.92115.00091l7.62146.00092.0198-.00092a.22066.22066,0,0,1,.16673.07618L15.35869,4.711a.22045.22045,0,0,1,.07678.16667l-.00091.01981-.00518,11.979a1.31957,1.31957,0,0,1-1.31722,1.31686H2.92024a1.32061,1.32061,0,0,1-1.31813-1.31778v-4.5812h-.284A1.32121,1.32121,0,0,1,0,10.97528V7.78472a1.31222,1.31222,0,0,1,.38514-.92837L.387,6.85452l.00091-.00091h0a1.3125,1.3125,0,0,1,.93025-.387h.284V1.31722A1.31965,1.31965,0,0,1,2.92024.00091V0h.00091V.00091ZM1.82149,11.85464H8.6846a.87884.87884,0,0,0,.62093-.25656l.00091-.00182a.87623.87623,0,0,0,.25747-.621V7.78472a.88218.88218,0,0,0-.87931-.87931H1.31813a.877.877,0,0,0-.62037.25747l-.00152.00091a.87831.87831,0,0,0-.25656.62093v3.19056a.88167.88167,0,0,0,.87845.87936ZM14.9967,5.09793H11.66024A1.32121,1.32121,0,0,1,10.34217,3.7798V.43968L2.92115.43816V.43968H2.92024V.43816a.88167.88167,0,0,0-.87845.87906V6.46664H8.6846a1.31965,1.31965,0,0,1,1.31808,1.31808v3.19056a1.3144,1.3144,0,0,1-.38606.93116l-.00091.00087a1.31284,1.31284,0,0,1-.93111.387H2.04179v4.5812a.87906.87906,0,0,0,.87845.87845H14.11216a.88064.88064,0,0,0,.88028-.87753L14.9967,5.09793ZM10.78179.75078v3.029a.88179.88179,0,0,0,.87845.87845h3.02537Z" style="fill:#a1afba;fill-rule:evenodd"/></g></svg>