<svg xmlns="http://www.w3.org/2000/svg" viewBox="0 0 18.86677 14.66585"><title>folder-Icon-UC-Santa-Barbara</title><g id="ICONS"><path d="M.337,14.63233a.226.226,0,0,1-.11762.03352A.22043.22043,0,0,1,0,14.44555V1.31818A1.31249,1.31249,0,0,1,.387.38793h0L.38788.387.39062.38427A1.3152,1.3152,0,0,1,1.31813,0H4.99921A1.32121,1.32121,0,0,1,6.31734,1.31818V1.547h8.44444a1.31963,1.31963,0,0,1,1.31813,1.31782v.92355h1.46652a1.30045,1.30045,0,0,1,.58655.13467,1.28654,1.28654,0,0,1,.46192.387,1.30742,1.30742,0,0,1,.24986.54755,1.32266,1.32266,0,0,1-.02865.60117L16.30783,14.4879a.21944.21944,0,0,1-.21512.178H.45278V14.664a.23112.23112,0,0,1-.0588-.0067.24115.24115,0,0,1-.057-.025ZM15.64023,3.78838V2.86483a.88169.88169,0,0,0-.87845-.87906H6.097a.21963.21963,0,0,1-.21939-.21938V1.31818A.88.88,0,0,0,4.99921.43973H1.31813A.87148.87148,0,0,0,.69807.69689L.69721.69776a.87333.87333,0,0,0-.25753.62042V13.67344L2.91689,4.754a1.30866,1.30866,0,0,1,1.26968-.96559ZM.741,14.22617H15.92609L18.3938,5.343a.89427.89427,0,0,0-.45431-1.02775.88826.88826,0,0,0-.39306-.08653H4.18657a.863.863,0,0,0-.84737.64261Z" style="fill:#a1afba;fill-rule:evenodd"/></g></svg>