<svg xmlns="http://www.w3.org/2000/svg" viewBox="0 0 19.6477 19.64855"><title>gear-icon-uc-santa-barbara</title><g id="ICONS"><path d="M12.454,2.43394l.74438.30836.00091.00091V2.7423a.32056.32056,0,0,0,.13986.02681.33132.33132,0,0,0,.13742-.03809l1.57712-.81355a.76156.76156,0,0,1,.894.1389v.001l.001-.001,1.64258,1.643a.76148.76148,0,0,1,.13992.89551l-.81355,1.57621a.31587.31587,0,0,0-.01133.27906l.31353.75661a.32064.32064,0,0,0,.08044.11762.32685.32685,0,0,0,.12341.06977l1.68864.53989a.77022.77022,0,0,1,.3888.27727h0a.763.763,0,0,1,.14662.45436v2.31815a.762.762,0,0,1-.14662.45339V11.439h0a.76635.76635,0,0,1-.3888.27632l-1.68956.54a.314.314,0,0,0-.20293.18826l-.00518.01132-.30835.74433a.34377.34377,0,0,0-.02682.14174.33237.33237,0,0,0,.03815.1365l.81355,1.57621a.76257.76257,0,0,1-.13992.89643L15.94864,17.593a.76679.76679,0,0,1-.42511.21669.75733.75733,0,0,1-.4707-.0777l-1.57627-.81355a.32494.32494,0,0,0-.13742-.03808.33848.33848,0,0,0-.14077.02681l-.75657.31354a.31073.31073,0,0,0-.18739.20384l-.53993,1.68865v.00091h0a.76368.76368,0,0,1-.73158.53444H8.66474a.76145.76145,0,0,1-.73158-.53444l-.00335-.01036-.53567-1.6792a.33707.33707,0,0,0-.07069-.12432.349.349,0,0,0-.11822-.08044l-.01036-.00426-.7456-.30836a.3374.3374,0,0,0-.14077-.02681.33.33,0,0,0-.13742.03808L4.594,17.732a.75484.75484,0,0,1-.46985.0777.76813.76813,0,0,1-.42567-.21669L2.0555,15.95011l-.01279-.01371a.764.764,0,0,1-.12615-.88272l.81355-1.57621a.31418.31418,0,0,0,.01127-.27824l-.31353-.75652a.3167.3167,0,0,0-.08014-.11761.331.331,0,0,0-.12371-.07069L.53536,11.71535A.7695.7695,0,0,1,.14692,11.439l-.01041-.01645A.769.769,0,0,1,0,10.98381V8.66566A.76689.76689,0,0,1,.14692,8.2113h0A.76543.76543,0,0,1,.53536,7.934l1.68773-.53989h0a.32146.32146,0,0,0,.12462-.07069.311.311,0,0,0,.081-.11766l.31262-.75565A.32475.32475,0,0,0,2.7682,6.3085a.33377.33377,0,0,0-.03809-.13742l-.81355-1.5753a.762.762,0,0,1,.13986-.89551L2.0555,3.69936l1.64294-1.643a.76435.76435,0,0,1,.89552-.1389L6.17108,2.731a.31675.31675,0,0,0,.27728.01219V2.7423l.75687-.31263.00853-.00426A.31653.31653,0,0,0,7.39414,2.224l.00275-.00848L7.93316.53627V.53536h0A.7638.7638,0,0,1,8.66474,0H10.9829a.76605.76605,0,0,1,.73158.53536l.00274.01036.53719,1.68011a.32274.32274,0,0,0,.07008.1234.35574.35574,0,0,0,.11822.08044l.01128.00427ZM9.82382,14.65544a4.83016,4.83016,0,1,0-3.416-1.41472,4.81046,4.81046,0,0,0,3.416,1.41472ZM13.55,13.55182a5.27064,5.27064,0,1,0-3.72617,1.54239A5.25763,5.25763,0,0,0,13.55,13.55182ZM13.03078,3.14719l-.74438-.3083-.01127-.00518a.74223.74223,0,0,1-.273-.18831.75285.75285,0,0,1-.16485-.28824L11.3007.678,11.29735.66942A.31908.31908,0,0,0,10.9829.43968H8.66474a.31976.31976,0,0,0-.31445.22974L8.34944.66851,7.814,2.34771,7.81067,2.358a.75632.75632,0,0,1-.16509.28738.73735.73735,0,0,1-.26.18313l-.01218.00518-.75657.31348H6.61594a.75.75,0,0,1-.64505-.02646L4.39377,2.30688a.33355.33355,0,0,0-.20293-.03443.32908.32908,0,0,0-.1816.09507L2.36569,4.01015h0a.32538.32538,0,0,0-.095.18216.33284.33284,0,0,0,.03529.20237l.81385,1.57621a.77865.77865,0,0,1,.08629.32055.76547.76547,0,0,1-.05948.3245l-.31353.75744a.74862.74862,0,0,1-.47594.4379h0L.6676,8.35121A.32446.32446,0,0,0,.5,8.4703V8.46943a.33664.33664,0,0,0-.06124.19623v2.31815a.33764.33764,0,0,0,.05515.18739L.5,11.17908a.32992.32992,0,0,0,.16759.11918l1.68864.53993a.74744.74744,0,0,1,.47686.4378l.31353.75662a.75051.75051,0,0,1-.02681.645L2.306,15.25478a.3345.3345,0,0,0-.03529.20324.32337.32337,0,0,0,.08648.17185l.00853.01036,1.64294,1.64264a.32062.32062,0,0,0,.38514.05972l1.57712-.813a.7465.7465,0,0,1,.64505-.02742l.7456.309.011.00457a.74186.74186,0,0,1,.27307.1883.77415.77415,0,0,1,.16509.28764l.53627,1.6789.0025.00944a.33829.33829,0,0,0,.11847.1685.33291.33291,0,0,0,.19683.06125H10.9829a.31908.31908,0,0,0,.31445-.22975h0l.53992-1.68773a.74779.74779,0,0,1,.43786-.47655l.75657-.31358a.7471.7471,0,0,1,.64535.02742l1.57713.813a.33119.33119,0,0,0,.202.03534.33817.33817,0,0,0,.18221-.09506l1.64294-1.64355a.32183.32183,0,0,0,.06033-.38454l-.81355-1.57717a.75589.75589,0,0,1-.08653-.31928.768.768,0,0,1,.05972-.32572l.30927-.74621.00427-.01127a.73817.73817,0,0,1,.1883-.2721.75165.75165,0,0,1,.28764-.16484L18.98,11.29826a.32545.32545,0,0,0,.16759-.11918v.001a.33042.33042,0,0,0,.0613-.19623V8.66566a.32429.32429,0,0,0-.06222-.19536l.00092-.00087h-.00092A.3189.3189,0,0,0,18.98,8.35121l-1.68925-.53906a.78148.78148,0,0,1-.28764-.1648.756.756,0,0,1-.1883-.274l-.31354-.75744a.74887.74887,0,0,1,.02681-.64505l.81355-1.57621a.32235.32235,0,0,0-.06033-.38453L15.6384,2.36752V2.3666a.32306.32306,0,0,0-.38422-.05972l-1.57713.81385a.76278.76278,0,0,1-.32054.08623.75511.75511,0,0,1-.32573-.05977ZM11.71722.54572l-.14443.26539a.21776.21776,0,0,0,.14443-.26539ZM9.82382,7.63a2.18736,2.18736,0,0,0-1.55214.64261l.00091.00092-.00091.00091a2.19148,2.19148,0,0,0-.01188,3.08874l.01279.01371a2.193,2.193,0,0,0,3.08966.01219l.01285-.01219A2.19475,2.19475,0,0,0,9.82382,7.63Zm1.24135.95371a1.75334,1.75334,0,0,0-2.48239,0l-.00092-.00091a1.75863,1.75863,0,0,0-.01036,2.47263l.01128.01036a1.75791,1.75791,0,0,0,2.472.01219l.01036-.01219a1.75591,1.75591,0,0,0,0-2.48208Z" style="fill:#a1afba;fill-rule:evenodd"/></g></svg>