<svg xmlns="http://www.w3.org/2000/svg" viewBox="0 0 19.73516 18.52152"><title>headphone-icon-uc-santa-barbara</title><g id="ICONS"><path d="M9.868,0a8.61686,8.61686,0,0,1,8.61569,8.61573v1.81876a1.31851,1.31851,0,0,1,1.25147,1.3163v4.72467a1.31323,1.31323,0,0,1-.38613.93025l-.00183.00091a1.31287,1.31287,0,0,1-.92994.387h-1.788v.50854a.21963.21963,0,0,1-.21938.21939H14.46653a.22023.22023,0,0,1-.21939-.21939V9.92407a.22027.22027,0,0,1,.21939-.21939H16.4099a.2266.2266,0,0,1,.05424.0061V8.61573a6.59614,6.59614,0,1,0-13.19228,0V9.71078a.22389.22389,0,0,1,.05455-.0061H5.26887a.21963.21963,0,0,1,.21938.21939v8.37806a.21959.21959,0,0,1-.21938.21939H3.32641a.21984.21984,0,0,1-.2203-.21939v-.50854h-1.788A1.32121,1.32121,0,0,1,0,16.47546V11.75079a1.31459,1.31459,0,0,1,.38453-.92842L.387,10.82085v-.001L.38788,10.819a1.31615,1.31615,0,0,1,.86474-.38453V8.61573A8.61645,8.61645,0,0,1,9.868,0ZM3.54487,10.65326v7.42858H5.04948V10.14345H3.54487v.50981Zm-.4933.21938H1.31813a.88043.88043,0,0,0-.621.25626v.00091a.8777.8777,0,0,0-.25838.621v4.72467a.8822.8822,0,0,0,.87936.87845h1.788V10.87264Zm13.139,6.70065V10.14345h-1.5037v7.93839h1.5037v-.50855Zm2.07294-6.70065H16.62928v6.48127h1.788a.8753.8753,0,0,0,.621-.25747l.00091-.00092a.87472.87472,0,0,0,.25724-.62006V11.75079a.87971.87971,0,0,0-.87913-.87815Zm-2.61432-8.038A8.17574,8.17574,0,0,0,1.692,8.61573v1.81718H2.83218V8.61573a7.03536,7.03536,0,1,1,14.07072,0v1.81718h1.14118V8.61573A8.153,8.153,0,0,0,15.64914,2.83467Z" style="fill:#a1afba;fill-rule:evenodd"/></g></svg>