<svg xmlns="http://www.w3.org/2000/svg" viewBox="0 0 20.0816 12.37019"><title>keyboard-icon-uc-santa-barbara</title><g id="ICONS"><path d="M1.36841,0H18.7135a1.36475,1.36475,0,0,1,.96644.40159h.00091a1.36618,1.36618,0,0,1,.40075.96651v9.63308a1.36968,1.36968,0,0,1-1.3681,1.369H1.36841a1.3661,1.3661,0,0,1-.96735-.40159l-.01219-.0131A1.36394,1.36394,0,0,1,0,11.00118V1.3681A1.36809,1.36809,0,0,1,.40106.40159H.4019A1.36425,1.36425,0,0,1,1.36841,0ZM5.16009,10.51914H18.17533a.21982.21982,0,0,0,.21938-.22029V2.07135a.21963.21963,0,0,0-.21938-.21939H1.90651a.21984.21984,0,0,0-.2203.21939v8.2275a.22.22,0,0,0,.2203.22029ZM2.1265,7.77593v2.30353H4.9407V7.77593Zm0-.43876H4.9407V5.03364H2.1265V7.33717ZM4.9407,2.29073H2.1265V4.59426H4.9407V2.29073ZM8.634,5.03364V7.33717h2.81383V5.03364ZM8.19429,7.33717V5.03364H5.37947V7.33717Zm3.25358-5.04644H8.634V4.59426h2.81383V2.29073Zm-3.25358,0H5.37947V4.59426H8.19429V2.29073Zm3.47388,5.4852H5.37947v2.30353h9.32289V7.77593Zm3.473,0v2.30353H17.956V7.77593Zm-3.25358-.43876h2.81481V5.03364H11.88755V7.33717Zm3.25358,0H17.956V5.03364H15.14113V7.33717Zm-.43877-5.04644H11.88755V4.59426h2.81481V2.29073Zm3.25359,0H15.14113V4.59426H17.956V2.29073Zm.75755-1.852H1.36841a.93225.93225,0,0,0-.92964.92933v9.63308a.9266.9266,0,0,0,.26265.64688l.01043.01036a.93045.93045,0,0,0,.65656.273H18.7135a.93226.93226,0,0,0,.92934-.93025V1.3681a.92624.92624,0,0,0-.27309-.65632h.00092A.9283.9283,0,0,0,18.7135.43877Z" style="fill:#a1afba;fill-rule:evenodd"/></g></svg>