<svg xmlns="http://www.w3.org/2000/svg" viewBox="0 0 12.22485 19.12107"><title>mp3-player-icon-uc-santa-barbara</title><g id="ICONS"><path d="M10.90672.4406H1.31783a.88062.88062,0,0,0-.87845.87753V17.803a.88221.88221,0,0,0,.87845.87845h9.58889a.87742.87742,0,0,0,.62136-.25747l.00053-.00092a.8767.8767,0,0,0,.25656-.62006V1.31813a.87831.87831,0,0,0-.25656-.62006L11.52808.69715A.87662.87662,0,0,0,10.90672.4406ZM8.2406,14.83521,4.68719,16.611V13.0579L8.2406,14.83521Zm-3.67529-2.3276,4.26245,2.13168a.219.219,0,0,1,0,.39124L4.58451,17.15184a.2195.2195,0,0,1-.33608-.18647V12.70293h.00091a.23014.23014,0,0,1,.02255-.09781.21839.21839,0,0,1,.29342-.09751Zm6.11624-10.23V10.9795H1.54422V2.27763ZM1.32483,1.83825h9.57671a.21964.21964,0,0,1,.21939.21939v9.1422a.21967.21967,0,0,1-.21939.21939H1.32483a.21967.21967,0,0,1-.21938-.21939V2.05764a.21964.21964,0,0,1,.21938-.21939ZM1.31783,0h9.58889A1.31469,1.31469,0,0,1,11.837.387l.0019.00091a1.31577,1.31577,0,0,1,.386.93025V17.803a1.31416,1.31416,0,0,1-.386.93025l-.0019.00086a1.31069,1.31069,0,0,1-.93025.387H1.31783A1.32068,1.32068,0,0,1,0,17.803V1.31813A1.32068,1.32068,0,0,1,1.31783,0Z" style="fill:#a1afba;fill-rule:evenodd"/></g></svg>