<svg xmlns="http://www.w3.org/2000/svg" viewBox="0 0 17.67172 18.19178"><title>pages-icon-uc-santa-barbara</title><g id="ICONS"><path d="M1.31783,17.753H12.58257a.87676.87676,0,0,0,.621-.25752h.00091a.878.878,0,0,0,.25656-.62185V9.10442H.43877v7.76923a.88029.88029,0,0,0,.87906.87937ZM17.233,4.12259v7.77349a.87981.87981,0,0,1-.25754.621l-.00182.00091a.87249.87249,0,0,1-.62007.25747H13.90131V6.30271a1.32119,1.32119,0,0,0-1.31874-1.319H4.21217V4.12259ZM4.21217,3.68382H17.233V1.31813a.88388.88388,0,0,0-.87943-.87936H5.09153a.87335.87335,0,0,0-.621.25747L4.46964.69715a.87557.87557,0,0,0-.25747.621V3.68382ZM3.77249,4.98367V1.31813A1.31516,1.31516,0,0,1,4.15945.387h.00092L4.16311.38453A1.31084,1.31084,0,0,1,5.09153,0h11.262a1.32121,1.32121,0,0,1,1.31819,1.31813v10.578a1.31327,1.31327,0,0,1-.387.93116l-.001.00092a1.31446,1.31446,0,0,1-.93025.386H13.90131v3.65944a1.31238,1.31238,0,0,1-.387.93117l-.00061.00091a1.3173,1.3173,0,0,1-.93116.38605H1.31783A1.31818,1.31818,0,0,1,0,16.87365V6.30271a1.31344,1.31344,0,0,1,.38423-.92842L.38612,5.3715H.387l.00061-.00087a1.31416,1.31416,0,0,1,.93025-.387Zm9.68853,3.682v-2.363a.8807.8807,0,0,0-.87845-.87941H1.31783a.87889.87889,0,0,0-.62092.25752l-.001.00091a.8742.8742,0,0,0-.25716.621v2.363Z" style="fill:#a1afba;fill-rule:evenodd"/></g></svg>