<svg xmlns="http://www.w3.org/2000/svg" viewBox="0 0 17.01772 21.57882"><title>paper-Icon-UC-Santa-Barbara</title><g id="ICONS"><path d="M1.32215,3.38638H3.18874V1.31783h0A1.31859,1.31859,0,0,1,4.50657.00061V0h.001V.00061h7.64121a.22.22,0,0,1,.16667.07617l4.63052,4.63388a.22017.22017,0,0,1,.07587.16667l-.00061.0198L17.016,16.87518a1.32017,1.32017,0,0,1-1.3163,1.31813H13.8322V20.261a1.32111,1.32111,0,0,1-1.31813,1.31782H1.32215v-.0006A1.31807,1.31807,0,0,1,.00493,20.261H.00407V4.70365h0A1.31955,1.31955,0,0,1,1.32215,3.38638V3.38552h0v.00086ZM16.583,5.09671H13.24748a1.31807,1.31807,0,0,1-1.31813-1.31813V.43877L4.50753.43785V.43938h-.001V.43785a.88274.88274,0,0,0-.87815.88h0V3.38638l5.11317.001h.20293l.0198-.00183a.219.219,0,0,1,.16667.078L11.37053,5.704,13.7606,8.097a.21847.21847,0,0,1,.07684.16611l-.001.01976-.00427,9.47072h1.86751a.88.88,0,0,0,.879-.87845L16.583,5.09671ZM12.36812.74956v3.029a.8822.8822,0,0,0,.87936.87936h3.02567L12.36812.74956Zm1.02714,17.24412-.00091-.02067.00091-.0192.00427-9.47067H10.06307A1.3191,1.3191,0,0,1,8.74494,7.16532v-3.341H1.32215a.87908.87908,0,0,0-.87845.87937h0V20.261H.44284a.88158.88158,0,0,0,.87931.87906v-.00061H12.51407a.88063.88063,0,0,0,.88028-.87845l.00091-2.26732ZM9.1837,4.13538V7.16532a.8822.8822,0,0,0,.87937.87844h3.02536l-1.9449-1.947Z" style="fill:#a1afba;fill-rule:evenodd"/></g></svg>