<svg xmlns="http://www.w3.org/2000/svg" viewBox="0 0 20.85882 17.76246"><title>printer-icon-uc-santa-barbara</title><g id="ICONS"><path d="M19.54069,9.2653h-1.8864v1.89737a.21985.21985,0,0,1-.22029.21938H3.42726a.21966.21966,0,0,1-.21938-.21938V9.2653H1.31813a.87563.87563,0,0,0-.62037.25712l-.00152.001a.8783.8783,0,0,0-.25656.621v6.3a.88.88,0,0,0,.87845.8784H19.54069a.87768.87768,0,0,0,.621-.25742h.00085a.87887.87887,0,0,0,.25656-.621v-6.3a.88.88,0,0,0-.87845-.87906ZM3.75877,16.08174a.21939.21939,0,0,1,0-.43877H17.09822a.21939.21939,0,0,1,0,.43877ZM16.31118,4.1201a.21915.21915,0,0,1,.07678.16672l-.00061.0198-.00457,6.6357h.83183V9.04592a.21964.21964,0,0,1,.21939-.21938h2.10669a1.31963,1.31963,0,0,1,1.31813,1.31782v6.3a1.31261,1.31261,0,0,1-.387.9302l-.00091.001a1.31512,1.31512,0,0,1-.93025.387H1.31813A1.32121,1.32121,0,0,1,0,16.44433v-6.3a1.31586,1.31586,0,0,1,.38514-.92842L.387,9.21412.38788,9.2132V9.21259a1.314,1.314,0,0,1,.93025-.38605H3.42726a.21924.21924,0,0,1,.21938.21938v1.8964h.607V1.31813h0A1.31961,1.31961,0,0,1,5.57174,0h.001V.00091H12.085L12.1048,0a.21965.21965,0,0,1,.16759.07709l4.03879,4.043Zm-.362.3861-.00427,6.43612H4.69329V1.31813h0A.88219.88219,0,0,1,5.57174.43877h.001V.43785l6.31271.00092v2.7493A1.32121,1.32121,0,0,0,13.20355,4.5062ZM12.3251.74987v2.4382a.88062.88062,0,0,0,.87845.87936H15.6384L12.3251.74987Zm3.67163,11.87932h1.1021a.2198.2198,0,0,1,.21938.21938l-.00061,1.046a.21853.21853,0,0,1-.21877.21938l-1.10271-.00091a.21885.21885,0,0,1-.21938-.21847l.0006-1.04665a.21928.21928,0,0,1,.21939-.21877Zm.88363.43816v.60879H16.2155v-.60971Z" style="fill:#a1afba;fill-rule:evenodd"/></g></svg>