<svg xmlns="http://www.w3.org/2000/svg" viewBox="0 0 20.20646 13.82547"><title>radio-signal-icon-uc-santa-barbara</title><g id="ICONS"><path d="M3.7216,12.33089A8.7855,8.7855,0,0,1,3.72587,1.48846a.32864.32864,0,0,0-.03352-.44456L3.14023.52805A.32551.32551,0,0,0,3.02475.45644a.35069.35069,0,0,0-.26448.01889.31731.31731,0,0,0-.10451.08745h.00092A10.19706,10.19706,0,0,0,2.65058,13.256a.34169.34169,0,0,0,.1036.08714.33242.33242,0,0,0,.13041.03626h.00433a.34356.34356,0,0,0,.12974-.01554v-.00091a.314.314,0,0,0,.11579-.07161l.55278-.51494a.32816.32816,0,0,0,.10445-.21481.33492.33492,0,0,0-.07008-.23066ZM6.27377,9.83814A5.22518,5.22518,0,0,1,6.27651,3.984a.32792.32792,0,0,0-.05272-.43115l-.48538-.436a.31086.31086,0,0,0-.12-.0719A.31475.31475,0,0,0,5.48,3.0339h0a.31464.31464,0,0,0-.13193.043.338.338,0,0,0-.10116.09507l-.00762.00944a6.53821,6.53821,0,0,0,.00518,7.4688.31639.31639,0,0,0,.09994.09476v.00091l.00092-.00091a.32311.32311,0,0,0,.13132.04327.3289.3289,0,0,0,.13894-.01219.30543.30543,0,0,0,.11945-.07069l.4863-.43542.00944-.00853a.331.331,0,0,0,.09842-.19684.33524.33524,0,0,0-.05545-.22639ZM5.81611,6.91089a4.77233,4.77233,0,0,0,.82061,2.682.764.764,0,0,1-.10792.98905l-.01493.01372-.48539.43694a.79189.79189,0,0,1-.27971.16149.7748.7748,0,0,1-.32146.02955.76485.76485,0,0,1-.30744-.10207l.00091-.00092a.76413.76413,0,0,1-.23584-.22,6.97774,6.97774,0,0,1-.00518-7.967l.00884-.01406a.75016.75016,0,0,1,.23584-.22086.76491.76491,0,0,1,.30567-.10116h.00177a.75412.75412,0,0,1,.60026.19165l.48538.43811a.76531.76531,0,0,1,.12188,1.0019,4.76764,4.76764,0,0,0-.82329,2.68166Zm4.28133,2.19658a2.23787,2.23787,0,0,0,.00183-4.47573v.00152h0V4.63174A2.24082,2.24082,0,0,0,7.86064,6.86849h0a2.23822,2.23822,0,0,0,2.2368,2.239ZM11.989,8.76286A2.67511,2.67511,0,0,1,7.4234,6.86849h0a2.67359,2.67359,0,0,1,2.67587-2.674V4.19389h0V4.1945A2.6757,2.6757,0,0,1,11.989,8.76286Zm4.14757,3.30294a8.34451,8.34451,0,0,0,.00426-10.30006.76844.76844,0,0,1,.08044-1.0372L16.77493.213a.75767.75767,0,0,1,.26783-.16424h0a.75243.75243,0,0,1,.31171-.03961.75936.75936,0,0,1,.30323.08471.77778.77778,0,0,1,.24188.20293,10.63946,10.63946,0,0,1-.0061,13.23889l-.0131.01554a.73881.73881,0,0,1-.22877.18648.76109.76109,0,0,1-.30323.08562.7818.7818,0,0,1-.31171-.03961l-.0131-.0061a.77474.77474,0,0,1-.25559-.159l-.55187-.51555a.76691.76691,0,0,1-.07952-1.0372Zm2.21888-5.14973A8.75394,8.75394,0,0,1,16.4812,12.337a.32776.32776,0,0,0,.03388.44547l.55175.51495a.32768.32768,0,0,0,.10817.06916l.00762.00336a.34469.34469,0,0,0,.13468.01554.32472.32472,0,0,0,.12949-.03535.31855.31855,0,0,0,.09513-.07709l.00786-.01036A10.19377,10.19377,0,0,0,17.55588.56949a.32853.32853,0,0,0-.103-.08715.31227.31227,0,0,0-.1295-.03626.32549.32549,0,0,0-.13468.01646V.46162L17.1878.46254a.32389.32389,0,0,0-.11487.0716l-.55273.51555a.32508.32508,0,0,0-.1036.21421.3297.3297,0,0,0,.06887.23065,8.75818,8.75818,0,0,1,1.87,5.42152ZM13.56888,9.59713a.76137.76137,0,0,0,.121,1.00185l.48538.43724a.762.762,0,0,0,.26789.15723l.01091.00426a.76409.76409,0,0,0,.86474-.29281,6.97629,6.97629,0,0,0,.00335-7.97922.76722.76722,0,0,0-.22365-.21416l-.01127-.00761a.76349.76349,0,0,0-.30744-.10208.77966.77966,0,0,0-.30921.0259l-.01194.00457a.75651.75651,0,0,0-.28.16149l-.4863.436a.76589.76589,0,0,0-.12158,1.00276,4.79426,4.79426,0,0,1-.00183,5.36455Zm1.25933-2.68167a5.21189,5.21189,0,0,1-.89734,2.9269.32613.32613,0,0,0,.0524.43028l.4857.43694a.32883.32883,0,0,0,.11127.06821l.00786.00279a.36193.36193,0,0,0,.27119-.03108.3409.3409,0,0,0,.10024-.09507,6.54036,6.54036,0,0,0,.00335-7.4789.33054.33054,0,0,0-.09232-.09075l-.00884-.00518a.345.345,0,0,0-.13193-.04235.32278.32278,0,0,0-.13041.00944l-.00793.00183a.326.326,0,0,0-.11913.07161l-.48625.43628a.32552.32552,0,0,0-.107.20541.33111.33111,0,0,0,.05332.22548,5.20452,5.20452,0,0,1,.89582,2.92816ZM2.28866,6.90937a8.32945,8.32945,0,0,0,1.77756,5.1512.76643.76643,0,0,1-.08039,1.03633l-.55369.51556a.74937.74937,0,0,1-.26753.16423H3.1637a.75566.75566,0,0,1-.30592.04052H2.852a.76248.76248,0,0,1-.30257-.08623.73811.73811,0,0,1-.24162-.20232A10.63617,10.63617,0,0,1,2.31389.28977h0a.74521.74521,0,0,1,.5448-.28763.759.759,0,0,1,.312.04052.7484.7484,0,0,1,.26845.1651L3.991.72245a.76734.76734,0,0,1,.07952,1.03811A8.32072,8.32072,0,0,0,2.28866,6.90937Z" style="fill:#a1afba;fill-rule:evenodd"/></g></svg>