<svg xmlns="http://www.w3.org/2000/svg" viewBox="0 0 13.93269 18.9706"><title>sd-card-icon-uc-santa-barbara</title><g id="ICONS"><path d="M13.48966,17.65429l.00518-12.2864a.88462.88462,0,0,0-.064-.33852.87018.87018,0,0,0-.1944-.284L9.1934.69959a.84349.84349,0,0,0-.621-.25808h0L4.94832.43968,1.32422.43877V.43968A.87652.87652,0,0,0,.70233.69711l-.00091.001a.8767.8767,0,0,0-.25656.62006H.444q0,4.08373-.0034,8.16625Q.43922,13.56675.43791,17.65H.43877a.87529.87529,0,0,0,.25747.62006l.01036.01123a.87619.87619,0,0,0,.61062.24716v.00091q2.8232,0,5.64608.00244,2.8232,0,5.647.00183a.87737.87737,0,0,0,.62006-.25844l.01127-.01031a.87587.87587,0,0,0,.248-.61062ZM5.25058,9.43441v2.48848a.219.219,0,0,0,.21847.22h5.75243v1.45463H2.7036V9.43441ZM2.4833,8.99473h8.95847a.2198.2198,0,0,1,.21939.21939v7.31213a.21977.21977,0,0,1-.21939.21938H2.4833a.2196.2196,0,0,1-.21938-.21938V9.21412a.21964.21964,0,0,1,.21938-.21939Zm6.1918,2.70878V9.43441h2.54638v2.2691Zm-2.98575,0V9.43441h2.547v2.2691ZM8.6751,16.306V14.03721h2.54638V16.306Zm-2.98575,0V14.03721h2.547V16.306Zm-2.98575,0V14.03721h2.547V16.306ZM13.93269,5.36789l-.00518,12.2864a1.313,1.313,0,0,1-.37325.91745l-.0128.01372a1.31188,1.31188,0,0,1-.93116.38514q-2.82319,0-5.647-.00092-2.82183-.00228-5.64608-.00244v.00092a1.312,1.312,0,0,1-.91715-.37478l-.014-.01219A1.311,1.311,0,0,1,0,17.65H0Q.00137,13.5663.00335,9.48438.00473,5.40111.00609,1.31813H.00523A1.31061,1.31061,0,0,1,.3922.38788V.387A1.317,1.317,0,0,1,1.32422,0V.00091l3.6241.00183,3.6241.00061V.00274a1.29645,1.29645,0,0,1,.5061.09842,1.32725,1.32725,0,0,1,.426.28855L13.54725,4.437a1.27479,1.27479,0,0,1,.38544.93085Z" style="fill:#a1afba;fill-rule:evenodd"/></g></svg>