<svg xmlns="http://www.w3.org/2000/svg" viewBox="0 0 13.17331 15.78435"><title>server-icon-uc-santa-barbara</title><g id="ICONS"><path d="M12.40394,6.11684H.76868a.33017.33017,0,0,0-.32991.33v2.8916a.3315.3315,0,0,0,.09682.23249l.00853.00944a.33286.33286,0,0,0,.22456.08715H12.40394a.32671.32671,0,0,0,.32969-.32908V6.44683a.32978.32978,0,0,0-.32969-.33Zm-.451,8.73909H10.45356a.21885.21885,0,0,1-.21938-.21847V13.13712a.219.219,0,0,1,.21938-.21938H11.953a.21847.21847,0,0,1,.21938.21938v1.50034a.21827.21827,0,0,1-.21938.21847Zm-1.28-.43876H11.7336V13.35651H10.67294v1.06066Zm1.28-5.23753H10.45356a.22.22,0,0,1-.21938-.22025V7.46a.21962.21962,0,0,1,.21938-.21938H11.953a.219.219,0,0,1,.21938.21938V8.95939a.2194.2194,0,0,1-.21938.22025Zm-1.28-.43964V7.68026H11.7336V8.74Zm1.28-5.23778H10.45356a.21976.21976,0,0,1-.21938-.22V1.7828a.21963.21963,0,0,1,.21938-.21939H11.953a.21905.21905,0,0,1,.21938.21939V3.28222a.21918.21918,0,0,1-.21938.22Zm-1.28-.43938H11.7336V2.0031H10.67294V3.06284ZM.76868,5.67716H12.40394a.76984.76984,0,0,1,.76937.76967v2.8916a.7638.7638,0,0,1-.22548.54237l-.00061.00091a.76863.76863,0,0,1-.54328.22548H.76868a.7649.7649,0,0,1-.52956-.21238l-.01364-.0131A.76689.76689,0,0,1,0,9.33843V6.44683a.76984.76984,0,0,1,.76868-.76967ZM12.40394,4.43a.76759.76759,0,0,0,.54389-.22548h-.00061l.00061-.00091a.76381.76381,0,0,0,.22548-.54237V.76967a.76433.76433,0,0,0-.22548-.54328h-.00061A.76944.76944,0,0,0,12.40394,0H.76868A.7714.7714,0,0,0,0,.76967v2.8916a.76933.76933,0,0,0,.21261.52957l.01287.01371A.76746.76746,0,0,0,.76868,4.43ZM.76868,3.99126H12.40394a.3283.3283,0,0,0,.2331-.09689H12.638a.33113.33113,0,0,0,.09568-.2331V.76967A.32772.32772,0,0,0,12.637.53627H12.638a.33123.33123,0,0,0-.234-.09659H.76868a.33017.33017,0,0,0-.32991.33v2.8916a.32718.32718,0,0,0,.088.22365l.00884.00945a.3288.3288,0,0,0,.23309.09689ZM12.40394,11.794H.76868a.33078.33078,0,0,0-.32991.32908V15.0156a.33369.33369,0,0,0,.09682.2334l.00853.00853a.33586.33586,0,0,0,.22456.08714H12.40394a.32669.32669,0,0,0,.32969-.32907V12.123a.33038.33038,0,0,0-.32969-.32908ZM.76868,11.35519A.76835.76835,0,0,0,0,12.123V15.0156a.767.767,0,0,0,.22548.54327l.01364.014a.771.771,0,0,0,.52956.21146H12.40394a.76863.76863,0,0,0,.54328-.22548h.00061a.76753.76753,0,0,0,.22548-.54327V12.123a.76835.76835,0,0,0-.76937-.76785Z" style="fill:#a1afba;fill-rule:evenodd"/></g></svg>