<svg version="1.0" xmlns="http://www.w3.org/2000/svg" viewBox="0 0 18.23 18.23" xml:space="preserve">
<title>shield-icon-uc-santa-barbara</title>
<path  style="fill:#a1afba;fill-rule:evenodd"  fill-rule="evenodd" clip-rule="evenodd" d="M8.851,18.209C0.488,16.187,0.507,11.435,0.534,4.46
	C0.54,3.55,0.542,2.604,0.528,1.619V1.617C0.524,1.402,0.56,1.202,0.633,1.015c0.076-0.188,0.189-0.358,0.339-0.51
	c0.151-0.153,0.32-0.269,0.505-0.348C1.662,0.079,1.864,0.04,2.079,0.04h13.718c0.212,0,0.415,0.04,0.6,0.118
	c0.184,0.079,0.354,0.194,0.507,0.348c0.148,0.152,0.261,0.322,0.336,0.51c0.075,0.187,0.109,0.387,0.107,0.602
	c-0.016,0.985-0.011,1.933-0.008,2.843c0.027,6.975,0.045,11.727-8.318,13.749c-0.027,0.008-0.055,0.01-0.084,0.01
	C8.905,18.219,8.877,18.217,8.851,18.209 M9.195,8.316h7.574c0.064-1.193,0.06-2.48,0.055-3.855
	c-0.007-0.912-0.009-1.864,0.007-2.852c0.003-0.145-0.021-0.28-0.071-0.403c-0.047-0.122-0.123-0.236-0.227-0.339
	c-0.101-0.104-0.214-0.182-0.335-0.231c-0.122-0.053-0.255-0.079-0.401-0.079H9.195V8.316z M16.738,8.833H9.195v8.8
	C15.046,16.131,16.425,13.127,16.738,8.833 M8.678,17.633v-8.8H1.133C1.448,13.127,2.827,16.133,8.678,17.633 M1.102,8.316h7.576
	V0.557H2.079c-0.147,0-0.283,0.026-0.404,0.079C1.552,0.685,1.44,0.762,1.341,0.867C1.239,0.969,1.163,1.083,1.113,1.206
	C1.064,1.329,1.04,1.464,1.042,1.609c0.016,0.988,0.012,1.94,0.009,2.852C1.044,5.836,1.04,7.124,1.102,8.316"/>
</svg>
