<svg xmlns="http://www.w3.org/2000/svg" viewBox="0 0 19.47944 14.0951"><title>speedometer-icon-uc-santa-barbara</title><g id="ICONS"><path d="M17.24935,11.82874V9.9914H15.48118a.21938.21938,0,1,1,0-.43876h1.76543a7.50624,7.50624,0,0,0-7.28385-7.3198V4.02752a.21939.21939,0,0,1-.43877,0V2.23284A7.5068,7.5068,0,0,0,2.23345,9.545H3.99888a.21984.21984,0,1,1,0,.43968H2.231v1.844ZM9.733,10.60476a.5805.5805,0,1,1,.41134-.17.58245.58245,0,0,1-.41134.17Zm.72214.14078a1.02363,1.02363,0,0,1-1.444,0,.933.933,0,0,1-.06917-.0777l-.56217.28393a.21924.21924,0,0,1-.19806-.39119l.56248-.28306a1.02119,1.02119,0,0,1,1.71089-.97687.98676.98676,0,0,1,.07008.07861L13.05333,8.105l1.85958-.93787a.21919.21919,0,0,1,.19775.39124l-1.86049.93817L10.723,9.7705a1.0589,1.0589,0,0,1,.03108.2529,1.01947,1.01947,0,0,1-.29891.72214ZM1.79224,9.875a.20571.20571,0,0,1-.03047-.10969.22037.22037,0,0,1,.03047-.11157A7.94664,7.94664,0,0,1,9.73759,1.79041h.01188a7.94865,7.94865,0,0,1,7.93865,7.8704.22157.22157,0,0,1,.03016.11121.21308.21308,0,0,1-.03016.11061v2.16606a.21922.21922,0,0,1-.21939.21938H2.01071a.21883.21883,0,0,1-.21847-.21938V9.875ZM9.74,0a9.73886,9.73886,0,0,1,9.73941,9.73942v3.0375a1.31388,1.31388,0,0,1-.387.9303v.00091h-.00092l-.00274.00244a1.31412,1.31412,0,0,1-.92751.38453H1.31874A1.32278,1.32278,0,0,1,0,12.77692V9.73942A9.74,9.74,0,0,1,9.74,0Zm6.57541,3.16309a9.27106,9.27106,0,0,1,2.72524,6.57633v3.0375a.8752.8752,0,0,1-.25741.62011l-.001.00092a.87551.87551,0,0,1-.621.25747H1.31874a.88053.88053,0,0,1-.87839-.8785V9.73942A9.299,9.299,0,0,1,16.31544,3.16309Z" style="fill:#a1afba;fill-rule:evenodd"/></g></svg>