<svg xmlns="http://www.w3.org/2000/svg" viewBox="0 0 14.74289 18.67108"><title>trash-can-icon-uc-santa-barbara</title><g id="ICONS"><path d="M14.30412,1.60668H.43968V3.21732H14.30412V1.60668ZM11.39516,3.657V18.23231h1.25658a.87581.87581,0,0,0,.621-.25747l.00092-.00092a.87581.87581,0,0,0,.25747-.621V3.657Zm-.43877,14.57531V3.657H7.60256V18.23231Zm-3.79351,0V3.657h-3.365V18.23231Zm-3.80381,0V3.657H1.21362V17.353a.88063.88063,0,0,0,.87845.87936ZM5.93311,1.167V.2203A.22112.22112,0,0,1,6.15316,0H8.59161A.22035.22035,0,0,1,8.811.2203V1.167h5.71251a.21925.21925,0,0,1,.21938.2203V3.43762a.219.219,0,0,1-.21938.21938h-.55364V17.353a1.31065,1.31065,0,0,1-.38606.93024l-.00091.00183a1.31443,1.31443,0,0,1-.93116.38606H2.09207A1.31807,1.31807,0,0,1,.77394,17.353V3.657H.2203A.22041.22041,0,0,1,0,3.43762V1.3873A.22061.22061,0,0,1,.2203,1.167Zm2.43827,0V.44055H6.37255V1.167Z" style="fill:#a1afba;fill-rule:evenodd"/></g></svg>