<svg xmlns="http://www.w3.org/2000/svg" viewBox="0 0 14.10181 18.40477"><title>usb-icon-uc-santa-barbara</title><g id="ICONS"><path d="M0,17.08085l.00275-6.77256a.21944.21944,0,0,1,.21847-.21938l.86717.00091L1.09182.21847A.21939.21939,0,0,1,1.3112,0L12.80287.00518a.21807.21807,0,0,1,.21847.21847L13.01708,10.095l.86626.00092a.21808.21808,0,0,1,.21847.21847l-.00336,6.77255h0a1.31806,1.31806,0,0,1-1.31721,1.31691v.00092h0v-.00092L1.31631,18.39867A1.31806,1.31806,0,0,1,0,17.08085Zm7.05479-6.98829,5.52535.00244L12.58349.44212,1.5296.43694l-.00427,9.65288,5.52946.00274ZM3.31422,4.57232a.21782.21782,0,0,0-.21786.21878L3.09484,7.2878a.21951.21951,0,0,0,.21847.21878L6.0358,7.5081a.21905.21905,0,0,0,.21847-.21938l.00091-2.497a.21892.21892,0,0,0-.21877-.21847L3.31422,4.57232Zm4.84625.00183a.21922.21922,0,0,0-.21847.21847L7.94108,7.29055a.21808.21808,0,0,0,.21847.21847l2.7225.00182a.21943.21943,0,0,0,.21846-.21938l.00092-2.49706A.219.219,0,0,0,10.883,4.575L8.16047,4.57415Zm2.50371.43877L8.37985,5.012,8.37894,7.07116l2.28372.00092.00152-2.05916ZM5.81794,5.01109,3.53361,5.00957,3.53178,7.06934,5.817,7.07025l.00092-2.05916Zm6.98676,5.52177h-.00609l-5.74382-.00244L.4406,10.52768.43786,17.08085a.88167.88167,0,0,0,.87845.88l11.46493.00518v-.00091h0V17.966a.88166.88166,0,0,0,.88027-.87906h0l.00244-6.55408Z" style="fill:#a1afba;fill-rule:evenodd"/></g></svg>