<svg xmlns="http://www.w3.org/2000/svg" viewBox="0 0 19.29449 21.87347"><title>clipboard-and-clock-icon-uc-santa-barbara_1</title><g id="ICONS"><path d="M10.28422,19.96392a5.0209,5.0209,0,1,0,5.47058-8.19159,4.70946,4.70946,0,0,0-.59325-.202l-.02773-.00884A5.03017,5.03017,0,0,0,9.1934,14.493a5.03984,5.03984,0,0,0,0,3.841c.01554.03717.03016.07343.04668.10969a.334.334,0,0,1,.01547.0326,5.04774,5.04774,0,0,0,1.02867,1.48755Zm1.69626-9.5502a.2203.2203,0,1,1,0,.44059H5.18385a.2203.2203,0,0,1,0-.44059Zm-2.60762,2.852a5.52248,5.52248,0,0,0-.58471,1.06066,5.47085,5.47085,0,0,0-.06734,4.0031H2.00888V2.29987H4.5836v.7066a.21885.21885,0,0,0,.21847.21938h5.82067a.21905.21905,0,0,0,.21939-.21938v-.7066h2.57379v8.66992a5.39977,5.39977,0,0,0-1.66853.39825,5.46847,5.46847,0,0,0-1.77427,1.18432c-.08806.08871-.17276.17951-.25466.27458H5.18385a.21939.21939,0,0,0,0,.43877ZM11.98048,8.1431H5.18385a.21969.21969,0,0,0,0,.43937h6.79663a.21969.21969,0,1,0,0-.43937Zm0-2.27093H5.18385a.21984.21984,0,0,0,0,.43968h6.79663a.21984.21984,0,1,0,0-.43968Zm-2.111,14.29559H1.31789A1.32227,1.32227,0,0,1,0,18.84963V1.78005A1.32068,1.32068,0,0,1,1.31789.46188H4.5836V.22A.21954.21954,0,0,1,4.80207,0h5.82067a.21974.21974,0,0,1,.21939.22V.46188H14.107a1.32138,1.32138,0,0,1,1.31813,1.31817v9.40913q.25366.07815.49575.17886a5.46029,5.46029,0,1,1-6.05134,8.79972Zm5.11591-9.09254V1.78005A.87873.87873,0,0,0,14.107.90161H10.84213v.958h2.79409a.22035.22035,0,0,1,.21938.22v8.87408a5.4542,5.4542,0,0,1,1.12983.12157Zm-6.07723,7.694a5.38758,5.38758,0,0,0,.58746.95885H1.31789a.87935.87935,0,0,1-.87851-.87841V1.78005A.88062.88062,0,0,1,1.31789.90161H4.5836v.958H1.7895a.22035.22035,0,0,0-.21938.22V18.54981a.21966.21966,0,0,0,.21938.21938Zm4.54825-3.48333a.21927.21927,0,1,1,.4345-.05941l.10207.73676,2.60214-2.60244a.2199.2199,0,1,1,.31116.3108L14.18041,16.3968l.30227.22517a.21916.21916,0,1,1-.26174.35158l-.0975-.07156.4863,3.49978a.21928.21928,0,0,1-.43451.05942l-.49483-3.56438-.45.45065a.21987.21987,0,0,1-.3111-.31079l.59173-.59173L11.05115,14.607a.21944.21944,0,0,1,.26265-.35162l2.23071,1.6661-.08806-.63561ZM3.27857,6.31185h.66059a.21984.21984,0,1,0,0-.43968H3.27857a.21984.21984,0,0,0,0,.43968Zm0,2.27062h.66059a.21969.21969,0,1,0,0-.43937H3.27857a.21969.21969,0,0,0,0,.43937Zm0,2.27093h.66059a.21984.21984,0,1,0,0-.43968H3.27857a.21984.21984,0,0,0,0,.43968Zm0,2.41231h.66059a.21985.21985,0,1,0,0-.43969H3.27857a.21985.21985,0,0,0,0,.43969ZM5.02236,2.78617h5.381V.43938h-5.381Z" style="fill:#a1afba;fill-rule:evenodd"/></g></svg>