<svg xmlns="http://www.w3.org/2000/svg" viewBox="0 0 20.41731 12.07034"><title>cloud-icon-uc-santa-barbara</title><g id="ICONS"><path d="M3.81606,12.06519a3.81886,3.81886,0,0,1-.72823-7.56691,5.34614,5.34614,0,0,1,9.55629-2.36142,3.87672,3.87672,0,0,1,.38758-.07709,4.00385,4.00385,0,0,1,.54846-.0387V2.022a3.80093,3.80093,0,0,1,2.21638.709,3.83939,3.83939,0,0,1,1.34928,1.7438A3.81123,3.81123,0,0,1,19.44136,5.704h0a3.81707,3.81707,0,0,1-2.844,6.36636l-12.7813-.00515ZM1.42691,10.63645a3.3653,3.3653,0,0,0,2.38915.99089l12.7813.00609a3.37943,3.37943,0,0,0,2.51858-5.63576V5.99679h0a3.3725,3.3725,0,0,0-2.1457-1.10213.22011.22011,0,0,1-.19257-.14866,3.38362,3.38362,0,0,0-3.19751-2.28707v.00091a3.47465,3.47465,0,0,0-.48685.03443,3.41323,3.41323,0,0,0-.47448.1036V2.59723a.21847.21847,0,0,1-.241-.08315A4.92865,4.92865,0,0,0,10.62274.98537a4.91054,4.91054,0,0,0-7.122,3.71493A.22167.22167,0,0,1,3.3133,4.906a3.37859,3.37859,0,0,0-1.88639,5.73048Z" style="fill:#a1afba;fill-rule:evenodd"/></g></svg>