<svg xmlns="http://www.w3.org/2000/svg" viewBox="0 0 22.64195 19.02157"><title>cloud-and-moon-icon-uc-santa-barbara</title><g id="ICONS"><path d="M3.8185,19.02157a3.81914,3.81914,0,0,1-.73159-7.56721,5.34948,5.34948,0,0,1,7.17568-4.15519c-.02133-.1167-.03961-.234-.05417-.35345A6.22559,6.22559,0,0,1,15.43212.00253a.21923.21923,0,0,1,.18221.37722,4.94871,4.94871,0,0,0,6.3277,7.5343.21958.21958,0,0,1,.30378.06033.21572.21572,0,0,1,.02529.192h.00061a6.24546,6.24546,0,0,1-3.65243,3.79592,3.81831,3.81831,0,0,1-2.01864,7.05931ZM21.45634,4.8375a.219.219,0,0,0-.41866,0l-.24193.78856-.78765.241-.00092.00092a.21917.21917,0,0,0,0,.419l.78857.2425.241.78677.00092.00183a.219.219,0,0,0,.41866,0l.24284-.7886.78674-.24189.00091-.00061a.21921.21921,0,0,0,0-.419l-.78765-.24194-.24193-.78768-.00091-.00088ZM21.314,5.86617l-.06673-.21847-.06642.21664L21.18,5.86617a.21716.21716,0,0,1-.145.14412l-.21756.06673.21664.06734h.00092a.2181.2181,0,0,1,.145.145l.06734.21756.06673-.21664V6.28939a.21986.21986,0,0,1,.145-.145l.21755-.06734L21.461,6.0112l-.00189-.00091a.21616.21616,0,0,1-.145-.14412ZM19.14763.60705a.21936.21936,0,0,0-.41866,0l-.49148,1.6012-1.60059.49148-.00091.00091a.21644.21644,0,0,0-.145.145.21955.21955,0,0,0,.145.274l1.6015.49149L18.729,5.21137v.00091a.219.219,0,0,0,.41866,0l.49148-1.60119,1.6015-.49149h0a.21917.21917,0,0,0,0-.419l-1.6015-.49239L19.14763.608V.60705Zm.10732,1.8413-.31689-1.03019-.31634,1.02867v.00152a.22159.22159,0,0,1-.145.14534l-1.0305.31594,1.02958.31689h.00092a.21864.21864,0,0,1,.145.14538l.31634,1.03019L19.255,3.37251V3.3719a.2184.2184,0,0,1,.145-.14538l1.03049-.31689-1.02958-.31594h-.00091a.21952.21952,0,0,1-.145-.14534ZM11.18156,7.75348l.00609.00335.01646.01036.01036.00609.00609.00427.01646.01032.00944.00522.00708.00609.017.01036.007.00427.00951.00609.01639.01127.00518.00336.01127.007.01646.01128.00335.00244.0131.0088.0326.02228.01646.01035v.00183l.01554.01036a5.222,5.222,0,0,1,.46406.362l.01371.01188.01462.0131.01463.01219.00883.00762.00518.00518.04236.03808.00762.00762.00609.00518.01371.0131.00792.007.0061.00579.01371.0131.007.0061.00761.0067.01311.014.0067.00609.007.0067.01371.01311.00609.00609.00793.00762.01279.0131.0061.00609.00792.00671.0128.014.00609.00515a5.54161,5.54161,0,0,1,.49148.56556l.00518-.00153h.00091l.0061-.00091.00518-.00092.00061-.00091.00609-.00091.00518-.00153h0l.0061-.00183h.00091l.02925-.007h0l.00609-.00092h0l.01219-.00244V9.068l.01134-.00244h.00085l.00579-.00095h0l.01219-.00362h0l.00609-.00061h0l.0061-.00186h0l.00609-.00088h0l.00518-.00091.00061-.00092.00518-.00061h.00091l.0061-.00183h0l.00518-.00094h.00091l.00518-.00088h.00092L12.81079,9.05h0l.00585-.00091h0l.0061-.00092V9.04723l.00609-.001h0l.00512-.00149h.001l.00609-.00091h0l.00511-.00183h.001l.00512-.00091h.001l.00572-.00095h0l.0061-.00058V9.0387l.00609-.00092h0l.00609-.00091h0l.0061-.00091h0l.00609-.00153h0l.00579-.00091h.00092l.00518-.00183h0l.00609-.00091h0l.00609-.00092h0l.0061-.00061h0l.00609-.00182h.00677l.00511-.00183h.001l.0061-.00092h0l.00609-.00061h0l.0061-.00091h0l.00511-.00183h.001l.00511-.00091h.00671l.00609-.00156h0l.0061-.00088.00609-.00091.00609-.00092h0l.00579-.00091h0l.007-.00092.0061-.00061.00517-.00094.007-.0018a3.84854,3.84854,0,0,1,.54846-.039,3.79367,3.79367,0,0,1,2.21608.71025l.02864.01981.02773.02069.02834.02075.02773.02072.02772.02251.02743.02076.02681.02132.0259.02347.02773.02163.02681.02251.025.0232.02681.02346.0259.02315.025.02347.02589.02407.02506.02346.02522.02407.025.024.02407.02532.02407.025.02529.025.02224.025.02438.0259.02315.025.02347.02682.02315.0259.02164.0259V10.316l.02346.0259v.00091l.02163.02587h0l.02231.02685h0l.02157.02772.02163.02743h0l.02164.02681.02072.02864.02072.02834.0198.02773h0l.02072.02864.02079.02742v.00092l.01913.02864.01889.02925.01987.02925.01913.02956.01889.02925.018.02955.01828.02925.018.03017.01743.03016.0173.03108.01737.03047.01615.03108.01737.03017V11.008l.01645.03017h0l.01554.03108.01561.032.01547.032.01463.03108.0156.032.01456.0326.01493.032h0l.01371.032.01371.0329.01317.03291.01273.0326.01311.03291.00768.00092.00609.00088.00786.00094.0067.00153.00793.00091.00609.00092h.00091l.00762.00179.007.00064.0067.00092.00708.00091.00785.00183.00518.00091h.00153l.007.00153.007.00091.00762.00092.007.00182.007.00061.00518.00092.0025.00091.00694.00092.02164.00426.0067.00092.00433.00091.00268.00091.007.00058.00671.00186.01493.00274.0067.00149.00366.00095H17.359l.007.00183.0067.00152.02072.00457h.00427l.03108.00762.00707.00092.00268.00088.00518.00094c.05088.01189.10085.02407.15113.03779l.04662.01306h.00243l.0061.00187.03016.00853.00457.00179.00336.00156.00761.00183.00793.00244.0156.00457.00511.00152.00244.00091.007.00275.00853.00152.00792.00274.00762.00244.00708.00274h.00084l.007.00241.00762.00186.00792.00335.00762.00274h.00091l.01463.00423.00792.00339.0067.00271c.08745.02837.17368.06128.25748.09662a5.787,5.787,0,0,0,3.537-3.07658,5.23055,5.23055,0,0,1-.86382.34647,5.38721,5.38721,0,0,1-6.56323-7.1644,5.31963,5.31963,0,0,1,.69014-1.224,5.78778,5.78778,0,0,0-4.28743,5.58907,5.85405,5.85405,0,0,0,.04571.7368,5.94572,5.94572,0,0,0,.11493.62342q.21884.11015.42469.23858Zm6.49284,4.24507c-.06307-.02163-.128-.04144-.19281-.05881l-.10359-.0259-.0086-.00152-.00792-.00186L17.36,11.90958l-.00609-.00092-.00853-.00152-.00792-.00277-.00793-.0018-.01614-.00335-.00793-.00183-.00853-.00152L17.289,11.894l-.00609-.00092-.00153-.00094-.00883-.00058-.00762-.00274-.00792-.00092-.00854-.00152-.00335-.00091-.0042-.00092-.0089-.00183-.00762-.00152-.00883-.00183-.00762-.00091h-.00183l-.007-.00092-.00761-.00243-.00793-.00092-.00853-.00182-.00762-.00092L17.15861,11.87l-.00768-.00183-.00884-.00091-.00853-.00153-.00609-.00095h-.00092l-.025-.00423-.00853-.00091-.00427-.00095h-.00365l-.03352-.00423-.00268-.00092c-.026-.00365-.05278-.007-.07959-.00944h0a.21128.21128,0,0,1-.06886-.01646l-.00183-.00091-.0061-.00274-.00091-.00061-.02072-.01039h0a.22178.22178,0,0,1-.09415-.11759,3.38156,3.38156,0,0,0-3.19813-2.28463,3.35257,3.35257,0,0,0-.96224.13924.2184.2184,0,0,1-.24528-.0908,5.01966,5.01966,0,0,0-.4863-.5838l-.00092-.00091-.01371-.01372L11.84245,8.833,11.833,8.82358l-.00427-.00426-.0131-.014-.00853-.00853L11.801,8.7925l-.01371-.01462-.007-.0061-.007-.007-.01463-.01371L11.7544,8.7468,11.745,8.738l-.014-.01371-.00335-.00274-.01036-.011-.01462-.01219-.00183-.00183-.0128-.01188L11.674,8.6715h0l-.02742-.024-.001-.00182q-.18922-.16866-.394-.31781l-.0042-.00369-.01134-.00758-.04753-.03443h-.00092l-.01554-.01036-.01462-.01036-.00091-.00183-.01646-.01036-.0128-.00853L11.124,8.238l-.01554-.01131-.01127-.00758L11.092,8.21631,11.07461,8.205,11.06608,8.199l-.007-.00518-.01645-.01036L11.035,8.17914l-.00884-.00609-.01638-.0104-.01713-.01032-.01639-.011a4.88888,4.88888,0,0,0-.501-.27481l-.01219-.00609-.00176-.00153a4.9115,4.9115,0,0,0-6.96154,3.79778.21954.21954,0,0,1-.18739.20445A3.38,3.38,0,0,0,3.8185,18.5828H16.60064a3.38028,3.38028,0,0,0,1.2514-6.51935l-.00761-.00369H17.8426l-.00518-.0024-.00762-.00369-.00792-.00241-.00853-.00274-.0061-.00244-.00091-.00091L17.7908,12.04l-.00755-.00335-.008-.00274-.0042-.00156-.00342-.0018-.00792-.00182-.00694-.00336-.0086-.00274-.007-.00335h-.00335l-.00427-.00244-.00853-.00277-.00785-.00241-.00769-.00274-.00792-.00244h0l-.00762-.00274-.00792-.00244Z" style="fill:#a1afba;fill-rule:evenodd"/></g></svg>