<svg xmlns="http://www.w3.org/2000/svg" viewBox="0 0 24.82052 14.46805"><title>clouds-icon-uc-santa-barbara</title><g id="ICONS"><path d="M3.81667,14.46287A3.81869,3.81869,0,0,1,3.08843,6.896a5.3516,5.3516,0,0,1,7.46088-4.03517,3.32807,3.32807,0,0,1,2.4833-1.1109h0a3.26816,3.26816,0,0,1,.47929.03474c.10787.01554.21512.03625.32055.06215a4.65841,4.65841,0,0,1,8.31068,2.053,3.33323,3.33323,0,0,1,1.87146,1.09512v.00091a3.33489,3.33489,0,0,1-2.52809,5.50958H20.414c.00244.04936.00244.09842.00244.14687a3.81586,3.81586,0,0,1-3.8185,3.81575L3.81667,14.46287ZM10.95791,3.06528l.04327.02437.01462.00854.00671.00426.00707.00366c.04137.02407.08281.04814.12273.07343l.00609.00335.01463.00853.01195.00793.00176.00091.01371.00853.015.0085.00054.00186.0131.00792.01378.0085L11.249,3.239l.00878.00518.01279.00944.00945.00518.00426.00366.01493.00944.0128.00854h.001l.01365.00975.014.00853.00244.00244.01036.007.014.00945.0067.00426.007.00515.01371.00979.01036.0067.00366.00179.01279.00948.01372.01036h0l.0131.00945.01377.00883.0042.00336.00976.007.02071.01463.0061.00427c.11121.08044.22.16575.3245.25472a5.30576,5.30576,0,0,1,.642.6478l.011.0131.00092.00091.01219.01463.01127.01371.00092.00091.011.01368.01219.01405v.00091l.01219.01463.01127.01371v.00092l.01189.01462.01127.01371h0l.01128.01554.01127.01493h0l.01219.01463.011.01462h0l.01127.01554.01219.01463a3.75215,3.75215,0,0,1,.387-.07679,3.87174,3.87174,0,0,1,.54937-.03961v.00153A3.81631,3.81631,0,0,1,17.14545,6.8728l.03991.00518.00244.00061.03632.0061.0061.00091.01121.00183.07251.0128.02682.00518.01554.00365.02322.00423.01828.00339.01974.00427.02164.00518.01736.00365.02408.0061c.04052.01036.082.0198.12187.03108h.00092l.00426.00061.03626.01036c.03809.01035.07587.02254.113.03473l.00792.00244A3.80757,3.80757,0,0,1,19.30729,7.96q.069.069.13407.1426l.001-.00095a3.82231,3.82231,0,0,1,.904,1.81391v.00092l.00458.01889.0025.01828.00694.03809.00525.03108.00176.00758.00518.03629v.00183h1.114a2.89767,2.89767,0,0,0,2.19658-4.78683h-.00183a2.88934,2.88934,0,0,0-1.76269-.97595.219.219,0,0,1-.18769-.20384,4.22144,4.22144,0,0,0-7.63333-1.87848.21606.21606,0,0,1-.24011.08285v.001a2.88772,2.88772,0,0,0-.82482-.11853V2.18774a2.87124,2.87124,0,0,0-1.24738.28337,2.90316,2.90316,0,0,0-.82732.59417ZM19.963,10.319l-.00091-.01036c-.00853-.08471-.02072-.16854-.03528-.25229V10.052l-.01408-.07161V9.97952l-.00762-.03626-.007-.032-.00091-.00335-.00153-.00457-.007-.03169-.00183-.0061L19.8811,9.836l-.0028-.00853-.007-.02682-.00671-.02681-.00274-.00762-.00335-.014-.00609-.02163-.00518-.01615-.00427-.01828-.00609-.018-.00427-.01649-.007-.02068-.00426-.01493-.00762-.02228-.00457-.01124-.0067-.025-.0036-.00948-.00951-.02678-.00243-.007-.01036-.02925-.00183-.00518-.01128-.03047-.00182-.00335-.0128-.03291V9.42223L19.722,9.3558l-.00183-.00335a3.37469,3.37469,0,0,0-.60453-.95706V8.39447c-.03869-.04235-.07854-.0847-.11816-.12614a3.46352,3.46352,0,0,0-.57625-.46467l-.0301-.018V7.78474c-.09-.056-.18319-.10783-.27825-.15628l-.02255-.01131L18.08,7.61292l-.06362-.03108-.03047-.01371-.0025-.00092-.032-.01493h0l-.03383-.01371-.025-.01127L17.885,7.52486,17.87977,7.523,17.852,7.51084l-.03375-.01279-.01043-.00427L17.78477,7.485l-.01317-.00427-.02072-.00762-.00243-.00183-.02865-.00948-.00243-.00088-.01829-.00609-.01553-.00521L17.66191,7.442l-.0128-.0046L17.625,7.42979l-.01066-.00274-.02651-.00853L17.58,7.41605l-.02925-.0088-.00518-.00153-.00518-.00091L17.51078,7.396l-.03534-.00944h0l-.03535-.00945-.00268-.00091-.03267-.00762-.00517-.00091-.03047-.00793-.00762-.00155-.02767-.007-.01133-.00183-.02408-.00518-.03534-.0067h-.00091l-.01646-.00457-.0198-.00335L17.207,7.3262l-.01638-.00275L17.168,7.31919,17.13082,7.314,17.129,7.31309l-.01188-.00152L17.08938,7.307l-.00847-.00152-.03114-.00366-.00518-.00061-.03474-.00457h-.00243l-.03718-.00518h-.00792l-.00426-.00061H16.9547l-.00365-.00091h0l-.0042-.00092-.00433-.00094h-.00427l-.00335-.0018-.00366-.00061-.00335-.00091-.00427-.00092-.0042-.00186L16.9157,7.2811l-.00335-.00061h0L16.909,7.27866l-.00457-.00091-.00329-.00186h0l-.00342-.00149h-.00091l-.00274-.00274h-.00061l-.00366-.00092-.00335-.00152h0l-.00335-.00183-.00366-.00183h0l-.00335-.00244-.00335-.00182-.00366-.00244L16.86573,7.257h0L16.863,7.2552h0l-.00427-.00244h0L16.85629,7.25l-.00366-.00156-.00244-.0027-.00365-.00244-.00244-.00274-.00335-.00244h0l-.0036-.00274-.0025-.00244h0l-.00359-.00366-.00159-.00244h0l-.00365-.00365-.00244-.00153L16.82064,7.218l-.00244-.00331-.00274-.00244L16.813,7.20858l-.00274-.00243h0l-.00153-.00366L16.806,7.19914l-.00237-.00335-.00281-.00366-.00152-.00335-.00275-.00335-.00182-.00366-.00153-.00339-.00274-.00331L16.789,7.1708l-.00183-.00366-.00176-.00426h0l-.00159-.00335-.00183-.00366L16.781,7.1516l-.00176-.00426L16.77767,7.144a3.38333,3.38333,0,0,0-3.1966-2.28708v.00152a3.43816,3.43816,0,0,0-.48721.03383,3.37436,3.37436,0,0,0-.475.10359l-.00092-.00091a.21975.21975,0,0,1-.2401-.08288l-.01036-.01645-.01036-.01371-.00183-.00183L12.344,4.86453l-.00853-.01219L12.33369,4.849l-.01194-.01554-.00793-.01127-.00335-.00427-.01219-.01554-.00609-.00853-.00518-.007-.01188-.01463-.0061-.00792-.00518-.00761-.01218-.01554L12.2474,4.735l-.00792-.00853-.01189-.01584-.00274-.00427L12.21632,4.696l-.01219-.01554-.00244-.00244-.00944-.01219-.01219-.01553-.01219-.01463L12.156,4.62107h-.00091l-.01219-.01462-.0103-.014L12.1307,4.5906a5.05227,5.05227,0,0,0-.58618-.589,4.93178,4.93178,0,0,0-1.03238-.67369L10.507,3.32549l-.00146-.00091-.001-.00092h-.00183l-.00091-.00183A4.91111,4.91111,0,0,0,3.5013,7.09889a.21934.21934,0,0,1-.18739.20384A3.38,3.38,0,0,0,3.81667,14.025l12.78123.0061a3.381,3.381,0,0,0,3.38156-3.37878A3.23647,3.23647,0,0,0,19.963,10.319Z" style="fill:#a1afba;fill-rule:evenodd"/></g></svg>