<svg xmlns="http://www.w3.org/2000/svg" viewBox="0 0 18.08118 18.08087"><title>compass-icon-UC-Santa-Barbara</title><g id="ICONS"><path d="M12.45155,5.62963,8.66931,8.34511,9.73607,9.41187l2.71548-3.78224ZM2.05489,9.47829l.79557-.43785-.79557-.43786c-.00853.14413-.01371.291-.01371.43786s.00518.29368.01371.43785ZM2.1006,8.12751c.0198-.15383.04509-.30587.07435-.45517a6.94111,6.94111,0,0,1,.39641-1.30869h0V6.363a6.95079,6.95079,0,0,1,.646-1.20844,7.02309,7.02309,0,0,1,.87327-1.064,7.17584,7.17584,0,0,1,1.06432-.87418,7.06709,7.06709,0,0,1,1.209-.646H6.363a6.97591,6.97591,0,0,1,1.3096-.39581c.1493-.03016.30135-.05515.45431-.07409l.72122,1.30934a.21939.21939,0,0,0,.298.08715.21563.21563,0,0,0,.08623-.08715l.72214-1.30934c.15265.01894.3047.04393.45522.07409a6.89957,6.89957,0,0,1,1.29893.39124l.00945.00457a6.98464,6.98464,0,0,1,2.27153,1.52014h.00092a6.96043,6.96043,0,0,1,1.91564,3.58083c.03017.1493.05454.30135.07526.45522l-1.3102.72123a.21987.21987,0,0,0-.08745.298.20717.20717,0,0,0,.08745.08532l1.3102.72214c-.02072.15474-.04509.30683-.07526.45705a6.87448,6.87448,0,0,1-.3955,1.30746,7.06951,7.06951,0,0,1-.646,1.20935,7.16794,7.16794,0,0,1-.86291,1.05122l-.01219.01127a6.95918,6.95918,0,0,1-3.5793,1.91656q-.22533.04526-.45583.074l-.72123-1.3102a.21809.21809,0,0,0-.29708-.08623.22247.22247,0,0,0-.08745.08623L8.127,15.98027c-.15388-.01893-.305-.04387-.45522-.074a6.93031,6.93031,0,0,1-2.51682-1.04268,7.01957,7.01957,0,0,1-1.93759-1.93728,6.98679,6.98679,0,0,1-.646-1.20752A6.89,6.89,0,0,1,2.175,10.40854c-.02926-.14931-.05455-.30048-.07435-.45522L3.41081,9.233a.21881.21881,0,0,0,.08653-.298.21634.21634,0,0,0-.08653-.08618L2.1006,8.12751Zm7.378,7.89877-.43693-.79557-.43877.79557q.21756.01281.43785.0128t.43785-.0128Zm6.54769-7.4237-.79526.43786.79526.43785c.00884-.145.014-.291.014-.43785s-.00518-.29373-.014-.43786Zm-7.42339-6.548.43785.79552.43785-.79552q-.21755-.01279-.43785-.0128t-.43785.0128Zm4.568.79892a7.51747,7.51747,0,0,1,1.12983.9269v.00091h0a7.50363,7.50363,0,0,1,.92659,1.12891,7.426,7.426,0,0,1,.00092,8.26041,7.49539,7.49539,0,0,1-.91563,1.11672l-.01188.01219a7.52319,7.52319,0,0,1-1.12983.92781,7.36757,7.36757,0,0,1-2.67587,1.10972,7.532,7.532,0,0,1-2.90805,0,7.44728,7.44728,0,0,1-3.80539-2.03753H3.78071a7.46433,7.46433,0,0,1-.92781-1.12982,7.35466,7.35466,0,0,1-.68649-1.28431,7.43837,7.43837,0,0,1,0-5.69h0A7.34358,7.34358,0,0,1,2.8529,4.91115a7.46441,7.46441,0,0,1,.92781-1.12983l.00092-.00091A7.55686,7.55686,0,0,1,4.91115,2.8529a7.4489,7.4489,0,0,1,1.28431-.6877h.00091a7.372,7.372,0,0,1,1.39248-.4214,7.46723,7.46723,0,0,1,2.9047,0,7.373,7.373,0,0,1,1.3809.41713l.01219.00427a7.39916,7.39916,0,0,1,1.2843.68831Zm-1.46225-.28763-.10878-.28216a.21926.21926,0,0,0,.10878.28216Zm-9.06055.08135A9.02084,9.02084,0,1,1,.685,5.58392,9.05322,9.05322,0,0,1,2.64814,2.64723ZM5.7509,1.08991A8.64443,8.64443,0,1,1,2.95924,2.958,8.56726,8.56726,0,0,1,5.7509,1.08991ZM8.35821,8.6553,9.425,9.72266,5.63237,12.4485,8.35821,8.6553Zm-.21572-.44913A.24178.24178,0,0,1,8.176,8.1629a.27525.27525,0,0,1,.04236-.03382l5.05953-3.63171a.21879.21879,0,0,1,.30684.30409L9.95088,9.86191a.231.231,0,0,1-.0326.04235.20789.20789,0,0,1-.04327.03352L4.80328,13.58351a.21884.21884,0,0,1-.30652-.3047Z" style="fill:#a1afba;fill-rule:evenodd"/></g></svg>