<svg xmlns="http://www.w3.org/2000/svg" viewBox="0 0 17.45319 17.45228"><title>degrees-fahrenheit-icon-uc-santa-barbara</title><g id="ICONS"><path d="M8.72721.43968a8.2845,8.2845,0,1,0,5.85937,2.42693A8.2586,8.2586,0,0,0,8.72721.43968ZM5.22133,3.22677a1.1338,1.1338,0,0,1,.80319.33273h0l.001.00061V3.561A1.1358,1.1358,0,0,1,4.41875,5.16679H4.41784a1.13638,1.13638,0,0,1,.80349-1.94Zm.493.6417.00091.00091a.69775.69775,0,0,1-.98723.98631h0a.69775.69775,0,0,1,.98632-.98722Zm1.54787,5.292h3.151a.21939.21939,0,0,1,0,.43877h-3.151v3.18106a.21984.21984,0,1,1-.43968,0V7.07817a1.31682,1.31682,0,0,1,.387-.93116h.00091V6.1461l.00183-.00153A1.31592,1.31592,0,0,1,8.14066,5.76H11.915a.21939.21939,0,1,1,0,.43877H8.14066a.87207.87207,0,0,0-.62006.25747l-.00092.00091a.87318.87318,0,0,0-.25747.621V9.16049ZM2.55673,2.55673A8.72288,8.72288,0,1,1,0,8.726,8.70006,8.70006,0,0,1,2.55673,2.55673Z" style="fill:#a1afba;fill-rule:evenodd"/></g></svg>