<svg xmlns="http://www.w3.org/2000/svg" viewBox="0 0 17.45319 17.45228"><title>degrees-celcius-icon-uc-santa-barbara</title><g id="ICONS"><path d="M8.72721.44056a8.283,8.283,0,1,0,5.85937,2.42605A8.25784,8.25784,0,0,0,8.72721.44056Zm2.81031,12.12038a.21984.21984,0,0,1,0,.43968H7.76405a1.3169,1.3169,0,0,1-.93109-.387v-.00092h0l-.00251-.00247a1.3129,1.3129,0,0,1-.38446-.92777V7.07726A1.31219,1.31219,0,0,1,6.833,6.147h0V6.1461l.00328-.00156a1.31066,1.31066,0,0,1,.92781-.38541h3.77347a.21984.21984,0,0,1,0,.43968H7.76405a.87423.87423,0,0,0-.621.25747v.00091a.86961.86961,0,0,0-.25831.62007v4.60523a.87032.87032,0,0,0,.25831.62037v.00152a.87724.87724,0,0,0,.621.25656ZM5.11164,3.31757A1.13481,1.13481,0,0,1,5.91483,3.65v.00091h.001v.00091A1.1358,1.1358,0,0,1,4.30906,5.25759H4.30815a1.13623,1.13623,0,0,1,.80349-1.94Zm.493.64261.00092.00091a.69789.69789,0,0,1-.49392,1.19013.69925.69925,0,0,1-.49331-.20381V4.94649a.69743.69743,0,0,1,.98631-.98631ZM2.55673,2.55673A8.72288,8.72288,0,1,1,0,8.7269,8.70006,8.70006,0,0,1,2.55673,2.55673Z" style="fill:#a1afba;fill-rule:evenodd"/></g></svg>