<svg xmlns="http://www.w3.org/2000/svg" viewBox="0 0 17.95595 20.70921"><title>flag-with-stripes-icon-uc-santa-barbara</title><g id="ICONS"><path d="M1.77853,20.70921H.76876a.76828.76828,0,0,1-.54328-.22548l-.01273-.01465A.76341.76341,0,0,1,0,19.94045V.76937A.76658.76658,0,0,1,.22548.22609L.22639.22517A.76642.76642,0,0,1,.76876,0H1.77853A.76686.76686,0,0,1,2.3209.22517l.00091.00092V.22517a.76881.76881,0,0,1,.22548.5442V1.178A6.4384,6.4384,0,0,1,7.66289.582c.0131.00365.025.007.03717.01127A6.4185,6.4185,0,0,1,9.748,1.67216V1.6728a6.08685,6.08685,0,0,0,.59873.41287.31515.31515,0,0,1,.02925.01828,5.9636,5.9636,0,0,0,3.35993.837,6.02329,6.02329,0,0,0,1.685-.32908.13445.13445,0,0,1,.032-.01127,5.9562,5.9562,0,0,0,2.12132-1.30868.21737.21737,0,0,1,.16149-.07161.22.22,0,0,1,.2203.22027v9.29276h0a.21667.21667,0,0,1-.07435.16393,6.3889,6.3889,0,0,1-2.288,1.30868.17485.17485,0,0,1-.03443.01127,6.48548,6.48548,0,0,1-1.75263.298,6.55279,6.55279,0,0,1-.93634-.03991.21716.21716,0,0,1-.03444-.00427,6.37853,6.37853,0,0,1-2.69659-.975l-.02254-.014c-.15875-.10359-.31324-.2142-.46467-.33334a5.96228,5.96228,0,0,0-2.08049-1.05548l-.02766-.00761a5.99837,5.99837,0,0,0-1.45951-.21177,5.92413,5.92413,0,0,0-1.04884.07191L5.0053,9.95a5.97938,5.97938,0,0,0-2.458.98967v9.00082a.76984.76984,0,0,1-.76876.76876ZM4.76611,9.54746V.82814a5.97863,5.97863,0,0,0-2.21882.86294v8.72355a6.45429,6.45429,0,0,1,2.21882-.86717ZM5.20488.76937V9.48012a6.46793,6.46793,0,0,1,2.192.11639V.96133A5.95452,5.95452,0,0,0,6.01325.7453a6.01744,6.01744,0,0,0-.80837.02407Zm2.63169.33334V9.71413a6.3953,6.3953,0,0,1,2.086,1.08988c.03535.02776.06978.05365.10543.08047V2.40438c-.1877-.11822-.37143-.24775-.55029-.387v0a5.94513,5.94513,0,0,0-1.64111-.91471Zm2.63077,1.554v8.5282a5.93367,5.93367,0,0,0,2.19239.81906V3.33887a6.37518,6.37518,0,0,1-2.19239-.68219Zm2.63116.72122v8.68028a5.9033,5.9033,0,0,0,.69586.0192,6.0186,6.0186,0,0,0,1.49516-.23584V3.11433a6.40752,6.40752,0,0,1-1.53287.26357,6.41,6.41,0,0,1-.65815,0ZM15.7292,2.965v8.72964a5.95864,5.95864,0,0,0,1.78706-1.05974V1.92844A6.37053,6.37053,0,0,1,15.7292,2.965ZM.76876,20.26953H1.77853a.32906.32906,0,0,0,.23218-.09659.32367.32367,0,0,0,.0969-.23249V.76937a.32557.32557,0,0,0-.0969-.2331L2.01163.53536a.32963.32963,0,0,0-.2331-.096H.76876a.32882.32882,0,0,0-.233.096.33306.33306,0,0,0-.09605.234V19.94045a.3348.3348,0,0,0,.08715.22457l.00975.00792A.32744.32744,0,0,0,.76876,20.26953Z" style="fill:#a1afba;fill-rule:evenodd"/></g></svg>