<svg xmlns="http://www.w3.org/2000/svg" viewBox="0 0 18.87499 16.55399"><title>hazard-warning-icon-uc-santa-barbara</title><g id="ICONS"><path d="M9.12789.61854l-4.044,7.00382L.489,15.579l-.00518.00857A.349.349,0,0,0,.489,15.9364v-.00061a.35286.35286,0,0,0,.13041.13373v0a.36271.36271,0,0,0,.17947.04482H18.076a.36726.36726,0,0,0,.17947-.04387v-.00095a.349.349,0,0,0,.1298-.13312h.00061l-.00061-.00061a.34351.34351,0,0,0,0-.35684l-.0061-.01307L9.74886.61854H9.748A.36354.36354,0,0,0,9.2583.48539L9.24885.49057a.37085.37085,0,0,0-.121.128ZM10.38873,12.3772v1.58322a.22042.22042,0,0,1-.21938.2203H8.71228a.22047.22047,0,0,1-.21939-.2203V12.3772a.21988.21988,0,0,1,.21939-.2203h1.45707a.21983.21983,0,0,1,.21938.2203ZM9.94936,13.741H8.93264V12.59659H9.94936V13.741Zm.50945-8.392-.10542,5.74816a.21856.21856,0,0,1-.21847.21512v.00088H8.72446a.21922.21922,0,0,1-.21938-.21938v-.01551l-.08989-5.75a.21873.21873,0,0,1,.21512-.22185h.00335V5.10555h1.6076a.2202.2202,0,0,1,.21938.21938l-.00183.02407Zm-.53894,5.52451H8.93958l-.08379-5.3292h1.16158l-.0975,5.3292Zm-5.215-3.47144L8.74853.39916A.78086.78086,0,0,1,9.0249.11487l.014-.00856a.79487.79487,0,0,1,1.089.29285h-.00084l.00084.00091,8.6294,14.94826.007.01124a.77131.77131,0,0,1,0,.79621h0a.79706.79706,0,0,1-.28946.29282h-.00091a.78724.78724,0,0,1-.39794.10539H.79892a.78813.78813,0,0,1-.39885-.10539h0a.79733.79733,0,0,1-.29038-.29282H.11061l-.00092-.00061a.7749.7749,0,0,1-.00762-.78186l.00762-.01374Z" style="fill:#a1afba;fill-rule:evenodd"/></g></svg>