<svg xmlns="http://www.w3.org/2000/svg" viewBox="0 0 18.07508 14.0692"><title>haze-icon-uc-santa-barbara</title><g id="ICONS"><path d="M14.89554,0a.21983.21983,0,1,1,0,.43965H3.17924a.21983.21983,0,1,1,0-.43965Zm1.48054,10.223a.21938.21938,0,1,1,0,.43876H1.699a.21938.21938,0,0,1,0-.43876Zm1.48023-3.40837a.21984.21984,0,0,1,0,.43968H.21938a.21984.21984,0,0,1,0-.43968ZM16.37608,3.40742a.21939.21939,0,0,1,0,.43877H1.699a.21939.21939,0,0,1,0-.43877Zm-1.48054,10.2221a.21984.21984,0,1,1,0,.43968H3.17924a.21984.21984,0,1,1,0-.43968Z" style="fill:#a1afba;fill-rule:evenodd"/></g></svg>