<svg xmlns="http://www.w3.org/2000/svg" viewBox="0 0 20.41731 18.69684"><title>heavy-rain-cloud-icon-uc-santa-barbara</title><g id="ICONS"><path d="M3.81667,12.06519a3.81919,3.81919,0,0,1-.72793-7.56782,5.345,5.345,0,0,1,9.55538-2.36082,3.71005,3.71005,0,0,1,.38758-.07769,3.86985,3.86985,0,0,1,.54846-.0387v.00091a3.80008,3.80008,0,0,1,2.21729.71,3.8398,3.8398,0,0,1,1.34837,1.74289A3.80964,3.80964,0,0,1,19.44136,5.704l.00091-.00092a3.81825,3.81825,0,0,1-2.84406,6.36731l-.34492-.001-3.08685,5.34721a.21924.21924,0,0,1-.37911-.2203l2.95992-5.12691-3.33988-.00088L9.31954,17.41663a.21921.21921,0,1,1-.379-.2203l2.96076-5.12779-3.38338-.00183L5.42944,17.41663a.21971.21971,0,0,1-.3802-.2203L8.01177,12.0661,4.671,12.06519,1.58139,17.41663a.21921.21921,0,1,1-.37905-.2203l2.9626-5.13114Zm9.52186.84554-3.15181,5.45683a.21961.21961,0,0,0,.38.22033l3.1509-5.45777a.219.219,0,1,0-.379-.21939Zm-3.89041,0L6.29753,18.36756a.21922.21922,0,1,0,.37905.22033l3.1509-5.45777a.21912.21912,0,1,0-.37936-.21939Zm6.64367-1.27821a.22.22,0,0,1,.07344,0h.433a3.37962,3.37962,0,0,0,2.51773-5.636V5.99588h0a3.37228,3.37228,0,0,0-2.14478-1.10213.22029.22029,0,0,1-.19349-.14866A3.38254,3.38254,0,0,0,13.58016,2.458v.00183a3.57944,3.57944,0,0,0-.48685.03352,3.31388,3.31388,0,0,0-.47448.10451V2.597a.2198.2198,0,0,1-.241-.0838A4.90924,4.90924,0,0,0,3.50161,4.7003a.21935.21935,0,0,1-.18739.20384,3.38062,3.38062,0,0,0,.50245,6.7232l8.44048.00331a.21641.21641,0,0,1,.04814,0l3.7865.00187ZM5.60038,12.91073l-3.1509,5.45683a.21935.21935,0,1,0,.37935.22033l3.15059-5.45777a.219.219,0,1,0-.379-.21939Z" style="fill:#a1afba;fill-rule:evenodd"/></g></svg>