<svg xmlns="http://www.w3.org/2000/svg" viewBox="0 0 8.87285 17.02673"><title>lightning-bolt-icon-uc-santa-barbara</title><g id="ICONS"><path d="M.22274,0,7.74333.00335A.21834.21834,0,0,1,7.9618.22213a.22355.22355,0,0,1-.02773.107h0L5.1824,5.26186l3.472.00152a.21831.21831,0,0,1,.21847.21877.21057.21057,0,0,1-.02742.106h.00091l-6.31825,11.326a.21831.21831,0,0,1-.40921-.114l.00335-7.708L.21938,9.09163A.21853.21853,0,0,1,0,8.87285L.00335.21847A.219.219,0,0,1,.22274,0Zm7.1474.44151L.44151.43785.43785,8.65347,2.3407,8.6553a.21807.21807,0,0,1,.21847.21847L2.55673,15.965,8.28234,5.70062,4.81791,5.6988A.21056.21056,0,0,1,4.703,5.67107.218.218,0,0,1,4.61833,5.374Z" style="fill:#a1afba;fill-rule:evenodd"/></g></svg>