<svg xmlns="http://www.w3.org/2000/svg" viewBox="0 0 19.69883 17.75789"><title>line-graph-chart-icon-uc-santa-barbara</title><g id="ICONS"><path d="M15.15393,17.53942a.21939.21939,0,0,1-.43877,0v-3.029H4.98367v3.029a.21939.21939,0,0,1-.43877,0v-3.029H.21938a.21938.21938,0,0,1,0-.43876h.5701V2.06525H.21938A.21983.21983,0,0,1,0,1.845V.21938A.21964.21964,0,0,1,.21938,0H19.47944a.21906.21906,0,0,1,.21939.21938V1.845a.21925.21925,0,0,1-.21939.22029h-.56911V14.07164h.56911a.21938.21938,0,1,1,0,.43876H15.15393v3.029ZM14.7956,4.24782,10.53834,8.50508,8.4024,6.36914a.21885.21885,0,0,0-.3111,0L4.20211,10.25741a.21987.21987,0,1,0,.3108.3111L8.247,6.83472l2.13594,2.13594a.219.219,0,0,0,.3108,0L15.1064,4.558a.22108.22108,0,0,0,0-.31018.21849.21849,0,0,0-.3108,0ZM1.00886,1.62649h18.2512V.43877H.43968V1.62649Zm.21938,12.44515h3.53l.00609-.00092.00518.00092H14.92937l.00518-.00092.00609.00092h3.52994V2.06525H1.22824Z" style="fill:#a1afba;fill-rule:evenodd"/></g></svg>