<svg xmlns="http://www.w3.org/2000/svg" viewBox="0 0 17.25179 17.2527"><title>magnifying-glass-icon-uc-santa-barbara</title><g id="ICONS"><path d="M10.66784,3.69083a4.9336,4.9336,0,1,0-6.97732,6.977h.00092a4.93328,4.93328,0,1,0,6.9764-6.977Zm2.58659,7.31461,3.61313,3.61222.01195.01371a1.316,1.316,0,0,1,.37136.91806h.00092a1.31677,1.31677,0,0,1-.38423.93208l-.38605.38605-.014.01219a1.3192,1.3192,0,0,1-1.85075-.01219l-3.61221-3.61191a7.18342,7.18342,0,1,1,2.2499-2.25021Zm-.78338.34828-1.55031,1.43269-.00244.00092-.01219.00848-.00176.001-.001.00092a6.74033,6.74033,0,1,1,1.8934-1.8931l-.00518.00853c-.1017.152-.20811.29891-.32054.4406Zm4.08547,3.57382.0103.01031a.87805.87805,0,0,1,.2462.61158h0a.87505.87505,0,0,1-.2565.621l-.38611.38636-.01036.01036a.88195.88195,0,0,1-1.23251-.01036L11.376,13.00488a7.34323,7.34323,0,0,0,.88028-.74864,7.23526,7.23526,0,0,0,.74773-.88033l3.55255,3.55163ZM11.0088,12.727l1.46225-1.37328-.01274.0161-.01316.0165-.02681.03291-.0128.01645-.0131.01554-.01189.01554-.00182.00091-.01219.01646-.01371.01554-.01372.0164-.01036.01193-.00274.00366-.01371.01554-.014.01615-.01279.01554-.00945.01127-.00426.00513c-.10452.1201-.2136.23767-.32664.34985a6.7197,6.7197,0,0,1-.93025.77754l-.00609.00432ZM9.233,2.21456a5.40717,5.40717,0,0,1,1.74379,1.166l.00092.001A5.37173,5.37173,0,1,1,3.38064,10.978h.00092A5.37274,5.37274,0,0,1,9.233,2.21456Z" style="fill:#a1afba;fill-rule:evenodd"/></g></svg>