<svg xmlns="http://www.w3.org/2000/svg" viewBox="0 0 18.13248 17.97485"><title>moon-icon-uc-santa-barbara</title><g id="ICONS"><path d="M17.59274,11.85953A9.0389,9.0389,0,1,1,7.65923.00245.21949.21949,0,0,1,7.84144.38a7.3717,7.3717,0,0,0,9.42223,11.22666.21849.21849,0,0,1,.32847.2529Zm-1.19686-4.827a.21907.21907,0,0,0-.419,0l-.37228,1.20993-1.20911.37146-.00091.00091a.2186.2186,0,0,0,0,.41805l1.21.372.37137,1.20935.00091.00092a.21653.21653,0,0,0,.145.145.21963.21963,0,0,0,.27392-.145l.37143-1.21027,1.20905-.37143.00189-.00061a.21855.21855,0,0,0,0-.41805l-1.21094-.37237-.37143-1.20932V7.03248Zm-.0131,1.45007-.19683-.64018-.19623.63835v.00183a.22.22,0,0,1-.145.145l-.63987.19623.638.19592.00183.00091a.21794.21794,0,0,1,.145.14413l.19623.64017.19592-.63834.00091-.00183a.21681.21681,0,0,1,.1451-.14413l.64011-.19683-.63926-.19623h-.00085a.21808.21808,0,0,1-.1451-.145ZM13.004.81874a.21912.21912,0,0,0-.4189,0l-.73835,2.40469-2.40286.73768-.00092.00061a.21851.21851,0,0,0,0,.418l2.40378.73947.73835,2.40289v.00092a.21913.21913,0,0,0,.4189,0l.73859-2.40381,2.40286-.73856.00061-.00091a.2148.2148,0,0,0,.14534-.14416.21936.21936,0,0,0-.14534-.27389l-2.40347-.73829L13.00488.82057,13.004.81874ZM13.358,3.46262l-.56309-1.83368-.56308,1.83185v.00183a.2192.2192,0,0,1-.145.145l-1.83368.56308,1.83185.56339h.00183a.22178.22178,0,0,1,.145.145l.56308,1.83365.56218-1.83213.00091-.00152a.21963.21963,0,0,1,.14443-.145l1.83368-.56339L13.504,3.60857l-.00152-.00091a.22034.22034,0,0,1-.14443-.145Zm.67552,12.47471a8.63372,8.63372,0,0,0,2.91658-3.62684,7.80917,7.80917,0,0,1-9.847-11.755,8.60066,8.60066,0,1,0,6.93039,15.38185Z" style="fill:#a1afba;fill-rule:evenodd"/></g></svg>