<svg xmlns="http://www.w3.org/2000/svg" viewBox="0 0 22.06116 16.80628"><title>partly-sunny-icon-uc-santa-barbara</title><g id="ICONS"><path d="M18.07423,10.72908l-.00676-.00609c-.07618-.06643-.15388-.13041-.23493-.18983a3.28791,3.28791,0,0,0-.31871-.20659,3.39823,3.39823,0,0,0-.33944-.16758,3.17405,3.17405,0,0,0-.89764-.23218.21815.21815,0,0,1-.1941-.1487c-.02163-.06551-.04509-.12618-.06916-.18464-.0234-.05546-.05028-.11579-.08227-.1816A3.25049,3.25049,0,0,0,14.7368,8.08273a3.20719,3.20719,0,0,0-1.71-.49056v.00094c-.05881,0-.10542.00153-.14077.00244-.03717.00183-.08379.00518-.13833.00945a3.10917,3.10917,0,0,0-.3239.04418,3.06551,3.06551,0,0,0-.30836.07343.21934.21934,0,0,1-.24954-.08135,4.68017,4.68017,0,0,0-.5381-.63378,4.72956,4.72956,0,0,0-.64255-.53052c-.11159-.07583-.22463-.14744-.34041-.21234-.11055-.064-.22457-.12188-.34035-.17611a.19683.19683,0,0,1-.032-.01493A4.699,4.699,0,0,0,3.37394,9.73241a.2191.2191,0,0,1-.1877.20476,3.2308,3.2308,0,0,0,.48112,6.4252l12.252.00514a3.23065,3.23065,0,0,0,2.1549-5.63843Zm.11329-.47689c-.032-.025-.064-.04811-.096-.07248a3.66094,3.66094,0,0,0-.36107-.234,3.79658,3.79658,0,0,0-.387-.18983,3.60056,3.60056,0,0,0-.89307-.24894l-.032-.07952c-.03108-.07588-.06216-.145-.09232-.20815a3.6895,3.6895,0,0,0-1.35774-1.507A3.6489,3.6489,0,0,0,13.02682,7.155V7.15435c-.04144,0-.09506.00061-.15814.00335-.06216.00244-.114.00609-.15716.00944a3.702,3.702,0,0,0-.36869.05089c-.07008.0131-.14016.02864-.21.046a5.16992,5.16992,0,0,0-1.20051-1.14872c-.11853-.08135-.24285-.159-.37082-.23157-.06734-.03809-.13468-.07526-.20354-.11064a4.55046,4.55046,0,1,1,7.82956,4.47908Zm1.071-1.05087a5.0261,5.0261,0,0,1-.74286,1.34311,3.66913,3.66913,0,0,1-2.59635,6.26185l-12.252-.00609a3.66932,3.66932,0,0,1-.70623-7.2698A5.13369,5.13369,0,0,1,9.957,5.59093a4.9899,4.9899,0,0,1,9.3015,3.61039ZM9.81992,4.494,8.3835,3.66493a.21937.21937,0,1,0-.21938.38l1.43544.82817a.21714.21714,0,0,0,.29861-.07922A.21949.21949,0,0,0,9.81992,4.494Zm2.13314-1.97536-.82817-1.43544a.21934.21934,0,1,0-.37935.22029L11.575,2.73894a.21878.21878,0,1,0,.37807-.22029Zm7.371,7.9685,1.43544.82939a.21916.21916,0,0,0,.21853-.38L19.5416,10.1081a.21852.21852,0,0,0-.21755.379Zm.86016-2.77673a.21984.21984,0,0,1,0-.43968h1.65757a.21984.21984,0,0,1,0,.43968Zm-.64078-2.83736,1.43544-.82817a.21959.21959,0,0,0-.22023-.38L19.32313,4.494a.21921.21921,0,1,0,.2203.379ZM17.56806,2.73894l.82915-1.43544a.21963.21963,0,0,0-.38-.22029L17.189,2.51865a.2192.2192,0,1,0,.379.22029Zm-2.77672-.862a.21984.21984,0,1,1-.43968,0V.2203a.21984.21984,0,1,1,.43968,0Z" style="fill:#a1afba;fill-rule:evenodd"/></g></svg>