<svg xmlns="http://www.w3.org/2000/svg" viewBox="0 0 20.41822 18.85572"><title>rain-and-snow-icon-uc-santa-barbara</title><g id="ICONS"><path d="M3.8185,12.06976a3.81972,3.81972,0,0,1-.73159-7.56813,5.34568,5.34568,0,0,1,9.55447-2.36569,3.926,3.926,0,0,1,.38788-.07681,3.87544,3.87544,0,0,1,.54937-.03961,3.82438,3.82438,0,0,1,3.56621,2.452,3.81873,3.81873,0,0,1-.54511,7.59829H9.843L6.75617,17.41693a.2194.2194,0,1,1-.38-.21938L9.337,12.06976H5.95353L2.86515,17.41693a.21829.21829,0,0,1-.299.08044.22116.22116,0,0,1-.08044-.29982l2.96107-5.12779Zm12.16909,4.8627-2.28647-1.32057,2.28135-1.31721a.21874.21874,0,0,0-.21792-.37935l-2.28891,1.32148v-2.643a.21938.21938,0,1,0-.43876,0v2.6344l-2.281-1.31718a.21874.21874,0,0,0-.21841.379l2.28792,1.32178-2.294,1.32392a.21913.21913,0,0,0,.2184.38l2.28708-1.32057v2.64114a.21938.21938,0,0,0,.43876,0V15.98759l2.29409,1.32392a.2186.2186,0,1,0,.21786-.379ZM1.42965,10.64011a3.37034,3.37034,0,0,0,2.38885.99H16.59973a3.37958,3.37958,0,0,0,.37-6.73874.21884.21884,0,0,1-.19294-.14869,3.37817,3.37817,0,0,0-3.19813-2.28342,3.38283,3.38283,0,0,0-.96224.138V2.59635a.216.216,0,0,1-.2401-.08288A4.91084,4.91084,0,0,0,3.49978,4.70392a.22029.22029,0,0,1-.18739.20479,3.37892,3.37892,0,0,0-1.88274,5.7314Z" style="fill:#a1afba;fill-rule:evenodd"/></g></svg>