<svg xmlns="http://www.w3.org/2000/svg" viewBox="0 0 20.41731 17.5266"><title>rain-cloud-icon-uc-santa-barbara</title><g id="ICONS"><path d="M3.81667,12.06519a3.81819,3.81819,0,0,1-.72793-7.566,5.34634,5.34634,0,0,1,9.55538-2.3623,3.813,3.813,0,0,1,.937-.11579V2.022a3.821,3.821,0,0,1,3.56461,2.45283,3.81483,3.81483,0,0,1,2.29561,1.23011h.00091a3.8176,3.8176,0,0,1-2.84406,6.36639l-2.4178-.00182L11.0935,17.41693a.21937.21937,0,0,1-.38-.21938l2.96077-5.12809L10.3345,12.0679l-3.08874,5.349a.219.219,0,1,1-.379-.21938L9.82839,12.0679l-3.38332-.0018L3.35566,17.41693a.21911.21911,0,1,1-.37935-.21938L5.9389,12.0661l-2.12223-.00091ZM14.025,11.63252a.18563.18563,0,0,1,.06124,0l2.512.00091a3.37994,3.37994,0,0,0,2.51834-5.63572h0V5.99679a3.37067,3.37067,0,0,0-2.14539-1.1021.22207.22207,0,0,1-.19349-.14872,3.3795,3.3795,0,0,0-3.19653-2.28613h0a3.41861,3.41861,0,0,0-.96231.13894V2.59817a.22124.22124,0,0,1-.241-.08379A4.91034,4.91034,0,0,0,3.50069,4.70026a.218.218,0,0,1-.18647.20479,3.38006,3.38006,0,0,0,.50245,6.72229l6.378.00335s.01706-.00061.0259,0Z" style="fill:#a1afba;fill-rule:evenodd"/></g></svg>