<svg xmlns="http://www.w3.org/2000/svg" viewBox="0 0 20.41822 20.17197"><title>rain-and-lightning-icon-uc-santa-barbara</title><g id="ICONS"><path d="M3.8185,12.06854a3.819,3.819,0,0,1-.73159-7.56691,5.3463,5.3463,0,0,1,9.55538-2.36569,3.60992,3.60992,0,0,1,.387-.07769,3.87027,3.87027,0,0,1,.54937-.03962,3.82494,3.82494,0,0,1,3.56621,2.45284,3.81805,3.81805,0,0,1-.5442,7.59707h-1.458L14.53722,13.156h1.85866a.22092.22092,0,0,1,.18313.34218L12.922,20.0599a.219.219,0,0,1-.41012-.10726h0V15.56676H11.49967a.21981.21981,0,0,1-.2203-.21938V12.06854H9.84393L6.7561,17.41693a.219.219,0,0,1-.379-.21938l2.96076-5.129h-3.384L2.866,17.41693a.21911.21911,0,0,1-.37935-.21938l2.96077-5.129Zm10.82231,0H11.71814v3.05858h1.01312a.21922.21922,0,0,1,.21939.22026v3.76155l3.07228-5.51323H14.16426v-.00092a.219.219,0,0,1-.19257-.32545l.66912-1.20079ZM1.42965,10.6392a3.36867,3.36867,0,0,0,2.38885.99057H16.60064a3.3794,3.3794,0,0,0,.36967-6.73843.22.22,0,0,1-.19325-.14869A3.38235,3.38235,0,0,0,13.57863,2.458a3.44523,3.44523,0,0,0-.48715.03474,3.28516,3.28516,0,0,0-.47509.10451V2.59635a.21783.21783,0,0,1-.2401-.0838A4.92752,4.92752,0,0,0,10.62037.9854,4.91115,4.91115,0,0,0,3.49978,4.70365a.21873.21873,0,0,1-.18739.20472A3.3793,3.3793,0,0,0,1.42965,10.6392Z" style="fill:#a1afba;fill-rule:evenodd"/></g></svg>