<svg xmlns="http://www.w3.org/2000/svg" viewBox="0 0 19.30847 18.23993"><title>snowflake-icon-uc-santa-barbara</title><g id="ICONS"><path d="M9.43486,8.74092V4.09486L5.83575.49575A.21977.21977,0,1,1,6.14654.185L9.43486,3.473V.21847a.21939.21939,0,0,1,.43877,0V3.473L13.16255.185a.21955.21955,0,0,1,.31019.3108L9.87363,4.09486V8.74092l4.02325-2.32334,1.31691-4.91724a.21959.21959,0,0,1,.42414.114l-1.2038,4.4931,2.819-1.628a.21892.21892,0,1,1,.21755.38L14.65253,6.48644l4.494,1.20418a.21963.21963,0,0,1-.11426.42414L14.11443,6.79663,10.09118,9.12l4.02325,2.32273,4.91786-1.31722a.21919.21919,0,0,1,.11426.42323l-4.494,1.20387L17.4707,13.38a.21852.21852,0,1,1-.21755.379l-2.819-1.62709,1.2038,4.49371a.21951.21951,0,0,1-.42414.11335l-1.31691-4.91725L9.87363,9.49931v4.64576l3.59911,3.59908a.21934.21934,0,0,1-.31019.31021L9.87363,14.76605v3.25449a.21939.21939,0,1,1-.43877,0V14.76605L6.14654,18.05436a.21956.21956,0,1,1-.31079-.31021l3.59911-3.59908V9.49931L5.41252,11.82173,4.09439,16.739a.21951.21951,0,0,1-.42414-.11335l1.20417-4.49371-2.82,1.62709a.21837.21837,0,1,1-.21695-.379L4.656,11.75257.16285,10.5487a.219.219,0,1,1,.113-.42323l4.91816,1.31722L9.21639,9.12,5.19405,6.79663.27589,8.11476a.21947.21947,0,0,1-.113-.42414L4.656,6.48644,1.83748,4.85935a.21877.21877,0,0,1,.21695-.38l2.82,1.628L3.67025,1.6143a.21959.21959,0,0,1,.42414-.114L5.41252,6.41758Z" style="fill:#a1afba;fill-rule:evenodd"/></g></svg>