<svg xmlns="http://www.w3.org/2000/svg" viewBox="0 0 20.41822 18.85572"><title>snow-cloud-icon-uc-santa-barbara</title><g id="ICONS"><path d="M3.8185,12.06976a3.81972,3.81972,0,0,1-.73159-7.56813,5.3463,5.3463,0,0,1,9.55538-2.36569,3.82214,3.82214,0,0,1,4.50255,2.33641,3.81827,3.81827,0,0,1-.54511,7.59741Zm8.10074,6.05008a.219.219,0,1,1-.379.21939L10.216,16.04518l-1.32484,2.295a.21921.21921,0,0,1-.379-.22033l1.32057-2.287H7.19152a.21893.21893,0,0,1,0-.43785H9.84027L8.51879,13.107a.21951.21951,0,0,1,.38027-.21939l1.31691,2.281,1.31721-2.281a.21911.21911,0,1,1,.37935.21939L10.591,15.395h2.643a.21893.21893,0,0,1,0,.43785H10.59958l1.31966,2.287Zm6.74056-1.18738-2.287-1.32057,2.28092-1.31721a.21866.21866,0,1,0-.21756-.37935l-2.28884,1.32148v-2.643a.21938.21938,0,0,0-.43876,0v2.6344L13.4275,13.91106a.21875.21875,0,0,0-.21847.379l2.2886,1.32178-2.29371,1.32392a.2189.2189,0,0,0,.21749.38l2.28714-1.32057v2.64114a.21938.21938,0,0,0,.43876,0V15.98759l2.294,1.32392a.21875.21875,0,1,0,.21847-.379Zm-11.42958,0L4.94314,15.61189l2.281-1.31721a.21865.21865,0,1,0-.21755-.37935l-2.288,1.32148v-2.643a.21984.21984,0,0,0-.43968,0v2.6344l-2.281-1.31718a.21852.21852,0,1,0-.21756.379L4.068,15.61189,1.77427,16.93581a.21915.21915,0,0,0,.21847.38L4.2789,15.9952v2.64114a.21984.21984,0,0,0,.43968,0V15.98759l2.29408,1.32392a.21852.21852,0,0,0,.21756-.379ZM1.42874,10.64011a3.3757,3.3757,0,0,0,2.38976.99H16.59973a3.37957,3.37957,0,0,0,.3699-6.73874.21923.21923,0,0,1-.19287-.14781,3.37725,3.37725,0,0,0-3.19806-2.2843,3.448,3.448,0,0,0-.48728.03443,3.40832,3.40832,0,0,0-.475.1036V2.59635a.216.216,0,0,1-.2401-.08288A4.91084,4.91084,0,0,0,3.49978,4.70392a.21936.21936,0,0,1-.18739.20479,3.38046,3.38046,0,0,0-1.88365,5.7314Z" style="fill:#a1afba;fill-rule:evenodd"/></g></svg>