<svg xmlns="http://www.w3.org/2000/svg" viewBox="0 0 20.41724 20.17226"><title>storm-cloud-icon-uc-santa-barbara</title><g id="ICONS"><path d="M3.81751,12.06885a3.81849,3.81849,0,0,1-.73067-7.56634,5.34562,5.34562,0,0,1,9.55447-2.36657,3.93759,3.93759,0,0,1,.38788-.07678,3.85749,3.85749,0,0,1,.54846-.03961,3.82438,3.82438,0,0,1,3.56712,2.45192,3.81825,3.81825,0,0,1-.54511,7.59738h-5.196l-.60544,1.08747h1.85958a.22035.22035,0,0,1,.21939.22.2281.2281,0,0,1-.03626.12188l-3.657,6.56171a.21908.21908,0,0,1-.41043-.10634H8.77284V15.5668H7.76033a.21949.21949,0,0,1-.21939-.2203V12.06885Zm7.08518,0h-2.923V15.128H8.99223a.219.219,0,0,1,.22.21847v3.76243l3.07229-5.51323H10.42492v-.00061a.21424.21424,0,0,1-.106-.02777.21863.21863,0,0,1-.08562-.298l.66942-1.20051Zm-9.474-1.42969a3.36514,3.36514,0,0,0,2.38884.99092H16.59966a3.3795,3.3795,0,0,0,.3696-6.73874.22028.22028,0,0,1-.19348-.14869,3.37831,3.37831,0,0,0-3.19813-2.28342,3.42453,3.42453,0,0,0-.4863.03443,3.36517,3.36517,0,0,0-.475.1036h0a.22017.22017,0,0,1-.241-.08379A4.90993,4.90993,0,0,0,3.49971,4.704a.22082.22082,0,0,1-.18739.20476,3.379,3.379,0,0,0-1.88365,5.73045Z" style="fill:#a1afba;fill-rule:evenodd"/></g></svg>