<svg xmlns="http://www.w3.org/2000/svg" viewBox="0 0 18.79174 14.78951"><title>tornado-icon-uc-santa-barbara</title><g id="ICONS"><path d="M.21938.43877A.21939.21939,0,0,1,.21938,0H18.57144a.21939.21939,0,1,1,0,.43877ZM4.9014,10.006a.21984.21984,0,0,1,0-.43968h5.9977a.21984.21984,0,0,1,0,.43968Zm1.64446,1.59449a.21984.21984,0,0,1,0-.43968h4.72132a.21984.21984,0,1,1,0,.43968ZM8.19124,13.195a.21985.21985,0,1,1,0-.43969h3.44463a.21985.21985,0,0,1,0,.43969ZM5.19336,8.41184a.21984.21984,0,0,1,0-.43968h7.29079a.21984.21984,0,0,1,0,.43968ZM5.487,6.81735a.21984.21984,0,1,1,0-.43968h8.581a.21984.21984,0,0,1,0,.43968Zm.2919-1.59449a.21985.21985,0,0,1,0-.43969h9.87318a.21985.21985,0,0,1,0,.43969ZM3.92636,3.62836a.22016.22016,0,1,1,0-.44032H16.62569a.22016.22016,0,0,1,0,.44032ZM2.07287,2.03417a.21986.21986,0,1,1,0-.43971h15.525a.21986.21986,0,1,1,0,.43971ZM9.836,14.78951a.21939.21939,0,1,1,0-.43877h2.16763a.21939.21939,0,1,1,0,.43877Z" style="fill:#a1afba;fill-rule:evenodd"/></g></svg>