<svg xmlns="http://www.w3.org/2000/svg" viewBox="0 0 17.83559 17.83556"><title>upward-trend-icon-uc-santa-barbara</title><g id="ICONS"><path d="M4.78409,11.5557,8.06784,7.30426a.2169.2169,0,0,1,.18129-.08532l3.85476-.00335,1.1609-2.054-.37319.18313a.21813.21813,0,0,1-.292-.10025L11.794,3.60094a.21794.21794,0,0,1,.09232-.28855h0L17.12046.4991A.21967.21967,0,0,1,17.41754.589a.21084.21084,0,0,1,.0259.1036h.00092V6.6409a.21905.21905,0,0,1-.21939.21938h-.01036l-1.81205.064a.217.217,0,0,1-.22547-.21052l-.01219-.31357L13.47138,9.37561a.21969.21969,0,0,1-.19958.1106l-4.02745.00667L6.57877,12.94181a.76855.76855,0,0,1-1.07711.13833l-.57954-.4476h0a.77053.77053,0,0,1-.138-1.07684Zm12.83212,3.27068H3.00891V.21938a.21969.21969,0,0,0-.43938,0v14.607H.22a.21984.21984,0,1,0,0,.43968H2.56953v2.35012a.21969.21969,0,0,0,.43938,0V15.26606h14.6073a.21984.21984,0,0,0,0-.43968ZM8.34938,7.6568,5.133,11.819l-.00274.00427a.332.332,0,0,0,.0588.46131l.00183.00183.57863.4473a.33216.33216,0,0,0,.24437.06551.32576.32576,0,0,0,.21847-.12432L8.96274,9.14068h.00091a.21645.21645,0,0,1,.17246-.08562L13.15327,9.049l2.01254-3.536a.2199.2199,0,0,1,.41043.10025l.03024.86623,1.39819-.04994V1.05975L12.27939,3.5982l.61672,1.25749.8108-.39733h0a.21494.21494,0,0,1,.20324.0061.21763.21763,0,0,1,.08287.29708L12.42687,7.53339a.21784.21784,0,0,1-.195.12005Z" style="fill:#a1afba;fill-rule:evenodd"/></g></svg>