<svg xmlns="http://www.w3.org/2000/svg" viewBox="0 0 7.74059 17.91512"><title>weather-thermometer-icon-uc-santa-barbara</title><g id="ICONS"><path d="M6.95721,1.31813V11.712A3.86983,3.86983,0,1,1,0,14.04482,3.86055,3.86055,0,0,1,.78338,11.712V1.31813A1.31009,1.31009,0,0,1,1.16944.38788L1.17035.387V.38605L1.17279.3845A1.31128,1.31128,0,0,1,2.10121,0H5.63914A1.31963,1.31963,0,0,1,6.95721,1.31813Zm-.43877.85164H5.03364a.2203.2203,0,0,1,0-.4406h1.4848v-.411a.8822.8822,0,0,0-.8793-.87936H2.10121a.87911.87911,0,0,0-.621.25747L1.47932.69715a.87679.87679,0,0,0-.25717.621v.411h1.4845a.2203.2203,0,0,1,0,.4406H1.22215V3.75634h1.4845a.21984.21984,0,1,1,0,.43968H1.22215V5.7835h1.4845a.21939.21939,0,1,1,0,.43877H1.22215V7.80884h1.4845a.2203.2203,0,0,1,0,.4406H1.22215V9.836h1.4845a.21984.21984,0,1,1,0,.43968H1.22215v1.50979h0a.22082.22082,0,0,1-.04753.1365,3.43357,3.43357,0,1,0,5.40323.01463.21792.21792,0,0,1-.05941-.15113V10.27569H5.03364a.21984.21984,0,1,1,0-.43968h1.4848V8.24944H5.03364a.2203.2203,0,0,1,0-.4406h1.4848V6.22227H5.03364a.21939.21939,0,1,1,0-.43877h1.4848V4.196H5.03364a.21984.21984,0,1,1,0-.43968h1.4848V2.16977ZM3.65,12.38817a1.67116,1.67116,0,1,0,.43968,0V4.98184a.21984.21984,0,0,0-.43968,0v7.40633Zm.22029.425a1.23128,1.23128,0,1,0,.87053.36111A1.22839,1.22839,0,0,0,3.87029,12.81319Z" style="fill:#a1afba;fill-rule:evenodd"/></g></svg>