<svg xmlns="http://www.w3.org/2000/svg" viewBox="0 0 18.811 20.70921"><title>windsock-Icon-UC-Santa-Barbara</title><g id="ICONS"><path d="M6.76738,10.87747v-8.644H2.84864v8.8564H6.76738v-.21238ZM16.313,3.47815a.29874.29874,0,0,1,.03382.00944l1.50034.419A1.30706,1.30706,0,0,1,18.811,5.17532v2.973A1.30708,1.30708,0,0,1,17.84717,9.418l-1.50034.418-.03437.00944-2.28653.63743a.2743.2743,0,0,1-.03352.00945l-2.287.6374c-.01133.0043-.02261.007-.0348.01039l-2.287.63743c-.01042.00335-.0217.007-.033.00945l-2.111.58807a.74608.74608,0,0,1-.09933.03717.85061.85061,0,0,1-.12158.0277.22009.22009,0,0,1-.24893-.18553l-.00153-.03108H6.76738v-.6938H2.84864v8.41092a.7713.7713,0,0,1-.76967.76876H1.0503A.76665.76665,0,0,1,.507,20.48373l-.0128-.01462a.76278.76278,0,0,1-.21237-.52866V11.52953H.2203a.21984.21984,0,1,1,0-.43968H.28185V2.23345H.2203a.21986.21986,0,1,1,0-.43972H.28185V.76845A.76587.76587,0,0,1,.507.22609V.22517A.76966.76966,0,0,1,1.0503,0H2.079a.76608.76608,0,0,1,.54267.22517l.00067.00092V.22517a.76806.76806,0,0,1,.22633.54328V1.79373H6.76738V1.10027a.21983.21983,0,0,1,.2203-.21938.25676.25676,0,0,1,.04479.00426A.74694.74694,0,0,1,7.14216.912a.88832.88832,0,0,1,.10116.03717l2.10639.58807a.19286.19286,0,0,1,.03565.00945l2.28616.63743a.20689.20689,0,0,1,.03388.00975l2.2861.63743a.19.19,0,0,1,.03443.00944l2.28708.63744Zm.177.50427V9.34087l1.23951-.34553a.86492.86492,0,0,0,.64268-.84706v-2.973a.86493.86493,0,0,0-.64268-.84737L16.49,3.98242Zm-.43877,5.48124V3.86054l-1.88183-.525V9.98775l1.88183-.52409Zm-2.32059.64688V3.21363l-1.88207-.525v7.94626l1.88207-.52439Zm-2.32181.64688V2.56588l-1.88122-.525v9.24184l1.88122-.5253Zm-2.32.64779V1.919L7.20706,1.39491V11.9296l1.88182-.52439ZM2.408,11.52953H.72061v8.41092a.32742.32742,0,0,0,.08806.22362l.00853.00887a.33071.33071,0,0,0,.2331.09659H2.079a.32966.32966,0,0,0,.32907-.32908V11.52953ZM.72061,11.08985H2.408V2.23345H.72061v8.8564Zm0-9.29612H2.408V.76845A.32343.32343,0,0,0,2.31152.53627L2.31237.53533A.33359.33359,0,0,0,2.079.43877H1.0503A.32973.32973,0,0,0,.72061.76845Z" style="fill:#a1afba;fill-rule:evenodd"/></g></svg>