<svg xmlns="http://www.w3.org/2000/svg" viewBox="0 0 16.18259 11.1325"><title>wind-icon-uc-santa-barbara</title><g id="ICONS"><path d="M13.64323.43968a.21984.21984,0,0,1,0-.43968,2.52949,2.52949,0,0,1,1.79468.7453l.00091-.00092a2.53745,2.53745,0,0,1,0,3.58963l-.00091.00187a2.53435,2.53435,0,0,1-1.79468.74377H.22A.21984.21984,0,1,1,.22,4.64H13.64323a2.09963,2.09963,0,0,0,1.48449-3.58452v-.0018a2.09269,2.09269,0,0,0-1.48449-.614Zm-10.552,3.1119h8.39349a.21984.21984,0,1,0,0-.43968H3.09125a.21984.21984,0,0,0,0,.43968Zm10.552,7.58092a.21984.21984,0,0,1,0-.43968,2.10014,2.10014,0,1,0,0-4.20028H7.02881a.21984.21984,0,0,1,0-.43968h6.61442a2.53135,2.53135,0,0,1,1.79468.74468l.00091.00061a2.53639,2.53639,0,0,1,0,3.58875l-.00091.00183A2.53052,2.53052,0,0,1,13.64323,11.1325Z" style="fill:#a1afba;fill-rule:evenodd"/></g></svg>